<?xml version="1.0" encoding="UTF-8"?>
<svg id="g" xmlns="http://www.w3.org/2000/svg" viewBox="0 0 1080 1080">
  <path d="M914.2,540h0s-467.95,0-467.95,0l93.75,150,340.29-4.51c-18.6,43.46-45.05,82.54-78.66,116.14s-73.56,60.67-117.62,79.31c-45.6,19.29-94.05,29.06-144.01,29.06s-98.42-9.78-144.01-29.06c-44.06-18.63-83.63-45.32-117.62-79.31-33.99-33.99-60.67-73.56-79.31-117.62-19.29-45.6-29.06-94.05-29.06-144.01s9.78-98.42,29.06-144.01c18.63-44.06,45.32-83.63,79.31-117.62,33.99-33.99,73.56-60.67,117.62-79.31,45.6-19.29,94.05-29.06,144.01-29.06s98.42,9.78,144.01,29.06c44.06,18.63,83.63,45.32,117.62,79.31,32.44,32.44,58.21,69.98,76.69,111.63h32.6c-59.34-146.59-203.05-250-370.92-250-220.91,0-400,179.09-400,400s179.09,400,400,400,400-179.09,400-400h-25.8Z" fill="#fff"/>
</svg>