<?xml version="1.0" encoding="UTF-8"?>
<svg id="_圖層_1" data-name="圖層_1" xmlns="http://www.w3.org/2000/svg" viewBox="0 0 300 300">
  <circle cx="150" cy="150" r="66.86"/>
  <rect x="138.75" width="22.51" height="55.43" rx="11.25" ry="11.25"/>
  <rect x="52.28" y="35.82" width="22.51" height="55.43" rx="11.25" ry="11.25" transform="translate(-26.31 63.53) rotate(-45)"/>
  <rect x="16.46" y="122.29" width="22.51" height="55.43" rx="11.25" ry="11.25" transform="translate(-122.29 177.71) rotate(-90)"/>
  <rect x="52.28" y="208.76" width="22.51" height="55.43" rx="11.25" ry="11.25" transform="translate(-58.76 448.6) rotate(-135)"/>
  <rect x="138.75" y="244.57" width="22.51" height="55.43" rx="11.25" ry="11.25" transform="translate(300 544.57) rotate(180)"/>
  <rect x="225.22" y="208.76" width="22.51" height="55.43" rx="11.25" ry="11.25" transform="translate(570.89 236.47) rotate(135)"/>
  <rect x="261.03" y="122.29" width="22.51" height="55.43" rx="11.25" ry="11.25" transform="translate(422.29 -122.29) rotate(90)"/>
  <rect x="225.22" y="35.82" width="22.51" height="55.43" rx="11.25" ry="11.25" transform="translate(114.18 -148.6) rotate(45)"/>
</svg>