<?xml version="1.0" encoding="UTF-8"?>
<svg xmlns="http://www.w3.org/2000/svg" version="1.1" viewBox="0 0 1080 1080">
  <!-- Generator: Adobe Illustrator 28.7.3, SVG Export Plug-In . SVG Version: 1.2.0 Build 164)  -->
  <g>
    <g id="cryo">
      <path d="M265.2774515,512.6169505h41.7591505v18.4835584h-41.7591505v-18.4835584ZM294.7142298,560.5372871l13.6915248,17.7989822-15.7452535,12.3223723-10.2686436-15.0606772c-5.0251921,5.4766099-10.9532198,10.5041545-17.7989822,15.0606772-.4588673-.9104158-1.1434436-2.2795683-2.0537287-4.1074574-1.8280198-2.738305-3.1971723-5.0178732-4.1074574-6.8457624-2.2868872,6.8457624-7.989206,10.5041545-17.1144059,10.9532198l-21.2218634.6845762c-.4612198-4.5565227-1.3691525-8.8994911-2.738305-13.0069485h-24.6447446v-29.4367782l-6.1611861,13.6915248-6.1611861-5.4766099v65.0347426h-23.9601683v-57.504404c-3.1995248,8.6736515-7.0812733,16.8885664-11.637796,24.6447446-.9200872-11.4022851-2.5149486-24.1860079-4.7920337-38.3362693,7.2948277-10.9532198,12.5457287-23.7246574,15.7452535-38.3362693h-12.3223723v-24.6447446h13.0069485v-29.4367782h23.9601683v29.4367782h10.9532198v24.6447446h-10.9532198v15.0606772l12.3223723,8.8994911v-17.1144059h39.0208456v49.9740654c4.1074574-.4490653,5.9280277-2.9641445,5.4766099-7.5303386v-51.3432178h23.2755921v30.1213545l12.3223723-7.5303386,8.8994911,11.637796,13.0069485,15.7452535ZM215.3033862,534.5233901h-5.4766099v28.752202h5.4766099v-28.752202ZM270.7540614,560.5372871l-10.2686436-13.0069485v21.2218634c4.1074574-2.738305,7.5303386-5.4766099,10.2686436-8.2149149ZM200.2427089,512.6169505l23.2755921,3.4228812,15.0606772-30.1213545h60.2427089v-22.5910159h-102.6864357v22.5910159h17.1144059l-13.0069485,26.6984733ZM187.2357604,617.3571149h119.8008416v-21.9064396h-119.8008416v21.9064396ZM561.9756422,507.8249168h73.934103v-21.2218634h-73.934103v21.2218634ZM581.2198409,531.7850851h50.5824469v-18.4835584h-50.5824469v18.4835584ZM566.7676759,556.4298297h32.1750178v-19.1681347h-32.1750178v19.1681347ZM567.4522521,561.9064396h63.6654594v59.5581327h-23.2754614v-6.8457624h-16.4298297v6.8457624h-23.9601683v-59.5581327ZM591.4124204,595.4506753h16.4298297v-13.0069485h-16.4298297v13.0069485ZM629.0639828,461.2737326h-58.8734258v18.4835584h58.8734258v-18.4835584ZM702.3136403,559.8527109c-.9199565,10.9532198-1.6045327,18.4835584-2.0537287,22.5910159-1.3691525,8.6736515-5.9353466,12.7811089-13.6915248,12.3223723h-7.5303386c-8.6736515.9200872-12.7811089-3.1873702-12.3223723-12.3223723v-35.5979644h51.3432178v-80.0954198h-78.7262674v26.6984733h52.7123703v27.3830495h-52.0277941v68.4576238c-.4587367,20.0784198,9.1253307,29.8858435,28.752202,29.4367782h23.9601683c18.2481782.9102851,28.5168217-5.9354773,30.8059307-20.5372871,2.2795683-7.7561782,3.8720772-17.5634712,4.7920337-29.4367782-3.6582615-.9104158-8.4502951-2.502794-14.376101-4.7920337-5.0274139-1.8182178-8.8994911-3.1873702-11.637796-4.1074574ZM396.1697875,545.4766099l-25.3293208-8.2149149c-7.304499,27.3830495-14.376101,49.5250001-21.2218634,66.4038951l25.3293208,11.637796c2.738305-8.6737822,8.2149149-26.4629623,16.4298297-53.3969466,2.2795683-7.7561782,3.8719465-13.2327881,4.7920337-16.4298297ZM396.1697875,518.7781366c-3.6583921-9.5840673-8.8994911-24.1858772-15.7452535-43.8128792-1.3691525-4.1074574-2.2892397-7.0714713-2.738305-8.8994911l-23.9601683,8.2149149c7.2948277,22.365307,12.7714376,39.9409328,16.4298297,52.7123703l26.013897-8.2149149ZM508.4427737,572.8596594h-30.8060614c9.584198,8.6736515,23.2757228,15.9807644,41.0722218,21.9064396-3.1971723,5.0275446-7.3046297,12.3223723-12.3198891,21.9064396-18.2603327-9.135002-31.2672812-17.7989822-39.0208456-26.013897v31.4905069h-26.7009565v-31.4905069c-8.6737822,8.6736515-23.0497525,17.5634712-43.128303,26.6984733-3.6583921-6.8457624-7.9890753-13.6915248-13.0069485-20.5372871,20.9863524-7.2948277,36.0470297-15.2865168,45.1820317-23.9601683h-30.1213545v-73.9342337h41.0745743v-8.2149149h-45.8666079v-20.5372871h45.8666079v-12.3223723h26.7009565v12.3223723h46.548701v20.5372871h-46.548701v8.2149149h41.0745743v19.8527109h-41.0745743v34.2288119h41.0745743v19.8527109ZM440.6672429,544.7920337h-17.7989822v8.2149149h17.7989822v-8.2149149ZM440.6672429,518.7781366h-17.7989822v8.2149149h17.7989822v-8.2149149ZM820.8837346,518.7781366l2.738305-26.013897c-3.6583921-1.3691525-6.8457624-2.502794-9.5840673-3.4228812v-30.8059307h-23.9601683v33.5442357l-13.0069485-2.0537287c-2.738305,24.6447446-5.250901,42.6792377-7.5303386,54.0815228l14.376101,2.738305c.4490653-1.8182178.9102851-4.1074574,1.3691525-6.8457624,2.2794376-15.9710931,3.8719465-28.752202,4.7920337-38.3362693v120.4854179h23.9601683v-106.7938931c1.8182178.9200872,3.1873702,1.6046634,4.1074574,2.0537287,1.3691525.4588673,2.2794376.9200872,2.738305,1.3691525ZM935.8925426,513.3015267h-111.5859268v-17.7989822h23.2755921c-1.3691525-3.6485901-2.738305-6.386895-4.1074574-8.2149149h-15.0606772v-18.4835584h36.9671168c-1.3691525-3.6485901-2.5125961-6.6102514-3.4228812-8.8994911l28.752202-2.0537287c.4490653,1.3691525,1.1336415,3.4228812,2.0537287,6.1611861.4490653,1.8280198.9102851,3.4228812,1.3691525,4.7920337h36.9671168v18.4835584h-12.3223723c-1.3691525,1.8280198-2.738305,4.5663248-4.1074574,8.2149149h21.2218634v17.7989822ZM892.0796633,487.2876297h-21.9064396l4.1074574,8.2149149h14.376101c.9102851-3.6485901,2.0537287-6.386895,3.4228812-8.2149149ZM831.9519653,541.3691525h-2.8533159v12.3223723h99.9481307v-12.3223723h-97.0948149ZM831.9519653,535.2079663h97.0948149v-15.7452535h-99.9481307v15.7452535h2.8533159ZM907.8249168,583.8128792c.9102851,1.8278891,1.5948614,3.8816178,2.0537287,6.1611861-3.1971723-.9104158-7.5303386-2.502794-13.0069485-4.7920337-1.3691525-.4490653-2.2892397-.9104158-2.738305-1.3691525-.4588673-.9104158-1.3691525-2.738305-2.738305-5.4766099-.4588673-1.3691525-.9200872-2.2795683-1.3691525-2.738305h39.0208456v-15.7452535h-99.9481307v15.7452535h39.0208456c2.738305,6.3966971,5.4766099,12.3223723,8.2149149,17.7989822l17.1144059-6.1611861c0,.9200872-.235511,1.8278891-.6845762,2.738305,0,1.8278891-.235511,2.9738159-.6845762,3.4228812-.4588673,4.1074574-2.738305,6.1611861-6.8457624,6.1611861h-10.2686436c-5.4766099.4587367-7.989206-2.0537287-7.5303386-7.5303386v-13.0069485h-21.9064396v6.1611861l-17.7989822-6.1611861c-2.2892397,6.3966971-5.7121209,14.1502614-10.2686436,23.2755921-1.3691525,2.2794376-2.2892397,4.1074574-2.738305,5.4766099l18.4835584,8.2149149c1.3691525-2.738305,3.1873702-6.6200535,5.4766099-11.637796,3.1873702-5.9256752,5.4766099-10.7177089,6.8457624-14.376101v10.2686436c0,12.7714376,6.386895,19.1681347,19.1681347,19.1681347h24.6447446c11.4022851.4490653,18.4835584-3.8817485,21.2218634-13.0069485.4490653-2.738305,1.3691525-5.4766099,2.738305-8.2149149.4490653,1.3691525,1.3691525,3.1970416,2.738305,5.4766099,1.8182178,5.0177426,3.1873702,8.8994911,4.1074574,11.637796l19.8527109-6.1611861c-5.0275446-12.7714376-9.3583584-22.8168554-13.0069485-30.1213545l-19.1681347,4.7920337Z" fill="#fff"/>
    </g>
  </g>
</svg>