<?xml version="1.0" encoding="UTF-8"?>
<svg xmlns="http://www.w3.org/2000/svg" version="1.1" viewBox="0 0 1080 1080">
  <!-- Generator: Adobe Illustrator 28.7.3, SVG Export Plug-In . SVG Version: 1.2.0 Build 164)  -->
  <g>
    <g id="_圖層_1" data-name="圖層_1">
      <g id="_x33_0mins">
        <path d="M786.5578003,707.8153687c-2.6818237.3741455-7.6731567-12.1343384-5.6268921-13.6738892,1.6199951-1.4434814,8.2484741-1.2297363,10.4177246-1.6212158,2.2468262-.3817749,22.0726318-5.3639526,22.6990356-7.2210693,1.1535645-2.9624634-.6829834-11.7495117,0-14.7913818.3318481-7.2537231.3796997-14.6103516,0-21.7577515.1905518-2.3046265.739563-9-.1748657-10.2045898-1.0026855-.6658325-6.8152466-.5731812-8.0465698,0-3.9318237-.0893555-7.6126099-.4024048-10.5779419.2097778-4.059082.3022461-5.2730103,1.6847534-6.4846191-2.2773438-1.3895874-4.3118286-.5577393-5.0957031,3.039856-5.2086792,3.2348022.3264771,7.4397583,1.4023438,10.4356079.6734009,2.6005249-.5788574,7.5,2.0640259,10.3810425,0,2.3365479-.8962402.7189331-.3528442,1.4274902-3.9780273-.5059204-4.1876221-.0999756-7.6381836,0-11.0109863.3952026-4.2609253,1.149292-3.0256958-3.4945679-3.4176636-2.9724731-.3644409-9.8805542,2.553772-9.9602051-2.310791-6.513916,6.4656982-10.822876,14.2573242-16.6399536,21.4116211-2.7199097,2.506958-6.6870728,10.65979-10.3150635,7.7114868-4.8341675-3.8690796,6.4935913-13.0174561,8.2744751-16.8477173,5.4955444-8.34729,11.213623-15.7555542,16.3881836-23.9351196,4.9165649-7.1755371,9.4886475-14.7387695,12.4318237-22.4718628.9344482-3.6986084,2.9628296-15.2318115,6.6591187-15.8258667,3.206604-.6414185,10.6524658,2.4678955,13.4368286,2.8311768,1.9819946.6470337,4.6403198,1.8442383,3.6364136,4.5635376-.7845459,3.140686-5.2926636,2.628418-7.2784424,3.2715454,7.9539795,4.0795288,24.5199585,10.5179443,23.1764526,22.1433716-.739502,5.3305664-4.8789062,10.5783081-9.3988647,5.197937-2.6081543-3.1036377-4.4650879-7.8450317-6.5345459-10.645874-2.3678589-3.145752-6.6708374-7.3205566-10.001709-11.369812-4.4400024,10.5441895-12.7590332,19.9353638-19.7041016,29.0283203,3.6141968,1.4765625,5.897644,1.1121826,10.4002075.6323853,3.4776611-.0631714,8.9266357,1.0450439,11.4900513,0,2.4241333-.0595093,3.1470947-3.9406128,5.145813-5.3671875,5.2323608-5.8672485,6.9585571-1.3123169,11.4837036,3.1730957,2.1065674,2.3602905,7.8581543,6.4354858,2.9801636,8.631897-2.9486084.3665771-7.112915.1455688-8.8996582.1676025-2.8912354.4743042-6.7496338-1.9144287-9.7094116,0-1.7810669,1.2473145-.8519287,1.7677002-1.147583,3.9780273.0010986,3.1705933.4465942,7.2885742,0,11.0109863.100708,2.9528809-.5376587,4.7180786,3.670105,3.4278564,3.2851562-1.241333,5.9063721-8.2037354,9.2468262-8.557373,2.1747437-.1238403,11.7672729,9.2645874,12.2450562,11.434021,1.5870361,5.8833618-12.9812622,3.6077271-16.6600342,3.7262573-1.4173584-.1253662-6.9300537-1.1306152-8.057251,0-.8839722.371521-.2964478,1.0534668-.4447021,2.6784668-1.3616943,7.8565674.0423584,16.7902222,0,24.6195068.1332397,5.7020874-.0743408,11.4813843,0,17.3886108,4.6201782-.7489624,19.758728-7.0876465,22.180481-3.6591187,4.0978394,4.7153931-10.727356,8.3166504-13.8215942,9.5128174-8.289978,2.9868164-16.5430298,6.5240479-24.7167969,9.3826904-3.7053833,1.4178467-19.4081421,9.0401611-23.5509644,9.3469238h-.0001221ZM808.6639404,661.1329346c-2.3987427-5.1416016-6.4057617-13.7503052-12.2367554-15.8378906-1.5444946-.8431396-4.4758301-1.9280396-5.076355.7412109-.0917358,2.173584,2.7265015,9.3335571,3.9592285,11.3305664,1.4621582,3.8988647,2.9760132,23.8528442,8.5593872,23.4724731,8.2595215-.1807861,7.2827148-15.2727661,4.7944946-19.7064209v.000061ZM843.9644165,660.6148682c.9177246-1.1192627,1.053772-3.0563354,2.1764526-4.1305542,1.6751099-1.9855957,3.1459351-1.2786255,5.2890625-2.769104,2.4485474-1.7028809,2.3668213-3.3579102.5949707-5.3048096-2.0304565-2.2843628-8.7504883-3.5151978-11.526062-4.4744263-6.2559814-1.6064453-4.9153442,4.4971313-5.881958,9.5319214-1.1465454,6.367981-2.5054932,13.0965576-4.4031372,19.3588867-.9492798,3.3960571-2.2700806,7.3206787,2.3901978,7.0440063,3.2092896-.0644531,9.5653687-16.2805176,11.3604736-19.2559204ZM889.994751,695.9871826c15.3096313-.0847778,29.5870972-.0854492,45.5125122,0,10.8908691-.3674316-.87323-10.8668823-5.3745728-13.2364502-7.3328857-5.7382812-7.6547852,4.4730835-13.8220215,6.8502197-2.210022,1.4160156-6.3155518.3267212-8.8013916,0-1.4434814.1212769-9.3724976,1.1578369-10.1738281,0-1.112793-1.0153809-.0510864-7.2171021-.1266479-8.7606201-.2215576-2.5256958-.6524658-3.3118286,1.0698853-4.7588501,1.7440796-1.1737671,8.5079956-.9990234,8.9981079,0,7.5617065.8453979,15.6306763-.1029663,24.0036621,0,12.0601196-.6972046-1.5343628-10.1621704-5.2525024-12.9717407,4.8874512-1.1365967,1.0904541-28.0343628,1.5710449-32.6807861-.4284668-1.3779907-.7354126-6.0120239,0-7.8479614,2.0535889-3.8342896,7.4780273-4.4916382,2.03479-8.5560303-1.5187988-1.7055054-7.015625-5.9165039-9.5215454-5.4401855-2.142334.4390869-3.918457,4.5529785-5.9504395,5.9493408-5.12854,1.2598267-11.4969482.128418-15.3024902,0-6.6480103.0882568-13.4683228-.2827148-19.552002,0-3.5297241-.4863281-7.321167.9145508-10.2148438,0-2.1271362-.7996216-8.5117798-5.9519653-11.015625-5.0144043-2.4954834,1.2835083-1.0078125,7.2509155-1.1744995,9.8392334.118042,11.416626.4656982,23.543396-.0042114,35.0126953-.5134277,3.9057617-1.4783936,8.9871216,2.1478882,10.6159668,2.4790039,1.4889526,8.7424927.5645752,9.6099854-3.1309204.906189-2.5789795-.7936401-2.2806396,2.2263794-3.2484741,1.4968872-.4273071,4.6972046-.666687,8.2330933,0,.5856323.1721191,5.6039429-.6491089,6.234436,0,.1546631,1.0930786-.7163086,5.1633911,0,6.9165039.1847534,1.7508545.8377075,3.9216919-.8583374,4.1704712-1.7425537.9289551-7.4804077-.0194092-7.9156494,0-5.3811646.2937622-11.6184692.0402832-17.8394165-.5879517-3.692749-.802124-4.3525391.0133667-3.6025391,3.8719482-.4510498,2.7579956,1.0918579,4.125,3.9553833,3.5764771,6.1044922.765564,12.6564941-.4542847,18.8630371-.4742432,6.4366455-.1234741,7.6046143-1.7044678,7.397583,4.131958-.3186646,1.75354.4199829,6.8174438,0,8.7305908-.6761475,1.4585571-1.399231.2041626-2.1960449.6569214-5.4743042,1.7218018-12.0133057-.2952271-17.5160522,0-6.013855.328186-11.8355713.026001-17.4500122-.5267944-3.4373169-.4589844-5.0560303-1.6387939-5.2613525,2.1766357-.0603638,1.121521.6755981,5.6477051,2.385376,5.6477051,15.0691528.2794189,30.1029053-1.5570679,44.6829834-.9112549h-.0001221ZM899.2287598,669.6951294c-1.6856079.4720459-1.3707886-.0162354-2.0200195-1.7323608-1.8782349-.6585693-1.2075195-6.4973755,0-8.5333862.781189-.9846802,8.6516113-1.9549561,12.0083618-.821228,2.1276245.1016846,5.3214722-.3863525,6.4558716,0,.7561646.0269165.1244507,2.1750488.315979,3.2567139,1.4735718,2.1397095,2.7563477.4986572,4.237793,1.8722534-1.8293457,1.7540894-3.2958984,4.137085-5.3455811,5.9580688-3.4467773.7126465-12.2179565,1.1057739-15.6524658,0l.000061-.000061ZM907.8596802,652.2193604c-1.8041992.2929077-6.6863403,1.2550049-9.8286133,0,.0888062.8635254-2.0018311-10.3684082-.8223267-12.7576294,1.4465332-.5367432,15.2247925-.4550781,17.4056396,0,2.8809814.4104614.774231,8.5059204,1.1257935,12.7576294-2.6434937-.1954956-6.4677734-1.4377441-7.8804932,0ZM869.3607178,652.2193604c-1.0684204-1.6801758-1.3798828-11.4840698-.5678101-12.7576294,1.1419678-1.1419678,14.7140503.1252441,15.9892578,0,2.0460815,1.0479736-.0409546,8.8601685.5678101,12.7576294-2.9761963.3222046-13.2005615,2.2440796-15.9892578,0ZM908.5383911,633.072937c-2.0765381-.229187-9.2522583.8376465-10.2038574,0-2.6539307-1.088623-1.9680786.2444458-1.1257935-4.0094604-.1608887-.9022217-1.0717773-7.0647583,0-8.140625,1.7908325-1.7753906,15.0688477-1.388855,17.0048828,0,2.1340332,1.0476074,1.9440308.2879639,1.5265503,4.0094604.2302856,2.9552002.1263428,4.3455811,0,8.140625-1.4779663.5574951-4.585144.0518188-7.2017822,0ZM869.3607178,633.072937c-.5189819-.2781982-1.6083984-11.480835-.5678101-12.1501465.880188-1.0445557,13.6159668-1.4714966,15.3305664,0,2.6411743,1.1900635,1.4661255,8.3833618,1.2264404,12.1501465-3.5936279.3323364-13.4263916,1.5440063-15.9892578,0h.000061ZM880.4202271,607.24646c13.4155273.5839233,26.0330811-.552124,39.0383911,0,3.3988647.1735229,21.6696777,2.2017212,20.2824097-3.4810181-.3683472-2.8074951-7.3209839-6.9544678-9.2139893-8.7385254-4.1523438-3.8214722-5.434082-3.2913818-9.8228149,1.4699707-3.5822144,2.4885864-3.465332,3.3037109-7.2058105,4.3608398-2.7833862-.3197021-5.4175415-.3394165-8.347229,0,3.673645-3.0015869,7.6002197-9.2289429,11.9453735-11.3190308,2.741272-1.4160767,5.7721558.0916138,5.3876953-3.8849487-.2122803-1.0473022-4.7838135-3.6959839-6.046875-3.9349365,5.0338745-.0511475,11.9477539.9478149,16.9769287,0,5.9527588-1.5137939,2.2974243-5.1421509-1.291748-8.0836182-2.9550171-1.5576172-6.9984741-7.4813843-9.8989868-6.6732788-3.2913208,1.5883789-3.8378296,7.7767944-7.7370605,8.3681641-2.4289551.9953613-6.0130615-.1932373-7.7041626,0-4.8943481.2935181-10.9425049,2.0599365-9.4216919-4.5698853.3069458-2.8682861.0216675-1.1005859,2.8059082-2.9991455,2.0332031-1.1375732,3.8436279-2.0062256,3.4235229-3.5951538.1755371-2.2597046-3.1417847-2.4067383-4.2253418-3.3180542-2.833313-.8879395-6.3237915-1.0354004-9.6450195-1.1044312-5.7129517-.6039429-4.7458496,1.9241943-4.7554321,7.0706177.7015381,1.1553955.7039185,7.8105469-.0562744,8.5159912-.5994873.6914062-5.1907349-.1723633-6.4587402,0-6.7321777-.2651367-13.4105835.4377441-19.6713867-.6360474-3.9804077-.0272827-3.6813354.0488281-3.7982178,3.9100952,1.1096802,3.8930664,1.3748779,3.5872803,5.9352417,3.4776611,4.5658569-1.0516357,5.4455566-1.5199585,7.5852661,2.3245239,1.3406372,1.513855,1.4592285,3.2250366,2.0881958,5.2097778.8118286,3.649353,1.6737671,7.5685425,3.1343384,11.2416992-5.3449707.5821533-10.4729614.2474365-15.8303223-.1991577-2.9304199.0389404-5.177124-2.1558228-6.2052612,1.0413818-.4824219,2.1953125.6044922,6.550354,2.1347656,6.4578247,8.4143677-.057251,17.3679199-.6697998,26.5983887-.9112549l-.000061-.000061ZM881.5804443,600.8577271c6.0933838-8.4672852-1.6139526-14.6138306-6.9190674-19.138916,10.689209.3853149,20.3733521.4498901,30.7960815,0-1.3348999,6.1304932-4.5513306,13.4746704-7.8278809,19.138916-5.7763062-.0527344-10.517334-.4440308-16.0491333,0ZM412.9491882,701.0588379c-.3500977-.0022583-.6925964-.0620728-1.0119324-.2155151-.3196411-.1540527-.6609802-.2180786-1.0108032-.2175293-.7072449.0010986-1.3750305-.1444702-2.0202026-.440918-.2307739-.1057739-.5213318-.0772705-.7602844-.1712646-.5679016-.2231445-.9713135-.7312622-1.5634766-.9276123-.1591187-.0530396-.3074951-.1627808-.4384155-.2730713-.9329529-.7868042-1.7872009-1.6528931-2.5742798-2.5855713-.2115784-.685791-.7944336-1.1337891-1.1202698-1.7459717-.1633301-.3069458-.3613892-.6065674-.4595642-.9346313-.149231-.4987793-.2697144-.9998169-.4855042-1.4816895-.1379395-.3074951-.1359863-.6796265,0-1.015625.1303406-.3221436.2674561-.6364746.2375488-.9995117-.0431519-.5250244.0925293-1.0390015.1165161-1.5595093.0166321-.361084.1577148-.6711426.3021545-.9851685.0741882-.1610718.1069336-.3255615.1170654-.5036011.0448608-.7814331-.0530396-1.5654297.0643311-2.3466187.0392151-.2626343.111145-.508667.2146912-.7462158.1100159-.2519531.1464233-.5154419.0304565-.7529907-.2361145-.4832764-.3193665-.9814453-.2962341-1.5149536.0158081-.3574219.1506348-.6734009.2457275-1.0060425.0448608-.1574097.0437317-.350647-.0045166-.5066528-.0764465-.2468262-.2657471-.4666138-.3089294-.7149048-.1058044-.6073608-.4090576-1.1400146-.5851135-1.7186279-.0770264-.2525024-.1969299-.4852295-.4048462-.6547852-.4231567-.3450317-.6686096-.7862549-.7687683-1.3205566-.0315857-.1687012-.1368103-.3363037-.2962341-.4073486-.4028625-.1796875-.7631226-.4127197-1.0757141-.7230835-.123291-.1227417-.2462769-.2471313-.381134-.3565674-.2697144-.2186279-.551239-.416687-.8508606-.5983887-.890625-.5394287-1.7849426-1.0762329-2.6089783-1.7186279-.2843628-.2211914-.6257324-.2801514-.9761047-.3173828-.1695557-.0180664-.3436279-.0615234-.4987793-.1309204-.3190613-.1424561-.6353149-.2773438-.9941711-.2714233-.4350281.0070801-.8703308.0109863-1.3053284.0144043-.3543396.0028076-.6897583.0792847-1.0003662.2507935-.2319031.1278076-.4810181.2166748-.7408447.2302246-.5351562.0281982-1.0048828.2144165-1.468689.4728394-.2984619.1664429-.6550598.2248535-.9402771.4330444-.2180786.1591187-.4810181.1864624-.7320862.2525024-.1653137.043457-.3413696.0880127-.4804382.180542-.5103455.3396606-.9817505.7315063-1.2494812,1.2991333-.1122742.2380981-.2146912.4835205-.3904419.6725464-.5994873.6448975-.8674927,1.5014038-1.4159241,2.1773682-.170105.2095947-.211853.4736938-.2488098.730957-.0505066.3500977-.1935425.6655273-.3320618.9848633-.1734924.4000244-.1193237.8643799-.3374023,1.2514648-.2183533.3878784-.3292236.7949829-.318512,1.2441406.025116,1.0441284.0005493,2.0890503.1069336,3.1306152.0265198.258728.0050659.5222168.0310364.781189.0172119.1698608.0544434.3467407.1266785.4998779.1878967.3983154.3165283.8068237.3235779,1.2497559.0098877.616394.1072083,1.2074585.4372864,1.7474365.1376648.225708.1266785.5004883.1622009.7577515.035553.2575684.077301.5145874.1165161.7716064.3340149.5216064.3557434,1.1583862.6231995,1.7022705.1531982.3120117.32724.6102295.3667603.9656982.0290527.2631836.1054993.5340576.2886047.7134399.5729675.5614014.8553772,1.3039551,1.2641602,1.9657593.1833801.2970581.3611145.5881958.6020203.8417969.5994873.6311035,1.181488,1.2785645,1.7928467,1.8972168.6107788.618103,1.3081665,1.1428223,1.8983459,1.7891846.4085083.4474487.8886719.8530884,1.4294739,1.1281738.5489807.2796021,1.0204163.6604004,1.5358276.980896.2925415.1817017.6147156.3168335.9177246.4866333.4541931.2547607.9171448.4925537,1.3451233.7918701.5015869.3509521,1.0802002.5532227,1.6244202.8192749.3046875.1489258.665802.157959.9831543.322998.5371399.2796021,1.0872803.5455933,1.6560059.7509766.5673218.204834,1.1002502.5244751,1.7231445.5695801.0795593.0056152.159668.0657349.2310486.1134033.374939.2490845.7904968.3408203,1.2351074.3430786.3503723.0014038.6863708.0623169.9958496.2490845.3052368.1842041.6533813.2276611,1.0020752.246582.1782837.0098877.3416443.0521851.4985046.1384888.3887634.2144165.8051453.3066406,1.250885.2987671.4347229-.0076294.8706055.0039673,1.3047791.0253906.1698303.0084839.349823.0380859.5030212.1071777.4000244.1808472.8009338.2998657,1.2506104.2970581,1.1309814-.0076294,2.2622681.0144043,3.3935547.0310059.2626343.0039673.5086365.0857544.7492981.1954956.2352905.1077881.4736633.1983032.7467651.2000122,1.0443726.0059204,2.0887756.0563965,3.1325989.0403442,1.3041992-.0200195,2.6081543-.0840454,3.911499-.1436157.1655884-.0076294.3300781-.0950928.4897461-.1585693.2400818-.0953369.4604187-.236145.7320862-.2504883,1.3902588-.0736084,2.7802429-.156311,4.1704712-.2304688.3518066-.0186157.6821594-.1010132,1.0102539-.2288208.2398071-.0930786.4976501-.1633301.7529602-.1884766.6925964-.0682983,1.3877258-.1109009,2.0822754-.1560059.2674561-.0175171.4987793-.1207275.730957-.2431641.2299194-.1213379.4722595-.1954956.7419739-.2104492.4335938-.0239868.8666382-.079834,1.2963257-.145874.1661682-.0253906.3326111-.0970459.4804382-.1799927.3092041-.1732178.6370239-.272522.9851379-.3179321.3580017-.0462646.6172791-.3173828.9453735-.4231567.3320618-.1069336.6626892-.2087402.9473267-.416687.2970581-.2172241.6677551-.1737671.9907837-.2928467.1610718-.0595093.3069458-.1616211.4581604-.2476807.3768921-.2144165.7481689-.4401245,1.1309814-.6434937.4589844-.2437744.9233704-.4782104,1.3939209-.6982422.2406311-.1125488.4485474-.2631836.6423645-.4367065.3255615-.2919922.6542358-.5744019,1.1055908-.6508179,1.0604553-.586792,2.1175537-1.1772461,3.2132874-1.7005615.6234741-.2976074,1.1843262-.7191162,1.8176575-1.0097046.4846802-.2228394.8401489-.6036987,1.1569519-1.0266113.2598267-.3469849.3994751-.7735596.7318115-1.0725708.4485474-.4034424.769043-.9549561,1.3699341-1.1817627,1.2184448-.991333,2.2721558-2.1485596,3.3292236-3.302124.1754761-.1915283.3591309-.3952637.46521-.6271362.259552-.5681763.6968079-.9949951,1.0847168-1.4613647.2775879-.3340454.5856628-.6434937.8522644-.9857178.2110291-.2714233.272522-.6322021.5142822-.8970947.2928467-.3207397.5862427-.6471558.8299866-1.0048828.6838379-1.0020752,1.3180237-2.0360107,1.8718262-3.1173706.0942383-.5202026.4423523-.9315186.6026001-1.4320068.1565857-.4886475.471405-.9255981.7041626-1.3913574.1162415-.2324829.1836548-.4900513.3092041-.7163086.3035583-.5473022.4440613-1.1290283.4172363-1.7504883-.0155029-.3549194.0372314-.6895142.2104492-1.0043335.1704102-.3103027.2398071-.6471558.259552-1.0001221.0191956-.3438721-.0519104-.7109375.1292114-1.022644.2745056-.4728394.3439026-.9916382.3238525-1.5081787-.0408936-1.0435181.0552979-2.0853882-.0273743-3.1311646-.0541687-.6864014-.0248108-1.3956299.2984619-2.0436401.1249695-.6903076.1856384-1.3651733-.1543274-2.0320435-.2383728-.4674683-.2129822-.8023071-.0318909-1.2494507.0973206-.2403564.2505188-.4683228.247406-.7340698-.0061951-.520752-.0126953-1.0438232-.0708008-1.5600586-.0281982-.2490845-.2319031-.4810181-.249939-.7281494-.0169373-.2372437.2172241-.4725342.0880127-.7371826-.1551514-.3182373-.2423401-.6499634-.249115-1.0037842-.0016785-.0869141-.0214539-.1746216-.0138245-.260376.0956421-1.0483398-.1063538-2.0834351-.1373901-3.1257935-.0107117-.3568726-.1424561-.6759644-.3103333-.9840088-.0414734-.0761719-.0894165-.1540527-.1077576-.2369995-.0741882-.3382568-.1083374-.6838379-.2691345-1.0015259-.1954956-.3862305-.3656311-.7850952-.5552063-1.1741333-.0761719-.1560059-.2366943-.2939453-.2536316-.4516602-.0871582-.810791-.5845337-1.4368286-.9222412-2.133606-.1881714-.3884888-.3802795-.7780762-.6059875-1.1453857-.190155-.3088989-.2505188-.6401367-.2905884-.9857178-.0098877-.0834961-.0389404-.1669922-.0730591-.2445679-.0349731-.0789795-.077301-.1588135-.1328735-.223999-.169281-.1980591-.339386-.3969116-.5230408-.5817261-.2561646-.2578735-.2668762-.6429443-.475647-.9146118-.8985291-1.1699219-1.7761841-2.3553467-2.829895-3.4000244-1.052002-1.0426636-2.1827087-1.9970703-3.2632141-3.0073242-.1263733-.1182251-.2606812-.2516479-.4164124-.3103027-.5018921-.1890259-.8982544-.5281372-1.2923584-.8674927-.46521-.4005737-1.0085449-.6734009-1.5228577-.9958496-.3650513-.2290649-.6325073-.6011963-1.0505981-.7600098-.5004578-.1904297-.8435059-.6090698-1.2884216-.8759766-.3709717-.22229-.7608643-.4116211-1.1222534-.6539307-.2872009-.192688-.5859375-.3673096-.8965454-.5272827-.3822632-.1972046-.7165833-.4863892-1.0785217-.7247314-.1433105-.0944824-.3046875-.1619263-.4598389-.2375488-1.0909424-.5300903-2.1502686-1.1228027-3.2668762-1.6046753-.5543518-.2392578-1.0844421-.5526733-1.5857544-.8911743-.5049744-.3413696-1.0082703-.6925659-1.5620728-.9326782-.5540771-.2398071-1.057373-.5893555-1.6641846-.7258911-.3306274-.0742188-.6336365-.2773438-.9447937-.4307861-.0747681-.0366821-.1531982-.0956421-.1938171-.1655884-.0702515-.1207275.0065002-.2606812.2121582-.336853.5103455-.1890259.8093872-.6491699,1.2387695-.9396973.2866211-.1937866.6471558-.2488403.9103699-.4914551.3199158-.2947998.6355896-.5966797.9792175-.8621216.5473022-.4229126,1.2190247-.6671753,1.7076416-1.1786499.05896-.0617676.1348572-.1196289.2138367-.1472778.2445984-.0860596.496521-.1509399.7416687-.2355347.1636353-.0563965.3089294-.1630859.3884583-.3210449.1181946-.2347412.2304993-.4911499.4747925-.5946655.5004578-.2113037.8248901-.6322021,1.2238159-.9622803.6008911-.4976196,1.1524353-1.0477905,1.8139954-1.4810791.5041504-.3306274.9368896-.7755127,1.3809509-1.1913452.3171082-.296814.6082458-.6226196.8959961-.9490356.3500977-.3972168.7698975-.6872559,1.2286072-.9501343.3746338-.2149658.6863708-.5328979.8260193-.9744263.0530396-.1669922.1517639-.3286743.3120117-.3994751.4897461-.2158203.8768005-.5594482,1.2413025-.9363403.3018494-.312561.6054077-.6237793.9047241-.9389038.7783508-.8203735,1.5014038-1.692688,2.3305359-2.4656982.1921082-.1791382.2840881-.4248657.3862-.6674805.167572-.3986206.3766174-.7803345.578064-1.1636963.0383606-.0730591.1119995-.1483765.1867676-.1774292.4214783-.1636353.7145996-.4812622,1.0119324-.800354.2372437-.2544556.5041504-.4815674.7326355-.743103.1695557-.1940918.3326111-.4085083.4364319-.6415405.1094666-.2460327.2626343-.4443359.4389648-.6375732.1746216-.1915283.3630676-.3786011.4976501-.5969238.1345825-.2177734.1875916-.4852295.3165283-.7075195.1746216-.3001709.3856506-.5789185.5845337-.8646851.1537476-.2211914.2158203-.4744873.2431946-.7335205.0279236-.2640381.1052246-.5083618.2225952-.7424927.1176453-.2335815.2248535-.4694214.2426147-.7357788.0059204-.0866089.023407-.1726685.0281982-.2592773.023407-.4341431.0643311-.8688965.0595398-1.3027954-.0039368-.364502.1461487-.6694336.2750549-.9902344.0637512-.1585693.1029663-.3306274.1294861-.5001831.0809631-.5177002.0956421-1.0373535.0491028-1.5612183-.0383606-.4324951-.0448608-.8674927-.0660095-1.3013916-.0087585-.1794434.0299072-.3469849.1173706-.5032959.3111572-.5557861.3100281-1.1724854.3069458-1.7770386-.0047913-.8683472-.0730591-1.7310791.0318909-2.6047363.092804-.7732544.0160828-1.5603638-.0657349-2.3417969-.0725098-.6934204-.113678-1.3812256-.4158325-2.0303955-.1060791-.227356-.1080627-.5058594-.1452942-.7625732-.0623474-.4310913-.1280823-.8539429-.3944092-1.2252197-.0854797-.1187744-.0093079-.3074951.0713806-.4787598.0335693-.0713501.077301-.1862183.0454102-.2335815-.3010254-.4483032-.3179321-.9876709-.4951172-1.4734497-.1478271-.4057007-.3010254-.8175659-.5179749-1.1879883-.3060913-.5227661-.5419312-1.0844727-.8900757-1.5826416-.0871582-.3450317-.316803-.6149902-.4767761-.9216919-.1622009-.3100586-.3314819-.6040039-.5726929-.8621216-.3563232-.3814087-.6920166-.7817383-1.036499-1.1741333-.2011414-.6082153-.7148743-.970459-1.1174622-1.420166-.8139038-.9089966-1.7186279-1.7259521-2.6211243-2.5424194-.519928-.4705811-1.0376282-.9287109-1.3061829-1.5984497-.2840881-.3297729-.5707092-.6466064-.9868469-.8311157-.2330322-.1035156-.4733887-.2516479-.6350403-.4431763-.565918-.6705933-1.2599182-1.1942139-1.9214783-1.7558594-.2651978-.2248535-.5049744-.4849243-.7901917-.6793213-.2838135-.1932373-.609375-.3255615-.9182739-.4815674-.4640808-.234436-.9146118-.5050049-1.397583-.6903076-.8139038-.312561-1.5070496-.8686523-2.3449402-1.1245117-.3678894-.2321777-.7385864-.4598389-1.1022034-.6984863-.1503601-.0987549-.3083496-.1452637-.4863586-.1712646-.2555847-.0372314-.5024414-.0942383-.7402649-.2262573-1.062439-.5879517-2.186676-1.0509033-3.2756348-1.5848999-.3199158-.1568604-.6584473-.2124023-1.0023499-.2592773-.3557434-.0485229-.6257324-.3078003-.9583435-.3969116-.4985046-.1340332-1.0331116-.1182251-1.498291-.4008789-.1385193-.0840454-.3298035-.0984497-.4993286-.111145-.6073914-.0445557-1.2167664-.0657349-1.8238525-.1162109-.1670227-.0140991-.3294983-.0961914-.4917297-.1542969-.2440186-.0871582-.475647-.1952515-.7481689-.2011719-1.1309814-.0253906-2.2611389-.0705566-3.3918457-.1018677-.1768799-.0048218-.3382568-.0429077-.5038452-.111145-.2389526-.0984497-.4781799-.1980591-.7484436-.2008667-2.2628479-.0234375-4.525116-.0160522-6.7862549.0897217-.3509521.0163574-.6903381.0770264-1.0082703.2324829-.2378235.1165161-.4911499.1664429-.7529602.1848145-.4338989.0302124-.8677673.0634766-1.3016663.0944824-.4398193.031311-.8511353.1489258-1.2365112.3695679-.3108826.1780396-.6663513.1836548-1.0116577.2113037-.3537598.0285034-.6781921.1384888-.9876709.3052368-.0764465.0411987-.1528931.0869141-.2349854.1125488-.0818176.0250854-.170105.0324707-.2561646.0389404-.260376.0197754-.5210571.034729-.7814636.0518799-.6717224.0443115-.6714172.0485229-1.984375.5185547-.599762.1029663-1.1755676.2733765-1.7059326.5822754-.0705261.0411987-.1695557.0324707-.2550354.0493774-.2536316.0502319-.5080872.0747681-.7453308.2107544-.5258484.3018799-1.0579224.5966797-1.6072083.8519897-.2383728.1109009-.4776306.2113037-.6719971.3850708-.3898926.3486938-.7983704.6677856-1.2709351.8982544-.6246033.6220703-1.3792419,1.0542603-2.1674805,1.4193115-.3233032.1495361-.6037292.3410645-.869751.5614014-.4674683.3864746-.8720093.8463135-1.4283447,1.1287231-.2262573.1151123-.4079285.3215942-.6017456.4956665-.902771.810791-1.6757507,1.7705688-2.7449646,2.3903198-.7549438.7219238-1.5397644,1.4221191-2.178772,2.2478638-.7445068.9622803-1.48703,1.9229126-2.3119202,2.8182983-.0578308.0629272-.1159363.1399536-.1373901.2203369-.1407776.5272827-.5385437.8829956-.8457642,1.2999878-.1015625.1376953-.203125.2956543-.2366943.4584351-.0914001.4420776-.4420776.7396851-.5915833,1.1530151-.1766052.4880371-.4175415.9541016-.6485901,1.4207153-.1568604.3168335-.2589722.640686-.2773132.9944458-.0177612.3475342-.0569763.6937256-.0741882,1.0412598-.0090332.1791382-.0392151.3455811-.1269531.4987793-.2228699.3887329-.2936707.809082-.2770386,1.253418.0394897,1.0432739.0809631,2.0864868.098175,3.1303101.0073242.4505615.1393738.8474731.3568726,1.2314453.1748962.3092041.1263733.6897583.2711182.9998169.1839294.3932495.3515015.7927246.5298157,1.187439.1791382.3960571.3760681.7791748.4567566,1.2108154.0155029.0838013.043457.1721191.0905457.2415161.4392395.6466064.8785095,1.2935181,1.3287659,1.9324951.3548889.5032959.8508606.8671875,1.2951965,1.2830811.5176697.4846802,1.1580811.7597046,1.7637634,1.0940552.1452942.0801392.3283691.0925293.4951172.1317749.6736755.1588135,1.4023743-.1018677,2.0478516.2697144.2666016.0112915.4793091-.18396.7261658-.2073364.6051331-.0575562,1.2133789-.0928345,1.8210449-.1066284.9817505-.022583,1.8224487-.5337524,2.7446899-.7597046.6708679-.3977661,1.3657227-.7490234,2.0802917-1.0621338.0775757-.0338745.1489563-.0930786.2090454-.1546021.4855042-.4959717.9639893-.9989624,1.4523315-1.4923706.427124-.4321899.8706055-.8483276,1.2926331-1.2853394.1176453-.1218872.2146912-.2826538.2671509-.4431763.0806885-.2457275.0674133-.529541.1774597-.7566528.3117371-.642395.4158325-1.3200073.4175415-2.0182495.0019836-.9558105.0905457-1.9130249-.0267944-2.867981.0702515-1.307312-.1850586-2.5993652-.1836548-3.9036255.0002747-.2677002-.1368103-.4984741-.228241-.741394-.1704102-.4519653-.2028503-.8057251-.0307617-1.2650146.1607971-.4285278.2053833-.824646-.0059204-1.2497559-.2002869-.4031372-.2022705-.8389893-.081543-1.2681274.0705261-.2502441.2197571-.4857788.2496643-.7377319.0628967-.527832.2163696-1.0158691.4688721-1.4796753.0392151-.0719604.0349731-.1698608.0420227-.2564697.0366821-.4533691.2372437-.8384399.5368652-1.1620483.2987671-.3224487.519928-.6812744.7196655-1.0720215.1980286-.387085.5114746-.6737061.9498901-.8410034.4798889-.1831055.8799133-.5617065,1.4297485-.586792.081543-.0039673.1664429-.0459595.2403564-.0869141.5317993-.2953491.9583435-.7467651,1.5253906-.9975586.2301941-.1018677.4059753-.3233032.6124573-.482666.2053833-.1582642.4183655-.3066406.6277161-.4592896.5210571-.0973511.8872375-.5216064,1.4167786-.6339111.6711426-.1419067,1.2528687-.6017456,1.9767761-.5986328.0775757.0003052.158844-.0674438.2327576-.1130981.3791504-.2349854.7935791-.3244019,1.2362366-.3543091,1.1315613-.0764771,2.2614136-.041748,3.3921204.001709.2702637.010437.5032959.1176147.7447815.213562.1605225.0637817.3227234.144165.4906006.1650391.6869507.0852051,1.3865967.0899658,2.0131531.4615479.1371155.0812378.3399353.067688.5126038.0690918.4429321.0036621.8497314.0930786,1.2387695.328125.3687134.2228394.767334.4025879,1.1665344.5681763.4003296.1658936.7992249.3359985,1.1987.5013428.4053955.1678467.7820129.3754883,1.1535645.5975342.5960999.3557739,1.1927795.711792,1.772522,1.0934448.3619385.2384033.6897583.5275269,1.039032.7862549.2790222.2067871.5473022.4429321.8559265.5930176.5611267.2733765,1.0257568.656189,1.4215698,1.1233521.5080872.6003418,1.1112366,1.1030884,1.6667175,1.6540527.3738098.3707275.7210693.7476196.9326782,1.2345581.4485474.5320435.8172913,1.1210938,1.2198486,1.6862183.5064087.7103882.9194031,1.465271,1.3200073,2.234314.2838135.5444946.5179749,1.0949097.5591431,1.7169189.0110168.168396.0628967.3413696.1294861.4976196.1021118.2389526.2403564.4620972.3509521.6976929.3326111.7089233.6434937,1.4207153.5915833,2.2371826-.0163574.2556152.054718.5162964.1748962.7543945.157135.3109131.2790222.62854.3018494.9865723.0437317.6948242.1162415,1.3876953.1734924,2.0814209.0217285.2634888.1018372.5066528.2166748.7436523.0753174.1551514.1610718.3187866.1808472.4857788.0705261.6043091.1579895,1.2114258.1619263,1.8182373.012146,1.8269653.0753174,3.65448-.0222778,5.4812012-.0093079.1763306-.0414734.3405151-.1218872.5013428-.157135.3134155-.262085.6409912-.2555847.9984131.0031128.1737671-.0059204.3481445-.0177612.5219116-.0290527.4338989-.0628967.8674927-.0947876,1.3013916-.3588562.6099243-.295105,1.3566895-.6401062,1.9728394-.1269531.2271118-.2301941.4677734-.2584229.7329102-.0378113.3554688-.1715393.6669312-.4115906.9360352-.3557434.3994751-.5853882.8601685-.6463318,1.3978882-.0098877.0863037-.0158081.178833-.0513306.2553101-.5123291,1.0996704-1.0762634,2.1756592-1.5169373,3.3080444-.0310364.079834-.0792847.1588135-.1379395.2206421-.5419312.5721436-.8652344,1.2991333-1.3674011,1.9025879-.6694641.8043213-1.3936462,1.553894-2.131073,2.2935791-.3673096.3684692-.7436523.7374268-.9030457,1.2584839-.4516602.6327515-.8345032,1.3394775-1.6726379,1.5570068-.758606.7174072-1.7403564,1.1422729-2.4670715,1.9087524-.3571472.3768921-.8327942.6189575-1.2700806.9036255-.5159912.3354492-1.1335449.4420776-1.6365356.791626-.2561646.0499268-.5396729.0465698-.7633972.1605225-.4638062.2363892-.9656677.4096069-1.3973083.6878052-.4581604.2953491-1.0065918.2758789-1.4576721.5410767-.3842468.2254028-.7986755.3210449-1.2387695.3599854-.2558899.022583-.5289612.0645752-.75354.1782837-.4815674.2431641-.9935913.3088989-1.5132446.3551636-1.3016663.1162109-2.6070251.137085-3.913208.1193237-.7763672-.0107422-1.5741882.1289062-2.2930298-.3103027-.2476807.0321655-.4956665.0643311-.7436523.0964966-.4849548-.2392578-1.0077209-.2589722-1.5307617-.2460327-.869751.0217285-1.7389526.0631714-2.608429.0922241-.1802673.0059204-.3405151.053894-.4945374.1450195-.3814087.2250977-.7952881.3467407-1.2393188.3529053-.4496765.0064697-.8477478.1413574-1.1970215.4327393-.3331909.2778931-.6731262.5453491-1.0556641.7605591-.1357117.0761719-.211853.2651978-.3041077.4099121-.0933838.1461182-.1672974.3043823-.2598267.4508057-.1921082.3041382-.2606812.6412354-.2697144.9924927-.0045166.1802979-.0440063.3438721-.1399231.4968262-.0457153.0733643-.0682678.1624756-.1181946.2321777-.167572.2324829-.2073669.5199585-.0840759.7368774.3139954.5535278.3447571,1.1544189.4155579,1.7567139.0191956.1641846.0908508.3419189.190979.4733887.3204956.4214478.7512817.7179565,1.2043457.9822998.7064209.0488281,1.2678223.5580444,1.9722595.6189575.2589722.0222778.5103455.0871582.7521057.1986084.2347107.1083374.4745178.2102051.7475891.2017212.9563599-.0293579,1.9130249-.0527344,2.8696594-.0719604.179718-.0036621.3402405-.0437012.5004578-.1260986.3114624-.1599731.6418152-.2496948.9967041-.2699585.8688965-.0493774,1.7364197-.121582,2.6050415-.1743164.2711182-.0163574.4979248-.1342773.7315063-.2485352.2358398-.1151123.4829712-.1901245.7495728-.1848145.4347229.0084839.8706055.0383911,1.3039246.0177612.4462891-.0211792.8629761.0563965,1.2641602.2403564.1616516.0739136.3298035.0883179.5083618.0905762.7828674.0093384,1.5654602.0375366,2.3483276.043457.4448853.0033569.8547974.1088867,1.2528687.3032837.1509399.0736084.3292236.109436.4985046.1238403.3467102.0299072.6954041.0406494,1.0432434.0459595.3560181.0056152.6810303.0942383.9862671.2815552.1452942.0888672.3125916.1819458.4759216.1946411.5323486.0403442.9919128.2719727,1.4768677.4606934.5608521.2183838,1.0793762.5808716,1.7149658.5839844.8644104.3803101,1.8348694.6147461,2.2044373,1.661377.0581055.1641846.2307739.2578735.4003296.3043823.257843.0708008.4900208.1932373.6717224.3831177.3004456.3137207.6307983.6147461.8581848.9775391.2324524.371521.4747925.722229.7817383,1.0330811.6722717.6812744,1.3504639,1.3572388,2.0041199,2.0560303.4138489.442627.8440857.8700562,1.1563721,1.4071655.2158203.3712769.5419312.6782227.8141785,1.0172729.2169495.2705688.4683228.5241699.6313782.8248901.2939758.5410767.7947083.9287109,1.0585022,1.4813843.1523438.3187866.3433228.6071167.5743713.8652344.3529358.3944092.5740967.8669434.8302612,1.3189087.2567139.4528198.5264282.902771.7323608,1.3792725.1771545.4096069.4420776.7445068.7174072,1.0796509.2251282.2736206.3904419.572998.4305115.9298706.0502014.4488525.3633728.7825928.5128784,1.1871338.2383728.6448975.6615601,1.2311401.6240234,1.96521-.0045166.0846558.0205994.1735229.0462646.2561646.025116.081543.0620728.1616211.1052246.2358398.1748962.3010254.3410645.6054077.4178162.949585.2880249.3647461.2623596.777771.1836548,1.1987305.3509521.5388184.3399353,1.1572266.3833923,1.7623901.025116.3469849.0163574.6968384.0550232,1.0418701.0188904.1672974.0854797.3433228.1771545.4855347.111145.1735229.1066284.3052368.0169373.4891968-.1562805.3213501-.1972046.6556396.0191956.9868164.0936584.1430054.1943665.315979.1983337.4779053.0307617,1.2173462.1221619,2.4335327.0767212,3.652832-.0067749.1794434-.0550232.3370972-.1359863.4976196-.1165161.2307739-.2364197.4657593-.2457275.7337646-.0124207.3481445-.0287781.6959839-.0310364,1.0441284-.0042419.6113281-.0293274,1.2116699-.3255615,1.7747803-.1644592.3131714-.1413269.6810303-.1376648,1.0240479.0050659.5332031-.065155,1.0396118-.3238525,1.5101318-.0871582.157959-.1201782.3227539-.1142578.5029907.0056458.1737671-.0155029.3478394-.0160828.5219116-.0016785.6172485-.077301,1.215332-.4324951,1.7443237-.1551514.958313-.5935669,1.8029785-1.0500183,2.6425781-.2067871.3800049-.3912964.7730103-.567627,1.1685181s-.3410645.7972412-.4897461,1.2037964c-.1221619.3340454-.3120117.6175537-.5470276.8782349-.1162415.1289062-.2601013.2502441-.32724.4031372-.1754761.4003296-.3949585.7662354-.6581726,1.1160278-.3125916.4155273-.5836792.8624268-.8734131,1.295166-.3382568.5058594-.8565063.8821411-1.0982666,1.4511719-.2761841.6505737-.7935791,1.1363525-1.125061,1.7516479-.2440186.4533691-.5901794.8615723-.9394531,1.2457886-.5258484.5791626-1.0898132,1.1239624-1.6452942,1.6757812-.4321899.4290771-.8861084.8364868-1.3121033,1.2714844-.4891968.4990845-1.026062.9346313-1.613678,1.3098755-.6006165.6434937-1.4836426.9033203-2.0904541,1.5422974-.1791382.1884766-.4330444.2736206-.6725464.3814087-.4725342.2127075-.9041748.5117798-1.4449768.5633545-.1616516.0152588-.3241577.1190796-.4666138.2124023-.2911377.1904297-.5614014.4127197-.8553772.5986328-.1421814.0899658-.3137207.1605225-.4795837.1817017-.5185242.06604-1.0308533.1297607-1.5033875.385376-.1461487.0789795-.3312073.0930786-.5007629.119873-.257843.0403442-.517395.0747681-.7774963.0942383-.1777344.0135498-.3475647.0408936-.4993286.1359863-.4533691.2843628-.9526978.3881836-1.4813843.4324951-1.3039246.109436-2.6101074.0601196-3.9146118.1102905-1.3925171-.0053711-2.7850342-.008728-4.1772461-.0183105v-.0003662ZM446.7348328,587.2081909c.1396484.06604.2327576.2022705.2541809.383667.0290527.2474365.044281.4990845-.0428772.7391357-.0273743.0750122-.0911255.1365356-.1379395.2042236-.0507812-.0671387-.1213074-.1269531-.1489563-.2022705-.1455688-.4000244-.1670227-.8135986-.1072083-1.2328491-.200592.0163574-.337677-.0547485-.4135742-.2127075-.0770264-.1605225-.1040955-.3255615-.0451355-.4835205.0273743-.0730591.1029663-.1278076.1568604-.190979.1495056.1119995.2256775.2575684.2287903.4370117.0028076.1706543.0061951.3413696.0093079.5120239.0829468.0144043.1734924.0118408.246582.0462646h-.0000305ZM452.6152039,599.7199707c-.1038208-.2341309.0259399-.5819702.1655884-.4787598.0569763.0422974.1001587.1213379.1190491.1915283.0197449.0733643.0205994.1627808-.0033875.2338867s-.0891418.1283569-.1464233.2053833c-.0468445-.0513306-.1088867-.093689-.1348572-.1520386h.0000305ZM529.7583008,698.8070068c.2631836-.0014038.5137329-.0214233.74646-.1452637.8297119-.4406738,1.7412109-.3636475,2.6315308-.4144287.5145874-.0293579,1.0178833-.0961914,1.4760132-.3546143.4578857-.2584229.9552612-.3659058,1.4740601-.3391113.6652222.0344238,1.2615967-.1503906,1.8123169-.505249.2243042-.1444702.4626465-.199707.7261353-.2206421.3791504-.0302124.7639771-.0414429,1.1217041-.2130127.9202271-.4420776,1.8529053-.8590088,2.7647095-1.317749.3370972-.1695557.6567383-.3980713.9360352-.652832.4812622-.4381104.9664917-.8215332,1.6602173-.8491821.2474365-.0098877.5038452-.0894165.734314-.1878662.8217773-.3497925,1.6165161-.7709961,2.4552612-1.0709229.8536987-.305542,1.5626221-.8596191,2.3711548-1.239624.4603882-.2163696.9603271-.3737793,1.3781128-.6530762.5286865-.3532104.9910889-.8062744,1.4805298-1.2184448.3916016-.3300781.7667847-.6815796,1.1749878-.9899292.40625-.3069458.8886719-.5244751,1.2576904-.8671875.4629517-.4302368.7179565-1.0375977,1.1829224-1.4926758,1.2808228-1.2539673,2.5127563-2.5576172,3.7791748-3.8265991.4553223-.4564819.8398438-.9439697,1.1397095-1.5231323.3520508-.680481,1.0421143-1.1337891,1.3594971-1.8475342.3737793-.8410034,1.0299683-1.4556885,1.6362305-2.1121826.3492432-.3782959.6248779-.8026123.8796387-1.2514648.2504883-.4420776.5662231-.8505859.881897-1.251709.6316528-.8031616,1.1295776-1.6966553,1.769104-2.4998169.5515137-.6928711.8709106-1.5609131,1.46698-2.2408447.0840454-.0959473.170105-.1977539.2228394-.3120117.1057739-.2299194.213562-.4638062.2761841-.7078247.0959473-.3737793.2400513-.7199707.4155273-1.0643921.5794678-1.1375122,1.1248169-2.2845459,1.3428345-3.567627.0834961-.4911499.5159912-.8810425.5822754-1.4060669.0657349-.520752.2987671-.973877.5887451-1.3989868.1500854-.2203369.2259521-.4533691.2485352-.7168579.0443115-.515686.2265625-.9854126.4578857-1.4509277.3963623-.7984009,1.0144653-1.4853516,1.2062988-2.3861084.4502563-.7769165.7735596-1.5975952.8827515-2.4967041.0146484-.1204834.0925293-.2406616.1641846-.3450317.3766479-.5461426.5151367-1.1546631.5374146-1.8097534.0126953-.3766479.0183105-.7611694.2547607-1.1030884.2925415-.4229126.4691772-.8864136.4909058-1.421875.0310059-.7667847.1309204-1.5307617.1946411-2.2963867.0327148-.3935547.2127075-.7269897.3859253-1.0700684.1729126-.3424683.2841187-.7052612.2792969-1.1016235-.0155029-1.2805176-.0276489-2.5612793-.020874-3.8417969.0025635-.5230103-.1382446-1.0037842-.2942505-1.4937744-.2558594-.8040161-.2180786-1.4309082.1912842-2.2191162.2479858-.4776001.2234497-.9972534.1825562-1.5031128-.0194702-.2415161-.156311-.4871826-.2863159-.7030029-.2488403-.4127197.0422974-.7168579.1690063-1.0565186-.249939-.8573608-.3328857-1.7276611-.3193359-2.6242065.0152588-1.022644-.0702515-2.0467529-.1114502-3.0702515-.0050659-.1278076-.008728-.2561646-.008728-.3842163.0003052-.5222168-.1340332-1.0130615-.3624878-1.4768677-.1740723-.3537598-.2386475-.7332153-.2556152-1.1143188-.0457153-1.0232544-.0713501-2.0473022-.0908203-3.0713501-.0048218-.2654419-.0535889-.5036011-.1740723-.7374268-.2352905-.4564819-.4067993-.9304199-.4110107-1.4593506-.0039673-.5117798-.0697021-1.0229492-.0708008-1.534668-.0010986-.5283813-.1450195-1.0076904-.4020386-1.4579468-.1958008-.3427734-.260376-.7216187-.3078003-1.1008301-.0789795-.6322021-.0747681-1.2788086-.3946533-1.8602295-.192688-.3500977-.1514893-.7445068-.2070923-1.1213989-.0742188-.5041504-.0485229-1.0350952-.2855225-1.5005493-.3529053-.6920166-.5718384-1.4173584-.6485596-2.1880493-.3537598-.6843872-.696228-1.3727417-.6674805-2.1748047-.215271-.5963745-.5814209-1.1386108-.6048584-1.8035278-.0234375-.6655273-.4962158-1.1699219-.6751099-1.7736206-.1810913-.6113281-.3109131-1.2271729-.609375-1.8063965-.2905884-.5639648-.5089111-1.1586304-.8539429-1.7042236-.2669067-.4223022-.4324951-.9165649-.6454468-1.3775635-.642395-1.3913574-1.2700806-2.7816162-2.1463013-4.0537109-.4313354-.6262817-.7210693-1.3502197-1.0802002-2.0272827-.1791382-.3377075-.326416-.7044678-.5633545-.9972534-.5684814-.7022095-.9216919-1.5361328-1.4373779-2.2633667-.5182495-.7306519-.9797974-1.4951782-1.4746094-2.2388306-.4951172-.7442017-.9120483-1.5496216-1.475708-2.2360229-.6477051-.7890625-1.4506226-1.4486694-2.1271362-2.2165527-.6742554-.7653809-1.7507935-1.1044922-2.1894531-2.1065674-.5083618-.3850708-1.02771-.7572021-1.5222778-1.1591797-.4956665-.4031372-.9656982-.8375854-1.4489136-1.2559814-.201416-.1743164-.4370117-.2662964-.6990967-.2877808-.6601562-.053894-1.2325439-.2922974-1.699707-.7772217-.4476929-.4646606-.960022-.8412476-1.5747681-1.062439-1.0494385-.7377319-2.2329102-1.2365112-3.359436-1.8314819-.9067383-.4790039-1.8179321-.9318237-2.6143188-1.5831909-.2062378-.1690063-.4265747-.2787476-.689209-.3134155-.6454468-.0855103-1.2097168-.3794556-1.7885742-.6589966-.5707397-.2756348-1.251709-.2510986-1.8123169-.5918579-.4468384-.2716675-.9414062-.3878784-1.4610596-.4082031-.2561646-.0098877-.5117798-.0264893-.7678833-.0380859-.2558594-.0115967-.5123291-.0158081-.7681885-.0318604-.8945923-.0563965-1.7885742-.145874-2.684021-.1672974-.9047241-.0214233-1.7852173-.1134033-2.6143188-.5018921-.7662354-.0524902-1.5316162-.1227417-2.2984009-.1520386-.6437988-.0248413-1.276001.0561523-1.8659058.3535156-.3483887.1757812-.7335205.2236938-1.1177368.2389526-1.0238037.0414429-2.0484009.0629272-3.0719604.1100464-.2502441.0115967-.5230103.0386353-.741394.1472778-.8260498.4107666-1.699707.5617065-2.6067505.5320435-.6604004-.0217285-1.260498.1433105-1.826416.4671631-.2271118.1300659-.4728394.1813965-.7365723.1870117-.5179443.0109863-1.0133667.114563-1.4664307.3842163-.5473022.3258667-1.1761475.5043945-1.6630859.9425659-.5769043.519104-1.2610474.8502808-1.972229,1.1532593-.4685669.199707-.9354858.4073486-1.4040833.6090698-.6017456.2589722-.9521484.8655396-1.5118408,1.1685181-1.1422729.6186523-2.0661926,1.5028076-3.0205994,2.354248-.7622681.6796265-1.4638977,1.4396362-2.4368896,1.84021-.272522.2694092-.5684509.5196533-.8116455.8135986-.3238525.3912964-.5921631.8288574-.9112244,1.2246704-.4104614.5089111-1.0381775.7385864-1.5318909,1.1411743-.3963623.322998-.7461853.6855469-.9747009,1.1654053-.2192078.4595337-.530365.8751221-.7552185,1.3327026-.1720886.3504028-.3687134.680481-.645752.9439697-1.2190247,1.1606445-1.9770508,2.6704712-3.0217285,3.9625854-.1568604.1940918-.2358398.4502563-.3580017.6737061-.3667603.6702881-.7380066,1.3380737-1.1053162,2.0078125-.2454529.4468384-.4612427.9120483-.7368774,1.3394775-.4838257.7507324-1.1225281,1.3874512-1.5397644,2.1965332-.2287903.4440308-.6395569.7944336-.967926,1.1871338-.2462769.2947998-.5066833.5791626-.7332153.8883667-.1486816.2028198-.3148499.4293823-.3574524.6660767-.1387939.769043-.550415,1.4255371-.8074036,2.1431885-.1706848.477356-.1351318,1.0147705-.3754883,1.4824829-.2349854.4575806-.4048462.9346313-.4429321,1.4562988-.056427.7662354-.1413269,1.5302124-.1932373,2.2963867-.0177612.262085-.0285034.5193481-.1667175.7385864-.4288025.6798706-.4716797,1.442749-.5108948,2.211792-.0519104,1.0232544-.1142578,2.0458984-.180542,3.0682373-.025116.3890381-.178009.7371826-.3721008,1.0737305-.1912842.3317871-.3712463.6737061-.4067993,1.0669556-.0468445.5168457-.2079163.9944458-.441803,1.4579468-.1117249.2217407-.2036743.4804688-.2087708.7247314-.0344238,1.6664429-.1997375,3.322998-.3402405,4.9818726-.0220032.2629395-.0473938.5114746-.1833801.7335205-.3447571.5628052-.431366,1.1829224-.4666138,1.8314819-.0555725,1.0229492-.1546021,2.0438843-.2561646,3.0634766-.0248108.2493896-.0967712.5078125-.2084961.7315063-.1325989.2654419-.1506348.4750977-.0177612.7089233.1890259.3331909.3509521.6798706.3455811,1.081604-.0211487,1.5366821-.0476685,3.0736084-.0502014,4.6105957-.0019836,1.1521606.0352783,2.3045654.0426025,3.4570312.0016785.2660522.0561523.5018921.179718.7371826.2406311.4584351.3867798.9464722.3385315,1.4726562-.0578308.6330566-.0073242,1.2929077-.352356,1.864502-.1546021.2561646-.1644592.4575806-.0392151.7174072.1653137.3422241.3244324.6925659.3405151,1.0911865.0361023.8956909.0922546,1.7905884.1365356,2.6859741.01297.2592773.1072083.4888916.2220154.7250366.1664429.3419189.3342896.6849976.3421936,1.0858765.0177612.8963013.0471191,1.7928467.0939331,2.6879883.0132446.2502441.0671387.5123291.1653137.7419434.2550354.5961304.381134,1.2128296.4316406,1.8565674.0496521.6358643.1424561,1.2683716.2163696,1.9025879.4412231.7963867.4620972,1.7248535.7972412,2.5523071.1929626.4767456.3763428.9448242.4000244,1.4681396.0231323.5114746.0722351,1.022644.1283569,1.5318604.0273743.2507935.0581055.5131836.1543274.7422485.2476807.5916138.4291077,1.1936035.5732422,1.8218994.1407776.6135864.4414978,1.1919556.6858215,1.7803955.1954956.4705811.5027161.9151611.5975037,1.4029541.1528931.7876587.5154114,1.43396,1.0111084,2.0332031.244873.2959595.4519348.6116333.6037292.9713135.7958374,1.8887329,1.6991577,3.7213745,2.8961792,5.3954468.3605347,1.0020752,1.1659851,1.6672974,1.8365479,2.4360352.2530518.2902832.4107666.6311035.4592896,1.0297241.04599.3791504.1528931.7487183.40625,1.059082.2428894.2973633.462677.6141357.7089539.9089966.3382568.4050903.3859253.9450684.6505432,1.3756104.3342896.5441895.8220825,1.0113525,1.070343,1.5866089.3069458.7111816.730957,1.3490601,1.0819092,2.0297852.2319031.4494019.5740967.848877.9030457,1.2404785.9089661,1.0810547,1.9231567,2.0574341,3.0225525,2.9447021.7693176.2976074,1.1352234.9812012,1.5806885,1.6043701.295105.413269.6463318.8045654,1.0367737,1.1281738.8852844.7332153,1.7775879,1.4675293,3.0366821,1.4650269.3743591-.0008545.7490234.1405029,1.1233826.2169189.6192322.4759521,1.4272156.5749512,2.0585632,1.0043335.6589966.4483032,1.4890137.3670044,2.1460571.7910767.4384155.282959.9371948.3927002,1.4542847.4454346.5064087.0516357,1.0280151.0502319,1.4935303.3046875.810791.4431763,1.6968994.5681763,2.5982666.5783081.663269.0073242,1.239624.2324829,1.8227539.5128784.3453369.1658936.7490234.1638794,1.104187-.0358276.2488403-.1399536.4939575-.2321777.7007446-.1114502.8308105.4852295,1.7415161.3278198,2.8205566.3695679.4490967-.0126953,1.0892334-.0406494,1.7293701-.0443115v-.0004883ZM556.3393555,642.0725098c-.0273438.7642212-.1599731,1.5245361-.2443237,2.2868042-.487793.9473267-.4753418,1.9818726-.5015869,3.0042114-.0259399,1.0257568-.0601196,2.0498657-.1923828,3.0679932-.0493774.3808594-.1311646.7501221-.3027344,1.1030884-.1664429.3419189-.3106079.6911621-.3326416,1.0911865-.0908203,1.6633301-.2095947,3.3250122-.3094482,4.987793-.0158081.2637939-.079834.5004883-.2050781.7329102-.307251.5695801-.4998779,1.173584-.5267334,1.8283691-.0155029.3825684-.0316162.7828369-.2288208,1.1174316-.4067993.6903076-.5179443,1.43396-.4996338,2.2145996.0059204.2561646.0107422.5151367-.020874.7681885-.0474243.3805542-.1419067.7476196-.3388062,1.0895386-.18927.3286743-.4186401.6420898-.447998,1.0471802-.0651855.9019165-.2866211,1.7542114-.7007446,2.572876-.2254028.4454346-.2476807.9890747-.4333496,1.4605103-.1862183.4728394-.4353027.9267578-.7019043,1.3614502-.8051758,1.3118286-1.2330933,2.8092651-2.0461426,4.1174316-.1306152.2102051-.182251.4765015-.2392578.7241821-.0880127.3831177-.2539062.7301025-.4973755,1.0263062-.7363281.8963013-1.2333984,1.9367065-1.8083496,2.930603-.2064819.7839966-.7659302,1.328186-1.3278809,1.8441772-.6596069.6054077-1.3640137,1.1657104-2.0814209,1.7022705-.40625.303833-.857605.5670776-1.3234253.7678833-1.6379395.7072754-3.1921387,1.5925293-4.8574219,2.2445068-.4838257.1895752-.9507446.3433228-1.465271.3881836-.3796997.0332642-.7913208.0397949-1.125061.1949463-.9724731.4528198-1.9824219.4505615-3.0109863.3895874-.3867798-.0228271-.7589111-.0939331-1.1115112-.2589722-.3464355-.1619263-.6790771-.3647461-1.074585-.3898926-.9095459-.0575562-1.7606812-.3049927-2.5438232-.7763672-1.4469604-.1989136-2.6149292-.984314-3.7763672-1.7885742-.6282959-.4349976-1.3205566-.7932739-1.892395-1.2918091-.8674927-.7560425-1.666748-1.5928345-2.4707642-2.4185791-.3563232-.3656006-.6886597-.765686-.96875-1.1913452-.2778931-.4217529-.4798584-.894043-.7095337-1.3468018-.3464355-.6829834-.7179565-1.3555298-1.0187378-2.0582886-.1511841-.3537598-.2925415-.7047119-.5095215-1.0229492-.2883301-.4237061-.5749512-.848877-.8624268-1.2731934-.3275146-1.1154785-1.0864258-2.0326538-1.4591064-3.1179199-.2939758-.8547974-.756073-1.6196289-1.135498-2.4259033-.2739258-.5822754-.5227661-1.1434326-.6474609-1.7843628-.0945129-.4852295-.4420776-.9160156-.584259-1.3984375-.1430359-.4857788-.1058044-1.0203857-.3298035-1.4929199-.2809753-.5921631-.364502-1.2246704-.3890381-1.8676147-.0200195-.519104-.1162415-1.0147705-.364502-1.4760132-.0609436-.112854-.1345825-.2254028-.1625061-.34729-.0567017-.2471313-.075592-.5027466-.1289368-.7507324-.2141113-.9935913-.1012878-2.0498657-.6031494-2.9921265-.112854-.2116089-.1269531-.4959717-.1230164-.7459106.0169373-1.0255127-.0107117-2.0509644-.1743469-3.0612183-.0778503-.4815674-.4240112-.9213867-.1483765-1.4455566.0510559-.0973511.0572815-.2578735.0138245-.3588257-.4169617-.972168-.3633728-2.0125732-.4214783-3.0285034-.044281-.7789307-.1351318-1.5197754-.5032959-2.2213745-.1134033-.2158203-.1605225-.4968262-.1481018-.7433472.0840759-1.6664429-.1213074-3.3275146-.069397-4.9923096.0203247-.6502686-.1012878-1.2658691-.3500977-1.8676147-.0947876-.2293701-.125824-.4945679-.1393738-.7459106-.1181946-2.177063.0135498-4.355835-.0358276-6.5334473.1650391-1.1495972.0451355-2.3045654.0660095-3.4567261.0510559-2.8182983.0826721-5.6374512.3092041-8.449585.0307617-.3822632.0482483-.7642212.2203369-1.1205444.2245483-.46521.3881836-.9544067.3695679-1.4760132-.0279236-.7749634.1500854-1.5285034.1986084-2.2947388.0166321-.2631836.0688477-.505249.1986084-.7346191.3201904-.5667725.4863586-1.1747437.4976501-1.8292236.0090332-.5123291.0214539-1.0271606.081543-1.5352783.0287781-.2420654.133728-.4970703.2722473-.7001953.2928467-.4293823.5286865-.8717041.5853882-1.3956299.0273743-.2550049.0674133-.508667.0894165-.7639771.056427-.6508179.5362854-1.161438.5910339-1.8134155.0535889-.6381226.123291-1.2748413.1774597-1.9127197.0222778-.2637939.1218872-.4900513.2361145-.7230835.4488525-.9165649.993042-1.8060913,1.2127991-2.8064575.1932373-.8810425.758606-1.6229858.8319397-2.5474854.0285034-.3602295.2767639-.7052612.4358521-1.0523071.1063843-.2313232.3032837-.4437866.336853-.6821289.1644897-1.1685181.7501221-2.1643677,1.2584839-3.1915283.170105-.3444824.3549194-.675354.4290771-1.059082.0730591-.3774414.2019653-.734314.3887329-1.0768433.4906006-.8991089.9594727-1.8097534,1.4370728-2.7158813.8048706-.8254395,1.6049194-1.6549072,2.4154663-2.4746704.6305542-.6375732,1.2796631-1.2570801,1.9096069-1.8955078.8694458-.8810425.8827515-.8582153,2.7356567-2.0473022.7825928-.5021362,1.5829468-.7871094,2.5076904-.8029175.7693481-.0130005,1.5256958-.1252441,2.2371826-.4685669.2194824-.1057739.4931641-.1241455.7442017-.1359863,2.434082-.1173706,4.8681641-.0592651,7.3027954-.0019531,1.0367432.0245361,2.0419312.1317749,2.963623.6725464.2113037.1238403.4911499.1433105.7439575.1799927.2617798.0377808.5080566.0998535.7106323.2657471,1.1860352.9713135,2.6061401,1.6252441,3.6894531,2.7365112.2674561.2744751.538269.5707397.8638306.7594604,1.2576904.7281494,2.1931763,1.7398071,2.831604,3.0372314.935791.8973999,1.2822266,2.2114868,2.2064209,3.1224365.1735229.1712646.3207397.428833.3605347.666626.213562,1.2779541.8172607,2.4143066,1.274292,3.6020508.1881714.4891968.2513428.9845581.3165283,1.4921265.0485229.3771973.0728149.7896118.2454224,1.1126709.3822632.7149048.3862305,1.4720459.4161377,2.2385864.0302124.7721558.1148071,1.5349731.505249,2.2255859.1297607.2296143.1901245.4714355.2008667.7349243.031311.7681885.0860596,1.5355225.1071777,2.3037109.0140991.5236206.156311,1.00177.3746338,1.4732056.3780518.8161621.3540649,1.7536011.765686,2.5669556.1751709.3461304.1148071.7509766.1376953,1.1326904.053894.8925781.0366821,1.7919922.239502,2.6710815.5732422,1.0613403.4573364,2.2374268.5631104,3.3765869.0355225.3817139.0617676.7648315.1114502,1.1448364.0160522.1227417.0905762.2389526.1444702.3549194.2183838.4677734.3692627.9515991.392395,1.4729004.0344238.7678833.0953369,1.5349731.1153564,2.3031616.010437.3977661.1464233.7498779.291687,1.1036377.1472778.359436.2324829.729248.2369995,1.1171875.0236816,2.0498657.1012573,4.0991211.0222778,6.1500854-.0496216,1.2796631-.0496216,2.5612793-.0716553,3.8421021.0073242.0003052.0146484.0003052.0222778.0005493-.0792847,2.8180542-.1455688,5.6369019-.246582,8.4541016l.0001831.000061ZM490.4378967,616.1276855c-.041748.1071777-.1712341.1802979-.2609558.2685547-.0767212-.0998535-.1966248-.1898804-.2220154-.3012695-.0617981-.2719727.0550232-.4923096.2894592-.6469116.2149658.178833.2979126.4127197.1935425.6796265h-.0000305ZM510.0349121,586.6600342c-.2067871.0344238-.326416-.1509399-.3162537-.4556274.0095825-.2880249.1393738-.4750977.3540649-.4573364.0885925.0073242.203125.1636353.2341614.272522.031311.1088867-.0045166.2527466-.0516357.3641968-.04599.1080322-.132019.2615356-.2203369.2761841v.000061ZM497.9313965,671.9077148c-.1325989.3074951-.2812805.2959595-.3647766-.0285034-.0115662-.0445557.1325989-.1295166.2036743-.1946411.0533142.0705566.1802673.1782837.1610718.2231445h.0000305ZM498.5811157,673.5397339c-.1681519.0905762-.2931213-.0056152-.2812805-.2384033.0039368-.079834.1297607-.1537476.1997375-.2304688.0637512.0820923.1278076.1641846.1915588.2460327-.035553.0767212-.0505066.190979-.1100159.2228394ZM660.8988037,588.5361328c-.6068115,0-1.2133789-.0028076-1.8198853.0008545-1.6681519.0101318-7.9177856.7631226-8.5266113.8059692-.9058838.0640259-1.8120117.1272583-2.7178955.1960449-.414978.031311-.8353271.3842163-.9622803.8319702-.081543.2877808-.1528931.5859375-.1704102.8827515-.0750122,1.2672729.2996216,2.388916,1.1434326,3.3464355.1001587.1137085.1878662.2392578.2942505.3461304.4333496.4361572.9050293.7783813,1.5617676.8150024,1.2114258.0674438,2.4205322.1585693,3.6353149.0933838.6195068-.03302,5.7144775.0493774,7.0689087.0598145.1452637.0010986.3012695.0479736.4330444.112854.5529175.2714233,7.5786743.5506592,8.7398682.1401978.3272705-.1156616.5436401-.1427612.8516846.0383911.387085.227356.8260498.3363037,1.2988281.3399658,3.9411011.0307617,7.881958.0806885,11.8228149.1201782.6062622.0059204,1.2125244-.0084839,1.8187866-.0203247,4.6994629-.0916748,9.3991699-.1204834,14.0980835.020874.4516602.0137939.9047241.0507812,1.3516235.1142578.1331787.019165.2984619.1384888.3636475.2584229.5783081,1.0601807,1.1092529,2.1384277,1.104187,3.3918457-.0010986.3024292.0513306.6045532.0631714.9072876.0245361.6135864.1591187,1.1907959.4474487,1.7409058.4217529.8043213.9171753,1.5914307,1.1876831,2.4473267.272522.8621216.46521,1.7380981.8469238,2.5762329.3137207.6883545.5977783,1.385437,1.0057373,2.0255737.1681519.9052734.5317993,1.7307739,1.0255127,2.5026245.270813,1.0212402.9255981,1.9161377.9749756,3.0130005.020874.4677734.2996216.8491821.506958,1.2523193,1.5189209,2.9556885,3.0620728,5.8995361,4.5394897,8.8758545.6118774,1.2322998,1.2728882,2.4038696,2.2805786,3.3577271.2177734.2064819.4186401.4446411.5735474.7007446.2327271.3848267.3774414.8262939.6333618,1.1925049.3461304.4953613.8536987.894043,1.1287231,1.4198608.5684814,1.0864258,1.4450073,1.937561,2.0966797,2.9542847.2578735.9100952.8897705,1.5702515,1.5025635,2.241394.8167114.8948364,1.678833,1.7510986,2.2560425,2.8391724.1399536.2637939.3250122.5154419.5346069.7281494,1.8063965,1.8337402,3.4163818,3.8469238,5.3262939,5.5923462,2.0117798,1.838562,8.2424927,6.5064087,8.7277222,6.9241943.6883545.5927124,1.43396,1.0864258,2.2304077,1.5389404.7800293.4431763,1.4204712,1.1278687,2.1372681,1.6876221.3560181.2778931.7445068.5032959,1.1586304.7047119.8116455.3946533,1.621582.8172607,2.3598633,1.3321533.6333618.4417725,1.3696899.6316528,2.0213623,1.0147705.5444946.3201904,1.1225586.395813,1.6937866-.010437.2445679-.1735229.5193481-.3340454.8043213-.4161377.618103-.1785889,1.0545654-.4880371,1.2686768-1.1375122.2417603-.7323608.7278442-1.331604,1.3163452-1.8213501.5811768-.4838257,1.1902466-.9380493,1.8170776-1.3606567.2392578-.161377.5563354-.2208862.8469238-.2885742.4443359-.1038208.8790894-.2172241,1.2489014-.5013428.3608398-.2770386.7306519-.5427856,1.0836182-.8294067.4909058-.3989258,1.0776978-.5109253,1.6754761-.6251831.5918579-.112854.7128906-.2299194,1.0280151-.7797852.1509399-.2631836.2930908-.5314941.4544678-.7879639.4335938-.6897583.4226074-1.4619141.2945557-2.2010498-.1029663-.5930176-.4389648-1.1386108-1.0181274-1.4300537-.5326538-.2683105-1.1312866-.3619385-1.6574097-.685791-.6392822-.3938599-1.3493652-.6725464-2.0272827-1.0037842-.5430908-.2648926-1.09375-.515686-1.6224365-.8068237-.4076538-.2245483-.8373413-.34729-1.2904053-.392395-.4587402-.0454102-.8963013-.1542969-1.2853394-.3989258-.5292358-.3328857-1.1126709-.4415283-1.7205811-.506958-.2942505-.0318604-.6158447-.0916748-.8615723-.2426147-.6491699-.3983154-1.3981323-.5856934-2.0363159-.9879761-1.0238037-.6454468-2.0932617-1.204895-3.1447144-1.7987671-.6514282-.3678589-1.1919556-.9315186-1.7824097-1.4066162-.5907593-.475647-1.2192993-.8895264-1.8737793-1.2765503-.651123-.3845215-1.239624-.8694458-1.7062378-1.4839478-1.0209961-1.3445435-2.3339233-2.3725586-3.6767578-3.3667603-1.1535645-.4573364-1.9462891-1.4294434-2.9664307-2.0775146-1.204895-.3574219-1.9485474-1.4291992-3.0366821-1.963501-.616394-.3027344-3.1026611-3.6762085-3.6353149-4.1848755-.7540894-.7202148-1.6641846-1.3493652-1.9849243-2.4354858-.6612549-1.0263062-1.4884033-1.9107666-2.3410034-2.7770996-.5326538-.541687-.9008179-1.1911011-1.2582397-1.8695679-.7019043-1.333252-1.4147949-2.6622925-2.1260376-3.9916382-1.1569214-1.4190063-1.914978-3.0812378-2.8087158-4.657959-.7436523-1.3121338-1.3995361-2.6755371-2.0603027-4.0328369-.3306274-.6793213-.6026001-1.388855-.8683472-2.0969238-.1599731-.4265747-.2095947-.8850098-.1472778-1.3408813.0397949-.2908325.1915283-.5692749.461792-.7297974,1.1721802-.6956787,2.5113525-1.046936,3.6765137-1.7606812.9205322-.2536011,1.5561523-.9106445,2.1959839-1.5584106.4274292-.4324951.8102417-.8886719.9535522-1.5118408.0665894-.2905884.2079468-.5709839.3543091-.8344727.1619263-.2902832.043457-.5064087-.0877075-.8215332-1.2139282-2.921875-1.1981201-2.9309082-3.1591187-4.8805542-1.397583-1.3897095-2.8078613-2.7666626-4.215332-4.1464844-.2161255-.2121582-.4177856-.4666138-.6779175-.6014404-1.3634644-.7064209-2.3843994-1.8633423-3.6344604-2.7161865-.2539062-.1735229-.5289917-.2770386-.8412476-.3100586-.6141357-.0648804-1.1738892-.2894287-1.6873169-.6240234-.4161377-.2711182-.8674927-.2900391-1.2897949-.1018677-1.1030884.4916992-2.2041626.9956055-3.2189331,1.6577148-.2451782.1599731-.4942627.3701172-.6389771.6172485-1.0872803,1.8596802-2.6580811,3.2965088-4.1732788,4.7756348-.5430908.5297852-1.2460938.8344727-2.0346069.9160156-1.5130005.1568604-3.0262451.1416016-4.5437012.1015625-2.7285767-.0719604-5.4625854-.225708-8.1864014-.1243896-3.034668.112854-6.0634766-.1130981-9.0942383.0149536-.6034546.0256958-1.2125244-.036377-1.8165283-.0874634-.2973633-.0253906-7.7699585-.7092285-9.8931885-.7089233.0003052-.0180664.0003052-.0361328.0003052-.0541382l.000061.000061ZM666.1365356,620.4129639c.3027344.008728.6057129.0304565.9086914.0316162.7024536.0028076,1.06073-.1001587,1.7132568-.4931641.2589722-.1560059.4906006-.3678589.7639771-.4866333.6325073-.2747803.894043-.7980957.961731-1.4193115.0488281-.4462891.0217285-.9089966-.0344238-1.3563843-.0575562-.4581299-.3221436-.8178711-.6497192-1.1546631-.5484009-.5645142-1.3603516-.6550903-1.9401245-1.147644-.6925659-.5879517-1.3445435-1.2342529-2.0862427-1.7513428-.868042-.6051636-1.7205811-1.2114258-2.5252075-1.9064941-.6838379-.5910034-1.4105835-1.1411743-2.1082153-1.7231445-.22229-.1856079-.5159912-.3213501-.7989502-.3916016-.5879517-.1455688-1.177002-.2601318-1.7011719-.5930176-1.2830811-.8147583-2.7328491-1.2833252-4.0911865-1.9434814-.4104614-.1994629-.8706055-.1069336-1.2791138.1594238-.7814331.5095215-1.4309082,1.1775513-1.7826538,2.0123291-.3027344.718811-.7408447,1.3053589-1.2020874,1.9005737-.2773438.3577271-.598938.7134399-.6593018,1.171875-.1241455.9448242-.5715332,1.7056885-1.2026367,2.3872681-.4208984.4547729-.7033081.9918823-.7786255,1.6074829-.0758667.6189575-.2947998,1.1696167-.6624146,1.6624756-.8167114,1.0946045-1.479126,2.2716064-2.019104,3.527832-.2970581.690918-.6629639,1.3603516-1.0689087,1.9939575-.6516724,1.0175781-1.3471069,2.0043945-1.9589844,3.0510864-.5297852.9072876-1.4210205,1.5609131-1.8478394,2.5692139-.1695557.4008789-.5673218.7024536-.8480225,1.0596313-.4677734.59552-.9250488,1.1998291-1.3868408,1.8001709-.4471436,1.3143921-1.7764893,2.078064-2.1466064,3.4406738-.9160156,1.0088501-1.8388062,2.0114746-2.7455444,3.0287476-.5038452.5650635-.980896,1.1541138-1.4703979,1.7327271-.4465942,1.1784058-1.44104,1.9310913-2.2385864,2.8290405-.7027588.7910767-1.5310059,1.4692383-2.2574463,2.2410889-1.4486694,1.5386353-7.8094482,8.7424316-8.7362061,9.008728-1.0869751.8243408-2.130249,1.7036743-3.0640259,2.6970215-.7306519.7772217-1.4650269,1.508728-2.4797974,1.9318848-.404541.168396-.7396851.5230103-1.0784912.8240356-.5664673.5027466-1.1123657,1.0285645-1.6633301,1.5482178-.6610107.6229248-1.3182983,1.2494507-1.977356,1.8746338-.7639771.2702637-1.1434326.9321289-1.6088867,1.5250854-.3684692.4694214-1.052002.6135864-1.3648682,1.1583862-1.0302734,1.7944946-3.6311035,2.1965332-4.5838013,4.1487427-.5594482,1.1467896-.1506348,2.8482056,1.0872803,3.1568604,2.0410767.5083618,4.1013794-.6886597,5.833252-1.5547485,3.7185669-1.8596802,3.835022-1.9186401,5.9091797-3.2874756,2.3065796-1.5222778,4.6577148-2.8008423,7.0407104-4.1806641,1.3284912-.769043,2.3288574-1.9310913,3.6003418-2.7382202,1.4006958-.8892212,3.0200195-1.3101196,4.4368286-2.2295532.5072632-.3289185,4.6735229-2.71875,5.354248-3.3427734.777771-.7131958,1.5699463-1.4165039,2.5441284-1.8873291.397522-.1921387.743103-.5292358,1.0548096-.8551025,1.3586426-1.4215698,7.2415771-7.140564,7.9660645-8.4857178.0668335-.1243896.2034302-.2457275.3354492-.2956543.7684937-.2902832,1.1101074-.96875,1.5397949-1.5897217.6034546-.8723145,1.2932129-1.6791382,2.0805664-2.399353.6705933-.6135864,1.3425903-1.2283325,1.973938-1.8811035.7371826-.7622681,1.4038086-1.5930786,2.1516724-2.343811.6558838-.6581421.9515991-1.5440063,1.5344238-2.2396851.5836792-.6959839,1.2740479-1.3242188,1.7420654-2.0895996.4736938-.7749634.9008179-1.5671387,1.5036621-2.2572021.4990845-.5712891.6801758-1.3445435,1.1803589-1.9285278.3918457-.4573364.8280029-.9216919,1.0576172-1.4624634.2984619-.7019043.8206787-1.2593384,1.0822144-1.9835205.3707275-1.0255127,1.1391602-1.7654419,2.0244751-2.3790894.1238403-.0857544.2617798-.1915283.4017334-.2059326.6008911-.0620728,1.2052002-.0933838,1.2624512-.0973511.6990967-.0003052.8508301-.0039673,1.0023193.0005493l-.0001221.0001221ZM664.3795166,645.8875732c-3.1845093-.0561523-6.3676147.0155029-9.5506592.1010132-.8762207.0236816-1.3724976.5114746-1.6526489,1.2909546-.0510864.1419067-.1100464.2866211-.1940918.4104614-.3300781.4871826-.0084839.8500366.2406616,1.204895.5292358.7543945,1.1369019,1.4128418,2.0986328,1.6289062.2897339.0654297.5752563.1977539.8328247.3504028.5371704.3179321,1.1151733.4556274,1.7285156.4747925.6062622.019165,1.2125244.041748,1.8187866.0420532,3.0318604.001709,6.0640259-.0234375,9.0958862-.0008545,3.6533813.0276489,7.3024902-.1690063,10.9519043-.3043823,1.871521-.069397,3.7439575-.1257935,5.6171875-.1264038,1.656311-.0003052,3.2426147.364502,4.8461304.3729248,5.3065796.0270996,10.6125488-.0984497,15.9193726-.0654297.2891846.0019531.6071167-.0982056.8618774-.2398071.3027344-.1681519.567627-.2885742.8110962-.1297607.2485352.1619263.4976196.3568726.6711426.5927124.2714233.3690186.4073486.8144531.4053955,1.2756958-.0062256,1.3640137-.1097412,2.7322998-.03302,4.0909424.1455688,2.5773926.0448608,5.1516724.0445557,7.727356,0,.6262817-.8790894,7.8831177-1.2816162,8.7252197-.1975098.4135742-.4446411,2.8203125-.4753418,3.5777588-.031311.769043-.1918335,1.4994507-.5501099,2.1818848-.1438599.2739258-.1831055.5648193-.2036743.8754272-.0496216.7557983-.1292114,1.5098877-.2034302,2.2639771-.0764771.7730103-1.7947998,4.1208496-2.0402222,5.0046997-.036377.1306152-.1732178.2657471-.2987671.3345947-1.2164917.6660767-2.1203613,1.7050781-3.1401978,2.6055908-.1116943.0984497-.2539062.1664429-.3898926.2330322-.133728.0654297-.2728271.1368408-.4172363.1616211-.7462158.1286621-1.4650269.3275146-2.1827393.5856934-1.0172729.3659058-2.0726929.3568726-3.0857544-.1109009-.4110107-.1898804-.8082275-.4059448-1.2774048-.4457397-.4511108-.0383911-.9106445-.0916748-1.3095703-.3295288-.6694336-.3986206-1.3851929-.5859375-2.1635132-.5656128-1.2128296.0318604-2.4264526.0377808-3.6389771.0812378-.6434937.0228271-1.1535645.3757935-1.5380859.8536987-.4812622.5980835-.5786133,1.388855-.9179688,2.0631104.0115967.4649048.2982178.8283081.4536133,1.2401733.394104,1.0463867,1.0895386,1.7490845,2.1177979,2.2312622.8280029.3881836,1.6334229.7608643,2.5441284.9129028.4587402.0764771.7701416.4172363.9812012.8528442.2640381.5439453.6212158,1.0463867.8463135,1.604126.1802979.4462891.4358521.7786255.835083,1.0201416.2589722.1565552.526123.3010254.7769165.4699707.520752.3512573,1.1010742.4866333,1.7169189.49823.4719849.008728.8660889.223999,1.2681274.4372559.2631836.1396484.5413818.3148193.8248901.3410645.9013672.083252,1.8170776.1791382,2.6495972-.3363037.5252686-.3250122,1.1027832-.4993286,1.7175293-.5337524.3120117-.0175171.5958252-.0897217.8677979-.2380981.5346069-.2925415,1.0897827-.5196533,1.7183838-.5050049.1495361.0033569.2998657-.041748.4502563-.0603638.6088257-.0764771,1.1815186-.2386475,1.6650391-.6443481.6968384-.5845337,1.3998413-1.1611938,2.1008911-1.7406616.5819702-.4812622,1.3482056-.6635132,1.8873291-1.2359619.6305542-.6700439.8477783-1.59198,1.5-2.2523804.4192505-.4243164.7142944-.9690552.9718628-1.5262451.506958-1.0974121.9890747-2.211792,1.7327271-3.1817017.2146606-1.0316772,1.0613403-1.8422241,1.0158691-2.9754639-.0112915-.2824097.1362305-.5907593.2728271-.8553467.3515015-.6815796.6189575-1.3707886.5839844-2.1607056-.0273438-.6195068.190979-1.1845703.4984741-1.7194824.2271118-.3955078.4000244-.8161621.4124756-1.2816162.0163574-.605957.0033569-1.2133789.0377808-1.8182373.0518799-.9089966.1495361-1.8080444.5794678-2.6425781.1340332-.2598267.1960449-.5749512.2191772-.8706055.1069336-1.3603516.1929932-2.7226562.2750854-4.0847168.0183105-.3088989.0925293-.5904541.2327271-.8694458.2747803-.5461426.4485474-1.1245117.4578857-1.7420654.0321655-2.1226196.0561523-4.2452393.1012573-6.3676147.0062256-.2945557.0524902-.6195068.1870117-.8737183.4381104-.8271484.5760498-1.6847534.5594482-2.6196899-.024292-1.3626099.0547485-2.7285767.1334229-4.0906372.0160522-.2775879.1712646-.5904541.3563232-.8065796.4920044-.5740967,1.0172729-1.1231079,1.5629272-1.6472778.6553345-.6293945,1.3561401-1.2114258,2.0179443-1.8342896,1.3253784-1.2478027,1.3535767-1.4658813.527832-3.0812378-.1390991-.2722168-.3029785-.5286865-.5737915-.680481-.6596069-.369873-1.3323975-.7156982-1.9962158-1.0779419-.2640381-.144165-.5453491-.2739258-.7713013-.4660645-.5769043-.4909058-1.140564-.9992676-1.6853638-1.5256958-.6669312-.6448975-1.6035156-.8522949-2.2944336-1.4540405-.3424683-.2984619-.6906128-.5904541-1.0429688-.8770752-.3520508-.2863159-.7111816-.564209-1.0703125-.8424072-.2902832-.2245483-.9351807-.2302246-1.2824707-.0239868-1.0429688.6195068-2.0653687,1.2601929-2.9020996,2.1626587-.5148315.555481-1.0669556,1.0779419-1.6207275,1.5956421-.2183838.2042236-.4640503.4415283-.7371826.5142822-1.0167236.270813-1.9268188.8562012-3.0457153.8421021-8.3186646-.1452637-16.6012573.675354-24.9108887.4782104-3.2200317-.0764771-6.4276733-.5543823-9.664917-.4349976-1.3631592.0502319-2.7297363.0093384-4.0946045.0095825-.4547729-.0228271-.9095459-.0158081-1.3643188-.0239868l-.000061.0001221ZM638.447937,707.5443115c.5469971-.2646484,1.1290283-.4200439,1.7366943-.4417725.7924805-.0285034,1.3504639-.6601562,2.0899048-.7704468.927002-.1384888,1.7141113-.5413818,2.4464722-1.0678101.6257324-.449707,6.0123901-2.4064331,6.9081421-2.9407349.4014282-.239502.8353271-.3363037,1.2774048-.4096069.7871094-.1303101,1.3688354-.6014404,1.913269-1.1055908.6589966-.6102295,5.1135864-3.5594482,5.4645386-3.8364868.9448242-.1873169,1.5197754-.9174194,2.232666-1.4480591.2358398-.1754761.5148315-.3018799.7871094-.4231567.8570557-.3822632,1.4678345-1.0043335,1.8983154-1.8131714.2169189-.4073486.5476074-.6725464.9938965-.836731.2753296-.1015625.5439453-.2662964.7636719-.4595337.6728516-.5916138,1.3234253-1.2074585,1.9767456-1.8201904.4353027-.4085083.9095459-.7902222,1.2765503-1.2523193.3641968-.4592896.5980835-1.0158691.9216919-1.5095825.4050903-.618103,1.0463867-1.0988159,1.2700806-1.8134155.2352905-.7521362.8544922-1.197876,1.2779541-1.7965088.1715088-.2426147.3709717-.4705811.5114746-.729248.6342163-1.1673584,1.1231079-2.4081421,1.8464355-3.5309448.1405029-1.0449219.6209106-1.9561768,1.1205444-2.8710938.3520508-.6448975.8446655-1.2080078,1.0441284-1.9483032.2290649-.8497314.8770752-1.5403442,1.0209961-2.4436646.0702515-.4417725.4042969-.777771.6973877-1.114624.3909912-.4494019.8009033-.8968506.9659424-1.4785767.1658936-.5853882.5910034-1.0283203.8311157-1.5617676.5024414-1.1165771,1.3129272-1.9657593,2.2546387-2.7203979.5828247-.4669189,1.1507568-.9537964,1.7561646-1.3911133.3585815-.258728.777771-.4367065,1.1679688-.6542358.3007202-.1676025.4629517-.8328247.2905884-1.1950073-.1907349-.4003296-.4688721-.7744141-.5848389-1.192749-.2144165-.7735596-.729248-1.3236694-1.3756104-1.6842041-1.5615234-.8711548-3.1207275-1.7530518-4.802124-2.4083862-.5540771-.2158203-1.0514526-.572998-1.6765747-.5777588-.9312744-.0070801-1.7697144-.3088989-2.5739746-.7391357-.1283569-.0688477-.2818604-.0973511-.427124-.1295166-.7904663-.1751709-1.4841919-.0285034-2.0419312.5859375-.3029785.3334351-.5828247.6798706-.6372681,1.1391602-.121582,1.0280151-.3221436,2.0202026-.8065796,2.9664307-.3306274.6460571-.211853,1.458252-.6516724,2.0946655-.4356079.6305542-.4415283,1.4043579-.706665,2.0831299-.3213501.8231812-.7165527,1.6055298-.9174194,2.4837036-.1946411.8505859-.7227783,1.6114502-.7998047,2.513916-.0383911.4502563-.2970581.8336182-.5250244,1.2139282-.156311.260376-.3041382.5177002-.3187866.8186646-.0657349,1.3606567-1.1434326,2.3977051-1.2382202,3.7476196-.4127197.7859497-.8158569,1.5767212-1.2404785,2.3562012-.4931641.9050293-.9419556,1.8201904-1.7631836,2.5330811-.6680298.5797729-.9064331,1.5070801-1.5544434,2.1469116-.7422485.7329102-1.4099731,1.5375366-2.118103,2.3040161-.4042969.4372559-.824646.8604736-1.2376099,1.2901001-.4528198,1.2937622-1.6534424,2.0845337-2.2865601,3.2623901-.2070923.3850708-.5029907.7484741-.8325195,1.0415649-1.4503174,1.2897949-2.7224121,2.7647095-4.2782593,3.9433594-.3551636.2688599-.6765137.6220703-1.0776978.7828369-.8649902.3464355-1.5101318.9608765-2.1925659,1.534668-.4558716.3833618-.8457642.8618774-1.4029541,1.1010742-.9772339.4197998-1.7169189,1.21875-2.6795044,1.6269531-1.3786621.5853882-2.6315308,1.4020996-4.0330811,1.9505615-1.9451904.7614136-3.7521362,1.8255615-5.6772461,2.6419678-.397522.1687012-.7340698.5114746-1.0483398.822937-.5142822.5095215-.59552,1.4066162-.2250977,2.0447388.0733643.1264038.1664429.2716675.2897339.3354492.5326538.2758789,1.0838623.5177002,1.6212769.7857056.416687.2079468.8629761.2293701,1.3400269.2434692.5760498-.0048218,1.1784058-.0084839,1.737793-.2792969h-.000061ZM182.5679626,430.3046875c13.377533-.3670959,27.366333.6419067,40.4508362,0,.4558716-.7654419,1.888031.2442017,3.4141846-.1773987,5.4277191-2.7318115-2.1962891-7.6136475-4.276062-9.9797668-2.4772339-1.2479248-4.7328949-4.640686-6.151825-5.3474426-2.2737885-.9427185-1.7888184-1.1818848-4.9267578,1.7496338-1.5867462,2.1928406-4.802063,5.7757568-6.834137,7.1584473-4.4613495,1.8694458-12.4124451-.6505432-17.5204163,0-6.4093323-.1335449-13.1900482-.1924744-18.4654541,0-6.584198-.1775513-13.7723541-.4603882-20.40979-.7789917-2.5764008.0033875-6.8061829-1.93927-7.8150635,1.1071472-.2864685.8944397,1.328064,6.5425415,2.4940491,7.098053,13.5750732.2979431,26.6390381-.6554871,40.0404663-.8296509l-.0000305-.0000305ZM203.0748138,450.5307007c5.0868988.0361023,10.5155182-.0704651,16.5344086,0,4.8410492-.4256287,9.4055634-.7111206,3.8070374-6.1201782-2.7336578-2.2429199-6.7423706-6.9719238-9.74646-8.2190857-3.6658478-1.2313843-5.211792,2.1412659-7.7374725,4.8369446-2.3673706,2.4724426-2.1225586,2.4263-4.9073486,2.9033813-2.6171112.6346436-5.1559143-.0782776-8.1424713,0-5.4086151-.2241211-10.203476.1211853-15.3816223-.1975098-3.2680969.0427551-7.2639313-2.3772583-8.1548462.8614197-.1122437,1.1757507.7368622,7.0303955,2.4629974,6.764679,10.4282074-.0906067,21.0847321-.4112549,31.2657623-.8296509h.0000153ZM202.8104706,472.7445374c5.6042786-.2228699,11.3395233.0285034,16.7156067,0,4.2365723.1268311,9.5213623-.315979,5.1606445-5.3270569-1.9591217-3.0094604-6.684845-6.9561768-10.0798798-9.0746765-4.116745-2.3813171-5.5124054.0807495-8.6164551,3.7288818-2.1379547,2.4407959-2.8580933,3.6354675-5.2783203,4.0763245-2.280899.6824646-5.7404938-.0310974-7.9093933,0-5.0489807-.0072021-10.1606903-.0209351-14.9754028-.1799316-3.7781982.1004333-7.7229767-2.7407532-8.395813,1.4194031-.3569031,1.1209412.6570892,6.1867065,2.3776093,6.1867065,10.2629852,0,20.6694641-.8296509,31.0014191-.8296509h-.0000153ZM204.4973602,408.0908508c5.1031494.3538818,10.1472626.331543,15.8368225,0,5.4240723-.1094971,5.9516754-1.8140869,1.4957886-7.4930725-1.8812561-3.0394592-5.1680145-6.1254272-8.395752-7.3808899-3.4815369-1.3338928-5.7068481,2.0009155-7.6047821,5.0289307-3.5092926,4.1271362-5.6916962,3.5167847-11.4412537,3.2460938-5.8312683-.3769226-11.6114655.6768188-16.1996918-.3606262-4.271225-.8359375-6.1938019-3.3357239-7.5978241,1.4508667-.6218262,1.9334106,1.3045044,6.2910461,2.3789673,6.3383789,9.8397369.4336243,20.6708984-.7951965,31.5277405-.8296509l-.0000153-.0000305ZM184.1920471,534.5575562c.827713-1.1659546-.1382904-2.5970459,1.3321991-3.2930908,1.5174866-1.5048828,5.3921051.8289185,6.7627411,0,5.3402557-.0487061,7.2680664-.8848267,11.3621674,0,4.0168152.1835327,3.7629089-.0174561,6.3698425,2.1499634,2.8131256,1.4064941,9.0663147,1.0986328,10.186203-2.7415771-.2100067-1.6117554-.16539-4.984436.1456299-6.7155762-.8647156-6.1733398,1.1514893-12.0844421-.0661926-17.6676331-.9213104-.8121948-.3153076-2.2030029-.0002899-4.5097046-.1823578-5.4352112-.428421-.1668091,1.8863525-3.5818481,1.7419128-2.4484863,3.3321533-1.66922,3.7768402-3.4666138,1.6603699-3.6259766-4.8555298-6.9514465-6.9639587-8.7024536-5.9673615-5.0124512-4.9241638-1.9108276-10.7254944,1.7563782-1.9156799,2.0336304-2.5976257.9888916-5.1465912,1.4036865-4.9571533.29953-12.6436005,1.6897888-17.1454468,0-3.1823425-.9987488-6.5881042-4.6882324-9.5410614-6.5351257-5.1783295-3.238678-4.8289185-.5619202-4.6429138,4.3374023.3443604,9.0708923.3712311,18.1576843.2418213,27.23349.0825043,6.3605347-3.2576904,21.3817749,5.0916595,21.494812,1.3666382.6184692,5.0098724.53302,7.0765228-1.1621704l-.0000305.000061ZM193.5274963,524.6679077c-2.780838,1.2252808-6.5837708.9468384-8.0578003-1.2408447-.366806-1.1152344.4035645-4.7299194,0-6.6500854.2277985-2.838623-.3044891-6.5834961,0-9.2410278-.3844452-1.8476868-1.1407318-10.6483459,0-11.745575,1.2957153-1.2518921,11.4759979-.6873474,13.3635406,0,3.1019897.3817749,6.7232361-1.5258179,8.0578003,1.2408447,1.7263489,3.1717834-.4891968,11.2208252,0,15.8910828-.3237152,3.4562988-1.0501709,6.1525269,0,11.7456055-5.5847626.7507324-8.8511353.1142578-13.3635406,0ZM215.708252,563.388916c2.8578644-2.0886841,5.6164398-4.3143921,8.2779083-6.6479492,5.1560669-4.520752,9.9438477-9.4579468,14.3703308-14.6929932,6.1371918-7.1553955,12.0053558-14.3616333,15.7050629-23.1730957,3.8528748-6.7937622,5.34198-13.9239807,7.0015259-21.7342834.6686401-3.5426941,2.2581482-8.4115906,2.4363098-12.6170349-.0664978-.8226013.4817505-7.362915,1.0663452-7.798584.1073914.1419373,1.4349976-.2175903,1.6493225,0,7.7885742-2.7923584,5.6303711,5.2967834,5.3296509,9.4171143-.0293884,14.1297607-.5292358,27.7197266,0,41.6734009,2.0161743,9.2780151,4.6572266,8.5244751,12.6958618,9.4160156,6.7376404,1.8981934,14.6670837-.2511597,20.4337463-.111084,5.3954468.0413208,12.2336121.1170044,13.8903198-4.5241699,2.1852417-4.632019-2.2094727-8.5721436-3.2172852-12.5927124-.441864-2.2183228-.9274597-7.4328003-2.9537659-8.9890747-5.8849487-3.6633606-5.571991,11.6486206-9.581665,13.8110352-2.7672119,1.7355347-12.1055603.7753906-15.8482056.3383179-2.1707458-1.1885986-1.3895874-1.3186646-2.6887207-2.8040161-1.336853-4.9863892.6786804-11.3104248,0-16.0284119.0883789-7.0266418.3688049-15.1517639,0-23.4599915.4324951-.4707336-.6044006-4.905426,0-5.9329834,1.8273315-1.6793823,3.7476196.6963501,4.0128174,1.10495,1.2820435,1.5298767-1.0570068,3.2994995,1.4562683,4.9078369,1.7236633.5643921,3.9111633.6813354,4.9632263.2732849,6.5142517-.848999,7.3158264-1.624176,7.1647339-8.631897.1747742-6.1983643-.5705261-12.5259399-.3352356-18.2142944-.1841125-3.0072327-.6540527-5.6899414.2210999-8.6995239.3820801-1.3824158-.4901123-3.142395.1469421-4.5783691.13797-2.0227966,1.8961792-1.3751831,1.6429749-3.9584351,1.3631287-4.6430664-4.3499451-7.682312-7.3198242-10.8068848-5.5154419-4.42099-3.6239929.8497925-8.6877136,2.4994812-1.4585876.6889648-4.9943848-.2364197-5.881897,0-7.6771851.4989014-15.9842834.467041-24.078186,0-3.4008331.8539429-7.3930206,1.3199768-9.170166,0-2.2601318-1.3440857-3.9766846-2.5292053-6.8566284-3.5632324,4.2737579-5.2387085,7.4643555-10.5283203,10.9567719-16.2092285.3979187-1.6672363,2.3106384-3.4432678,2.0674744-4.0829163.7448883-2.7857361,1.9533539-2.399292,3.5912933-3.6358032,1.2640686-.3751831,4.0877686-.7792358,5.2568665-3.0353088.5428772-4.5016785-7.6161804-5.8507996-10.1476135-6.7601624-5.5700378-2.8483582-7.2753754-4.3023376-9.4321594,2.5058594-5.0573883,11.7180176-8.8368073,24.3017273-16.5561218,35.5410156-2.1726074,3.1073914-10.1795197,9.9589844-4.6645813,11.9169617,3.6939697,1.9586182,9.7734985-6.4137878,12.2164154-8.6199646-.3557739,10.0454102-.3916626,19.5510864-.0888062,29.9931641-.0521698,4.3899536-1.2923737,11.4172363-.1773529,15.7509155,1.0565186,3.9665222,4.3735199,3.9087524,8.6339111,3.62146,5.1231232-1.0340271,3.0241699-1.6734314,4.7593842-5.1053162.926712-2.3432007-.6857605-3.2837219,3.2970734-2.427063-.997467,18.0888367-6.3671417,35.4479065-15.7263947,51.0327454-4.3205872,8.3568115-10.5765686,16.387146-17.4761658,23.1523438-4.2766113,4.4558716-9.1143188,8.1088257-13.6535187,12.2459717-2.1646118,1.9729004-2.8503723,1.5693359-1.6942291,3.9990234.3174744.6671753,2.2453766,2.4368286,3.1335297,2.4368286,2.5944366,0,7.7980194-4.6967163,9.8590851-6.203064l-.0000153.0001221ZM251.9111328,470.1236572c-3.9462128-.3747253-4.1951752.5973511-3.9422455-3.2270203-.778595-6.507019.3657074-12.7078552,0-19.1133728.1876526-2.398407-.7863312-8.5997009.2423401-10.3473206,1.8749237-.7418213,11.8149567.0570374,13.8213043,0,6.180542-.1237183,12.8425598-.0910645,19.9554749,0,1.3930664-.0552979,4.4382324-.7837219,5.763092,0,1.0217285.4378357-.4050598.2359314.5367432,1.7164917,1.5151672,4.7821655.1216125,12.8843384,0,18.0078125.0400696,4.5254822.3508606,8.6376038,0,12.9634094-12.1948853-.0559082-24.2755127-.1445618-36.3766785,0h-.0000305ZM319.7800293,436.986084c1.8552856-1.2652588,3.9049683-1.8010254,5.4900208-3.0489502,4.533905-3.569519,1.2452087-5.709198-2.9974976-7.1920776-12.3674011-4.7432251-24.6784973-11.8813782-31.1372986-23.8887634,7.327179-3.9568176,8.8421021-6.5585632,1.4301758-11.9795837-1.2242126-.0155945-4.5776367-4.5186157-5.441803-3.6089478-2.481781.4410706-4.7411194,5.1291809-5.8963623,5.8314209-2.6841125,2.1303711-6.3595276,1.1687622-9.0868225,1.3437195-5.3529968-.3123474-8.5723572-.6502991-7.2294617,4.2542725,1.6515808,5.9291382,6.1454773,1.9709167,10.8998413,2.6340637,1.4453125.0397339,5.2630615-1.2891235,6.5490723,0,.7680359.7060852,2.065094,5.3310852,3.6642151,8.3606567,2.290741,7.2547913,6.2993774,12.9651794,11.338623,18.8454895,2,2.5545044,5.1228333,5.1741638,7.4162292,7.3149719,2.170929,1.2834167,7.50177,6.9764404,9.7342529,7.1873779.9049072.1432495,3.869812-4.8111877,5.2667542-6.0536499h.000061ZM377.117981,537.875061c.4016418-5.4354858.1124268-11.4015503,0-16.960144-.1090088-7.3270264-.2433472-14.0970764,0-21.3885803-.0043335-1.4548645-1.1388245-9.3565369,0-10.584198.6547241-.7058105,5.8707581.240509,6.9581604,0,5.4771729.1464539,10.9528809-.1520081,16.7203979,0,12.399353-.2315369,24.7790222-.3415527,37.322052,0,1.3959656.122406,7.5786438-.9670715,9.0144653,0,1.1197815.9836426.2782288,7.4999084.2256165,8.9486694-.4224548,6.127594.325592,11.9937439,0,18.2329102.0007019,1.2424316.2818909,2.2058716-.4859009,3.1061401-.9284363.5143433-6.3408813,1.8326416-7.5524597,1.5744629-3.0949402-.0092163-7.1616211-.1022949-7.1616211-.1022949-3.4069519.0859375-11.7514648-.7914429-7.9801025,2.7623291,5.3200684,5.0131226,14.7534485,6.0489502,20.2794495,6.442627,6.222229.3476562,15.8795776.9259644,16.0741577-7.0846558-.1269531-7.4907837-.3101196-15.9178772-.3490601-23.9217834-.0415344-2.0414429-.9343567-6.6952209-.0894165-8.5745544.9404602-1.7943726-.157196-1.5332336,3.0012512-1.3838501,5.7118225.2529907,11.2668152.8891296,16.7405396,0,9.1438599-.7796021-2.3851318-9.2617188-5.3943176-12.464386-3.4356384-2.5115662-4.4405823-5.9917908-7.8360901-2.8651733-2.1107178,2.3979187-4.7601318,5.916626-6.3651428,8.6634827.1086731-9.0509338.0815125-17.8196106,0-27.4436646-.1728821-3.8955078-1.2196655-9.863678,0-13.9639893,1.6177979-6.0603027,7.9572449-5.2597046.3181763-11.4134521-1.6619263-1.1889038-5.5247192-5.3571777-7.415863-5.2048645-2.6943359.5912476-3.6467896,5.9554749-6.2137451,7.1720276-2.5215454.8886108-10.1402588-.2680359-12.9166565,0-3.321991-.0727844-12.9546509,2.1623535-15.8703613,0-2.4769897-1.2753296-1.1532288-6.1201172-1.2189941-9.1442566.2544861-1.4946899-1.1172485-7.9801636.1907959-9.1442566.9220276-.7624207,7.0437012.3623047,7.7901611,0,10.37146-.1494446,21.6531372.2593994,31.8336792,0,3.2615662.1083069,6.5725708.0587463,10.1146545,0,5.4264526-.0436707,5.7307434-2.554657,1.5689087-6.5747681-2.6843567-2.721283-6.3331299-5.6795349-9.3731079-8.0210876-3.0913696-2.5135803-3.246521-3.5575867-6.3639832-1.4913025-3.1755981,2.3871765-5.3041992,8.5451355-8.6119385,9.9366455-1.9825745,1.1803589-5.2355347-.3708801-8.369812,0-4.4551086.3545532-8.2530518-.0012817-12.5072327,0-10.3709717.4537354-21.7657776,0-32.6486816,0-6.2554016,0-12.7629395.1191406-18.7751465-.0357666-3.5404663-.0131531-15.9321289-3.2833557-16.6439514.3179016-.043396.8782349-.2328796,5.0736694.6908264,5.6694031,1.9067688,2.2254333,5.021759.8139648,7.7272949.6228333,10.4393005-.9463806,21.20047-.4237976,31.7549744-.4237976,1.2321167,0,8.4969177-.9300537,9.4725647,0,1.2304993,1.1729736,0,10.1101379,0,11.8509521,0,.9541016.4948425,5.4165344,0,6.3049622-.349884.3714905-1.3862305-.0459595-1.9463196.1325989-3.8201904,1.217804-10.0404663,0-14.0472717,0-3.7066345.2020264-8.4074097.6154785-11.6160278,0-2.9751282-.7003479-11.5787659-8.3956909-13.5126038-4.2658081-.7379456,1.5001526.1885681,6.8455811.2397766,8.8710632-.0384827,3.1924438-.1578674,6.6937256.1372681,9.7626038.1785278,5.5205078.3449097,11.8198242.0605774,18.0957336.0248718,4.9237671-.0238037,10.2984314,0,15.5768127-.0554199,4.3448486-.0754089,3.6141663-4.4016418,3.3266602-6.5011292-.4645691-13.90802-.100647-20.3457336-.7096252-2.2796631-.1677856-4.8048401-1.8884583-6.1695251,1.0381165-.1112061.5075684.8051758,5.3408203.9694519,5.2526245,2.0244446,2.9171143,11.9586792,1.2030029,15.6893921.7128296,4.7195129-.1362915,9.5001221-.1410217,14.2520752-.1410217.0759888,9.5024109.0125732,18.4570923-.1361389,27.9570007-.0460815,4.7209473-3.2336731,26.7647705,3.584259,26.7647705,5.2038574-.2098999,9.1802673.0376587,9.5878601-5.7888184l.000061-.000061ZM419.4315491,482.7891846c-3.8025208-.2251892-2.1902466-1.7031555-2.5089722-5.9357605-.2498779-2.3280945-1.5738525-12.6972046,0-13.8154602.9813232-1.4172974,9.3708801.0462646,11.2315674,0,5.3001404.3049316,10.7987671-.6003418,16.6955872,0,3.774292.5457458,2.3060303,1.2813416,2.5089722,5.9357605-.3971863,4.7180481-.0648804,9.2532349,0,13.8154602-8.8033752.6185913-18.8760681,1.3445435-27.927124,0h-.0000305ZM392.9461975,482.7891846c-3.9707642-.0981445-10.8969727,1.5884705-14.5657654,0-2.31073-.9930725-1.2624817-4.1788025-1.2624817-7.1585388,0-1.9510498-1.3408203-11.112793,0-12.4464111,1.2862549-1.0492859,9.0462036.1531067,10.5109863,0,4.398468.0707703,11.0265503-1.183136,15.2174072,0,1.4296265.8367615,1.312439-.4166565,1.9262085.456604.6479187.943634-.4033508,4.8682556,0,6.0685425-.1900635,4.0422974-.2247314,9.1728821,0,13.0798035-3.5977478-.167572-7.9405518-.093811-11.8263855,0h.0000305ZM419.4315491,457.031311c-3.8739929-1.0352783-2.2556458-1.0487671-2.5089722-5.8471069-.1387939-1.9953918-.9130249-11.7871704,0-13.6091614.9299316-.8554993,9.6448364.0324097,11.2315674,0,5.3768005.3664551,11.806488-1.0928345,16.6955872,0,3.6545105.8650818,2.5317993,1.2631531,2.5089722,5.8471069.1071472,4.7865295-.1155701,9.3766174,0,13.6091614-8.5696716.4019165-19.1975403,1.7358093-27.927124,0h-.0000305ZM392.9461975,457.031311c-3.7440186,0-11.0378113,1.5223389-14.5657654,0-2.2460938-.9980469-1.2502441-3.9624329-1.2624817-7.104248-.2432251-2.2010803-1.3093262-11.0422363,0-12.3520508.9608154-1.1382751,9.1478882-.1030884,10.5109863,0,4.3861389,0,11.0386963-1.3132629,15.2174072,0,1.0783081.4374084,1.203064-.1024475,1.9262085.4531555.2698364.6321716.1222229,4.6351318,0,6.022522-.0126648,4.2419128.2108765,8.6004944,0,12.9805908-3.8081665.1065063-7.6392212.0811768-11.8263855,0l.0000305.0000305ZM501.3034363,544.5438232c7.4544678-3.6828613,14.4811096-7.7287598,20.639801-13.3112183,5.161438-4.3314819,10.3856812-10.425293,14.2335205-16.305603,1.3270874-4.0911255,3.7893677-6.6665955,6.1326904-10.4407043,1.6235962-2.0469055,1.8545532-4.6017151,2.4678345-6.2653198,1.1459961-.7860413,1.1519165-6.5108337,1.7009277-6.9889526-.081665.1083069,10.5980835-1.1912231,10.7041016,0,1.3859863.9035034-.5043335,9.7453308,0,11.4961243.5895386,7.2225342-3.7518921,18.3711548.9197388,25.6960449,2.9542236,4.8117676,9.369873,5.5123291,14.5681152,4.8953857,5.6335449-.0286255,11.7835083-.0698242,17.5028076.1278687,5.6204834-.1635132,14.8349609,1.9700317,19.9087524-1.1304321,5.7003784-2.3403931,3.184082-7.9755859,1.8934326-12.4037476-1.8615112-3.2501831-2.3973999-13.6743164-7.9204712-8.0812683-2.6368408,2.2506409-1.1220703,7.3523254-4.6241455,10.1417542-2.7635498,1.9695435-11.147522.6834717-14.5012207.8045044-3.0111694.5203857-12.2463989,1.2212524-14.5116577-.499939-2.9609985-2.3421021-1.0568237-16.049469-.7579956-19.3934631-.7213135-2.3591919-1.4956055-9.0826111,0-10.9447327.8560181-1.9293823,5.2405396-.528717,7.6225586-.7081909,4.3192749.7190857,6.9624634,4.27005,12.5774536,2.3247681,4.5462646-1.7789001,2.7561646-6.1108398,2.9855347-10.0466614.2700806-13.0794678-.0125732-26.22052-.3425293-39.3165588.1776733-4.5653076.2133789-8.9746704-.0021362-13.8070068-.0010376-1.219696-.7281494-4.0292969,0-5.3016663,1.0811157-2.0322571,3.6586304-1.9814453,4.3035889-4.5585022.4972534-3.2032776-9.2936401-11.2068481-11.6098633-10.2175598-2.7532959.496582-4.2457275,5.1577759-6.8880615,6.0114441-2.3429565.4467163-6.7798462-.0786133-8.572937,0-3.7437134,1.0904846-9.5909424,1.1314087-13.6737671,0-7.696106-.4489746-16.8484497-.7949829-25.2301025,0-2.0098267.6161194-4.211792-.1926575-5.7969971-.6721191-3.385376-1.8945312-10.7740479-10.2223511-12.4766235-4.1351624-.9535217,3.4089966.487915,8.8953552.595459,12.607605.1276855,6.6654053-.078186,13.2870483.1485596,20.5236816.1048584,14.9437561-1.8469849,30.553772-.9200439,44.6027527.2070923,5.5480042,7.003479,6.0083923,11.7224121,4.0334778,2.8735352-.7814026,1.3922119-2.2281189,4.2989502-2.0484924,1.6982422-.2042847,3.8151855-.4520569,5.4404297,0-1.9022217,15.7217102-14.9728394,31.4793701-27.5254822,40.2879639-4.1070251,3.2453003-9.0770264,5.7972412-13.508728,8.1881714-2.2210693,1.1994629-8.5648499,2.9255981-9.8760986,5.2025146-1.1763916,1.4324951-.2303772,5.4468994,2.415863,5.6949463,4.6746216,0,11.614502-3.973938,15.956543-6.0618286l-.0002136.0001221ZM545.4758911,485.2613831c-5.2300415-.1975708-10.7322998.3147278-16.4146729,0-4.2132568.3325195-3.7188721.3722229-3.2874756-4.4399719-.4503784-2.0565491-1.251709-11.864563.1763916-13.400177,1.7789917-1.1967773,8.8057251-.1662598,10.9535522,0,13.425293-.1055603,25.9334717.2112427,38.1954346,0,3.8209229.0840454,4.421936-.7921448,4.7896729,2.3214417,1.0842896,4.3960571-.2722778,10.8247375,0,15.5186768-10.9299316-.2201233-22.543396-.2410278-34.4129028,0v.0000305ZM546.1295166,461.450592c-4.9082031.171936-10.8890381-.2913513-16.347229,0-3.5880737.2066956-3.0123901.5111694-4.0085449-3.3808289.1376953-1.3811035-1.1913452-11.5060425.1763916-13.2124023,1.0229492-1.3280945,8.3051758-.1293945,10.9535522,0,12.4684448-.0827637,24.4016113.5251465,37.3571777,0,.68396.210968,3.8733521-.553009,4.9384766,0,.6364746.9056091-.6592407-.2599487.6894531,1.50354,1.8622437,3.7655029-.0857544,11.0239258,0,15.0897217-10.7939453.3539734-22.1171265-.3726196-33.7592773,0v-.0000305ZM546.1295166,438.8866577c-5.1530762-.2221375-11.4251709-.2261353-16.347229,0-4.0108032-.012085-4.2885132.5306396-4.0085449-3.3813171.1322021-1.9802246-1.4466553-11.9424438.1763916-13.214325,1.6230469-.7962036,9.3462524-.2474365,10.9535522,0,11.7672729.7692871,24.3486938-.4838562,37.3571777,0,.5444336.004364,3.9195557-.4264832,4.9384766,0,.4560547.6738281-.0976562-.1459961.6894531,1.5037537.9868774,3.581665.0304565,11.0439758,0,15.0918884-11.2954102-.4584351-21.9194336-.0819702-33.7592773,0ZM667.2297363,416.8166809c33.65271-.1073608,66.4142456.0655823,99.6325684,0,3.1538086-.0591431,7.2446899,1.1072388,10.0115356,0,5.2816162-1.4602966.8807983-5.7209167-1.6908569-7.7236938-1.9332275-1.678009-9.2081909-10.7184753-12.0492554-10.3226624-5.1505737,1.177124-6.9478149,10.4410706-11.5036011,11.6032715-2.5506592.6093445-6.4465332-.0243225-9.4901123,0-6.9188232-.1258545-14.1158447-.1462097-20.9605713,0,4.4815674-3.593689,8.1286621-7.4773865,12.0527954-11.7216797,2.7278442-2.5570374,3.7020264-3.0736694,7.166748-4.153717,1.4570312-.4302063,3.5264893-.6908569,4.2276001-2.4563599.9021606-2.9136658-3.9002075-4.8057251-6.3510132-5.7880249-2.8344727-.9983521-10.2578735-4.9855652-12.885498-3.8908691-1.6860352.7024231-2.9630127,8.055481-3.6972656,9.8160095-1.7479858,4.5048218-5.923645,16.912323-10.6916504,18.1946716-2.9754639.5939941-9.8264771.1720276-12.3961182,0-6.0822144.0151978-12.2733154-.5111694-19.6879883,0-9.1422119.5075684-17.6931152.382782-26.2297974,0-9.3297119-.0118408-18.7714233.0947266-28.0665894-.849762-3.1920166-.3243408-4.3414307-.9509888-4.6287842,2.4212952-.1030884,1.2095337.4830322,5.9841309,2.2600098,5.9841309,14.9318848,0,29.9847412-1.1126099,44.9778442-1.1126099ZM688.4797363,527.7492065c3.8775024-.6484985,9.4147949-.9318237,11.3203125-4.7669678.5195312-1.9289551.1292114-4.6490479.3376465-6.6369019.0323486-8.2794189-.2932129-16.227417-.2850342-24.6672668.0861206-8.7069702-.975708-17.696991-.1760864-27.0127258.1517944-5.3975525.3999634-10.9401245,0-17.1789856.5012207-2.0571289-.6954956-4.3739014,0-6.72052.5864258-3.4067688-1.5076904.0222778,2.0307617-3.0820923,2.5178833-1.6475525,3.4060059-1.9654541,2.1367798-5.7059631-1.1104736-2.4012451-5.381897-5.1808472-7.9646606-6.4403992-3.8344727-2.7190552-4.6296997-2.0340881-7.3037109,1.5343628-1.6914062,1.571228-2.1842041,2.7692261-3.8418579,3.1705933-3.9378052,1.6115417-10.7994995.6914978-14.6819458,0-3.5701294-.2050781-8.6342773.7365417-11.8781128,0-2.8449097-.8713684-6.2420654-3.5458679-9.026062-4.9335632-4.1742554-2.080658-5.3930054-2.8152466-5.5309448,2.1546326-.3226318,7.8852844.6226196,15.9072571.4994507,24.1433716.1341553,19.7275696-.0393066,39.6907349-.3919678,59.8635254.0640259,3.7919617-2.2163696,13.9145813,2.0377197,15.6542053,2.0614624.7852783,8.8762817.2481689,10.5861816-1.1719971,2.734375-2.2709961,1.5253296-7.4665527,1.5202637-10.491333.0445557-7.161499.1017456-14.7163391-.2619629-21.5830994-.2331543-1.5316162-.9607544-8.539032-.0531006-9.3792725.3868408-.4304199,1.4241943-.0562439,2.2901611-.2877502,8.3051147-1.7399292,18.2588501.1202698,26.7180176,0,.1671753,10.4865723.2926025,21.1877747-.0012207,32.3352051-6.0465088,1.2909546-13.7197266-2.0852661-13.7197266-2.0852661-4.906189,1.5799561.7213745,6.2064819,3.7342529,8.3893433,3.4765625,2.5187378,6.7410889,4.6239014,11.9049072,4.8987427-.2559204.1479492.0093384-.1920166,0,0l-.000061.0001221ZM660.2302856,477.7680664c-3.6502686-.3182373-2.7767944-.7145386-2.677002-5.0818481.4168091-1.8802185-1.2102051-11.5505981,0-12.954895,1.3540039-1.0093689,8.3328247-.3902283,10.4725952,0,4.4501343-.0662537,10.3201294-.9971619,15.8585205,0,3.4981689.9119568,3.1348267-.1785583,2.677002,5.0818481-.0724487,4.8522339.2874146,8.5587463,0,12.954895-8.0847168-.0249939-18.456604,1.8997803-26.3311768,0h.000061ZM660.2302856,453.2906494c-3.5136108-.7441406-2.4788208.1065063-2.677002-4.5114136-.1051636-1.9562378-1.1464844-10.8299561,0-12.093811.9698486-.8726807,9.3707275.1531982,10.4725952,0,4.9296265-.0874634,10.3231201-.2574158,15.4185791,0,4.3395996.0690613,3.1311646-.1270142,3.1170044,3.921936.3439941,4.1586914.4732666,7.9647217,0,12.6832886-8.4310303.2685852-18.2490845,1.3084106-26.3311768,0ZM694.3530273,389.4599915c-2.9155884-7.0158997-12.7416992-10.6411133-18.2625732-14.5361633-2.994751-1.3343506-8.2199097-6.0255127-9.8222046-.9884949-1.321167,3.2589417,4.3110352,7.5473328,6.027771,10.1626282,3.1069946,4.5964355,6.4318237,9.0324402,8.4746704,14.5647888,1.2733154,3.7850647,1.2408447,8.6600342,6.6239624,8.653595,7.5923462.5039368,9.1246338-12.32901,6.958313-17.8563538h.000061ZM730.4514771,496.3003235c-.2814331-7.7177734-.1078491-15.4131775-.1845093-23.1521301-.0185547-7.9422302.1795654-15.972229-.0715332-24.0572815-.6773682-2.361969.493103-4.7798767,0-7.3893127-.131897-4.822113.204895-2.1022034,3.2301636-5.5075378,3.3362427-2.8314514,1.0551147-5.1727295-3.7437134-5.9885864-2.6021118-.032196-9.7365723-3.1998291-11.8486328-1.8694153-3.0963135,1.6788635-.512146,8.6416931-.7088623,12.3237305.4102783,11.1715698.098999,22.4044189,0,33.5799255-.0379028,4.2763977-2.8284302,30.3263245,2.7770386,30.3077393,7.1542969-.5639648,10.5806274-.7624817,10.5500488-8.2471313ZM763.6108398,503.3655396c-.1322632-10.8813782-.62677-21.9250183-.319519-32.6462402.3793945-5.1329956-.1958008-10.0213318-.036499-15.0445862-.6574097-3.9588928-.0577393-8.3057556,0-13.3527222-.460144-1.7171326-.6176758-7.5067749,0-8.2605896,1.149231-1.8283081,7.1509399-1.6419678,5.8494263-5.9002075-1.2948608-1.4606628-4.878479-2.6087646-5.9708252-2.6424561-3.3829346-.7960205-6.8360596-1.0437012-9.9862671-1.7345581-3.1932983-.619873-2.9865112-.7748413-3.8661499,2.7492065.0032959,5.3450317.8143921,11.1338196.8587036,16.5808411.6674805,24.2216492-.0737915,50.3434143-.1069946,74.4161682-6.9058838,1.6881104-15.027832-.3490601-15.027832-.3490601-8.3753662,3.8786621,6.5906372,8.3535156,7.5338135,8.755188,3.3123169,1.4105835,8.2266235,2.6400146,12.1569824,2.8365479,11.7961426.0350952,9.1785889-18.2600403,8.9151611-25.4075317ZM804.5413208,518.4215088c2.1870117-2.9628906-.9354248-.9815063,1.7393188-2.321106,2.0767212-.2386475,5.807312.1220703,8.2393799,0,1.7128906.0960083,5.4206543-.3718872,8.2393799,0,2.6616821-.0136108,8.8556519,4.7365112,11.9356689.7927246,1.9006348-1.8102417,1.1048584-4.2166748.7532349-7.0357361-.4018555-4.9324341-.0767212-8.5602112-.1071167-12.7166748-.1829834-11.3829041-.1178589-22.032074-.0856934-33.2826233-.0379028-3.5288086-.0360718-7.1132507.0432129-9.7218628.3948975-.7444458-.1637573-2.2261047.0359497-3.2937317-1.1552734-2.2073669.246582-3.1717834,1.9692383-3.4476929,1.1380005-1.0616455,2.414978-1.1523743,2.4116821-2.9066772-.4750977-1.8891907-5.3249512-5.9465637-6.8573608-7.0021973-5.1414795-2.8473206-3.5672607,1.9275513-7.6521606,3.8250122-2.7590332,1.3219604-9.017395.1896973-11.9293823,0,1.6334229-1.9642639,3.2616577-4.7727966,4.6123047-6.5710449.8357544-1.5587463,2.7137451-6.8360596,4.1375122-7.5691528,1.9210815-1.266449,9.2808228-.3035583,5.6677856-5.2872925-1.5374146-2.2612-7.1516724-3.1304932-9.3070068-3.4326172-3.15625-.9629211-5.1430664-2.6430969-6.9709473.4057312-.7662354,1.8523865-.7728271,5.9977112-1.0236206,8.1705933-.4614868,3.5394592-1.3005981,10.3395386-3.3701782,13.0812073-3.7711182,5.1950073-13.2865601-11.4482727-13.7116699-1.9024658-.3658447,6.1862183.494751,12.9501038.562439,19.2277832.1398315,10.1366577.0182495,20.2402954.1077881,30.2684631-.0339966,7.0570984.269165,13.7933655-.1383057,20.4971008.0524292,3.8692322-2.3331299,13.4554138,3.3179321,13.401886,3.918457-.2723389,4.8795166.1120605,7.3806152-3.1795654v-.000061ZM809.3032227,510.3814392c-4.0579834-.0705261-4.190918,1.0041504-4.7619019-3.2885437.4780884-5.2887268-.2640381-11.3103333,0-17.2016296.0737305-1.4045105-.9943848-10.250061,0-11.1304626,1.8851318-1.3692017,11.5749512.1526184,13.9194336,0,4.2132568.0914917,5.6063843-1.4223633,5.9804077,2.4691772,2.0889282,8.9359131.4101562,19.469696,0,29.1514893-4.8860474,1.0773621-11.1778564-.4261169-15.1380005,0l.000061-.0000305ZM811.8075562,473.0418701c-3.2210693-.0773926-6.4362793.6861877-7.2662354-1.3482361-1.6138306-3.3497009-.0256348-11.1194153,0-14.3298645.3764648-.8273926-1.1675415-9.744751,0-10.3363342,1.5765381-1.5367737,10.8737793.3656311,12.633667,0,3.2852783-.041687,6.0136719-.6665039,7.2662354,1.0629272,1.4458008,3.1604919-.2935181,11.1281738,0,13.9554749-.2119141,3.5371094-.1606445,7.3829346,0,10.9960632-4.2025146.1595459-8.1381836-.0723877-12.633667,0v-.0000305ZM883.5102539,528.1544189c14.3218384-.7562256,14.1342163-26.985321,15.2435303-36.4650574.6174316-5.3013,1.3059692-10.7351685,1.383728-16.1655273.2114868-7.4132996-.5532227-16.0615234.6746826-23.3855896,1.3538208-4.1159058.7727661-1.452179,3.5252686-4.5646667.9526367-.3898621,1.0487061-.8360901,1.2642822-2.4476929-.0427856-2.6030273-6.1535645-7.511261-8.4100952-8.9846802-3.2368164-.5281372-4.0772095.0187683-5.684021,2.5368042-2.3624268,2.9057617-1.5709229,2.0696106-4.2553101,2.632843-8.2957764,1.5123291-18.5623169.5140991-27.3322754,0,1.5904541-2.5617676,2.8705444-5.2411499,3.4984741-7.7268372.4846191-1.5246582,1.5529175-5.9656372,2.6208496-7.293396,1.7756958-1.2929993,7.8262939-.4986877,5.961731-4.8403931-1.0018921-2.3926086-7.1588135-3.0805359-9.2064209-3.6745911-4.6832886-1.3842773-7.255249-3.0588379-8.3977661,2.1080627-1.6101685,9.4434509-4.2158203,18.8714294-7.8751221,29.0616455-1.8087769,3.6255493-12.1719971,22.9747009-10.6246338,25.2788391,3.2072144,3.005249,11.362915-9.2171936,12.6785278-12.0332947,3.0725098-4.0775757,4.3540039-9.5209045,7.2215576-12.8422852,3.0847778-3.6317444.6776733-1.8483582,4.4004517-2.3212585,9.1159058-.7035522,19.7718506-.3221436,29.1105957,0-.1177368,20.1673889-.6566162,42.244751-4.9987793,61.7366333-.928833,3.6900024-.9759521,8.0256348-4.3494263,9.0700073-5.4173584,2.2540283-10.6975098.5014038-12.3743896,1.0263672-3.2631226,1.0215454-5.9500122,3.0292358-1.8972168,5.3329468,1.6917725,1.0213623,5.4801025,1.4154663,8.0357666,1.6240234,3.3285522.2716064,8.0632935,2.1446533,9.7836304,2.3370361-.2975464-.515564-.1888428.2201538.0023804,0v.000061ZM881.5958252,484.9877625l-18.1213379-11.227417c-1.4890137-.9225464-3.4123535.1483765-3.4123535,1.9000549v22.4548645c0,1.7516479,1.9233398,2.8226013,3.4123535,1.9000549l18.1213379-11.227417c1.4106445-.8739624,1.4106445-2.9261169,0-3.8000793v-.000061ZM856.2077637,498.1662903v-22.5570068c0-1.1915894-.9660034-2.1575928-2.1575928-2.1575928h-3.5462646c-1.1915894,0-2.1575928.9659729-2.1575928,2.1575928v22.5570068c0,1.1915894.9660034,2.1575928,2.1575928,2.1575928h3.5462646c1.1915894,0,2.1575928-.9659729,2.1575928-2.1575928Z" fill="#fff"/>
      </g>
    </g>
  </g>
</svg>