<?xml version="1.0" encoding="UTF-8"?>
<svg xmlns="http://www.w3.org/2000/svg" version="1.1" viewBox="0 0 1080 1080">
  <!-- Generator: Adobe Illustrator 28.7.3, SVG Export Plug-In . SVG Version: 1.2.0 Build 164)  -->
  <g>
    <g id="tanso">
      <g>
        <path d="M736.4357229,471.9132709c-37.6032923,0-68.0866564,30.4833641-68.0866564,68.0866564,0,37.6030828,30.4833641,68.0866564,68.0866564,68.0866564,37.6030828,0,68.0866564-30.4835736,68.0866564-68.0866564,0-37.6032923-30.4835736-68.0866564-68.0866564-68.0866564ZM736.4357229,578.4662665c-21.2443624,0-38.4663393-17.2219769-38.4663393-38.4663393s17.2219769-38.4663393,38.4663393-38.4663393,38.4663393,17.2219769,38.4663393,38.4663393-17.2219769,38.4663393-38.4663393,38.4663393Z" fill="#fff"/>
        <path d="M383.234615,538.7221643c0-38.2629367-33.124665-68.7892437-72.2619604-64.466677-29.7478889,3.2854439-53.7950592,27.3324047-57.0805031,57.0800841-4.3225666,39.1375049,26.2037404,72.2623793,64.4668865,72.2623793,7.654724,0,14.9667429-1.3947007,21.7852331-3.8294568v-33.3626313c-7.2273901,5.6952722-16.710433,8.6566545-26.9159636,7.2062328-15.2342456-2.1651586-27.5515181-14.4168647-29.7460036-29.6469208-3.7322593-25.9010455,20.7227636-47.4261076,47.2002909-38.4081045,13.9612513,4.754928,22.9319125,18.4145319,22.9319125,33.1632088v52.623033c0,8.1792555,6.6305889,14.8100538,14.8100538,14.8100538s14.8100538-6.6307984,14.8100538-14.8100538v-52.6209382h0v-.0002095Z" fill="#fff"/>
        <path d="M432.6926536,546.231092c-8.1794649,0-14.8102633,6.6305889-14.8102633,14.8100538v42.7199878h29.6203171v-42.7199878c0-8.1794649-6.6305889-14.8100538-14.8100538-14.8100538Z" fill="#fff"/>
        <path d="M472.8630917,475.1241901c-30.3650094,0-54.9804919,24.615692-54.9804919,54.9804919v.0002095h29.6201077v-.0002095c0-14.0060795,11.3543048-25.3601748,25.3603843-25.3601748s25.3603843,11.3540953,25.3603843,25.3601748v73.6564516h29.6203171v-73.6564516c0-30.3647999-24.615692-54.9804919-54.9807014-54.9804919Z" fill="#fff"/>
        <path d="M203.2950482,518.3448126v85.4163757h-29.4887087v-100.1311145h-33.8063395v-27.5227948h97.1013876v27.5227948h-19.0916006c-8.1267259,0-14.7147389,6.588013-14.7147389,14.7147389Z" fill="#fff"/>
        <g>
          <path d="M837.2672441,491.9034599l17.0321903,29.983551,17.0326093-29.983132c-9.3498153-16.4592696-14.0253514-34.771367-14.0253514-53.0832549h-34.0643807c0,18.3116784,4.6746982,36.6237758,14.0249324,53.0828359Z" fill="#fff"/>
          <path d="M881.6211558,569.9832368l17.0321903-29.983132,27.3217214-48.0966448c9.3502343-16.4590601,14.0249324-34.7711575,14.0249324-53.0828359h-34.0643807c0,18.3116784-4.6746982,36.6235664-14.0249324,53.0826265l-10.289531,18.1135128-17.0321903,29.9833415-27.3217214,48.0968543c-9.3498153,16.4590601-14.0249324,34.7707385-14.0249324,53.082417h34.0643807c0-18.3120974,4.6755361-36.6239853,14.0249324-53.0832549l10.289531-18.1128844Z" fill="#fff"/>
          <path d="M925.9754865,588.0969591l-17.0326093-29.9837605-17.0321903,29.9833415v.0002095c9.3502343,16.4590601,14.0249324,34.7707385,14.0249324,53.0826265h34.0643807c0-18.3116784-4.6746982-36.6233569-14.0245135-53.082417Z" fill="#fff"/>
        </g>
        <path d="M637.7568714,497.863888l-24.3771204,12.975244c-3.845892-7.775598-8.6073716-11.6649884-14.2865606-11.6649884-2.7085689,0-5.0245916.8954298-6.9459462,2.6852283-1.9224155,1.7897986-2.8836233,4.0792979-2.8836233,6.8706198,0,4.8877309,5.679189,9.7309025,17.0386279,14.5305758,15.6392536,6.7210279,26.1669189,12.9158316,31.5851177,18.588655,5.4171379,5.6728234,8.1257068,13.3083778,8.1257068,22.9066634,0,12.3057936-4.5439877,22.6042967-13.6298414,30.8933876-8.8259244,7.8562291-19.4851457,11.7816913-31.9787249,11.7816913-21.4086222,0-36.566211-10.4396076-45.4780712-31.3241275l25.1632737-11.6639275c3.4936614,6.1162945,6.1597929,10.0056849,7.9952117,11.6639275,3.581719,3.3217898,7.8636557,4.9810933,12.843688,4.9810933,9.9600647,0,14.9411579-4.5429268,14.9411579-13.6309023,0-5.2420835-3.845892-10.1340581-11.5334324-14.6791068-2.971681-1.4842491-5.943362-2.9260608-8.9129211-4.3243741-2.9706201-1.3972524-5.9857994-2.8380031-9.0423553-4.325435-8.5649342-4.193879-14.593171-8.3877579-18.0868324-12.5816369-4.4559301-5.3280193-6.6838951-12.1890906-6.6838951-20.5768486,0-11.0952659,3.8002718-20.2691772,11.4018763-27.5227948,7.775598-7.2514957,17.2126213-10.8777741,28.3089482-10.8777741,16.3384103,0,28.4840026,8.4323172,36.4357159,25.2948298Z" fill="#fff"/>
      </g>
    </g>
  </g>
</svg>