<?xml version="1.0" encoding="UTF-8"?>
<svg xmlns="http://www.w3.org/2000/svg" version="1.1" viewBox="0 0 1080 1080">
  <!-- Generator: Adobe Illustrator 28.7.3, SVG Export Plug-In . SVG Version: 1.2.0 Build 164)  -->
  <g>
    <g id="recc">
      <path d="M644.6038468,581.1339135h-23.7990477v-159.6650087l23.5873391-23.5873391h.2117086v183.2523478ZM554.076185,581.1339135l24.8116478-24.8116478v24.8116478h23.799216v-82.267827l-82.2679953,82.267827h33.6571314ZM602.6870488,397.8815657h-23.799216v99.1612684l23.799216-23.799216v-75.3620524ZM435.3959849,682.1184343h.2117086l23.5875074-23.5873391v-159.6650087h-23.799216v183.2523478ZM525.9236467,498.8660865l-24.8116478,24.8116478v-24.8116478h-23.7990477v183.2523478h23.7990477v-124.7835685l58.4687792-58.4687792h-33.6571314ZM559.5807781,451.2678228h-126.0080456l-23.7990477,23.7990477h149.8070933v-23.7990477ZM559.5807781,433.1500726v-23.799216h-92.1257424l-23.799216,23.799216h115.9249584ZM520.4190536,604.9331295v23.7990477h126.0080456l23.799216-23.7990477h-149.8072616ZM520.4190536,646.8499274v23.799216h92.1259106l23.7990477-23.799216h-115.9249584Z" fill="#fff"/>
    </g>
  </g>
</svg>