<?xml version="1.0" encoding="UTF-8"?>
<svg xmlns="http://www.w3.org/2000/svg" version="1.1" viewBox="0 0 1080 1080">
  <!-- Generator: Adobe Illustrator 28.7.3, SVG Export Plug-In . SVG Version: 1.2.0 Build 164)  -->
  <g>
    <g id="green">
      <path d="M464.0788574,591.4206543v17.4536133h-9.6518555c-1.6569824,0-3.0002441-1.3432617-3.0002441-3.0002441v-17.4538574h9.6516113c1.6569824,0,3.0004883,1.3435059,3.0004883,3.0004883ZM418.2280273,579.6225586v17.4538574h9.6518555c1.6569824,0,3.0002441-1.3432617,3.0002441-3.0002441v-17.4538574h-9.6516113c-1.6572266,0-3.0004883,1.3432617-3.0004883,3.0002441ZM520.9296875,531.3574219v-12.6520996h-2.8249512v-18.3349609c0-20.1887207-16.3662109-36.5546875-36.5546875-36.5546875v12.6520996c13.2009277,0,23.9025879,10.7016602,23.9025879,23.9025879v18.3349609h-42.1220703v12.6520996h22.4733887v90.394043h9.6518555c1.6569824,0,3.0002441-1.3432617,3.0002441-3.0002441v-87.3937988h22.4736328ZM469.2045898,579.6225586v17.4538574h9.6518555c1.6569824,0,3.0004883-1.3432617,3.0004883-3.0002441v-17.4538574h-9.6518555c-1.6569824,0-3.0004883,1.3432617-3.0004883,3.0002441ZM478.8564453,539.390625h-9.6518555v17.4536133c0,1.6572266,1.3435059,3.0004883,3.0004883,3.0004883h9.6518555v-17.4538574c0-1.6569824-1.3435059-3.0002441-3.0004883-3.0002441ZM500.7668457,554.1887207v17.4538574h9.6516113c1.6572266,0,3.0004883-1.3432617,3.0004883-3.0004883v-17.4536133h-9.6518555c-1.6569824,0-3.0002441,1.3432617-3.0002441,3.0002441ZM456.8168945,570.2963867v-12.6523438c-13.2011719,0-23.9025879-10.701416-23.9025879-23.9023438h-12.6520996c0,11.9328613,5.7197266,22.527832,14.5651855,29.199707v58.8100586h9.6516113c1.6572266,0,3.0004883-1.3432617,3.0004883-3.0002441v-49.6630859c2.9812012.7854004,6.109375,1.208252,9.3374023,1.208252ZM499.8852539,513.1379395v-12.6520996c-13.2011719,0-23.9025879-10.7016602-23.9025879-23.9023438v-18.3352051h-12.6520996v18.3352051c0,20.1884766,16.3662109,36.5544434,36.5546875,36.5544434ZM456.8168945,531.3574219v-12.6520996c-13.2011719,0-23.9025879-10.701416-23.9025879-23.9025879,0-13.2006836,10.701416-23.9023438,23.9025879-23.9023438v-12.6520996c-20.1887207,0-36.5546875,16.3659668-36.5546875,36.5544434,0,20.1887207,16.3659668,36.5546875,36.5546875,36.5546875ZM513.4189453,576.6223145h-12.6520996c0,10.7907715,4.6875,20.4714355,12.128418,27.1555176,2.9709473,2.668457,7.6662598,1.8735352,9.6630859-1.5849609,1.5214844-2.635498.8791504-5.9033203-1.3664551-7.9570312-4.7739258-4.3647461-7.7729492-10.6340332-7.7729492-17.6135254ZM337.1821289,576.6223145v42.1289062c0,1.6569824-1.3432617,3.0002441-3.0004883,3.0002441h-9.6516113v-45.1291504h-44.0078125v-9.6516113c0-1.6572266,1.3435059-3.0004883,3.0004883-3.0004883h41.0073242v-11.3640137h-32.3029785v-9.6516113c0-1.6572266,1.3432617-3.0004883,3.0002441-3.0004883h29.3027344v-11.3637695h-37.9777832v-9.6518555c0-1.6572266,1.3435059-3.0004883,3.0004883-3.0004883h26.2287598l-19.9477539-19.9475098h-13.8842773v-9.6518555c0-1.6569824,1.3432617-3.0002441,3.0002441-3.0002441h29.447998v-25.0900879h9.6516113c1.6572266,0,3.0004883,1.3432617,3.0004883,3.0002441v22.0898438h7.6125488v-22.0898438c0-1.6569824,1.3432617-3.0002441,3.0002441-3.0002441h9.6518555v25.0900879h29.4477539c1.6572266,0,3.0004883,1.3432617,3.0004883,3.0002441v9.6518555h-13.8845215l-19.9475098,19.9475098h29.2290039v9.6518555c0,1.6569824-1.3432617,3.0004883-3.0002441,3.0004883h-34.9772949v11.3637695h32.3029785v9.6518555c0,1.6569824-1.3432617,3.0002441-3.0002441,3.0002441h-29.3027344v11.3640137h44.0075684v9.6518555c0,1.6569824-1.3432617,3.0002441-3.0002441,3.0002441h-41.0073242ZM313.7265625,495.9904785l17.1293945,17.1293945,17.1293945-17.1293945h-34.2587891ZM295.6240234,480.6582031h9.6516113v-17.4536133c0-1.6572266-1.3432617-3.0004883-3.0002441-3.0004883h-9.6518555v17.4536133c0,1.6572266,1.3432617,3.0004883,3.0004883,3.0004883ZM369.0883789,477.657959v-17.4538574h-9.6516113c-1.6569824,0-3.0002441,1.3432617-3.0002441,3.0004883v17.4536133h9.6516113c1.6569824,0,3.0002441-1.3432617,3.0002441-3.0002441ZM357.3076172,584.0957031h-12.6520996c0,20.1884766,16.3659668,36.5546875,36.5546875,36.5546875v-12.6520996c-13.2011719,0-23.9025879-10.7016602-23.9025879-23.9025879ZM280.5019531,607.998291v12.6520996c20.1884766,0,36.5546875-16.3662109,36.5546875-36.5546875h-12.6523438c0,13.2009277-10.701416,23.9025879-23.9023438,23.9025879ZM798.8574219,470.989502c0-1.6569824-1.3432617-3.0004883-3.0004883-3.0004883h-50.0056152v12.6520996h53.0061035v-9.6516113ZM741.2700195,528.4736328h38.0466309v56.7233887c-.0002441,13.2009277-10.7016602,23.9025879-23.9025879,23.9025879v12.6518555c20.1884766,0,36.5546875-16.3659668,36.5546875-36.5544434v-56.7233887h6.6132812c1.6572266,0,3.0004883-1.3432617,3.0004883-3.0002441v-9.6518555h-60.3125v12.6520996ZM700.9152832,482.1508789v12.6518555c20.1884766,0,36.5544434-16.3659668,36.5544434-36.5544434h-12.6518555c0,13.2009277-10.7016602,23.9025879-23.9025879,23.9025879ZM700.9152832,518.7053223v12.6520996c4.1867676,0,8.2050781-.7131348,11.9511719-2.0092773v92.4033203h9.6518555c1.6569824,0,3.0002441-1.3432617,3.0002441-3.0002441v-96.9135742c7.3422852-6.6860352,11.9511719-16.3220215,11.9511719-27.0349121h-12.6518555c0,13.2011719-10.7016602,23.9025879-23.9025879,23.9025879ZM875.2021484,609.0996094h23.1967773v9.6516113c0,1.6569824-1.3432617,3.0002441-3.0004883,3.0002441h-56.0444336v-9.6516113c0-1.6569824,1.3432617-3.0002441,3.0004883-3.0002441h20.1958008v-16.5600586h-18.4448242v-12.6520996h18.4448242v-16.5598145h-18.4448242v-50.831543c0-1.6572266,1.34375-3.0004883,3.0004883-3.0004883h15.4443359v-12.6518555h-18.4448242v-12.6523438h18.4448242v-9.8762207h-18.4448242v-9.6518555c0-1.6569824,1.3432617-3.0002441,3-3.0002441h46.5419922v9.6516113c0,1.6569824-1.3432617,3.0004883-3.0004883,3.0004883h-15.4448242v9.8762207h18.4453125v9.6518555c0,1.6569824-1.3432617,3.0004883-3.0004883,3.0004883h-15.4448242v12.6518555h18.4453125v50.831543c0,1.6572266-1.3432617,3.0004883-3.0004883,3.0004883h-15.4448242v16.5598145h18.4453125v9.6516113c0,1.6572266-1.3432617,3.0004883-3.0004883,3.0004883h-15.4448242v16.5600586ZM880.9951172,542.737793h-5.7929688v7.9377441h5.7929688v-7.9377441ZM875.2021484,522.1477051v7.9377441h5.7929688v-7.9377441h-5.7929688ZM856.7578125,530.0854492h5.7924805v-7.9377441h-5.7924805v7.9377441ZM862.550293,550.6755371v-7.9377441h-5.7924805v7.9377441h5.7924805ZM917.8613281,496.84375v-32.1804199c0-1.6569824-1.3432617-3.0002441-3-3.0002441h-9.6518555v35.1806641h-9.8818359v12.6518555h9.8818359v87.1489258h9.6518555c1.6567383,0,3-1.3435059,3-3.0004883v-84.1484375h9.4863281v75.701416c0,13.2009277-10.7011719,23.9025879-23.9023438,23.9025879v12.6518555c20.1884766,0,36.5546875-16.3659668,36.5546875-36.5544434v-88.3532715h-22.1386719ZM608.7966309,458.248291h-12.6535645c-.0314941,19.5004883-15.8466797,35.2995605-35.3547363,35.2995605v12.6523438c6.2451172,0,12.2053223-1.2053223,17.6779785-3.375v118.9262695h9.6518555c1.6572266,0,3.0004883-1.3432617,3.0004883-3.0002441v-123.3503418c10.7731934-8.7924805,17.6601562-22.1662598,17.6779785-37.1525879ZM661.4560547,505.8085938h-12.6538086c-.0268555,16.748291-11.7006836,30.7558594-27.3535156,34.3791504v-50.048584h-9.6516113c-1.6569824,0-3.0004883,1.3432617-3.0004883,3.0004883v92.057373c0,20.1884766,16.3662109,36.5544434,36.5546875,36.5544434h16.1047363v-12.6518555h-16.1047363c-13.2009277,0-23.9025879-10.7016602-23.9025879-23.9025879v-32.1130371c22.685791-3.8078613,39.9790039-23.513916,40.0073242-47.2753906ZM187.6298828,477.2263184h13.8291016l-4.7036133,4.7038574,8.9462891,8.9462891,13.6501465-13.6501465h9.3098145c1.6572266,0,3.0004883-1.3432617,3.0004883-3.0002441v-9.6518555h-30.8015137c0-3.4936523-2.8322754-6.3259277-6.3259277-6.3259277-3.4938965,0-6.3261719,2.8322754-6.3261719,6.3259277h-27.8007812c-1.6572266,0-3.0004883,1.3432617-3.0004883,3.0004883v9.6516113h12.3295898l31.7026367,31.7026367h-13.7902832l4.6647949-4.6647949-8.9462891-8.9462891-13.6113281,13.611084h-.0864258c-9.3986816,0-17.0178223,7.6191406-17.0178223,17.0178223v70.5007324c0,6.9875488-5.6645508,12.6520996-12.6520996,12.6520996v12.6520996c13.9750977,0,25.3041992-11.3288574,25.3041992-25.3041992v-69.9438477c0-2.71875,2.2038574-4.9226074,4.9226074-4.9226074h54.9597168c6.9875488,0,12.6520996-5.6645508,12.6520996-12.6520996h-18.5063477l-31.7023926-31.7026367ZM209.3117676,589.2744141h11.5500488c1.6572266,0,3.0004883-1.3432617,3.0004883-3.0004883v-9.6516113h-14.5505371v-19.8249512h14.5959473c.8286133,0,1.5002441-.671875,1.5002441-1.5002441v-9.6518555c0-.8283691-.6716309-1.5002441-1.5002441-1.5002441h-14.5959473v-12.9169922h-12.6520996v12.9169922h-8.7478027v-7.4384766h-9.6516113c-1.6572266,0-3.0004883,1.3432617-3.0004883,3.0004883v29.3789062h9.6518555c1.6569824,0,3.0002441-1.3432617,3.0002441-3.0002441v-9.2883301h8.7478027v19.8249512h-11.5500488c-1.6569824,0-3.0002441,1.3432617-3.0002441,3.0002441v9.6518555h14.550293v19.8251953h-25.5395508v9.6516113c0,1.6569824,1.3432617,3.0002441,3.0004883,3.0002441h57.7304688c1.6569824,0,3.0004883-1.3432617,3.0004883-3.0002441v-9.6516113h-25.5397949v-19.8251953Z" fill="#fff"/>
    </g>
  </g>
</svg>