<?xml version="1.0" encoding="UTF-8"?>
<svg xmlns="http://www.w3.org/2000/svg" version="1.1" viewBox="0 0 1080 1080">
  <!-- Generator: Adobe Illustrator 28.7.3, SVG Export Plug-In . SVG Version: 1.2.0 Build 164)  -->
  <g>
    <g id="wknd">
      <path d="M159.9733887,496.7880859c-.012207-.0029297-.0241699.0102539-.036377.0102539-.0776367-.043457-.078125-.0541992.036377-.0102539ZM165.6896973,596.2236328c-.010498-.074707-.0969238-.097168-.234375-.0810547.0759277.1142578.1564941.1474609.234375.0810547ZM146.3662109,558.0610352c-.0004883.0029297-.0019531.0087891-.0026855.0112305.0119629.0117188.010498.0048828.0026855-.0112305ZM205.3896484,517.8071289c.0437012-.0415039.0688477-.0771484.0576172-.1005859-.027832.0253906-.0424805.0634766-.0576172.1005859ZM223.4824219,576.2060547c.392334.5800781.3188477-2.3339844.3623047-5.1625977,1.0185547-2.7382812,1.1872559-6.8364258.8708496-12.8012695.5366211-2.2866211-.6123047-4.7431641.2419434-7.9970703-.387207-2.8798828.3977051-5.4194336.6931152-8.5493164.7089844-2.9243164.2441406-5.2412109.5605469-8.6826172.2373047-3.7519531,1.0070801-5.4331055.7946777-8.1323242.3085938-5.6069336,1.048584-9.8916016.7539062-12.8105469-.2414551-2.5117188,1.1447754-4.8037109.479248-5.1533203,1.326416-.6347656-12.6889648-.2749023-13.4328613,0-.5820312-.1557617.5603027,1.2724609.107666,4.1083984.5097656,2.8618164-.184082,6.4736328-.107666,9.9848633.814209,3.6210938-.3168945,7.0786133-.0449219,9.7573242-.2172852,1.7548828-.3740234,2.7285156-.4152832,3.3085938-.9223633-1.6118164-2.814209-4.7617188-4.2192383-7.6708984-2.7021484-4.4594727-5.0578613-7.8183594-4.7370605-8.5981445-.8334961.7954102-11.0898438,4.777832-11.2841797,4.6337891-.4072266.0493164,6.4799805,6.1264648,6.7927246,6.4291992-.215332.8647461-10.9868164-.3071289-12.5446777.3134766.5063477-.7675781,1.6801758-3.7763672,2.9050293-7.0761719,1.1540527-4.0561523,3.6904297-7.2470703,3.0983887-7.2709961.248291.2436523,4.7644043-.7539062,8.8347168-.4326172,4.6455078-.2661133,9.0556641-1.0986328,8.8344727-.4326172.092041.5126953-.7629395-14.1411133-.748291-13.8178711-.465332.34375-2.5915527.1948242-6.0058594.3618164-3.4870605.2016602-7.9074707.581543-12.7644043,1.2036133-5.2717285.1665039-9.7644043.5317383-13.1931152,1.1337891-3.286377.4580078-5.8085938.3569336-5.5771484.4316406-.2490234.3759766.0952148-2.4140625.6606445-2.3125-.1152344-.0517578-3.6499023-.8139648-7.2124023-2.0917969-3.3703613-.3066406-6.7966309-1.8266602-7.2485352-2.081543-.3637695.0112305-.6804199,1.5454102-1.5927734,3.6884766-.6589355,2.5014648-2.6025391,5.6582031-3.5324707,9.3916016-1.46875,3.8691406-2.9067383,7.6665039-4.7741699,11.8505859-1.8876953,4.4379883-2.9130859,8.7094727-4.8117676,12.4599609-1.4125977,3.3134766-2.6811523,7.2011719-3.7531738,9.3100586-.5695801,2.2216797-1.0908203,3.7480469-1.4084473,3.7802734-.7978516.3183594,6.0917969,10.3466797,6.302002,10.7817383.1245117-.5844727,1.4501953-5.4467773,2.2629395-5.7475586.5507812.4355469-.0844727,5.9736328,1.1057129,13.5224609.9443359,4.1987305.640625,8.0810547,1.2756348,12.4169922.6115723,4.4853516.2414551,8.7294922.7780762,12.6962891.4284668,8.1723633.8105469,13.3486328,1.1057129,13.5224609-.1755371.6005859,3.1257324-2.074707,6.3977051-4.1240234,2.2900391-2.3671875,5.3146973-4.105957,6.1633301-4.2050781-.3239746-.4868164-.5639648-2.4667969-.1445312-4.7001953-.0187988-2.6499023-.815918-6.6708984-1.1418457-11.9316406-.0268555-1.8154297-.2587891-4.9262695-.659668-7.3979492-.1733398-2.5498047-.6567383-4.9741211-.8105469-7.9238281-.671875-2.6206055-.4416504-5.0932617-.8522949-7.815918-.0754395-2.6518555-.1071777-4.6728516-.5021973-7.9008789-.5688477-4.6210938-.4304199-8.7270508-1.1640625-11.6816406-.7109375-2.8969727-.484375-4.859375-.3566895-5.0317383.0151367-.9536133,1.2033691-1.3369141,2.1213379-4.2084961,1.2475586-2.4746094,2.7072754-5.5629883,4.449707-8.7626953,1.4804688-3.1401367,2.9121094-6.2011719,4.3796387-9.0043945,1.7595215-2.9125977,1.5773926-3.9970703,2.1914062-3.9672852.3054199.3164062-.1159668,10.2958984,0,10.6796875-.1228027-.6416016,12.7558594-1.909668,12.5773926-1.1171875-.1513672-.027832-4.2519531,4.4526367-7.9396973,8.8164062-3.4055176,3.6831055-7.7443848,8.6621094-7.9396973,8.8164062-.8037109-1.1665039,1.8911133,2.6425781,2.6381836,7.2407227.0983887,2.1328125,2.7470703,7.0273438,2.6384277,7.2412109.388916-.6879883,2.2280273-.0317383,4.3745117-1.9174805,3.203125-1.112793,6.701416-2.387207,9.8630371-4.2475586,3.5400391-1.9404297,7.3793945-3.8564453,9.6669922-4.4248047,2.670166-.0214844,4.5334473-2.4550781,4.5705566-1.7407227.2746582-.3144531.6948242,11.8774414,1.371582,11.28125-.7490234-.9169922,10.5063477-5.3984375,10.0192871-4.4033203-.0419922.1118164,1.2363281,2.487793.1796875,4.8637695-.2080078,3.3334961-.2849121,6.3535156-.1796875,10.7709961.3234863,4.7270508-.4394531,8.2041016-.277832,11.015625-.0908203,2.2827148-.1091309,4.6889648.277832,4.6186523.0483398-.2114258,8.8554688,2.1313477,8.6762695,2.8964844ZM168.0773926,580.8432617c-.0212402-.019043-.041748-.0405273-.0656738-.0458984-.0356445.0185547,0,.0332031.0656738.0458984ZM187.6831055,544.7431641c.0129395.0063477.0498047.0151367.0686035.0214844-.020752-.0175781-.0432129-.0273438-.0686035-.0214844ZM204.5776367,554.2666016c-4.201416.4892578-7.3833008-.0585938-7.8049316-.4350586-.1218262.2578125,1.4833984-8.4536133,1.4067383-8.2675781-.0827637.8842773-9.4240723-.4443359-10.4277344-.7993164.53125.4550781-.3564453,8.3266602-.1313477,9.0683594-.5544434-.3432617-4.4909668.1616211-8.5566406-.7353516-4.7070312-.4921875-8.8532715-.7016602-8.6193848-.7841797-.4199219.5458984-.6369629,4.4985352-1.5383301,7.5517578-1.7954102,4.6748047-2.1889648,7.1020508-1.5383301,7.5512695-.7475586-.9980469,4.9013672-.1879883,10.6279297-1.3984375,5.7226562.668457,11.8469238-2.1484375,10.6279297-1.3984375.2785645-.5141602-1.057373,12.8393555-.956543,13.2661133-1.2700195.1220703-4.1633301.5317383-9.8195801,1.4550781-3.505127,1.3930664-9.0983887,1.6303711-9.7700195,1.5024414.4714355.4223633.2902832,4.0610352.6452637,8.2861328.0373535,4.300293.3557129,9.0830078.7114258,8.3325195-.3520508.4160156,4.9614258-.5180664,10.7705078-2.5292969,2.7770996-.7885742,6.6689453-1.7255859,9.7851562-2.5898438,3.3793945-1.0102539,6.7128906-1.6352539,10.217041-2.1074219,6.4938965-1.5834961,11.3210449-1.8422852,10.7702637-2.5292969-.0895996-.8530273,1.5273438-14.2709961.7490234-13.4013672.4604492-.4746094-12.9335938,1.5498047-13.5214844,2.1748047.2089844-.5693359-.8300781-11.090332-1.012207-11.0415039-.9584961-.7841797,4.1254883.1826172,7.5949707,1.1289062,3.6484375.8452148,7.4279785.5947266,7.5952148,1.128418.5737305.2104492.1240234-12.8486328,0-12.9936523-.105957.0874023-3.8212891-1.0688477-7.8049316-.4350586ZM244.7954102,572.0981445c.1308594-4.5854492-.2585449-7.7822266-.354248-13.112793.3742676-2.15625-.3303223-5.6679688-.2653809-7.7075195-.9052734-2.3662109-.8630371-5.203125-.5019531-7.5219727-.7043457-2.1054688.2180176-5.4707031-.4465332-7.9272461-.3505859-2.7729492-.8510742-4.5380859-.5148926-7.3266602.2578125-4.7207031-1.0119629-9.234375-.1601562-13.0883789-1.4975586-7.4458008.7392578-13.4350586-.5097656-12.8828125.0019531.8686523-3.2404785-2.0478516-6.9016113-2.5170898-4.0812988-.7436523-6.3869629-1.3701172-6.8103027-2.2509766.1662598.6591797.1931152,2.046875.0559082,3.6630859-.2307129,2.1152344.3166504,6.3012695.2995605,10.2480469.3684082,1.8652344.0144043,3.8339844-.0419922,6.730957.1445312,1.6616211.5234375,4.3276367.5229492,7.7197266.5732422,2.5898438.2766113,4.7700195.4707031,8.3012695.6745605,2.8369141.8444824,5.7387695.0319824,8.4384766.7663574,3.5917969.3339844,5.3154297.2265625,8.6206055-.8103027,3.4169922,1.1452637,5.0429688.2094727,8.1831055-.6625977,2.9448242.4484863,5.46875.2111816,7.6933594.9814453,2.0585938.1430664,4.8505859.3364258,6.6933594,1.0456543,4.9296875-.6635742,7.2832031.2575684,9.9316406.9084473,2.0078125-1.1962891,3.6694336.1894531,4.2460938.2753906.7358398-3.4406738.3310547-7.7070312-.5244141-4.5759277-1.3227539-6.4682617-.0209961-7.7070312-.5244141-1.4245605.1992188,2.2128906,2.515625,2.4777832,6.8261719,1.3686523,2.7612305,2.052002,7.4243164,2.4777832,6.8261719.1533203.6259766,6.1994629-.3925781,10.579834-.953125,4.9887695-.0605469,10.6777344-.5,10.579834-.9526367-.4443359-.855957-.3779297-4.1357422,1.751709-6.9746094.8151855-4.0932617,2.3842773-8.0546875,1.7519531-6.9746094.3286133-.4233398.7277832-6.3881836-.5097656-12.8828125ZM228.3305664,497.7626953c-.0273438-.1074219-.0571289-.2001953-.0915527-.2666016.0046387.0927734.0495605.1791992.0915527.2666016ZM309.3442383,534.953125c-.0041504.0048828-.0114746.0083008-.0158691.0131836.0107422.0444336.0168457.0463867.0158691-.0131836ZM359.8967285,514.815918c-.1137695,1.4711914-.3850098,3.418457-.703125,7.7768555-1.3166504,4.6074219,1.3310547,8.1796875-.7028809,7.7763672-.0620117-.4003906-6.333252-.2988281-6.9370117,0-1.4306641.6220703-.5014648,5.7802734-2.4262695,10.6191406.7697754,2.9736328-2.0878906,6.7729492-2.1420898,9.6601562-2.0983887,2.8256836-1.362793,6.7910156-2.3642578,10.0610352-1.5473633,6.4038086-2.9912109,11.434082-2.4262695,10.6191406-.2697754-.9521484,1.7834473,4.4838867,5.7045898,9.3955078,3.699707,4.1503906,5.0898438,9.1079102,5.7045898,9.3959961-.3652344-.2016602-10.7873535,7.2255859-10.9077148,8.6000977-.6887207.1733398-2.2275391-3.5200195-3.8288574-7.199707-1.6159668-3.3808594-4.1494141-7.0180664-3.8291016-7.2001953-.9355469-.5136719-3.9414062,1.9082031-7.0786133,7.5146484-3.4265137,4.3769531-7.6635742,7.7509766-7.0786133,7.5146484-.755127.7441406-10.1408691-6.8833008-9.845459-4.7900391.2575684-.4658203-8.2695312,6.0859375-7.7070312,6.3862305-1.3117676.6337891-3.7873535-1.7915039-7.2670898-3.8535156-1.604248-.6499023-8.2416992-5.2348633-7.2670898-3.8535156.9382324.4389648-1.1276855,1.1499023-3.9060059,1.4711914-3.2980957.4189453-6.8259277,1.3266602-9.4172363,2.6025391-4.9709473,1.065918-12.9106445,4.1591797-13.322998,4.0742188-.8041992,1.0444336-1.453125-3.1328125-3.3562012-6.2626953-1.5415039-3.9370117-3.784668-6.2470703-3.3562012-6.2626953-.2705078-.2006836,3.1318359-.7163086,8.9172363-1.0595703,5.1044922-.1152344,9.6022949-.6274414,8.9174805-1.059082.9213867.2026367-9.8828125-3.8457031-12.4770508-4.2797852,1.4951172-.4282227,4.9550781-3.809082,4.1079102-6.0708008-.8195801-.831543-7.2512207.2680664-8.2578125.440918-1.5126953-.1513672-1.763916-11.2260742-1.0996094-10.3505859,1.1054688.472168,7.090332,1.5527344,9.9775391-.3710938,1.9335938-.277832,6.3647461-.5361328,6.4265137-.2890625,1.2038574-.8271484,6.1853027-4.5952148,5.9152832-5.8388672-.333252.4448242-5.4760742-.1796875-9.109375-.1376953-5.1442871-1.5727539-9.3835449,1.5166016-8.9162598.1411133-.1306152.3061523.5698242-5.4550781,0-10.5146484.2888184-5.75.4714355-10.5351562,0-10.5141602.6520996-2.9501953,5.1899414-.6513672,10.9091797.7246094,5.7531738,1.2832031,11.9484863,1.4165039,10.9091797.7241211-.2768555.7929688.0400391-4.7558594-.6601562-3.5341797.0148926-.1469727-3.3071289-.4091797-7.5358887-.9599609-4.0998535-.3383789-6.7451172-2.4541016-7.3891602-1.7553711-.1755371-2.2514648-2.152832-8.578125-2.2446289-8.8530273.2583008.7763672-9.9538574.8422852-9.934082,0-1.1711426-.1069336,1.1352539-10.2211914.1030273-11.0683594,1.0595703.2553711,9.0302734,1.2626953,9.2617188,1.9560547-.2404785-.5844727.3344727-1.9956055-.4494629-7.1904297-.404541-2.9384766-.7727051-7.2329102-.4494629-7.190918-.3217773-.5029297,4.5290527-.4208984,8.4289551.6821289,3.302002,1.7680664,7.036377.9008789,8.1896973.6450195-1.0114746-.6826172-1.1481934-8.4990234-1.0961914-8.0390625.0175781-.3061523,11.7172852,1.6401367,13.1164551,1.7993164.595459-.3842773-.2258301,5.644043,0,6.2763672-1.5915527.2602539,4.1745605-.621582,7.0761719.7866211,2.0002441.8979492,6.4987793,1.4550781,7.0761719.7866211-.4831543.9516602.8664551,11.8286133,1.0488281,10.2783203,1.1972656,1.3310547,7.5026855-2.5991211,7.5512695-1.8881836.2250977.2109375,1.7104492,6.5917969,1.9230957,9.4223633.3464355-2.1743164,1.4819336-6.9648438,3.0480957-12.2675781,1.0529785-7.7036133,2.7958984-13.3652344,3.1047363-13.5043945,1.0166016.0498047,13.0224609,1.2797852,13.2131348,1.7617188-.4665527.4550781-2.4968262,3.8720703-3.3029785,11.1748047-2.1608887,6.0209961-3.9829102,10.9013672-3.3027344,11.1743164.5737305.0292969,2.2478027-.3276367,4.8210449-.730957,3.0437012-.4794922,8.0385742-.6484375,10.9108887-2.3105469,3.9348145-1.7006836,8.2529297-2.340332,10.9672852-2.1088867,2.2211914-.0698242,5.0131836-1.6386719,4.7648926-.9326172ZM279.2158203,515.0649414c-.4255371.4399414,1.7485352-5.9614258.7619629-4.4443359-1.7729492.0756836-5.6262207.34375-5.4536133.9438477-.3688965-.3789062,1.3139648,2.2963867,0,2.2026367-1.1936035.0185547,3.8654785,2.746582,4.6916504,1.2978516ZM280.1391602,528.5244141c-.6962891-.6938477-.0297852-3.9545898.4970703-5.1376953-1.1411133.6079102-4.1245117,1.6450195-4.7192383,1.2578125.111084.6542969-.4082031,2.4643555-.1147461,2.2016602,1.0827637-.9233398,3.3583984,1.0869141,4.3369141,1.6782227ZM290.9968262,536.6459961c-.5500488-.590332.6757812,2.3486328.5783691,3.3486328,1.5029297-.3833008,5.6616211-1.1123047,9.1657715-.4169922,4.3198242.2944336,7.7185059-.6230469,9.7438965-.6196289.2402344.2114258.4641113,1.9228516.5249023,3.6186523.4804688-1.984375,1.1745605-4.5209961,1.8671875-6.8671875,1.1223145-6.1914062,2.7995605-10.0810547,2.392334-10.4052734.3149414.215332-5.9838867-.7148438-7.0966797,0-.0253906.5405273,1.015625,9.0917969,1.1557617,9.6621094-.7233887.8183594-4.519043-.1313477-9.1577148.8330078-4.4680176.7026367-9.1401367,1.7563477-9.1738281.8466797ZM300.7441406,548.3168945c.2111816-.2602539-8.3537598.0712891-9.7072754.0439453.7924805.730957-1.3498535,3.6166992-.0400391,2.378418-.8664551.7285156,9.3647461,1.8803711,9.3278809,2.043457-.6723633-.3710938.9287109-4.0087891.4194336-4.4658203ZM290.9836426,514.6811523c.2893066-1.1967773,4.423584-.1240234,3.4267578.3837891.1630859.8881836,1.9477539-2.4223633,1.0898438-2.9760742-.4030762-1.3144531-3.6589355-2.4179688-4.503418-1.2583008-.0339355.0986328-.0566406,2.3686523-.0131836,3.8505859ZM289.8366699,526.8461914c-.7897949.9228516,3.7412109.7851562,4.5737305,0,.2421875.1137695-1.4523926-1.4672852-.4155273-2.2138672-1.1564941-.1479492-4.2414551-2.8149414-3.5290527-2.0551758-.6953125-.2944336-1.1369629,5.3520508-.6291504,4.269043ZM279.2158203,550.7392578c-.4589844-.4501953.1774902-2.7397461,0-2.4223633-.246582,1.6938477-7.3654785-1.4360352-8.0478516-1.4077148-.3383789-.3598633-.1879883,5.3583984-.8391113,5.4541016.0771484-.2597656,10.4233398-1.0556641,8.8869629-1.6240234ZM294.7397461,574.7421875c-.9763184,1.4438477-2.5153809-.6552734-7.4316406.4399414-2.3146973-1.2104492-8.1987305.7358398-7.4318848.4399414-.5463867-.8657227-3.583252,3.2724609-2.5859375,3.7617188.1960449-1.2568359,11.2539062,3.2373047,10.6584473,3.3945312.0661621.097168,7.1723633-7.5415039,6.7910156-8.0361328ZM324.5415039,557.3203125c-1.8518066-6.3466797-3.2641602-12.3974609-3.4506836-13.3476562-.0300293.0527344.2148438,4.4355469-1.0634766,7.2368164-1.1899414,3.6855469-2.2121582,6.2314453-1.5424805,6.9990234-1.7131348-1.7939453-7.2001953-8.9077148-8-8.9018555,1.7612305.6821289.7192383,10.9921875,0,10.6801758-.0195312.5058594-5.1789551-.6513672-10.7353516,0-4.7084961-.206543-11.2629395-1.3652344-10.7355957,0,1.8112793-.8129883-1.581543,6.0019531-2.861084,5.284668,1.873291,1.3432617,10.4692383.5976562,10.3994141.4370117.0512695.4277344,1.2866211-3.3793945.2802734-3.9604492.6306152-.2504883,13.3359375-.1137695,12.331543,0,.9440918.1523438.0656738,1.7431641-.8916016,2.699707,1.8032227-.0717773,4.9375.7597656,5.057373,1.5498047.6279297-1.1450195-1.0070801,8.5732422-1.8535156,7.862793-.7641602-1.0068359-4.8266602.3105469-5.8356934.4311523-.2094727.409668-2.3964844,3.9697266-3.4970703,6.2358398.012207,1.6987305-2.2280273,5.8095703-3.1281738,6.4550781,1.7263184.8266602,9.1738281,3.4150391,9.4882812,2.8427734,1.0969238.3603516,6.418457-5.6850586,9.7441406-9.5786133,5.7089844-5.1879883,10.4162598-8.375,9.7438965-9.5786133.7692871,1.3886719-2.4521484-6.6289062-3.4501953-13.3476562ZM338.3405762,530.3691406c-.4399414-.5947266-9.2927246-.3374023-8.2578125,0-.2607422-.2250977,1.152832,6.6074219,2.3122559,11.3413086.5361328,5.456543,2.2370605,10.3486328,2.3276367,11.1982422.1760254-1.6049805-.7763672-5.0966797,1.8012695-11.1982422,1.1762695-6.059082,2.0759277-11.5483398,1.8166504-11.3413086ZM318.9638672,558.4462891c-.170166-.0205078-.3017578-.0786133-.4064941-.1645508.3439941.3505859.510498.4511719.4064941.1645508ZM318.557373,558.2817383c-.0244141-.0249023-.0458984-.0458984-.0725098-.0732422.0227051.0258789.0458984.0512695.0725098.0732422ZM253.9951172,514.2358398c-.0314941-.0258789-.0651855-.0444336-.1030273-.0522461-.0410156.0092773,0,.0273438.1030273.0522461ZM260.2783203,582.4492188c.1147461.0786133.2944336.0771484.5151367.0136719-.2607422-.043457-.4404297-.0512695-.5151367-.0136719ZM265.9238281,534.953125c.1491699-.0288086.1831055-.3330078.1469727-.7958984-.1298828.1411133-.1853027.3867188-.1469727.7958984ZM434.9008789,518.9179688c-.0021973,0,.0036621-.0053711.0024414-.0058594-.0148926-.0048828-.0195312-.0048828-.0024414.0058594ZM466.5249023,501.3911133c.0366211.4375,1.1936035,13.3374023,1.0773926,13.4545898-.0141602-1.0024414-3.4536133-.1396484-8.2578125,0-3.1557617.0966797-5.8579102.4726562-7.4208984.2304688,1.7060547.9619141,5.1384277,4.2851562,4.9987793,4.9428711-.3813477.6015625-6.3564453,4.2070312-6.9765625,4.4033203-.4995117.6601562,7.9958496-1.090332,8.0170898-.4682617-.0441895-.0161133-.2172852,2.1318359.017334,5.4501953.7546387,3.2626953.1506348,8.1274414.6320801,11.75.1640625,4.0498047.4370117,8.3242188.4331055,11.7216797.1228027,3.440918.6789551,5.2167969.2080078,5.4301758-.5522461-1.2978516-2.8876953.6079102-6.1179199-.1420898-3.2255859-.0063477-8.4072266,1.331543-13.4589844-.3125-4.9001465-1.3452148-9.6088867-.4086914-13.4440918-.2509766-2.9335938-.2446289-5.4204102-.1416016-6.0534668-.1557617.0803223.7602539-.0131836,4.3085938-.1467285,4.9936523.546875-.4116211,1.5234375.7470703,6.3168945-.3388672,1.5900879-.7993164,4.2966309-.1464844,6.6411133-.4335938,2.3288574,1.0820312,4.5161133.3320312,7.5942383-.4931641,2.9594727.2475586,4.720459-.2529297,7.4533691-.3754883,1.8928223-.4584961,4.7290039-.1108398,6.7272949-.5375977,4.472168-.1191406,6.3676758-1.315918,6.4458008-.4150391.1162109.7080078.6293945,7.3461914.0700684,13.84375.0620117,7.175293-.6801758,13.2734375.0539551,13.8251953-.3278809.1054688-3.2824707,1.7695312-6.4370117,4.5791016-2.5593262,2.0097656-5.9887695,3.4423828-6.4526367,4.5595703.0893555-.6074219-3.5749512.5073242-7.046875.2202148-4.0512695.3520508-6.9934082.2241211-7.0466309.2202148-.442627.1030273-1.0749512-3.5048828-2.2573242-7.2670898-1.8395996-2.8081055-2.0119629-6.3540039-2.1604004-7.1401367.5974121.4995117,3.4545898-.0654297,7.6889648.9619141,4.6293945.777832,7.5402832,1.2832031,7.7861328,1.0888672.0048828-.7880859,1.4301758-8.5092773.6123047-9.6650391-.8100586.5317383-6.1655273-.9829102-13.4511719-.4116211-7.3530273-.6972656-13.4599609.0004883-13.4511719-.4116211-.4853516-.5307617.404541,5.9448242,1.7250977,13.6240234,1.5244141,7.6845703,2.0637207,13.0844727,1.7250977,13.6240234-.3237305.078125-3.8430176-.7944336-7.8168945,0-3.0239258-.1000977-6.6293945-.1914062-7.6711426-.1186523.6159668-.9360352.3762207-7.3623047-.7663574-11.1977539-.3920898-5.6694336-.2382812-10.324707-.6206055-11.3168945-1.0888672-.3173828-1.5424805,2.2675781-4.2895508,3.1943359-2.7731934,2.7426758-5.5681152,4.7841797-8.6455078,7.6430664-3.1169434,3.0644531-6.0419922,6.2944336-8.6374512,7.6875-1.8222656,1.2998047-4.0759277,2.2949219-4.6428223,2.7949219-1.1850586-.949707-4.9550781-3.6367188-6.9089355-5.8271484-3.9572754-2.878418-8.0239258-5.9492188-7.2541504-6.1821289.8154297.4477539,2.6801758.4453125,4.484375-2.152832,2.7983398-1.3017578,6.3566895-3.7304688,9.9941406-4.3984375,2.5180664-.6025391,7.4362793-2.8291016,9.9538574-4.503418,1.4980469-.5385742,2.6677246-1.2651367,3.4516602-1.7714844-1.7519531.2592773-4.9157715.1533203-8.7810059-.2758789-4.2060547.0244141-8.6298828.3759766-9.8537598,0-.5349121-1.3354492,2.7871094-6.0712891,2.4196777-13.4145508-.2268066-7.0419922,3.2504883-13.5419922,2.4194336-13.4140625.2614746-.4692383,6.9016113-.1445312,13.765625-1.2612305,6.546875-1.3525391,13.9790039-2.3330078,13.765625-1.2607422.4501953.2612305.0058594-4.1049805-.0195312-5.1962891-.7949219-.027832-3.1889648-.4624023-5.0212402-.2456055-3.0112305-.8701172-6.9592285,2.1049805-11.0895996,0-6.0078125.4052734-9.2043457-.9921875-11.0629883.0224609-4.4438477.2236328-4.2338867.0107422-5.059082-.0219727.0407715-.6943359.128418-10.8198242-.0080566-11.1210938-.2375488,1.9462891-1.3806152-3.3041992-5.175293-5.3945312-3.2766113-2.152832-5.201416-4.5522461-5.1750488-5.3950195,1.0727539-.5581055,1.333252-.7631836,2.793457-3.9487305,1.0583496-3.5405273,2.9377441-5.0883789,5.9350586-8.4902344,2.3522949-3.3320312,5.019043-5.6796875,6.0007324-8.5522461,1.6699219-1.246582,2.3461914-3.3012695,2.7277832-3.887207.9978027.5454102,10.1560059,6.4296875,9.1069336,7.1142578-.0898438-.296875-1.3430176,4.4526367-2.9216309,5.6328125,1.9089355-.3422852,7.3662109-.7983398,12.9291992-1.5102539,6.5654297.2993164,13.7099609-2.1655273,13.6364746-1.7739258.9018555-.9658203.8728027,11.03125,0,11.2304688.7138672.2255859,4.4377441-5.1679688,8.5859375-9.8222656,3.6787109-4.2207031,8.3674316-8.109375,8.723877-9.4179688,1.1901855,1.1865234,8.1118164,3.7539062,8.3432617,4.5961914-.5036621-.2397461-4.0349121,3.7768555-5.0097656,4.550293.6936035-.0517578,2.6621094.03125,4.8015137-.328125,2.8481445-.6054688,7.3664551-.6479492,10.7453613-.972168,4.2495117-.2524414,8.0505371-1.0024414,11.1467285-1.1333008,2.9313965-.5986328,5.0083008-.7880859,4.6552734-.2651367ZM396.8520508,527.269043c-1.7932129-.4770508-10.4189453-8.6577148-9.9553223-8.4609375-.0708008-.7211914,4.4526367-3.8227539,4.2937012-3.8530273-.2421875-.3955078-6.3356934-.6987305-7.125-1.090332-.3786621.7993164-2.0148926,3.84375-2.9313965,7.0639648-1.4799805,4.9204102-1.4589844,5.4389648-2.9882812,7.2568359-.826416.3930664,3.4162598-.5927734,9.5114746-.4985352,4.1062012.7573242,7.9482422-.0913086,9.1948242-.4179688ZM406.9355469,557.4545898c.1933594-.0126953-3.0424805-.7524414-7.0466309,0-4.0712891.2358398-6.3669434,1.0473633-7.0466309,0-1.3535156-.3305664-1.8222656,6.4052734-1.9460449,6.8725586.9914551.3793945,3.2246094-.5341797,8.0070801-.4272461,4.6733398.0786133,5.2470703.0668945,8.0322266-.4194336.1411133.5439453.2182617-5.9453125,0-6.0258789ZM423.6030273,525.71875c-.7329102-.7958984-3.4118652-2.3994141-5.7124023-4.4331055-2.4313965-1.8354492-5.4375-4.8969727-5.84375-4.7548828.2416992-.1958008,1.4589844-.4008789,1.6767578-1.4379883-.9731445.4462891-12.0444336-.6962891-11.8535156-.1376953-.9733887.4257812,5.8361816,5.5996094,5.9453125,5.8359375.8288574-.394043-4.6965332,5.215332-5.4072266,6.0234375.5727539-.3310547,4.704834-.6762695,11.2155762-.4882812,2.1381836-1.0527344,6.1428223-1.0732422,9.979248-.6074219ZM402.3398438,526.8920898c-.0275879.0341797-.0307617.0444336-.0048828.0258789-.005127-.0087891.0048828-.0175781.0048828-.0258789ZM440.8479004,540.2788086c-.984375.6103516-4.8225098-.1464844-9.605957,0-5.4191895,1.0722656-9.7189941-.6650391-9.6057129,0,.6928711-.1567383.0454102,4.8579102-.9433594,5.5727539,1.4030762-.1342773,5.8376465-.8500977,9.8500977-.6899414,5.4077148-.1459961,10.4328613-.4912109,10.3049316-.6987305.7087402-.3168945-.0109863-3.7773438,0-4.184082ZM445.8774414,524.6357422c.0681152-.3671875-10.5871582-5.5917969-10.9741211-5.7236328-.1193848-.0571289,4.6416016-3.2368164,4.8432617-4.0664062.1274414.262207-10.3068848.1210938-10.9736328.0185547.2226562.4960938-4.5473633,9.3466797-4.9729004,10.8769531.1018066.0126953.204834.0219727.3061523.0356445,4.3564453-1.1264648,6.5339355-2.4511719,10.482666-.5493164,7.255127-.1201172,10.9511719-.9179688,11.2885742-.5917969ZM379.8239746,600.5380859c.0869141.0102539-.0539551-.1220703-.3449707-.3554688-.2399902.2119141-.1838379.3364258.3449707.3554688ZM429.8371582,582.5585938c.019043.0493164.0532227.0908203.0969238.1269531-.0290527-.1542969-.0571289-.2124023-.0969238-.1269531ZM411.9992676,516.6069336c-.0058594-.0268555.0166016-.0512695.0476074-.0761719-.0285645.0097656-.0456543.0336914-.0476074.0761719ZM406.9355469,601.4960938c.0532227-.0073242.1013184-.0512695.145752-.1186523-.3215332.0224609-.4072266.0600586-.145752.1186523ZM457.9714355,524.0019531c.0117188-.0200195-.0080566-.03125-.0085449-.0478516.0039062.0014648.0068359.0131836.0085449.0478516ZM461.3349609,587.5136719c.0058594.0043945.0100098.015625.0158691.0195312.0336914-.0288086.0212402-.03125-.0158691-.0195312ZM431.7045898,494.5390625c-.0864258.1025391-.0258789.2412109.1379395.4042969.0524902-.1923828.0144043-.3305664-.1379395-.4042969ZM374.6831055,540.2792969c-.0029297,0-.0053711,0-.0080566-.0004883.0021973.0556641.005127.0507812.0080566.0004883ZM649.5107422,569.6333008c-.1652832.1381836.6738281-4.0107422,1.6008301-6.9702148,1.1481934-3.074707,1.3505859-6.8007812,1.6008301-6.9702148.1044922-.2817383-4.0273438,1.0932617-6.3432617,1.1171875-3.060791.6547852-8.3742676,1.9516602-13.4472656,2.3041992-4.998291.2631836-9.8273926,1.7983398-13.6955566,2.5043945-4.1376953.4272461-6.6333008,1.2329102-6.0944824.9169922-.4033203-.1513672-.828125,5.612793-.5280762,10.5527344-.7915039,5.1621094-1.609375,11.4951172-.5280762,10.5522461-.7592773-.9072266,2.2536621-1.5561523,5.9499512-2.2084961,4.2741699-2.3198242,7.6604004-4.2348633,12.7675781-4.7949219,4.6293945-2.6425781,8.6403809-1.7543945,12.892334-4.6577148,3.2233887.2382812,7.0983887-2.3173828,5.8251953-2.3461914ZM614.9702148,524.6044922c-.036377.0112305-.027832.0117188.0075684.0053711-.0026855-.003418-.005127-.0009766-.0075684-.0053711ZM615.1381836,524.5791016c-.0791016.015625-.130127.0253906-.1604004.0307617.0529785.0751953.105957.0634766.1604004-.0307617ZM628.6044922,524.3251953c6.7124023-.0571289,14.0969238-.1538086,13.6345215-.2797852.4619141-.0024414.3059082-10.5537109,1.5380859-11.0473633.2250977-.3134766-7.324707-.9033203-12.4455566-2.3076172-6.416748-1.1630859-12.3408203-3.0292969-12.4458008-2.3071289.4414062-.0717773-1.010498,3.5498047-1.9580078,8.1108398-.923584,2.5634766-1.3898926,7.3930664-1.7895508,8.0849609,1.171875-.2299805,7.5131836-1.4755859,13.4663086-.2539062ZM724.8847656,585.5751953c.6860352-.1894531-2.0717773-.7749023-3.6203613-2.4619141-2.5900879-1.3359375-5.3786621-3.5634766-7.9865723-5.3691406-3.9487305-2.965332-5.7478027-3.9541016-8.0229492-5.3823242-3.1953125-1.6484375-3.8466797-2.7387695-3.5837402-2.4487305-.2751465-.9189453-.611084-1.7744141-1.9160156-4.1362305-.0324707-2.7368164-2.6403809-5.6801758-4.065918-8.9194336-.9052734-3.8339844-3.2077637-5.9472656-4.237793-9.0732422-1.2380371-2.9331055-2.3840332-3.3505859-1.7441406-3.9819336-.190918-.715332.2229004-1.2241211,0-.8818359.3227539-.4267578.5187988-9.3881836.7766113-8.9116211-1.0437012-.5893555-4.5854492-.7329102-8.9147949-2.359375-5.326416-1.074707-8.4418945-1.8027344-8.9147949-2.3598633-.1616211-.8256836-.8591309,13.4379883-.232666,13.1918945.2668457-.0693359-.0895996.9736328-1.588623,4.3955078-1.0793457,2.1474609-3.4733887,5.9736328-3.2944336,9.8095703-1.6918945,3.7558594-1.2365723,7.0258789-3.333252,9.8037109-.7287598,2.0532227-1.6931152,3.3178711-1.5700684,4.234375-.2431641-.0693359-1.6889648,1.2758789-3.3037109,2.9145508-2.5456543,1.8886719-5.5302734,3.5322266-7.6479492,6.2792969-2.4538574,2.4985352-6.0175781,4.4443359-7.6950684,5.8789062-2.0524902,1.6704102-3.8869629,3.0463867-3.2768555,3.1479492.9328613-.25,3.5705566,3.7382812,6.0551758,6.6054688,4.0078125,3.9716797,5.6108398,6.8901367,6.0551758,6.605957.2272949-.0517578,5.0178223-4.5795898,10.510498-8.5703125,5.9111328-4.3608398,10.0187988-8.8623047,10.5102539-8.5708008-1.2783203-.5805664.5842285-6.0161133,2.8669434-10.9770508,2.2875977-4.8598633,2.0544434-10.8198242,2.8666992-10.9775391-.864502.3383789,4.4846191,6.5273438,6.8520508,11.3969727,3.0583496,5.9331055,6.675293,10.4731445,6.8522949,11.3969727-.0307617.1196289,5.7683105,3.2207031,10.4179688,8.1508789,5.354248,3.9580078,10.4501953,8.9082031,10.4182129,8.1508789.0429688.0273438,2.166748-4.2368164,5.3840332-8.2910156,2.3261719-4.0395508,6.3666992-8.2192383,5.3837891-8.2905273ZM657.2270508,552.2792969c.0661621-.1420898-.159668-.3378906-.5651855-.5761719-.1745605.4790039-.0700684.7294922.5651855.5761719ZM641.1525879,543.1416016c-.3933105-.8510742,4.244873,2.9448242,8.0373535,4.5693359,2.265625,1.7509766,6.0454102,3.1523438,7.4719238,3.9921875.28125-.7724609,1.2907715-2.1435547,1.9990234-3.4057617-.2629395-2.4829102,1.7346191-5.0717773,3.1333008-9.2958984,1.0910645-3.980957,2.4399414-6.4848633,3.0297852-9.3652344,1.2392578-2.659668.8156738-3.9052734,1.5375977-3.9125977-.3959961-.859375,2.8718262.5380859,5.7990723-.0244141,3.0212402.9013672,8.1318359.0996094,12.4150391.0942383,4.2092285-.0415039,8.8793945-.0927734,12.5541992-.0986328,3.4025879.159668,5.8325195.2319336,5.6599121.168457,1.6159668.2060547-1.7199707,4.3583984-2.8666992,9.159668-1.0212402,5.1293945-4.0891113,8.5405273-2.8666992,9.159668-.2089844-.2836914,9.3596191,7.4272461,10.5891113,8.5205078.1643066-.8798828,1.0917969-3.6582031,1.9650879-5.0375977.7900391-3.4111328,2.2043457-6.5786133,3.9348145-11.4604492,1.7587891-4.6499023,2.0129395-7.8730469,3.8535156-11.4233398,1.1162109-1.7978516,2.1586914-5.2685547,1.9272461-5.2016602-.0666504-.0273438-8.7944336-9.9365234-9.1247559-9.6586914.0849609.7851562-3.40625.4697266-6.4243164.5551758-1.3925781.6801758-4.2109375.3505859-6.4628906.7695312-2.7434082.4282227-5.4165039.9833984-7.4743652.769043-2.4570312.3295898-5.8674316-.3535156-7.4758301.6777344-3.1047363-.7392578-4.3063965-.1118164-6.5871582.5581055-3.0251465.0205078-5.2143555.3847656-6.298584.8574219.769043-.2246094,1.9372559-3.6367188,2.4592285-7.3764648.5834961-2.7602539,2.5847168-7.3540039,2.4592285-7.3764648.746582.0478516-13.3496094-2.9628906-13.6462402-2.4575195-.0810547.1005859-2.1645508,4.1030273-5.0810547,11.9892578-.4724121,3.4897461-3.546875,7.4990234-4.7180176,11.0371094-1.5861816,3.4858398-2.4279785,7.6020508-4.7180176,11.2285156-3.4350586,6.5522461-5.7944336,11.5195312-5.0808105,11.9887695ZM707.7646484,552.8300781c.0427246.0234375-.0058594-.0263672-.1191406-.1269531-.0546875.2924805-.0251465.3754883.1191406.1269531ZM769.3432617,499.1210938c-.0178223-.0517578-.0393066-.0898438-.0693359-.1020508-.1169434.0385742-.0944824.0688477.0693359.1020508ZM783.6201172,601.0288086c.0390625-.0371094.0283203-.1235352-.0163574-.2485352-.142334.0405273-.1591797.1152344.0163574.2485352ZM825.3286133,524.0297852c-1.6484375-2.2304688-3.4858398-4.6254883-8.0195312-6.8520508-2.6289062-2.1513672-6.0385742-4.4648438-8.2739258-6.9648438-4.9711914-5.1054688-9.9350586-7.1171875-8.7729492-7.4399414.6743164-.6899414-1.3505859-1.0253906-4.8417969-.5864258-2.4465332.1611328-7.5915527.159668-10.6523438-1.2905273-4.3103027-.4780273-8.5288086-.5322266-10.6572266-1.2119141-2.8181152-.3618164-4.3249512-.4736328-4.7675781-.5629883.2197266.6342773-.3991699,4.1386719.3139648,7.2646484.9780273,3.3164062.7333984,7.7045898.3833008,7.3671875.3374023.9521484,4.6818848-.1977539,8.1367188-.4233398,3.9294434-.0244141,8.3464355-.3022461,8.2241211-.4047852.8613281.065918,1.5595703,2.0439453,3.2849121,3.6855469,1.4377441,2.5478516,3.9804688,4.4243164,6.8986816,8.1767578,3.0942383,3.6108398,4.9101562,5.581543,7.1240234,8.3237305,2.0986328,2.7104492,3.4536133,3.4580078,3.1469727,3.5566406,1.0009766.027832-1.8276367.3813477-4.4389648-.0957031-2.2285156-.578125-7.1088867.1899414-11.0981445-.2397461-2.7692871-.4892578-5.0996094-.5009766-6.9870605-.1694336-3.479248-.0327148-4.9465332.0327148-7.3908691-.1904297-2.8994141.0444336-4.5395508-.4541016-7.4294434-.2133789-1.5119629.6889648-4.2023926.2700195-7.0478516-.0498047-4.7043457-.3261719-7.7043457.7871094-11.1276855-.1552734-.9460449-.9155273-2.026123-.9711914-2.8813477-.7924805.5322266-.828125.9763184-2.2875977,1.3334961-4.1645508,1.6889648-2.4467773,4.5170898-6.7158203,6.4956055-10.1640625,2.6328125-3.6313477,3.4138184-7.8037109,6.4333496-10.2724609,1.8806152-3.5083008,3.7844238-4.8764648,2.9240723-4.6689453-.4291992.4638672-11.2287598-2.7333984-11.9541016-2.2216797-.675293.4873047-4.157959,4.3227539-7.7358398,10.4296875-1.4697266,2.8554688-4.5581055,5.6123047-7.1936035,9.8803711-2.0361328,3.5527344-4.2277832,5.6108398-7.1730957,9.4882812-4.0070801,4.8286133-6.2475586,9.9506836-7.7358398,10.4296875.8007812.2680664,2.7814941,3.0649414,6.5253906,5.2470703,3.673584,2.6420898,6.4208984,5.4609375,6.5253906,5.2470703-.4482422.7167969,1.5561523-1.5517578,3.293457-6.3759766,1.2565918-.9912109,2.2504883-2.3945312,2.9023438-3.6445312.3427734,3.8237305,2.4057617,10.0166016,2.2443848,9.9853516.4526367-.1108398,3.4194336-.9824219,8.2463379-.4291992,3.623291-.9580078,7.293457-.7861328,8.246582-.4287109.5297852-.0522461-3.6447754,3.6020508-7.3654785,8.7104492-1.4177246,1.2133789-4.3859863,4.8276367-6.6188965,7.6357422-1.6450195,4.2871094-4.907959,4.6733398-7.0600586,8.5415039-3.7202148,5.8095703-8.2600098,9.1499023-7.3657227,8.7104492.2854004,1.0615234,4.0073242,4.5717773,6.9189453,7.831543,3.5029297,3.4130859,7.4052734,7.5844727,6.9187012,7.8320312,1.2194824.4570312,1.0109863-1.8022461,2.5737305-3.8564453,1.7614746-2.7714844,3.4450684-5.9414062,5.7370605-9.1508789.8283691-1.5849609,2.4221191-3.2817383,3.567627-5.652832,1.0327148-2.9077148,2.7722168-3.7939453,4.0388184-6.0961914,2.0654297-2.5063477,3.1176758-4.2382812,3.8056641-6.4345703,1.4853516-2.2797852,2.5654297-3.4082031,4.0219727-5.9731445,2.206543-3.4584961,5.0996094-6.1699219,6.1181641-9.2783203,1.520752-2.1943359,1.2446289-3.7617188,2.192627-3.7285156.8942871-.2636719,3.8308105-.8671875,9.0166016-.4692383,4.2956543-.2871094,9.798584-.8110352,9.0163574-.46875-.0771484-.637207-.7416992,2.0229492-.40625,5.809082.1010742,2.456543-.9262695,7.71875-.7753906,12.2021484-.1801758,4.6416016-.0288086,9.0380859-.2458496,12.0585938.019043,3.5771484.0393066,5.4716797-.8864746,5.9189453-.064209-.1435547-4.3134766-.1416016-8.7912598-1.0336914-3.8513184-.7041016-8.6325684-1.6503906-8.7419434-1.0673828-.2924805-.0976562,2.1660156,4.6948242,3.0593262,7.9448242.3430176,3.5351562,2.7109375,6.7661133,3.0429688,7.6962891.7658691-.21875,5.640625.6757812,9.5275879.2495117,4.0966797.6938477,8.8720703,1.4160156,9.5112305.0004883-.2553711.0239258,2.0844727-3.7446289,4.0673828-7.9038086,1.9145508-2.9384766,4.402832-7.7666016,4.0678711-7.9042969-.159668.3271484-.027832-4.8920898.3515625-11.4067383.2602539-2.7431641.4306641-6.1508789.512207-10.4619141-.5146484-3.5288086.2739258-6.5986328.1411133-10.7226562-.1401367-4.503418.7207031-8.5839844.8857422-10.4741211,2.0229492,2.4545898,7.9091797,8.6166992,8.2163086,7.9799805-.7104492-.2128906,3.0493164-4.706543,6.6083984-9.3334961,4.1000977-3.7924805,5.027832-8.9077148,6.6083984-9.3339844,1.1831055-1.8457031-4.2949219-2.4853516-8.7729492-7.4394531ZM844.9121094,516.7236328c-.0429688-.0166016-.0927734-.0712891-.1430664-.1318359-.1069336.0825195-.0766602.137207.1430664.1318359ZM939.8276367,550.9458008c.0102539.0043945.0200195-.0004883.0307617.0083008.199707-.0209961.1640625-.0214844-.0307617-.0083008ZM894.9794922,599.4165039c.128418-.2368164.1166992-.3588867.0029297-.4086914-.0234375.1831055-.027832.3237305-.0029297.4086914ZM939.7470703,550.9511719c.0356445-.0024414.0522461-.003418.0805664-.0053711-.0273438-.012207-.0541992-.0117188-.0805664.0053711ZM918.5644531,552.9111328c-3.5727539.9135742-7.5224609.706543-10.5390625.4892578-6.7592773.2456055-11.3857422,1.4492188-11.1416016.855957.909668.2954102-2.2744141-2.4697266-1.2436523-7.0195312-.3354492-4.8110352-.3969727-6.1118164-1.2436523-7.0200195.8666992.296875,2.480957-.097168,6.4970703.2631836,1.9853516-.2480469,3.6918945.5039062,6.7324219.309082,4.5605469-1.0961914,4.890625.1201172,7.7026367.3461914,2.7568359-.925293,3.7998047-.4018555,7.6538086.0009766,2.6464844.0107422,4.4594727-.6552734,6.7373047.6303711,2.8632812,1.4951172,5.8374023-.5029297,6.4331055.0732422-.6572266-1.2553711-.9643555-4.0927734-2.043457-7.9375-1.1694336-4.1337891-1.8955078-8.7177734-2.1518555-8.1508789-.7109375.4575195-2.097168-.1806641-6.0297852.4755859-3.0087891,1.1123047-9.1123047-.7543945-13.2666016,1.0463867-4.9213867,1.4248047-10.7597656.7841797-13.1293945,1.0532227-3.7592773.5649414-5.4443359.2280273-6.0268555.1645508.5249023-1.9536133,2.0253906-12.6420898,2.0234375-13.3847656.1479492.3061523,3.6088867-.7148438,5.6118164-.5595703,4.0195312-1.0146484,8.2568359-1.8085938,12.237793-.8989258,4.3549805-.1723633,8.8149414-1.0361328,12.2714844-1.0024414,3.0869141-.0634766,5.0439453-.4140625,5.5537109-.4892578-.4882812-.7363281-3.9287109-3.7368164-7.512207-9.9741211-3.7612305-4.7319336-7.3999023-9.637207-7.5844727-10.0249023-.4858398-.03125-4.7241211.7158203-11.5864258,2.3393555-3.7255859.5048828-6.8676758,1.4067383-11.9794922,2.418457-4.9116211-.6308594-9.0004883,2.3916016-13.6166992,2.6904297-1.5800781.9257812-3.9907227,1.1445312-6.7939453,1.0024414-2.9907227.6123047-5.2456055.1376953-6.9526367,1.4228516-3.5336914,1.1064453-8.3828125,2.6064453-11.8496094,2.6835938-7.4506836.7739258-10.684082,1.3710938-11.6342773,2.3222656-.0200195.1791992,2.1328125,8.4291992,3.0756836,9.5551758.4248047-.328125,3.1181641-1.1132812,5.5541992-.4501953,2.5893555.1499023,6.515625,1.0488281,11.6411133-.1166992,5.4682617.3291016,7.5722656-1.1118164,11.6098633-.7998047,2.7724609-.5219727,3.5888672-.5224609,5.4423828.1010742-.5639648.0776367-.9995117,3.6279297-1.5927734,7.7558594-.84375,4.0683594-1.2646484,7.5888672-1.5927734,7.7553711.2099609,1.0883789-.9916992.2695312-4.8881836-.0073242-3.3183594-1.7207031-6.6914062-.1308594-10.8769531-.4907227-4.5214844-.0810547-9.0581055-.0063477-10.8022461-.2124023-3.2128906.4121094-5.050293-.3408203-4.9624023-.2856445-.0009766.1181641,1.7763672,5.0512695,3.0483398,8.5991211,2.3012695,4.6494141.6972656,7.3730469,3.0483398,8.5991211-.7797852-1.0170898,1.4980469.4755859,4.4262695-.9658203,2.3305664-1.0097656,6.3779297-1.6889648,9.730957-1.6547852,5.2485352-.5620117,7.2548828-1.6748047,9.8574219-1.862793,3.2250977-1.703125,3.4179688-.5351562,4.2993164-.7573242-.3964844.0625,4.1982422,12.0322266,3.9589844,12.8344727-1.6396484-.5307617-4.824707-.0717773-12.0722656.2915039-3.5566406-.1259766-6.6113281-.8149414-11.2412109.0444336-3.6362305.4321289-7.9428711.3994141-11.1782227.496582-6.8286133.2890625-11.9985352-.7290039-12.0722656.2910156.4404297.9033203,2.675293,2.7998047,2.8496094,8.5810547-.1635742,3.3710938,5.4223633,8.6640625,2.8496094,8.581543-.2353516.3129883,3.6943359.7993164,11.4560547-1.6616211,3.5791016,1.4287109,5.4414062-.652832,10.1333008-1.2983398,3.3173828-.3530273,6.9101562-1.1435547,11.1425781-1.7875977,5.1787109-.2436523,9.6982422-.8452148,11.1645508-1.2802734-.6669922,1.328125-1.2827148,5.6425781-1.637207,9.9321289-1.309082,5.7817383-1.6552734,10.6625977-1.9291992,10.3129883.2910156.7324219-6.2011719.5009766-11.6318359-.0541992-4.3012695.3066406-11.1074219-.5292969-11.6313477-.0541992.0673828-.1791992,1.5087891,2.59375,3.6137695,7.7675781,1.7700195,2.8740234,3.3154297,7.703125,3.6142578,7.7675781.715332.3530273,1.7426758-1.128418,4.3618164-.4702148,1.7211914-.8930664,6.8789062-1.1425781,10.0776367-1.1035156,4.175293-1.112793,7.5410156-.6044922,9.9267578-1.081543,2.1777344-.2119141,4.09375-1.0849609,4.5151367-.9003906.1455078-1.1142578,1.1079102-3.9775391,1.8520508-7.871582.3813477-3.996582,1.6040039-8.2602539,1.8549805-8.2807617.3789062.4711914.0249023-4.831543.9477539-8.1591797.9975586-3.8129883,1.6635742-7.0102539,1.3227539-7.9116211.8798828.296875,3.1723633.4116211,5.4370117-.0180664,2.9868164.3032227,7.6733398.5800781,12.362793.7421875,4.546875.8227539,9.097168-.2114258,12.8833008.6259766,3.3222656,1.0180664,5.2026367,1.1601562,5.2910156.3457031.8100586.5625-.4975586-6.1420898,1.4619141-8.7631836.6171875-4.5722656.9287109-8.4941406,1.3510742-8.7661133-1.2016602.0844727-6.4985352.5161133-11.0302734.8588867-2.9775391-.487793-6.4873047,1.7851562-10.1523438,1.1010742ZM916.1542969,492.1743164c-.0610352-.0649414-.0673828-.0581055-.0478516-.0170898.0332031.0019531.0507812.0073242.0478516.0170898ZM931.203125,512.15625c.0068359.0097656.019043.0244141.0244141.0336914.1552734-.0541992.1425781-.0585938-.0244141-.0336914ZM936.152832,541.8398438c.0366211.0693359.0693359.1542969.1079102.2138672-.0131836-.0976562-.0546875-.1621094-.1079102-.2138672ZM601.4780273,476.5136719l.1474609,1.0927734,1.4694824-1.9277344-.1474609-1.0932617-1.4694824,1.9282227ZM611.6074219,485.6484375l-1.4697266,1.9282227-.4526367.309082c-.4575195.8852539-.7902832,1.6313477-.996582,2.234375-.2075195.6054688-.2436523,1.3925781-.112793,2.3618164.2185059,1.6191406-.1489258,4.387207-1.1035156,8.3046875-.9545898,3.9169922-2.2241211,8.3930664-3.8103027,13.425293-1.5864258,5.03125-3.3762207,10.3823242-5.3703613,16.0439453-1.9970703,5.6655273-3.9423828,11.0771484-5.8408203,16.2329102-1.8986816,5.1577148-3.6269531,9.7368164-5.1894531,13.734375-1.5600586,4.0004883-2.6708984,6.9086914-3.331543,8.7275391-.6713867,1.7392578-1.2412109,3.1538086-1.7119141,4.2475586-.4709473,1.09375-.9455566,2.0009766-1.4233398,2.7236328-.5700684,1.8911133-1.2626953,4.0844727-2.0766602,6.5820312-.8186035,2.5-1.8212891,5.4350586-3.0134277,8.8071289-.1401367.1860352-.2109375.4204102-.2133789.7084961-.0021973.2915039-.0566406.6474609-.1628418,1.0737305-.109375.4262695-.2756348.8608398-.5036621,1.3032227-.2297363.4428711-.6447754.8706055-1.2495117,1.2797852-.9040527.6166992-2.029541,1.4282227-3.3771973,2.4335938s-2.7580566,1.9995117-4.2314453,2.9804688c-1.4729004.9824219-2.9616699,1.8613281-4.4624023,2.6391602-1.5002441.7797852-2.8994141,1.2563477-4.1921387,1.4306641-1.4567871.1967773-2.6025391-.0585938-3.4411621-.7709961-4.7578125-4.1333008-8.9782715-8.5478516-12.6591797-13.2402344-3.6811523-4.6938477-6.9655762-9.5004883-9.8525391-14.4243164-2.8884277-4.9228516-5.4047852-9.8339844-7.5493164-14.7333984-2.1430664-4.8999023-4.0112305-9.590332-5.6044922-14.0698242-.2700195.449707-.4819336,1.0126953-.6367188,1.6914062-3.0876465,8.2431641-6.0683594,16.0786133-8.9350586,23.5083008-2.8703613,7.4282227-5.4055176,13.9697266-7.6081543,19.6196289-2.5563965,6.6899414-4.9831543,12.8232422-7.276123,18.402832-.7851562,1.5083008-1.5410156,3.2358398-2.2648926,5.1875-.7255859,1.949707-1.4645996,3.8007812-2.2175293,5.5493164-.7514648,1.7480469-1.5200195,3.2329102-2.3017578,4.449707-.784668,1.2167969-1.581543,1.8818359-2.3884277,1.9907227-.6464844.0869141-1.0202637-.2329102-1.1188965-.9619141-.2182617-1.6191406-.1499023-2.8027344.2009277-3.5478516.3522949-.7470703.7858887-1.6503906,1.3029785-2.7089844-.3623047.3793945-.7758789.6601562-1.244873.8476562-.4692383.1870117-.9465332.3129883-1.4306641.378418-1.6174316.2182617-2.9680176-.0117188-4.0466309-.6894531-1.0803223-.6757812-1.7353516-1.8657227-1.9643555-3.5644531-.1967773-1.4570312.2036133-3.0737305,1.1982422-4.8564453-.1499023.1030273-.4272461.1796875-.833252.2348633-.8898926.1201172-1.6989746-.0786133-2.4287109-.5981445-.7282715-.5205078-1.2141113-1.668457-1.4543457-3.4482422-.2509766-1.8598633-.0668945-4.4790039.546875-7.8574219.9641113-5.0727539,1.7385254-9.0883789,2.3273926-12.0517578.5876465-2.9614258,1.1628418-5.5722656,1.7229004-7.8305664s1.2290039-4.4702148,2.0085449-6.6342773c.776123-2.1635742,1.8210449-4.9599609,3.1289062-8.3911133,1.3081055-3.4306641,2.9541016-7.8745117,4.9345703-13.3305664,1.9821777-5.4570312,4.4846191-12.5478516,7.5070801-21.2749023.1779785-.5185547.5300293-1.5732422,1.0551758-3.1704102.5258789-1.59375,1.140625-3.4462891,1.8439941-5.5615234.7041016-2.1108398,1.4541016-4.3339844,2.2507324-6.6655273.7980957-2.331543,1.559082-4.4731445,2.284668-6.4248047.723877-1.9516602,1.3881836-3.5854492,1.9941406-4.902832.6044922-1.3164062,1.0239258-2.03125,1.2548828-2.1450195.0905762.0703125.1772461.1000977.2583008.0888672,1.1164551-.8930664,2.5632324-1.4584961,4.3430176-1.6987305.8071289-.1088867,2.3129883.0581055,4.5163574.5029297,2.199707.4443359,4.5041504,1.0410156,6.911377,1.784668,2.4057617.746582,4.6159668,1.5610352,6.6313477,2.4418945,2.0124512.8823242,3.2756348,1.7011719,3.7905273,2.453125,2.4489746,4.1181641,4.6799316,7.8320312,6.6928711,11.1435547,2.0109863,3.3105469,3.9438477,6.6542969,5.8012695,10.0268555,1.8547363,3.3759766,3.7023926,6.9960938,5.5427246,10.8666992,1.840332,3.8710938,3.7731934,8.4287109,5.7988281,13.671875.8652344-1.515625,2.1057129-3.9287109,3.7182617-7.2353516,1.6123047-3.3066406,3.8269043-7.9477539,6.6459961-13.9306641-.0107422-.0795898.0170898-.1660156.0888672-.2602539l10.840332-31.3618164,7.4741211-21.5180664c.3061523-.7822266.6428223-1.4858398,1.0126953-2.112793.3671875-.625.6325684-.9501953.7949219-.972168.0795898-.0107422.1274414.0239258.1381836.1054688.0437012.3227539-.112793,1.0024414-.4672852,2.0390625-.838623,2.3374023-1.5429688,4.2861328-2.1132812,5.8447266-.5732422,1.5605469-1.1501465,3.0800781-1.7329102,4.5581055-.5839844,1.480957-1.189209,3.0854492-1.8203125,4.8173828-.6308594,1.7338867-1.4260254,3.9414062-2.3806152,6.621582.0795898-.0102539.1259766.0263672.1367188.105957.0217285.1621094-.0368652.4990234-.1711426,1.0117188-.1374512.5131836-.3256836,1.1152344-.5600586,1.8051758-1.027832,2.7749023-1.973877,5.5166016-2.8432617,8.2285156-.8691406,2.7119141-1.7355957,5.4448242-2.5996094,8.1972656l3.8046875-8.4208984c3.5612793-9.6235352,6.8757324-18.6367188,9.9418945-27.0405273,3.0661621-8.4023438,5.831543-15.9838867,8.2978516-22.7407227.4125977-1.2084961.8623047-1.8461914,1.3476562-1.9116211.0908203.0703125.1437988.1459961.154541.2255859.0327148.2416992-.1289062.8823242-.4819336,1.918457l-.9035645,2.46875c.0109863.0825195-.1628418.6206055-.5229492,1.6147461-.3598633.9980469-.807373,2.2524414-1.3457031,3.7651367-.536377,1.5141602-1.1181641,3.1586914-1.7438965,4.9301758-.6254883,1.7744141-1.2055664,3.418457-1.7438965,4.9311523-.536377,1.5146484-.9812012,2.7880859-1.3359375,3.8251953-.3544922,1.034668-.5268555,1.5957031-.5161133,1.675293.7885742-2.0839844,1.3518066-3.559082,1.689209-4.4282227.3342285-.8686523.5424805-1.3100586.6237793-1.3212891.0327148.2436523-.0324707.6660156-.1999512,1.2641602l2.4348145-5.765625c.2719727-1.0253906.8081055-2.3945312,1.6069336-4.1079102.7988281-1.715332,1.3757324-3.0893555,1.7302246-4.1259766-.0656738-.4858398.0908203-.8344727.4746094-1.0532227.3828125-.215332.7473145-.5522461,1.0986328-1.0131836l.0163574.1220703c.0549316.4057617-.2272949,1.5141602-.8474121,3.3271484-.6201172,1.8134766-1.4724121,4.050293-2.5541992,6.706543-1.0830078,2.6591797-2.3088379,5.6459961-3.6726074,8.9584961-1.3647461,3.3164062-2.7595215,6.7172852-4.1826172,10.2016602-.557373,1.972168-1.0361328,3.6206055-1.4321289,4.9506836-.3972168,1.3320312-.5844727,2.0766602-.5627441,2.2373047l-.1765137.5180664.0166016.1220703c1.1525879-3.0380859,2.2248535-5.7768555,3.2150879-8.2172852.869873-2.0952148,1.6945801-4.0585938,2.4787598-5.894043.7807617-1.8349609,1.3117676-2.9370117,1.5913086-3.3037109,1.5527344-3.75,3.0668945-7.3325195,4.5427246-10.7446289,1.4743652-3.4121094,2.7963867-6.4316406,3.9665527-9.0600586,1.1679688-2.6293945,2.1430664-4.7158203,2.9233398-6.2626953.7802734-1.5458984,1.2495117-2.3320312,1.4121094-2.3535156l.121582-.0166016-15.2209473,40.1083984.0163574.1201172c1.1186523-2.7021484,2.0942383-5.0795898,2.9304199-7.1289062.8352051-2.0454102,1.7866211-4.2954102,2.8579102-6.7485352,1.0686035-2.4477539,2.0817871-4.7060547,3.0397949-6.7719727.9567871-2.0634766,1.8112793-3.8061523,2.5668945-5.2275391.7563477-1.418457,1.2956543-2.1508789,1.6206055-2.1948242l.0488281.3637695c.2561035-.5288086.3530273-1.0366211.2875977-1.5219727l1.4694824-1.9282227c.0983887.7294922-.0561523,1.4101562-.4655762,2.0405273l-1.0493164,1.3769531c-.1186523.3466797-.3483887,1.2426758-.6875,2.6875-.3417969,1.4482422-.7348633,3.1069336-1.1818848,4.9780273-.4482422,1.8730469-.8781738,3.7231445-1.2900391,5.5483398-.4130859,1.8286133-.7492676,3.2944336-1.0119629,4.3994141l1.2329102-2.7607422,2.027832-2.3740234-.840332,1.1010742-.918457,2.3476562-1.4692383,1.9282227c-.2265625.7729492-.3161621,1.3208008-.2727051,1.644043.0219727.1621094.1123047.2314453.2763672.2089844.402832-.0541992.9467773-.7646484,1.626709-2.1342773.6801758-1.3686523,1.3857422-2.8427734,2.119873-4.425293.7338867-1.5820312,1.4006348-3.0498047,2.0012207-4.4091797.597168-1.3569336.9770508-2.0463867,1.1411133-2.0683594.1606445-.0219727.3625488.2597656.6083984.84375.2426758.5854492.4084473,1.2016602.4956055,1.8476562.0766602.5668945.0773926,1.1855469.0039062,1.8535156.559082-.7338867,1.1809082-1.4560547,1.8686523-2.1669922.6862793-.7114258,1.324707-1.3100586,1.9194336-1.8037109.234375-.6899414.4287109-1.3955078.5793457-2.1171875.1494141-.7177734.3825684-1.4287109.6992188-2.1333008l1.4694824-1.9277344.2436523-.0327148-.5253906.6889648c-.296875.8637695-.5461426,1.762207-.7475586,2.6958008-.2043457.9350586-.5039062,1.7558594-.9018555,2.4697266.3215332-.043457.5073242.0966797.5507812.4179688.0878906.6499023-.3552246,2.1083984-1.3251953,4.3808594-.9697266,2.2739258-2.807373,5.8969727-5.5124512,10.8740234.5651855-.0761719,1.1918945-.4682617,1.8796387-1.1796875.6865234-.7094727,1.3422852-1.4975586,1.9660645-2.3652344.6240234-.8662109,1.157959-1.6396484,1.6022949-2.3164062.4443359-.6787109.7880859-1.0341797,1.0302734-1.0668945.1606445-.0214844.2583008.0893555.2912598.3330078.043457.3232422-.1960449.828125-.7214355,1.5175781-.5253906.6879883-.8371582,1.5766602-.9375,2.6582031l1.871582-2.5991211,1.0112305-.7548828ZM592.1015625,497.671875c-.184082-.140625-.418457.0976562-.7058105.7119141-.2873535.6157227-.5654297,1.3115234-.8308105,2.0898438-.265625.7768555-.5476074,1.8862305-.8476562,3.3256836l.9511719-2.1044922c.3173828-.7006836.6171875-1.3813477.8994141-2.0361328.2817383-.65625.4589844-1.3168945.5336914-1.9868164ZM596.8752441,487.2666016l-1.3967285,1.5473633c-.0800781,1.2460938-.2207031,2.4819336-.4265137,3.7021484-.2067871,1.2236328-.3034668,2.4931641-.2897949,3.8076172l1.4697266-1.9277344c-.0031738-1.2348633.0822754-2.4404297.2524414-3.6176758.1704102-1.175293.302002-2.3457031.3908691-3.5117188ZM600.5556641,501.7197266l-1.1550293,1.515625c-.420166.5493164-.7807617.9287109-1.0822754,1.1328125l-.6982422,3.0610352c.0688477-.0917969.2363281-.3823242.4995117-.8710938.2631836-.4868164.5419922-1.019043.8344727-1.5961914.2946777-.5737305.5847168-1.168457.8720703-1.7841797.2875977-.6142578.5310059-1.1020508.7294922-1.4580078ZM601.480957,498.5063477l-1.0493164,1.3764648c.1606445-.0214844.2954102-.1010742.3994141-.2387695.1052246-.1386719.2275391-.2973633.3679199-.4829102-.0107422-.0795898.0527344-.2109375.1928711-.3964844l.0891113-.2583008ZM603.9870605,492.3603516c-.1325684.8432617-.3327637,1.6523438-.5983887,2.4287109-.265625.7768555-.5075684,1.5932617-.7202148,2.4438477l-.9438477,1.2402344c.1608887-.0214844.3696289-.0068359.6223145.0400391.2546387.0483398.4594727.0605469.6235352.0385742.402832-.0546875.6193848-.2871094.645752-.7041016l.3708496-5.4873047ZM607.9890137,469.8291016l3.0258789-10.5400391-4.7409668,10.6474609.2456055,1.8203125,1.4694824-1.9277344ZM598.5598145,462.2050781l3.0241699-10.5400391-4.7392578,10.6474609.2456055,1.8203125,1.4694824-1.9277344Z" fill="#fff"/>
    </g>
  </g>
</svg>