<?xml version="1.0" encoding="UTF-8"?>
<svg xmlns="http://www.w3.org/2000/svg" version="1.1" viewBox="0 0 1080 1080">
  <!-- Generator: Adobe Illustrator 28.7.3, SVG Export Plug-In . SVG Version: 1.2.0 Build 164)  -->
  <g>
    <g id="debt">
      <path d="M474.3710327,631.6743164h26.352417l-26.352417,26.3525391h-113.1172485v-26.3525391h56.5585938v-87.3647461h-34.9021606v-26.3525391h34.9021606v-32.9130859h-25.8568115l-4.9129028,18.0141602-21.5368042-21.1865234,16.3478394-59.9414062,25.4239502,6.9335938-8.1347656,29.8276367h18.6694946v-35.7797852h26.352417v35.7797852h38.8462524v26.3525391h-38.8462524v32.9130859h34.9022217v26.3525391h-34.9022217v87.3647461h30.2062378ZM830.607666,531.9619141v-58.9897461h-18.6083984v158.7021484h102.7359619v26.3525391h-102.7359619l-26.352417-26.3525391v-158.7021484h-10.5043945v-26.3525391h10.5043945v-24.6894531h26.352417v24.6894531h18.6083984v-24.6894531h26.352417v24.6894531h21.7730103v-24.6894531h26.352417v24.6894531h15.9144897v26.3525391h-15.9144897v58.9897461l-26.352417,26.3525391h-48.1254272v-26.3525391ZM856.960083,531.9619141h21.7730103v-58.9897461h-21.7730103v58.9897461ZM242.569458,519.8447266v-95.9541016h-26.352417v95.9541016c0,47.6904297-22.397583,90.1230469-57.217041,117.4433594l16.2489014,20.7387695c23.7271118-18.6166992,42.5023804-43.2231445,54.1443481-71.515625,11.6419678,28.2924805,30.4172363,52.8989258,54.1444092,71.515625l16.2489014-20.7387695c-34.819519-27.3203125-57.2171021-69.7529297-57.2171021-117.4433594ZM610.9559326,428.0029297l-20.1765137-6.0727539-28.5887451,94.9829102,4.0264893,59.7285156,12.6317139-41.9672852v123.3955078h21.0706177v-177.4360352h-4.8049927l15.8414307-52.6308594ZM669.8618164,479.9853516h34.3074341v-14.0263672h-34.3074341v-6.4619141h40.3081055v-21.0703125h-40.3081055v-16.496582h-21.0706177v16.496582h-40.3080444v21.0703125h40.3080444v6.4619141h-34.3074341v14.0263672h34.3074341v6.4619141h-43.8135986v21.0703125h108.6976318v-21.0703125h-43.8134155v-6.4619141ZM690.9066162,622.8984375l13.6837769,35.1713867h-22.6090698l-13.6837769-35.1713867h-17.9422607l-13.6837769,35.1713867h-22.6090698l13.6837769-35.1713867h-13.6835327v-108.7597656h90.5274658v108.7597656h-13.6835327ZM683.5197754,588.972168h-48.3864746v12.8554688h48.3864746v-12.8554688ZM683.5197754,562.0908203h-48.3864746v12.8554688h48.3864746v-12.8554688ZM683.5197754,535.2094727h-48.3864746v12.8554688h48.3864746v-12.8554688Z" fill="#fff"/>
    </g>
  </g>
</svg>