<?xml version="1.0" encoding="UTF-8"?>
<svg id="iconofbetrayal" xmlns="http://www.w3.org/2000/svg" version="1.1" viewBox="0 0 1080 1080">
  <!-- Generator: Adobe Illustrator 29.2.1, SVG Export Plug-In . SVG Version: 2.1.0 Build 116)  -->
  <path d="M620.6101685,541.7714844c-1.0049438.2529297-1.9133301.6289062-2.7252197,1.128418-.8153076.5024414-1.2211914,1.3803711-1.2211914,2.6318359v40.0356445c0,.7519531-.7221069,2.2563477-2.1628418,4.512207-1.4407959,2.2558594-3.2608643,4.9213867-5.4502563,7.9892578-2.1928711,3.0712891-4.6052856,6.2954102-7.2372437,9.6791992-2.632019,3.3842773-5.1676636,6.4853516-7.6133423,9.3037109-2.4421997,2.8217773-4.5750732,5.1708984-6.3886108,7.0507812-1.8200684,1.8798828-2.9780273,2.8818359-3.4771118,3.0083008l-.3760986-.1899414c-.3760376-.878418-1.194458-2.5351562-2.4456787-4.980957-1.2544556-2.4423828-2.5687256-5.0112305-3.9464111-7.706543-1.3807373-2.6918945-2.6019897-5.1376953-3.666687-7.3300781-1.0648804-2.1899414-1.597229-3.4775391-1.597229-3.8535156,0-.7519531,1.1279297-1.440918,3.3840332-2.0664062,2.2559814-.6254883,4.7615967-1.2841797,7.5200806-1.9765625,2.7550049-.6850586,5.2606812-1.4072266,7.5166016-2.1591797,2.2561035-.7519531,3.3840942-1.5673828,3.3840942-2.4458008v-53.9448242c0-1.3774414-1.1279907-2.0961914-3.3840942-2.1625977-2.2559204-.0600586-4.6983032,0-7.3303223.1899414-2.631958.1860352-5.0743408.3125-7.3304443.3754883-2.2559204.0634766-3.3839111-.46875-3.3839111-1.5966797,0-.3764648.2163086-.6259766.6588745-.7524414.4358521-.1230469.7186279-.2495117.8451538-.3759766,2.5054321-.6254883,5.1973877-.7817383,8.0823975-.472168,2.8815308.315918,5.5733032.472168,8.0822144.472168.4990845,0,1.2844238-.6884766,2.3491821-2.0693359,1.0648804-1.3779297,2.1628418-2.9750977,3.2908325-4.7915039,1.1281128-1.8168945,2.1895752-3.5405273,3.194458-5.1708984,1.0014648-1.6274414,1.6936035-2.7553711,2.0696411-3.3808594l.9384155-.3759766c.874939.2495117,2.4421997,1.2509766,4.6983032,3.0043945,2.2559204,1.7573242,4.668335,3.6669922,7.2370605,5.7333984,2.5689087,2.0698242,4.8881226,4.105957,6.9544678,6.109375,2.0696411,2.0063477,3.350769,3.3837891,3.8531494,4.1357422-.1264648.7519531-.6288452,1.2880859-1.5039673,1.597168-.878418.3164062-1.8168335.5957031-2.8182983.8452148ZM587.6218872,481.9042969c2.4421997,3.949707,5.0111084,7.3969727,7.7063599,10.3383789,2.6951904,2.9477539,4.9811401,4.4189453,6.8612061,4.4189453,3.3838501,0,6.2321167-1.284668,8.5515137-3.8535156,2.3191528-2.5688477,3.4771118-5.4799805,3.4771118-8.7407227,0-3.8833008-1.1279907-7.3608398-3.3806152-10.4316406-2.2561035-3.0683594-5.0478516-5.6069336-8.3652344-7.6132812-3.3240967-2.003418-6.9544067-3.5405273-10.9041138-4.6054688-3.946228-1.0610352-7.6098633-1.597168-10.9938965-1.597168-1.1279907,0-1.6936035.6289062-1.6936035,1.8803711,0,1.7568359.8484497,4.5751953,2.5387573,8.4580078,1.6904907,3.8867188,3.7601318,7.7998047,6.2025146,11.7460938ZM744.1981201,488.0131836c-1.8168335-1.6269531-3.8532104-3.3505859-6.1091309-5.1674805-2.2561035-1.8164062-4.4155273-3.5068359-6.4853516-5.0742188-2.0663452-1.5673828-3.3540649-2.4121094-3.8531494-2.5390625h-.1862793l-1.1279907.565918c-.5023804,1.0014648-1.2544556,2.2861328-2.2561035,3.8530273-1.0047607,1.5673828-2.1328735,3.1645508-3.3839111,4.7915039-1.2544556,1.6308594-2.5688477,3.0083008-3.9464111,4.1362305-1.3807983,1.1279297-2.631958,1.6904297-3.7599487,1.6904297h-17.8583374c-.2529907,0-.5623779-.0932617-.9384155-.2832031-.3760376-.1860352-.5656128-.4023438-.5656128-.6552734,0-1.753418,1.3175049-4.0097656,3.949707-6.7680664,2.631958-2.7548828,5.6997681-5.4804688,9.2103271-8.175293,3.5071411-2.6953125,6.9842529-5.1044922,10.4315796-7.2373047,3.4438477-2.1293945,6.0426025-3.5073242,7.7994385-4.1362305l.5656128-.9379883-.5656128-.7519531c-1.1279907-.25-3.1011353-.8754883-5.9195557-1.8803711-2.8217163-1.0014648-5.7332153-2.0361328-8.7410889-3.1010742-3.0079956-1.0649414-5.7332153-2.0361328-8.1756592-2.9150391-2.4456177-.875-3.9196777-1.3139648-4.4187622-1.3139648-.7520752,0-1.2544556.4389648-1.5040283,1.3139648-1.0048828,2.6323242-1.597229,5.6401367-1.7835083,9.0244141-.1895752,3.3837891-.4725952,6.7646484-.8484497,10.1484375-.3760376,3.3842773-.9716797,6.6118164-1.7835693,9.6796875-.8186035,3.0742188-2.3491821,5.6098633-4.6052246,7.6132812-.1263428,0-.3460693.0664062-.6588745.1894531-.3126221.1264648-.5356445.1865234-.6586914.1865234h-63.1550293c-.5023804,0-.8451538.2197266-1.0349121.6586914-.1862793.4394531-.2827759.8452148-.2827759,1.2211914,0,.2529297.1897583.4423828.5657959.565918.3758545.1259766.6853638.1860352.9381714.1860352h45.4896851c1.2510376,0,1.8798828.6289062,1.8798828,1.8798828v62.0302734c0,2.1298828-.3760376,4.6982422-1.1279907,7.706543-.7518921,3.0048828-1.8200684,6.1391602-3.1942749,9.3964844-1.3809814,3.2612305-2.9815063,6.4555664-4.7948608,9.5864258-1.8168335,3.1347656-3.8231812,5.9863281-6.0160522,8.5517578-2.1928711,2.5722656-4.4820557,4.6386719-6.8612061,6.2055664-2.3791504,1.5673828-4.8248291,2.3491211-7.3303223,2.3491211-1.75354,0-3.4772949-.3759766-5.1676025-1.1279297s-3.3540649-1.597168-4.9811401-2.5390625c-1.6304932-.9379883-3.1943359-1.8134766-4.6983032-2.6318359-1.5040283-.8115234-3.0080566-1.2211914-4.5120239-1.2211914-1.2545166,0-1.8800659.565918-1.8800659,1.6904297,0,5.0146484,1.75354,9.3999023,5.2640991,13.1601562,3.5071411,3.7602539,7.7661743,6.8608398,12.7805786,9.3037109,5.0111084,2.4418945,10.2752686,4.2587891,15.7887573,5.4501953,5.5136719,1.190918,10.2752686,1.7866211,14.284729,1.7866211h63.3446045c1.0016479,0,1.6937256-.6352539,2.0697632-1.8964844.7519531-1.8999023,1.2843018-3.4472656,1.5971069-4.6450195.3128052-1.2045898.6588745-2.3129883,1.0349121-3.3173828.3758545-1.0151367.9049683-2.0268555,1.5970459-3.034668.6856079-1.0117188,1.7203369-2.4023438,3.1012573-4.1728516.2495728-.3793945.5923462-.8217773,1.034729-1.3276367.4360352-.5058594.6555786-1.0146484.6555786-1.5205078,0-.7553711-.6555786-1.1645508-1.9730835-1.2280273-1.3144531-.0664062-2.2261353-.0996094-2.7252197-.0996094-8.6447754,0-17.2927856-.0268555-25.9407959-.0932617-8.6447144-.0600586-17.2927856-.0932617-25.9375-.0932617-6.2688599,0-12.5012207-.2163086-18.7035522-.6552734-6.2023315-.4360352-12.4379272-.6591797-18.7035522-.6591797l-.5623169-.7519531.3760376-.9350586c1.75354-1.6269531,4.069458-3.0009766,6.9542847-4.1289062,2.8816528-1.125,5.387146-2.2495117,7.5200195-3.3774414,3.7566528-2.1264648,7.3902588-4.472168,10.9006958-7.0375977,3.5070801-2.5654297,6.6416016-5.5371094,9.4000854-8.9145508,1.5007324-1.8730469,2.911499-3.8427734,4.229248-5.9091797,1.31427-2.0600586,2.4089355-4.2192383,3.2873535-6.472168.6256104-1.8764648,1.0648804-3.8461914,1.317749-5.9125977.2495117-2.0595703.9383545-3.9101562,2.0663452-5.5371094l1.1279297-.559082c.4992676,0,1.3776855.0302734,2.6322021.0932617,1.2509766.0634766,2.5354614.0898438,3.8531494.0898438,1.31427,0,2.5054932-.0898438,3.5703735-.2763672,1.0646973-.1894531,1.7201538-.472168,1.9731445-.8481445l-.5623779-.7485352c-1.0048828-.3764648-2.196106-.4995117-3.5736694-.3764648-1.3776245.1264648-2.7251587.1899414-4.0396118.1899414-1.31427,0-2.4157104-.0932617-3.2908325-.2832031-.878418-.1860352-1.31427-.7817383-1.31427-1.7832031v-53.4785156c0-1.2514648.6256104-1.8769531,1.8800659-1.8769531h48.3077393c.3760376-.1230469.8751831-.3427734,1.5040283-.6586914.6256104-.3095703.9383545-.7788086.9383545-1.4077148,0-.2495117-.9116821-1.190918-2.7251587-2.8217773ZM656.0407104,511.7915039c1.1911621-.4360352,1.7869873-1.0947266,1.7869873-1.9731445,0-.4990234-.2197266-.8120117-.6588745-.9384766-.43927-.1230469-.7821045-.2495117-1.0316162-.3759766-3.8864746-1.0014648-7.8959351-1.597168-12.0319214-1.7871094-4.1361694-.1860352-8.2089233-.2827148-12.2183838-.2827148-1.2544556,0-1.8800659.6289062-1.8800659,1.8798828v6.5786133c0,3.2607422.0299683,6.9873047.0964966,11.1835938.0598145,4.2021484.1230469,8.6181641.1862793,13.2529297.0632935,4.6386719.1563721,8.9609375.2828369,12.9707031.12323,4.0097656.2495728,7.4233398.3760376,10.2416992.1230469,2.8217773.3128052,4.4189453.5623779,4.7949219.6255493,1.3808594,1.6935425,2.0395508,3.1975708,1.9731445,1.5040283-.0600586,2.8817139-.0932617,4.1359863-.0932617,1.1246948,0,2.3493652-.0629883,3.6636353-.1894531,1.31427-.1235352,2.631958-.3759766,3.9464111-.7519531,1.3175049-.3759766,2.5687256-.8754883,3.7598877-1.5043945,1.1912231-.625,2.0963745-1.4375,2.7252197-2.4418945.3760376-.4995117.6588745-1.9399414.8451538-4.3227539.1895752-2.3789062.3128052-5.2304688.3760376-8.5512695.0632935-3.3208008.1231079-6.8911133.1895752-10.7143555.0599976-3.8232422.0599976-7.5200195,0-11.090332-.0664673-3.5737305-.0930176-6.7348633-.0930176-9.4936523v-6.015625c0-1.1279297.5921631-1.9067383,1.7833862-2.3491211ZM644.5744019,460.0063477c.1895752,1.1279297.4058228,2.1958008.6588135,3.1977539.3760376,2.1328125.8451538,4.4819336,1.4108276,7.0473633.5623169,2.5688477,1.4074707,4.980957,2.5354614,7.2373047,1.1281128,2.2558594,2.5688477,4.1362305,4.3256836,5.6401367,1.7536011,1.5039062,4.069519,2.2524414,6.9544678,2.2524414,3.0079956,0,5.6400146-1.1245117,7.8926392-3.3803711,2.2559204-2.2563477,3.3840942-4.8881836,3.3840942-7.8964844,0-2.7548828-.878418-5.3569336-2.6321411-7.7993164-1.7536011-2.4458008-3.9462891-4.5751953-6.5782471-6.3920898-2.6321411-1.8134766-5.4504395-3.2241211-8.4584351-4.2290039-3.0080566-1.0019531-5.7630615-1.5043945-8.2686768-1.5043945-1.0049438,0-1.6005249.1899414-1.7868652.565918-.1896973.3759766-.2195435,1.0048828-.0932007,1.8798828.2495117,1.1279297.4692383,2.2529297.6555786,3.3808594ZM665.2510376,551.7338867c.6888428-.1230469,1.0349121-.3095703,1.0349121-.5620117,0-.3759766-.1862793-.6259766-.5623169-.7524414-.3760986-.1230469-.6921387-.1894531-.9417114-.1894531h-3.4771118c-.6888428,0-1.3144531.0664062-1.8800659.1894531-.5623169.1264648-.8451538.3129883-.8451538.5625.3760376.3759766.9682007.6289062,1.7868042.7519531.8118896.1264648,1.6570435.1899414,2.5354614.1899414.8751831,0,1.6605225-.0634766,2.3491821-.1899414ZM711.3995361,529.2739258c0,3.6967773.0265503,7.612793.0930786,11.7456055.0599976,4.1362305.12323,7.9594727.1862793,11.4663086.0632935,3.5107422.1897583,6.4555664.3760986,8.8344727.1896973,2.3828125.4060059,3.7602539.6588135,4.1362305.7519531,1.0048828,1.6903076,1.5039062,2.8182983,1.5039062h3.3840332c.7521362,0,2.0031128-.0932617,3.7601318-.2827148,1.75354-.1865234,3.5701904-.4692383,5.4502563-.8452148s3.5071411-.9086914,4.8880615-1.597168c1.3775635-.6889648,2.0664062-1.5341797,2.0664062-2.5390625v-47.5556641c0-.4990234.3758545-1.0317383,1.1279297-1.597168.7519531-.5625,1.4707642-1.0947266,2.1629028-1.597168.6853638-.4990234,1.1279297-.9384766,1.314209-1.3144531.1897583-.3759766-.3460083-.7519531-1.5970459-1.1279297-4.0129395-1.1279297-8.1456299-1.7539062-12.4048462-1.8798828-4.2623291-.1235352-8.3984985-.1899414-12.407959-.1899414-.6256104,0-1.0981445.2827148-1.4075317.8486328-.31604.5625-.5025024,1.2211914-.5656128,1.9731445-.0632324.7519531-.0632324,1.5341797,0,2.3491211.0631104.8149414.0964966,1.4077148.0964966,1.7836914v15.8852539ZM938.4992676,547.9775391c-1.0049438-1.2514648-2.1328735-2.5693359-3.3840942-3.949707-1.2544556-1.3774414-2.4456787-2.5991211-3.5736084-3.6635742-1.1279907-1.0649414-1.8168335-1.597168-2.0663452-1.597168-.6289062,0-1.2211914.3461914-1.7868652,1.03125-.5623169.6923828-1.2511597,1.4741211-2.0663452,2.3491211-.8151855.878418-1.7868042,1.6640625-2.9147949,2.3491211-1.1281128.6923828-2.5056152,1.0351562-4.1326904,1.0351562h-30.0767822c-2.631958,0-4.1326904-.9384766-4.508728-2.8183594s-.5656128-3.8232422-.5656128-5.8266602c.2495117-.2495117.7518921-.6586914,1.5039673-1.2241211.7519531-.5625,1.31427-.8452148,1.6903076-.8452148h35.1511841c.4990845,0,1.0349121-.0600586,1.597229-.1865234.5656128-.1230469.8451538-.4990234.8451538-1.1279297,0-.4990234-.3460693-1.1582031-1.0316162-1.9731445-.6921387-.8149414-1.473999-1.6601562-2.3491821-2.5390625-.878418-.875-1.6635742-1.6899414-2.352417-2.4418945-.6888428-.7524414-1.0314941-1.3178711-1.0314941-1.6938477,0-1.0014648.718689-1.753418,2.1594238-2.2558594,1.4407959-.4995117,2.5987549-.8120117,3.4771729-.9384766l.5657959-.7519531-.3760986-.9384766-6.7679443-6.7680664-.3760376-.9414062.5656128-.7490234c1.3775024-.2495117,2.755188-.472168,4.1359863-.6586914,1.3742676-.1899414,2.6287231-.6586914,3.7566528-1.4106445l.3760986-.9384766-.3760986-.9418945c-1.3807373-.6254883-2.9780273-1.7202148-4.7913818-3.2871094-1.8202515-1.5673828-2.7252197-3.1645508-2.7252197-4.7949219,1.2510376-.6254883,2.5354614-1.0317383,3.8532104-1.2211914,1.31427-.1865234,2.5986938-.5922852,3.8531494-1.2211914.6256104-.2495117.9384155-.4692383.9384155-.6591797,0-.1860352.1230469-.5922852.3758545-1.2211914.4990845-1.8798828,1.2512207-3.8198242,2.2561035-5.8261719,1.0014648-2.0029297,1.5040283-3.949707,1.5040283-5.8261719v-.7519531c-.6289062-.4995117-1.7235718-1.3178711-3.2908325-2.4458008s-3.1943359-2.2827148-4.8848267-3.4770508c-1.6936035-1.1879883-3.1975708-2.3496094-4.5120239-3.4775391-1.31427-1.1279297-1.9731445-1.9399414-1.9731445-2.4423828,0-1.1279297,1.0016479-1.753418,3.0080566-1.8798828,2.0031128-.1230469,4.1959229-.15625,6.5783691-.0927734,2.3791504.0629883,4.5718384.0927734,6.5784302.0927734,2.0030518,0,3.0079956-.4990234,3.0079956-1.5039062,0-.3759766-.7853394-1.2509766-2.3491821-2.6318359-1.5704956-1.3779297-3.3540649-2.8486328-5.3571777-4.4155273-2.0065308-1.5673828-3.8864136-2.9448242-5.6400146-4.1362305-1.756958-1.1914062-2.8849487-1.7866211-3.3840332-1.7866211-.6289062,0-1.3477173.6289062-2.1596069,1.8798828-.8184204,1.2543945-1.7868042,2.6318359-2.9147949,4.1362305-1.1279297,1.5039062-2.3491821,2.8847656-3.6668701,4.1357422-1.31427,1.2543945-2.6619873,1.8798828-4.0394897,1.8798828h-20.1110229c-.3760376,0-.8786011-.6254883-1.5040283-1.8798828-.6288452-1.2509766-.9416504-2.0698242-.9416504-2.4458008,0-1.3774414.4691162-2.5356445,1.4107666-3.4770508.9384155-.9384766,1.4075317-1.7202148,1.4075317-2.3491211,0-1.0014648-1.0015259-1.7202148-3.0047607-2.1625977-2.0064087-.4365234-4.2955933-.7524414-6.8612061-.9384766-2.5720215-.1865234-5.0742188-.2495117-7.5198975-.1865234-2.4423828.0629883-4.0396118.0932617-4.7915649.0932617-1.2544556,0-1.8800659.6889648-1.8800659,2.0664062v33.4575195c0,.878418-.2528076,1.8798828-.7518921,3.0078125-.5025635,1.1279297-.6921387,2.0698242-.5657959,2.8183594.12323.878418.3760376,1.6933594.7520752,2.4458008.3760376.7519531.5656128,1.6303711.5656128,2.6318359v52.6303711c0,1.2543945-.6288452,1.8798828-1.8800659,1.8798828-2.1328735,0-4.1992188-.15625-6.2023315-.4726562-2.0063477-.309082-4.0727539-.5288086-6.2023315-.6552734l-1.317688-.565918-.1863403-.1860352-.5656128-1.3178711v-35.5239258c0-.6254883.2828369-1.1577148.8451538-1.597168.5656128-.4389648,1.1912231-.8149414,1.8800659-1.1279297.6886597-.3129883,1.317688-.6254883,1.8800659-.9414062.5656128-.3095703.8451538-.6557617.8451538-1.0317383,0-.6254883-.7821045-1.5673828-2.3491821-2.8217773-1.5672607-1.2509766-3.3208008-2.5351562-5.2608643-3.8530273-1.9464111-1.3144531-3.7299194-2.6318359-5.3571777-3.9462891-1.6303101-1.3178711-2.508728-2.3491211-2.631958-3.1010742.12323-.2495117.1862793-.4394531.1862793-.565918,0-.1230469.0632935-.2495117.1897583-.3759766.3760376-.4990234,1.6903076-.7519531,3.9464111-.7519531h7.2370605c2.5654907,0,4.9146729-.0263672,7.0476685-.0932617,2.1294556-.0600586,3.2575684-.4692383,3.3839111-1.2211914-.5023804-.7519531-1.2211914-1.4375-2.1628418-2.0664062-.9382324-.6254883-1.7833862-1.2509766-2.5354614-1.8798828-.7519531-.4990234-2.0696411-1.5336914-3.9464111-3.1010742-1.8798828-1.5673828-3.7932129-3.2573242-5.7330933-5.0776367-1.9465942-1.8134766-3.7001343-3.5371094-5.2640991-5.1674805-1.5671387-1.6274414-2.3491821-2.7553711-2.3491821-3.3842773,0-.875.9683838-1.3144531,2.911499-1.3144531,1.9432983,0,4.1027222.09375,6.4853516.2797852,2.3789673.1894531,4.5418091.2226562,6.4851074.0966797,1.9431763-.1235352,2.8482666-.8154297,2.7252197-2.0698242,0-.4990234-.7221069-1.4072266-2.1595459-2.7250977-1.4440918-1.3144531-3.074585-2.6586914-4.8881226-4.0395508-1.8166504-1.3779297-3.5703735-2.6621094-5.263916-3.8535156-1.6903076-1.190918-2.7884521-1.8496094-3.2875977-1.9731445-1.2544556.2495117-2.3224487.9716797-3.1975708,2.159668-.878418,1.1914062-1.757019,2.4755859-2.631958,3.8535156-.8751831,1.3803711-1.8500977,2.6318359-2.9115601,3.7597656-1.0681152,1.1279297-2.3493042,1.6904297-3.8533325,1.6904297-1.1279297,0-2.1328735-.1230469-3.0078125-.3759766-.8786011-.2495117-1.3144531-1.128418-1.3144531-2.6289062,0-.6254883.1230469-1.5039062.3760376-2.6318359.2495728-1.1279297.4691162-2.2558594.6553955-3.3842773.1897583-1.1279297.2197266-2.1928711.0932617-3.1943359-.1230469-1.0014648-.5623779-1.6269531-1.31427-1.8798828-.7520752-.2495117-2.0663452-.5322266-3.9464111-.8481445-1.8800659-.3095703-3.8864746-.5927734-6.0160522-.8457031-2.1328735-.2495117-4.1659546-.4355469-6.1091309-.5620117-1.9432983-.1235352-3.3540649-.1899414-4.229187-.1899414-1.2544556,0-1.8800659.6289062-1.8800659,1.8803711,0,.7519531.0299683,1.9130859.0964966,3.4770508.0599976,1.5703125.0932617,3.1679688.0932617,4.7949219,0,1.6303711-.0667114,3.1342773-.1897583,4.5087891-.1265259,1.3808594-.3760376,2.3222656-.7519531,2.8212891l.1895752.7519531,1.3144531.5625h16.916748c.8751221,0,1.3175049.5024414,1.3175049,1.5039062,0,.6289062-.0332642,1.9433594-.0963135,3.9462891-.0632324,2.0068359-.1864624,4.1362305-.3728027,6.3920898-.1895752,2.2558594-.4093018,4.2958984-.6588135,6.109375-.2528687,1.8168945-.5656128,2.7915039-.9417114,2.9145508l-1.31427.5625h-10.9006348c-1.2544556,0-1.8800659-.5625-1.8800659-1.6904297,0-.6254883.0930786-1.3173828.279541-2.0693359.1895752-.7519531.2827759-1.4375.2827759-2.0664062,0-1.2509766-.3127441-2.5058594-.9383545-3.7602539-.6289062-1.2509766-1.3809814-2.5053711-2.2559204-3.7597656-.8786011-1.2514648-1.7868652-2.4726562-2.7252197-3.6635742-.9416504-1.1914062-1.6637573-2.4125977-2.1629028-3.6669922-.2528076-.6254883-.4691162-1.0947266-.6588135-1.4072266-.1863403-.3129883-.6554565-.4726562-1.4075317-.4726562h-22.3704224c-.5023804,0-.8451538.2226562-1.0314331.6586914-.1897583.4394531.2163086.7851562,1.2211914,1.034668,2.1294556.5024414,4.2590332.6557617,6.3919067.4692383,2.1263428-.1894531,4.2557983-.2827148,6.3886719-.2827148.6256104,0,1.1281128.565918,1.5040283,1.6938477.3760376,1.1279297.6588135,2.4125977.8452759,3.8530273.1895752,1.440918.2828369,2.8515625.2828369,4.2294922v2.8183594c0,.5019531.0297852,1.2543945.0930786,2.2558594.0632324,1.0048828.0299683,1.9731445-.0930786,2.9111328-.1265259.9418945-.3760376,1.7573242-.7520752,2.4458008-.3760376.6889648-.9384155,1.0351562-1.6903076,1.0351562h-16.5407104v.9379883c.4990845,0,1.3442383.0332031,2.5354614.0932617,1.1912231.0668945,2.4124146.2529297,3.6668701.565918,1.2510376.3125,2.315918.7216797,3.1943359,1.2207031.8751221.5029297,1.31427,1.128418,1.31427,1.8803711v62.0268555c0,1.2543945.6256104,1.8798828,1.8800659,1.8798828.7520752,0,2.0996094-.0927734,4.0429077-.2792969,1.9398804-.1894531,3.946228-.4726562,6.0158691-.8486328,2.0663452-.3759766,3.913147-.9052734,5.5436401-1.597168,1.6270752-.6855469,2.4422607-1.5336914,2.4422607-2.5356445v-16.9199219c0-1.2509766.6256104-1.8769531,1.8800659-1.8769531h7.5200195c1.8800659,0,3.7866821.0302734,5.7332764.09375,1.9398193.0629883,3.7866211.1860352,5.543457.3759766,1.7536011.1860352,3.1311035.4057617,4.1359863.6586914,1.2512207.4990234,2.0031128,1.5668945,2.2561035,3.1943359l-.3760376.9379883c-.7520752.6289062-1.5372925,1.1948242-2.3491821,1.6938477-.8186035.5024414-1.5372314,1.1279297-2.1628418,1.8803711-.2528076.625-.2528076,1.4736328,0,2.5351562.2495728,1.0683594.5923462,2.2260742,1.034729,3.4770508.4360352,1.2543945.8751221,2.4160156,1.3144531,3.4770508.43927,1.0683594.7819214,1.9135742,1.0349121,2.5390625.2495117.5024414.4690552.9116211.6586304,1.2211914.1865234.315918.5923462.4692383,1.2212524.4692383,2.1295776,0,4.2591553-.1865234,6.3920898-.5625,2.1261597-.3759766,4.2557373-.5654297,6.3886108-.5654297.7520752,0,1.2844849.4091797,1.597229,1.2246094.3128052.8149414.4991455,1.7832031.5656738,2.9111328.0599365,1.1279297.0299683,2.2265625-.0932617,3.2910156-.1263428,1.0649414-.1895752,1.8500977-.1895752,2.3491211,0,1.2543945-.6288452,1.8803711-1.8800659,1.8803711h-69.7332153c-.2529907,0-.5025635.1259766-.7520752.3759766.2495117,1.0048828.8751221,1.5039062,1.87677,1.5039062h58.2702026c1.0014648,0,1.5040283.3759766,1.5040283,1.1279297,0,1.0014648-1.2844849,2.1591797-3.8532104,3.4770508-2.5687256,1.3144531-5.7964478,2.6953125-9.6796265,4.1328125-3.8864746,1.4443359-8.0822144,2.8515625-12.5942993,4.2290039-4.5120239,1.3808594-8.7712402,2.6987305-12.7807007,3.949707-4.0129395,1.2543945-7.3970337,2.3491211-10.1520386,3.2875977-2.755188.9418945-4.3224487,1.6635742-4.6983032,2.1625977.6254272.5029297,1.7868042.6889648,3.4771118.5625,1.6936035-.1230469,3.6003418-.3759766,5.7332153-.7519531,2.1294556-.3759766,4.4188232-.8120117,6.8612061-1.3144531,2.4422607-.4990234,4.8214111-.9379883,7.1439819-1.3139648,2.315918-.3764648,4.3822632-.6259766,6.2023926-.7519531,1.8133545-.1235352,3.2243042,0,4.229187.3754883l.5623779,1.3144531c0,1.7568359.0297852,3.5708008.0930786,5.4506836.0632324,1.8798828.0964966,3.6967773.0964966,5.4501953,0,1.3808594-1.2877197,2.1030273-3.8532104,2.1630859-2.5721436.0629883-5.3904419-.0302734-8.458252-.2832031-3.074707-.2495117-5.8930054-.3759766-8.4584351-.3759766-2.5722046,0-3.8532104.6289062-3.8532104,1.8798828,0,.7519531.5923462,2.2260742,1.7835693,4.4189453,1.1912231,2.1894531,2.5387573,4.4790039,4.0427246,6.8613281,1.5040283,2.3789062,2.9747925,4.5087891,4.4155273,6.3886719,1.4407959,1.8798828,2.4124146,2.8217773,2.914978,2.8217773,1.0014648,0,2.0663452-.5356445,3.1943359-1.6005859,1.1279297-1.0649414,2.192688-1.7836914,3.1975708-2.159668,1.3742676-.6289062,2.7252197-1.0981445,4.0396729-1.4106445,1.31427-.3129883,2.6618042-.722168,4.0427246-1.2211914,5.3839111-1.7568359,10.7111206-3.6367188,15.9750977-5.6401367,5.2640991-2.0063477,10.5878296-3.8833008,15.9784546-5.6367188.7519531-.2495117,2.1594238-.6586914,4.2290649-1.2246094,2.0663452-.5620117,4.1627197-1.2211914,6.2955933-1.9731445,2.1295776-.7519531,4.0429077-1.5302734,5.7332153-2.3491211,1.6936035-.8120117,2.6619873-1.597168,2.9147949-2.3491211-.6288452-.4990234-1.317688-.7817383-2.0696411-.8452148-.7520752-.0629883-1.4407349-.0932617-2.0663452-.0932617-4.0129395,0-8.0823975.1865234-12.2183838.5625s-8.2089233.5625-12.2183838.5625c-1.2544556,0-1.8800659-.6259766-1.8800659-1.8769531v-12.4077148c0-.7519531.4725342-1.4711914,1.4109497-2.159668.9416504-.6889648,2.0031128-1.3178711,3.1943359-1.8798828,1.1912231-.565918,2.4124146-1.0351562,3.6668701-1.4111328,1.2510376-.3759766,2.1893921-.6855469,2.8182373-.9379883,1.8800659-.6254883,3.8831787-1.5043945,6.0160522-2.6323242,1.3775635-.6254883,2.5054932-1.3442383,3.3840942-2.1625977.874939-.8120117,1.8133545-1.7836914,2.8182983-2.9116211.3760376-.3759766.6887817-.6889648.9416504-.9414062.2495117-.25.6853638-.3764648,1.31427-.3764648,1.2511597,0,3.8533325.0336914,7.7995605.0932617,3.949707.0664062,8.0823975.0966797,12.4081421.0966797,4.3222656,0,8.2354126-.0966797,11.7458496-.2832031,3.5070801-.1894531,5.5134888-.5917969,6.0160522-1.2211914-.7521362-.4990234-2.5389404-.8149414-5.3572388-.9414062-2.8184204-.1230469-5.8929443-.1865234-9.2103271-.1865234-3.3208008,0-6.5484009.0634766-9.6796265.1865234-3.1343994.1264648-5.3272095.1899414-6.5782471.1899414-.6290283-.25-1.0681763-1.0947266-1.317688-2.5390625-.2529907-1.4375-.3460693-2.9414062-.2828369-4.5117188.0632324-1.5644531.3128052-2.9750977.7518921-4.2294922.4393311-1.2509766,1.0982056-1.8798828,1.9766235-1.8798828h13.9086914c3.1310425,0,6.3886108.0332031,9.7727051.0961914,3.3840332.0634766,6.5484009.1264648,9.4931641.1865234,2.9414673.0664062,5.5136719.1899414,7.7063599.3759766,2.1928711.1894531,3.6668701.4091797,4.4189453.6586914.7519531.2529297,1.1245117.878418,1.1245117,1.8798828,0,.3759766-.3460083,1.0048828-1.0314331,1.8803711-.6921387.878418-1.5040283,1.8500977-2.4456787,2.9116211-.9384155,1.0678711-1.8168335,2.0395508-2.6287231,2.9145508-.8184204.878418-1.4107666,1.3808594-1.7868042,1.5043945h-.1895752l-.9383545.9379883c-.3760986,1.3808594-1.6305542,3.1679688-3.7601318,5.3569336-2.1328735,2.1962891-4.5119019,4.3227539-7.140564,6.3925781-2.6321411,2.065918-5.2641602,3.8530273-7.8961182,5.3569336s-4.6383667,2.2558594-6.0160522,2.2558594c-1.5039673,0-2.911499-.5322266-4.229187-1.597168-1.31427-1.0644531-2.6019897-2.2260742-3.8532104-3.4804688-1.2544556-1.2509766-2.5054932-2.4086914-3.7566528-3.4770508-1.2544556-1.0615234-2.5089111-1.597168-3.7599487-1.597168-.3760376,0-.6288452.2197266-.7520752.6586914-.1263428.4394531-.1895752.7856445-.1895752,1.0351562,0,2.8813477,1.0646973,6.012207,3.1975708,9.3964844,2.1296387,3.3842773,4.8548584,6.7680664,8.1756592,10.1518555,3.3173828,3.3808594,7.1107178,6.671875,11.37323,9.8662109,4.2557373,3.1972656,8.5182495,6.0161133,12.7807007,8.4580078,4.2590942,2.4458008,8.3317871,4.4189453,12.2183838,5.9228516,3.8830566,1.5039062,7.2038574,2.2563477,9.9623413,2.2563477.8751221,0,1.5039673-.4428711,1.8765869-1.3178711,1.1281128-2.6318359,2.0698242-4.7617188,2.8217163-6.3886719.7520752-1.6303711,1.5339966-3.1674805,2.3491821-4.6049805.8118896-1.4443359,1.7868042-2.8852539,2.914917-4.3256836,1.1245728-1.4375,2.6918335-3.2875977,4.6983643-5.5439453,1.0014648-1.2509766.8751221-2.1293945-.3760376-2.6318359-1.7568359-.7519531-3.9796753-1.2509766-6.6749268-1.5039062-2.6951904-.2495117-5.5767212-.4057617-8.6447144-.4692383-3.071106-.0629883-6.2023315-.15625-9.3999634-.2827148-3.1943359-.1230469-6.1723633-.40625-8.9275513-.8452148-2.7584839-.4389648-5.1676025-1.1279297-7.2372437-2.0664062-2.0663452-.9414062-3.4771118-2.2260742-4.229187-3.8564453.1231689-.1230469.1896973-.2495117.1896973-.3759766,0-.1230469.0599976-.2495117.1863403-.3725586.2495117-.3759766,1.7868042-.8154297,4.6052246-1.3178711,2.8215942-.4990234,5.9827881-1.034668,9.4932251-1.597168,3.5070801-.5654297,6.861145-1.0644531,10.055481-1.5039062,3.1977539-.4394531,5.3571777-.7817383,6.4851685-1.0351562.2495728-.1230469.6888428-.2495117,1.317688-.3754883.6256104-.1235352.9384155-.3764648.9384155-.7524414,0-.6254883-.7853394-1.5302734-2.3491821-2.7250977-1.5705566-1.1875-3.2609863-2.4418945-5.0743408-3.7597656-1.8201294-1.3144531-3.5105591-2.5356445-5.0776978-3.6635742-1.5672607-1.1279297-2.3491821-2.003418-2.3491821-2.6318359,0-.8754883.4391479-1.3144531,1.3175659-1.3144531,1.6272583,0,3.6936035.0297852,6.2023315.0927734,2.5056763.0634766,5.0744019.0932617,7.7063599.0932617,2.6321411,0,5.1376343-.0600586,7.5200806-.1860352,2.3758545-.1230469,4.2559204-.3759766,5.6367188-.7519531l.5656128-1.1279297-.5656128-.9418945c-.3760376-.2495117-1.2544556-.875-2.631958-1.8798828-1.3775635-1.0014648-2.7885132-2.0664062-4.229248-3.1943359-1.4407349-1.128418-2.7252197-2.2226562-3.8531494-3.2875977-1.1279907-1.0649414-1.6903687-1.7236328-1.6903687-1.9765625,0-1.0014648.8751831-1.6572266,2.632019-1.9731445,1.75354-.3095703,3.6635742-.6557617,5.7332153-1.0317383,2.0663452-.3759766,3.9762573-1.0014648,5.7332153-1.8798828,1.7536011-.875,2.6287231-2.3789062,2.6287231-4.512207,0-.3754883-.4992676-1.190918-1.5007324-2.4418945ZM823.4628296,533.5029297c0,1.2543945-.6290283,1.8798828-1.8800659,1.8798828h-22.5567017c-1.2544556,0-1.8800659-.6254883-1.8800659-1.8798828v-7.5200195c0-1.2509766.6256104-1.8798828,1.8800659-1.8798828h22.5567017c1.2510376,0,1.8800659.6289062,1.8800659,1.8798828v7.5200195ZM823.4628296,518.4663086c0,1.2543945-.6290283,1.8798828-1.8800659,1.8798828h-22.5567017c-1.2544556,0-1.8800659-.6254883-1.8800659-1.8798828v-7.5200195c0-1.2509766.6256104-1.8803711,1.8800659-1.8803711h22.5567017c1.2510376,0,1.8800659.6293945,1.8800659,1.8803711v7.5200195ZM828.6303101,498.0722656c-.1863403.9384766-.7819214,2.0029297-1.7835693,3.1943359-1.0048828,1.1914062-2.1628418,2.3193359-3.4771118,3.3837891-1.317749,1.0649414-2.4157104,1.6606445-3.2908325,1.7836914-1.1279907.2529297-2.4124146.3461914-3.8532104.2827148-1.4407349-.0595703-2.7884521-.0927734-4.0394897-.0927734-1.3809204,0-3.793335-.0932617-7.2372437-.2832031-3.4505615-.1860352-6.9276733-.6254883-10.4348145-1.3144531-3.5071411-.6884766-6.6083984-1.6000977-9.3035889-2.7250977-2.6952515-1.1279297-4.0394897-2.6318359-4.0394897-4.5117188,0-.3759766.2163086-.6586914.6553955-.8452148.4393311-.1894531.7821045-.2827148,1.0349121-.2827148h43.9854736c1.3775024,0,1.9732666.4692383,1.7835693,1.4106445ZM825.8120117,492.9946289c-1.6904907-.1865234-2.5389404-.8452148-2.5389404-1.9731445,0-.875.6256104-1.9101562,1.8800659-3.1010742,1.2510376-1.1879883,2.6952515-2.3496094,4.3255615-3.4775391,1.6272583-1.1279297,3.2875977-2.0961914,4.9813232-2.9145508,1.6903076-.8120117,2.911499-1.2211914,3.6634521-1.2211914.7520752,0,1.2211914.315918,1.4109497.9414062.1862793.6289062.2793579,1.2543945.2793579,1.8803711,0,2.1293945-.8751221,3.9794922-2.6287231,5.543457-1.7568359,1.5668945-3.666687,2.7250977-5.7330322,3.4770508-2.0698242.7519531-3.949707,1.034668-5.6400146.8452148ZM882.7645264,470.8173828c.5656128-1.1914062,1.4107666-1.7871094,2.5388794-1.7871094,4.2590332,0,8.4882812.0332031,12.6875.0932617,4.1959839.0664062,8.3652344.4091797,12.5012207,1.034668l.5623169.7519531-.3760376.9384766-6.5783691,6.578125c-.3758545.3764648-1.4107666.6591797-3.1010742.8486328-1.6937866.1865234-3.5438232.3759766-5.546936.5625-2.0031128.1894531-3.946228.3129883-5.8262939.3759766s-3.1345215.0932617-3.7599487.0932617c-1.3776855,0-2.3791504-.5922852-3.0047607-1.7836914-.6288452-1.1914062-.9416504-2.4755859-.9416504-3.8530273s.2827759-2.6621094.8451538-3.8530273ZM882.3884888,514.7993164c.1896973-1.0615234.5657959-2.0664062,1.1279297-3.0078125.5657959-.9384766,1.4109497-1.4077148,2.5389404-1.4077148h20.4870605l1.317749.5625c.2495117.2529297.5323486.5356445.8451538.8452148.3128052.315918.4691162.6586914.4691162,1.034668s-.2196045.8452148-.6588745,1.4106445c-.4391479.5625-.9382324,1.1279297-1.5005493,1.6904297-.5657959.565918-1.1279907,1.0981445-1.6937866,1.597168-.5623169.5024414-.9716187.878418-1.2211914,1.1279297l-1.31427.565918h-19.1727905c-.5023804,0-.878418-.4726562-1.1279907-1.4106445-.2528076-.9418945-.2828369-1.9399414-.0964966-3.0083008ZM882.1089478,503.1464844c0-1.1914062.12323-2.2856445.3760376-3.2910156.2495728-1.0009766.4990845-1.5634766.7520752-1.6899414.2495728-.1230469.4025879-.1899414.4691162-.1899414.0599976,0,.2163086-.0595703.4691162-.1860352h18.7967529c.3760986,0,.8751831.1860352,1.5040283.5620117.6256104.3759766,1.2512207.8188477,1.8800659,1.3178711.6256104.5024414,1.157959,1.0048828,1.5970459,1.5039062.4393311.5024414.6588745.9384766.6588745,1.3144531s-.2528076.878418-.7518921,1.5039062c-.5025635.6289062-1.0981445,1.2211914-1.7868652,1.7871094-.6888428.5620117-1.3809204,1.0644531-2.0663452,1.5039062-.6920776.4389648-1.2211914.6552734-1.597229.6552734h-17.6686401c-1.1281128,0-1.8535156-.4990234-2.1629028-1.5039062-.31604-1.0014648-.4692383-2.0961914-.4692383-3.2875977ZM878.8181152,493.184082c-2.5687256-.4389648-4.824646-1.0644531-6.7679443-1.8798828-1.9433594-.8149414-2.9115601-1.909668-2.9115601-3.2910156,0-1.5039062,1.0614624-2.6318359,3.1943359-3.3803711,2.1296387-.7519531,4.5720215-1.284668,7.3303223-1.6005859,2.755188-.3095703,5.4504395-.4692383,8.0823975-.4692383h5.4536743c2.2526855,0,4.1959839-.0932617,5.8264771-.2827148,1.6270752-.1865234,3.0078735-.1230469,4.1359863.1894531,1.1246948.3129883,1.9398804,1.0981445,2.4422607,2.3496094.4990845,1.2543945.7520752,3.3837891.7520752,6.3916016,0,1.1279297-.3161011,1.9433594-.9416504,2.4423828-.2529907.2529297-1.0314941.4394531-2.3491821.5625-1.3144531.1264648-2.7252197.1894531-4.229248.1894531h-7.3302612c-1.0049438,0-2.7252197-.0927734-5.1676636-.2827148-2.4456787-.1865234-4.9511108-.4990234-7.5200195-.9384766ZM882.4849854,530.3085938c-.2528076-.878418-.3760376-1.8798828-.3760376-3.0078125,0-1.128418.12323-2.1298828.3760376-3.0083008.2495728-.875.6256104-1.3173828,1.1279907-1.3173828h26.3135376c.4990845,0,.8151855.1894531.9416504.5654297.1230469.3759766.1862793.7519531.1862793,1.1279297l-.5623169,1.3144531-5.0776367,5.0742188-1.3144531.565918h-20.4870605c-.5023804,0-.878418-.4394531-1.1279907-1.3144531ZM425.171936,540.4638672c1.3144531,0,2.036377.0634766,2.1629028.1865234l-.3760986.5654297-1.317688.5556641h-9.5862427c-.2529907,0-.5955811-.0898438-1.0316162-.2758789-.4425659-.1865234-.6588745-.4692383-.6588745-.8452148.12323-.1230469.8453369-.1865234,2.1629028-.1865234h8.6447144ZM465.7734985,540.3676758c-1.1946411-.0600586-2.3825684-.0932617-3.5703735-.0932617-1.1946411,0-2.2893066.0664062-3.2908325.1894531-1.0048828.1264648-1.5039673.3759766-1.5039673.7519531.3758545.3725586.9682007.6225586,1.7868042.7456055.8118896.1264648,1.7202759.1860352,2.7252197.1860352,1.0014648,0,1.9730835-.0595703,2.911499-.1860352.9416504-.1230469,1.6603394-.1899414,2.1627197-.1899414l1.3143921-.5556641.3760376-.3759766-.5623169-.3759766c-.3760376,0-1.161377-.0297852-2.3491821-.0961914ZM547.2560425,613.7641602c0,1.8798828-.4393311,3.5073242-1.3144531,4.8881836-.878418,1.3774414-2.0063477,2.5053711-3.3840332,3.3808594-1.3807983.875-2.9147949,1.5039062-4.6051025,1.8798828-1.6937866.3759766-3.354126.5654297-4.9811401.5654297h-43.7958984c-2.2559814,0-4.0429688-.7519531-5.3572388-2.2558594-1.317688-1.5039062-2.3491211-3.3208008-3.1011963-5.4501953-.7519531-2.1333008-1.2210693-4.355957-1.4108276-6.6748047-.1862793-2.315918-.2827759-4.2895508-.2827759-5.9199219v-29.2280273c0-1.440918-.0932617-2.8818359-.279541-4.3222656-.1895752-1.440918-.5656128-2.6621094-1.1279907-3.6669922-.5656128-1.0014648-1.473999-1.5039062-2.7252197-1.5039062h-50.5638428c-.878418,0-1.317688.4389648-1.317688,1.3139648,0,.878418.6888428,1.5043945,2.0696411,1.8803711,1.3776245.3759766,3.1012573.6586914,5.1676025.8481445,2.0696411.1865234,4.1992188.3461914,6.3920898.4692383,2.1893921.1264648,4.069458.2832031,5.6399536.4692383,1.5638428.1899414,2.6585693.5361328,3.2874146,1.0351562.6256104.5019531.3128052,1.2543945-.9382324,2.2558594l-.5657959,1.3144531v9.2099609c0,.7519531.3128052,1.2216797.9417114,1.4111328.6255493.1860352,1.2511597.2792969,1.8800049.2792969,1.8800659,0,3.5371094-.3759766,4.9811401-1.1279297,1.4375-.7485352,2.6919556-1.7202148,3.7568359-2.9111328,1.0647583-1.1914062,2.036377-2.5390625,2.9147949-4.0429688.8751831-1.5043945,1.7536011-2.9418945,2.632019-4.3222656l1.1279297-.5625.9384155.3759766,12.7839966,12.9667969.5623169,1.3178711c0,.7519531-.3127441,1.1279297-.9381714,1.1279297h-29.7009277c-1.2544556,0-1.8800659.6289062-1.8800659,1.8798828,0,.6289062-.0630493,1.597168-.1862793,2.9116211-.1263428,1.3178711-.1895752,2.6987305-.1895752,4.1357422,0,1.4414062.156311,2.6958008.4724121,3.7602539.3095093,1.0649414.9050903,1.597168,1.7835083,1.597168h23.3088379c.8751221,0,1.5637817.2529297,2.0663452.7519531-.3760376.6289062-1.8500977,1.6308594-4.4155273,3.0083008-2.5722046,1.3808594-5.7032471,2.9116211-9.4000854,4.6049805-3.6967163,1.6904297-7.7363892,3.4775391-12.1218872,5.3574219-4.388855,1.8798828-8.5548096,3.6000977-12.5012207,5.1674805-3.9464111,1.5668945-7.4900513,2.9448242-10.6211548,4.1357422-3.1312256,1.1879883-5.2606812,1.9101562-6.3887939,2.1630859l-1.3175659-.565918c-.3760376-.5024414-1.0981445-1.8496094-2.1595459-4.0395508-1.0681763-2.1958008-2.1629028-4.5454102-3.2908325-7.0507812-1.1279907-2.5087891-2.1329346-4.8212891-3.0080566-6.9545898-.878418-2.1289062-1.31427-3.3837891-1.31427-3.7597656,0-.7519531.6854248-1.2509766,2.0663452-1.5039062,1.3775635-.2495117,2.9746094-.3759766,4.7948608-.3759766,1.8133545,0,3.5369263.0664062,5.1674805.1894531,1.6270142.1264648,2.755188.1865234,3.3840332.1865234.6256104,0,1.034729-.4360352,1.2211914-1.3144531.1895752-.875.2828369-1.8798828.2828369-3.0078125s-.0932617-2.2563477-.2828369-3.3842773c-.1864624-1.1279297-.279541-1.8798828-.279541-2.2558594-.1264648-1.2509766-.1896973-3.1279297-.1896973-5.6367188,0-2.5053711-.0332642-5.1040039-.0930786-7.8027344-.0665283-2.6918945-.15979-5.1977539-.2828369-7.5166016-.1264648-2.3193359-.3128052-3.8535156-.5623169-4.6054688-.5025635-1.2509766-1.317749-2.3491211-2.4456787-3.2910156-1.1281738-.9379883-2.3826294-1.4072266-3.7601318-1.4072266-.8751221,0-1.7235718.8452148-2.5354614,2.5356445-.8186035,1.6933594-1.597229,3.8530273-2.3491821,6.4848633-.7520752,2.6323242-1.5039673,5.5170898-2.2561035,8.6479492-.7518921,3.1313477-1.5039673,6.1391602-2.2559204,9.0209961-.7520752,2.8847656-1.4407349,5.4238281-2.0663452,7.6132812-.6288452,2.1928711-1.194519,3.6035156-1.6936035,4.2290039-1.3809204,1.7568359-3.1012573,3.6967773-5.1676025,5.8261719-2.0696411,2.1333008-4.2624512,4.2294922-6.5783691,6.2988281-2.3224487,2.0664062-4.6383667,3.9765625-6.9577026,5.7333984-.4012451.3027344-.7913208.5795898-1.1830444.8603516l.0021362.0087891c-7.1873779,6.2675781-18.6676636,7.7583008-25.022522-.4296875-3.335022-4.3022461-4.3950195-11.2182617.3067017-14.862793,2.8828735-2.2412109,6.9468994-2.2734375,9.2926636.7509766,5.1524658,6.6484375-6.0465088,11.8911133-2.9229736,15.918457,3.4040527,4.390625,10.9378052-1.5322266,14.3414917-9.8110352.3560181-1.1079102.7160034-2.2128906,1.0950317-3.3051758.0067139-.0268555.0149536-.0532227.0216064-.0800781l.0020752.0087891c.5786133-1.6645508,1.1802979-3.3139648,1.8141479-4.9438477,1.1879272-3.0678711,2.315918-6.1689453,3.3807983-9.3037109,1.0646973-3.1308594,1.7235718-6.3916016,1.9763794-9.7758789,1.3742676-16.0380859,2.1894531-32.0463867,2.4424438-48.0249023.2495117-15.9750977.3760376-31.9833984.3760376-48.0249023,0-1.6274414.0598145-3.5073242.1862793-5.6367188.1230469-2.1298828.0964966-4.2294922-.0932617-6.2988281-.1862793-2.0664062-.5955811-4.0395508-1.2211914-5.9199219-.6288452-1.8798828-1.6903076-3.3837891-3.1942749-4.5117188l-.5656738-.9384766c.2495728-1.0014648.8751831-1.5039062,1.8800659-1.5039062h5.6400146c2.7550049,0,5.9195557.0302734,9.4898682.0932617,3.5736694.0629883,7.3336182.0932617,11.2800293.0932617h10.9006958c3.3208008,0,6.1092529-.0600586,8.3651733-.1865234,2.2561035-.1230469,3.5071411-.2495117,3.7599487-.3759766.6256104-.3759766,1.4707642-1.2246094,2.5356445-2.5390625,1.0646973-1.3139648,2.1628418-2.6621094,3.2908325-4.0395508s2.1628418-2.6318359,3.1010742-3.7597656c.9417114-1.1279297,1.59729-1.6938477,1.9733276-1.6938477.4990845,0,1.5672607.6923828,3.1975708,2.0698242,1.6272583,1.3808594,3.4438477,2.8515625,5.4504395,4.4155273,2.0031128,1.5708008,4.0094604,3.0410156,6.0125732,4.4189453,2.0031128,1.3808594,3.5738525,2.0664062,4.7017822,2.0664062,1.0014648,0,2.9415283-.0302734,5.8262939-.0932617,2.8815308-.0634766,6.2323608-.1230469,10.055542-.1899414,3.8198853-.0595703,7.7995605-.1230469,11.9355469-.1860352s7.9891968-.1567383,11.5595703-.2832031c3.5736084-.1230469,6.5783691-.2827148,9.0240479-.46875,2.4423828-.1899414,3.7866821-.3427734,4.0394897-.4692383.6256104-.3759766,1.4109497-1.0649414,2.3491821-2.0698242.9416504-1.0014648,1.8800049-2.0961914,2.8217163-3.2875977.9383545-1.1914062,1.7835083-2.3491211,2.5354614-3.4770508.7520752-1.1279297,1.317688-2.0698242,1.6937256-2.8217773l.9384155-.3759766c.4990845.1264648,1.75354.9116211,3.7599487,2.3491211,2.0031128,1.4443359,4.069458,3.0083008,6.2023315,4.7016602,2.1295776,1.6904297,4.0429077,3.2875977,5.7332153,4.7915039,1.6903076,1.5043945,2.5387573,2.4458008,2.5387573,2.8217773,0,.6259766-.31604.9384766-.9416504.9384766h-73.1173096c-.6289062,0-1.0047607.4389648-1.1279907,1.3144531-.1264648.878418-.1895752,1.5039062-.1895752,1.8798828,0,1.3808594.8484497,2.6987305,2.5387573,3.949707s3.633606,2.3193359,5.8264771,3.1943359c2.192688.878418,4.4187622,1.5668945,6.6747437,2.0664062,2.2526245.5024414,3.9464111.7519531,5.0743408.7519531.7520752,0,2.4091797.0332031,4.9811401.0961914,2.5656128.0634766,5.2608643.0932617,8.0823975.0932617,2.8184814,0,5.3572388-.0297852,7.6132812-.0932617,2.2526855-.0629883,3.5037231-.2192383,3.7567139-.472168l7.7063599-6.7646484c.2495117-.2495117.6888428-.3759766,1.317688-.3759766,1.1279907-.1235352,2.7550049.2192383,4.8878784,1.03125,2.1296387.8183594,4.2892456,1.8203125,6.4819336,3.0083008,2.1928101,1.1943359,4.072876,2.5087891,5.6399536,3.9462891,1.5672607,1.4438477,2.3491821,2.7915039,2.3491821,4.0429688,0,.3759766-.2528076.7514648-.7518921,1.1279297-.5023804.3759766-1.0314941.8149414-1.59729,1.3144531-.5623169.5019531-1.0646973,1.0048828-1.5039673,1.5039062-.4391479.5019531-.6554565,1.0043945-.6554565,1.5039062v14.0981445c0,.7524414-.3760376,1.5039062-1.1279297,2.2563477-.7520752.7519531-1.1281738,1.6899414-1.1281738,2.8183594,0,.5024414.5623779,1.3173828,1.6904907,2.4453125,1.1279907,1.125,2.3491821,2.3193359,3.666748,3.5703125,1.3143921,1.2548828,2.5355835,2.4125977,3.6635742,3.4775391,1.1279907,1.0644531,1.6936035,1.8496094,1.6936035,2.3491211,0,.5024414-.4425659.9116211-1.3175659,1.2211914-.8786011.315918-1.5040283.4692383-1.8800659.4692383h-47.9318848c-1.2511597,0-1.8765869.6289062-1.8765869,1.8798828v34.9614258c0,1.2543945.6254272,1.8798828,1.8765869,1.8798828h15.0401001c1.2510376,0,1.8766479-.6254883,1.8766479-1.8798828,0-4.5087891.1897583-7.9858398.5656128-10.4316406.3760376-2.4423828.3427734-4.2290039-.0930786-5.3569336-.4425659-1.1279297-1.6304932-1.7836914-3.5736084-1.9731445-1.9432983-.1865234-5.230896-.2832031-9.8659668-.2832031l-1.317688-.5625-.3760376-.3754883c.2496948-.1235352.8751221-.2827148,1.8800049-.4692383,1.0016479-.1899414,2.1629028-.40625,3.4771729-.6591797,1.317688-.2495117,2.6619263-.5322266,4.0429077-.8452148,1.3775024-.3125,2.4423828-.7182617,3.1943359-1.2207031.4990845-.3759766,1.2211914-1.0649414,2.1628418-2.0698242.9384155-1.0014648,1.9398804-2.0332031,3.0079956-3.1010742,1.0614624-1.0615234,2.0031128-2.003418,2.8182983-2.8183594.8118896-.8154297,1.4109497-1.2211914,1.7869873-1.2211914.4990845,0,1.7501221.7216797,3.7566528,2.1591797,2.0031128,1.4443359,4.1359863,3.0415039,6.3919678,4.7949219,2.2561035,1.7568359,4.2924194,3.4140625,6.1092529,4.9814453,1.8133545,1.5668945,2.7252197,2.4755859,2.7252197,2.7250977,0,.5024414-.2529907.9716797-.7520752,1.4072266-.5023804.4428711-1.0349121.878418-1.59729,1.3178711-.5656128.4394531-1.0979614.9116211-1.5970459,1.4106445-.5025635.5024414-.7520752,1.0019531-.7520752,1.5009766,0,.6289062.0299683,1.6933594.0932007,3.1977539.0632324,1.5039062.0932617,3.0712891.0932617,4.6982422,0,1.6303711-.0932617,3.1010742-.279541,4.4189453-.1897583,1.3139648-.5358276,2.1591797-1.0349121,2.5351562-.3760376.2529297-1.0979614.5957031-2.1628418,1.0351562-1.0647583.4389648-2.1594238.878418-3.2874146,1.3144531-1.1281128.4423828-2.0996094.9414062-2.914978,1.5039062-.8151245.5654297-1.2211914,1.1611328-1.2211914,1.7866211,0,1.8803711.7821045,3.6035156,2.3491821,5.1674805,1.5639648,1.5708008,3.3508301,3.0415039,5.3571777,4.4189453,2.0032959,1.3808594,3.8831787,2.6621094,5.6401978,3.8530273,1.75354,1.1914062,2.7550049,2.3491211,3.0045776,3.4775391l-.5623779.7519531c-5.3904419.6289062-10.7476196,1.2841797-16.0715332,1.9731445-5.3272095.6884766-10.6211548,1.5371094-15.8818359,2.5390625-.2529907,0-1.0349121.1259766-2.3491821.3759766-1.317688.2524414-2.0397949.5019531-2.1628418.7519531-.3760376.875-.6289062,2.0664062-.7520752,3.5703125-.1263428,1.5039062-.1863403,2.7583008-.1863403,3.7597656,0,2.2558594.4991455,3.9165039,1.5007324,4.9814453,1.0014648,1.0644531,2.2559814,1.7832031,3.7599487,2.1591797,1.5040283.3759766,3.1312256.5029297,4.8880615.3759766,1.7536011-.1230469,3.3840942-.1860352,4.8881226-.1860352,1.75354,0,3.7266846-.0634766,5.9194946-.1899414,2.192688-.1230469,4.1027222-.4990234,5.7330933-1.1279297.3760376-.1230469,1.0016479-.5288086,1.8800659-1.2211914.8751221-.6850586,1.7868042-1.3442383,2.7252197-1.9731445.9416504-.6254883,1.7868042-1.2211914,2.5386963-1.7866211.7521362-.5625,1.2512207-.8452148,1.5040283-.8452148,1.6272583,1.6303711,2.911499,2.9780273,3.8532104,4.0429688.9383545,1.0644531,1.8134766,2.065918,2.6286621,3.0078125.8153687.9384766,1.2844849,1.5341797,1.4109497,1.7836914,1.0014648,1.6303711,1.5040283,3.2573242,1.5040283,4.8876953ZM445.1899414,469.5927734c0,2.0063477.7186279,3.6035156,2.1628418,4.7949219,1.4373169,1.190918,3.0378418,2.2558594,4.7913818,3.1943359,1.7536011.9414062,3.3508301,1.9130859,4.7948608,2.9145508,1.4375,1.0048828,2.1596069,2.3193359,2.1596069,3.9462891,0,1.0048828-.4393311,1.7871094-1.3144531,2.3491211-.878418.565918-1.31427,1.3476562-1.31427,2.3496094v16.1645508c0,.7519531.5923462,1.3510742,1.7835693,1.7866211,1.1912231.4394531,2.472229.722168,3.8531494.8452148,1.3775024.1264648,2.6619873.0932617,3.8532104-.0927734,1.1912231-.1865234,1.7868042-.5922852,1.7868042-1.2211914v-32.5195312c0-.3759766-.0932617-.9082031-.2828369-1.597168-.1862793-.6884766-.4692383-1.4106445-.8451538-2.1625977-.3760376-.7519531-.7853394-1.3779297-1.2211914-1.8798828-.4425659-.4990234-.8451538-.7524414-1.2211914-.7524414h-17.6688232c-.878418,0-1.3175049.6289062-1.3175049,1.8803711ZM398.5757446,476.6435547c2.3789673,1.0649414,4.6983032,1.9433594,6.9542847,2.6318359,2.2561035.6889648,3.8198853,1.0317383,4.6983032,1.0317383h22.5568848c.3759155,0,1.034729-.4057617,1.9731445-1.2211914.9383545-.8120117,1.9098511-1.7539062,2.9147949-2.8183594,1.0016479-1.0649414,1.8800659-2.0961914,2.6286621-3.1010742.7521362-1.0014648,1.1279907-1.6938477,1.1279907-2.0698242,0-.6254883-.3460693-1.3442383-1.0314331-2.1591797-.6921387-.8154297-1.4108276-1.2250977-2.1629028-1.2250977h-46.0518188l-1.31427.565918c-.2529907.2529297-.5357666.5625-.8453369.9384766-.31604.3759766-.4723511.7519531-.4723511,1.1279297,0,.878418.9083862,1.8798828,2.7252197,3.0078125,1.8165894,1.1279297,3.9162598,2.2260742,6.2988281,3.2910156ZM413.9884644,519.9667969c2.3791504.3793945,4.0094604.565918,4.8878784.565918h34.3959961c1.0014648,0,1.6270142-.6357422,1.8798828-1.9101562.2495117-1.2744141.2827759-2.7050781.0932007-4.2954102-.1862793-1.5908203-.5323486-3.0546875-1.0314331-4.3891602-.5025635-1.3310547-1.0049438-2.0595703-1.5040283-2.1860352-.3760376-.1230469-1.2544556-.15625-2.6321411-.0932617-1.3807983.0629883-2.8847656.15625-4.5120239.2792969-1.6303101.1264648-3.1943359.2827148-4.6983032.4692383-1.5040283.1899414-2.5687866.2832031-3.1943359.2832031-1.5040283,0-2.2559204-1.284668-2.2559204-3.8535156,0-2.5654297.1230469-5.387207.3758545-8.4584961.2496948-3.0678711.3760376-5.8891602.3760376-8.4580078,0-2.565918-.7518921-3.8530273-2.2559204-3.8530273h-23.1190796c-1.2544556,0-1.8800659.6318359-1.8800659,1.8896484v19.4589844c0,1.2646484-.5955811,2.1425781-1.7868042,2.6455078-1.1912231.5053711-2.5089111.9482422-3.9464111,1.3242188-1.4440308.3759766-2.7584839.7885742-3.9464111,1.2275391-1.194519.4423828-1.7868042,1.2280273-1.7868042,2.362793s.9383545,2.1391602,2.8184204,3.0209961c1.8798828.8818359,4.0427856,1.6704102,6.4851685,2.362793,2.4423828.6918945,4.8547974,1.230957,7.2372437,1.6069336ZM431.4675293,524.8549805c0-1.2509766-.6256104-1.8798828-1.87677-1.8798828h-17.4823608c-1.2544556,0-1.8800659.6289062-1.8800659,1.8798828v33.6469727l.5657959,1.3144531,1.31427,1.3173828,1.31427.5625h16.1680908c1.2511597,0,1.87677-.6254883,1.87677-1.8798828v-34.9614258ZM472.8210449,524.8549805c0-1.2509766-.6289062-1.8798828-1.8800659-1.8798828h-16.3511353c-1.2544556,0-1.8798828.6289062-1.8798828,1.8798828v34.9614258c0,1.2543945.6254272,1.8798828,1.8798828,1.8798828h16.3511353c1.2511597,0,1.8800659-.6254883,1.8800659-1.8798828v-34.9614258ZM482.0313721,520.5327148h30.8254395c.7520752,0,1.5040283-.2827148,2.2561035-.8486328.7518921-.565918,1.4407349-1.2910156,2.0696411-2.1728516.6255493-.8818359,1.1279297-1.796875,1.5039673-2.7416992.3760376-.9453125.5623779-1.7304688.5623779-2.359375,0-4.4086914-.2828369-8.8505859-.8451538-13.3198242-.5657959-4.472168-1.2877197-8.8510742-2.1629028-13.1333008-.2529907-1.2578125-.878418-1.8896484-1.8800049-1.8896484h-23.3054199c-1.2544556,0-1.8800049.6318359-1.8800049,1.8896484v18.3242188c0,1.2646484-.5358276,2.3027344-1.59729,3.1210938-1.0679932.8183594-2.2559204,1.637207-3.5736084,2.4560547-1.31427.8183594-2.5054932,1.7631836-3.5703735,2.8310547-1.0646973,1.0751953-1.5971069,2.4257812-1.5971069,4.0629883,0,1.0117188.2495728,1.8901367.7519531,2.6455078.4990845.7583008,1.3144531,1.1347656,2.4423828,1.1347656ZM503.2738037,585.9433594c1.3742676,0,3.0346069-.5288086,4.9779053-1.597168,1.9431152-1.0615234,3.8231812-2.3789062,5.6400146-3.9462891,1.8167725-1.5639648,3.3838501-3.2573242,4.6983032-5.0742188,1.317688-1.8168945,1.9765625-3.4140625,1.9765625-4.7949219,0-.3759766-.3760376-.6855469-1.1281128-.9384766-.7519531-.2495117-1.6636353-.4990234-2.7252197-.7519531-1.0679932-.2495117-2.1328735-.5322266-3.1975708-.8452148-1.0647583-.3125-1.9099121-.7817383-2.5355225-1.4106445-.7520752-.7519531-1.3809204-1.1279297-1.8800049-1.1279297h-26.692749l-1.3143921.5654297c-.2528687.2495117-.3760376.6254883-.3760376,1.1245117,0,1.6308594,1.1879272,2.6323242,3.5703125,3.0083008,2.3791504.3759766,5.0444336.5957031,7.9893799.6586914,2.9412842.0634766,5.6066895.1264648,7.9891357.1894531,2.3791504.0634766,3.5703735.5957031,3.5703735,1.5976562,0,2.0063477-.3128052,3.9462891-.9384155,5.8261719-.6288452,1.8798828-.9416504,3.8232422-.9416504,5.8261719,0,.3759766.0932617.7519531.2828369,1.128418.1862793.3759766.5323486.5620117,1.0348511.5620117ZM415.9615479,496.5683594c.4393311,1.440918.8751831,2.8183594,1.317749,4.1323242.4358521,1.3178711.7186279,2.2260742.8451538,2.7255859l1.1279297.5654297c1.3775635,0,2.7850342.0336914,4.229248.0932617,1.4375.0664062,2.8482666.0932617,4.229248.0932617,1.3775024,0,2.1594238-.5625,2.3491211-1.6904297.1863403-1.1279297.2828369-2.1894531.2828369-3.1943359,0-2.003418-.4425659-3.6669922-1.317688-4.980957-.878418-1.3178711-2.036377-2.3793945-3.4771729-3.1977539-1.4407349-.8120117-3.0079956-1.3779297-4.6983032-1.6904297-1.6937866-.3129883-3.354126-.4692383-4.9813232-.4692383-1.0047607,0-1.5040283.4394531-1.5040283,1.3144531,0,.3759766.1564941,1.1611328.4692993,2.3491211.3128052,1.1943359.6886597,2.5087891,1.1279297,3.949707ZM497.5405884,500.2319336c.8118896,1.5039062,1.8468018,2.7915039,3.1010742,3.8530273,1.2512207,1.0683594,2.755249,1.597168,4.5087891,1.597168,2.0031128,0,4.0096436-.5620117,6.0160522-1.6904297,2.0031128-1.1279297,3.0079956-2.8183594,3.0079956-5.0742188,0-1.753418-.6288452-3.2910156-1.8800659-4.6049805-1.2544556-1.3178711-2.791687-2.3793945-4.6051025-3.1977539-1.8167725-.8120117-3.6968384-1.4077148-5.6399536-1.7836914-1.9432983-.3759766-3.6036377-.5654297-4.9813232-.5654297-1.2544556,0-1.8798828.6289062-1.8798828,1.8798828,0,1.3808594.1895752,2.9448242.5656128,4.6982422.3760376,1.7568359.9682007,3.3837891,1.7868042,4.8881836ZM188.4466553,536.6972656h-22.743042l-1.317688-.5625c-.2528076-.2495117-.3760376-.4990234-.3760376-.7519531,0-.2495117.12323-.4990234.3760376-.7519531.12323,0,.3427734-.0629883.6588745-.1894531.3095093-.1230469.5323486-.1865234.6588135-.1865234h23.1190796c.3760376,0,.8751221.1264648,1.5040283.3759766.6255493.2529297,1.0614014.5024414,1.3143921.7519531,0,.2529297-.4692383.5322266-1.4109497.8452148-.9381714.3129883-1.5339966.4692383-1.7835083.4692383ZM231.8665161,595.5297852h-63.72052l-.7520752.565918.7520752.7519531h64.8486328c.2495728,0,.4358521-.0634766.5623169-.1899414l-.3760376-.5620117-1.3143921-.565918ZM337.1269531,533.5029297c-.7519531-.4990234-2.0064087-1.5039062-3.7599487-3.0078125-1.7568359-1.5043945-3.6036377-3.0380859-5.5435181-4.6054688-1.9432983-1.5639648-3.7600708-2.9746094-5.4503784-4.2290039-1.6936035-1.2509766-2.791748-1.8803711-3.2908325-1.8803711-.6289062,0-1.4108276.565918-2.3491821,1.6904297-.9384155,1.128418-1.9731445,2.3828125-3.1010742,3.7602539-1.1281738,1.3808594-2.3826294,2.6318359-3.7601318,3.7597656-1.3809814,1.128418-2.8848267,1.6904297-4.5120239,1.6904297-.3760376,0-.6887207-.1860352-.9384155-.5620117-.2528076-.3759766-.3758545-.7524414-.3758545-1.128418v-22.3666992c0-1.1279297,1.034729-1.8168945,3.1010742-2.0698242,2.0663452-.2495117,4.4155273-.3095703,7.0474854-.1865234,2.6321411.1264648,5.1708984.3129883,7.6132812.5625,2.4456787.2529297,4.0427856.315918,4.7948608.1899414.2495728-.1235352.718689-.25,1.4075317-.3764648.6888428-.1230469,1.0348511-.4389648,1.0348511-.9414062,0-.3759766-.87854-1.3745117-2.6321411-3.0048828-1.7568359-1.6269531-3.7599487-3.3505859-6.0125732-5.1708984-2.2561035-1.8134766-4.3889771-3.4770508-6.3920898-4.980957-2.0064087-1.5039062-3.1943359-2.2558594-3.5703735-2.2558594-.7518921,0-1.7268677.7216797-2.9147949,2.1625977-1.1912231,1.440918-2.4157104,3.0380859-3.6668701,4.7915039-1.2510376,1.7568359-2.4422607,3.3540039-3.5703735,4.7949219-1.1279297,1.440918-1.9431152,2.1625977-2.4421997,2.1625977h-121.4285278c-1.0016479,0-1.5007324.4394531-1.5007324,1.3144531,0,1.3808594,1.1246948,2.0664062,3.3806152,2.0664062,2.2561035,0,4.7017822-.1230469,7.3304443-.3759766,2.632019-.2495117,5.0776978-.3427734,7.3336182-.2797852,2.2526855.0634766,3.3807983.7822266,3.3807983,2.159668v57.7080078c0,1.2514648-.6289062,1.8764648-1.8800659,1.8764648h-19.9214478c-.3759155.1269531-.8484497.3496094-1.4107666.6591797-.5656738.315918-.6588745.7851562-.2828369,1.4106445l.5656128.3759766c9.3966675,0,18.7002563-.1894531,27.9106445-.5654297s18.5172119-.5625,27.9138794-.5625c1.2512207,0,2.0664062-.2495117,2.4424438-.7519531-.5025635-.4990234-1.4075317-.71875-2.7252197-.6586914-1.31427.0664062-2.631958.159668-3.9464111.2827148-1.31427.1264648-2.4755249.159668-3.4771729.0932617-1.0048828-.0600586-1.5039673-.5922852-1.5039673-1.597168v-58.2705078c0-1.2509766.6255493-1.8798828,1.8800659-1.8798828h13.9086914c1.2511597,0,1.8800659.6289062,1.8800659,1.8798828v118.9829102c0,.1230469.0632324.3129883.1895752.565918v.5620117c0,.1230469.0599365.1894531.1862793.1894531.12323.3764648,1.4109497.6557617,3.8533325.8457031,2.4422607.1860352,5.104187.15625,7.9891968-.0932617,2.8815308-.2529297,5.5134888-.878418,7.8926392-1.8803711,2.3791504-1.0048828,3.5736084-2.5087891,3.5736084-4.5117188v-114.6606445c0-1.2509766.6256104-1.8798828,1.8800659-1.8798828h15.0366821c1.2511597,0,1.8800659.6289062,1.8800659,1.8798828v24.9995117c0,.6289062-.15979,1.1611328-.4725342,1.6000977-.3128052.4394531-.4691162.9716797-.4691162,1.597168,0,.6289062.156311,1.1279297.4691162,1.5039062.3127441.3764648.4725342.8789062.4725342,1.5043945v25.5610352c0,1.3808594-.5656128,2.1933594-1.6936035,2.4458008-1.1281128.2495117-2.4124146.3129883-3.8531494.1865234-1.440979-.1230469-2.7885132-.2163086-4.0396729-.2827148-1.2544556-.0600586-1.9465942.2827148-2.0696411,1.034668.6256104.3759766,2.4124146.6889648,5.3571777.9384766,2.9448242.2529297,6.1723633.4423828,9.6829224.5654297,3.5037231.1264648,6.8877563.2197266,10.1486206.2827148,3.2575684.0634766,5.4504395.0932617,6.5783691.0932617,5.0111694,0,9.9924316-.1230469,14.9436035-.3759766,4.947876-.2495117,9.9291992-.4990234,14.9436035-.7519531.4990845,0,1.0014648-.0629883,1.5040283-.1894531.4990845-.1235352.7518921-.4995117.7518921-1.128418,0-.875-.7518921-2.1591797-2.2559204-3.8530273-1.5040283-1.6904297-3.1943359-3.3505859-5.0744019-4.980957-1.8800049-1.6269531-3.7301025-2.9750977-5.546936-4.0395508-1.8165894-1.0649414-3.0378418-1.4111328-3.6633911-1.0351562-.2528687.1264648-.4093018.253418-.4691162.3764648-.0667114.1259766-.2230225.2524414-.4725952.3759766-.2528076.6289062-.7520752,1.6303711-1.5039673,3.0078125-.7520752,1.3808594-1.6270752,2.7583008-2.6287231,4.1362305-1.0048828,1.3803711-2.0063477,2.6020508-3.0079956,3.6630859-1.0049438,1.0683594-1.8800659,1.6005859-2.632019,1.6005859-.7520752,0-1.1279297-.5024414-1.1279297-1.5039062v-25.940918c0-1.2509766.6255493-1.8798828,1.8798828-1.8798828h29.5111694l1.8800049-.9384766.5623779-1.1279297-.7520752-1.1279297ZM230.8317871,534.4414062c-.8153687-.3759766-1.5339966-.4990234-2.1596069-.3759766-.3758545.1264648-1.2544556.2827148-2.631958.472168-1.3809814.1865234-2.0696411.4692383-2.0696411.8452148s.4723511.6557617,1.4107666.8452148c.9384155.1865234,1.9731445.3129883,3.1012573.3759766,1.1279907.0634766,2.1294556,0,3.0079956-.1894531.8751831-.1865234,1.31427-.5292969,1.31427-1.0317383-.5023804-.2495117-1.157959-.5654297-1.9730835-.9414062ZM330.7349854,592.5253906c-2.1295776-1.8803711-4.4154663-3.7900391-6.8579102-5.7333984-2.4456787-1.9433594-4.7015991-3.6967773-6.7679443-5.2641602-2.0663452-1.5668945-3.2908325-2.2856445-3.6668701-2.1625977-.1265259,0-.4393311.1264648-.9384155.3759766-.5023804.6289062-1.3475342,1.7568359-2.5387573,3.3837891-1.1911621,1.6303711-2.475647,3.3208008-3.8531494,5.0742188-1.3809814,1.7573242-2.6952515,3.3242188-3.9464111,4.7021484-1.2544556,1.3774414-2.1328735,2.0664062-2.631958,2.0664062h-32.1431274c-.2495728,0-.5956421.1259766-1.0316162.3754883-.4424438.253418-.6586914.5625-.6586914.9384766s.1895752.565918.5623169.565918h66.9182129c.2495728,0,.4991455-.0634766.7519531-.1899414.2495728-.1230469.3760376-.309082.3760376-.5620117-.2528076-.4990234-1.4440308-1.6938477-3.5736694-3.5703125ZM268.142334,536.5107422c.8751221.1264648,1.8168335.1567383,2.8217163.0932617,1.0016479-.0629883,1.9066162-.2163086,2.7252197-.4692383.8118896-.2495117,1.2843018-.4990234,1.4107666-.7519531-.2528076-.3759766-.8484497-.6586914-1.7868042-.8452148-.9416504-.1894531-1.9431152-.2827148-3.0079956-.2827148-1.0647583,0-2.0064087.0932617-2.8182983.2827148-.8186035.1865234-1.2244873.4692383-1.2244873.8452148.3758545.6289062,1.0014648,1.0048828,1.8798828,1.1279297ZM181.5869141,489.6928711c5.2666626-.8706055,10.3477173-2.7207031,15.1453857-4.9213867,1.6622925-.7509766,8.7539673-3.2456055,13.3295898-4.8066406v13.878418c0,.875,1.034729,1.4741211,3.1010742,1.7832031,2.0696411.3164062,4.4187622.3759766,7.0509644.1899414,2.6286621-.1899414,5.1341553-.5957031,7.5166016-1.2246094,2.3791504-.6254883,3.8831177-1.5009766,4.5120239-2.6289062.6256104-1.0014648,1.0614624-2.8515625,1.3143921-5.5463867.2495728-2.6918945.4058838-5.5737305.4724121-8.6450195.024292-1.2426758.0317993-2.4501953.036438-3.6518555,10.8987427-1.7255859,20.5546875-2.2397461,25.5663452-2.3476562,1.3959961-.0297852,3.8036499.0268555,6.8198853.1635742v22.09375c0,.6289062.2163086,1.0048828.6588745,1.1279297.4358521.1264648.9050903.1865234,1.4074707.1865234,1.1279907,0,2.8815308-.0263672,5.2639771-.0932617,2.3791504-.0600586,4.7948608-.2827148,7.2372437-.6586914s4.6052856-1.0014648,6.4851685-1.8764648c1.8800049-.8754883,2.8184204-2.0698242,2.8184204-3.5737305v-15.2705078c6.2807007.7543945,11.867981,1.6943359,14.9406128,2.7929688-.003479.0854492-.0095215.1679688-.0095215.2587891,0,.6289062.3127441.9418945.9383545.9418945h1.3023682c.0380859.0336914.0758057.0668945.1262817.1103516l.2166138-.1103516h28.1610718l.5656128-.7519531c-.3758545-.8754883-1.3175049-2.0664062-2.8215332-3.5703125-1.5040283-1.5043945-3.1644897-3.0380859-4.9811401-4.6049805-1.8168335-1.5673828-3.5703735-3.1015625-5.2608643-4.6054688-1.6936035-1.5039062-2.9780273-2.7553711-3.8531494-3.7597656l-1.1279907-.3764648-1.1279907.5625c-.6288452.7519531-1.4441528,1.8500977-2.4456787,3.2910156-1.0048828,1.4404297-2.0663452,2.9448242-3.1942749,4.5117188-1.1279907,1.5673828-2.2261353,3.0048828-3.2908325,4.3222656-1.0648804,1.3144531-1.9100342,2.1630859-2.5356445,2.5390625-.237854.1420898-.3739014.3081055-.4733887.4853516-1.6011963-1.0756836-3.324707-1.9174805-5.7926025-2.7607422-3.1068115-1.0620117-6.2224121-1.9824219-9.3363037-2.7949219v-8.0898438l.5656128-1.3144531c.3760376-.3754883.9384155-.9682617,1.6903076-1.7866211.7520752-.8120117,1.1279907-1.4707031,1.1279907-1.9731445,0-.4990234-.1895752-.8452148-.5621948-1.034668-.3760376-.1865234-.7520752-.3427734-1.1281128-.4692383-1.8798828-.4990234-3.7932129-.8120117-5.7330933-.9384766-1.9465942-.1230469-3.8865967-.1894531-5.8297119-.1894531-1.9432983,0-3.8831787-.0600586-5.8262939-.1865234-1.9432983-.1230469-3.8533936-.4389648-5.7332764-.9418945-.1264648,0-.2197266-.0297852-.279541-.0927734-.0665283-.0634766-.159729-.0932617-.2827759-.0932617-1.2544556,0-1.8800659.6889648-1.8800659,2.0664062v10.9355469c-11.4581909-1.0302734-22.4800415-.7719727-32.4752808.1865234-.0297241-1.6269531-.0438843-2.9575195-.0438843-3.9780273,0-1.3779297.3760376-2.4726562,1.1281128-3.2910156.7519531-.8120117,1.1279907-1.5341797,1.1279907-2.159668,0-.3759766-.2197266-.6254883-.6588745-.7519531-.43927-.1230469-.7819214-.2495117-1.0314331-.3759766-2.3826294-.6254883-4.8248291-1.0014648-7.3305054-1.1279297-2.5089111-.1230469-5.0144043-.3129883-7.5200195-.565918-1.3807983-.1230469-2.6619873-.309082-3.8532104-.5620117-1.1912231-.2495117-2.4754639-.3759766-3.8531494-.3759766-1.2544556,0-1.8798828.6289062-1.8798828,1.8798828v15.1235352c-7.8656006,1.7675781-14.1103516,3.7036133-18.0608521,5.168457-8.0082397,2.9838867-31.2022705,8.6674805-39.7720947,6.3125-1.9066772-.4741211-3.7619629-1.3139648-5.2408447-2.6176758-3.1229858-2.7675781-6.6271362-7.5859375-5.4418335-11.7705078.2059937-.6181641.6286011-1.5556641,1.0667114-1.9736328,1.4737549-1.4169922,2.9888306-.8808594,4.6687012-.293457,4.6019287,1.5561523,7.5598755,4.2719727,11.862793.1289062,2.2366333-2.1489258,1.3245239-5.5756836-.8347168-7.487793-4.0349731-3.5712891-10.6878662-2.2109375-14.3364258,1.3037109-7.6834717,7.3950195-2.9372559,15.3208008,3.3909302,21.7260742.1134033.1030273.2268066.2011719.3400269.3041992,8.8069458,7.796875,22.0662842,10.5693359,33.8826294,8.6469727Z" fill="#fff"/>
</svg>