<?xml version="1.0" encoding="UTF-8"?>
<svg xmlns="http://www.w3.org/2000/svg" version="1.1" viewBox="0 0 1080 1080">
  <!-- Generator: Adobe Illustrator 28.7.3, SVG Export Plug-In . SVG Version: 1.2.0 Build 164)  -->
  <g>
    <g id="bg">
      <rect x="-7018.531443" y="-6340.7" width="8306.831443" height="7747.2" fill="#191919"/>
    </g>
    <g id="tanso_joined">
      <path d="M939.9999596,425.3503877h-34.0643807c0-13.4285502-10.8861227-24.3144635-24.3144635-24.3144635s-24.3144635,10.8859133-24.3144635,24.3144635h-34.0643807c0-32.2417176,26.137755-58.3788442,58.3788442-58.3788442,32.2419271,0,58.3788442,26.1371265,58.3788442,58.3788442ZM881.6211155,678.9640758c-13.4283407,0-24.3144635-10.8859133-24.3144635-24.3144635h-34.0643807c0,32.2417176,26.137755,58.3788442,58.3788442,58.3788442,32.2419271,0,58.3788442-26.1371265,58.3788442-58.3788442h-34.0643807c0,13.4285502-10.8861227,24.3144635-24.3144635,24.3144635ZM804.5223793,539.9999273c0,37.6030828-30.4835736,68.0866564-68.0866564,68.0866564-37.6032923,0-68.0866564-30.4835736-68.0866564-68.0866564,0-37.6032923,30.4833641-68.0866564,68.0866564-68.0866564,37.6030828,0,68.0866564,30.4833641,68.0866564,68.0866564ZM774.9020621,539.9999273c0-21.2443624-17.2219769-38.4663393-38.4663393-38.4663393s-38.4663393,17.2219769-38.4663393,38.4663393,17.2219769,38.4663393,38.4663393,38.4663393,38.4663393-17.2219769,38.4663393-38.4663393ZM383.234615,538.7221643c0-38.2629367-33.124665-68.7892437-72.2619604-64.466677-29.7478889,3.2854439-53.7950592,27.3324047-57.0805031,57.0800841-4.3225666,39.1375049,26.2037404,72.2623793,64.4668865,72.2623793,7.654724,0,14.9667429-1.3947007,21.7852331-3.8294568v-33.3626313c-7.2273901,5.6952722-16.710433,8.6566545-26.9159636,7.2062328-15.2342456-2.1651586-27.5515181-14.4168647-29.7460036-29.6469208-3.7322593-25.9010455,20.7227636-47.4261076,47.2002909-38.4081045,13.9612513,4.754928,22.9319125,18.4145319,22.9319125,33.1632088v52.623033c0,8.1792555,6.6305889,14.8100538,14.8100538,14.8100538s14.8100538-6.6307984,14.8100538-14.8100538v-52.6209382h0v-.0002095ZM432.6926536,546.231092c-8.1794649,0-14.8102633,6.6305889-14.8102633,14.8100538v42.7199878h29.6203171v-42.7199878c0-8.1794649-6.6305889-14.8100538-14.8100538-14.8100538ZM472.8630917,475.1241901c-30.3650094,0-54.9804919,24.615692-54.9804919,54.9804919v.0002095h29.6201077v-.0002095c0-14.0060795,11.3543048-25.3601748,25.3603843-25.3601748s25.3603843,11.3540953,25.3603843,25.3601748v73.6564516h29.6203171v-73.6564516c0-30.3647999-24.615692-54.9804919-54.9807014-54.9804919ZM218.009787,503.6300737h19.0916006v-27.5227948h-97.1013876v27.5227948h33.8063395v100.1311145h29.4887087v-85.4163757c0-8.1267259,6.588013-14.7147389,14.7147389-14.7147389ZM837.2672441,491.9034599l17.0321903,29.983551,17.0326093-29.983132c-9.3498153-16.4592696-14.0253514-34.771367-14.0253514-53.0832549h-34.0643807c0,18.3116784,4.6746982,36.6237758,14.0249324,53.0828359ZM881.6211558,569.9832368l17.0321903-29.983132,27.3217214-48.0966448c9.3502343-16.4590601,14.0249324-34.7711575,14.0249324-53.0828359h-34.0643807c0,18.3116784-4.6746982,36.6235664-14.0249324,53.0826265l-10.289531,18.1135128-17.0321903,29.9833415-27.3217214,48.0968543c-9.3498153,16.4590601-14.0249324,34.7707385-14.0249324,53.082417h34.0643807c0-18.3120974,4.6755361-36.6239853,14.0249324-53.0832549l10.289531-18.1128844ZM925.9754865,588.0969591l-17.0326093-29.9837605-17.0321903,29.9833415v.0002095c9.3502343,16.4590601,14.0249324,34.7707385,14.0249324,53.0826265h34.0643807c0-18.3116784-4.6746982-36.6233569-14.0245135-53.082417ZM601.3211555,472.5690582c-11.0963268,0-20.5333502,3.6262783-28.3089482,10.8777741-7.6016045,7.2536176-11.4018763,16.4275289-11.4018763,27.5227948,0,8.3877579,2.227965,15.2488293,6.6838951,20.5768486,3.4936614,4.193879,9.5218982,8.3877579,18.0868324,12.5816369,3.0565558,1.4874319,6.0717352,2.9281826,9.0423553,4.325435,2.9695591,1.3983133,5.9412401,2.840125,8.9129211,4.3243741,7.6875403,4.5450487,11.5334324,9.4370234,11.5334324,14.6791068,0,9.0879755-4.9810933,13.6309023-14.9411579,13.6309023-4.9800323,0-9.261969-1.6593035-12.843688-4.9810933-1.8354188-1.6582426-4.5015503-5.547633-7.9952117-11.6639275l-25.1632737,11.6639275c8.9118602,20.8845199,24.069449,31.3241275,45.4780712,31.3241275,12.4935792,0,23.1528005-3.9254622,31.9787249-11.7816913,9.0858536-8.2890909,13.6298414-18.5875941,13.6298414-30.8933876,0-9.5982856-2.7085689-17.2338401-8.1257068-22.9066634-5.4181988-5.6728234-15.9458641-11.8676271-31.5851177-18.588655-11.3594389-4.7996733-17.0386279-9.6428449-17.0386279-14.5305758,0-2.7913219.9612078-5.0808212,2.8836233-6.8706198,1.9213546-1.7897986,4.2373773-2.6852283,6.9459462-2.6852283,5.679189,0,10.4406686,3.8893904,14.2865606,11.6649884l24.3771204-12.975244c-7.9517133-16.8625126-20.0973056-25.2948298-36.4357159-25.2948298Z" fill="#fff"/>
    </g>
  </g>
</svg>