<?xml version="1.0" encoding="UTF-8"?>
<svg xmlns="http://www.w3.org/2000/svg" version="1.1" viewBox="0 0 1080 1080">
  <!-- Generator: Adobe Illustrator 28.7.3, SVG Export Plug-In . SVG Version: 1.2.0 Build 164)  -->
  <g>
    <g id="crooked">
      <path d="M307.7924805,454.1357422c-.1967773-.7871094-.7216797-2.0332031-1.1806641-2.9492188,5.3764648.1972656,10.0966797.1972656,11.3432617.0654297,1.3745117-.0654297,1.8994141-.4589844,1.8994141-1.8369141v-46.9384766h-28.9101562v-3.0146484h38.0883789v3.0146484h-6.0981445v46.9384766c0,2.7529297-.9150391,3.7363281-2.8833008,4.2617188-1.965332.5244141-5.5703125.5244141-12.2587891.4589844ZM274.9492188,400.5117188h10.8154297c-1.5712891,4.5234375-3.8676758,10.2900391-6.2260742,15.5351562,5.3105469,5.5732422,6.7509766,10.2285156,6.7509766,14.0957031,0,2.03125-.3935547,4.1308594-1.5717773,4.9150391-.5244141.3935547-1.3115234.5898438-2.1645508.5898438-1.1806641.1318359-2.6870117.0654297-4.4580078-.0654297.590332.9189453.918457,2.0996094.9838867,2.8867188,1.5087891.1308594,3.1459961.1308594,4.5234375,0,1.246582-.1318359,2.3588867-.5253906,3.2119141-1.1152344,1.7055664-1.1806641,2.3613281-3.9335938,2.3613281-7.0136719,0-4.2617188-1.3115234-9.1132812-6.4912109-14.6865234,2.3613281-5.3105469,4.9824219-11.6679688,7.0136719-16.9130859l-2.03125-1.3125-.5244141.1318359h-15.1425781v56.6416016h2.9492188v-53.6894531ZM311.6601562,412.8359375v22.8769531h-15.2080078v5.5078125h-2.8837891v-28.3847656h18.0917969ZM308.7109375,415.6533203h-12.2587891v17.1767578h12.2587891v-17.1767578ZM336.5229492,431.1240234h18.2910156c-.590332-1.5058594-1.9677734-3.7363281-3.3457031-5.1767578l1.8369141-.5898438h-9.6376953v-11.34375h42.5463867v11.34375h-11.0776367l2.6865234.8525391c-1.0493164,1.6367188-2.0961914,3.4082031-3.1459961,4.9140625h17.8979492v2.6894531h-56.0517578v-2.6894531ZM383.1337891,422.8642578v-6.2919922h-36.4511719v6.2919922h36.4511719ZM357.7631836,430.2089844l-2.5585938.9150391h16.1293945c1.1782227-1.7685547,2.5556641-4.1298828,3.3427734-5.7666016h-20.3217773c1.5712891,1.4394531,2.9492188,3.4082031,3.4082031,4.8515625ZM336.5229492,402.3457031h26.4199219v4.8515625h-22.2246094v2.6210938h47.9858398v-2.6210938h-22.6152344v-4.8515625h26.9418945v-2.6220703h-26.9418945v-4.9169922h-3.1459961v4.9169922h-26.4199219v2.6220703ZM386.9355469,453.8076172v-2.1650391h-15.9951172v2.4277344h-2.8862305v-16.4550781h21.8959961v16.1923828h-3.0146484ZM386.9355469,449.0214844v-8.7841797h-15.9951172v8.7841797h15.9951172ZM356.2543945,451.1865234c-.918457,0-3.6708984,0-6.6201172-.328125.3935547.7841797.7216797,1.8339844.7875977,2.6210938,2.8178711.1972656,5.5043945.1972656,6.8823242.1972656,1.5087891-.0654297,2.4243164-.328125,3.2768555-1.1806641,1.246582-1.1123047,1.9023438-4.1962891,2.6899414-11.7998047.0625-.4589844.128418-1.3779297.128418-1.3779297h-13.1088867c.3276367-1.5058594.5874023-3.0800781.7841797-4.7832031h-2.9492188c-.1313477,1.7685547-.3935547,3.2773438-.7216797,4.7832031h-10.2905273v2.6240234h9.4379883c-1.7026367,4.7207031-5.1113281,7.9980469-11.668457,10.09375.590332.4599609,1.5087891,1.5087891,1.8369141,2.1650391,7.4072266-2.4267578,11.012207-6.3603516,12.8491211-12.2587891h10.6186523c-.590332,5.6357422-1.2436523,7.9980469-1.9648438,8.7851562-.394043.4589844-.984375.4589844-1.9682617.4589844ZM404.8476562,453.8076172c3.6708984-4.4580078,7.9975586-10.4248047,11.4746094-15.5361328l-1.902832-2.2958984c-3.8017578,5.3769531-8.5878906,11.6025391-11.9306641,15.2109375l2.3588867,2.6210938ZM404.5195312,412.3105469c3.7363281,2.1621094,8.5878906,5.2451172,11.0151367,7.2109375l2.0307617-2.359375c-2.5556641-1.9023438-7.4072266-4.8515625-11.1435547-6.8847656l-1.9023438,2.0332031ZM417.5654297,433.0263672c.7871094.3935547,2.0996094,1.3779297,2.6899414,1.8339844,3.8676758-4.4550781,7.4072266-11.2089844,9.503418-18.0917969l-3.0805664-.7216797c-1.9023438,6.4238281-5.1137695,12.71875-9.112793,16.9794922ZM417.237793,409.6865234h3.0830078v-5.6357422h8.5224609v-2.8867188h-8.5224609v-6.4228516h-3.0830078v6.4228516h-15.4707031v2.8867188h15.4707031v5.6357422ZM419.2714844,453.8730469c18.1567383-3.1455078,28.909668-10.359375,33.3676758-22.9453125l-3.0146484-1.046875c-4.3266602,11.7988281-14.4892578,18.484375-32.059082,21.109375.7216797.7841797,1.3779297,1.9648438,1.7060547,2.8828125ZM439.7900391,409.6865234h3.1459961v-5.6357422h15.8637695v-2.8867188h-15.8637695v-6.4228516h-3.1459961v6.4228516h-8.3256836v2.8867188h8.3256836v5.6357422ZM458.7998047,431.0585938c-1.5712891-4.1953125-5.6357422-10.5537109-9.6347656-15.2080078l-2.6240234,1.3115234c3.9335938,4.7207031,7.8666992,11.1435547,9.3754883,15.3398438l2.8833008-1.4433594ZM436.1850586,410.8017578v26.6171875h3.0800781v-26.6171875h-3.0800781ZM414.2226562,427.9785156c-2.6865234-1.7685547-7.8662109-4.3925781-11.7338867-6.1611328l-1.8369141,2.2275391c3.9990234,1.8369141,8.9819336,4.5234375,11.668457,6.4228516l1.9023438-2.4892578ZM479.3959961,428.5683594c2.2304688,0,4.3266602-1.8369141,4.3266602-4.3925781,0-2.4892578-2.0961914-4.3261719-4.3266602-4.3261719-2.2275391,0-4.3266602,1.8369141-4.3266602,4.3261719,0,2.5556641,2.0991211,4.3925781,4.3266602,4.3925781ZM533.5566406,431.8457031h-11.078125c-1.6401367,11.5371094-6.0981445,18.8164062-21.3061523,22.4208984-.262207-.8525391-1.1806641-2.2304688-1.8364258-2.8173828,14.2919922-3.0175781,18.3564453-9.5722656,19.796875-19.6035156h-11.078125v-18.4199219h18.8164062v-8.5878906h-26.2890625v-2.9521484h26.2890625v-7.2099609h3.1459961v7.2099609h26.7451172v2.9521484h-26.7451172v8.5878906h19.2724609v18.4199219h-12.5214844v16.5195312c0,1.7714844.590332,2.1650391,3.6708984,2.1650391h11.1464844c2.9492188,0,3.4082031-1.3769531,3.6708984-10.0966797.8525391.5908203,2.0961914,1.1806641,3.0146484,1.3779297-.4589844,9.5058594-1.4433594,11.7333984-6.4233398,11.7333984h-11.5400391c-5.2421875,0-6.7509766-1.0488281-6.7509766-5.1796875v-16.5195312ZM546.1435547,428.8964844v-12.5869141h-35.0083008v12.5869141h35.0083008ZM602.734375,442.5332031v-29.8291016h-3.0151367v29.8291016h3.0151367ZM566.4169922,448.3652344c4.7202148-3.8671875,9.8969727-10.6835938,13.5708008-17.765625v23.5361328h3.0146484v-20.6503906c3.4086914,2.6875,8.5883789,7.2109375,10.487793,9.1132812l2.0336914-2.5585938c-1.8369141-1.5058594-9.769043-7.5380859-12.5214844-9.5068359v-3.4736328h12.7182617v-2.8837891h-12.7182617v-9.5712891c4.5239258-.8535156,8.6538086-1.7685547,11.8652344-2.8837891l-2.4897461-2.2929688c-5.6391602,2.0957031-16.7827148,3.7363281-25.8955078,4.6513672.4594727.65625.8530273,1.7714844.984375,2.4931641,3.9985352-.328125,8.3251953-.8525391,12.5209961-1.5087891v9.1123047h-14.1611328v2.8837891h12.9145508c-3.4736328,7.4755859-9.3095703,15.1455078-14.5546875,18.9472656.7871094.5908203,1.6401367,1.5712891,2.2304688,2.3583984ZM605.5522461,408.5087891h3.0830078v-5.5732422h14.4868164v-2.8183594h-14.4868164v-5.3105469h-3.0830078v5.3105469h-10.0283203v2.8183594h10.0283203v5.5732422ZM613.8779297,451.1210938c-.9814453,0-4.5864258.0654297-8.7822266-.0654297.5219727.9150391,1.046875,2.2275391,1.2436523,3.0800781,5.0483398.0654297,8.0629883,0,9.8344727-.5908203,1.5742188-.5244141,2.2275391-1.4423828,2.2275391-3.8671875v-40.4472656h-3.0805664v40.5126953c0,1.0498047-.3276367,1.3125-1.4428711,1.3779297ZM579.659668,408.4433594h3.0805664v-5.5078125h9.8999023v-2.8183594h-9.8999023v-5.3759766h-3.0805664v5.3759766h-13.9643555v2.8183594h13.9643555v5.5078125ZM667.7163086,432.8300781l-2.8837891-.5908203c-1.246582,5.7041016-3.4082031,11.2089844-6.4887695,15.1425781.7841797.328125,2.1621094.9179688,2.7524414,1.3115234,2.8178711-3.9326172,5.1796875-9.7685547,6.6201172-15.8632812ZM680.171875,432.8300781c2.6240234,4.6542969,5.3764648,10.8808594,6.5571289,15.0107422l2.6870117-1.1123047c-1.1152344-3.9335938-3.9335938-10.2275391-6.6201172-14.8828125l-2.6240234.984375ZM672.2397461,414.2109375c-3.0805664,4.1298828-5.8984375,7.34375-7.2104492,8.6533203-2.0991211,2.2958984-3.8017578,3.9326172-5.0483398,4.1298828.3935547.8525391.8530273,2.4267578.9838867,3.0830078.984375-.3935547,2.4243164-.65625,11.5371094-1.7050781v21.5683594c0,.6552734-.1962891.8525391-.9179688.9179688-.71875,0-3.0151367,0-5.8984375-.0654297.4589844.8496094.918457,2.03125,1.1123047,2.8837891,3.4765625,0,5.7041016,0,7.0166016-.5253906,1.3115234-.5898438,1.7026367-1.3769531,1.7026367-3.2763672v-21.8964844l8.5878906-.9189453c.6557617,1.6396484,1.1806641,3.0830078,1.5087891,4.3271484l2.6210938-1.2441406c-1.0463867-3.8046875-3.9985352-9.8339844-7.0131836-14.3574219l-2.4902344,1.0498047c1.5712891,2.3583984,3.0146484,5.1132812,4.2612305,7.734375l-17.5698242,1.7685547c5.9638672-5.9638672,11.996582-13.7646484,17.3730469-21.8935547l-2.7553711-1.5742188c-1.7026367,2.8837891-3.6708984,5.7695312-5.6357422,8.4570312l-9.9003906.9833984c3.3427734-4.3261719,6.7514648-9.9648438,9.5722656-15.5351562l-2.8862305-1.3125c-2.5556641,6.1611328-6.9482422,12.7832031-8.2602539,14.4863281-1.309082,1.7060547-2.293457,2.8867188-3.2114258,3.0830078.3276367.7841797.7871094,2.2939453.9838867,2.9492188.8530273-.3935547,2.3588867-.7216797,11.5371094-1.7705078ZM636.644043,436.7626953l-2.7553711-.5898438c-1.0463867,5.3105469-2.5551758,11.1435547-4.4580078,15.2763672.7875977.2597656,2.1650391.71875,2.6899414.9804688,1.637207-4.0644531,3.3427734-10.1591797,4.5234375-15.6669922ZM642.6083984,416.5068359c-3.2119141,4.1953125-6.0957031,7.5380859-7.3417969,8.9160156-2.2275391,2.3583984-3.9331055,4.1298828-5.2451172,4.3916016.3935547.7851562.918457,2.359375,1.0493164,3.0810547,1.246582-.65625,3.2773438-1.1152344,21.5029297-3.9335938.4594727,1.3125.7871094,2.5556641,1.0498047,3.6054688l2.6865234-.9189453c-.7216797-3.2109375-2.7524414-8.6533203-4.7856445-12.7832031l-2.5556641.65625c.9838867,2.0986328,1.9648438,4.5888672,2.7519531,6.9482422l-15.9291992,2.2958984c6.0952148-6.2294922,12.1928711-14.2929688,17.6352539-22.5527344l-2.7553711-1.5712891c-1.7685547,3.0146484-3.8022461,6.0947266-5.8984375,8.9160156l-10.0966797.9804688c4.3266602-5.0449219,8.6533203-11.8652344,12.3901367-18.5507812l-2.8837891-1.3115234c-3.4082031,7.2753906-8.9160156,15.0761719-10.5561523,16.9794922-1.5717773,2.0302734-2.8833008,3.4736328-3.9985352,3.6708984.3935547.8525391.8525391,2.2958984,1.0493164,3.0146484.918457-.3935547,2.4272461-.71875,11.9311523-1.8339844ZM643.3955078,450.4648438l2.7519531-.5898438c-.262207-3.8027344-1.1777344-9.5722656-2.0961914-14.0302734l-2.5556641.5244141c.8500977,4.3925781,1.703125,10.2285156,1.8999023,14.0957031ZM649.4277344,435.2539062c1.637207,3.9990234,3.4741211,9.3095703,4.1958008,12.7177734l2.6210938-.9150391c-.7871094-3.4111328-2.6210938-8.5878906-4.3925781-12.5869141l-2.4243164.7841797ZM737.6123047,407.984375h3.0834961v-5.4423828h13.5678711v-2.8837891h-13.5678711v-4.8515625h-3.0834961v4.8515625h-10.8808594v2.8837891h10.8808594v5.4423828ZM752.4296875,432.4365234v-9.4414062h-15.7353516c1.2460938-2.2275391,2.5581055-4.9169922,3.7392578-7.3417969l-3.0834961-1.0488281c-.9155273,2.4267578-2.5556641,5.9667969-3.8676758,8.390625h-17.4384766l.8530273-.2626953c-.65625-2.2275391-2.3588867-5.5703125-4.1298828-7.9316406l-2.7524414.7871094c1.5712891,2.2304688,3.0800781,5.1796875,3.7363281,7.4072266h-15.4707031v9.4414062h3.0151367v-6.6201172h22.3554688v6.3574219h-19.0126953v18.4882812h3.0146484v-15.6699219h15.9980469v19.1435547h3.0805664v-19.1435547h16.2573242v11.2119141c0,.7871094-.262207.9833984-1.1806641.9833984-.918457.0634766-3.8676758.0634766-7.6694336,0,.4589844.8505859.918457,1.8994141,1.0493164,2.8183594,4.5893555,0,7.4072266,0,8.9819336-.5253906,1.5058594-.5244141,1.8994141-1.3769531,1.8994141-3.2763672v-14.0302734h-19.3378906v-6.3574219h22.6152344v6.6201172h3.0830078ZM709.3583984,407.9189453h3.0805664v-5.3769531h11.3432617v-2.8837891h-11.3432617v-4.9169922h-3.0805664v4.9169922h-12.5869141v2.8837891h12.5869141v5.3769531ZM725.0913086,411.4580078h-25.9609375v2.7529297h52.3808594v-2.7529297h-23.4023438c-.590332-1.7714844-1.8369141-4.2607422-3.0830078-6.0976562l-2.5556641.9179688c.9838867,1.5742188,1.965332,3.4736328,2.6210938,5.1796875ZM792.4467773,448.4912109c-4.8115234,0-8.2915039-.3027344-10.9980469-2.0195312-.4736328-.3447266-.9438477-.6445312-1.3745117-.9462891,8.8500977-5.3681641,18.4736328-14.3896484,23.7587891-22.2109375l-2.1479492-1.4599609-.6015625.1708984h-29.6860352v2.7929688h27.5810547c-4.8544922,6.6162109-13.6191406,14.5205078-21.4829102,19.0751953-.2138672-.0429688-.4277344-.0859375-.6445312-.0859375-2.1479492,0-4.8544922,2.3193359-7.6899414,5.3710938l2.1479492,2.578125c2.1079102-2.8378906,4.1245117-5.2851562,5.4990234-5.2851562.9467773,0,2.2788086,1.4179688,3.9960938,2.4902344,2.8349609,1.8486328,6.3603516,2.3212891,11.5571289,2.3212891,4.081543,0,11.6000977-.2587891,14.8227539-.4726562.0429688-.8164062.5136719-2.3193359.815918-3.0498047-4.1245117.3857422-10.4389648.7304688-15.5532227.7304688ZM792.019043,420.3085938c-.8613281-1.8056641-2.8808594-4.7685547-4.5976562-7.0019531l-2.4926758,1.2861328c1.6767578,2.2363281,3.6108398,5.328125,4.5117188,7.1757812l2.5786133-1.4599609ZM345.8066406,571.4462891h158.074707v7.7861328h-121.0380859v118.3535156c0,4.2929688,1.3378906,5.6357422,6.1728516,5.9023438,4.5595703.2705078,40.5830078.1992188,40.5830078.1992188l-3.2797852,7.3154297s-36.7695312.2705078-42.9423828-1.3417969c-6.1728516-1.609375-8.3193359-4.5595703-8.3193359-12.0751953v-118.3535156h-29.2509766v86.4150391h-66.0209961v37.5693359h-7.7856445v-212.8212891h73.8066406v81.0507812ZM304.4726562,579.2285156h-24.6870117v78.6328125h24.6870117v-78.6328125ZM304.4726562,498.1816406h-24.6870117v73.2646484h24.6870117v-73.2646484ZM338.0209961,579.2285156h-25.7626953v78.6328125h25.7626953v-78.6328125ZM338.0209961,498.1816406h-25.7626953v73.2646484h25.7626953v-73.2646484ZM495.8291016,504.6210938v-7.78125h-61.4570312c1.6088867-8.0527344,2.6801758-17.1767578,3.2177734-27.1083984h-8.0527344c-.5332031,9.9316406-1.6088867,19.0556641-3.2177734,27.1083984h-58.7768555v7.78125h57.1640625c-7.5107422,28.7177734-24.6870117,44.5517578-64.1411133,53.9423828,1.8798828,1.3417969,4.2929688,4.5634766,5.1015625,6.1728516,33.0102539-8.3193359,50.9912109-20.9316406,60.9194336-42.1347656,21.7397461,12.8837891,46.96875,29.5224609,60.6523438,40.2587891l5.3681641-6.1728516c-14.2211914-10.7363281-41.0585938-27.9130859-63.0698242-40.7958984,1.3422852-3.2177734,2.4174805-7.2441406,3.2216797-11.2705078h63.0703125ZM411.8271484,604.1904297h68.4345703v77.0244141h-8.0488281v-16.1015625h-60.3857422v-60.9228516ZM419.8759766,657.328125h52.3369141v-45.3564453h-52.3369141v45.3564453ZM566.4179688,556.4169922c0,45.3554688-3.4887695,109.2304688-30.3261719,154.8564453-1.3422852-1.6123047-4.8310547-3.2216797-6.7109375-4.0253906,26.5712891-45.3564453,29.2553711-106.546875,29.2553711-150.8310547v-72.1943359h192.4272461v52.8710938h-184.6455078v19.3232422ZM566.4179688,529.3125h176.8637695v-37.3037109h-176.8637695v37.3037109ZM668.9375,654.6435547h79.4418945v-7.78125h-79.4418945v-31.3720703l3.4926758.2412109c61.1904297,3.7548828,68.7050781,4.5595703,73.5356445,5.9013672.5380859-2.1464844,1.3422852-6.9765625,2.6845703-9.390625-4.0263672-.5371094-8.8574219-2.9550781-14.4921875-7.5146484-5.1015625-4.0263672-22.0068359-18.2509766-35.9614258-34.0849609h62.2612305v-7.7822266h-187.3300781v7.7822266h113.2568359c14.4921875,15.5664062,29.2548828,29.2548828,43.7470703,39.9873047l-118.0874023-6.7109375c9.3950195-7.5107422,19.3227539-15.5625,28.984375-22.0068359l-5.9018555-4.2929688c-20.9355469,13.6875-45.355957,33.8154297-57.7016602,47.2363281l6.1728516,5.3681641c4.5600586-5.3681641,11.8081055-11.8085938,19.3227539-18.7890625l58.2348633,3.5458984v31.8818359h-76.2197266v7.78125h76.2197266v39.7207031h-98.7641602v7.7822266h243.484375v-7.7822266h-136.9384766v-39.7207031ZM796.2587891,484.2236328c-5.1889648-.0263672-8.8955078,3.9414062-8.8955078,9.0234375,0,2.9560547,1.3037109,5.5488281,3.4511719,7.2080078l.4599609-.6220703c-1.9428711-1.4775391-3.1699219-3.8115234-3.1699219-6.5859375,0-4.6669922,3.4765625-8.1679688,8.1542969-8.1679688,4.6772461,0,8.1538086,3.4482422,8.1538086,8.0117188,0,2.5673828-1.0737305,4.7460938-2.8881836,6.2236328l.4599609.6220703c1.9936523-1.6591797,3.1694336-4.0966797,3.1694336-6.8457031,0-4.9775391-3.706543-8.8417969-8.8950195-8.8671875ZM787.5678711,512.1972656l4.6264648-3.9414062c-.0507812-.4667969-.1020508-.9853516-.1020508-1.5292969v-2.4892578h-4.5244141v-.8300781h17.3813477v3.3193359c0,4.71875-2.8881836,7.0527344-6.4414062,7.0527344-2.8881836,0-5.3164062-1.5556641-6.1342773-4.6416016l-4.8056641,4.0966797v-1.0371094ZM792.8081055,506.6220703c0,4.5117188,2.5556641,6.3271484,5.699707,6.3271484s5.7260742-1.8671875,5.7260742-6.3271484v-2.3847656h-11.4257812v2.3847656ZM787.3632812,525.1894531c0-4.9785156,3.7578125-9.0234375,8.8955078-9.0234375s8.8950195,4.0449219,8.8950195,9.0234375-3.7573242,9.0234375-8.8950195,9.0234375-8.8955078-4.0449219-8.8955078-9.0234375ZM788.1044922,525.1894531c0,4.6669922,3.4765625,8.1679688,8.1542969,8.1679688,4.6772461,0,8.1538086-3.5009766,8.1538086-8.1679688,0-4.6679688-3.4765625-8.1679688-8.1538086-8.1679688-4.6777344,0-8.1542969,3.5-8.1542969,8.1679688ZM787.3632812,545.4824219c0-4.9785156,3.7578125-9.0234375,8.8955078-9.0234375s8.8950195,4.0449219,8.8950195,9.0234375-3.7573242,9.0234375-8.8950195,9.0234375-8.8955078-4.0449219-8.8955078-9.0234375ZM788.1044922,545.4824219c0,4.6669922,3.4765625,8.1679688,8.1542969,8.1679688,4.6772461,0,8.1538086-3.5009766,8.1538086-8.1679688s-3.4765625-8.1679688-8.1538086-8.1679688c-4.6777344,0-8.1542969,3.5009766-8.1542969,8.1679688ZM787.5678711,569.2890625l8.7675781-7.4941406,8.6137695,6.8720703v-.9599609l-11.0678711-8.8417969h11.0678711v-.8300781h-17.3813477v.8300781h5.1889648l2.9907227,2.4111328-8.1796875,6.9492188v1.0634766ZM804.9492188,572.4638672h-.7158203v9.3349609h-9.8916016v-8.375h-.7158203v8.375h-5.3422852v-9.6982422h-.7158203v10.5273438h17.3813477v-10.1640625ZM804.9492188,589.6015625c0,5.9121094-3.5527344,9.3349609-8.6904297,9.3349609s-8.690918-3.3964844-8.690918-9.3349609v-3.9404297h17.3813477v3.9404297ZM804.2080078,586.4902344h-15.8989258v2.9824219c0,5.7304688,3.2719727,8.6083984,7.949707,8.6083984,4.6772461,0,7.9492188-2.8779297,7.9492188-8.6083984v-2.9824219ZM804.9492188,609.3574219v-.8300781h-17.3813477v.8300781h6.0581055v10.5273438h-6.0581055v.8300781h17.3813477v-.8300781h-10.6074219v-10.5273438h10.6074219ZM787.3632812,633.2558594c0-4.9785156,3.7578125-9.0244141,8.8955078-9.0244141s8.8950195,4.0458984,8.8950195,9.0244141-3.7573242,9.0234375-8.8950195,9.0234375-8.8955078-4.0449219-8.8955078-9.0234375ZM788.1044922,633.2558594c0,4.6669922,3.4765625,8.1679688,8.1542969,8.1679688,4.6772461,0,8.1538086-3.5009766,8.1538086-8.1679688,0-4.6679688-3.4765625-8.1679688-8.1538086-8.1679688-4.6777344,0-8.1542969,3.5-8.1542969,8.1679688ZM793.293457,657.2822266h11.6557617v-.8291016h-11.5791016c-3.4248047,0-5.2910156-2.1005859-5.2910156-5.0302734,0-2.9306641,1.8662109-4.9785156,5.2910156-4.9785156h11.5791016v-.8300781h-11.6557617c-3.859375,0-5.9301758,2.4892578-5.9301758,5.8085938,0,3.3183594,2.0708008,5.859375,5.9301758,5.859375ZM791.7089844,671.125c2.3515625,0,3.7060547-1.2451172,5.1376953-4.2011719l.7666016-1.5820312c1.1245117-2.3330078,1.8149414-3.3964844,3.706543-3.3964844,1.7890625,0,3.1181641,1.4257812,3.1181641,3.4492188,0,1.8408203-.6645508,3.0849609-2.0957031,3.9931641l.3579102.6220703c1.6865234-1.0634766,2.4536133-2.4892578,2.4536133-4.6152344,0-2.3603516-1.5083008-4.2529297-3.8339844-4.2529297-2.2241211,0-3.1694336,1.3486328-4.3710938,3.8378906l-.7666016,1.6074219c-1.2270508,2.5927734-2.3520508,3.7333984-4.4731445,3.7333984-2.1474609,0-3.6040039-1.6074219-3.6040039-4.4335938,0-2.28125,1.1499023-4.0966797,3.0415039-5.1083984l-.3833008-.7001953c-2.0195312,1.0898438-3.3999023,3.0341797-3.3999023,5.8085938,0,3.2929688,1.7636719,5.2382812,4.3457031,5.2382812ZM804.9492188,684.7050781v-10.1640625h-17.3813477v10.5273438h.7158203v-9.6982422h5.3422852v8.3759766h.7158203v-8.3759766h9.8916016v9.3349609h.7158203ZM273.7319336,382.2050781h-1.7319336l6.1733398-13.4785156,6.1738281,13.4785156h-1.7319336l-1.4746094-3.2412109h-5.934082l-1.4746094,3.2412109ZM275.8754883,377.4892578h4.5961914l-2.2983398-5.2304688-2.2978516,5.2304688ZM294.2407227,382.4794922c3.6186523,0,6.1220703-2.7265625,6.1220703-6.2763672v-.5146484h-5.1274414v1.4746094h3.3442383c-.0688477,2.109375-2.2294922,3.8417969-4.2358398,3.8417969-2.7954102,0-5.0249023-2.5722656-5.0249023-5.2822266,0-2.8984375,2.2636719-5.2480469,5.1616211-5.2480469,1.578125,0,3.1386719.8408203,4.0644531,2.1103516l1.1318359-1.0810547c-1.2685547-1.5947266-3.2578125-2.5039062-5.2646484-2.5039062-3.7211914,0-6.7050781,3.0527344-6.7050781,6.7744141,0,3.5839844,2.9150391,6.7050781,6.5336914,6.7050781ZM305.59375,382.2050781h-1.7324219l6.1738281-13.4785156,6.1738281,13.4785156h-1.7319336l-1.4750977-3.2412109h-5.9335938l-1.4746094,3.2412109ZM307.7373047,377.4892578h4.5961914l-2.2983398-5.2304688-2.2978516,5.2304688ZM321.9663086,382.2050781h1.6118164v-11.4550781h3.0693359v-1.4746094h-7.7509766v1.4746094h3.0698242v11.4550781ZM333.1835938,375.9970703h6.15625v6.2080078h1.6123047v-12.9306641h-1.6123047v5.2138672h-6.15625v-5.2138672h-1.6123047v12.9306641h1.6123047v-6.2080078ZM347.5493164,382.2050781h-1.7319336l6.1733398-13.4785156,6.1738281,13.4785156h-1.7319336l-1.4750977-3.2412109h-5.9331055l-1.4750977,3.2412109ZM349.6928711,377.4892578h4.5961914l-2.2983398-5.2304688-2.2978516,5.2304688ZM378.7949219,382.4794922c1.1318359,0,2.4008789-.3251953,3.3955078-.9082031v-1.9042969c-.9604492.8574219-2.1777344,1.3378906-3.4467773,1.3378906-2.8808594,0-5.0761719-2.4179688-5.0761719-5.2470703,0-2.8642578,2.2119141-5.2822266,5.1103516-5.2822266,1.2177734,0,2.4868164.4453125,3.4125977,1.2685547v-1.8691406c-.9770508-.6005859-2.1259766-.875-3.2583008-.875-3.8071289,0-6.8764648,2.984375-6.8764648,6.8085938,0,3.7382812,3.0522461,6.6708984,6.7392578,6.6708984ZM389.1328125,375.9970703h6.1567383v6.2080078h1.6118164v-12.9306641h-1.6118164v5.2138672h-6.1567383v-5.2138672h-1.6118164v12.9306641h1.6118164v-6.2080078ZM404.7265625,382.2050781h-1.6123047v-12.9296875h1.9550781c1.1494141,0,2.3837891.0166016,3.4125977.5996094,1.0805664.6347656,1.6977539,1.8525391,1.6977539,3.0869141,0,1.8525391-1.234375,3.3955078-3.1035156,3.6181641l4.081543,5.625h-1.9555664l-3.8066406-5.4707031h-.6689453v5.4707031ZM404.7265625,375.3964844h.5146484c1.6459961,0,3.4296875-.3085938,3.4296875-2.3662109,0-2.0234375-1.9208984-2.3154297-3.515625-2.3154297h-.4287109v4.6816406ZM417.730957,369.2744141h-1.6118164v12.9306641h1.6118164v-12.9306641ZM427.269043,380.9707031c-1.3886719,0-2.5205078-1.0292969-2.503418-2.4521484l-1.6293945.3427734c.2749023,2.0751953,1.9038086,3.6181641,3.9956055,3.6181641,2.3154297,0,4.1328125-1.6806641,4.1328125-4.0302734,0-2.1601562-1.371582-3.171875-3.206543-3.8925781l-.9262695-.3603516c-.8056641-.3085938-1.800293-.8398438-1.800293-1.8515625,0-1.1318359,1.1318359-1.8349609,2.1606445-1.8349609.9775391,0,1.5952148.4111328,2.0751953,1.2177734l1.2861328-.7724609c-.703125-1.2519531-1.8867188-1.9550781-3.3271484-1.9550781-1.9550781,0-3.8071289,1.2519531-3.8071289,3.3447266,0,1.8007812,1.3378906,2.640625,2.8125,3.2753906l.8920898.3769531c1.1142578.4628906,2.2290039,1.0634766,2.2290039,2.4521484,0,1.3554688-.9946289,2.5214844-2.3837891,2.5214844ZM438.7763672,382.2050781h1.6118164v-11.4550781h3.0698242v-1.4746094h-7.7514648v1.4746094h3.0698242v11.4550781ZM450.03125,369.2744141h-1.6118164v12.9306641h1.6118164v-12.9306641ZM463.1933594,380.7304688h-5.3334961v-4.8876953h5.1791992v-1.4746094h-5.1791992v-3.6181641h5.3334961v-1.4746094h-6.9453125v12.9296875h6.9453125v-1.4746094ZM471.1274414,369.5175781l-1.3349609-.5244141-1.8588867,4.6474609.9462891.3886719,2.2475586-4.5117188ZM479.8076172,380.9707031c-1.3886719,0-2.5205078-1.0292969-2.503418-2.4521484l-1.6293945.3427734c.2744141,2.0751953,1.9033203,3.6181641,3.9956055,3.6181641,2.3154297,0,4.1333008-1.6806641,4.1333008-4.0302734,0-2.1601562-1.3720703-3.171875-3.2070312-3.8925781l-.9262695-.3603516c-.8061523-.3085938-1.8007812-.8398438-1.8007812-1.8515625,0-1.1318359,1.1323242-1.8349609,2.1611328-1.8349609.9775391,0,1.5952148.4111328,2.0751953,1.2177734l1.2861328-.7724609c-.703125-1.2519531-1.8867188-1.9550781-3.3271484-1.9550781-1.9545898,0-3.8071289,1.2519531-3.8071289,3.3447266,0,1.8007812,1.3378906,2.640625,2.8125,3.2753906l.8916016.3769531c1.1147461.4628906,2.2294922,1.0634766,2.2294922,2.4521484,0,1.3554688-.9946289,2.5214844-2.3837891,2.5214844Z" fill="#fff"/>
    </g>
  </g>
</svg>