<?xml version="1.0" encoding="UTF-8"?>
<svg xmlns="http://www.w3.org/2000/svg" version="1.1" viewBox="0 0 1080 1080">
  <!-- Generator: Adobe Illustrator 28.7.3, SVG Export Plug-In . SVG Version: 1.2.0 Build 164)  -->
  <g>
    <g id="south">
      <path id="southgray" d="M760.6922266,287.0184766l-67.3769336-67.3769336,31.641543-31.641543,67.3769336,67.3767187,67.3767187-67.3767187,31.641543,31.641543-67.3767187,67.3769336h0l-31.641543,31.641543-31.6417578-31.641543h.0002148ZM792.3337695,398.711875l-67.3769336-67.3769336-31.641543,31.641543,67.3769336,67.3769336h-.0002148l31.6417578,31.641543,31.641543-31.641543h0l67.3767187-67.3769336-31.641543-31.641543-67.3767187,67.3769336ZM792.3337695,542.0468164l-67.3769336-67.3769336-31.641543,31.6417578,67.3769336,67.3767187h-.0002148l31.6417578,31.6417578,31.641543-31.6417578h0l67.3767187-67.3767187-31.641543-31.6417578-67.3767187,67.3769336ZM792.3337695,685.3817578l-67.3769336-67.3767187-31.641543,31.641543,67.3769336,67.3767187-.0002148.0002148,31.6417578,31.641543,31.641543-31.641543h0l67.3767187-67.3769336-31.641543-31.641543-67.3767187,67.3767187ZM859.7104883,761.3399805l-67.3767187,67.3767187-67.3769336-67.3767187-31.641543,31.641543,67.3769336,67.3767187-.0002148.0002148,31.6417578,31.641543,31.641543-31.641543h0l67.3767187-67.3769336-31.641543-31.641543Z" fill="#333"/>
      <path id="southwhite" d="M389.0668945,603.0876465v-27.3918457h-25.871582v-11.6560059h25.871582v-11.0725098h-22.7880859v-11.0737305h14.5710449l5.4594727,5.4597168,9.2460938,9.2463379,1.4875488,1.4873047,1.4875488-1.4873047,9.2463379-9.2463379,5.4594727-5.4597168h14.8391113v11.0737305h-22.6542969v11.0725098h25.4694824v11.6560059h-25.4694824v11.0373535c0,9.0324707-7.3220215,16.3544922-16.354248,16.3544922ZM397.0429688,555.1118164l9.2460938-9.2460938,11.847168-11.8469238-9.2463379-9.2463379-11.8469238,11.8469238-11.8469238-11.8469238-9.2460938,9.2463379,11.8469238,11.8469238,9.2460938,9.2460938ZM259.4477539,328.2416992h-30.1611328v-11.0725098h30.1611328v-8.4509277h-23.5922852v-10.7817383h23.5922852v-11.0727539h16.0864258v11.0727539h28.5527344v19.232666h9.7854004v11.0725098h-9.7854004v19.2329102h-28.5527344v9.324707h32.0371094v11.0725098h-32.0371094v8.8876953h35.3886719v11.3642578h-35.3886719v14.8620605h-16.0864258v-14.8620605h-30.4291992v-11.3642578h30.4291992v-8.8876953h-26.9436035v-11.0725098h26.9436035v-9.324707h-23.5922852v-10.7819824h23.5922852v-8.4509277ZM275.5341797,317.1691895h13.0026855v-8.4509277h-13.0026855v8.4509277ZM275.5341797,336.692627h13.0026855v-8.4509277h-13.0026855v8.4509277ZM196.1760254,422.3637695c7.2390137-7.2851562,13.1379395-14.1333008,17.6955566-20.543457,8.847168,9.1782227,18.6325684,14.5693359,29.355957,16.171875,5.4968262.583252,12.7348633.875,21.7160645.875,17.0241699,0,32.8425293-.291748,47.588623-1.0205078l2.6801758-13.4047852c-16.8901367.875-33.9145508,1.3120117-51.2070312,1.4572754-8.4450684-.1452637-15.0129395-.4367676-19.838623-1.1655273-8.4450684-1.6025391-16.354248-6.4101562-23.4592285-14.4240723l1.8771973-4.3706055c3.8876953-10.9272461,6.0319824-26.5168457,6.1657715-46.7700195h-21.5820312c8.0432129-10.0522461,15.4162598-19.9602051,21.9841309-29.5766602v-12.2380371h-37.2661133v12.2380371h19.5717773c-6.0319824,10.0534668-12.1987305,19.9614258-18.7666016,29.5766602v12.2392578h20.7766113c-.4018555,9.9082031-1.3400879,18.2124023-2.814209,24.9143066-3.0834961-5.2443848-6.032959-11.0725098-8.847168-17.6291504l-10.9924316,5.9733887c4.4233398,10.3449707,9.2490234,19.0861816,14.4780273,26.371582-3.7536621,6.8481445-9.2504883,14.1323242-16.4882812,21.8544922l7.3718262,9.4709473ZM392.1503906,309.0100098h-15.9521484v-10.7819824h15.9521484v-11.3642578h14.7451172v11.3642578h17.6943359v-11.21875h14.7460938v11.21875h15.9511719v10.7819824h-15.9511719v6.5566406h12.8686523v10.4902344h-12.8686523v6.847168h18.6325684v11.0737305h-34.1828613v6.7019043h28.8210449v37.1535645h8.0432129v11.6557617h-8.0432129v6.7019043c0,5.8278809-1.3413086,9.9069824-4.0214844,12.0927734-2.6813965,2.1860352-6.9709473,3.3515625-12.8688965,3.3515625-4.1555176,0-8.7131348-.291748-13.4047852-.7285156l-2.2792969-12.6762695c4.423584.7285156,8.3110352,1.0202637,11.6625977,1.0202637,2.2783203,0,3.753418-.4370117,4.5576172-1.4572754.8041992-.8740234,1.2060547-2.3310547,1.3400879-4.3706055v-3.9338379h-43.1638184v7.8618164c0,8.2915039-6.7216797,15.0129395-15.0131836,15.0129395h0v-22.8747559h-8.4450684v-11.6557617h8.4450684v-37.1535645h28.8200684v-6.7019043h-34.0488281v-11.0737305h17.963623v-6.847168h-11.9306641v-10.4902344h11.9306641v-6.5566406ZM408.2355957,380.402832h-13.8068848v7.4304199h13.8068848v-7.4304199ZM408.2355957,362.0439453h-13.8068848v7.8684082h13.8068848v-7.8684082ZM437.5925293,380.402832h-13.8068848v7.4304199h13.8068848v-7.4304199ZM423.7856445,362.0439453v7.8684082h13.8068848v-7.8684082h-13.8068848ZM406.8955078,315.5666504h17.6943359v-6.5566406h-17.6943359v6.5566406ZM406.8955078,332.9040527h17.6943359v-6.847168h-17.6943359v6.847168ZM331.0229492,377.7797852l5.8989258,11.6560059c4.4233398-8.3056641,8.4450684-16.755127,12.1984863-25.6430664v58.279541h.0002441c8.2912598,0,15.0126953-6.7216797,15.0126953-15.0131836v-54.3398438c2.4135742,5.3908691,4.4238281,10.6367188,6.0319824,15.7358398l7.2390137-7.1386719c-1.7421875-8.013916-4.1555176-16.3183594-7.2390137-24.9155273l-6.0319824,5.5373535v-19.0874023h11.126709v-12.2382812h-11.126709v-23.7487793h-15.0129395v23.7487793h-14.4780273v12.2382812h14.4780273v2.4775391c-4.1555176,18.9411621-10.1884766,36.4250488-18.0974121,52.451416ZM303.4157715,590.2312012v-60.5756836h12.0646973v-12.5297852h-41.1525879v-21.2722168c14.2089844-1.6025391,27.2116699-4.0800781,39.0085449-7.1401367l-6.3010254-16.0263672c-16.354248,5.6826172-32.7075195,10.0532227-49.0617676,13.1130371v55.2197266c-.1340332,24.0402832-4.5576172,44.0007324-13.270752,60.173584l8.5791016,6.9936523c13.940918-18.2124023,20.9118652-40.5039062,21.0458984-67.1672363v-11.3642578h12.7348633v76.9289551c9.0314941,0,16.3530273-7.3217773,16.3530273-16.3532715ZM193.6298828,594.9284668l-5.6298828-10.1984863c9.6513672-8.5961914,17.8283691-19.0876465,24.6643066-31.4709473h-21.8498535v-11.9475098h24.9333496v-12.9680176h-23.3242188v-11.9465332h13.4047852l-5.8986816-17.630127h-8.0432129v-11.9465332h26.140625c-1.7434082-4.371582-3.753418-8.8876953-6.3010254-13.6962891l15.8183594-2.9135742c1.0722656,5.6826172,1.7421875,11.2189941,2.1442871,16.6098633h24.5314941v11.9465332h-8.4453125l-5.8977051,17.630127h13.8068848v11.9465332h-21.8500977v12.9680176h23.3242188v11.9475098h-23.3242188v11.3640137l8.0432129-8.4506836c5.2277832,7.4306641,9.517334,14.861084,13.1367188,22.2924805l-7.6411133,8.1582031c-3.753418-5.536377-8.3110352-11.0725098-13.5388184-16.463623v19.7553711c0,8.8842773-7.2021484,16.0861816-16.0861816,16.0861816v-32.4899902c-6.4338379,7.722168-13.8068848,14.861084-22.1179199,21.4174805ZM217.7590332,516.3969727h10.3215332l3.0834961-17.630127h-16.3544922l2.9494629,17.630127ZM388.2626953,471.6677246v14.1323242h-52.6821289v12.2380371h52.6821289v12.6762695h-45.7111816v96.4521484h0c9.1801758,0,16.6223145-7.4418945,16.6223145-16.6220703v-68.1740723h76.4086914v64.2526855c0,1.894043-.5361328,3.4978027-1.4755859,4.5170898-1.0720215,1.0202637-2.814209,1.6025391-5.2275391,1.6025391-3.4855957,0-7.3730469-.4370117-11.7966309-1.4572754l2.0112305,13.9870605c5.2277832,1.166748,10.1875,1.7490234,14.611084,1.7490234,6.8369141,0,11.6625977-1.3110352,14.4780273-3.7885742,2.6801758-2.4765625,4.0214844-6.847168,4.0214844-13.1120605v-79.4064941h-47.0512695v-12.6762695h52.4130859v-12.2380371h-52.4130859v-14.1323242h-16.890625ZM568.685791,576.5708008h-55.496582v-54.9291992h55.496582v54.9291992ZM552.5996094,533.8808594h-23.3242188v30.4506836h23.3242188v-30.4506836ZM501.7956543,590.2763672v-85.6816406h78.0168457v81.4460449c0,2.0395508-.670166,3.6420898-1.8774414,4.6623535-1.3400879,1.1655273-3.6193848,1.7490234-6.7016602,1.7490234-3.8876953,0-8.1772461-.5834961-13.1369629-1.6037598l2.0102539,14.2788086c6.032959,1.3120117,11.5285645,2.0393066,16.6223145,2.0393066,7.3730469,0,12.6008301-1.310791,15.550293-3.9335938,2.9482422-2.7680664,4.423584-7.2851562,4.423584-13.6953125v-97.1809082h-60.0544434c2.8144531-5.9743652,5.2277832-12.2392578,7.3720703-18.6494141l-16.8903809-3.0598145c-.9382324,7.2851562-2.1442871,14.5703125-3.6184082,21.7092285h-38.6064453v114.8098145c9.3283691,0,16.8903809-7.5620117,16.8903809-16.8901367ZM278.215332,725.5319824c11.7956543-7.722168,22.7883301-16.3183594,32.9755859-25.9348145l-11.5273438-12.8212891c-9.2504883,10.3449707-18.2316895,19.5244141-26.9448242,27.246582-3.0825195-7.1398926-5.6298828-14.5703125-7.9091797-22.5842285v-7.2841797h-54.423584v12.5297852h37.5344238v71.6831055c0,2.9145508-.5373535,4.9541016-1.7434082,6.1196289-1.2062988,1.1657715-3.4855957,1.7490234-6.8359375,1.7490234-4.692627,0-9.6523438-.4379883-14.880127-1.1655273l3.0834961,15.0061035c5.7636719.7287598,11.6616211,1.0205078,17.9624023,1.0205078,7.1049805-.1455078,12.0646973-1.3120117,15.0131836-3.6433105,2.8154297-2.4763184,4.2895508-6.7019043,4.2895508-12.6750488v-44.2924805c11.1264648,21.1259766,26.140625,37.7358398,44.9072266,49.9741211l8.0429688-9.1784668c-16.4882812-11.8022461-29.625-26.9538574-39.5444336-45.7495117ZM228.0805664,670.3122559c20.6437988,4.2253418,37.1320801,9.1794434,49.463623,14.7155762l5.6308594-10.7817383c-13.6728516-7.2854004-29.3569336-13.8408203-47.0515137-19.6699219l-8.0429688,15.736084ZM240.0112305,709.6506348h-44.3713379v12.2392578h27.8830566c-5.2277832,20.8342285-16.7563477,37.5893555-34.3168945,50.265625l7.2392578,9.6164551c23.0559082-14.1323242,37.532959-34.09375,43.565918-59.8820801v-12.2392578ZM379.1474609,693.3325195h76.2734375v24.1855469h-76.2734375v-24.1855469ZM433.9731445,708.7768555h7.7749023v-6.7021484h-7.7749023v6.7021484ZM413.5983887,708.7768555h7.5058594v-6.7021484h-7.5058594v6.7021484ZM392.8203125,708.7768555h7.9091797v-6.7021484h-7.9091797v6.7021484ZM437.0566406,772.0102539c7.3730469,2.7680664,15.2819824,6.1184082,23.9951172,10.1984863l-5.6308594,8.4509277c-10.8574219-3.7885742-21.4477539-6.8483887-31.7692871-9.324707l6.4338379-9.324707h-24.9321289l6.1655273,9.4699707c-9.5170898,3.4968262-20.777832,6.2648926-33.7805176,8.4506836l-4.0217285-9.032959c9.2495117-2.4775391,18.2304688-5.3911133,26.8098145-8.8876953h-17.6945801v-49.6833496h69.4389648v49.6833496h-15.0141602ZM397.6459961,736.3139648h39.4106445v-4.9541016h-39.4106445v4.9541016ZM397.6459961,749.7175293h39.4106445v-5.2443848h-39.4106445v5.2443848ZM437.0566406,762.9770508v-5.1003418h-39.4106445v5.1003418h39.4106445ZM424.9916992,674.1005859v5.6816406h29.6252441v8.7424316h-73.5930176v-6.2648926c-5.3618164,10.3439941-10.9926758,20.5437012-16.7563477,30.4506836l9.5170898-3.2050781c3.2175293,12.9667969,5.362793,25.0595703,6.4350586,35.9868164l-8.7131348,2.7692871-1.7434082-8.4509277-32.3054199,10.6357422-4.0214844-13.6953125c4.423584-3.3515625,8.177002-7.8676758,11.5285645-13.6955566,2.8144531-5.0993652,5.4956055-10.3449707,8.3110352-15.4443359-5.7646484,1.8942871-10.9924316,3.6420898-15.9521484,5.3911133l-4.1555176-13.9870605c2.2783203-1.7490234,4.423584-4.0800781,6.1657715-6.9936523,1.7434082-2.9145508,3.8876953-6.8481445,6.1669922-11.8022461,2.2783203-5.0993652,5.09375-13.4038086,8.7131348-25.0595703l15.1469727,2.7680664c-5.8977051,14.5703125-12.1987305,27.3918457-18.9006348,38.3190918l8.7133789-1.3117676c2.8154297-5.9733887,5.4956055-12.2382812,8.0429688-18.6494141l14.7451172,3.496582h26.6757812v-5.6816406h-32.3056641v-9.032959h32.3056641v-9.1794434h16.3540039v9.1794434h33.2446289v9.032959h-33.2446289ZM362.2573242,715.9155273l-10.7246094,16.3183594,15.0141602-3.7873535c-1.2072754-3.9348145-2.6813965-8.013916-4.2895508-12.5310059ZM377.0021973,748.9902344l-11.6625977,3.0585938c2.9494629,7.722168,5.362793,16.1728516,7.2390137,25.0605469l9.2492676-1.7487793c-.9382324-8.8879395-2.5461426-17.7744141-4.8256836-26.3703613ZM332.6320801,787.5998535c5.2231445,1.7277832,10.8747559-1.2231445,12.3413086-6.5256348,2.1647949-7.8261719,3.7856445-16.5786133,4.8171387-26.2573242l-13.270752-1.310791c-.2680664,13.2583008-1.609375,24.6225586-3.8876953,34.09375ZM350.996582,754.2346191c2.5473633,8.8879395,4.423584,18.357666,5.6298828,28.4111328l10.3225098-1.310791c-.4020996-9.9082031-1.4753418-19.6699219-3.3515625-29.2861328l-12.6008301,2.185791ZM575.388916,753.6523438l-12.0646973,12.2382812c12.8686523,8.7424316,23.8601074,17.7753906,32.9765625,27.2453613l8.847168-8.7412109c-8.5791016-10.4904785-18.4995117-20.6901855-29.7590332-30.7424316ZM511.1789551,783.2290039l7.6398926,9.4702148c11.5288086-7.138916,22.5212402-16.1730957,32.9765625-27.2456055l-12.3325195-12.2392578c-8.9814453,12.6762695-18.4985352,22.7294922-28.2839355,30.0146484ZM585.1743164,699.7436523v38.4643555h19.3024902v12.5297852h-91.9577637v-12.5297852h17.2924805v-38.4643555h-14.3430176v-12.5307617h14.3430176v-29.8674316h16.354248v29.8674316h22.6540527v-29.8674316h16.3544922v29.8674316h15.2819824v12.5307617h-15.2819824ZM568.8198242,699.7436523h-22.6540527v38.4643555h22.6540527v-38.4643555ZM501.7956543,654.1391602c-5.7648926,24.9155273-14.2099609,47.4987793-25.6035156,67.604248l5.4958496,13.5500488c3.6193848-5.5361328,6.9697266-11.21875,10.3212891-16.9003906v73.2856445c9.0322266,0,16.354248-7.3220215,16.354248-16.354248v-90.2966309c3.6196289-8.7421875,7.1049805-17.7753906,10.3215332-26.9536133l-16.8894043-3.9350586ZM646.1608887,725.96875c-.1340332,24.769043-4.8266602,46.9152832-14.3439941,66.4387207l-9.9194336-6.4101562c6.0317383-16.4645996,8.9814453-36.4250488,8.9814453-60.0285645v-59.1533203h53.6203613c-1.609375-3.3515625-3.4855957-6.5566406-5.4968262-9.907959l16.354248-3.7873535c1.0720215,4.6623535,1.8771973,9.1782227,2.4133301,13.6953125h45.845459v11.6560059h-23.1901855c.6711426,3.6420898,1.3400879,7.138916,1.7434082,10.635498h19.0344238v10.4902344h-19.4377441v6.2651367h16.7575684v9.907959h-16.7575684v6.2648926h16.7575684v9.9082031h-16.7575684v7.2839355h21.717041v10.4902344h-45.3115234c3.8886719,5.6828613,7.2402344,11.2189941,10.0556641,16.9016113l-8.3122559,5.536377c-3.8874512-5.2446289-8.847168-10.4904785-14.611084-15.7348633l9.6513672-6.703125h-16.354248v-32.7817383l-4.423584,5.536377-4.9597168-6.9936523v20.1765137c0,7.8474121-6.3615723,14.2089844-14.2087402,14.2089844v-32.4912109c-2.0114746,2.4763184-4.1557617,4.8076172-6.1669922,7.138916l-2.6804199-4.0791016v5.5361328ZM707.2873535,731.9433594h-14.4780273v7.2839355h14.4780273v-7.2839355ZM707.2873535,715.7702637h-14.4780273v6.2648926h14.4780273v-6.2648926ZM707.2873535,699.597168h-14.4780273v6.2651367h14.4780273v-6.2651367ZM690.3969727,678.4714355l8.7133789,2.4763184-3.4855957,8.1591797h13.4060059c-1.2072754-2.621582-2.6804199-5.2446289-4.1557617-7.7209473l13.8071289-2.9145508h-28.2851562ZM669.217041,713.4389648c7.1049805-10.4902344,12.7348633-22.1459961,17.0244141-34.9675293h-15.9523926l6.703125,2.3310547c-2.2792969,5.3911133-4.9597168,10.6357422-7.7751465,15.8813477v16.755127ZM646.1608887,711.2531738c6.8359375-9.9069824,12.4655762-20.8342285,17.1584473-32.7817383h-17.1584473v32.7817383ZM640.6640625,782.2087402l9.9204102,4.6623535c6.0317383-9.1794434,11.2595215-19.0864258,15.4150391-29.7231445l-13.4047852-5.5361328c-3.0834961,10.6367188-6.9709473,20.8354492-11.9306641,30.5969238ZM721.364502,758.0231934c7.2368164,9.7614746,13.0026855,19.3779297,17.4265137,28.5563965l9.651123-4.0791016c-3.6193848-10.0532227-8.1782227-20.2519531-13.6738281-30.5969238l-13.4038086,6.1196289ZM710.3708496,773.3210449c-.9370117,2.0395508-2.9484863,3.2050781-5.763916,3.4968262-2.2792969.2915039-5.0935059.4370117-8.7141113.4370117-3.6196289,0-6.4338379-.1455078-8.4453125-.4370117-2.6801758-.4370117-4.0214844-2.1848145-4.0214844-4.9541016v-19.5234375h-15.8171387v22.1462402c0,9.0332031,4.8256836,13.9870605,14.6108398,14.861084,2.949707.1464844,7.7753906.2915039,14.611084.2915039,6.7041016,0,11.395752-.1450195,14.2111816-.2915039,5.6308594-.4370117,9.5161133-2.1848145,11.7956543-5.2446289,2.1442871-3.0598145,3.3513184-7.8674316,3.6193848-14.4240723l-14.6108398-7.722168c0,5.536377-.5361328,9.324707-1.4753418,11.3642578ZM799.505127,762.2485352l7.3742676,1.7478027c2.4121094-8.0126953,4.5563965-16.6098633,6.4326172-25.7883301l-11.5273438-2.4775391c-.2680664,9.0341797-1.0722656,17.921875-2.279541,26.5180664ZM780.2026367,764.4333496c-.2680664-8.5961914-1.2072754-18.2126465-2.9484863-28.5563965l-11.529541,3.3503418c3.6193848,10.9272461,5.8986816,20.1066895,6.9709473,27.3918457l7.5070801-2.185791ZM832.4816895,688.8164062c-1.4729004-8.8876953-4.6916504-19.6696777-9.5161133-32.1994629l-14.2099609,5.5361328c5.362793,9.7617188,9.786377,19.8151855,13.135498,30.1601562l10.5905762-3.4968262ZM892,773.1757812l-1.6081543,13.6953125c-12.1987305,1.0205078-23.8613281,1.6025391-35.2561035,1.6025391-7.6398926-.1452637-13.6716309-1.6025391-17.8271484-4.3706055-4.1557617-2.9145508-7.3742676-4.3706055-9.3833008-4.3706055-2.6826172,0-4.9597168,1.310791-6.8381348,3.9335938-2.0090332,2.6230469-3.7524414,5.536377-5.4958496,8.5961914l-10.7233887-11.2189941c.6711426-1.0202637,1.6081543-2.0395508,2.5476074-3.0598145-11.5297852,4.0800781-24.1293945,7.8674316-37.668457,11.2189941l-2.6801758-16.463623,15.6831055-2.185791v-38.9013672h-14.2099609v-11.9475098h14.2099609v-12.675293h-8.7143555v-6.2658691l-4.2885742,4.5170898-5.0947266-11.2189941c8.7143555-10.4902344,16.2214355-23.1665039,22.2531738-38.1728516l14.8791504,4.8076172-3.2165527,5.536377c6.703125,8.3054199,12.4667969,16.6098633,17.4265137,24.6237793l-7.5070801,8.0126953c-.5361328-.7275391-1.0720215-1.4560547-1.4753418-2.0395508v10.199707h-9.7841797v12.675293h13.270752v11.9475098h-13.270752v36.4248047l13.671875-2.7680664.6711426,8.449707c.6689453-.7287598,1.3400879-1.310791,2.0112305-1.8942871,1.6081543-1.310791,3.3493652-2.4765625,5.2277832-3.2050781v-52.8884277h-8.9824219v-12.2392578h23.1901855v65.5646973c1.0720215.583252,2.2792969,1.3120117,3.6193848,2.3310547,4.1557617,2.9145508,10.3227539,4.5170898,18.4985352,4.6623535,12.7348633,0,25.0688477-1.019043,36.8642578-2.9133301ZM805.9401855,695.3730469c-4.0205078-5.2458496-8.9802246-10.7819824-14.8791504-16.7563477-3.8874512,5.8278809-8.0429688,11.3652344-12.3337402,16.7563477h27.2128906ZM854.1987305,678.9082031h-19.4375v-11.3640137h19.4375v-11.3642578h14.4760742v11.3642578h18.232666v11.3640137h-18.232666v7.5771484h16.7573242v50.9941406h-16.6223145v8.3044434h19.5705566v11.3640137h-19.5705566v15.736084h-14.7460938v-15.736084h-19.0344238v-11.3640137h19.0344238v-8.3044434h-16.8903809v-50.9941406h17.0253906v-7.5771484ZM855.1357422,717.3728027h-5.3603516v9.032959h5.3603516v-9.032959ZM867.737793,706.5908203h5.0925293v-9.032959h-5.0925293v9.032959ZM867.737793,726.4057617h5.0925293v-9.032959h-5.0925293v9.032959ZM849.7753906,697.5578613v9.032959h5.3603516v-9.032959h-5.3603516Z" fill="#fff"/>
    </g>
  </g>
</svg>