<?xml version="1.0" encoding="UTF-8"?>
<svg xmlns="http://www.w3.org/2000/svg" version="1.1" viewBox="0 0 1080 1080">
  <!-- Generator: Adobe Illustrator 28.7.3, SVG Export Plug-In . SVG Version: 1.2.0 Build 164)  -->
  <g>
    <g id="snail">
      <path d="M349.9682821,509.1806626c-.2425091.1298137-.6854448.4308102-1.2824451,1.0210345-1.5242409,1.506766-3.5541845,2.3091857-5.6205045,2.3091857-.9643302,0-1.9365063-.1751058-2.8687397-.5331633-2.9329333-1.1287371-4.9329199-3.8708728-5.1105222-7.0081557-.283165-4.9824916-.4771723-13.3758021-.577029-25.0144547,0-26.8457549.4942906-30.7875973.656201-32.0739653.5606239-4.5160183,2.7674565-7.7952403,6.3237808-9.4532178,1.6947105-.8066993,2.7417791-1.396567,3.3822884-1.8038396-.2339499-.3027797-.5342332-.6551311-.893004-1.0463553-2.3815818-2.5395693-5.915795-5.4760689-10.7987866-8.9796119-4.1297869-2.9582541-6.125494-4.1030396-7.0463152-4.5456187-.5506383.5135486-1.5313735,1.6622571-3.139066,4.2289304-3.016385,5.1950437-5.8986767,8.03133-9.0334631,8.8772588h.0049928c-.9522048.2574876-3.005686.8124054-15.7962567.959694,8.0388193.0905843,13.4524778.3776722,16.1286368.8576975,2.7203812.4878712,4.9949737,2.346632,6.0170782,4.9136619.8659001,2.1775889,1.3402193,5.2203645,1.4522014,9.3647733.1954338,10.3348096-2.1226677,16.3971799-7.1290536,18.5490914-.5684698.2417958-1.1704629.4304536-1.8123987.5684698,2.2268039.3006399,4.0641668,1.1151851,5.4764256,2.4290137.4037063.3758891.7660434.7927907,1.0841582,1.2432157,1.5706029,2.2268039,3.302403,6.7232075,2.7567576,21.8593403-.5028497,13.8772253-2.3387861,17.5023794-2.9422057,18.692457-.9208212,1.8173916-2.49927,3.2139585-4.4150917,3.9061793-1.3765956.4978569-2.8459153.7496384-4.369443.7496384-1.1269539,0-2.3123954-.1415825-3.4949838-.4111955-2.8177415-.6312369-4.979282-1.8409292-6.425064-3.5976935-.8141886-.9892944-1.3787354-2.1576175-1.6465653-3.4108188-.1936506-.906556-.782805-3.6643835-.8890811-17.1521678-.1098423-13.3579706.4386561-16.1646565.6198247-17.0872609.3912242-2.002483,1.5320868-3.7767222,3.1904209-4.9646601,1.4753824-1.056341,3.3587507-1.7546245,5.7667232-2.1283738-4.0937672-.4839483-9.3398092-2.126234-15.9175113-4.9785687-2.5028363-1.0738159-4.309529-1.7781621-5.6048127-2.2382161,1.5420724,11.2470717,2.2453488,22.3094086,2.0927107,32.9256001-.1287438,8.6861045-.8191814,14.4849245-2.1105422,17.7302666-.8979968,2.2564043-2.7742325,3.9832116-5.0994666,4.6914808-1.4671799.446502-3.0852147.6726061-4.8102389.6726061-1.1358697,0-2.349485-.0984302-3.6073225-.2910109-2.0242375-.3127654-3.686138-.8145452-5.0798519-1.5342265-2.339856-1.2118321-3.9329266-3.4953404-4.2596006-6.1094456-.4700397-3.7610305-.6708229-15.1361327-.5980702-33.8107582.0709696-18.9620701.3648335-30.3999394.8716062-33.9997726.3213245-2.2856481,1.6166083-4.3212978,3.5513315-5.582345,1.2432157-.8102656,2.6800819-1.2981368,4.3972602-1.4910742,1.1554844-.1276739,3.6251541-.2888711,11.4792385-.3598407-9.83089-.0845215-12.8187445-.3166883-14.1810749-.49964-1.0609772-.1415825-4.2881311-.5684698-15.753461-5.7870512-2.342709-1.0324467-4.0295736-1.7289471-5.2274971-2.1950638.0670466.7043462.1504983,1.3987068.213622,1.9236676,1.346282,11.4560575,2.1151784,27.8214973,2.2835083,48.5713585.2617672,14.8369193-.0413692,24.7605334-.8990667,29.4912436-.3951471,2.183295-1.6808019,4.1030396-3.5474085,5.3009631-1.29992.8341599-2.8009798,1.2667533-4.3173748,1.2667533-.6619071,0-1.3277372-.0827384-1.9807286-.2499983-1.3623304-.3480719-2.9093957-.9243875-4.7346331-1.7760224-.1918675-.0923674-.4229644-.1868746-.6965003-.283165-.2407259-.0845215-.4778855-.1811685-.7089824-.2892277-.0374463-.0156918-.0738226-.0335233-.110199-.0509982-.336303,5.9931839-.336303,18.2202776-.336303,36.7337059l-.006776,5.2909775c-.0021398.9600506-.1733227,1.8805152-.4850182,2.7321501.3059894.8559144.4711095,1.776379.4661167,2.736073-.0766757,15.9428321-.3323801,27.8764184-.7610505,35.4651694-.1979302,3.4974802-2.6497683,6.4596572-6.0484617,7.305586-.6433623.1611972-1.2913608.2378729-1.9336533.2378729-2.7478418,0-5.3630169-1.4222444-6.8344764-3.8512581-6.4193579-10.5883743-10.6297435-14.99669-13.1315099-16.8080188.106276.6569143.2692564,1.392644.4935773,2.2186014,2.9375695,11.5384392,2.9375695,13.9852845,2.9375695,14.9061057,0,.4425791-.0106989.7100523-.0845215,1.1447855-.1512115,1.1151851-.5360164,2.1850781-1.1290937,3.1412058-1.2578375,2.0238809-3.4311468,3.5071092-6.4428956,4.4001132-1.4161817.4229644-2.7685264.6372996-4.0203012.6372996-.1818818,0-.5517082-.0117688-.7328767-.0256774-3.8031129-.2596274-6.8922506-3.1686664-7.3811917-6.9493116-.393364-3.0409925-.7111222-8.9104254-.9422191-17.4453184-.5164017-18.7691327.2713962-21.5130516.6472853-22.8190343.2606973-.8516348.5970003-1.6347965,1.0003499-2.3252341,1.4329433-2.4564743,4.0666632-3.9671632,6.9100822-3.9671632,1.5784488,0,3.9486184.4661167,6.2627969,2.6651034,2.1469186,2.0281605,3.2660267,4.6675865,3.3309335,7.8483783.3826651-.0509982.8844449-.1358764,1.5156817-.2713962.0677599-.0139086.1365897-.0274606.2054195-.0413692,6.3605138-1.1940006,8.3676331-2.5827217,8.9450186-3.1333599.6608372-.6294537,1.0838016-1.7289471,1.2578375-3.2670966.0727527-.6472853.2214678-1.2667533.4347332-1.8530547-.2574876-.7218211-.4158317-1.4910742-.456131-2.2934939-.6176849-12.1796618-1.0110489-26.6292799-1.1683231-42.9476443-.1576309-15.8832747.0449355-25.4331395.5987834-28.3835477.2535646-1.3455687.8487818-2.6044762,1.7278772-3.6547544,1.0367263-1.2371529,2.7036196-2.6654601,5.0905508-4.3608838-.460054-.8006366-1.8280905-2.6141052-5.8280637-5.7574508-5.6433289-4.3373462-7.2681397-4.579142-7.2681397-4.579142-.0274606,0-1.1526314.1337366-3.4322167,2.4076159-3.7834982,4.1640235-7.2406791,6.2824116-10.5659065,6.475349-.1554911.0078459-.3099123.0139086-.4650468.0139086-1.0131887,0-2.0203146-.1929374-2.9643168-.5706096-.6490684-.2596274-1.3740992-.6726061-1.9347232-1.0916475-1.2253841-.9147585-2.1636803-2.1636803-2.7004099-3.5976935-.4425791-1.1822318-1.7902876-4.7777855-1.1419324-19.1350361.3116955-6.9296969.8694664-11.9121885,1.6572642-14.8094587.4957171-1.8213145,1.573456-3.3755124,3.1009065-4.4354197-.7318068-.4190414-1.8619704-.9700363-3.6037562-1.6522714-3.2553277-1.1312335-7.8758389-2.5295837-13.7384959-4.1604572-.6865147-.1611972-1.2646135-.2849482-1.7503449-.3833783.0616972.7631903.1611972,1.7446388.3127654,3.0074692,3.5245841,33.4880072,1.5684631,38.7379721.9254574,40.4629962-.5852315,1.5677499-1.6465653,2.9133186-3.0352864,3.845552-1.516395,1.0171116-3.4432723,1.5342265-5.7267805,1.5342265-3.6301469,0-8.3697728-1.2745992-14.5155948-3.9104589-1.726094-.7471419-3.0292237-1.2763823-4.0056793-1.6501316.0777456.8634036.1779589,1.6975635.2360897,2.1932806,2.3473452,23.8243771,2.689711,55.7703118,1.0188948,94.9173396-.1291004,3.3380661.009629,5.0552444.1187581,5.8401892.1151918.0099857.2510682.0139086.4072726.0139086.4072726,0,.8537746-.0317402,1.3266673-.0827384.1515682-.0178315.3031363-.0296004.4554178-.0374463,2.8284404-.1494284,5.2125186-.8477119,7.0891109-2.0770189,1.0748858-.7043462,1.7888611-1.4379362,2.0113988-2.0673899,1.1408626-3.2296503,4.188631-5.3305635,7.5313334-5.3305635.3887278,0,.7810219.0274606,1.1754558.0866613,3.7824283.5606239,6.6397559,3.7193047,6.8145051,7.541319.1298137,2.8384261.2842349,7.0302668.4525647,13.2181712.5046329,18.8222707.1112689,22.3942868-.0196147,23.5865042-.6037763,5.3737158-3.6369229,7.7478084-6.0769922,8.7923806-1.060264.4543479-3.8762223,1.6601173-20.638949,4.7563876-4.5595273.743219-7.0142184,1.3177515-8.3341097,1.7228843.4012099,1.4122587,1.3188214,4.0263639,3.3733726,8.8201978,1.8815851,4.2093156,3.1640302,6.9197112,4.0374195,8.6486583.329527-.3990701.7100523-.8773123,1.1504916-1.449705.4336633-.5645469.9411492-1.0681098,1.5078359-1.4967803.5909376-.4482852,2.3897843-1.8116855,10.3551376-5.851958,5.9482484-3.0170982,12.4464218-6.2845514,19.4841778-9.8052126l11.5573407-5.7792053c3.4882078-1.7428557,6.371926-2.9447021,8.5701995-3.5702329.7178982-.2043496,1.4536279-.3045629,2.186148-.3045629,1.39942,0,2.789211.3676866,4.0206579,1.0855848,1.8773056,1.0916475,3.2285804,2.9011932,3.7442688,5.012092.4907243,2.0060494.8288104,4.7146618.9950005,7.867993.2795987,3.6626003.6747458,5.0156583.8448588,5.4503915.9489951.9186814,2.0349365,1.4201046,3.4129586,1.5795187.2507116.0296004.4957171.0431524.7325201.0431524,1.1084091,0,1.7104023-.3127654,2.109829-.5859447,1.3541279-.9265273,2.9297236-1.3947838,4.5110255-1.3947838,1.276739,0,2.5581141.3070593,3.729647.9247442,2.6208812,1.3826584,4.2624537,4.1030396,4.2624537,7.0673565,0,0,.0010699,6.7920373-.0021398,6.8804818-.2250342,6.921851-.0884445,8.4582173-.0431524,8.7688429,0,0,.1023531.2360897.5987834.6176849.280312.1455054.9069126.287088,1.9168916.287088.9254574,0,2.0046228-.1119821,3.283145-.3441489,3.2200213-.5880845,6.0238542-1.6640402,8.5680597-3.288851,1.9325834-1.3551978,2.3134653-2.0770189,2.3213112-2.0770189.0549212-.2557044.3006399-1.886578-.1308836-9.4435888-.8352298-17.8229907-1.3013465-40.6502275-1.3837283-67.8436976-.0759624-23.7280867.2025664-38.0478911.8280972-42.5639094.402993-2.9072559,2.3673166-5.3601639,5.1169415-6.3890443,1.2432157-.4661167,2.6593973-.7357297,4.3273605-.8259574,3.1394227-.1693997,15.8697227-.2557044,37.9109448-.2557044h.1094857c19.9306799.1690431,31.3528574.3341632,34.9334326.5053461,1.219678.0609839,2.3152484.1651202,3.2553277.3070593,3.5791487.5445755,6.3466052,3.4265106,6.7446054,7.0259873.6647602,6.0092323,1.1540579,22.8407888,1.4179648,48.6794177.3081292,30.7715489.106276,48.4825574-.5977135,52.638735-.1512115.893004-.4522081,1.7524847-.890151,2.5434923-1.6376495,2.9521914-3.9671632,3.9989034-5.6718594,4.3526813l.0456488-.0057061c-.773176.1651202-2.5306535.5370863-12.5384326.5741759,6.0834115,3.3045428,9.9057825,8.3480184,11.407199,15.0772886.5534913.4739626,2.0713128.5467153,2.292424.5545612l.4193981.0060627c2.3016964,0,5.0113788-.6904376,8.2766922-2.1066193,3.2403492-1.4104756,5.5548844-2.9743025,6.8786987-4.6444055.057061-.0727527.2125521-.2574876.2738926-.3284571.1098423-.1298137.2196847-.292794.3609106-.5014232.0684732-.1002133.1383728-.1986435.2111255-.2970736.8359431-1.1173249,1.8872912-3.5581074,2.1526247-8.8437354.2453621-4.8958303.4550612-21.5818814.623391-49.5820508.2482152-50.3316891,1.0071259-53.9311658,1.293144-55.2863635.0192581-.0945072.0413692-.1868746.0634803-.2813819.7546312-3.0270839,2.7146751-5.2970402,5.6732859-6.5659333.4907243-.2439356.8958571-.4347332,1.2367963-.5880845-.4065593-1.0620471-1.7118288-3.4578941-5.8836982-8.0666365-3.8073925-3.9732259-5.455741-5.1415491-6.0163649-5.4703628ZM176.8863439,545.149395c-.0649068.5606239-.1890144,1.113402-.3698263,1.6462087-.716115,2.1148218-2.1312268,3.8790753-4.0923407,5.1026763-1.2885078.8042029-2.7560443,1.2114755-4.2300002,1.2114755-1.113402,0-2.229657-.2321668-3.2752991-.7022064-2.4300836-1.0916475-4.1572475-3.3223744-4.6048194-5.9482484-.7560577-4.4354197-1.1387228-15.4014662-1.1387228-32.59322,0-17.0558774.3766023-27.9823378,1.1212479-32.4790981.3755324-2.2699563,1.7111155-4.2663766,3.6654534-5.481775,1.279592-.7967136,2.7439189-1.2057694,4.2200146-1.2057694.7781688,0,1.5591907.1141219,2.3184581.3441489,2.7938472.8455721,4.8455453,2.8166716,5.9314867,5.6943271.239656.6372996.3980002,1.3020598.4689698,1.9789454.2853048,2.6968436.4297404,13.176802.4297404,31.1492211,0,27.4281333-.3345199,30.3293264-.4443622,31.2833144ZM184.7974893,513.8660806c0-24.1567572.5331633-29.9099284.9333033-32.1328094.8812352-4.9036762,4.2613838-7.7164249,9.2745457-7.7164249,1.2628304,0,2.4340065.1886578,3.4842848.5584841,1.3769523.4818085,2.612322,1.3377229,3.555611,2.4942772.9825184,1.2036296,1.6483485,2.7221644,1.9825117,4.5277871.2321668,1.2628304.9354431,5.1044594.9354431,32.2686858,0,16.6625134-.1269606,26.2872707-.389441,29.4245536-.1818818,2.183295-.6440756,3.9436256-1.4122587,5.3797786-.6619071,1.2389361-1.4457821,2.1519114-2.6408525,2.8933473-1.7585474,1.2606906-3.6144551,1.9022697-5.5152984,1.9022697-2.0053361,0-3.7571075-.4386561-5.2057427-1.3024164-.5684698-.3380862-1.0937873-.7474986-1.5616871-1.2136153-1.279592-1.2803053-2.1226677-2.9857147-2.5042629-5.0591673-.2557044-1.3847982-.9361564-5.0591673-.9361564-32.0247502ZM317.4335496,596.1419213c.3338066,8.2692029.359484,11.5462851.3174016,12.8347929-.2703263.2478585-.8395094.6943605-1.9379328,1.2920741-4.3573175,2.1715261-6.7859746,2.629797-8.0570075,2.629797-.296717,0-.5099823-.0253208-.6362297-.0470753-.2482152-.0413692-.3994267-.1041363-.4636203-.1394427.0228244-.0374463-.0727527-.4347332.0185448-1.2549845.2154051-2.0438522.1348065-3.7314301-.2410826-5.2068125-.6440756-2.5235209-2.4771589-4.5770022-4.9133052-5.4996066-2.0171049-.7653301-4.8141618-1.1369396-8.5488016-1.1369396-3.4803619,0-6.1083757.3049195-8.0359662.9283105-2.395847.7770989-4.285278,2.6376428-5.0994666,5.0199379-.5645469,1.6540546-.8391527,3.7036129-.8391527,6.2706428,0,1.1390794-.3441489,2.8719494-3.3209478,4.7760023-1.9308002,1.2392927-3.8683764,1.839146-5.9314867,1.839146-.6315935,0-1.2806619-.057061-1.9286604-.1693997-.057061-.009629-.1151918-.0196147-.1733227-.0292437-.0128387-.0552778-.0246075-.1219678-.0353065-.2025664-.1248208-.9539879-.2064893-4.3334232.6479985-16.2691494,1.0131887-17.2192144.8409359-33.8460647-.5053461-49.5192837l-.7553444-8.1807584c-.0581309-.6076992-.106276-1.1840149-.1437223-1.723241,1.1340866.4703963,2.6347898,1.1212479,4.618728,2.0142519,7.5167115,3.2474819,14.1122451,4.9432622,19.7209808,5.0944738-.4443622.0631237-.8947872.1358764-1.3523447.220398-4.8976135.9108356-8.0566508,2.6672432-9.6679097,5.3701495-.3391561.5681132-.6055594,1.1779522-.7945739,1.8134686-.3412959,1.1447855-1.1387228,3.8298603-.8812352,19.1032959.1298137,7.9468085.4290271,13.2459885.8883678,15.7441886.4265307,2.3188147,1.8548378,4.3330666,3.9043961,5.5013897,1.7032696.9700363,3.9771489,1.6444255,6.9514514,2.059544,1.5388627.216475,2.9996233.3284571,4.3273605.3284571,2.39977,0,4.4197279-.3441489,6.1761356-1.0502783,1.6907876-.6804519,3.0980535-1.9197447,3.9892743-3.5110322,1.1929307-2.1322967,2.8127487-6.5306268,3.0959137-20.0615634.3009966-14.4021861-1.4036996-18.9520844-2.7103956-21.1236105-.6925774-1.1504916-1.6640402-2.1066193-2.8238042-2.7813651-1.8744525-1.0916475-4.0980468-1.7093324-6.6237075-1.839146,5.4760689-.7414358,9.9325299-3.2004066,13.2812949-7.3426756.0470753-.0592007.0941506-.1180449.1390861-.1790288,1.6276639-2.1322967,2.5320801-2.3701696,2.539926-2.3701696.0698997.0196147,1.7738826.460054,7.3558709,5.3815617,2.9329333,2.789211,4.0299303,4.2899143,4.4307835,4.9607372-.0527814.0335233-.1126954.0688298-.1804553.1044929-3.492844,2.0003433-5.4186514,6.0110154-6.0420423,12.3465651-.5235343,5.3209345-.446502,16.4442552.239656,34.0036956ZM588.3418665,535.8573743c-9.3394525,1.6326567-37.2337025,1.7703163-47.1216535,1.8173916-26.1317796.1437223-42.7151209.5427924-47.9575966,1.1565543-2.926514.3423658-5.4264972,2.2660333-6.5085157,5.0081691l-.1433657.3755324c-.1833083.49964-.3166883,1.0149718-.3994267,1.5402893-.4129787,2.6651034-.4621938,12.9093288-.1455054,30.4491545.3338066,18.6667796.8416492,35.055757,1.5106889,48.7125844.1176882,3.5427723-1.7660367,6.6229942-5.7652967,9.2920206-3.1733026,2.1148218-6.4321966,3.1433456-9.9571374,3.1433456-1.2289504,0-2.5056894-.1298137-3.7981201-.3873013-.8387961-.1811685-1.2532013-.4582708-1.323101-.5392261-.1069893-.5367296-.373036-2.9839315.3045629-14.2331431.8359431-14.5576773,1.3437856-30.9191941,1.5135419-48.6537403.1412259-15.2245772-.027104-24.7409187-.4999967-28.2854742-.3516382-2.6315801-1.9864346-4.915445-4.3630236-6.0976768-1.162617-.5780988-2.4721661-.9343732-4.0035396-1.0855848-1.6740259-.1693997-6.6697129-.3955038-30.4812512-.3955038-23.9727356,0-41.69159.6865147-52.665839,2.0377895-3.8772922.5349465-5.7545978.6433623-6.6682864.6433623h-.1419391c-.3387994-.4703963-.9671833-1.4871513-1.9044095-3.5584641-.0656201-.1437223-.1340933-.283165-.206846-.4229644-.1184015-.2239643-.2282438-.4365163-.3309536-.6372996,9.4371694.8420058,27.123927,1.343429,52.728606,1.506766,4.3537512.0274606,8.3629969.0431524,12.0313033.0431524,23.9784417,0,27.6075187-.6155451,28.7986662-.8159717,1.6005599-.2717528,3.0798653-1.0231743,4.2424823-2.1558344,1.6148252-1.5738126,2.6034063-3.7100323,2.9357864-6.3498149.1326667-1.0599073.5292404-4.2485451.5292404-25.7990429v-21.6920803c0-.1986435-.0071326-.3951471-.0221111-.5941472-.6027064-8.101943-4.5762889-10.8184013-7.8030862-11.6721759-.2945772-.0784588-.5948605-.1394427-.8965703-.1825951-2.4821517-.3580575-12.5591172-.4347332-20.5776085-.4347332h-4.772436c-13.7980532,0-17.9941735.9222478-19.9513644,1.6166083-.993574.3523514-1.905836.896927-2.6882844,1.6012732-1.6084058,1.4536279-3.9999733,4.5024663-7.3123619,9.321621-4.0848514,5.8794186-8.7495849,11.8768821-13.8415622,17.7916071-5.8729992,6.8373295-10.024184,11.0919372-12.937146,13.733503,17.7074422-30.7344592,28.3179276-62.3087845,31.5033557-93.7982316.1390861-1.7036263.2610539-2.775659.356631-3.456111,1.8744525.4739626,5.4072392,1.5399326,12.074099,3.8394893,8.8565742,3.0527613,12.2438554,4.4571742,13.5248739,5.0983967.2282438.1162617.4400826.2243209.6348032.326674-1.9728827,1.6187481-4.7574575,5.2203645-9.0527212,15.6514645-1.6490617,3.9553944-3.5834282,8.4129252-5.7360529,13.2181712-.0328101.0727527-.0641936.1455054-.0941506.220398-.5784555,1.4022731-1.0285238,2.692564-1.339506,3.8355664-.606986,2.2303702-.2168316,4.6165882,1.0684665,6.5381161,1.2867246,1.9240242,3.3423457,3.1947005,5.6361963,3.4857114,3.2881378.4190414,8.6347497.6865147,15.8907639.7945739l6.5812684.0021398c6.3080891,0,10.704636-.4133353,13.443562-1.2610472,2.6569009-.8241742,4.6946904-2.9682398,5.3808485-5.6629436.7061294-2.7713795.9286671-7.208939.6804519-13.5623202l-.002853-4.5498982c-.3273873-15.8558141-1.0584808-28.1674293-2.1754491-36.7650894,1.2724594.2596274,3.2410625.6922208,6.2346231,1.4183215,7.8009464,1.9472052,13.4086122,3.5937705,16.6132983,4.8740758.7767423.3070593,1.3744559.5763157,1.8373629.8063427-1.6369363,1.2649701-3.4386361,3.4504049-4.0663066,7.1169282-.1647635.9479252-.6783122,3.9043961-.6783122,20.0437319v7.0338331c0,6.652238.4429357,11.2609803,1.3516315,14.0897774.8116921,2.5235209,2.8202379,4.482495,5.3637302,5.2260706,2.7403526.8027764,7.1697095,1.1922174,13.5427054,1.1922174h4.772436c9.9742557,0,16.5733557-.5470719,20.1731889-1.6722427,1.0035596-.3145485,1.9336533-.8220344,2.7396393-1.4946405,1.8202446-1.5185348,4.5912674-4.7977568,8.4721259-10.0238274,2.8302236-3.9853514,4.3409125-5.6276371,5.0848447-6.302383.936513.446502,2.9978402,1.6305169,7.2075124,4.7503249,5.1354863,3.8533979,9.2895242,7.5138585,12.310902,10.8519246,1.3708895,1.5146118,2.1775889,2.5434923,2.6497683,3.2378528-.5313802.1376596-1.3616171.2713962-2.6576142.3341632-3.3887077.1690431-15.213165.336303-35.1581101.4978569h-23.8365025c-13.0213109,0-17.0041659,2.2578308-19.0205575,4.2228676-.6569143.6412225-1.1997067,1.392644-1.6026997,2.2189581-.9172549,1.8805152-2.1112555,5.8341265-1.8929973,18.3971666.1697564,4.6679431.250355,8.2124986.250355,10.9917239l.0349498,2.9072559c.1298137,10.9521379.2054195,17.2013828.2125521,18.7138549.0021398.3248908.0242509.6472853.0656201.9678965.9871546,7.704656,5.8059526,9.9706894,8.5912407,10.6354496.2004266.0474319.4058461.0888011.609839.1201846.7474986.1180449,3.0228043.4778855,24.5576104.4778855h6.7831215c16.8058791,0,19.5947335-.7984968,20.7873075-1.1387228,3.1098223-.8890811,6.3273471-3.5937705,9.8344563-8.2713427.980022-1.3020598,1.7938539-2.3644635,2.4493417-3.1847148,3.5677365-4.5673732,5.3202212-6.3177181,6.1126553-6.9846181.716115.340226,2.5748758,1.3612605,6.4735658,4.3134519,10.5477183,7.8091489,14.5205876,11.8886509,16.0155848,13.8793651ZM702.313287,626.3781671c13.0391425,0,22.8614734.0246075,28.3229205.1208979-.8623337.8066993-1.6569076,1.8313002-2.3780155,3.0684531-1.2239576,2.0969903-1.9457787,4.2028963-2.202553,6.4307701-.0106989.0388728-.0206846.0752491-.0313835.1094857-1.102703.0609839-2.885858.0841649-4.8587407.1084158-4.1083891.0524248-10.2395892.0781022-18.22955.0781022-16.0505346,0-25.977715-.0524248-29.5055088-.1547779-12.0926438-.5994967-21.9449317-3.0442022-29.1859675-7.2606505-6.8844047-4.0056793-12.5947803-10.3301734-16.9870476-18.8083621.5078425.172966,1.0456421.2631937,1.5920008.2631937.2960037,0,.593434-.0267473.8915775-.0816685.149785-.0267473.3223944-.0645502.5192547-.1119821.6419358-.1608406,1.2845848-.3826651,1.9286604-.6640469-.356631.53352-.6091257,1.1369396-.7375129,1.7803019-.2853048,1.4283071.0713262,2.9086824.9771689,4.049545,1.3409325,1.6900743,3.7246541,3.3120321,7.2859713,4.9621637,5.1012498,2.363037,11.044862,3.9935539,17.6639332,4.8466152,6.5948204.8384395,21.711695,1.2635436,44.9347923,1.2635436ZM625.2859846,592.0495806c.2631937.0813119.4950038.1569176.7004233.2239643-.2910109.5117655-.6305236,1.0713195-.9243875,1.5563377-2.6176715,3.7303602-3.179722,5.292404-3.3772955,6.2406858-.1319535.6298103-.1376596,1.2721028-.0249642,1.8912142.1761757,1.0249575.623391,2.1740226,1.3594774,3.4924873-.2439356-.0631237-.4950038-.1069893-.7489251-.1326667-.1626237-.0146219-.3238209-.023181-.4835916-.023181-1.663327,0-3.228937.8384395-4.1476185,2.2496283-1.3815885,2.1215978-3.2674532,5.4764256-5.6040995,9.9696195-3.1868546,6.3722826-4.982135,10.0669798-5.5235009,11.3672564-.6290971,1.5074792-.8894377,2.8505516-.7931473,4.1030396.0014265.0124821.002853.0246075.002853.0356631-.803133-.7446455-1.8815851-1.8184614-3.3223744-3.3658833-1.4065526-1.5064093-2.5042629-2.7321501-3.2681664-3.6486917-.4985701-.5970003-.8858714-1.093074-1.1604773-1.4807319.8152585-.6640469,2.7025497-2.3444922,7.4714194-7.0045894,4.5078158-4.4040362,8.0334698-7.9286203,10.4749656-10.4753222,3.776009-4.1019697,4.5178015-5.4475385,4.7617371-5.8897609.6818785-1.2392927,1.2902909-3.2756557,1.859474-6.2260639.0085591-.0424391.016405-.0838083.0235376-.1255341.2767457-1.663327.4907243-2.6843615.6469286-3.3095356.4507816.093794,1.1148285.2592707,2.0777322.5520648ZM606.30323,534.7165118c-.0927241-.1683298-.2289571-.4169016-.3766023-.6947172.2510682.0171183.5192547.0378029.803133.0620538,3.4108188.3195414,11.9792352.5010665,26.1653029.5534913,2.0106856.0071326,3.8837115.0110556,5.6176515.0110556,7.6632868,0,12.6875043-.0745359,14.9342796-.2196847,2.0456354-.1315968,3.7988334-1.509619,4.4079591-3.4668099.5898677-1.8876479.9101223-4.8551744.9814485-9.0726925.1019965-6.2089456-.359484-13.367243-1.3723161-21.2823113.7917208.1084158,1.976449.3277439,3.7417724.7457154,7.4999498,1.8769489,10.3258939,2.8933473,11.3665431,3.4136719.0228244.0106989.0456488.023181.0670466.0338799-.0292437.0306703-.1854481.1779589-.2289571.2218245-1.279592,1.2845848-2.1019831,2.8091824-2.3801553,4.409029-.1012832.5727494-.3423658,1.942569-.3423658,10.5544943v3.1126753c0,3.4753691.2239643,5.9382627.683305,7.5284803.4878712,1.6854381,1.829517,2.9857147,3.5277938,3.4208045,1.723241.4422224,4.6861313.6665433,8.8052193.6665433h3.5791487c10.8993565,0,12.373669-.3644769,13.0027661-.5203246.0691864-.0171183.1376596-.0353065.2061327-.0559911,1.0656134-.313122,2.76603-1.1283805,6.4692863-4.6832782,1.8502016-1.849845,2.8116788-2.6212378,3.2681664-2.9393527.443649.243579,1.3480652.8298803,3.0420624,2.2253774,3.0841449,2.6882844,5.2938305,4.8376995,6.5670032,6.3915407.0485018.0584875.0984302.116975.149785.1743926.8288104.920108,1.1697497,1.5024864,1.3109755,1.8291604-.1740359.0620538-.4336633.1340933-.8045595.1936506-.1269606.0206846-.2510682.0452921-.3758891.0756058-1.1191081.2692564-2.1376462.7225344-3.0292237,1.3477085-.1868746.1144785-.3659034.2414392-.5349465.3801686-.4892977.3987135-1.7874346,1.456481-7.7702761,9.2898808-17.276632,23.1039825-40.4305428,42.2083483-68.8490403,56.8259396-.340226.1754625-.6676132.3434356-.9807352.5057028,1.1041296-.8042029,2.3937072-1.7524847,3.8402026-2.8273705,12.6197444-9.491734,25.5205141-21.5733222,38.3670758-35.9277198,11.1147616-12.4214576,17.1090154-20.7348827,18.3272669-25.4156646.3737493-1.4379362.0827384-2.9661-.7924341-4.1665199-.876599-1.1989934-2.243209-1.942569-3.7253674-2.0242375-3.3466253-.1861614-11.2517079-.2849482-22.8628999-.2849482-3.8787187,0-8.2110721.009629-13.0027661.0303136h-.0156918c-18.8087187,0-30.4306096.0791721-34.52616.2339499-4.1440522.1583442-8.7502981.6105523-13.6932037,1.3455687-1.2310902.1947205-1.9115421.2450055-2.2581875.2546345-.2353765-.3377296-.6504949-.9992801-1.309549-2.2556911ZM849.2573828,609.3076678c1.8651801,10.3954369,2.4436356,20.3700492,1.7175349,29.6463781-.7039896,9.0031495-3.0998366,16.7038826-7.1204945,22.8921436-3.8865646,5.9739258-8.9478717,9.600863-15.4699394,11.0840914-.0984302.0235376-.1968603.0470753-.2952905.0727527-2.1683165.5802386-5.2225043.9953571-9.0798252,1.23323-1.6975635.1041363-3.0313635.1533513-4.0712995.1533513h-.1554911c-.0278172-.1276739-.057061-.2674732-.0884445-.4208246-.9343732-7.7991633-5.5748557-13.8123185-13.8344296-17.976342,2.7203812.1512115,5.2738592.2282438,7.6162116.2282438,9.7074957,0,15.8073123-1.2867246,19.19602-4.0481184,4.4928373-3.6608172,6.7667165-11.8907907,7.1540178-25.891767.3637636-3.076299.3323801-5.4011764-.0848782-7.1854013-.0213979-.0845215-.0427957-.1711829-.0641936-.2557044-.5435056-2.3526947-2.1026964-4.2702995-4.2724393-5.3266406-1.069893-.5213945-2.2268039-.7749592-3.3837149-.7749592-1.1882945,0-2.379442.2674732-3.4878511.7849448-.446502.2082725-.9122621.4382995-1.3901476.690081-1.6718861.883375-4.0598873,2.2699563-7.094817,4.1269339-23.2066922,13.9203777-49.5060884,25.1774351-78.2006183,33.4705322,13.3893541-6.015295,26.8835578-13.3069724,40.2450947-21.7512811,16.9556641-10.7082023,30.4256168-21.0565639,40.0403885-30.7519342,8.6925239-8.7727659,12.2303034-15.0277169,11.4713926-20.2816048-.3302403-2.2817251-1.6283771-4.3098856-3.5620304-5.5627303-1.3081225-.8498517-2.8202379-1.2885078-4.3494716-1.2885078-.7318068,0-1.4650401.1002133-2.1811552.3049195-2.1968469.6216078-5.6119454,2.3013398-10.4421556,5.13192-20.9806015,11.8315899-42.8670457,21.5640498-64.9981388,28.8931734,15.673219-8.2809717,30.9962264-18.1967399,45.5931331-29.5087185,24.7430585-19.1724824,25.1324996-25.2405588,25.2994029-27.8332661.0121255-.1711829.0178315-.3420091.0178315-.513192,0-.4486418-.0178315-.8359431-.0449355-1.1647568-.1854481-2.2086158-1.276739-4.2406992-3.0170982-5.6137285-1.4186781-1.1191081-3.1654567-1.7171782-4.9500382-1.7171782-.4022798,0-.8074126.0313835-1.2111189.0923674-3.0156717.4625504-7.2067992,2.049915-12.8151782,4.852678-11.4571274,5.3976101-24.9805748,10.8184013-40.0318293,16.0291368-2.6005532.9008499-4.9200812,1.6818718-6.9828349,2.3584008,8.8729792-4.5063893,15.8301367-8.2299735,20.758777-11.1115519,7.5277671-4.3983301,16.056954-10.2246107,25.3450516-17.3155048,3.6062526-2.8227343,6.3437522-5.0648734,8.2167782-6.7271305,2.422951-2.1519114,3.3081091-5.5527446,2.2396427-8.6133518-1.0677532-3.0588241-3.8787187-5.1693663-7.1140751-5.3466119-.653348-.0353065-1.4949971-.0609839-2.5705962-.0609839-2.4750191,0-5.6732859.1397994-9.5035028.4172583-8.1112154.5880845-14.9542509,1.3905043-20.3465116,2.3880012-.2753191.0509982-.5463587.1159051-.8138319.1947205-.6490684.1925807-1.1076959.2849482-1.4086924.3302403-.3302403-.5388694-.9029897-1.6169649-1.7838682-3.7118154-.1868746-.4208246-.3559177-.8063427-.5071293-1.1583375,10.8458619.7553444,33.6788048,1.1387228,67.9353517,1.1387228h15.5733623c28.3321929,0,32.103209-.9932173,33.5233136-1.3669666,3.1668832-.9069126,6.095537-3.2417758,8.8715527-6.9888976.8516348-1.0228177,1.5377929-1.8822984,2.0556211-2.5766589,1.9293737-2.462537,3.1412058-3.9475485,3.8944105-4.8409091,2.3152484,1.8059794,4.3209411,2.9939172,6.1112287,3.619448.8637603.3009966,1.753198.446502,2.6340765.446502,2.2203846,0,4.385848-.9265273,5.9307735-2.6319368,1.4079792-1.5577642,2.7018364-3.8098889,3.9571775-6.8865445.7332333-1.7346532,1.2810185-3.0566843,1.66618-4.0085324.9108356-2.2442789.7532047-4.7817084-.4265307-6.8983134-1.1804486-2.116605-3.2581808-3.5820017-5.6461819-3.9871345-.13338-.0217545-.2567743-.0431524-.3773156-.0609839-2.096277-.3912242-8.7196279-1.3177515-71.7384647-1.3177515h-23.36147c-40.4027256,0-45.5917065.6843749-47.2964027.9086958-8.5099288,1.1269539-9.7388792,6.8273438-9.8729725,9.2253306-.0078459.1376596-.0114122.2753191-.013552.4108389-.0035663,1.0349432-.0891577,1.5816585-.1397994,1.8156084-.0413692.1986435-.076319.4012099-.1041363.6037763-.5927207,4.3747924-1.6939972,8.3401725-3.2788654,11.7862978-.6547745,1.4261674-.8659001,2.9899943-.6455021,4.4985434-1.4379362.4407959-2.7453454,1.2845848-3.7524713,2.4707395-.8459287.9953571-1.7688897,1.9432823-2.7446321,2.8166716-3.1982668,2.8601806-6.2667199,4.3116687-9.1226209,4.3116687-1.7646102,0-3.5805752-.5606239-5.3915474-1.670103-2.9964136-1.7956371-4.0762923-3.96538-3.5584641-7.0652167.5977135-3.5919874,3.1490517-7.0812651,7.5791219-10.3722559,10.7117686-8.155081,17.260227-18.6193477,19.5619234-31.1927301.0527814.2303836.1055628.4782422.1611972.7435756.4579142,2.3113255,1.1469253,4.1465486,2.0969903,5.5744991,1.1383661,1.7153951,2.8951304,2.9250874,4.9015364,3.3772955,1.2096923.2717528,4.8872712,1.09985,28.9812613,1.325954h.0378029c23.2437818,0,26.3100951-.2970736,27.3215006-.393364,1.4714595-.1437223,2.7717361-.4564877,3.8787187-.9304503,2.5220944-1.0780955,4.3138085-3.3733726,4.7503249-6.0802019.3780289-2.3444922.503563-6.7759889.3737493-13.1728791-.1212545-5.9817717-.3680432-9.6718326-.6312369-12.0106187,3.5384927.3405826,9.5006497,1.6957804,17.7794817,4.0441955,2.3608972.7888678,4.1226543,1.4536279,5.2403359,1.9710995.0035663.0017832.0078459.0057061.0121255.0078459-4.7845614,4.7032496-6.3145084,10.9717526-4.5463319,18.6332563.0592007.4072726.1027097.5627637.2246775.9561277l.1077026.3480719c.7082692,2.2974169,2.4250908,4.2036096,4.6518947,5.1062426.879452.3562744,1.873026.6059161,2.9507649.7396527,1.8038396.2282438,6.7310534.556701,28.5254869.7810219h.0142652c27.431343,0,31.49337-.9422191,32.8285965-1.2510615.7061294-.163337,1.3865813-.4229644,2.0242375-.7710362,1.8116855-.9875112,4.1483317-3.0784388,7.1461719-6.3929672,2.9422057-3.2100356,4.4628803-4.1757923,5.0377695-4.4589573.6333766.3637636,2.7888544,1.8016998,8.088391,7.0969568,6.0834115,6.0898309,8.1097889,8.821981,8.7788286,9.9293202-.3038496.1141219-.7318068.2439356-1.3380795.3815952-1.8095457.3637636-5.295257,1.5420724-12.547705,7.0908941-1.1312335.7574842-4.7068159,3.1668832-10.7174747,7.2289103-4.552038,3.0823617-7.5420323,5.5274238-9.1468718,7.4764122-2.0912842,2.5434923-2.4122521,6.1058793-.8045595,8.9796119.5149752.9222478,1.2175382,1.8626837,2.082725,2.7909942-.389441.1672599-.7589108.3641202-1.1112622.5880845-.9671833-.406916-2.0220977-.6273139-3.1098223-.6273139-.0527814,0-.1041363.0017832-.1554911.0017832-4.0770055.0788155-11.284518.1790288-21.7979997.3009966,0,0-4.5399126-.0017832-4.5670165-.0017832-11.6290235.123751-19.672479.4739626-23.9092552,1.0463553-3.0249441.4072726-5.4272105,2.4586141-6.4257773,5.1337032-.8266706-1.2018465-1.9757357-2.1715261-3.3409192-2.7770856-1.0342299-.4604106-2.1412125-.6904376-3.2467686-.6904376-1.2532013,0-2.5021231.2949338-3.6447688.8790954-1.5977069.8202513-3.5877078,2.073096-5.9150817,3.7314301-3.9678765,2.5944905-7.1561576,4.8583841-9.7324599,6.9140051-2.823091,1.9550511-4.9528913,3.7078925-6.3394726,5.2146584-2.4514815,2.6651034-2.8052594,6.6443921-.8616205,9.7010764,1.2011332,1.8901443,3.1861413,4.2093156,6.06558,7.0891109,7.5420323,7.7028729,14.0213042,16.9278469,19.1995863,27.3628698,5.1875545,10.4585606,8.7617103,21.0116284,10.6218976,31.35999ZM937.4664934,637.3017745c.563477.3188281,1.0656134.6041329,1.5121154.8637603-7.1839748,2.4586141-13.2103254,7.9642834-17.8443885,16.3711459-1.1041296-.7592674-3.1098223-2.2285871-6.7253473-5.0709361-30.6025058-24.721304-51.7086414-60.846954-62.7734747-107.4589819,2.2232376,5.8637268,4.6048194,11.2670431,7.1190679,16.1432587,2.8209512,5.4739292,5.2360563,9.1796818,7.3844014,11.3298101,1.5456387,1.5442122,3.5934139,2.3405692,5.6547411,2.3405692,1.5634703,0,3.1340732-.456131,4.5021097-1.3905043,2.9193813-1.9907142,7.0812651-6.2078757,12.370816-12.5337964,7.3965269-8.8376727,13.4863577-17.6500246,18.0983098-26.1906237.5470719-1.0406492.980022-1.8352231,1.3195347-2.4411392.1048495.0748925.5078425.3719661.6048462.436873,11.4535611,7.8009464,16.7623701,12.1696761,19.2131383,14.573369-1.7211012.609839-4.7995399,2.0830816-11.213905,6.3002432-7.5591506,4.9275705-17.5241339,10.6218976-29.5953798,16.9085888-5.2225043,2.7339332-8.7075024,5.0531046-10.674679,7.0930339-2.1797286,2.2617538-2.8330766,5.5901909-1.6704596,8.5070758,1.0285238,2.5766589,3.2539012,5.851958,6.8045194,10.0081356,14.7245806,17.7719924,33.5604033,32.6759584,55.9140341,44.2101181Z" fill="#fff"/>
    </g>
  </g>
</svg>