<?xml version="1.0" encoding="UTF-8"?>
<svg xmlns="http://www.w3.org/2000/svg" version="1.1" viewBox="0 0 1080 1080">
  <!-- Generator: Adobe Illustrator 28.7.3, SVG Export Plug-In . SVG Version: 1.2.0 Build 164)  -->
  <g>
    <g id="shape_of_love">
      <path d="M591.327713,608.5645245c15.8424922-13.0658087,28.6180676-29.3453521,36.4242822-46.8266008,6.9461329-15.4867794,11.404046-34.1289614,13.2498591-55.4097889.7574382-8.5707316,1.1414664-16.3504005,1.1414664-23.1213316,0-4.4384462-.1893595-8.5105613-.5645392-12.1048533l-.1982081-1.9042138,16.8558353,8.2319196-4.1174239,3.2269876c-.0336246,1.3290563-.0690189,3.1146991-.1008738,5.3604679,0,2.3873461-.0230063,4.2349289-.0654795,5.521512.6689524,15.7646247,2.9607339,30.1294046,6.8134043,42.5793524,2.966043,9.7139678,7.2239782,19.2173395,12.6534651,28.2499668,9.7281255,16.3185456,21.4294837,27.5420807,39.6263837,35.9323344l-11.4056025,15.10909c-18.2684918-14.6649245-30.0276606-30.8277351-38.8408433-49.9194248-5.3870137-11.7739165-9.2786178-25.3812582-11.6164118-40.5778042-3.2438883,20.774689-9.2485326,38.3515023-17.9095198,52.3694179-8.9653782,14.5275937-24.12594,29.0504681-41.9457942,39.4017082v-6.1187393ZM893.4041166,531.335983h-20.0792515v19.0049736l.6370975,57.5776903c-1.8865166,4.4172096-5.4542628,6.1727673-9.7185917,5.4939032-1.0107876-.1609133-2.3473279-1.3209143-2.3473279-4.6798341l.3822585-45.9807453v-31.4159877h-15.8708076c-.3114699,14.0196853-.969804,24.9777631-1.9555355,32.5822301-1.4582455,10.9863932-4.0084054,20.5640929-7.5779213,28.4676418-2.9306487,6.6275841-9.9900434,17.3449806-18.5979391,26.1854596l-.0300852-7.3167541c6.6240447-11.0093995,11.1456675-22.8417166,13.4781524-35.2368032,2.0422516-10.8182702,3.2244214-25.8449236,3.5199639-44.6817742h-7.1655776c-1.4079192,0-2.9481246.1197876-4.8066576.3870146l-6.7513536-8.9435886,2.3200969.4902112c2.8970241.6123215,5.9409346.9220217,9.0467851.9220217h7.4080286l.0973343-5.1781872v-34.3448666h-3.6827777c-1.6521399,0-3.2987495.1120451-4.9469076.3380156l-6.8960278-9.1352709,2.3961946.5822364c2.9235698.7114256,6.0170323,1.0706778,9.1919018,1.0706778h42.6306741l6.2396847-7.365113,10.9038802,14.5094541h-17.9045425v39.5230539h3.245658l5.9706013-7.2471812,10.8629922,14.3915222ZM862.2783016,484.668588h-15.7115333v34.5342262l-.0973343,4.9888277h15.8088676v-39.5230539ZM878.1190241,613.1275288c11.5119986-3.4533243,22.7638491-10.5215675,30.9275462-17.6641389,8.5866591-7.4717384,17.2954285-18.1395828,25.8944756-31.7150696h5.0589541l-11.8670492-15.7221515-.6972679,1.7431697c-1.7891823,4.4720708-4.6047995,10.0042011-8.3619052,16.4211891-10.5244974,17.4883275-24.2185552,31.4602305-40.703454,41.5281414l-.1344984.0814069-.1168012.1097224v5.2177305ZM881.6867703,562.035745c20.0255095-6.7083204,36.2650078-20.4601888,50.5837751-40.3358623h5.3275974l-11.8259923-15.738079-.6954981,1.766176c-1.2352613,3.1394751-3.0598379,6.6735967-5.422408,10.50857-3.581904,5.8329819-8.450391,12.0747681-14.4691931,18.5536962-7.8522272,8.4557001-15.6743692,15.0921329-23.2469814,19.7217083l-.1344984.0831766-.1168012.1079526v5.3326616ZM886.2629196,516.3661037c8.8801767-3.776126,17.6992584-9.061086,23.3499597-13.9136456,6.2046222-5.3445405,12.4393295-12.5844462,18.5413082-21.526818h4.8007887l-11.5522529-15.3044987-.6176307,1.7927217c-1.2741951,3.6969355-2.9819704,7.2912274-5.0790832,10.6837718-8.6857631,14.0940134-19.4601252,26.1101181-29.4430898,33.2810048v4.987464ZM471.2527557,544.3964826v18.1289645l.3822585,37.9710135c0,5.1516415-1.6060167,9.0644822-4.7729224,11.6429576-2.1174645,1.6635325-4.5809083,2.4970684-7.3443189,2.4970684-1.902444,0-3.1660208-1.1697819-3.3792715-3.1270871-.1831655-2.2209928-.8494634-3.7429481-2.0422516-4.6968247-1.5458464-1.2246431-5.3887834-2.5840229-9.6414095-3.5361298v-4.8820465c6.4594612.4778232,12.6083373.7358417,15.7000301.7358417.168123,0,.2256387-.0318549.2256387-.0318549,0,0,.2079416-.2247539.2079416-1.1343876v-16.3769462h-38.6337719l.2415662,28.1508628c-1.5641335,3.73056-5.7406195,6.2639962-9.7201941,5.1314439-.9426361-.268266-1.7086279-.9071333-1.7086279-4.1634096l.5105629-42.3050465c-.0008849-18.5466173-.1707775-30.2975275-.5061386-34.9111756l-.1218015-1.670728,11.1250069,5.4331429h38.8372892l5.6775472-4.5943606,8.859148,11.7387016h-3.8962814ZM460.5884508,562.9519484h-38.6470447v11.490762h38.6470447v-11.490762ZM460.5884508,544.3964826h-38.6470447v11.4111249h38.6470447v-11.4111249ZM394.5379024,609.9609667l-.3739492-88.1301251v-53.2490333l-11.6979236-5.7578868c1.1672321,19.5251596.141682,147.404204.141682,147.404204,0,3.5606674.5049199,3.7900974,1.4244609,4.2073005,1.9569343.8878767,8.7186629-.4572736,10.5057298-4.4744592ZM406.8476841,527.8171244s3.0368618-.3833639,4.0595465-.3833639h76.8689924l-10.5306589-13.9530231-6.1043004,6.808682h-24.6716023v-11.9685852h33.4588135l-10.2872407-13.6315553-5.7301428,6.4872143h-17.4414301v-10.9333017h39.9076896l-10.8091376-14.320003-6.5691901,7.175662h-22.5293618v-8.4326938l3.9745846-3.6542288-15.5715296-7.6047005.174317,1.9396081c.3150093,3.4934182.4840172,9.4608985.5025992,17.7520151h-21.3932045c-2.4156615,0-5.2525153-.3875677-8.431809-1.1520847l-2.3829218-.5716181,6.9530537,9.2115231c1.5593538-.2281891,2.8941008-.3434793,3.9890966-.3434793h21.2666699v10.9333017h-16.2973091c-2.3953098,0-5.0622709-.4088043-7.928325-1.2157945l-2.4430921-.6884193,6.9939602,9.2634383s2.3958179-.2148835,3.5048764-.2148835h16.1698895v11.9685852h-24.5158673c-2.891715,0-5.782545-.3097002-8.5919682-.920252l-2.3590306-.5132175,6.7640329,8.9611744ZM395.2688952,493.3179377l4.3451857,19.9746002s.6485331,2.2844088,2.5786063,3.0267622c1.9300731.7423534,4.0739687.3770419,5.8442524-1.4734567,1.7702836-1.8504985.5982043-12.8134109-12.7680444-21.5279058ZM377.008142,500.3741298l-11.5294631,23.8276788s-1.164085,2.8461763.2098065,5.1446493c1.3738916,2.298473,3.850604,3.6389361,7.1330789,3.1673521,3.2824749-.471584,10.8462554-12.5803704,4.1865777-32.1396801ZM248.96699,614.2211942c-1.7113148,0-5.2006082-.5456631-9.2665293-1.5402432-11.3235239-2.7342103-21.7913905-7.1425713-31.1080572-13.0994333-2.816502-1.7608668-5.5781429-3.681008-8.2150189-5.714411-14.6882476,11.3495818-35.9192651,19.3913933-57.8324865,21.6181274l.0001445-5.507055c19.5479397-4.5189848,36.3378778-12.375458,49.9562236-23.3757541-5.1843812-5.4808086-9.799799-11.7703771-13.754228-18.7465952-8.6822237,13.2604774-20.2198832,23.8380663-34.3324786,31.4708488-.1168591.084551-1.8726527,1.1326766-1.8726527,1.1326766l.0123099-6.1775173c13.1790078-10.1006177,23.6045143-22.7739338,30.8907541-37.6123791,2.1873682-4.4879982,3.7137478-8.5087916,4.5348957-11.9420395l.3734099-1.5644284,11.0113351,5.377612-4.053699,7.904102h29.6099931l6.3454805-5.2237574,9.3378203,12.3680985h-3.7928043c-3.2088535,6.5001646-12.7611965,17.9148289-18.7950411,23.6734828,2.1528588,1.2600374,4.2287349,2.350182,6.1895796,3.2474277,10.533346,5.1003198,25.0343939,8.0769811,43.128849,8.860965l2.7449221.1291639-11.1127218,14.7211087ZM213.0618197,563.589046h-29.6772423c4.4800345,6.7355368,9.6812281,12.5809067,15.5009371,17.4210783,5.6285798-5.5285909,10.3855748-11.3739608,14.1763052-17.4210783ZM178.3523917,542.7347198c3.0368316,1.8688195,9.7608652,2.7766835,20.5578989,2.7766835,11.4589072,0,19.1757511-.7857536,23.5327904-2.3838066,5.2029633-1.6653022,6.2957625-4.8348625,6.2957625-7.2009719,0-3.1093899-1.5396524-4.3605787-2.9943584-4.9144996-.3804888-.1008738-.9556463-.2530693-.9556463-1.6157502,0-2.1289676.5263934-9.6501804.5263934-9.6501804l-3.7486801-1.8307508s-4.6564862,13.4824793-5.8218438,14.5106839c-.8733545.8406148-2.2528477,1.4263906-4.10397,1.7431697-2.3218666.4070345-6.9912607.6140912-13.8772233.6140912-7.8009055,0-10.7660636-.4335803-11.8818691-.7999114-.8698151-.2831545-1.8670497-.9432583-1.8670497-3.5518188v-15.7074845l-10.0272074-4.8970083v22.7546971c0,5.0224523,1.4768275,8.4415424,4.365003,10.1528572ZM228.6000315,477.4286824h-.0001106.0001106ZM166.3669942,480.2765723l4.3451857,19.9746002s.6485331,2.2844088,2.5786063,3.0267622c1.9300731.7423534,4.0739687.3770419,5.8442524-1.4734567,1.7702836-1.8504985.5982043-12.8134109-12.7680444-21.5279058ZM192.619002,480.2765723l4.3451857,19.9746002s.6485331,2.2844088,2.5786063,3.0267622c1.9300731.7423534,4.0739687.3770419,5.8442524-1.4734567,1.7702836-1.8504985.5982043-12.8134109-12.7680444-21.5279058ZM191.4780741,509.8271655l9.6144815,18.0395964s1.2454442,2.0218773,3.3046687,2.2112586,4.0229231-.7452998,5.2231228-3.0075486c1.2001997-2.2622488-2.9096181-12.4930168-18.142273-17.2433064ZM152.5158654,494.3035644l-12.0352765,24.8730317s-1.215155,2.9710419.2190111,5.3703521,4.0195352,3.7985812,7.4460168,3.3063082c3.4264816-.492273,11.3220955-13.1322885,4.3702486-33.549692ZM162.6607635,514.9172093l-12.0352765,24.8730317s-1.215155,2.9710419.2190111,5.3703521c1.4341661,2.3993102,4.0195352,3.7985812,7.4460168,3.3063082,3.4264816-.492273,11.3220955-13.1322885,4.3702486-33.549692ZM230.6061464,515.5083087l9.4244105,25.9749124s1.2809093,2.9432912,4.0004343,3.5895922,5.5256723-.2298445,7.5633857-3.0282071c2.0377133-2.7983626-1.510164-17.2732814-20.9882305-26.5362975ZM240.2437633,509.1172062l-3.3116895,10.6841306,3.1784851,2.0980745,13.1456196-12.7822051h3.5181644-16.5305797ZM249.0782158,495.9268537l-8.0442746,6.0460114h-14.4231805c1.8272225-2.1449482,5.5765056-7.2524583,9.0698269-12.0608087.962939-1.3254286,2.4150121-3.326468,3.4668686-4.7762619.7646464-1.0539267,1.3177961-1.8165447,1.3177961-1.8165447l-11.8652209-5.8905674h-.0001106l-2.6601034-3.5239458,2.6601034,3.5239458c2.3581458-.6229398,7.0284247-1.9785418,7.0284247-1.9785418l7.9942469-.3093684-10.2154609-13.53235-.2156841-.1797367-.9689192.6972679c-2.6687308,1.9201412-6.9071992,3.8880647-12.6021433,5.8471397-7.5389876,2.6174091-16.832648,4.9835185-27.6190633,7.0293095-12.8659415,2.4023886-29.4789235,4.232385-41.8564236,4.9250073l3.8292217,5.0725574c3.3446515.2360358,6.6865378.3851343,9.9736735.4402167l7.8079843-.0530915c6.1019787-.1521955,12.149981-.5149872,18.1333888-1.088375l6.7036819-.7308925c10.5536977-1.2972014,20.8870659-3.2527369,30.9434736-5.8612974l-.2044021,1.2741951c-.2813847,1.7626365-.7963719,3.7394086-1.529919,5.8807643-2.1041916,6.2010827-4.5198531,11.9544275-7.1832748,17.1113781h-65.3060219l-.1150315,7.144341h105.8376256l-9.9570824-13.1903525Z" fill="#fff"/>
    </g>
  </g>
</svg>