<?xml version="1.0" encoding="UTF-8"?>
<svg xmlns="http://www.w3.org/2000/svg" version="1.1" viewBox="0 0 1080 1080">
  <!-- Generator: Adobe Illustrator 28.7.3, SVG Export Plug-In . SVG Version: 1.2.0 Build 164)  -->
  <g>
    <g id="whats_on_you_mind">
      <g>
        <path d="M330.8447266,752.0905762l-37.6445312,41.8085938-1.8212891,2.0227051-5.2832031,5.8676758-5.2763672-5.8598633-1.828125-2.0305176-28.4179688-31.5610352v76.9123535c0,2.9160156-2.3637695,5.2797852-5.2797852,5.2797852-2.9155273,0-5.2797852-2.3637695-5.2797852-5.2797852v-90.6743164c0-.0114746.003418-.0222168.0039062-.0339355.0019531-.3181152.0375977-.6279297.09375-.9304199.0078125-.0429688.0097656-.0864258.019043-.1291504.0576172-.2727051.1469727-.532959.2446289-.7883301.0273438-.0705566.0454102-.1437988.0756836-.2133789.0849609-.1965332.1967773-.3774414.3041992-.5605469.0717773-.1213379.1337891-.2470703.2163086-.3632812.0776367-.1113281.1728516-.2089844.2587891-.3139648.1459961-.1750488.2910156-.3510742.4628906-.5095215.0844727-.0793457.1787109-.1477051.2680664-.2214355.1821289-.1508789.3691406-.2915039.5649414-.4138184.1298828-.0808105.2670898-.1501465.4047852-.2194824.15625-.0795898.3129883-.1564941.4746094-.2192383.1806641-.0693359.3681641-.1235352.5576172-.1728516.1333008-.0351562.2661133-.0720215.4013672-.0964355.2270508-.0405273.4609375-.0598145.6972656-.0703125.1083984-.0048828.2163086-.0158691.324707-.0141602.253418.0046387.4995117.0358887.7431641.0749512.0986328.0158691.1987305.0227051.2963867.0441895.2285156.0500488.4462891.1271973.6630859.2058105.1064453.0388184.2158203.067627.3203125.1135254.1821289.079834.3500977.1833496.5205078.2827148.1298828.0756836.2631836.1425781.387207.2302246.1210938.0849609.2280273.1870117.3408203.28125.1611328.135498.3232422.269043.4697266.4267578.0209961.0219727.0458984.0371094.065918.0595703l31.6259766,35.1242676,5.2763672,5.8596191,5.2832031-5.8674316,31.6186523-35.1164551c1.9370117-2.151123,5.2514648-2.3249512,7.402832-.3876953l.0561523.0507812c2.1513672,1.9370117,2.3251953,5.2512207.3881836,7.4025879ZM590.7130417,743.2810999h-16.8645779c-2.9158702,0-5.2796545,2.3637379-5.2796545,5.2796081s2.3637844,5.2796081,5.2796545,5.2796081h16.8644385v.0000465c22.134378,0,40.0777939,17.9434624,40.0777939,40.0778404s-17.943323,40.0777939-40.0776545,40.0778869v-.0003254h-16.8645779c-2.9158702,0-5.2796545,2.3637844-5.2796545,5.2796545s2.3637844,5.2796081,5.2796545,5.2796081h16.8644385v.0003254c27.9660253,0,50.63701-22.6710312,50.63701-50.6371495,0-27.9660718-22.6708917-50.63701-50.6368706-50.637103ZM585.431535,672.9484014v-39.2979513c0-2.9158535-2.3637664-5.2796199-5.2796199-5.2796199h-.0000106c-2.9158536,0-5.27962,2.3637664-5.27962,5.27962v39.2979511c0,2.9158536,2.3637664,5.27962,5.27962,5.27962h.0000106c2.9158536,0,5.2796199-2.3637663,5.2796199-5.2796199ZM369.7889873,247.0991119l-40.336319,90.5968825c-1.1810071,2.6525861.0119433,5.7603275,2.6645293,6.9413349l.0404912.0180278c2.6525862,1.1810074,5.7603278-.011943,6.9413349-2.6645293l40.3363186-90.596882c1.1810072-2.6525864-.0119433-5.7603281-2.6645295-6.9413355l-.0404907-.0180276c-2.6525861-1.1810074-5.7603277.011943-6.9413348,2.6645292ZM611.4066138,577.7748233h-31.254694c-2.9158702,0-5.2796081,2.3637379-5.2796081,5.2796081s2.3637379,5.2796545,5.2796081,5.2796545h31.254694c11.2523797,0,20.3745086,9.122036,20.3745086,20.3746016,0,11.2526121-9.1221289,20.3746481-20.3745086,20.3746481v.001348c-.7186366-.0004648-1.4486151.1426117-2.1475426.453773-2.6638825,1.1859827-3.8616721,4.3068456-2.6757823,6.9705887.8748215,1.964955,2.8027756,3.1283467,4.823325,3.1296018.0236137.0000465.0470414.0023707.070841.0020918.0232418-.0000465.0461117-.0015804.0693535-.0017199,17.0193219-.0759542,30.7935302-13.8930669,30.7935302-30.9303314,0-17.0843059-13.8495117-30.9338642-30.9337247-30.9338642ZM445.0713981,414.3529822l.0000002,42.2370123c0,2.9158535,2.3637663,5.2796197,5.2796198,5.2796197h.0000106c2.9158535,0,5.2796198-2.3637663,5.2796198-5.2796198l.0000003-42.2370121c0-2.9158536-2.3637664-5.2796201-5.27962-5.2796201h-.0000107c-2.9158536,0-5.2796199,2.3637664-5.2796199,5.2796199ZM453.8537098,508.9664114l.0565523-.0509199c2.151287-1.9370276,2.324979-5.2512613.387952-7.4025489l-81.6511535-90.6828372c-1.9370271-2.1512876-5.2512611-2.3249799-7.4025484-.3879525l-.0565527.0509203c-2.1512873,1.9370272-2.3249795,5.2512609-.3879525,7.4025484l81.6511544,90.6828379c1.9370272,2.1512876,5.2512613,2.3249797,7.4025484.387952ZM387.5725152,510.298846c2.9158565,0,5.2796252-2.3637687,5.2796252-5.2796252s-2.3637687-5.2796252-5.2796252-5.2796252-5.2796252,2.3637687-5.2796252,5.2796252,2.3637687,5.2796252,5.2796252,5.2796252ZM407.1669272,510.298846c2.9158565,0,5.2796252-2.3637687,5.2796252-5.2796252s-2.3637687-5.2796252-5.2796252-5.2796252-5.2796252,2.3637687-5.2796252,5.2796252,2.3637687,5.2796252,5.2796252,5.2796252ZM387.5725152,489.1803452c2.9158565,0,5.2796252-2.3637687,5.2796252-5.2796252s-2.3637687-5.2796252-5.2796252-5.2796252-5.2796252,2.3637687-5.2796252,5.2796252,2.3637687,5.2796252,5.2796252,5.2796252ZM368.7401475,510.298846c2.9158565,0,5.2796252-2.3637687,5.2796252-5.2796252s-2.3637687-5.2796252-5.2796252-5.2796252-5.2796252,2.3637687-5.2796252,5.2796252,2.3637687,5.2796252,5.2796252,5.2796252ZM368.7401475,489.1803452c2.9158565,0,5.2796252-2.3637687,5.2796252-5.2796252s-2.3637687-5.2796252-5.2796252-5.2796252-5.2796252,2.3637687-5.2796252,5.2796252,2.3637687,5.2796252,5.2796252,5.2796252ZM368.7401475,468.0618444c2.9158565,0,5.2796252-2.3637687,5.2796252-5.2796252s-2.3637687-5.2796252-5.2796252-5.2796252-5.2796252,2.3637687-5.2796252,5.2796252,2.3637687,5.2796252,5.2796252,5.2796252ZM286.4950702,502.8874275c-18.4488505,0-33.6801032-13.7770317-35.9664895-31.6041533-.340325-2.6535389-2.5639932-4.658824-5.2392669-4.658824h-.0000106c-3.162107,0-5.6425776,2.7652013-5.2479385,5.9025857,2.9022309,23.0727645,22.5937734,40.9196077,46.4537055,40.9196077s43.5514756-17.8468441,46.4537057-40.9196095c.3946388-3.1373834-2.0858309-5.9025839-5.247937-5.9025839h-.0000106c-2.6752754,0-4.8989441,2.0052881-5.2392662,4.658829-2.2863646,17.8271192-17.517472,31.6041483-35.966492,31.6041483ZM286.4950702,409.2430218c-23.8599287,0-43.551469,17.8468382-46.453703,40.9195617-.3946401,3.1373838,2.0858307,5.902585,5.2479372,5.902585h.0000106c2.675275,0,4.8989436-2.0052861,5.23927-4.6588261,2.2863894-17.8270796,17.5176392-31.6041045,35.9664852-31.6041045,18.449017,0,33.6801223,13.7770245,35.9664909,31.6041031.3403233,2.6535403,2.5639912,4.6588277,5.2392661,4.6588277h.0000106c3.1621064,0,5.642577-2.7652012,5.2479368-5.9025849-2.902235-23.0727236-22.5937754-40.919562-46.4537044-40.919562ZM792.250516,287.9806655c1.6796756,1.6252008,3.5789989,3.0581825,5.6626426,4.2516181,2.9257953,1.6757894,6.688597.3256604,7.6802261-2.7271717l.0000031-.0000095c.7108764-2.188506-.254104-4.5919624-2.3519815-5.7925915-6.4948978-3.717073-10.1242171-11.1604914-8.0955689-18.6079314,2.1416471-7.862274,10.2935287-13.0154986,18.8510672-11.9458099,6.1741011.77176,11.1671686,4.4474848,13.7122342,9.3264233,1.0938949,2.097017,3.5265806,3.2561971,5.9141288,2.7780419l.0000103-.0000021c3.3481312-.6705316,5.0441721-4.1469477,3.5065749-7.0860222-3.9238005-7.5002361-11.4583837-13.2216382-20.8094538-14.7558553-14.4057682-2.3635344-28.33671,6.3214697-31.5696131,19.7254907-2.2422625,9.2967013.9662259,18.5120564,7.49973,24.8338196ZM828.3095595,294.3355458c-1.9328534-1.3915628-4.0493-2.5427892-6.3063845-3.4106821-3.169302-1.2186582-6.6458123.8715428-7.1007195,4.2364592l-.0000014.0000105c-.3261097,2.4122098,1.0357006,4.7451715,3.3079985,5.6179634,7.0347608,2.7020589,11.8835877,9.810939,11.1586426,17.9487057-.7653477,8.5913005-7.9157339,15.4446041-16.5301344,15.878546-7.7018606.3879736-14.379635-4.2056043-17.1039973-10.8404184-.3336456-.812602-.6084315-1.6555915-.8185717-2.5237766-.5807346-2.3992788-2.6785557-4.1200789-5.1471163-4.1200789h-.0000106c-3.424393,0-5.9301572,3.2078881-5.13274,6.5381423.338924,1.4154487.7850012,2.7893346,1.3285141,4.1129254,4.228792,10.2991879,14.4000792,17.5302593,26.2502913,17.4139315,14.5976177-.1432978,26.8376985-11.72812,27.7304762-26.2991161.6191981-10.1059118-4.1178701-19.139835-11.636247-24.552612ZM613.9013672,337.0678711l-40.7299805-91.480957c-.5522461-1.2404785-1.5322266-2.1455078-2.6821289-2.6577148-.015625-.0068359-.0302734-.0158691-.0458984-.0227051-.2832031-.1252441-.5727539-.2121582-.8632812-.284668-.0620117-.0148926-.1210938-.0380859-.1835938-.0507812-.2202148-.0466309-.440918-.0605469-.6616211-.0783691-.1352539-.0102539-.269043-.0322266-.4057617-.0319824-.1367188-.0002441-.2705078.0217285-.40625.0319824-.2207031.0178223-.4414062.0317383-.6616211.078125-.0625.0129395-.121582.0361328-.1835938.0512695-.2905273.0722656-.5800781.1594238-.862793.2844238-.0161133.0068359-.0307617.0158691-.0463867.0229492-1.1499023.512207-2.1293945,1.4172363-2.6816406,2.6574707l-40.7299805,91.480957c-1.1860352,2.6638184.0117188,5.784668,2.6757812,6.9707031,2.6635742,1.1860352,5.7841797-.012207,6.9702148-2.6757812l3.6030273-8.0925293h24.8452148c2.9160156,0,5.2797852-2.3637695,5.2797852-5.279541,0-2.9160156-2.3637695-5.2797852-5.2797852-5.2797852h-20.1435547l27.621582-62.0390625,35.9257812,80.690918c1.1860352,2.6638184,4.3066406,3.8618164,6.9707031,2.6757812,2.6635742-1.1860352,3.8618164-4.3068848,2.6757812-6.9707031ZM568.3291016,242.4606934c-.1367188-.0002441-.2705078.0217285-.40625.0319824.1357422-.0109863.2709961-.0314941.40625-.0319824ZM569.3964844,242.5710449c-.2202148-.0466309-.440918-.0605469-.6616211-.0783691.2226562.0166016.4438477.0339355.6616211.0783691ZM566.2006836,242.9111328c-.0117188.005127-.0209961.0131836-.0322266.0183105.015625-.0070801.0302734-.0161133.0463867-.0229492-.0048828.0019531-.0097656.0024414-.0141602.0046387ZM567.2612305,242.5708008c-.0625.0129395-.121582.0361328-.1835938.0512695.0615234-.0153809.1220703-.0380859.1835938-.0512695ZM570.4433594,242.9064941c-.2832031-.1252441-.5727539-.2121582-.8632812-.284668.2958984.0717773.5839844.1635742.8632812.284668ZM567.0776367,242.6220703c-.2905273.0722656-.5800781.1594238-.862793.2844238.2788086-.1210938.5668945-.2128906.862793-.2844238ZM567.9228516,242.4926758c-.2207031.0178223-.4414062.0317383-.6616211.078125.2177734-.0441895.4389648-.0615234.6616211-.078125ZM568.7348633,242.4926758c-.1352539-.0102539-.269043-.0322266-.4057617-.0319824.1352539.0004883.2700195.0209961.4057617.0319824ZM570.4570312,242.9111328c-.0043945-.0019531-.0092773-.0026855-.0136719-.0046387.015625.0068359.0302734.0158691.0458984.0227051-.0117188-.005127-.0205078-.0129395-.0322266-.0180664ZM569.3964844,242.5710449c.0625.0126953.121582.0358887.1835938.0507812-.0615234-.0153809-.1220703-.0378418-.1835938-.0507812ZM581.9697106,322.7110061c-2.9158565,0-5.2796252,2.3637687-5.2796252,5.2796252s2.3637687,5.2796252,5.2796252,5.2796252,5.2796252-2.3637687,5.2796252-5.2796252-2.3637687-5.2796252-5.2796252-5.2796252ZM741.9344494,256.3633721c-2.9158565,0-5.2796252,2.3637687-5.2796252,5.2796252s2.3637687,5.2796252,5.2796252,5.2796252,5.2796252-2.3637687,5.2796252-5.2796252-2.3637687-5.2796252-5.2796252-5.2796252ZM745.1153046,235.4446477c-4.6725943,0-8.4604804,3.7878861-8.4604804,8.4604804s3.7878861,8.4604804,8.4604804,8.4604804,8.4604804-3.7878861,8.4604804-8.4604804-3.7878861-8.4604804-8.4604804-8.4604804ZM302.3007812,302.3383789c-2.6635742-1.1860352-5.7841797.0119629-6.9702148,2.6757812l-9.7216797,21.8344727-35.5068359-79.7495117c-1.1806641-2.6525879-4.2885742-3.8457031-6.940918-2.6645508l-.0410156.0180664c-2.6523438,1.1809082-3.8452148,4.2885742-2.6640625,6.9414062l40.3359375,90.5966797c.0605469.1359863.1464844.2507324.2167969.3789062.0644531.1171875.1264648.2365723.1982422.347168.1274414.1943359.2724609.3771973.425293.5541992.065918.0761719.1293945.1550293.1992188.2270508.1782227.1833496.3745117.3515625.5810547.5095215.0644531.0490723.1259766.1013184.1918945.1472168.2319336.1606445.4824219.3007812.7446289.4255371.0556641.0266113.1088867.0581055.1655273.0825195.2744141.1188965.5537109.2055664.8349609.2751465.0581055.0144043.1142578.0356445.1728516.0480957.2666016.0563965.534668.0805664.8017578.0949707.078125.0041504.1552734.0178223.2333984.0183105.2294922.0021973.4555664-.026123.6816406-.0534668.1206055-.0148926.2407227-.0192871.3608398-.0427246.1694336-.0324707.3320312-.0893555.4970703-.1379395.1782227-.0537109.3564453-.1018066.5317383-.175293.1420898-.059082.2763672-.1347656.4130859-.2060547.1748047-.090332.347168-.1828613.5068359-.2897949.1455078-.0974121.2817383-.2080078.4174805-.3200684.1235352-.1018066.246582-.2033691.3588867-.3149414.140625-.1394043.2685547-.2924805.394043-.4492188.0864258-.1079102.1748047-.2145996.2524414-.3286133.1240234-.1835938.2314453-.3820801.3339844-.5844727.0395508-.0783691.0932617-.1450195.1293945-.2260742l14.5415039-32.6616211c1.1860352-2.6638184-.0117188-5.784668-2.6757812-6.9707031ZM285.3242188,345.0810547c.078125.0041504.1552734.0178223.2333984.0183105-.0776367-.0007324-.1552734-.013916-.2333984-.0183105ZM286.2392578,345.0458984c.1206055-.0148926.2407227-.0192871.3608398-.0427246-.1191406.0227051-.2402344.0280762-.3608398.0427246ZM284.5224609,344.986084c-.0585938-.0124512-.1147461-.0336914-.1728516-.0480957.0576172.0144043.1147461.0356445.1728516.0480957ZM287.097168,344.8652344c.1782227-.0537109.3564453-.1018066.5317383-.175293-.1728516.0715332-.3520508.1220703-.5317383.175293ZM283.4643555,344.6462402c.0166016.0075684.0336914.0095215.050293.0166016-.0566406-.0244141-.1098633-.0559082-.1655273-.0825195.0405273.0192871.0737305.0476074.1152344.065918ZM289.9716797,342.78125c-.0776367.1140137-.1660156.2207031-.2524414.3286133.0864258-.1079102.1738281-.2128906.2524414-.3286133ZM289.3251953,343.559082c-.1123047.1115723-.2353516.2131348-.3588867.3149414.1230469-.1015625.2451172-.2016602.3588867-.3149414ZM288.0419922,344.4838867c.1748047-.090332.347168-.1828613.5068359-.2897949-.1625977.1091309-.3334961.199707-.5068359.2897949ZM281.6323242,343.2709961c.065918.0761719.1293945.1550293.1992188.2270508-.0708008-.072998-.1328125-.1506348-.1992188-.2270508ZM281.2070312,342.7167969c-.0717773-.1105957-.1337891-.2299805-.1982422-.347168.0644531.1171875.125.2348633.1982422.347168ZM282.6044922,344.1547852c-.065918-.0458984-.1274414-.0981445-.1918945-.1472168.0644531.0490723.125.1008301.1918945.1472168ZM288.9663086,343.8740234c-.1357422.1120605-.2719727.2226562-.4174805.3200684.1479492-.0986328.2822266-.2087402.4174805-.3200684ZM284.3496094,344.9379883c-.28125-.0695801-.5605469-.15625-.8349609-.2751465.2700195.1166992.5488281.204834.8349609.2751465ZM285.3242188,345.0810547c-.2670898-.0144043-.5351562-.0385742-.8017578-.0949707.2631836.0554199.53125.0808105.8017578.0949707ZM289.7192383,343.1098633c-.1254883.1567383-.253418.3098145-.394043.4492188.1430664-.1416016.2695312-.293457.394043-.4492188ZM290.3056641,342.1967773c-.1025391.2023926-.2099609.4008789-.3339844.5844727.1264648-.1870117.2324219-.3835449.3339844-.5844727ZM287.7333984,344.6552734l.0405273-.0180664c.0961914-.0427246.1757812-.1054688.2680664-.1533203-.1367188.0712891-.2709961.1469727-.4130859.2060547.0341797-.0146484.0703125-.0192871.1044922-.034668ZM282.4125977,344.0075684c-.206543-.157959-.402832-.3261719-.5810547-.5095215.1816406.1870117.3764648.3530273.5810547.5095215ZM286.2392578,345.0458984c-.2260742.0273438-.4521484.0556641-.6816406.0534668.2270508.0019531.4536133-.0251465.6816406-.0534668ZM281.6323242,343.2709961c-.152832-.177002-.2978516-.3598633-.425293-.5541992.1293945.1982422.2739258.378418.425293.5541992ZM287.097168,344.8652344c-.1650391.048584-.3276367.1054688-.4970703.1379395.1674805-.0327148.3310547-.0881348.4970703-.1379395ZM283.3491211,344.5803223c-.262207-.1247559-.5126953-.2648926-.7446289-.4255371.2368164.1640625.4858398.3027344.7446289.4255371ZM328.3201117,244.5779232c-2.5980471-1.3237711-5.777309-.2907663-7.1010802,2.3072808-1.3237711,2.5980471-.2907663,5.777309,2.3072808,7.1010802,2.5980471,1.3237711,5.777309.2907663,7.1010802-2.3072808,1.3237711-2.5980471.2907663-5.777309-2.3072808-7.1010802ZM319.7302305,263.8711123c-2.5980471-1.3237711-5.777309-.2907663-7.1010802,2.3072808-1.3237711,2.5980471-.2907663,5.777309,2.3072808,7.1010802s5.777309.2907663,7.1010802-2.3072808c1.3237711-2.5980471.2907663-5.777309-2.3072808-7.1010802ZM311.1403493,283.1643014c-2.5980471-1.3237711-5.777309-.2907663-7.1010802,2.3072808-1.3237711,2.5980471-.2907663,5.777309,2.3072808,7.1010802,2.5980471,1.3237711,5.777309.2907663,7.1010802-2.3072808,1.3237711-2.5980471.2907663-5.777309-2.3072808-7.1010802ZM491.6800886,339.0787002v-89.8939522c0-2.9158535-2.3637663-5.2796199-5.2796199-5.2796199h-.0000106c-2.9158536,0-5.27962,2.3637664-5.27962,5.27962v89.8939521c0,2.9158536,2.3637664,5.27962,5.27962,5.27962h.0000106c2.9158535,0,5.2796199-2.3637663,5.2796199-5.2796199ZM444.1635742,289.2011719h-23.0942383v-40.0163574c0-2.9160156-2.3637695-5.2797852-5.2797852-5.2797852s-5.2797852,2.3637695-5.2797852,5.2797852v89.8937988c0,2.9160156,2.3637695,5.2797852,5.2797852,5.2797852s5.2797852-2.3637695,5.2797852-5.2797852v-39.3183594h23.0942383c2.9155273,0,5.2797852-2.3637695,5.2797852-5.279541s-2.3642578-5.279541-5.2797852-5.279541ZM465.2819626,289.2011598c-2.9158565,0-5.2796252,2.3637687-5.2796252,5.2796252s2.3637687,5.2796252,5.2796252,5.2796252,5.2796252-2.3637687,5.2796252-5.2796252-2.3637687-5.2796252-5.2796252-5.2796252ZM456.4873723,839.2505337l-.0000002-42.2370123c0-2.9158535-2.3637663-5.2796197-5.2796198-5.2796197h-.0000106c-2.9158535,0-5.2796198,2.3637663-5.2796198,5.2796198l-.0000003,42.2370121c0,2.9158536,2.3637664,5.2796201,5.27962,5.2796201h.0000107c2.9158536,0,5.2796199-2.3637664,5.2796199-5.2796199ZM447.7050606,744.6371045l-.0565523.0509199c-2.151287,1.9370276-2.324979,5.2512613-.387952,7.4025489l81.6511535,90.6828372c1.9370271,2.1512876,5.2512611,2.3249799,7.4025484.3879525l.0565527-.0509203c2.1512873-1.9370272,2.3249795-5.2512609.3879525-7.4025484l-81.6511544-90.6828379c-1.9370272-2.1512876-5.2512613-2.3249797-7.4025484-.387952ZM513.9862553,743.3046699c-2.9158565,0-5.2796252,2.3637687-5.2796252,5.2796252s2.3637687,5.2796252,5.2796252,5.2796252,5.2796252-2.3637687,5.2796252-5.2796252-2.3637687-5.2796252-5.2796252-5.2796252ZM494.3918432,743.3046699c-2.9158565,0-5.2796252,2.3637687-5.2796252,5.2796252s2.3637687,5.2796252,5.2796252,5.2796252,5.2796252-2.3637687,5.2796252-5.2796252-2.3637687-5.2796252-5.2796252-5.2796252ZM513.9862553,764.4231706c-2.9158565,0-5.2796252,2.3637687-5.2796252,5.2796252s2.3637687,5.2796252,5.2796252,5.2796252,5.2796252-2.3637687,5.2796252-5.2796252-2.3637687-5.2796252-5.2796252-5.2796252ZM532.818623,743.3046699c-2.9158565,0-5.2796252,2.3637687-5.2796252,5.2796252s2.3637687,5.2796252,5.2796252,5.2796252,5.2796252-2.3637687,5.2796252-5.2796252-2.3637687-5.2796252-5.2796252-5.2796252ZM532.818623,764.4231706c-2.9158565,0-5.2796252,2.3637687-5.2796252,5.2796252s2.3637687,5.2796252,5.2796252,5.2796252,5.2796252-2.3637687,5.2796252-5.2796252-2.3637687-5.2796252-5.2796252-5.2796252ZM532.818623,785.5416714c-2.9158565,0-5.2796252,2.3637687-5.2796252,5.2796252s2.3637687,5.2796252,5.2796252,5.2796252,5.2796252-2.3637687,5.2796252-5.2796252-2.3637687-5.2796252-5.2796252-5.2796252ZM243.4052734,743.659668c.1806641-.0693359.3681641-.1235352.5576172-.1728516-.1884766.0495605-.3740234.1018066-.5576172.1728516ZM247.0888672,743.6308594c-.2167969-.0786133-.4345703-.1557617-.6630859-.2058105.2260742.0495605.4438477.1262207.6630859.2058105ZM245.3862305,743.3059082c.253418.0046387.4995117.0358887.7431641.0749512-.2470703-.0395508-.4931641-.0708008-.7431641-.0749512ZM244.3642578,743.3903809c.2270508-.0405273.4609375-.0598145.6972656-.0703125-.234375.010498-.4658203.0283203-.6972656.0703125ZM240.9711914,745.5571289c.0776367-.1113281.1728516-.2089844.2587891-.3139648-.0874023.1047363-.1811523.2041016-.2587891.3139648ZM240.7548828,745.9204102c-.1074219.1831055-.2192383.3640137-.3041992.5605469.0849609-.1938477.1948242-.3764648.3041992-.5605469ZM242.5258789,744.0983887c.1298828-.0808105.2670898-.1501465.4047852-.2194824-.137207.0695801-.2734375.1369629-.4047852.2194824ZM240.0175781,748.5422363c.0019531-.3181152.0375977-.6279297.09375-.9304199-.0581055.3081055-.0913086.6174316-.09375.9304199ZM240.1303711,747.482666c.0576172-.2727051.1469727-.532959.2446289-.7883301-.1000977.2585449-.1870117.5192871-.2446289.7883301ZM248.3168945,744.2573242c.1210938.0849609.2280273.1870117.3408203.28125-.112793-.0952148-.2211914-.1967773-.3408203-.28125ZM241.7910156,744.637207l-.0566406.0507812c-.015625.0141602-.0263672.0314941-.0415039.0456543.0844727-.0793457.1787109-.1477051.2680664-.2214355-.0546875.0456543-.1166992.0766602-.1699219.125ZM247.9296875,744.0270996c-.1704102-.0993652-.3383789-.2028809-.5205078-.2827148.1801758.0793457.3491211.182373.5205078.2827148ZM242.5258789,744.0983887c-.1958008.1223145-.3828125.2629395-.5649414.4138184.1811523-.1484375.3652344-.2900391.5649414-.4138184ZM240.1303711,747.482666c-.0092773.0427246-.0112305.0861816-.019043.1291504.0078125-.0427246.0102539-.0869141.019043-.1291504ZM240.9711914,745.5571289c-.0825195.1162109-.1445312.2419434-.2163086.3632812.0712891-.1220703.1352539-.2475586.2163086-.3632812ZM240.375,746.6943359c.0273438-.0705566.0454102-.1437988.0756836-.2133789-.0297852.0690918-.0488281.1428223-.0756836.2133789ZM241.6928711,744.7336426c-.171875.1584473-.3168945.3344727-.4628906.5095215.1464844-.1782227.2949219-.3520508.4628906-.5095215ZM249.1274414,744.965332c-.1464844-.1577148-.3085938-.2912598-.4697266-.4267578.1635742.1362305.3242188.2719727.4697266.4267578ZM247.4091797,743.7443848c-.1044922-.0458984-.2138672-.074707-.3203125-.1135254.1064453.0388184.2167969.0681152.3203125.1135254ZM248.3168945,744.2573242c-.1240234-.0876465-.2573242-.154541-.387207-.2302246.1303711.0756836.2646484.144043.387207.2302246ZM242.9306641,743.8789062c.15625-.0795898.3129883-.1564941.4746094-.2192383-.1640625.0632324-.3188477.1403809-.4746094.2192383ZM243.9628906,743.4868164c.1333008-.0351562.2661133-.0720215.4013672-.0964355-.137207.0244141-.2680664.0615234-.4013672.0964355ZM245.293457,743.2966309h0c-.0795898,0-.1533203.0197754-.2319336.0234375.1083984-.0048828.2163086-.0158691.324707-.0141602-.0317383-.0004883-.0610352-.0092773-.0927734-.0092773ZM246.4257812,743.4250488c-.0976562-.0214844-.1977539-.0283203-.2963867-.0441895.0986328.0158691.1992188.0229492.2963867.0441895ZM326.9044253,833.9709032c-2.9158565,0-5.2796252,2.3637687-5.2796252,5.2796252s2.3637687,5.2796252,5.2796252,5.2796252,5.2796252-2.3637687,5.2796252-5.2796252-2.3637687-5.2796252-5.2796252-5.2796252ZM326.9044253,812.8524024c-2.9158565,0-5.2796252,2.3637687-5.2796252,5.2796252s2.3637687,5.2796252,5.2796252,5.2796252,5.2796252-2.3637687,5.2796252-5.2796252-2.3637687-5.2796252-5.2796252-5.2796252ZM326.9044253,791.7339016c-2.9158565,0-5.2796252,2.3637687-5.2796252,5.2796252s2.3637687,5.2796252,5.2796252,5.2796252,5.2796252-2.3637687,5.2796252-5.2796252-2.3637687-5.2796252-5.2796252-5.2796252ZM394.1073676,669.6141768c-18.4488505,0-33.6801032-13.7770317-35.9664895-31.6041533-.340325-2.6535389-2.5639932-4.658824-5.2392669-4.658824h-.0000106c-3.162107,0-5.6425776,2.7652013-5.2479385,5.9025857,2.9022309,23.0727645,22.5937734,40.9196077,46.4537055,40.9196077s43.5514756-17.8468441,46.4537057-40.9196095c.3946388-3.1373834-2.0858309-5.9025839-5.247937-5.9025839h-.0000106c-2.6752754,0-4.8989441,2.0052881-5.2392662,4.658829-2.2863646,17.8271192-17.517472,31.6041483-35.966492,31.6041483ZM394.1073676,575.9697711c-23.8599287,0-43.551469,17.8468382-46.453703,40.9195617-.3946401,3.1373838,2.0858307,5.902585,5.2479372,5.902585h.0000106c2.675275,0,4.8989436-2.0052861,5.23927-4.6588261,2.2863894-17.8270796,17.5176392-31.6041045,35.9664852-31.6041045,18.449017,0,33.6801223,13.7770245,35.9664909,31.6041031.3403233,2.6535403,2.5639912,4.6588277,5.2392661,4.6588277h.0000106c3.1621064,0,5.642577-2.7652012,5.2479368-5.9025849-2.902235-23.0727236-22.5937754-40.919562-46.4537044-40.919562ZM481.6251848,625.291461v-42.2370124c0-2.9158535-2.3637663-5.2796198-5.2796198-5.2796198h-.0000106c-2.9158536,0-5.27962,2.3637664-5.27962,5.27962v42.2370121c0,2.9158536,2.3637664,5.2796199,5.2796199,5.2796199h.0000106c2.9158535,0,5.2796198-2.3637663,5.2796198-5.2796198ZM539.1291627,620.0118303c-2.9158565,0-5.2796252,2.3637687-5.2796252,5.2796252s2.3637687,5.2796252,5.2796252,5.2796252,5.2796252-2.3637687,5.2796252-5.2796252-2.3637687-5.2796252-5.2796252-5.2796252ZM539.1291627,598.8933295c-2.9158565,0-5.2796252,2.3637687-5.2796252,5.2796252s2.3637687,5.2796252,5.2796252,5.2796252,5.2796252-2.3637687,5.2796252-5.2796252-2.3637687-5.2796252-5.2796252-5.2796252ZM539.1291627,577.7748287c-2.9158565,0-5.2796252,2.3637687-5.2796252,5.2796252s2.3637687,5.2796252,5.2796252,5.2796252,5.2796252-2.3637687,5.2796252-5.2796252-2.3637687-5.2796252-5.2796252-5.2796252ZM507.7373613,668.7817767c-13.1378362,0-24.0459427-9.5466419-26.1655995-22.081239-.4331832-2.56163-2.6139345-4.4569029-5.2119329-4.4569029h-.0000106c-3.2350649,0-5.7503117,2.8886485-5.223994,6.0806125,2.9013051,17.5955716,18.1841211,31.0167455,36.6015369,31.0167455s33.7002318-13.4211739,36.6015369-31.0167455c.5263177-3.191964-1.9889291-6.0806125-5.223994-6.0806125h-.0001908c-2.598003,0-4.778756,1.8952794-5.211935,4.4569147-2.1196307,12.5345914-13.027585,22.0812272-26.1654171,22.0812272ZM626.4383935,668.123902c-2.6637674,1.1859857-3.8617463,4.3068272-2.6757606,6.9705946,1.1859857,2.6637674,4.3068272,3.8617463,6.9705946,2.6757606,2.6637674-1.1859857,3.8617463-4.3068272,2.6757606-6.9705946-1.1859857-2.6637674-4.3068272-3.8617463-6.9705946-2.6757606ZM617.8487254,648.8311915c-2.6637674,1.1859857-3.8617463,4.3068272-2.6757606,6.9705946,1.1859857,2.6637674,4.3068272,3.8617463,6.9705946,2.6757606,2.6637674-1.1859857,3.8617463-4.3068272,2.6757606-6.9705946-1.1859857-2.6637674-4.3068272-3.8617463-6.9705946-2.6757606ZM611.4066224,639.6425517c.0236137,0,.0470414-.0017664.070841-.0018129-.0237996.0002789-.0472273-.0020453-.070841-.0020918v.0039046ZM611.546817,639.6390189c-.0232418.0001395-.0461117.0016734-.0693535.0017199.0230559-.0003254.0462977-.0011156.0693535-.0017199ZM281.1235637,614.8197943l-31.9251271-35.4563472c-1.9441304-2.1593495-5.2708691-2.333663-7.4301256-.3893932l-.0275183.0247293c-2.1592565,1.9442233-2.333663,5.2708691-.3893467,7.4301721l39.7721177,44.1713727v43.3207692c0,2.9158237,2.3637844,5.2796081,5.2796081,5.2796081s5.2796081-2.3637844,5.2796081-5.2796081v-47.3740468l-10.5592161-11.7272562ZM327.0660001,577.5166367c-2.9157927.0192865-5.2638749,2.3986383-5.2445884,5.314431.0192865,2.9157927,2.3986383,5.2638749,5.314431,5.2445884,2.9157927-.0192865,5.2638749-2.3986383,5.2445884-5.314431-.0192865-2.9157927-2.3986383-5.2638749-5.314431-5.2445884ZM302.5537668,610.4238421c-2.1797614-1.9367135-5.5168237-1.7396842-7.4535372.4400772-1.9367135,2.1797614-1.7396842,5.5168237.4400772,7.4535372,2.1797614,1.9367135,5.5168237,1.7396842,7.4535372-.4400772,1.9367135-2.1797614,1.7396842-5.5168237-.4400772-7.4535372ZM316.5806867,594.6366133c-2.1797614-1.9367135-5.5168237-1.7396842-7.4535372.4400772s-1.7396842,5.5168237.4400772,7.4535372c2.1797614,1.9367135,5.5168237,1.7396842,7.4535372-.4400772,1.9367135-2.1797614,1.7396842-5.5168237-.4400772-7.4535372Z" fill="#fff" opacity=".6"/>
        <path d="M573.1328125,249.8815918l-4.8037109,10.7902832-4.8041992-10.7902832c-1.1811523-2.6520996.0039062-5.7546387,2.6435547-6.9521484.015625-.0070801.0302734-.0161133.0463867-.0229492.2827148-.125.5722656-.2121582.862793-.2844238.0620117-.0151367.1210938-.0383301.1835938-.0512695.2202148-.0463867.440918-.0603027.6616211-.078125.1357422-.0102539.2695312-.0322266.40625-.0319824.1367188-.0002441.2705078.0217285.4057617.0319824.2207031.0178223.4414062.0317383.6616211.0783691.0625.0126953.121582.0358887.1835938.0507812.2905273.0725098.5800781.1594238.8632812.284668.015625.0068359.0302734.0158691.0458984.0227051,2.6396484,1.1975098,3.824707,4.300293,2.6435547,6.9523926ZM581.9697106,322.7110061c-2.9158565,0-5.2796252,2.3637687-5.2796252,5.2796252s2.3637687,5.2796252,5.2796252,5.2796252,5.2796252-2.3637687,5.2796252-5.2796252-2.3637687-5.2796252-5.2796252-5.2796252ZM741.9344494,256.3633721c-2.9158565,0-5.2796252,2.3637687-5.2796252,5.2796252s2.3637687,5.2796252,5.2796252,5.2796252,5.2796252-2.3637687,5.2796252-5.2796252-2.3637687-5.2796252-5.2796252-5.2796252ZM820.1356637,290.5743159c-2.9158565,0-5.2796252,2.3637687-5.2796252,5.2796252s2.3637687,5.2796252,5.2796252,5.2796252,5.2796252-2.3637687,5.2796252-5.2796252-2.3637687-5.2796252-5.2796252-5.2796252ZM789.7672782,317.1243638c-2.9158565,0-5.2796252,2.3637687-5.2796252,5.2796252s2.3637687,5.2796252,5.2796252,5.2796252,5.2796252-2.3637687,5.2796252-5.2796252-2.3637687-5.2796252-5.2796252-5.2796252ZM377.303817,244.5510436c-2.5980471-1.3237711-5.777309-.2907663-7.1010802,2.3072808-1.3237711,2.5980471-.2907663,5.777309,2.3072808,7.1010802,2.5980471,1.3237711,5.777309.2907663,7.1010802-2.3072808s.2907663-5.777309-2.3072808-7.1010802ZM290.4384766,337.6960449l-4.8295898-10.8474121-4.8203125,10.8271484c-.699707,1.5720215-.5522461,3.2949219.2202148,4.6938477.0644531.1171875.1264648.2365723.1982422.347168.1274414.1943359.2724609.3771973.425293.5541992.065918.0761719.1293945.1550293.1992188.2270508.1782227.1833496.3745117.3515625.5810547.5095215.0644531.0490723.1259766.1013184.1918945.1472168.2319336.1606445.4824219.3007812.7446289.4255371.0556641.0266113.1088867.0581055.1655273.0825195.2744141.1188965.5537109.2055664.8349609.2751465.0581055.0144043.1142578.0356445.1728516.0480957.2666016.0563965.534668.0805664.8017578.0949707.078125.0041504.1552734.0178223.2333984.0183105.2294922.0021973.4555664-.026123.6816406-.0534668.1206055-.0148926.2407227-.0192871.3608398-.0427246.1694336-.0324707.3320312-.0893555.4970703-.1379395.1782227-.0537109.3564453-.1018066.5317383-.175293.1420898-.059082.2763672-.1347656.4130859-.2060547.1748047-.090332.347168-.1828613.5068359-.2897949.1455078-.0974121.2817383-.2080078.4174805-.3200684.1235352-.1018066.246582-.2033691.3588867-.3149414.140625-.1394043.2685547-.2924805.394043-.4492188.0864258-.1079102.1748047-.2145996.2524414-.3286133.1240234-.1835938.2314453-.3820801.3339844-.5844727.6875-1.3613281.8017578-2.9990234.1328125-4.5007324ZM328.3201117,244.5779232c-2.5980471-1.3237711-5.777309-.2907663-7.1010802,2.3072808-1.3237711,2.5980471-.2907663,5.777309,2.3072808,7.1010802,2.5980471,1.3237711,5.777309.2907663,7.1010802-2.3072808,1.3237711-2.5980471.2907663-5.777309-2.3072808-7.1010802ZM415.7895508,289.2011719c-2.9160156,0-5.2797852,2.3637695-5.2797852,5.279541s2.3637695,5.279541,5.2797852,5.279541h5.2797852v-10.559082h-5.2797852ZM465.2819626,289.2011598c-2.9158565,0-5.2796252,2.3637687-5.2796252,5.2796252s2.3637687,5.2796252,5.2796252,5.2796252,5.2796252-2.3637687,5.2796252-5.2796252-2.3637687-5.2796252-5.2796252-5.2796252ZM486.6767776,243.9124946c-2.9118604-.1526041-5.3960998,2.084215-5.5487039,4.9960754-.1526041,2.9118604,2.084215,5.3960998,4.9960754,5.5487039,2.9118604.1526041,5.3960998-2.084215,5.5487039-4.9960754.1526041-2.9118604-2.084215-5.3960998-4.9960754-5.5487039ZM416.0659184,333.9441309c-2.9118604-.1526041-5.3960998,2.084215-5.5487039,4.9960754s2.084215,5.3960998,4.9960754,5.5487039c2.9118604.1526041,5.3960998-2.084215,5.5487039-4.9960754.1526041-2.9118604-2.084215-5.3960998-4.9960754-5.5487039ZM368.7401475,510.298846c2.9158565,0,5.2796252-2.3637687,5.2796252-5.2796252s-2.3637687-5.2796252-5.2796252-5.2796252-5.2796252,2.3637687-5.2796252,5.2796252,2.3637687,5.2796252,5.2796252,5.2796252ZM368.7401475,489.1803452c2.9158565,0,5.2796252-2.3637687,5.2796252-5.2796252s-2.3637687-5.2796252-5.2796252-5.2796252-5.2796252,2.3637687-5.2796252,5.2796252,2.3637687,5.2796252,5.2796252,5.2796252ZM368.7401475,468.0618444c2.9158565,0,5.2796252-2.3637687,5.2796252-5.2796252s-2.3637687-5.2796252-5.2796252-5.2796252-5.2796252,2.3637687-5.2796252,5.2796252,2.3637687,5.2796252,5.2796252,5.2796252ZM327.9866987,445.5130229c-2.9118604-.1526041-5.3960998,2.084215-5.5487039,4.9960754-.1526041,2.9118604,2.084215,5.3960998,4.9960754,5.5487039,2.9118604.1526041,5.3960998-2.084215,5.5487039-4.9960754.1526041-2.9118604-2.084215-5.3960998-4.9960754-5.5487039ZM368.4638332,419.6537282c2.9118604.1526041,5.3960998-2.084215,5.5487039-4.9960754.1526041-2.9118604-2.084215-5.3960998-4.9960754-5.5487039-2.9118604-.1526041-5.3960998,2.084215-5.5487039,4.9960754-.1526041,2.9118604,2.084215,5.3960998,4.9960754,5.5487039ZM450.0747092,419.6537282c2.9118604.1526041,5.3960998-2.084215,5.5487039-4.9960754.1526041-2.9118604-2.084215-5.3960998-4.9960754-5.5487039-2.9118604-.1526041-5.3960998,2.084215-5.5487039,4.9960754s2.084215,5.3960998,4.9960754,5.5487039ZM245.5560704,466.6318167c-2.9118604-.1526041-5.3960998,2.084215-5.5487039,4.9960754-.1526041,2.9118604,2.084215,5.3960998,4.9960754,5.5487039,2.9118604.1526041,5.3960998-2.084215,5.5487039-4.9960754.1526041-2.9118604-2.084215-5.3960998-4.9960754-5.5487039ZM539.1291627,598.8933295c-2.9158565,0-5.2796252,2.3637687-5.2796252,5.2796252s2.3637687,5.2796252,5.2796252,5.2796252,5.2796252-2.3637687,5.2796252-5.2796252-2.3637687-5.2796252-5.2796252-5.2796252ZM580.1519098,667.6674544c-2.9158565,0-5.2796252,2.3637687-5.2796252,5.2796252s2.3637687,5.2796252,5.2796252,5.2796252,5.2796252-2.3637687,5.2796252-5.2796252-2.3637687-5.2796252-5.2796252-5.2796252ZM539.1291627,577.7748287c-2.9158565,0-5.2796252,2.3637687-5.2796252,5.2796252s2.3637687,5.2796252,5.2796252,5.2796252,5.2796252-2.3637687,5.2796252-5.2796252-2.3637687-5.2796252-5.2796252-5.2796252ZM580.1519098,577.7748287c-2.9158565,0-5.2796252,2.3637687-5.2796252,5.2796252s2.3637687,5.2796252,5.2796252,5.2796252,5.2796252-2.3637687,5.2796252-5.2796252-2.3637687-5.2796252-5.2796252-5.2796252ZM626.4383935,668.123902c-2.6637674,1.1859857-3.8617463,4.3068272-2.6757606,6.9705946,1.1859857,2.6637674,4.3068272,3.8617463,6.9705946,2.6757606,2.6637674-1.1859857,3.8617463-4.3068272,2.6757606-6.9705946-1.1859857-2.6637674-4.3068272-3.8617463-6.9705946-2.6757606ZM609.2590573,629.538481c-2.6637674,1.1859857-3.8617463,4.3068272-2.6757606,6.9705946,1.1859857,2.6637674,4.3068272,3.8617463,6.9705946,2.6757606,2.6637674-1.1859857,3.8617463-4.3068272,2.6757606-6.9705946-1.1859857-2.6637674-4.3068272-3.8617463-6.9705946-2.6757606ZM327.0660001,577.5166367c-2.9157927.0192865-5.2638749,2.3986383-5.2445884,5.314431.0192865,2.9157927,2.3986383,5.2638749,5.314431,5.2445884,2.9157927-.0192865,5.2638749-2.3986383,5.2445884-5.314431-.0192865-2.9157927-2.3986383-5.2638749-5.314431-5.2445884ZM353.1683701,612.2397722c-2.9118604-.1526041-5.3960998,2.084215-5.5487039,4.9960754-.1526041,2.9118604,2.084215,5.3960998,4.9960754,5.5487039s5.3960998-2.084215,5.5487039-4.9960754c.1526041-2.9118604-2.084215-5.3960998-4.9960754-5.5487039ZM435.598996,633.358566c-2.9118604-.1526041-5.3960998,2.084215-5.5487039,4.9960754-.1526041,2.9118604,2.084215,5.3960998,4.9960754,5.5487039,2.9118604.1526041,5.3960998-2.084215,5.5487039-4.9960754.1526041-2.9118604-2.084215-5.3960998-4.9960754-5.5487039ZM532.8115799,833.93473c-2.9158565,0-5.2796252,2.3637687-5.2796252,5.2796252s2.3637687,5.2796252,5.2796252,5.2796252,5.2796252-2.3637687,5.2796252-5.2796252-2.3637687-5.2796252-5.2796252-5.2796252ZM451.207747,791.7339016c-2.9158565,0-5.2796252,2.3637687-5.2796252,5.2796252s2.3637687,5.2796252,5.2796252,5.2796252,5.2796252-2.3637687,5.2796252-5.2796252-2.3637687-5.2796252-5.2796252-5.2796252ZM326.9113529,743.2907157c-2.9158565,0-5.2796252,2.3637687-5.2796252,5.2796252s2.3637687,5.2796252,5.2796252,5.2796252,5.2796252-2.3637687,5.2796252-5.2796252-2.3637687-5.2796252-5.2796252-5.2796252ZM513.9862553,764.4231706c-2.9158565,0-5.2796252,2.3637687-5.2796252,5.2796252s2.3637687,5.2796252,5.2796252,5.2796252,5.2796252-2.3637687,5.2796252-5.2796252-2.3637687-5.2796252-5.2796252-5.2796252ZM532.818623,743.3046699c-2.9158565,0-5.2796252,2.3637687-5.2796252,5.2796252s2.3637687,5.2796252,5.2796252,5.2796252,5.2796252-2.3637687,5.2796252-5.2796252-2.3637687-5.2796252-5.2796252-5.2796252ZM573.8482552,743.3046699c-2.9158565,0-5.2796252,2.3637687-5.2796252,5.2796252s2.3637687,5.2796252,5.2796252,5.2796252,5.2796252-2.3637687,5.2796252-5.2796252-2.3637687-5.2796252-5.2796252-5.2796252ZM249.1274414,744.965332c-.1464844-.1577148-.3085938-.2912598-.4697266-.4267578-.112793-.0942383-.2197266-.1962891-.3408203-.28125-.1240234-.0876465-.2573242-.154541-.387207-.2302246-.1704102-.0993652-.3383789-.2028809-.5205078-.2827148-.1044922-.0458984-.2138672-.074707-.3203125-.1135254-.2167969-.0786133-.4345703-.1557617-.6630859-.2058105-.0976562-.0214844-.1977539-.0283203-.2963867-.0441895-.2436523-.0390625-.4897461-.0703125-.7431641-.0749512-.1083984-.001709-.2163086.0092773-.324707.0141602-.2363281.010498-.4702148.0297852-.6972656.0703125-.1352539.0244141-.2680664.0612793-.4013672.0964355-.1894531.0493164-.3769531.1035156-.5576172.1728516-.1616211.0627441-.3183594.1396484-.4746094.2192383-.1376953.0693359-.2749023.1386719-.4047852.2194824-.1958008.1223145-.3828125.2629395-.5649414.4138184-.0893555.0737305-.1835938.1420898-.2680664.2214355-.171875.1584473-.3168945.3344727-.4628906.5095215-.0859375.1049805-.1811523.2026367-.2587891.3139648-.0825195.1162109-.1445312.2419434-.2163086.3632812-.1074219.1831055-.2192383.3640137-.3041992.5605469-.0302734.0695801-.0483398.1428223-.0756836.2133789-.0976562.2553711-.1870117.515625-.2446289.7883301-.0092773.0427246-.0112305.0861816-.019043.1291504-.0561523.3024902-.0917969.6123047-.09375.9304199-.0102539,1.263916.4165039,2.5351562,1.3286133,3.5483398l9.2270508,10.2475586v-13.7619629c0-1.4008789-.5551758-2.6657715-1.4458008-3.6108398ZM326.9044253,833.9709032c-2.9158565,0-5.2796252,2.3637687-5.2796252,5.2796252s2.3637687,5.2796252,5.2796252,5.2796252,5.2796252-2.3637687,5.2796252-5.2796252-2.3637687-5.2796252-5.2796252-5.2796252Z" fill="#fff" opacity=".6"/>
        <path d="M706.1914062,248.7685547c0,2.9160156-2.3637695,5.2797852-5.2797852,5.2797852h-24.7460938c-.7290039,0-1.4233398-.1479492-2.0551758-.4150391-.9472656-.4008789-1.753418-1.0703125-2.3227539-1.9128418s-.9018555-1.8583984-.9018555-2.9519043.3325195-2.1091309.9018555-2.9519043c.5693359-.8425293,1.3754883-1.5119629,2.3227539-1.9128418.6318359-.2670898,1.3261719-.4147949,2.0551758-.4147949h24.7460938c2.9160156,0,5.2797852,2.3637695,5.2797852,5.279541ZM410.1708984,833.9709473h-42.2368164c-2.9160156,0-5.2797852,2.3637695-5.2797852,5.279541,0,2.9160156,2.3637695,5.2797852,5.2797852,5.2797852h42.2368164c2.9160156,0,5.2797852-2.3637695,5.2797852-5.2797852,0-2.9157715-2.3637695-5.279541-5.2797852-5.279541ZM389.0527344,823.4116211c2.9155273,0,5.2792969-2.3637695,5.2792969-5.279541v-69.5559082c0-2.9157715-2.3637695-5.279541-5.2792969-5.279541-2.9160156,0-5.2797852,2.3637695-5.2797852,5.279541v69.5559082c0,2.9157715,2.3637695,5.279541,5.2797852,5.279541ZM367.934082,753.855957c2.9160156,0,5.2797852-2.3637695,5.2797852-5.2797852,0-2.9157715-2.3637695-5.279541-5.2797852-5.279541s-5.2797852,2.3637695-5.2797852,5.279541c0,2.9160156,2.3637695,5.2797852,5.2797852,5.2797852ZM410.1708984,743.2966309c-2.9155273,0-5.2792969,2.3637695-5.2792969,5.279541,0,2.9160156,2.3637695,5.2797852,5.2792969,5.2797852,2.9160156,0,5.2797852-2.3637695,5.2797852-5.2797852,0-2.9157715-2.3637695-5.279541-5.2797852-5.279541ZM573.8481445,812.8779297c-2.9155273,0-5.2797852,2.3637695-5.2797852,5.279541s2.3642578,5.279541,5.2797852,5.279541c2.9160156,0,5.2797852-2.3637695,5.2797852-5.279541s-2.3637695-5.279541-5.2797852-5.279541ZM573.8481445,764.3996582c-2.9155273,0-5.2797852,2.3637695-5.2797852,5.279541v27.3598633c0,2.9157715,2.3642578,5.279541,5.2797852,5.279541,2.9160156,0,5.2797852-2.3637695,5.2797852-5.279541v-27.3598633c0-2.9157715-2.3637695-5.279541-5.2797852-5.279541ZM644.487793,264.6074219c-2.9160156,0-5.2797852,2.3637695-5.2797852,5.279541,0,2.9160156,2.3637695,5.2797852,5.2797852,5.2797852s5.2797852-2.3637695,5.2797852-5.2797852c0-2.9157715-2.3637695-5.279541-5.2797852-5.279541ZM665.6064453,264.6074219c-2.9160156,0-5.2797852,2.3637695-5.2797852,5.279541v69.1916504c0,2.9160156,2.3637695,5.2797852,5.2797852,5.2797852,2.9155273,0,5.2792969-2.3637695,5.2792969-5.2797852v-69.1916504c0-2.9157715-2.3637695-5.279541-5.2792969-5.279541ZM686.7246094,264.6074219c-2.9155273,0-5.2792969,2.3637695-5.2792969,5.279541,0,2.9160156,2.3637695,5.2797852,5.2792969,5.2797852,2.9160156,0,5.2797852-2.3637695,5.2797852-5.2797852,0-2.9157715-2.3637695-5.279541-5.2797852-5.279541ZM657.1020508,243.9038086c-.6313477-.2670898-1.3261719-.4147949-2.0551758-.4147949h-24.7460938c-2.9160156,0-5.2792969,2.3637695-5.2792969,5.279541,0,2.9160156,2.3632812,5.2797852,5.2792969,5.2797852h24.7460938c.7290039,0,1.4238281-.1479492,2.0551758-.4150391,1.8950195-.8015137,3.2246094-2.6777344,3.2246094-4.8647461s-1.3295898-4.0632324-3.2246094-4.8647461Z" fill="#fff"/>
      </g>
    </g>
  </g>
</svg>