<?xml version="1.0" encoding="UTF-8"?>
<svg xmlns="http://www.w3.org/2000/svg" version="1.1" viewBox="0 0 1080 1080">
  <!-- Generator: Adobe Illustrator 28.7.3, SVG Export Plug-In . SVG Version: 1.2.0 Build 164)  -->
  <g>
    <g id="crooked">
      <g>
        <path d="M345.8066406,490.3959961h-73.8066406v212.8212891h7.7856445v-37.5703125h66.0209961v-86.4145508h29.2509766v118.3540039c0,7.5146484,2.1464844,10.4658203,8.3193359,12.074707,6.1728516,1.612793,42.9423828,1.3417969,42.9423828,1.3417969l3.2797852-7.3149414s-36.0234375.0708008-40.5830078-.199707c-4.8349609-.2670898-6.1728516-1.6088867-6.1728516-5.9018555v-118.3540039h121.0380859v-7.7861328h-158.074707v-81.050293ZM304.4726562,657.8613281h-24.6870117v-78.6333008h24.6870117v78.6333008ZM304.4726562,571.4462891h-24.6870117v-73.2646484h24.6870117v73.2646484ZM338.0209961,657.8613281h-25.7626953v-78.6333008h25.7626953v78.6333008ZM338.0209961,571.4462891h-25.7626953v-73.2646484h25.7626953v73.2646484ZM424.706543,504.6210938h-57.1640625v-7.78125h58.7768555c1.6088867-8.0527344,2.6845703-17.1762695,3.2177734-27.1088867h8.0527344c-.5375977,9.9326172-1.6088867,19.0561523-3.2177734,27.1088867h61.4570312v7.78125h-63.0703125c-.8041992,4.0263672-1.8793945,8.0527344-3.2216797,11.2705078,22.0112305,12.8833008,48.8486328,30.0595703,63.0698242,40.7958984l-5.3681641,6.1728516c-13.6835938-10.7368164-38.9125977-27.375-60.6523438-40.2583008-9.9282227,21.2026367-27.9091797,33.8149414-60.9194336,42.1342773-.8085938-1.609375-3.2216797-4.8310547-5.1015625-6.1728516,39.4541016-9.390625,56.6303711-25.2246094,64.1411133-53.9423828ZM411.8271484,665.1132812h60.3857422v16.1010742h8.0488281v-77.0244141h-68.4345703v60.9233398ZM419.8759766,611.9716797h52.3369141v45.355957h-52.3369141v-45.355957ZM566.4179688,537.09375h184.6455078v-52.8706055h-192.4272461v72.1938477c0,44.284668-2.684082,105.4746094-29.2553711,150.8305664,1.8798828.8046875,5.3686523,2.4135742,6.7109375,4.0263672,26.8374023-45.6269531,30.3261719-109.5009766,30.3261719-154.8569336v-19.3232422ZM566.4179688,492.0087891h176.8637695v37.3037109h-176.8637695v-37.3037109ZM805.8759766,694.3642578v7.7817383h-243.484375v-7.7817383h98.7641602v-39.7207031h-76.2197266v-7.7817383h76.2197266v-31.8808594l-58.2348633-3.546875c-7.5146484,6.9814453-14.7626953,13.4208984-19.3227539,18.7895508l-6.1728516-5.3686523c12.3457031-13.4208984,36.7661133-33.5478516,57.7016602-47.2358398l5.9018555,4.2929688c-9.6616211,6.4438477-19.5893555,14.496582-28.984375,22.0073242l118.0874023,6.7104492c-14.4921875-10.7329102-29.2548828-24.4204102-43.7470703-39.987793h-113.2568359v-7.7817383h187.3300781v7.7817383h-62.2612305c13.9545898,15.8339844,30.8598633,30.0595703,35.9614258,34.0854492,5.6347656,4.5600586,10.4658203,6.9775391,14.4921875,7.5151367-1.3422852,2.4130859-2.1464844,7.2441406-2.6845703,9.390625-4.8305664-1.3422852-12.3452148-2.1464844-73.5356445-5.9018555l-3.4926758-.2416992v31.3720703h79.4418945v7.7817383h-79.4418945v39.7207031h136.9384766ZM787.3632812,493.2470703c0-5.0825195,3.706543-9.0498047,8.8955078-9.0239258,5.1884766.0263672,8.8950195,3.8896484,8.8950195,8.8681641,0,2.7485352-1.1757812,5.1860352-3.1694336,6.8452148l-.4599609-.6220703c1.8144531-1.4780273,2.8881836-3.65625,2.8881836-6.2231445,0-4.5634766-3.4765625-8.012207-8.1538086-8.012207-4.6777344,0-8.1542969,3.5004883-8.1542969,8.1679688,0,2.7744141,1.2270508,5.1079102,3.1699219,6.5859375l-.4599609.6225586c-2.1474609-1.659668-3.4511719-4.2524414-3.4511719-7.2084961ZM787.5678711,513.234375l4.8056641-4.0966797c.8178711,3.0854492,3.2460938,4.6411133,6.1342773,4.6411133,3.5532227,0,6.4414062-2.3334961,6.4414062-7.0527344v-3.3188477h-17.3813477v.8295898h4.5244141v2.4892578c0,.5444336.0512695,1.0629883.1020508,1.5297852l-4.6264648,3.9414062v1.0371094ZM792.8081055,504.2368164h11.4257812v2.3857422c0,4.4599609-2.5820312,6.3266602-5.7260742,6.3266602s-5.699707-1.8149414-5.699707-6.3266602v-2.3857422ZM796.2587891,534.2128906c5.1376953,0,8.8950195-4.0449219,8.8950195-9.0234375s-3.7573242-9.0239258-8.8950195-9.0239258-8.8955078,4.0454102-8.8955078,9.0239258,3.7578125,9.0234375,8.8955078,9.0234375ZM796.2587891,517.0214844c4.6772461,0,8.1538086,3.5004883,8.1538086,8.1679688,0,4.6669922-3.4765625,8.1674805-8.1538086,8.1674805-4.6777344,0-8.1542969-3.5004883-8.1542969-8.1674805,0-4.6674805,3.4765625-8.1679688,8.1542969-8.1679688ZM796.2587891,554.5058594c5.1376953,0,8.8950195-4.0449219,8.8950195-9.0234375s-3.7573242-9.0234375-8.8950195-9.0234375-8.8955078,4.0449219-8.8955078,9.0234375,3.7578125,9.0234375,8.8955078,9.0234375ZM796.2587891,537.3144531c4.6772461,0,8.1538086,3.5004883,8.1538086,8.1679688s-3.4765625,8.1679688-8.1538086,8.1679688c-4.6777344,0-8.1542969-3.5004883-8.1542969-8.1679688s3.4765625-8.1679688,8.1542969-8.1679688ZM787.5678711,568.2260742l8.1796875-6.9492188-2.9907227-2.4116211h-5.1889648v-.8295898h17.3813477v.8295898h-11.0678711l11.0678711,8.8422852v.9594727l-8.6137695-6.871582-8.7675781,7.4936523v-1.0629883ZM804.9492188,582.628418h-17.3813477v-10.527832h.7158203v9.6977539h5.3422852v-8.375h.7158203v8.375h9.8916016v-9.3344727h.7158203v10.1645508ZM804.9492188,585.6606445h-17.3813477v3.9414062c0,5.9379883,3.5532227,9.3344727,8.690918,9.3344727s8.6904297-3.4228516,8.6904297-9.3344727v-3.9414062ZM804.2080078,589.4726562c0,5.7299805-3.2719727,8.6083984-7.9492188,8.6083984-4.6777344,0-7.949707-2.878418-7.949707-8.6083984v-2.9824219h15.8989258v2.9824219ZM794.3417969,609.3574219v10.527832h10.6074219v.8295898h-17.3813477v-.8295898h6.0581055v-10.527832h-6.0581055v-.8295898h17.3813477v.8295898h-10.6074219ZM796.2587891,642.2792969c5.1376953,0,8.8950195-4.0454102,8.8950195-9.0239258s-3.7573242-9.0234375-8.8950195-9.0234375-8.8955078,4.0449219-8.8955078,9.0234375,3.7578125,9.0239258,8.8955078,9.0239258ZM796.2587891,625.0878906c4.6772461,0,8.1538086,3.5,8.1538086,8.1674805s-3.4765625,8.1679688-8.1538086,8.1679688c-4.6777344,0-8.1542969-3.5004883-8.1542969-8.1679688s3.4765625-8.1674805,8.1542969-8.1674805ZM787.3632812,651.4223633c0-3.3188477,2.0708008-5.8081055,5.9301758-5.8081055h11.6557617v.8295898h-11.5791016c-3.4248047,0-5.2910156,2.0483398-5.2910156,4.9785156s1.8662109,5.0302734,5.2910156,5.0302734h11.5791016v.8300781h-11.6557617c-3.859375,0-5.9301758-2.5415039-5.9301758-5.8603516ZM787.3632812,665.8867188c0-2.7744141,1.3803711-4.7192383,3.3999023-5.8081055l.3833008.7001953c-1.8916016,1.0112305-3.0415039,2.8261719-3.0415039,5.1079102,0,2.8261719,1.456543,4.434082,3.6040039,4.434082,2.1210938,0,3.2460938-1.1411133,4.4731445-3.7338867l.7666016-1.6074219c1.2016602-2.4892578,2.1469727-3.8378906,4.3710938-3.8378906,2.3256836,0,3.8339844,1.8930664,3.8339844,4.2524414,0,2.1264648-.7670898,3.5522461-2.4536133,4.6157227l-.3579102-.6225586c1.4311523-.9077148,2.0957031-2.1523438,2.0957031-3.9931641,0-2.0224609-1.3291016-3.4487305-3.1181641-3.4487305-1.8916016,0-2.5820312,1.0634766-3.706543,3.3969727l-.7666016,1.581543c-1.4316406,2.9560547-2.7861328,4.2006836-5.1376953,4.2006836-2.5820312,0-4.3457031-1.9448242-4.3457031-5.237793ZM804.2333984,684.7050781v-9.3344727h-9.8916016v8.375h-.7158203v-8.375h-5.3422852v9.6977539h-.7158203v-10.527832h17.3813477v10.1645508h-.7158203Z" fill="#fff"/>
        <path d="M290.9443359,399.4619141h38.0883789v3.0146484h-6.0981445v46.9389648c0,2.7524414-.9150391,3.7363281-2.8833008,4.2612305-1.965332.5244141-5.5703125.5244141-12.2587891.4589844-.1967773-.7871094-.7216797-2.0336914-1.1806641-2.9492188,5.3764648.1967773,10.0966797.1967773,11.3432617.0654297,1.3745117-.0654297,1.8994141-.4589844,1.8994141-1.8364258v-46.9389648h-28.9101562v-3.0146484ZM311.6601562,435.7133789h-15.2080078v5.5073242h-2.8837891v-28.3847656h18.0917969v22.8774414ZM308.7109375,415.6538086h-12.2587891v17.1757812h12.2587891v-17.1757812ZM287.6669922,397.4282227l-.5244141.1308594h-15.1425781v56.6420898h2.9492188v-53.6899414h10.8154297c-1.5712891,4.5239258-3.8676758,10.2910156-6.2260742,15.5361328,5.3105469,5.5732422,6.7509766,10.2280273,6.7509766,14.0957031,0,2.0307617-.3935547,4.1298828-1.5717773,4.9140625-.5244141.394043-1.3115234.590332-2.1645508.590332-1.1806641.1313477-2.6870117.065918-4.4580078-.0654297.590332.918457.918457,2.0991211.9838867,2.8867188,1.5087891.1308594,3.1459961.1308594,4.5234375,0,1.246582-.1313477,2.3588867-.5249023,3.2119141-1.1152344,1.7055664-1.1811523,2.3613281-3.9335938,2.3613281-7.0136719,0-4.2612305-1.3115234-9.112793-6.4912109-14.6860352,2.3613281-5.3110352,4.9824219-11.668457,7.0136719-16.9135742l-2.03125-1.3120117ZM351.074707,434.5351562h-2.9492188c-.1313477,1.7685547-.3935547,3.2773438-.7216797,4.7832031h-10.2905273v2.6240234h9.4379883c-1.7026367,4.7207031-5.1113281,7.9980469-11.668457,10.0942383.590332.4589844,1.5087891,1.5087891,1.8369141,2.1645508,7.4072266-2.4272461,11.012207-6.3603516,12.8491211-12.2587891h10.6186523c-.590332,5.6362305-1.2436523,7.9980469-1.9648438,8.7851562-.394043.4589844-.984375.4589844-1.9682617.4589844-.918457,0-3.6708984,0-6.6201172-.328125.3935547.784668.7216797,1.8339844.7875977,2.6210938,2.8178711.1972656,5.5043945.1972656,6.8823242.1972656,1.5087891-.065918,2.4243164-.328125,3.2768555-1.1811523,1.246582-1.1123047,1.9023438-4.1953125,2.6899414-11.7993164.0625-.4594727.128418-1.3779297.128418-1.3779297h-13.1088867c.3276367-1.5058594.5874023-3.0800781.7841797-4.7832031ZM368.0541992,437.6157227h21.8959961v16.1918945h-3.0146484v-2.1645508h-15.9951172v2.4272461h-2.8862305v-16.4545898ZM370.9404297,449.0214844h15.9951172v-8.784668h-15.9951172v8.784668ZM366.0888672,394.8066406h-3.1459961v4.9174805h-26.4199219v2.6210938h26.4199219v4.8515625h-22.2246094v2.6210938h47.9858398v-2.6210938h-22.6152344v-4.8515625h26.9418945v-2.6210938h-26.9418945v-4.9174805ZM374.6767578,431.1240234h17.8979492v2.6894531h-56.0517578v-2.6894531h18.2910156c-.590332-1.5058594-1.9677734-3.7363281-3.3457031-5.1767578l1.8369141-.590332h-9.6376953v-11.3432617h42.5463867v11.3432617h-11.0776367l2.6865234.8530273c-1.0493164,1.6367188-2.0961914,3.4082031-3.1459961,4.9140625ZM383.1337891,422.8642578v-6.2919922h-36.4511719v6.2919922h36.4511719ZM371.3339844,431.1240234c1.1782227-1.7685547,2.5556641-4.1298828,3.3427734-5.7670898h-20.3217773c1.5712891,1.4404297,2.9492188,3.4082031,3.4082031,4.8515625l-2.5585938.9155273h16.1293945ZM402.4887695,451.1865234l2.3588867,2.6210938c3.6708984-4.4580078,7.9975586-10.4248047,11.4746094-15.5361328l-1.902832-2.2958984c-3.8017578,5.3764648-8.5878906,11.6030273-11.9306641,15.2109375ZM417.5654297,450.9897461c.7216797.7841797,1.3779297,1.965332,1.7060547,2.8837891,18.1567383-3.1459961,28.909668-10.359375,33.3676758-22.9462891l-3.0146484-1.046875c-4.3266602,11.7998047-14.4892578,18.4853516-32.059082,21.109375ZM436.1850586,410.8022461v26.6166992h3.0800781v-26.6166992h-3.0800781ZM446.5410156,417.1625977c3.9335938,4.7202148,7.8666992,11.1435547,9.3754883,15.3393555l2.8833008-1.4433594c-1.5712891-4.1958008-5.6357422-10.5532227-9.6347656-15.2080078l-2.6240234,1.3120117ZM404.5195312,412.3110352c3.7363281,2.1616211,8.5878906,5.2451172,11.0151367,7.2104492l2.0307617-2.3588867c-2.5556641-1.9023438-7.4072266-4.8515625-11.1435547-6.8852539l-1.9023438,2.0336914ZM429.7587891,416.769043l-3.0805664-.7216797c-1.9023438,6.4233398-5.1137695,12.7177734-9.112793,16.9790039.7871094.3935547,2.0996094,1.3779297,2.6899414,1.8339844,3.8676758-4.4550781,7.4072266-11.2089844,9.503418-18.0913086ZM414.2226562,427.9780273c-2.6865234-1.7680664-7.8662109-4.3920898-11.7338867-6.1606445l-1.8369141,2.2275391c3.9990234,1.8369141,8.9819336,4.5234375,11.668457,6.4233398l1.9023438-2.4902344ZM417.237793,409.6870117h3.0830078v-5.6362305h8.5224609v-2.8862305h-8.5224609v-6.4233398h-3.0830078v6.4233398h-15.4707031v2.8862305h15.4707031v5.6362305ZM442.9360352,394.7412109h-3.1459961v6.4233398h-8.3256836v2.8862305h8.3256836v5.6362305h3.1459961v-5.6362305h15.8637695v-2.8862305h-15.8637695v-6.4233398ZM479.3959961,419.8491211c-2.2275391,0-4.3266602,1.8369141-4.3266602,4.3271484,0,2.5551758,2.0991211,4.3920898,4.3266602,4.3920898,2.2304688,0,4.3266602-1.8369141,4.3266602-4.3920898,0-2.4902344-2.0961914-4.3271484-4.3266602-4.3271484ZM555.2563477,440.4335938c.8525391.590332,2.0961914,1.1811523,3.0146484,1.3779297-.4589844,9.5063477-1.4433594,11.7338867-6.4233398,11.7338867h-11.5400391c-5.2421875,0-6.7509766-1.0498047-6.7509766-5.1796875v-16.5200195h-11.078125c-1.6401367,11.5371094-6.0981445,18.815918-21.3061523,22.4213867-.262207-.8530273-1.1806641-2.2304688-1.8364258-2.8178711,14.2919922-3.0180664,18.3564453-9.5722656,19.796875-19.6035156h-11.078125v-18.4194336h18.8164062v-8.5883789h-26.2890625v-2.9516602h26.2890625v-7.2104492h3.1459961v7.2104492h26.7451172v2.9516602h-26.7451172v8.5883789h19.2724609v18.4194336h-12.5214844v16.5200195c0,1.7709961.590332,2.1650391,3.6708984,2.1650391h11.1464844c2.9492188,0,3.4082031-1.3779297,3.6708984-10.097168ZM546.1435547,428.8964844v-12.5869141h-35.0083008v12.5869141h35.0083008ZM579.659668,408.4433594h3.0805664v-5.5078125h9.8999023v-2.8178711h-9.8999023v-5.3764648h-3.0805664v5.3764648h-13.9643555v2.8178711h13.9643555v5.5078125ZM608.6352539,394.8066406h-3.0830078v5.3110352h-10.0283203v2.8178711h10.0283203v5.5732422h3.0830078v-5.5732422h14.4868164v-2.8178711h-14.4868164v-5.3110352ZM599.7192383,442.5332031h3.0151367v-29.8286133h-3.0151367v29.8286133ZM615.3208008,449.7431641c0,1.0498047-.3276367,1.3120117-1.4428711,1.3779297-.9814453,0-4.5864258.0654297-8.7822266-.065918.5219727.9155273,1.046875,2.2280273,1.2436523,3.0805664,5.0483398.0654297,8.0629883,0,9.8344727-.590332,1.5742188-.5249023,2.2275391-1.4433594,2.2275391-3.8676758v-40.4472656h-3.0805664v40.5126953ZM583.0024414,414.6040039c4.5239258-.8525391,8.6538086-1.7680664,11.8652344-2.8833008l-2.4897461-2.293457c-5.6391602,2.0961914-16.7827148,3.7363281-25.8955078,4.6518555.4594727.65625.8530273,1.7714844.984375,2.4931641,3.9985352-.328125,8.3251953-.8530273,12.5209961-1.5087891v9.112793h-14.1611328v2.8833008h12.9145508c-3.4736328,7.4755859-9.3095703,15.1455078-14.5546875,18.9472656.7871094.590332,1.6401367,1.5717773,2.2304688,2.3588867,4.7202148-3.8676758,9.8969727-10.6845703,13.5708008-17.7666016v23.5366211h3.0146484v-20.6499023c3.4086914,2.6865234,8.5883789,7.2104492,10.487793,9.112793l2.0336914-2.5585938c-1.8369141-1.5058594-9.769043-7.5380859-12.5214844-9.5063477v-3.4741211h12.7182617v-2.8833008h-12.7182617v-9.5722656ZM649.4277344,435.2539062c1.637207,3.9990234,3.4741211,9.3095703,4.1958008,12.7182617l2.6210938-.9155273c-.7871094-3.4111328-2.6210938-8.5878906-4.3925781-12.5869141l-2.4243164.7841797ZM680.171875,432.8295898c2.6240234,4.6547852,5.3764648,10.8813477,6.5571289,15.0112305l2.6870117-1.1123047c-1.1152344-3.9331055-3.9335938-10.2280273-6.6201172-14.8828125l-2.6240234.9838867ZM648.96875,419.5214844c.9838867,2.0991211,1.9648438,4.5888672,2.7519531,6.9477539l-15.9291992,2.2958984c6.0952148-6.2290039,12.1928711-14.2924805,17.6352539-22.5522461l-2.7553711-1.5717773c-1.7685547,3.0151367-3.8022461,6.0952148-5.8984375,8.9160156l-10.0966797.9814453c4.3266602-5.0454102,8.6533203-11.8652344,12.3901367-18.5507812l-2.8837891-1.3120117c-3.4082031,7.2758789-8.9160156,15.0766602-10.5561523,16.9790039-1.5717773,2.0307617-2.8833008,3.4741211-3.9985352,3.6708984.3935547.8530273.8525391,2.2958984,1.0493164,3.0146484.918457-.3935547,2.4272461-.71875,11.9311523-1.8339844-3.2119141,4.1958008-6.0957031,7.5385742-7.3417969,8.9160156-2.2275391,2.3588867-3.9331055,4.1303711-5.2451172,4.3925781.3935547.7841797.918457,2.3588867,1.0493164,3.0805664,1.246582-.65625,3.2773438-1.1152344,21.5029297-3.9335938.4594727,1.3125.7871094,2.5556641,1.0498047,3.6054688l2.6865234-.918457c-.7216797-3.2114258-2.7524414-8.6538086-4.7856445-12.7836914l-2.5556641.65625ZM629.4306641,451.4492188c.7875977.2592773,2.1650391.71875,2.6899414.980957,1.637207-4.0644531,3.3427734-10.159668,4.5234375-15.6674805l-2.7553711-.590332c-1.0463867,5.3110352-2.5551758,11.1435547-4.4580078,15.2768555ZM641.4956055,436.3691406c.8500977,4.3925781,1.703125,10.2280273,1.8999023,14.0957031l2.7519531-.590332c-.262207-3.8017578-1.1777344-9.5717773-2.0961914-14.0297852l-2.5556641.5244141ZM664.8325195,432.2392578c-1.246582,5.7045898-3.4082031,11.2094727-6.4887695,15.1425781.7841797.328125,2.1621094.918457,2.7524414,1.3120117,2.8178711-3.9331055,5.1796875-9.769043,6.6201172-15.8642578l-2.8837891-.590332ZM685.6137695,431.3867188l2.6210938-1.2436523c-1.0463867-3.8051758-3.9985352-9.8344727-7.0131836-14.3579102l-2.4902344,1.0493164c1.5712891,2.3588867,3.0146484,5.1142578,4.2612305,7.7353516l-17.5698242,1.7680664c5.9638672-5.9638672,11.996582-13.7646484,17.3730469-21.8935547l-2.7553711-1.5742188c-1.7026367,2.8837891-3.6708984,5.7700195-5.6357422,8.4570312l-9.9003906.9838867c3.3427734-4.3271484,6.7514648-9.9658203,9.5722656-15.5361328l-2.8862305-1.3120117c-2.5556641,6.1606445-6.9482422,12.7836914-8.2602539,14.4863281-1.309082,1.7055664-2.293457,2.8867188-3.2114258,3.0834961.3276367.7841797.7871094,2.2929688.9838867,2.9487305.8530273-.3935547,2.3588867-.7211914,11.5371094-1.7709961-3.0805664,4.1298828-5.8984375,7.3442383-7.2104492,8.6538086-2.0991211,2.2958984-3.8017578,3.9331055-5.0483398,4.1298828.3935547.8525391.8530273,2.4272461.9838867,3.0830078.984375-.3935547,2.4243164-.6557617,11.5371094-1.7055664v21.5688477c0,.6557617-.1962891.8525391-.9179688.9179688-.71875,0-3.0151367,0-5.8984375-.0654297.4589844.8500977.918457,2.0307617,1.1123047,2.8837891,3.4765625,0,5.7041016,0,7.0166016-.5249023,1.3115234-.590332,1.7026367-1.3779297,1.7026367-3.2773438v-21.8964844l8.5878906-.918457c.6557617,1.6401367,1.1806641,3.0834961,1.5087891,4.3271484ZM699.1303711,414.2104492h52.3808594v-2.7524414h-23.4023438c-.590332-1.7709961-1.8369141-4.2612305-3.0830078-6.0981445l-2.5556641.918457c.9838867,1.574707,1.965332,3.4741211,2.6210938,5.1796875h-25.9609375v2.7524414ZM740.6958008,394.8066406h-3.0834961v4.8515625h-10.8808594v2.8837891h10.8808594v5.4418945h3.0834961v-5.4418945h13.5678711v-2.8837891h-13.5678711v-4.8515625ZM709.3583984,407.918457h3.0805664v-5.3764648h11.3432617v-2.8837891h-11.3432617v-4.9169922h-3.0805664v4.9169922h-12.5869141v2.8837891h12.5869141v5.3764648ZM740.4335938,415.6538086l-3.0834961-1.0498047c-.9155273,2.4272461-2.5556641,5.9667969-3.8676758,8.3911133h-17.4384766l.8530273-.262207c-.65625-2.2275391-2.3588867-5.5703125-4.1298828-7.9321289l-2.7524414.7871094c1.5712891,2.2304688,3.0800781,5.1796875,3.7363281,7.4072266h-15.4707031v9.440918h3.0151367v-6.6201172h22.3554688v6.3579102h-19.0126953v18.487793h3.0146484v-15.6699219h15.9980469v19.144043h3.0805664v-19.144043h16.2573242v11.2119141c0,.7875977-.262207.9838867-1.1806641.9838867-.918457.0629883-3.8676758.0629883-7.6694336,0,.4589844.8500977.918457,1.8999023,1.0493164,2.8183594,4.5893555,0,7.4072266,0,8.9819336-.5249023,1.5058594-.5249023,1.8994141-1.3774414,1.8994141-3.2773438v-14.0297852h-19.3378906v-6.3579102h22.6152344v6.6201172h3.0830078v-9.440918h-15.7353516c1.2460938-2.2275391,2.5581055-4.9169922,3.7392578-7.3413086ZM792.019043,420.3085938c-.8613281-1.8056641-2.8808594-4.769043-4.5976562-7.0024414l-2.4926758,1.2866211c1.6767578,2.2358398,3.6108398,5.3276367,4.5117188,7.1762695l2.5786133-1.4604492ZM792.4467773,448.4912109c-4.8115234,0-8.2915039-.3022461-10.9980469-2.0195312-.4736328-.3447266-.9438477-.6445312-1.3745117-.9467773,8.8500977-5.3676758,18.4736328-14.3891602,23.7587891-22.2099609l-2.1479492-1.4604492-.6015625.1708984h-29.6860352v2.7924805h27.5810547c-4.8544922,6.6171875-13.6191406,14.5205078-21.4829102,19.0756836-.2138672-.0429688-.4277344-.0854492-.6445312-.0854492-2.1479492,0-4.8544922,2.3188477-7.6899414,5.3706055l2.1479492,2.578125c2.1079102-2.8378906,4.1245117-5.2851562,5.4990234-5.2851562.9467773,0,2.2788086,1.4179688,3.9960938,2.4902344,2.8349609,1.8481445,6.3603516,2.3217773,11.5571289,2.3217773,4.081543,0,11.6000977-.2597656,14.8227539-.4736328.0429688-.815918.5136719-2.3188477.815918-3.0488281-4.1245117.3847656-10.4389648.7299805-15.5532227.7299805ZM273.7319336,382.2050781h-1.7319336l6.1733398-13.4790039,6.1738281,13.4790039h-1.7319336l-1.4746094-3.2412109h-5.934082l-1.4746094,3.2412109ZM275.8754883,377.4892578h4.5961914l-2.2983398-5.2304688-2.2978516,5.2304688ZM294.2407227,382.4799805c3.6186523,0,6.1220703-2.7270508,6.1220703-6.2768555v-.5146484h-5.1274414v1.4746094h3.3442383c-.0688477,2.1098633-2.2294922,3.8417969-4.2358398,3.8417969-2.7954102,0-5.0249023-2.5727539-5.0249023-5.2822266,0-2.8979492,2.2636719-5.2475586,5.1616211-5.2475586,1.578125,0,3.1386719.840332,4.0644531,2.1098633l1.1318359-1.0810547c-1.2685547-1.5947266-3.2578125-2.503418-5.2646484-2.503418-3.7211914,0-6.7050781,3.0527344-6.7050781,6.7739258,0,3.5839844,2.9150391,6.7055664,6.5336914,6.7055664ZM305.59375,382.2050781h-1.7324219l6.1738281-13.4790039,6.1738281,13.4790039h-1.7319336l-1.4750977-3.2412109h-5.9335938l-1.4746094,3.2412109ZM307.7373047,377.4892578h4.5961914l-2.2983398-5.2304688-2.2978516,5.2304688ZM321.9663086,382.2050781h1.6118164v-11.4555664h3.0693359v-1.4746094h-7.7509766v1.4746094h3.0698242v11.4555664ZM339.3398438,382.2055664h1.6123047v-12.9306641h-1.6123047v5.2133789h-6.15625v-5.2133789h-1.6123047v12.9306641h1.6123047v-6.2084961h6.15625v6.2084961ZM347.5493164,382.2050781h-1.7319336l6.1733398-13.4790039,6.1738281,13.4790039h-1.7319336l-1.4750977-3.2412109h-5.9331055l-1.4750977,3.2412109ZM349.6928711,377.4892578h4.5961914l-2.2983398-5.2304688-2.2978516,5.2304688ZM378.7949219,382.4799805c1.1318359,0,2.4008789-.3261719,3.3955078-.9091797v-1.9038086c-.9604492.8579102-2.1777344,1.3378906-3.4467773,1.3378906-2.8808594,0-5.0761719-2.4179688-5.0761719-5.2475586,0-2.8642578,2.2119141-5.2822266,5.1103516-5.2822266,1.2177734,0,2.4868164.4458008,3.4125977,1.269043v-1.8691406c-.9770508-.6000977-2.1259766-.8745117-3.2583008-.8745117-3.8071289,0-6.8764648,2.9838867-6.8764648,6.8081055,0,3.7382812,3.0522461,6.6713867,6.7392578,6.6713867ZM395.2895508,374.4882812h-6.1567383v-5.2133789h-1.6118164v12.9306641h1.6118164v-6.2084961h6.1567383v6.2084961h1.6118164v-12.9306641h-1.6118164v5.2133789ZM404.7265625,382.2050781h-1.6123047v-12.9301758h1.9550781c1.1494141,0,2.3837891.0170898,3.4125977.6000977,1.0805664.6347656,1.6977539,1.8520508,1.6977539,3.0869141,0,1.8520508-1.234375,3.3955078-3.1035156,3.6181641l4.081543,5.625h-1.9555664l-3.8066406-5.4702148h-.6689453v5.4702148ZM404.7265625,375.3969727h.5146484c1.6459961,0,3.4296875-.3085938,3.4296875-2.3666992,0-2.0234375-1.9208984-2.3149414-3.515625-2.3149414h-.4287109v4.6816406ZM417.730957,369.2749023h-1.6118164v12.9301758h1.6118164v-12.9301758ZM427.269043,380.9707031c-1.3886719,0-2.5205078-1.0292969-2.503418-2.4526367l-1.6293945.3427734c.2749023,2.0756836,1.9038086,3.6186523,3.9956055,3.6186523,2.3154297,0,4.1328125-1.6806641,4.1328125-4.0297852,0-2.1611328-1.371582-3.1723633-3.206543-3.8930664l-.9262695-.3603516c-.8056641-.3085938-1.800293-.8398438-1.800293-1.8515625,0-1.1318359,1.1318359-1.8349609,2.1606445-1.8349609.9775391,0,1.5952148.4116211,2.0751953,1.2172852l1.2861328-.7719727c-.703125-1.2514648-1.8867188-1.9545898-3.3271484-1.9545898-1.9550781,0-3.8071289,1.2519531-3.8071289,3.3442383,0,1.8007812,1.3378906,2.640625,2.8125,3.2753906l.8920898.3769531c1.1142578.4633789,2.2290039,1.0634766,2.2290039,2.4526367,0,1.3544922-.9946289,2.5209961-2.3837891,2.5209961ZM438.7763672,382.2050781h1.6118164v-11.4555664h3.0698242v-1.4746094h-7.7514648v1.4746094h3.0698242v11.4555664ZM450.03125,369.2749023h-1.6118164v12.9301758h1.6118164v-12.9301758ZM456.2480469,382.2050781h6.9453125v-1.4746094h-5.3334961v-4.887207h5.1791992v-1.4750977h-5.1791992v-3.6186523h5.3334961v-1.4746094h-6.9453125v12.9301758ZM467.9335938,373.6411133l.9462891.3886719,2.2475586-4.512207-1.3349609-.5244141-1.8588867,4.6479492ZM480.5966797,374.5566406l-.9262695-.3603516c-.8061523-.3085938-1.8007812-.8398438-1.8007812-1.8515625,0-1.1318359,1.1323242-1.8349609,2.1611328-1.8349609.9775391,0,1.5952148.4116211,2.0751953,1.2172852l1.2861328-.7719727c-.703125-1.2514648-1.8867188-1.9545898-3.3271484-1.9545898-1.9545898,0-3.8071289,1.2519531-3.8071289,3.3442383,0,1.8007812,1.3378906,2.640625,2.8125,3.2753906l.8916016.3769531c1.1147461.4633789,2.2294922,1.0634766,2.2294922,2.4526367,0,1.3544922-.9946289,2.5209961-2.3837891,2.5209961-1.3886719,0-2.5205078-1.0292969-2.503418-2.4526367l-1.6293945.3427734c.2744141,2.0756836,1.9033203,3.6186523,3.9956055,3.6186523,2.3154297,0,4.1333008-1.6806641,4.1333008-4.0297852,0-2.1611328-1.3720703-3.1723633-3.2070312-3.8930664Z" fill="#999"/>
      </g>
    </g>
  </g>
</svg>