<?xml version="1.0" encoding="UTF-8"?>
<svg xmlns="http://www.w3.org/2000/svg" version="1.1" viewBox="0 0 1080 1080">
  <!-- Generator: Adobe Illustrator 28.7.3, SVG Export Plug-In . SVG Version: 1.2.0 Build 164)  -->
  <g>
    <g id="ai">
      <path d="M191.1594238,500.6220703v36.9970703h33.0773926v-41.9355469h-33.0773926v4.9384766ZM214.3598633,527.7421875h-13.3234863v-22.1816406h13.3234863v22.1816406ZM164.1103516,543.1083984h-9.8769531v46.8227539h9.8769531v-3.1450195h43.135498v3.1450195h9.876709v-46.8227539h-53.012207ZM207.2458496,576.9091797h-43.135498v-7.3876953h43.135498v7.3876953ZM207.2458496,559.6445312h-43.135498v-6.6591797h43.135498v6.6591797ZM165.8334961,528.2246094l-18.8493652,18.8496094-6.9841309-6.984375,17.2131348-17.2128906h-14.041748v-9.8769531h17.7236328v-7.4394531h-14.9785156v-15.7832031h9.8769531v5.90625h30.190918v9.8769531h-15.2124023v7.4394531h17.7236328v9.8769531h-14.041748l12.8974609,12.8974609-6.9841309,6.9838867-14.5336914-14.5336914ZM348.1987305,501.1875h9.8769531v14.9243164h-37.145752v-26.3344727h9.8769531v16.4575195h17.3918457v-5.0473633ZM373.8806152,579.6660156h27.2687988v9.8769531h-37.1455078v-25.7661133h-.0002441v-9.8769531h.0002441v-11.7607422h9.876709v11.7607422h24.7763672l-9.8769531,9.8769531h-14.8994141v15.8891602ZM373.8806152,528.1337891h27.2687988v9.8769531h-37.1455078v-25.7666016h-.0002441v-9.8764648h.0002441v-9.9379883h9.876709v9.9379883h24.7763672l-9.8769531,9.8764648h-14.8994141v15.8896484ZM320.9299316,529.2211914v60.3217773h9.8769531v-19.4790039h17.3918457v9.6020508h-6.1154785v9.8769531h15.9924316v-68.3144531h-37.145752v7.9926758ZM348.1987305,560.1870117h-17.3918457v-9.6020508h17.3918457v9.6020508ZM348.1987305,540.7080078h-17.3918457v-9.6025391h17.3918457v9.6025391ZM559.9047852,539.6269531l24.661377,37.9755859-8.2834473,5.3789062-28.2583008-43.5141602v49.8261719h-15.3339844l-9.8769531-9.8769531h15.3339844v-59.9785156h-26.1418457v-9.8769531h36.0187988v11.7714844l6.3808594,9.8256836,20.7072754-20.7070312,6.9841309,6.9838867-22.1918945,22.1918945ZM538.1474609,499.6542969l-9.8769531-9.8769531h19.7539062v9.8769531h-9.8769531ZM533.34375,541.0703125l-27.2175293,41.9111328-8.2834473-5.3789062,23.7241211-36.5322266h-21.189209v-9.8769531h32.9660645v9.8769531ZM728.7124023,576.0771484h35.6137695v9.8769531h-81.104248v-9.8769531h35.6137695v-24.3398438h-25.5769043v-9.8769531h25.5769043v-24.3398438h-20.6940918l-7.7436523,18.8852539-9.1384277-3.7470703,9.9013672-24.1479492v-12.1162109h9.8769531v11.2495117h17.7978516v-17.8666992h9.876709v17.8666992h29.3208008v9.8764648h-29.3208008v24.3398438h25.5769043v9.8769531h-25.5769043v24.3398438ZM908.1262207,576.0771484v-9.8769531h-19.029541v-6.0136719h15.2653809v-38.8427734h-40.4074707v38.8427734h15.2651367v6.0136719h-18.2001953v9.8769531h18.2001953v14.1455078h9.8769531v-14.1455078h19.029541ZM889.0966797,550.3095703v-4.605957h5.3884277v4.605957h-5.3884277ZM894.4851074,531.2207031v4.605957h-5.3884277v-4.605957h5.3884277ZM879.2197266,531.2207031v4.605957h-5.3881836v-4.605957h5.3881836ZM873.831543,550.3095703v-4.605957h5.3881836v4.605957h-5.3881836ZM870.8964844,517.5205078h12.4802246v-25.4550781h-22.3571777v25.4550781h9.8769531ZM873.4997559,501.9423828v5.7016602h-2.6032715v-5.7016602h2.6032715ZM894.8168945,517.5205078h12.4802246v-25.4550781h-22.3571777v25.4550781h9.8769531ZM897.420166,501.9423828v5.7016602h-2.6032715v-5.7016602h2.6032715ZM939.668457,502.46875h-12.6882324v-12.6879883l12.6882324,12.6879883ZM930.7133789,589.0683594l-6.0629883-16.7402344-9.2270508,17.8945312-8.7785645-4.5268555,13.4206543-26.0268555-8.1369629-22.4667969v-19.6816406h-2.1555176v-9.8764648h2.1555176v-17.8666992h9.8769531v17.8666992h17.8630371v9.8764648h-17.8630371v17.9482422l4.4306641,12.2333984,1.7692871-3.4311523v-13.8354492h9.8769531v16.2319336l-7.0612793,13.6943359,9.1789551,25.3432617-9.2866211,3.3632812Z" fill="#fff"/>
    </g>
  </g>
</svg>