<?xml version="1.0" encoding="UTF-8"?>
<svg xmlns="http://www.w3.org/2000/svg" version="1.1" viewBox="0 0 1080 1080">
  <!-- Generator: Adobe Illustrator 28.7.3, SVG Export Plug-In . SVG Version: 1.2.0 Build 164)  -->
  <g>
    <g id="vinoch">
      <path d="M186.0987622,587.2604976l-31.4979615-82.7405534c-2.3272832-6.1126133-8.1196515-10.3109577-14.6008007-10.681188h41.2010467v.0177914c-2.7534294.2681417-5.2687931,1.7355077-6.8556156,4.0399163-1.760924,2.5573005-2.1510638,5.8160901-1.0433379,8.7169339l22.2663481,58.3011141c.1351298.3541334.4740135.5879631.8522923.5888103h.0029652c.3376128,0,.6447261-.1855388.8035778-.4761315l-8.6478863,22.233307h-2.4806281ZM220.4869773,505.2277873c.7756199-2.5556061.3579458-5.3369934-1.1636416-7.5621879-1.4762618-2.1591123-3.817524-3.5396394-6.3879562-3.8060866v-.0207566h22.7335839c-6.709472.3693831-12.5259857,4.5601027-14.987128,10.887907l-.1948581.5011242ZM340.5455862,583.7394968c-6.2833259-.8175567-11.1518127-6.2041118-11.1518127-12.7072885v-64.4463449c0-6.4993642,4.8638271-11.8842249,11.1420698-12.7060177h-39.0609966c6.2786662.8217928,11.1424934,6.2066535,11.1424934,12.7060177v64.4463449c0,6.5031766-4.8684868,11.8897317-11.1522363,12.7072885h39.0804825ZM479.4497859,583.6640952l-57.6940888-82.181819c-.1931637-.2753429-.5083254-.4388543-.8442438-.4388543h-.2579752c-.5697481,0-1.031477.4617289-1.031477,1.031477v4.3550781c-.0732836-6.1562445-4.4834303-11.2877897-10.3109577-12.4751532h27.3038531l42.6137678,60.9134832c.1927401.2757665.5083254.4401251.845091.4401251h.2579752c.5549219,0,1.0073316-.4380071,1.0306298-.9874221v29.3430853h-1.9125744ZM409.3046894,583.6640952c5.8448952-1.1877871,10.265632-6.3430541,10.3177354-12.5217497.0521034,6.1786956,4.4728402,11.3339626,10.3177354,12.5217497h-20.6354707ZM481.3627839,506.4757263c-.0521034-6.1761539-4.4698749-11.3305738-10.3118049-12.5209025h20.6231862c-5.84193,1.1903287-10.2592779,6.3447485-10.3113813,12.5209025ZM759.1466271,585.3280138c2.3806574-.3753136,4.6177129-1.0751083,6.684903-2.095148,3.2249012-1.5902114,6.1130369-3.7175533,8.5847693-6.3218739,2.4602951-2.5916125,4.5529014-5.596663,6.2193616-8.9304305,1.5457329-3.0931602,2.7271659-6.3371237,3.5163411-9.6535235h.3435433v25.4124589h-.4926521c-.4579165-.9115969-.9984359-1.5605591-1.6418911-1.9748443-.765877-.4922285-1.8206522-.7319886-3.2249012-.7319886-1.1301769,0-2.5238357.2439962-4.2610379.7472384-1.6469744.4761315-3.526084.9946234-5.5860728,1.540226-2.0705789.5481443-4.3682098,1.0640946-6.8297757,1.531754-1.0759555.2033302-2.1824105.3626055-3.3125874.4761315ZM745.4091324,584.5773865c-2.8690734-.6006712-5.6877379-1.4800742-8.4382021-2.6331257-5.7063765-2.3908239-10.7896308-5.7076473-15.1095497-9.8606661-4.3211897-4.1521715-7.829906-9.1074972-10.4287197-14.7283057-2.5928833-5.6000518-3.9073281-11.7529075-3.9073281-18.2882781,0-7.1195212,1.4618592-13.6540446,4.3453352-19.4218438,2.8974549-5.7940627,6.6641464-10.8167415,11.1950203-14.928247,4.5346864-4.1140471,9.6632664-7.3279346,15.2429851-9.552282,1.8049789-.7188569,3.6061453-1.3229169,5.3979924-1.8113329-1.5296359.5337417-2.9118575,1.1966828-4.1424286,1.9875524-3.7514417,2.4115805-6.6247511,5.8029584-8.5407144,10.0805168-1.8812277,4.19665-3.1007851,9.2650781-3.6243603,15.0638004-.5155267,5.7161194-.7768907,12.0545139-.7768907,18.8402348,0,8.9533052.5252696,16.4680494,1.5614063,22.3358193,1.047574,5.9406298,2.719541,10.7409163,4.9684574,14.2686947,2.2925477,3.5955552,5.3077647,6.1507377,8.9622009,7.5935347,1.0378311.4100492,2.1370848.7616409,3.294796,1.0539281ZM783.689426,518.2608277c-.9065137-2.6543059-1.9888232-5.4683108-3.221936-8.375085-1.3614649-3.2024502-3.1414511-6.1833552-5.2899733-8.8609594-2.1815633-2.7123398-4.926097-4.962527-8.1577759-6.6887154-1.2225227-.6531982-2.5594185-1.1856691-4.0043336-1.5961418,2.0366905.4566457,3.9670564.936166,5.7478898,1.4275472,2.0815926.5777966,3.8628496,1.1013718,5.4445889,1.6012251,1.7172927.5426374,3.2020266.8179803,4.4126883.8179803,1.3669718,0,2.3920947-.1804555,3.1346735-.5519567.7264818-.3638763,1.2525986-1.072143,1.5978363-2.1548762h.3689595v24.3809819h-.0326175ZM940,583.7394968c-6.2837495-.8175567-11.1522363-6.2041118-11.1522363-12.7072885v-64.4463449c0-6.4993642,4.8638271-11.8842249,11.1424934-12.7060177h-39.0609966c6.2782426.8217928,11.1420698,6.2066535,11.1420698,12.7060177v24.0933686c0,3.2423096-2.6284113,6.1366175-5.8707209,6.1366175h-23.9612182c-3.2423096,0-5.8707209-2.8943078-5.8707209-6.1366175v-24.0933686c0-6.4993642,4.8638271-11.8842249,11.1424934-12.7060177h-39.0614203c6.2786662.8217928,11.1420698,6.2062299,11.1420698,12.7051705v64.4480393c0,6.5023294-4.8684868,11.8888845-11.1518127,12.7064413h39.0809061c-6.2837495-.8175567-11.1522363-6.2041118-11.1522363-12.7072885v-27.7062916c0-3.2423096,2.6284113-6.1440729,5.8707209-6.1440729h23.9612182c3.2423096,0,5.8707209,2.9017633,5.8707209,6.1440729v27.7062916c0,6.5031766-4.8684868,11.8897317-11.1518127,12.7072885h39.0804825ZM607.7914897,584.599414c2.3772686-.6150738,4.4503891-1.49956,6.2041118-2.6483755,3.7518653-2.456059,6.6031473-5.8931861,8.4742085-10.2164939,1.8367492-4.2402813,3.0114046-9.3286188,3.4909249-15.1231051.472319-5.730522.7120792-12.0235908.7120792-18.7042577,0-6.010101-.1961289-11.8223786-.5824562-17.275016-.3926814-5.5382055-1.5241291-10.4998853-3.3629963-14.7477915-1.8706376-4.3199189-4.7405582-7.7985593-8.5301243-10.3393392-1.8325132-1.2293003-4.0094168-2.1654663-6.5154612-2.8055328,2.7157286.547297,5.4174782,1.3364723,8.0887284,2.3649841,5.6644397,2.1836813,10.7667562,5.3302157,15.1658891,9.3514934,4.3953205,4.0195833,8.0078199,8.9723674,10.7366802,14.7202572,2.7182702,5.73264,4.0966793,12.2951213,4.0966793,19.5044466,0,6.2765482-1.2941118,12.3239264-3.8467527,17.9735399-2.5615365,5.6669813-6.050767,10.7095695-10.3702623,14.9879752-4.3254258,4.2817945-9.3887706,7.7070607-15.0485507,10.1800639-2.8131576,1.2284531-5.7245915,2.1552998-8.7126978,2.7771513ZM588.8847491,584.5409566c-2.8296782-.5989768-5.6013226-1.4656716-8.297989-2.5966957-5.7051057-2.3899767-10.7887836-5.7076473-15.1103969-9.8606661-4.3207661-4.1521715-7.8290588-9.1074972-10.4278725-14.7283057-2.5928833-5.600899-3.9073281-11.7537547-3.9073281-18.2882781,0-7.1190976,1.4622828-13.653621,4.3457588-19.4218438,2.8970313-5.7940627,6.6632991-10.8163179,11.1945967-14.928247,4.5342628-4.1131999,9.6835994-7.3266638,15.305255-9.5514348,2.0646484-.8162859,4.121672-1.4843102,6.1630222-2.0036494-1.6889112.5494151-3.2164291,1.2534458-4.5757761,2.1103977-3.7548305,2.3692201-6.6510146,5.7381469-8.6089147,10.0131637-1.9257062,4.2000388-3.2109223,9.2438979-3.819642,14.9909405-.601942,5.675877-.9073609,11.9977509-.9073609,18.790673,0,8.9533052.5252696,16.4896533,1.5609827,22.39936,1.047574,5.9804487,2.7182702,10.8239428,4.9659158,14.3940817,2.2925477,3.6413045,5.3086119,6.2193616,8.9651661,7.6630058.9958942.393105,2.0485515.7328358,3.1545829,1.0174981Z" fill="#fff"/>
      <path id="flora" d="M609.1101739,496.1156402c-.1965323.9904425-.2723258,2.049406-.9926023,2.8360564-.6612732.7207192-1.4698435.4319931-2.2453707.1708934-.3236608-.1092286-.6459879-.3236705-1.0600227-.058708.2835726.4731848.7328228.3498366,1.0858218.4233031.4727121.0988334.8034229.3286866.9560805.789693.0690225.2079202.139429.4395179-.0463568.6151882-.1645575.1547869-.328717.0091103-.4953978-.0516745-.2354543-.0852005-.5075134-.2333631-.7214372-.1806392-1.2171557.2999293-2.281552.0895732-3.2850224-.6915508-.4014797-.3140157-1.0668042-.4564041-1.316647.1596398-.2408843.5900783.3934905.7662653.8182718.9412329.3005596.1236739.6363227.1583011.9488347.2560215,1.0914786.3408471,1.5441957,1.147426,1.3501641,2.2830786-.1125465.6605871-.4361408.7829517-.9940517.5067011-.3359332-.1655687-.6145943-.401083-.8154184-.7131699-.4379807-.682475-.7742984-.4961359-1.0746355.1009716l-.0232646.0116488c-.6157527.1424334-.9811399.0874629-.9955649-.748287-.0164749-.896429-.830243-1.3671442-1.732411-1.4230222-2.8900269-.1790011-2.9990978-.506214-.9638808-2.3571006.6649749-.6047479.8023555-1.3539777.3281037-2.1705224-.4993156-.861287-.4038939-1.0978999.5622302-1.0325814.6250597.0424126.6977399-.1736026.6092043-.6641729-.0065884-.0359072-.008735-.0726352-.0123514-.1089032-.0435128-.5908542-.0878647-1.196064.480659-1.5832353.2979189-.2031763.5607171.0169897.7773539.2155341.566154.5197127,1.0000049,1.1315282.6857757,1.9262491-.2257092.5680521-.6308375,1.0622203-.8977324,1.6169654-.1814859.3772714-.4476098.8939954.1345001,1.1233728.4902448.1939645.8902175-.2091718.9909748-.6361633.3079751-1.3114266.9606115-2.3079487,2.1621036-2.9783035.286969-.1600706.3883543-.6531358.5967307-1.0312305,1.3315292,1.0936316.0301042,1.9234145-.4308952,3.0492283.8744651-.4018722,1.0189977-1.0529173,1.3696721-1.50574.6597641-.8489635,1.3243956-1.0513111,2.2682571-.5475006.5453374.2915772,1.0568852.6451799,1.5846964.969771.1909723.1179191.4353251.2785514.3936284.4869564ZM578.2533615,513.283717c.207432,1.5656378.9386567,2.0408411.5463763,2.7747686-.2657828.497726-.8470029.7920946-1.8499854.9075629l-.0022214.0002557c-.5142646.0592047-.5711212.6201372-.496279,1.7371651.2413163,3.6091831,1.786618,6.0996675,4.7224905,7.6144797.1377726.0708164.3108514.1259337.4923117.1853216.5011954.1651018,1.1264611.3706025,1.3557708.9334939.1532883.375601.0973279.819503-.1693594,1.3574723-.1858231.3733384-.3741555.8883257-.217237,1.2181339.1885313.3977214.8667012.53605,1.4940453.6633598,1.0035893.2061576,2.0540513.2841742,3.0693398.3598413.7211429.0536846,1.4422859.1073692,2.1571728.2036585,1.2169807.1635573,1.9160669.7485721,2.0798219,1.7407634.0706293.438636-.1435762,1.0496784-.4579207,1.3063423-.2115598.1732782-.4360523.2747476-.6659719.301217-.4831643.0556243-.8896565-.2233462-1.2483834-.4694215-.1176121-.0812816-.2364698-.1635833-.3582206-.2321721-.7597225-.4302751-1.3421396-.6255838-1.7308925-.5808286-.3598741.0414305-.8435875.3129391-.9032318,2.183081-.0222771.6732972-.1496582,1.4581701-.9538214,1.5507493-.2388054.0274924-.4984185-.0071914-.8609613-.0556216-.7010193-.0932319-1.4598573-.1227981-2.3183521-.090281l-.2670471.0074747c-.215617.0044624-.4379657.0091181-.6512245.0336695-.5909044.0680278-.8943153.2739861-1.0457325.7102622-.2379941.6864971.1847099,1.1706963.8554972,1.8311033l.1936927.1923588c3.1446676,3.1783681,7.1575388,4.5848976,12.268713,4.3001362l2.1762896-.1225649c2.3495297-.1332015,4.6989246-.267551,7.0518232-.372054,4.3583738-.1957684,8.391597.7895738,11.0635609,2.7030024,3.9807475,2.8494232,6.4082043,7.8008623,6.4931352,13.2232624.2906625,4.2596915-.3960007,8.7191567-1.9848813,12.8962222-.0766193.2007911-.1721861.4223788-.2811143.6548124,2.1013081-3.7916183,4.1374145-11.3895402,2.5278236-17.9662446-.3123553-1.2799093-2.8713544-13.4796626-2.7844827-15.0603298.1488831-2.7210127-.6347014-5.0135613-2.3964424-7.0079283-.4374476-.4947182-.7560191-.7343636-.9481741-.7122417-.1032972.0118921-.3188345.1321092-.6013943.8033764-.4346244,1.0349019-1.0054148,1.6003186-1.6940629,1.6795992-.3276632.0377222-.6712257-.040816-1.0204216-.2344696-1.6217378-.8976389-1.0156076-2.7347098-.7872404-3.4264976.0657815-.1972165.166167-.3681669.2627834-.5328661.1812864-.3064991.3202041-.5423853.2332938-.8895608-1.9057285.2409208-2.8371395,1.7332442-3.2832221,2.9486375-1.2795981,3.4841065.4686516,6.1594852,2.4939576,9.2578794.2758109.4219953.5543822.8483266.8283432,1.2833329.0895807.1397729.0708865.3257512-.042497.4435155-.0562711.0576703-.1288356.0916203-.203254.1001877-.0766399.0088232-.1574899-.0086285-.2271347-.0552931-1.2745103-.855008-2.5147515-1.6674231-3.7245295-2.460076-2.6449164-1.7309711-5.1424313-3.3666383-7.5523156-5.1572443-4.7878577-3.5587079-7.9614594-6.9356047-10.2888829-10.948598-5.9568369-10.2658344-2.5193449-19.370628,1.1420581-26.1556713.3254146-.6034849.713875-1.1781607,1.0899848-1.7333811.636923-.9418459,1.2930958-1.9115039,1.7132969-3.1076293-.0984174.005513-.1942764.0136401-.2886878.0245092-1.1240513.1294063-1.9876806.6168443-2.9030402,1.1335068l-.294664.1653937c-.733244.409019-1.3162727,1.1003344-1.9339319,1.8322856-.9297698,1.10354-1.8911748,2.2444623-3.4428543,2.4230993-.4498427.0517881-.934565.0174238-1.3441033-.1052927-.08007.037141-.2713611.2680038-.3738722.3920789l-.1711328.2012008c-1.0575294,1.1851471-2.5268707,6.0928257-1.8481523,7.5783736.2713494.5939171-2.3566701.657342-2.3866148,1.763983-.0299446,1.106641.4849308,2.2897004.6923628,3.8553382ZM614.6430216,553.1178034c-3.6301608-4.6326117-10.9927256-6.7260633-15.1683183-4.2290151-1.4698288.8789674-2.11476,1.8346576-.3009046,3.0616024,1.5696216,1.0617318.8435011,1.6420721-.2193146,2.4604735-1.6820641,1.2952448-2.2325628,3.1344601-1.6234802,5.3035077.5828091,2.0754881,1.7671721,3.5538779,3.8397576,4.0326034,1.2542166.2896872,2.3869264-.0139916,3.1306051-1.1495587.5478746-.8365803.3784789-1.7891139-.1997517-2.5690693-.8716822-1.1757914-1.9190342-.8680536-2.9763011-.3205978-.1653059.0855948-.4248184-.0280846-.7455251-.0600684.0893933-1.7001281,1.0767555-2.3533718,2.3850419-2.6640867,2.6260623-.6236774,5.6785033,1.1139307,7.0113003,3.9727667,1.6741202,3.5909758.4525782,9.8652223-2.5277708,12.6600639-.5883173.5516913-1.3597448,1.8199688-2.0791989,1.0259896-.8463811-.9340511.3590689-1.7396384,1.0076692-2.349631,1.2749422-1.1990392,2.4379166-2.5740619,1.3966516-4.1184237-.4814116-.71401-1.626515-.9597422-1.626515-.9597422,0,0,1.1981095.8471915,1.1328313,2.1334956-.0494132.9736844-1.5743529,1.8563215-2.2708432,2.1726016-1.6255956.7381801-2.9556797.7410953-3.7003448,2.3690548-1.8325139,4.0061442-6.2388861,4.5168238-9.1112808,1.1416382-1.1731322-1.3784853-1.5317292-2.9645179-.7088346-4.6214767.7951256-1.6010452,2.1922943-1.9056192,3.8213275-1.7492363,1.4871635.1427569,2.616936,1.2713764,4.1781777,1.7816685-1.4506599-3.0901203-4.1249864-4.2595452-7.2422415-3.3868978-2.8454066.796536-4.4503699,3.2543697-4.1296963,6.3241311.3949608,3.7807819,3.4477528,6.8194846,7.9342006,7.8601691,5.6290281,1.3057175,10.4334546.3398924,15.1566271-2.9536853.9036862-.5761439,1.6680451-1.2848578,2.2711803-1.9207225,2.6336816-2.7765881,4.2971706-5.5502048,4.676111-10.0163233.2034808-4.7561422-.2396384-9.3115249-3.3111597-13.2312315ZM605.6595659,538.5109302c-1.6824721-1.0393481-5.4411204-3.9585154-6.1716341-4.6291971-5.1230897-4.7087513-10.9290591-10.0455522-11.9271696-17.8981748-.9261024-7.2869999.7676312-10.700539,4.3746394-17.1291241.6022637-1.0716536,2.8084778-4.2288299,3.6928984-4.3399241.2124499.2711937.3182805,2.8259644.1270659,3.8346439-.2293302,1.2095891-.2466424,1.1284318-1.0928954,2.147595-.2172227.2615293-.3918993.3694475-.6093214.648391-.0682148.0878532-.0781687.2015238-.0629915.3139183.0522815.3871708.7817302.5148243.7817302.5148243,2.6797558.4817168,3.6796289,1.5947269,4.7961255,3.3554642,1.1206901,1.7677907.309134,4.7661473-.9164146,6.0614404-.5520034.5823895-1.1612895.9157217-1.8099146.9903946h0c-.6519456.0750552-1.3753293-.1048535-2.1505285-.5350287-.7045223-.391935-1.1043691-.9598153-1.1885366-1.6863568-.0812131-.7013744.0723929-1.1607971.4832505-1.4451983.1275503-.0888871.2582909-.14104.3866877-.1558216.2401905-.0276519.4906583.0704694.7442922.2911247.0949995.0829762.1891282.1776468.2833241.2728893.3435061.3459608.7317285.7383679,1.2386743.6800058.3220988-.0370816.6144604-.2510294.8937206-.653034.7139965-1.0277053.5916374-2.2611539-.3193959-3.2177198-1.1771175-1.2354979-2.5593021-1.7714459-4.110025-1.5929191-.1461067.0168205-.2959022.0404425-.4483469.0701666-.1797807.0357697-.2992715.2124245-.2705395.3998412.1025081.6629808.6413215.9429787,1.072795,1.1686675.5580005.2905426.6549126.3802551.5134393.7519042-.2440822.6443313-.9085614.8228584-1.6111095,1.0115651-.201212.0538891-.3991034.107396-.5868641.170751-.1791072.0606197-.3609652.1169184-.5428233.173217-1.439637.4463176-3.2332297,1.0023697-2.6371701,3.6908477.0279872.1237344.1171187.223618.2348884.2616539.1784155.0577207.3490788.0780731.5051473.0601057.4482818-.0516084.688942-.3906185.8652452-.6375819.0519149-.0738027.102723-.147478.1595028-.2085075.4577935-.4961813.8081436-.760863,1.040586-.7876229.2811446-.0323668.5852512.4271154.9311059,1.4046894.2635515.7447305.4253077,1.5301657.598037,2.361294.4109677,1.9909466.8366341,4.0497663,2.7279771,5.4540533.0711815.052095.1556759.0742517.2397979.0645671.0265648-.0030583.052794-.0089764.0785531-.0188985.5812239-.2187973.8693184-.8131231,1.1241805-1.3369565.2610658-.5378809.4400771-.8668951.7245424-.8996441.1073663-.0123605.2395577.0147397.3942264.0804117,1.3824919.5863474,1.4494568,1.978637,1.5215288,3.4526573.0171121.3655659.034861.7270005.0728672,1.0698712.0170895.1551339.1306759.2817673.2798733.310388.0884519.0176431.166305.0405642.2336592.0600565.1324275.0386673.2578781.0752393.3918092.0598205.0354198-.0040777.1191043-.0270452.1509675-.0423076.3415401-.1581603.6806242-.3850232,1.0070973-.6046373.4991344-.3351437,1.0149715-.680906,1.4798563-.7344259.2944271-.0338959.5500589.0508773.8041953.2662574.5492983.4648776.3909921.8842617-.128574,1.8003079-.2639918.4651743-.5373737.9459224-.589341,1.4684264-.0335048.3453062-.0396288.7900689-.0467883,1.2737913-.0161297,1.2864936-.0403059,3.2307246-.8219789,3.423903-.787073.1949595-1.4088965.9088652-1.6625332,1.9113976-.2871642,1.1374067-.0234657,2.3134243.6737422,2.996636,2.3841732,2.3342159,3.5310695,3.5702944,4.0768663,4.2251402Z" fill="#ccc"/>
    </g>
  </g>
</svg>