<?xml version="1.0" encoding="UTF-8"?>
<svg xmlns="http://www.w3.org/2000/svg" version="1.1" viewBox="0 0 1080 1080">
  <!-- Generator: Adobe Illustrator 28.7.3, SVG Export Plug-In . SVG Version: 1.2.0 Build 164)  -->
  <g>
    <g id="sweet">
      <path d="M162.6967163,605.484375c-.9075928.875-2.078125,1.3105469-3.2460327,1.3105469-1.2260132,0-2.4494019-.4785156-3.3674927-1.4306641-1.7531738-1.8173828-5.2539673-6.3017578-10.7236938-52.9492188-2.6216431-22.3554688-4.024231-43.2587891-4.0431519-43.4765625-.2199097-2.5742188-2.7404175-6.3496094-.1670532-6.5693359,2.5759888-.2158203,8.7926025,2.2607422,9.0131226,4.8339844,3.4542236,40.3701172,6.5147705,90.5224609,9.9813843,96.0136719,1.6572876,1.8662109,4.3655396.5195312,2.5529175,2.2675781ZM219.3206177,495.96875c-9.5725098-5.984375-22.8028564-9.0449219-37.2428589-8.6103516-17.3383179.5166016-29.0698853,13.0585938-29.5605469,13.5908203-1.7486572,1.9013672-.5461426,5.6552734,1.3545532,7.4052734,1.9013062,1.7470703,3.1377563-.8974609,4.8857422-2.7978516.0939331-.1015625,10.1552124-8.4472656,23.5994873-8.8496094,17.0231934-.4931641,27.3597412,4.2900391,32.0054321,7.1933594,3.2178345,2.0107422,13.7781982,12.734375,16.9793701,37.8457031-.9915161-.125-2.1409302-.1933594-3.5072021-.1787109-2.5949097.0380859-15.6187744,4.4375-28.7592163,8.3066406-.8901978-6.0478516-1.986145-11.8320312-3.1188354-17.0644531,10.0061646-2.7519531,22.3978271-6.3476562,24.3949585-6.5830078,3.4526978-.4072266,4.5892944.6914062,6.015564-.7373047,1.8256836-1.8271484.5307617-1.5712891-1.296814-3.3964844-1.2925415-1.2919922-3.2252197-2.8935547-9.4570312-2.8242188-2.7765503.0400391-10.3970947,1.7783203-21.7470093,4.5703125-2.2324219-8.9316406-4.1687622-14.8740234-4.3861084-15.3974609-.9904175-2.3837891-6.7472534-4.2822266-9.1333618-3.2890625-2.385498.9902344-.4959106,4.4921875.4945679,6.8779297.048645.1162109,1.5559692,5.8212891,3.454834,14.1855469-6.6608887,1.6777344-14.09198,3.6845703-16.3099976,3.6582031-1.3381958-.0380859-3.9677734-.4365234-4.0785522-.4677734-3.2709351-.9248047-4.1289673,1.3671875-5.512207,3.5205078-1.3963013,2.1738281-.7666626,5.0664062,1.4060669,6.4628906.5552979.3564453,8.4074097.1582031,8.4074097.1582031,2.2073364.0537109,5.2230835-.9658203,18.0775757-4.1884766,1.119812,5.3828125,2.2489014,11.2763672,3.2164307,17.2011719-.9063721.2392578-1.8025513.4707031-2.6798706.6894531-6.9155884,1.7236328-15.0507202,3.9560547-17.3892212,3.9287109-1.3381958-.0380859-3.9677734-.4365234-4.0785522-.4677734-3.2709351-.9238281-4.1289673,1.3671875-5.512207,3.5205078-1.3963013,2.1738281-.9754639,5.7822266,1.1973267,7.1777344.5552368.3564453,8.4074097.1582031,8.4074097.1582031,2.2827759.0556641,5.637146-1.7509766,19.6380615-5.2412109.526062-.1318359,1.1287842-.2939453,1.77948-.4746094.2619019,2.0419922.4956665,4.0605469.6871338,6.0283203,2.1047363,21.6318359,3.1484985,39.6201172,3.7134399,46.6416016.022583.28125.045105.5449219.0674438.7919922.0264282.2851562.0527954.3251953.0789795.7998047.0262451.9804688.0524292.8007812.0784912.6494141.026123-.0058594.0522461.1425781.0783081.4960938.026123-.3251953.0522461.3427734.0784302.3369141.0130615-.9091797.0261841-.0976562.0393066-.6230469.0131836-.1445312.0263062-.1376953.0394897.7978516,0,.1484375.0372314.5517578.0931396.5458984.0558472-.3037109.1303711.6435547.204895.1318359.0744629-.8369141.1489868-.4257812.204834-.1171875.0559082.1396484.0931396.296875.0931396.7949219.0206299,1.7158203.0655518.6259766.1235962.25.0579834.375.1291504-.5517578.2022705-.9179688.0731201.2529297.1481934.0205078.2139893-1.0224609.0658569.4570312.1224365-.0966797.1586304-.1865234.0444336.8339844.0803833-1.5048828.1290283-.1220703.024353-.9921875.0518799.0488281.085144-.3378906.0333252.3447266.0723877.6738281.1199341,1.5175781.0178223.7519531.1780396-1.7167969.4109497-.1875.2328491.3232422.5383911.8564453.8468018.4990234.3084106-.9833984.6196899-.1347656.8640137-.1953125.2443848-.0419922.421875-.2167969.4626465.0947266.0288696-.6542969.1096802-1.2255859.2146606-.2578125.1050415.3564453.2342529-1.3730469.3598633-.140625.1255493-.7460938.2475586-.5585938.3381958-.8115234.0905762-.8955078.1497803.2167969.1497803.3671875,0,1.4375.0565186-.9169922.1379395.5048828.0407104,2.0673828.0877075-.7255859.1369019.8603516.0492554.6972656.100769.8955078.1505737.1181641.0222778-.8144531.0444946-1.2480469.0666504-.6337891.0221558-.9541016.0442505,1.0390625.0662231.3203125.0440063-1.2216797.0876465-.2138672.1308594-.4560547.0216064.1914062.0430908.3974609.0644531.0576172.0213623-1.3007812.0426025-.0566406.0637207-.6513672.0421753.3876953.0838013-.8251953.1248169-.7304688.0409546.0751953.0812378-.9804688.1207886-.8613281.0394897-.2822266.0782471-.1894531.1160889-.9902344.0378418-.5898438.0747681-.7236328.1107788-1.1162109.7550049-8.2402344-.2452393-25.71875-1.3996582-46.7314453-.1536865-2.796875-.3832397-5.5976562-.6694946-8.3769531,12.0809937-3.8789062,28.1928101-9.4619141,31.7799683-10.3427734.8174438,12.5273438-.135498,28.1035156-4.2290649,47.2646484-.4489136,2.1005859-1.0166626,3.8486328-3.4386597,5.2685547-2.2286377,1.3056641-6.34729,3.0478516-6.34729,3.0478516,1.2109985,2.1298828,3.3099976,2.5683594,5.696167,2.5683594.1461182,0,.2942505-.0068359.4423218-.0214844,4.4022827-.4130859,11.2207642-1.5400391,12.7952271-8.9091797,14.069397-65.8554688-7.6026001-95.6474609-17.6005249-101.8955078ZM686.7835693,531.7539062c.626709.3632812,10.010376,5.4082031,21.7891235,7.8886719.2769165.0585938,9.7918701,2.3193359,10.1872559.4423828.4537354-2.1542969-1.3305054-3.9628906-3.4847412-4.4169922-10.5181274-2.2138672-23.5282593-11.3681641-23.6711426-11.4501953-1.9034424-1.1035156-4.8805542-3.5966797-5.9860229-1.6933594-1.1043701,1.9033203-.737915,8.1240234,1.1655273,9.2294922ZM692.0484619,565.1933594c5.4456177-.7695312,6.7373657-2.0039062,12.2891846-1.6708984l4.7243652.8183594c2.3826294.4863281,6.201355,1.6728516,6.9842529-.4267578.782959-2.1005859-4.8397217-4.484375-9.0275879-6.0390625-5.1596069-1.9140625-12.2126465-1.1210938-16.0856934-.5751953-2.1792603.3076172-4.9107056.6259766-4.6031494,2.8056641.3080444,2.1796875,3.5393677,5.3955078,5.7186279,5.0878906ZM722.060791,575.8359375c-1.1314087-.6542969-6.4100952,6.6572266-7.9006958,8.8964844-7.7201538,11.6005859-21.7757568,25.4248047-21.9542847,25.6162109-1.5008545,1.6103516-4.3540649,3.7744141-2.7442017,5.2753906.7684937.7158203,4.6854858,1.4287109,5.6591187,1.4287109,1.0665894,0,2.1308594-.4257812,2.9160767-1.2675781.7601318-.8154297,15.9470215-19.1826172,22.6004028-32.7607422.968689-1.9755859,3.0250244-6.2636719,1.423584-7.1884766ZM775.8707275,577.8046875c-5.2606812,0-9.3936768-1.2275391-12.2506714-2.4599609,4.3029785,49.4384766-3.6574097,53.2685547-3.6574097,53.2685547-.6923218.4794922-1.8293457,1.0322266-2.9182739,1.3173828-.8015747.2089844-2.3657837-.0439453-2.9182739-.5693359-1.5945435-1.5185547,2.4556274-.8183594,3.8791504-6.3349609s-.0800781-21.4482422-2.3588257-47.3701172c-.2003784-2.2783203-.5988159-5.3076172-1.1386719-8.8476562-5.5849609,12.1005859-13.4779663,26.4042969-15.0264282,28.2216797-.7885132.9248047-2.5567627,2.1582031-3.6833496,2.1582031-.9147339,0-1.7405396.0732422-2.4912109-.5664062-1.6359863-1.3945312-.1343994-3.6669922,1.1862793-5.3408203,1.0074463-1.5185547,5.5864258-11.9980469,10.3267212-22.4521484-3.2370605-.3320312-5.8932495-3.2285156-8.8666382-7.4755859-2.0385742-2.9121094-4.0960693-12.7285156-5.1414795-18.3212891-.4042358-2.1630859,1.0220947-4.2451172,3.18573-4.6503906,1.850647-.3427734,3.6374512.65625,4.3687744,2.3076172,1.9376831-1.6855469,4.4562378-3.4824219,7.3649292-4.6347656l.4154053-.1650391c.7526245-.2998047,1.6323853-.6464844,2.6159058-1.015625-.9701538-4.96875-1.9509888-9.8798828-2.8792114-14.4638672-4.7115479,2.1875-10.1011963,4.6308594-10.1686401,4.6611328-.5338135.2421875-1.0932007.3564453-1.6431885.3564453-1.5169678,0-2.9660645-.8710938-3.6328125-2.3417969-.9086304-2.0058594-.0194702-4.3662109,1.9851685-5.2753906.0760498-.0351562,6.8674927-3.1142578,11.8200073-5.4316406-2.0136719-9.7861328-3.4907837-16.6923828-3.5345459-16.9023438-.4498291-2.1542969-2.7861938-6.3525391.487915-7.2783203,2.12146-.5996094,8.1017456,2.4179688,8.5516357,4.5732422.1691895.8105469,1.4191284,7.3251953,3.1083374,16.4580078,4.6604004-1.2402344,10.1084595-2.0673828,12.5300293-.5263672,1.8572998,1.1826172,2.4050293,3.6455078,1.2233887,5.5029297-1.0337524,1.625-3.0455933,2.2490234-4.776123,1.5888672-1.2046509-.0722656-4.37146.4199219-7.5388794,1.2714844.8735352,4.796875,1.8047485,9.9794922,2.7298584,15.2412109,5.9089355-1.4521484,13.6724854-2.5576172,23.4647217-2.0410156,1.1026611.0595703,2.1314087.5722656,2.8414917,1.4179688.710144.8457031,1.0371094,1.9482422.9036255,3.0439453-.0706177.5810547-1.8189087,14.2900391-9.5549927,21.34375-.5550537.5058594-1.2148438.8203125-1.901001.9570312-.0949707.0546875-.1796265.1210938-.2804565.1679688l-10.5446167,4.9462891c.1817017,1.2246094.3518066,2.4033203.5107422,3.5351562.1474609.0585938.2971191.1064453.4399414.1845703,3.4243164,1.8544922,13.5353394,5.9863281,20.4395752,5.5234375,1.1528931-.0771484,5.0969238.5224609,5.2670898,1.6972656.2372437,1.6367188-6.1923828,4.3173828-12.7407227,4.7207031ZM758.3917236,540.171875c.8103027,4.7246094,1.5889893,9.3847656,2.2907104,13.7626953l8.4309082-3.9550781c.1914062-.0898438.3883057-.1484375.585022-.2060547,2.9275513-2.9453125,4.763916-7.8496094,5.7525635-11.6669922-7.0116577.0087891-12.6219482.9267578-17.0592041,2.0654297ZM740.5440674,549.8603516c-.03125.0410156-.0708008.0712891-.1033325.1103516.7985229,3.3193359,1.5825806,6.0410156,2.0717773,6.8544922,1.9273071,2.7519531,2.9505005,3.7148438,3.383667,4.0449219l7.0882568-3.3251953c-.8010254-4.609375-1.7212524-9.6162109-2.6905518-14.7216797-.4207153.1640625-.8264771.3242188-1.2002563.4736328l-.4242554.1679688c-4.592041,1.8203125-8.090271,6.3496094-8.1253052,6.3955078ZM786.7410278,523.0585938c1.1716309.9423828,2.7736816,1.1474609,4.1460571.5273438,6.0906982-2.7539062,17.6013794-7.0263672,22.5114746-6.7802734,1.7149048.0888672,4.3640747.2246094,5.7391968.4628906-.0544434,1.9765625-.8721313,7.5107422-1.6993408,10.4892578l-.9074097,3.7333984c-.1478271.46875-.0429688.4326172-.1469116.8359375-.1080322.4287109-.1131592.6474609-.0076904.640625.3188477-.4443359.3079834-.2109375.3600464-.1074219-.079895.5859375.2409058.3525391.5233154.1972656.0728149.0625.2943115-.1806641.4178467-.2226562-.151001.4150391-.1060791.4287109-.1156006.5537109.1549072-.2128906.182251-.1640625.4379272-.5830078.0986328.0078125-.0144653.4482422.314209-.0185547.2072754-.2167969.1686401.0683594-.0447998.7109375.1674805.0664062.1084595.5908203.3399048.5097656.3424683-.6035156.2029419-.2197266.387146-.5.256897-.4296875-.2978516.8046875.0802002.1259766-.3781738.8710938.104187-.0224609.2721558-.2724609-.0457153.1884766.0839844.0166016-.0013428.2841797.5182495-.7373047.4603271-.3037109.5266113-.1347656.085144.1298828-.0148315.6279297.4176025.0224609.2071533-.2851562.4949951-.7382812.421936-.4550781.0720215-.0136719.0895386.0800781.0577393.2714844.4215698-.6123047.0446777.3984375.4234009-.1572266-.0998535.4257812.4212036-.4384766.3695068-.1474609.3114624-.453125.3765259-.4199219.4490356-.421875-.0299683.2285156.2540283-.2050781.3983765-.3691406.0170288.0976562.3049316-.3769531.4384155-.5517578,2.9376221-3.8408203,4.428894-12.4912109,4.2362671-15.4345703-.4415283-6.7626953-5.8259888-7.0400391-13.2790527-7.4228516-5.2098389-.2832031-13.236145,2.3183594-19.0737915,4.5351562l4.7032471-15.7246094c.4626465-2.1513672-3.9692383-6.6542969-6.1212158-7.1171875-2.1553345-.4667969-2.3572388,2.4648438-2.8193359,4.6162109l-5.1491699,23.9638672c-.3164062,1.4707031.2229614,2.9951172,1.394043,3.9404297ZM915.0458984,612.8955078c-5.5992432-.0947266-11.2418823-1.6376953-12.0526733-1.7324219-27.5599365-7.3613281-91.6027222-40.1523438-99.0685425-43.9921875,4.0593262-18.2226562,3.9102783-32.1972656,3.8334351-33.1542969-.1757202-2.1953125-4.9256592-5.9775391-7.1177368-5.7988281-2.1942139.1757812-2.0001831,3.6914062-1.8239136,5.8857422.0289307.3583984,3.6606445,37.5292969-13.194458,68.2099609-1.0604248,1.9296875-2.1876221,3.9746094-.355896,5.1962891,1.423584.9492188,4.2335815-1.8115234,4.9586792-3.1318359,5.3845215-9.8007812,9.1185913-19.8916016,11.7172852-29.2705078,12.765686,6.515625,72.3278198,36.6435547,97.701355,42.484375,2.4052124.5546875,4.6908569.4287109,7.1459351.4287109,2.2431641,0,4.6984253-.3662109,7.4261475-1.0917969,1.9659424-.5224609,8.0797119-2.6171875,7.5684814-3.5117188-.5759888-1.0068359-1.1387939-.4267578-6.7380981-.5214844ZM863.1091309,500.8027344c.0285645.0175781,2.8660278,2.2695312,4.1720581,8.2734375,1.510437,6.9980469,7.4078369,27.828125,14.4398804,31.6152344.6672974.359375,1.3856812.5410156,2.1356812.5410156.2705078,0,1.3496094.0263672,1.6126099.0263672,1.5720215,0,2.2738647-.2695312,2.6841431-1.0302734.4974976-.9248047.503479-1.1816406.5170288-1.1816406-.0841675-.1113281-.5305176-.3300781-.8897095-.5048828-.4163208-.203125-.9137573-.4462891-1.4833984-.7841797l-.078125-.0458984-.067627-.0615234c-2.8074341-2.5800781-8.0360107-21.2246094-10.0499268-30.4951172-2.3009644-10.5761719-4.8844604-12.3994141-4.911499-12.4169922-1.0895996-.7255859-3.9901733-1.2734375-6.7435303-1.2734375-3.2462769,0-4.8603516.6943359-5.2571411,1.2880859-1.2518921,1.8779297,1.8816528,4.6904297,3.9195557,6.0498047ZM936.4328003,531.4013672l-.2359619-.0087891-.0496216-.1552734-1.3526001.2587891.4223022-.6054688-.5320435.0195312.3111572-.2773438-1.487915.3642578.2329712-.4189453-.0285645-.1630859-.4749146-.0693359-.0075073-.0595703c-.0135498,0-.7439575-.0351562-.7439575-.0351562l-.0931396-.2177734-.3832397.0068359-.3997803-.0029297c-.1352539,0-.2675171.0048828-.5380859.0371094-.234436.0058594-1.039978.1923828-1.6201172.3955078-.0809937.0273438-.1525269.0507812-.2266235.0761719,13.6013794-19.0888672,11.8842773-42.2333984,7.953064-48.1289062-3.3860474-5.0791016-8.7213745-7.1503906-18.4120483-7.1503906-2.8164673,0-6.1018066.1640625-10.3399658.5175781-18.8795166,1.5722656-30.3737183,12.8876953-30.4833984,13.0009766-.4418945.4550781-.9693604.9296875-1.5074463,1.4140625-1.2398682,1.1132812-2.7803345,2.4990234-2.7984009,3.4326172-.0029907.1484375.0300903.3808594.3426514.6845703,1.7524414,1.7021484,6.500061,4.828125,8.9979248,4.828125.4298096,0,.7409058-.0976562.9182739-.2841797,1.7478638-2.1445312,11.1815796-12.9052734,25.2803345-14.0791016,3.7196655-.3095703,6.9373779-.4677734,9.5674438-.4677734,8.1307373,0,9.8259888,1.4853516,10.9141235,3.1142578l.0089722-.0048828-.0075073.0048828c.0015259.0039062.0045166.0078125.0075073.0117188,1.9282227,3.9853516,4.274292,28.5488281-14.6051636,45.5078125-.2548218.2285156-.4710693.4873047-.6643066.7597656-3.9736938.6708984-7.9988403,1.2871094-11.2973022,1.7929688-2.2077637.3378906-4.0999146.6279297-5.4465332.8525391-2.4542236.4082031-4.117981,2.7382812-3.7091675,5.1933594.3637085,2.1875,2.2333374,3.7744141,4.4455566,3.7744141.2479858,0,.4974976-.0224609.75-.0634766,1.1827393-.1962891,23.585022-4.6289062,31.9577026-7.5410156.4598999-.1591797,1.0700684-.4091797,1.4036865-.6103516.1818848-.0917969.3291626-.1816406.4884644-.2822266.1893921-.1669922.4403687-.2832031.6657715-.3857422.1397705-.0644531.2855835-.1269531.3622437-.1738281l.1397705-.1328125s.5755615-.2382812.6627808-.2734375c-.0586548-.4892578.24646-.7587891.6792603-.9882812.0526123-.1708984.1698608-.359375.3997803-.5458984.1472778-.1835938.3396606-.3134766.4584351-.3896484.0014648-.0009766.0014648-.0029297.0029907-.0029297h-.0390625l.1066895-.1953125-.0120239-.046875c-.0541382-.2138672-.0330811-.3925781.0300293-.5429688l-.1367188-.5810547c-.0721436-.3027344.0014648-.5410156.1442261-.7333984-.0450439-.1591797-.0480957-.3017578-.0209961-.4296875ZM671.4161987,594.765625c.402771.2548828.5325317.640625-.1928711.9882812-1.4214478.3476562-.5459595.65625-1.1866455.7568359-2.7724609.1816406-.8948975.3242188-1.2521362.4326172-1.9237061.1083984,1.050293.1816406-1.3471069.2246094,1.2752075.0419922.9876709.0537109-1.3214111.0371094.637207.7587891-1.1275635,1.2910156.019104,1.6787109.3716431.3886719.81073.6328125-1.1876221.8173828.9036255.1845703-2.0712891.3095703-1.6149902.4580078.2113037.1240234.0776367.2958984-.7922363.5087891.3170776.2128906,1.0529175.4667969-.6596069.7548828-.1893311.3691406-.9234619.6728516-1.5358887.9267578.4379272.2548828-1.5881958.4609375-1.8024902.6357422-.1417847.1748047-.4625854.3183594-1.8791504.4492188-.618042.1308594-1.2172241.2480469-1.7658691.3710938-2.8099365.6259766-5.6358032,1.0810547-8.4241943,1.8212891-3.7844238,1.0048828-7.7352905,1.4648438-11.4800415,2.5595703-1.586853.4638672-2.8154297,1.0351562-3.7897949,2.3857422-.6385498.8857422-1.0408936,1.9853516-1.8486938,2.7441406-1.0349731.9726562-2.2612915,1.0742188-3.6151123.8271484-.6807861-.1240234-1.5100708-.3066406-2.0751953-.7490234-.5195923-.4072266-.5822754-1.1699219-.999939-1.5175781-1.1139526-.9248047-3.2849731.203125-4.4594116.5917969-1.9055176.6308594-3.8685913,1.0185547-5.791687,1.5878906-4.4491577,1.3154297-8.776123,3.0712891-13.1196289,4.6914062-4.0415649,1.5087891-8.1660156,2.8154297-12.1104126,4.5712891-1.8980103.8457031-3.718811,2.0976562-5.6889038,2.7480469-1.8389893.6074219-3.1539917.0039062-4.8532104-.6992188-.4211426,1.3027344,1.0245972,2.6064453.6350708,3.9384766-.3421021,1.1689453-1.9738159,2.1298828-3.1499023,1.9316406-3.0418091-.5117188-5.2709961-5.1875-6.3967896-7.5791016-3.5149536-7.4667969-5.5953979-15.7050781-7.315979-23.7480469-3.5895996-16.7802734-4.9815063-34.3613281-3.5789795-51.4726562.5371704-6.5527344,1.142334-13.7314453,3.9116211-19.8085938,1.4050903-3.0839844,3.4013062-4.5732422,6.6864624-2.9736328.7973633.3876953,1.5998535,1.7314453,2.4271851,1.8583984.8209229.1269531,1.7217407-.9316406,2.2822266-1.3857422,1.7511597-1.4169922,5.5617676-2.2744141,6.081665-4.6621094.2775269-1.2734375-.1401978-2.8974609-.1329346-4.2070312.0097046-1.7548828-.012146-3.5107422.0039673-5.265625.02771-3.0175781-.2324219-6.6923828.9031982-9.5478516,1.2601318-3.1679688,4.0023193-2.1445312,6.2507935-.4023438,2.2971802,1.7802734,2.8867798,4.3388672,2.69104,7.1298828-.088501,1.2607422-1.2003174,6.1611328-.2208862,7.3066406,1.0794678,1.2626953,4.2172852-.9628906,5.3269653-1.5,2.6672974-1.2919922,5.4734497-2.4238281,8.3250122-3.2353516,1.5541382-.4423828,4.991272-.2060547,5.239502-2.0712891.2680054-2.0136719-1.5223389-4.859375-2.1608887-6.6494141-.9105835-2.5537109-.9124146-5.8574219,2.4644775-6.3818359,2.6696167-.4150391,5.2406616,1.3017578,6.6972046,3.3896484.9265137,1.328125,1.3934937,2.7822266,1.8027954,4.3291016.3504028,1.3242188.4121704,3.2880859,1.0397339,4.4785156.885498,1.6796875,4.5129395,1.0849609,6.1784058,1.4560547,6.3944702,1.4238281,11.7833862,5.5898438,15.609375,10.8066406,7.9596558,10.8535156,9.7091675,25.9091797,7.3395386,38.8955078-1.3513184,7.40625-3.0736084,14.6904297-5.1221313,21.9355469-1.0332642,3.6533203-1.8031006,7.3486328-3.0914917,10.9277344-.5159302,1.4326172-3.1531372,5.6943359-.8456421,6.0390625,2.7369385.4091797,6.0959473-1.2910156,8.7723999-1.6777344,2.1445312-.3105469,4.2874146-.7314453,6.4240112-1.171875.7121582-.1464844,1.423645-.2958984,2.1342163-.4433594.9541626-.1484375,1.4464111-.2949219,2.1289062-.4365234.9752808-.1201172,1.2029419-.2822266,1.8192139-.4511719-.0995483-.1679688,1.2919922-.3408203,1.8491211-.4814453.1147461-.140625-.1305542-.2480469,1.8366089-.2851562,1.2109985-.0146484.1062622.0205078.7079468.0537109-.2895508.0332031-.1638184.0654297.7191772.0449219-.3884888-.0195312.8294067-.0927734.8078003-.1748047-.6992798-.0820312-.7460938-.1728516.805603-.2275391-.8822021-.1445312.3276978-.2753906,1.8348999-.3105469,1.3363037-.0351562,2.4545288.0244141,1.8017578.2597656-.84552.0927734,1.3081665.2451172.6489868.3974609.178833.1513672-.8074341.3017578.704895.3896484.4135742.0986328.4558105.1054688.9578247.1318359.784668.0263672,3.0529785.0722656.9411621.2480469ZM628.7355347,591.8974609c-2.6713867-.1865234-5.7613525.4755859-8.4358521.7617188-2.84729.3046875-5.6814575.6992188-8.4985352,1.2167969-5.4332886.9980469-11.017395,2.2880859-16.2932129,3.9296875-4.819397,1.5-9.1164551,4.2832031-13.7834473,6.1601562-2.6972656,1.0849609-9.3817749,1.9599609-7.7583008-3.1074219-2.4897461-.1640625.6825562-3.9111328,1.4713135-4.5761719,2.3123779-1.9482422,5.7303467-3.1523438,8.4649048-4.3720703,3.1346436-1.3984375,6.352356-2.4160156,9.6422729-3.3740234,1.9680176-.5732422,6.1072388-.7304688,7.2398071-2.6728516.690979-1.1855469.5695801-3.2529297.7821045-4.6259766.2919312-1.8857422.6218872-3.765625.9137573-5.6523438.5530396-3.5742188.770874-7.1708984,1.2185669-10.7558594.8856812-7.0927734,2.4091187-14.0693359,2.664917-21.2324219.1123657-3.1464844.5261841-6.2626953.6772461-9.4111328.1220093-2.5439453.1046143-5.0869141.2383423-7.6269531.0723877-1.3759766.6915894-4.1015625-.1226196-5.3349609-.7383423-1.1181641-2.0936279-.3056641-3.1730957.1103516-4.4813843,1.7304688-9.0601807,3.3564453-13.3237915,5.5898438-2.8325806,1.4833984-3.1470947,1.9580078-2.878479,5.1123047.2486572,2.9199219.105896,5.921875.1784058,8.8525391.1623535,6.5644531.2202148,13.1767578.7423706,19.7236328.5160522,6.4707031,2.0415039,12.6796875,2.9833374,19.0751953.3129272,2.125,1.2467651,5.1738281-.2150879,7.0224609-1.3213501,1.6699219-2.8341675,1.6054688-3.9932251-.0117188-.5770264-.8046875-.8912964-1.8300781-1.6052246-2.5361328-.5015869-.4970703-1.4414062-.6787109-1.8143921-1.2802734-.5349731-.8623047-.413208-2.3623047-.770752-3.3554688-.4276733-1.1884766-.9119263-2.2958984-1.1759033-3.5410156-2.6015015-12.265625-2.7855835-24.8808594-3.2645264-37.3457031-.0219727-.5722656.2436523-3.875-.2841797-4.1289062-.6124878-.2949219-2.2089844,1.7587891-2.7213745,2.2529297-1.9135742,1.8457031-3.8237305,3.6259766-5.2648926,5.8828125-.7453613,1.1660156-1.3137817,2.5400391-2.2563477,3.5664062-.7036743.765625-1.6238403,1.1689453-2.0658569,2.1503906-.9605103,2.1318359-.5438843,5.6708984-.6413574,7.9316406-.1364136,3.1640625-.1851807,6.3330078-.1595459,9.5009766.053833,6.6591797.4492188,13.3144531,1.067688,19.9443359.5894165,6.3183594,1.6126709,12.4570312,3.2026978,18.6035156.8526001,3.2958984,1.7994995,6.5478516,2.9118042,9.7646484.9369507,2.7099609,1.552124,5.578125,2.8201904,8.1621094-.3317261-6.3115234,5.5213013-8.2167969,10.6531372-9.9697266,3.2393799-1.1074219,6.4660645-2.2519531,9.736084-3.2675781,3.5271606-1.0947266,7.2011108-1.8105469,10.6424561-3.1630859,2.3704834-.9335938,5.0012207-1.2089844,7.460083-1.8554688,2.6329956-.6914062,5.2739868-1.4404297,7.9439697-1.9765625,2.1118774-.4248047,3.7730713-.4775391,4.6989746-2.5878906.949707-2.1640625,1.9093018-5.2177734,2.1455688-7.5527344ZM635.4156494,567.5351562c1.2716675-6.0546875,1.5476074-12.0371094,1.2543945-18.2011719-.4422607-9.2949219-1.9908447-19.7705078-9.1551514-26.4707031-1.8578491-1.7373047-7.0105591-5.0957031-9.8509521-3.8515625-1.4612427.640625-.9779053,2.8789062-.9017334,4.1816406.1113892,1.90625.0566406,3.7998047-.0110474,5.7089844-.3962402,11.1757812-1.9174805,22.296875-3.6729736,33.328125-.8740845,5.4921875-1.5866089,11.0556641-2.2875366,16.5712891-.1488647,1.1708984-.2264404,2.3144531-.548584,3.4482422-.1520386.5351562-.75354,1.5048828-.4475098,2.0966797.5667114,1.0966797,3.7402954-.1064453,4.7994385-.2294922,3.0505981-.3544922,6.1112061-.6611328,9.1737671-.8916016,1.4361572-.1083984,2.9824829-.2900391,4.3590088.2451172.9274902.359375,1.7463379,1.2363281,2.7844238,1.2988281-.1057739-1.1630859.9332275-2.9746094,1.2676392-4.1044922.4572754-1.5458984.8890381-3.0966797,1.2738037-4.6621094.6906738-2.8095703,1.3683472-5.6367188,1.9630127-8.4677734ZM566.548645,500.5810547c5.0612793-2.6699219,10.9855957-4.1123047,16.5441895-5.2998047,6.4055176-1.3681641,12.8480835-2.7099609,19.3947754-3.1699219,2.7969971-.1962891,5.6054077-.2294922,8.4036255-.0361328,2.8131104.1943359,5.7825928.7949219,8.6026611.3769531,4.0426636-.5976562,4.2503662-4.6269531,1.2056885-6.6396484-2.5897217-1.7109375-6.098877-2.5185547-9.1685181-2.7011719-5.7802734-.3427734-11.489563-.0615234-17.2493286.4580078-2.8441162.2568359-5.607666.90625-8.4365234,1.2587891-3.1489258.3925781-6.2279053.6933594-9.3083496,1.5019531-5.3955078,1.4169922-10.9552002,2.9726562-16.1608887,5.0058594-3.0704346,1.1992188-7.6248169,3.5869141-5.694519,7.5927734.8827515,1.9707031,2.7631836,3.859375,4.9562378,4.2333984,2.557312.4345703,4.791626-1.4638672,6.9109497-2.5810547ZM537.7346191,581.265625c-.2515869.1435547-.4500732.0849609-.5953369-.1757812.4550781-.296875,1.5167847-1.1855469.8966064-1.8369141-.4726562-.4970703-1.2944946.0810547-1.8198853.2724609-2.303833.8369141-4.2160645,2.0244141-6.1422119,3.5361328-3.4914551,2.7412109-6.3770142,5.9892578-9.3312378,9.2783203-2.8988647,3.2265625-5.7993774,6.4667969-8.3737793,9.9638672-2.7476807,3.7314453-4.9051514,7.8251953-7.2285156,11.8232422-1.90802,3.2832031-4.145874,6.0791016-1.0698853,9.5878906,2.420166,2.7597656,6.7688599,3.5820312,9.2163086.3710938.9598999-1.2597656,1.3909912-2.8457031,1.9093628-4.3144531.7590942-2.1523438,1.7814941-4.1835938,2.8300171-6.2080078,2.1506958-4.1533203,4.4868164-8.2363281,7.1375122-12.0917969,2.8286133-4.1142578,6.0426025-7.8818359,9.1784668-11.7548828,1.4016113-1.7304688,2.0614014-3.7695312,3.3432007-5.5400391.4224243-.5839844,1.2976685-1.3613281,1.3110352-2.1240234.0148926-.8486328-.2946167-1.4609375-1.2616577-.7871094ZM507.5927734,510.4814453c3.402832-.765625,7.2906494-.9755859,10.633667.1445312,1.8321533.6142578,2.7993164,1.6669922,4.1264038,2.9775391.8647461.8544922,2.5083008,2.1396484,3.7954102,2.0371094,1.2680664-.1015625.6358032-.5332031,1.1135864-1.1455078.3899536-.4990234,1.0870361-.8212891,1.4005127-1.4521484.6664429-1.3427734-.0819092-3.2744141-.5892334-4.5458984-2.9125366-7.2998047-12.8109131-9.3769531-19.777832-8.9677734-2.265564.1328125-4.5026855.4931641-6.7504272.7880859-1.6426392.2158203-3.5441284.4150391-4.8458862,1.5576172-2.5001221,2.1953125-.8273315,5.8945312.7952271,8.0800781.8239746,1.1074219,3.0712891,1.6552734,4.3758545,1.8300781,1.9877319.2666016,3.8306274-.8779297,5.7227173-1.3037109ZM520.4819946,551.0683594c2.229187-.9746094,5.2488403-1.0488281,6.9215088-3.0166016,2.3837891-2.8056641-.4390869-6.0263672-3.2396851-6.9609375-6.0359497-2.0175781-12.440979.9208984-17.1237793,4.6328125-1.6491089,1.3076172-4.2200317,2.4882812-4.987854,4.5800781-.8050537,2.1933594.6480713,5.4335938,2.2792358,6.9550781,5.7109985,5.3271484,11.3832397-4.1083984,16.1505737-6.1904297ZM368.6514893,610.0800781c.7088623-.1142578,1.3760986-.1835938,1.9728394-.1835938,1.1489868,0,1.840332.2402344,2.0544434.7148438.2848511.6308594-.3283691,2.1386719-2.9945068,4.3125-2.2213135,1.8095703-5.0805664,3.4609375-6.9291382,4.2949219-18.8967285,8.5351562-27.5301514,12.3671875-28.6566162,12.7207031l-.0247803-.0009766c-.2525024,0-.4403687.0458984-.6056519.0957031-1.4771729.4384766-4.7503662.8974609-7.0144043,1.1679688.1500244.0917969.2915649.1748047.4188843.25.0563965.0341797.1134644.0664062.168335.0986328-.0488281.0839844-.1112061.1855469-.1893921.3066406-.710083,1.0986328-2.8141479,1.65625-6.2543335,1.65625-1.0888062,0-2.1491089-.3134766-3.065918-.9072266-1.9033813-1.2314453-4.7799683-3.09375-17.4020996-48.8291016l-.0953979-.3417969c-.4937134-1.7841797-1.1091919-4.0068359-1.1587524-5.7998047-.0646362-2.34375.8491211-2.5957031,1.2879639-2.7167969.2713013-.0742188.5951538-.1132812.9603882-.1132812,1.3043823,0,3.0249634.5146484,4.671814,1.3017578.3345947-.2070312.737793-.4873047,1.2556152-.8486328l.4508667-.3154297c3.8584595-2.6875,11.1259155-7.734375,19.9749756-11.5673828-.7485352-1.9736328-.6856079-3.9140625.1676636-6.7548828.0668945-.2900391,1.2692261-5.6845703,1.4285278-6.9921875.0455322-.8300781.6325684-12.6728516-1.0476074-27.4208984-.6928101.5478516-1.4019165,1.1074219-2.147583,1.6914062-14.9598999,11.7158203-30.817749,23.3789062-35.0010986,25.9804688-4.2178955,2.6220703-8.2103271,3.9521484-11.8654175,3.9521484-4.184082,0-6.6428223-1.7558594-7.2965698-2.2939453-.5020142-.4130859-1.0918579-.8623047-1.7163086-1.3378906-1.9455566-1.4824219-4.8724365-3.7128906-5.0460205-5.2089844-.0210571-.1855469-.0082397-.4189453.2509766-.7333984,1.2481689-1.5175781,7.5054932-2.2724609,11.3409424-2.3046875.1472778.0097656.5425415.0302734,1.0715332.0302734,2.0604858,0,4.9963989-.2978516,7.2823486-1.7197266l.7799683-.484375c19.2814331-11.9902344,32.4126587-19.8837891,41.3259277-25.0214844-1.1761475-7.2822266-2.9534302-14.9130859-5.631958-22.0527344-1.0418701-2.7792969-1.8723755-6.1992188-1.6276855-8.1464844-.5724487.0146484-1.140625.0361328-1.7200317.0361328-18.0446167,0-34.9019165-5.4492188-35.0612183-5.5039062-2.4625244-1.0449219-3.4484253-9.0986328-2.0093994-12.5009766.178833-.4208984.4411011-.6826172,1.2008057-.6826172,1.5592651,0,3.8910522,1.0996094,5.9484863,2.0693359.7334595.3476562,1.4202881.6708984,2.0402222.9316406.1149902.0478516,12.1780396,4.4121094,26.8170166,4.4121094,1.9891357,0,3.9481812-.0839844,5.8215332-.25,10.2828369-.9111328,18.1896362-1.3544922,24.1734619-1.3544922l.7687378.0039062c.9934082.0058594,1.9447021.0263672,2.8479614.0615234,0,0,1.3262939.0380859,1.7178345.0517578l-.0007324.015625.9310303.0888672c.4057617.1943359.9979248.2138672,2.1957397.2509766.402771.0371094.7063599.0703125.9295654.1005859.335144.2636719.810791.3466797,1.3999023.4179688l-.0075073.1162109s.7995605.1923828.8341064.2011719l.1939087.4394531-.4058228.0976562-.0916748.4658203c-.1517944.1035156-.3095703.2099609-.4606323.3388672-.93927.1787109-2.1468506.484375-2.4249268,1.5039062-.2539673.1533203-.4440918.3007812-.6079102.4277344-.0864258.0664062-.3306274.2441406-.3306274.2441406l-.0586548.0595703c-.1758423.1796875-.2893066.3369141-.3681641.4755859-.1555786.046875-.4703979.1220703-1.0761108.2109375l-.1096802.0166016-.1022339.0429688c-.8851929.3720703-1.6937256.7060547-2.5466309,1.0371094-7.21521,2.7978516-16.4957275,4.9375-25.09198,5.8232422,3.2603149,1.75,7.2045288,4.9824219,7.5072632,6.8837891.770874,4.8398438,1.7770996,11.6435547,2.8065796,18.9521484,6.5690918-3.5517578,8.9489136-4.4013672,9.6519165-4.2949219.9606934.40625-.0349731,2.4111328-8.8793335,9.84375,2.1453247,15.5947266,4.1624756,31.828125,4.1276855,35.5126953-.0335083,3.5019531-.2377319,6.1923828-.5209961,8.2519531.8775635-.1855469,1.7601318-.3535156,2.6491089-.4921875,5.124939-.8007812,9.3630981-1.1904297,12.9580688-1.1904297,8.3891602,0,12.0960693,2.2119141,14.852417,4.6025391,5.9484863,5.1533203,6.6176147,27.8730469-1.5918579,45.8027344ZM356.6270752,613.4833984c8.7871094-14.3232422,6.3294067-38.9541016,4.5703125-41.0966797l-.1165161-.1416016-.2314453-.1650391c-1.1068726-.5615234-2.5894775-1.0888672-5.8778076-1.0888672-2.690979,0-6.2197876.3466797-10.7893677,1.0585938-12.7070312,1.9863281-25.4238281,10.8496094-30.2113647,14.1865234-.7339478.5097656-1.2784424.8867188-1.7375488,1.1894531,1.3341064,5.5302734,2.3891602,11.0927734,3.4065552,16.5136719,1.4902344,7.9384766,2.8242188,15.0419922,4.7819824,20.6455078l36.2052002-11.1015625ZM479.7453003,588.2412109c.0342407.0087891.0693359.015625.1027222.0195312-.0094604.0439453-.0120239.0898438-.0077515.1376953-.0025635.0029297-.2156372.1757812-.2156372.1757812l.0120239.0996094c-.0881348.0498047-.4954834.2734375-.4954834.2734375l-.0966797.2324219c-.1437988.0771484-.8985596.4716797-.8985596.4716797l.0154419.1767578c-.0941772.0498047-.2011108.1054688-.3226318.1679688-1.4487305.78125-1.5574341.9091797-1.6652222,1.1230469l-.1146851.2275391.1009521.203125c-.0385132.0214844-.0787354.0439453-.1223755.0673828-.2524414.1601562-.3380127.2363281-.423584.3105469-.053894.0478516-.1069336.0947266-.236145.1777344l-.0539551.0654297c-.0804443.0625-.3114624.1953125-.5390625.3291016l-.4261475.2548828c-.4039307.2353516-.5237427.3349609-.6358643.4697266-.1651001.1132812-.4021606.2724609-.6477661.4345703l-1.4786987.9570312c-1.6789551,1.0859375-3.3039551,2.0605469-4.3462524,2.6064453-2.2822266,1.1933594-4.5687256,2.4394531-6.8552856,3.6865234-10.9165039,5.9511719-22.2036133,12.1044922-32.8087158,12.1044922h-.0068359c-13.8799438,0-24.9539185-6.3203125-33.8552246-19.3242188-12.5368652-18.3115234-13.3496704-63.8496094-12.0836182-96.5292969-13.8843384,5.0498047-20.53302,9.1474609-23.7811279,11.1943359l-.1863403.1171875c-.8326416.4804688-1.8087769.7431641-2.7946777.7431641-2.3527832,0-10.7307129-4.0546875-11.6414795-5.6337891-.1187134-.2050781-.1134644-.3457031-.0683594-.4931641.4688721-1.5585938,4.5883179-3.6132812,7.0493164-4.8417969.9806519-.4892578,1.8756714-.9365234,2.5594482-1.3300781.3369751-.1943359,8.7050781-4.0332031,29.3078003-9.3671875.7022095-13.0683594,1.616333-22.8369141,1.9144897-25.8466797.3842163-3.8867188,1.0414429-8.0341797,3.9860229-8.0341797.1154785,0,.2352905.0068359.3585205.0195312,1.6960449.1669922,3.9860229,1.5263672,5.8334961,3.4648438,1.9296875,2.0244141,2.9856567,4.2060547,2.8239136,5.8369141-.0139771.1435547-.8518066,8.6630859-1.5787354,21.3173828,12.7180176-2.9101562,28.6790161-6.0888672,48.4241943-9.2714844-.7583618-11.9462891-1.1224976-19.8828125-1.1311646-20.1884766-.2171631-7.5761719,1.1880493-10.3193359,2.5759888-10.3603516,3.0448608,0,8.6514893,6.9287109,8.7401123,10.0400391l.0007935.7617188c-.0001221,4.3886719.0249023,10.6552734.1230469,18.1416016,16.4174805-2.4794922,35.1763916-4.9326172,56.5529175-7.2333984,1.5789795-.1699219,3.1748657-.1972656,4.7739868-.2871094l.3757324-.0273438c1.0865479-.0791016,2.0995483-.1533203,4.4192505-.2216797l1.0001831-.0283203.0158081-.0361328.7018433-.0126953v-.0488281c.3606567-.0039062.7965088-.0058594,1.3135376-.0087891-.0029907,0,.6229248.0019531.9077148.0107422l1.3225708.0517578c.3171387.1181641.6733398.1416016,1.0738525.1689453.3463745.0849609.7161255.1640625,2.3167114.2529297.1141968.1601562.2780151.3085938.5079956.4335938.1307373.2412109.3283691.421875.5568237.5595703-.480957.2216797-.9017334.5566406-1.0205078,1.1083984-.2111206.1796875-.3381348.3847656-.4110107.5830078-.0796509.0185547-.1503296.0361328-.2089233.0537109l-.6732788.2011719.005249.0644531c-.4260864.0625-.7747192.1337891-1.0603027.3115234l-1.454834.2734375c-1.0497437.1269531-1.5148926.2324219-1.8102417.3486328-.4170532.0742188-.8551025.1386719-1.414978.1962891-.5951538.0654297-.8303223.1240234-1.0339966.1738281-.1818237.0429688-.3411255.0820312-1.4412842.1142578-.7281494.0429688-.8761597.0791016-.9595947.0976562.005249-.0019531-.0015259-.0029297-.0187988-.0029297-.1141968,0-.7003174.0302734-1.4141846.0664062-1.2662354.0644531-9.734314.9619141-10.3043823,1.03125-20.0526733,2.4501953-37.4356689,5.0419922-52.5289917,7.6767578.586792,34.2099609,2.7202759,87.5439453,10.1281738,110.6083984,1.6482544-.6279297,3.2642212-1.2421875,4.8832397-1.8476562.3508301-.1308594.7050781-.2392578,1.1124268-.3515625l1.4735718-.3916016c.1677246-.0263672.4868774-.1074219.8796997-.2207031.0650024-.0078125.3439941-.0996094.6289673-.1972656.1188965-.0400391.239563-.0830078.3431396-.1171875.0906982.0361328.1967773.0546875.3191528.0546875.1326294,0,.3166504-.0224609.5048828-.0458984.1266479-.0166016.2541504-.0341797.3619995-.0400391.9036255-.3310547,1.3708496-.4775391,1.7507935-.5849609h.0556641c.1035156,0,.2019043-.0234375.4672241-.1210938.0975342.0732422.2404175.1279297.4483643.1279297l.1917114-.0078125c.067627-.0263672.2284546.2558594.2883911.2333984.1600342-.0625.3602295-.1435547.5741577-.2314453l.064209.2158203.3825073.0039062c.1095581,0,.2122192-.0205078.6452026-.2021484l.003418.0087891c-.0059814.0039062-.3636475.2041016-.3636475.2041016l.0162354.4580078.0453491.1533203c-.545105.3925781-.5887451.5820312-.5159912.8554688l.0975342.3681641.4714966.0341797c.0684814,0,.1472168-.0087891.243042-.0263672ZM460.9279175,591.2177734c-8.9867554-14.2851562-14.2921753-74.6533203-16.6829834-110.1054688-20.9701538,3.9492188-36.9955444,7.9404297-49.2549438,11.6386719-.3220825,7.1523438-.5670166,15.125-.6140747,23.3916016-.0450439,7.9580078.1010132,15.0351562.3883057,21.3603516,6.8126221-3.1201172,18.1522217-6.7158203,35.689209-7.9902344.8866577-.0625,2.6773682-.1669922,4.682251-.1699219.8085938,0,1.2196045.0146484,2.2340698.0507812l.6988525.0244141c1.1399536.0195312,1.7824707.0380859,2.1453857.0517578.3306274.2333984.7980347.2753906,1.6712646.3271484.1885986.4355469.598877.71875,1.2255859.8466797l-.9039917.3378906,2.3475342.4287109-2.0650024.5908203,1.9515381.9863281c-.0067749.0439453-.0120239.0869141-.0150146.1298828-.1044922.0292969-.2028809.0595703-.2893066.0878906-2.1289062.1289062-3.2229614.2089844-3.5723877,1.0126953-.2930908.0263672-.6342773.0654297-.9476318.2197266-.2028809.0253906-.3268433.0488281-.4418335.0712891-.2554932.0449219-.5004883.0683594-1.331543.0947266-1.5570068.1123047-3.0847168.2626953-4.5756226.4492188-19.5125732,2.4394531-32.6643677,10.8339844-37.7105103,14.5917969,2.0142822,22.8310547,6.151062,32.5791016,8.9489746,36.6650391,6.4804688,9.46875,13.6489258,13.6923828,23.2424927,13.6923828,8.9626465,0,19.4949341-3.6025391,33.1793823-8.7841797Z" fill="#fff"/>
    </g>
  </g>
</svg>