<?xml version="1.0" encoding="UTF-8"?>
<svg xmlns="http://www.w3.org/2000/svg" version="1.1" viewBox="0 0 1080 1080">
  <!-- Generator: Adobe Illustrator 28.7.3, SVG Export Plug-In . SVG Version: 1.2.0 Build 164)  -->
  <g>
    <g id="xenophobia">
      <path d="M287.9770508,536.7126465h38.1801758v-18.6333008h-38.1801758v-12.3579102h38.1801758v-68.0842285h-172.3457031v68.0842285h36.6689453v12.3579102h-36.6689453v18.6333008h36.6689453v13.9606934h-50.4804688v18.8071289h39.6376953l-39.6376953,33.3273926h37.5966797l39.6376953-33.3273926h43.7836914l40.2197266,33.3273926h37.8710938l-40.2202148-33.3273926h40.2202148v-18.8071289h-51.1318359v-13.9606934ZM251.0991211,454.1271973h73.3510742v10.0214844h-73.3510742v-10.0214844ZM251.0991211,479.3835449h73.3510742v10.2145996h-73.3510742v-10.2145996ZM261.027832,550.6733398h-43.8071289v-13.9606934h43.8071289v13.9606934ZM261.027832,518.0793457h-43.8071289v-12.3579102h43.8071289v12.3579102ZM155.519043,454.1271973h70.3510742v10.0214844h-70.3510742v-10.0214844ZM155.519043,489.5981445v-10.2145996h70.3510742v10.2145996h-70.3510742ZM647.3481445,438.5380859h-67.2866211v22.9296875h-6.9951172v-29.7368164h-21.7612305v29.7368164h-26.4121094v13.2563477h26.4121094v54.5327148l-26.4121094,21.519043v21.439209l26.4121094-21.5192871v52.1191406l.0019531,14.5498047,21.7592773,17.7287598v-102.1279297l6.9951172-5.6992188v-21.439209l-6.9951172,5.6992188v-36.8022461h6.9951172v160.3693848l21.7612305-17.7302246v-119.3513184h45.5253906v-59.473877ZM645.4199219,482.7851562h-63.4833984v-8.0610352h63.4833984v8.0610352ZM645.4199219,461.4677734h-63.4833984v-7.5236816h63.4833984v7.5236816ZM647.2949219,501.2416992v7.3374023h-35.2441406v12.5510254h35.2441406v5.1940918h-34.2988281v39.4101562h18.9819336l-18.9819336,15.5546875v12.3632812l34.2988281-27.9179688v37.0805664h14.5419922v-37.0805664l45.503418,37.0805664h24.1147461v-164.2702637h-69.6181641v59.2792969h47.8564453v87.2580566h-8.7055664l-23.746582-19.3476562h20.3251953v-39.4101562h-35.7294922v-5.1940918h36.4443359v-12.5510254h-36.4443359v-7.3374023h-14.5419922ZM627.6801758,538.8752441l17.7397461,14.3083496h-17.7397461v-14.3083496ZM647.2949219,553.1835938l-17.7397461-14.3083496h17.7397461v14.3083496ZM663.7119141,453.7602539h65.8676758v7.5307617h-65.8676758v-7.5307617ZM663.7119141,482.6083984v-7.8781738h65.8676758v7.8781738h-65.8676758ZM682.6264648,538.8752441v14.3083496h-18.9145508l17.7392578-14.3083496h1.175293ZM679.5761719,538.8752441l-17.7392578,14.3083496v-14.3083496h17.7392578ZM884.4526367,431.5517578h-21.7612305v43.3520508h-46.890625v-12.0102539h38.6132812v-17.8996582h-38.6132812v-13.439209h-27.4785156v13.439209h-39.3286133v17.8996582h39.3286133v12.0102539h-49.7480469v19.3479004h46.3354492l-46.3354492,37.7524414v25.7937012l17.059082-13.8989258v56.9396973h24.3891602v-7.7043457h74.8769531v-17.0114746h-31.0541992v-8.6120605h26.7895508v-12.7053223h-26.7895508v-8.0712891h26.7895508v-12.8986816h-26.7895508v-7.5112305h31.0541992v-16.1230469h-31.0541992v-15.9494629h38.8461914v61.7155762l13.3798828,10.9016113-13.3798828,10.9013672v64.7719727l21.7612305-19.2883301v-37.4199219l7.4477539-6.0681152,29.2094727,23.7983398v-25.7939453l-13.3803711-10.9013672,13.3803711-10.9016113v-25.7937012l-29.2094727,23.7983398-7.4477539-6.0681152v-53.6520996h36.6572266v-19.3479004h-36.6572266v-43.3520508ZM821.9702148,576.1228027h-41.9477539v-8.6120605h41.9477539v8.6120605ZM821.9702148,554.8054199h-41.9477539v-8.0712891h41.9477539v8.0712891ZM821.9702148,533.8354492h-41.9477539v-7.5112305h41.9477539v7.5112305ZM821.9702148,510.2011719h-24.9775391v-15.9494629h24.9775391v15.9494629ZM908.3417969,462.9008789l-21.9785156-17.9069824h31.6582031l21.9785156,17.9069824h-31.6582031ZM455.6474609,572.2150879h54.9150391v-17.0180664h-54.9150391v-11.1066895h69.2456055v-18.0927734h-69.2456055v-19.9243164h63.1591797v-68.0725098h-167.2890625v68.0725098h42.331543l-47.4975586,38.6987305v24.7084961l31.1625977-25.3901367h50.9526367v11.1066895h-39.1064453v17.0180664h39.1064453v12.5395508h-63.328125l-21.0175781,18.8095703h178.2529297l23.0859375-18.8095703h-89.8125v-12.5395508ZM353.2246094,454.4814453h163.875v9.6733398h-163.875v-9.6733398ZM353.2246094,489.4133301v-9.8525391h163.875v9.8525391h-163.875ZM399.7207031,525.9975586l24.4541016-19.9243164h28.7456055l-24.4536133,19.9243164h-28.7460938ZM632.0839844,617.34375l-9.2998047,12.3994141,9.2998047,12.3994141h-8.4541016l-5.0732422-6.7978516-5.0722656,6.7978516h-8.4541016l9.2998047-12.3994141-9.2998047-12.3994141h8.4541016l5.0722656,6.7988281,5.0732422-6.7988281h8.4541016ZM633.2109375,617.34375h24.7998047v6.7636719h-24.7998047v-6.7636719ZM633.2109375,626.3613281h24.7998047v6.7636719h-24.7998047v-6.7636719ZM633.2109375,635.3798828h24.7998047v6.7626953h-24.7998047v-6.7626953ZM678.3007812,617.34375h6.7636719v29.5195312l-6.4472656-6.4111328-11.5888672-11.625v13.3154297h-6.7636719v-29.4482422l6.4462891,6.4111328,11.5898438,11.6240234v-13.3857422ZM706.4804688,617.34375h-13.5263672c-3.7578125,0-5.6367188,1.8789062-5.6367188,5.6357422v13.5273438c0,3.7578125,1.8789062,5.6357422,5.6367188,5.6357422h13.5263672c3.7568359,0,5.6367188-1.8779297,5.6367188-5.6357422v-13.5273438c0-3.7568359-1.8798828-5.6357422-5.6367188-5.6357422ZM705.3535156,635.3798828h-11.2724609v-11.2724609h11.2724609v11.2724609ZM733.5341797,617.34375h-19.1630859v24.7988281h6.7636719v-9.0175781h12.3994141c3.7568359,0,5.6367188-1.8789062,5.6367188-5.6357422v-4.5097656c0-3.7568359-1.8798828-5.6357422-5.6367188-5.6357422ZM732.4072266,626.3613281h-11.2724609v-2.2539062h11.2724609v2.2539062ZM759.4609375,617.34375h6.7636719v24.7988281h-6.7636719v-9.0175781h-11.2724609v9.0175781h-6.7636719v-24.7988281h6.7636719v9.0175781h11.2724609v-9.0175781ZM787.6416016,617.34375h-13.5263672c-3.7578125,0-5.6367188,1.8789062-5.6367188,5.6357422v13.5273438c0,3.7578125,1.8789062,5.6357422,5.6367188,5.6357422h13.5263672c3.7568359,0,5.6367188-1.8779297,5.6367188-5.6357422v-13.5273438c0-3.7568359-1.8798828-5.6357422-5.6367188-5.6357422ZM786.5146484,635.3798828h-11.2724609v-11.2724609h11.2724609v11.2724609ZM814.6953125,617.34375h-19.1630859v24.7988281h19.1630859c3.7568359,0,5.6367188-1.8779297,5.6367188-5.6357422v-2.2548828c-.0478516-2.5830078-1.1748047-4.0859375-3.3818359-4.5087891,2.2539062-.4697266,3.3818359-1.9248047,3.3818359-4.3681641v-2.3955078c0-3.7568359-1.8798828-5.6357422-5.6367188-5.6357422ZM813.5683594,635.3798828h-11.2724609v-2.2548828h11.2724609v2.2548828ZM813.5683594,626.3613281h-11.2724609v-2.2539062h11.2724609v2.2539062ZM822.5859375,617.34375h6.7636719v24.1298828l-6.7636719,6.7636719v-30.8935547ZM850.7666016,617.34375h-13.5263672c-3.7578125,0-5.6367188,1.8789062-5.6367188,5.6357422v19.1630859h6.7636719v-9.0175781h11.2724609v9.0175781h6.7636719v-19.1630859c0-3.7568359-1.8798828-5.6357422-5.6367188-5.6357422ZM849.6396484,626.3613281h-11.2724609v-2.2539062h11.2724609v2.2539062Z" fill="#fff"/>
    </g>
  </g>
</svg>