<?xml version="1.0" encoding="UTF-8"?>
<svg xmlns="http://www.w3.org/2000/svg" version="1.1" viewBox="0 0 1080 1080">
  <!-- Generator: Adobe Illustrator 28.7.3, SVG Export Plug-In . SVG Version: 1.2.0 Build 164)  -->
  <g>
    <g id="ladysman">
      <g>
        <path d="M148.2900391,590.7177734c-1.1010742-1.3847656-2.2304688-2.5849609-3.3666992-3.5761719-.7529297-.6542969-1.5444336-1.2529297-2.3681641-1.7900391,15.0454102-6.4882812,26.9082031-14.8662109,35.2817383-24.9248047,8.1386719-9.7734375,13.1958008-21.0751953,15.0307617-33.5917969.15625-1.0654297-.1601562-2.1464844-.8666992-2.9599609-.7021484-.8085938-1.7207031-1.2734375-2.7910156-1.2734375h-.0185547c-3.097168.0166016-6.4082031.0556641-9.8803711.1181641-4.6367188.0859375-9.0444336.1904297-13.1020508.3105469-4.2001953.1240234-8.0478516.25-11.5385742.375-2.8095703.1005859-5.1743164.2167969-7.0522461.3476562v-6.6503906c1.8061523.1279297,4.2094727.2460938,7.1147461.3486328,3.5776367.1269531,7.5258789.2324219,11.7353516.3134766l.4448242.0078125c4.1386719.0791016,8.418457.1601562,12.8354492.2392578,3.5942383.0654297,7.0791016.1064453,10.355957.1201172h.0161133c2.0107422,0,3.6542969-1.6083984,3.6958008-3.6210938.0361328-1.7548828.0537109-3.71875.0537109-5.8642578v-18.4501953c0-1.8427734-.0185547-3.4013672-.0556641-4.6591797,1.3754883.4082031,2.5341797.671875,3.5117188.7988281.6542969.0888672,1.4228516.1357422,2.2636719.1357422.8188477,0,1.7333984-.0439453,2.7172852-.1308594.0371094-.0029297.0742188-.0068359.1113281-.0117188.1655273-.0195312.3505859-.0292969.5175781-.0292969.1533203,0,.2695312.0107422.3549805.0234375-.1308594.2998047-.6123047.6503906-.7792969.765625-.1162109.0800781-.2280273.1669922-.3349609.2597656-.8388672.7314453-1.4677734,1.7724609-1.9233398,3.1816406-.4501953,1.3974609-.6777344,2.9609375-.6777344,4.6523438.0693359,6.8251953-.1074219,13.2011719-.5249023,18.9882812-.0737305,1.0253906.2827148,2.0351562.9838867,2.7871094.6992188.75,1.6782227,1.1757812,2.7036133,1.1757812h.0078125c3.2568359-.0068359,6.800293-.0263672,10.6303711-.0605469,4.824707-.0400391,9.7182617-.1230469,14.5424805-.2470703,4.7421875-.125,9.0859375-.25,13.0351562-.3740234,3.2407227-.1025391,5.8779297-.2207031,7.8652344-.3515625v6.65625c-1.9975586-.1318359-4.5878906-.25-7.737793-.3525391-3.8696289-.1240234-8.1313477-.2490234-12.7856445-.3740234-4.5029297-.1201172-9.3515625-.2246094-14.4121094-.3105469-3.6386719-.0595703-7.0820312-.0986328-10.2822266-.1162109h-.019043c-1.1870117,0-2.3027344.5703125-2.9980469,1.5341797-.6987305.96875-.8867188,2.2148438-.5043945,3.3466797,1.7197266,5.0888672,3.9243164,10.09375,6.5537109,14.8730469,3.2226562,5.8603516,7.1289062,11.4228516,11.6108398,16.5322266,4.4814453,5.1103516,9.6572266,9.8828125,15.3833008,14.1855469,5.2070312,3.9169922,10.9941406,7.3769531,17.2250977,10.3007812-1.1938477.8671875-2.2587891,1.8291016-3.1811523,2.8730469-1.1025391,1.2412109-2.1430664,2.6621094-3.0991211,4.2314453-4.7329102-2.8974609-9.3364258-6.2421875-13.7011719-9.9560547-4.6640625-3.9658203-9.0654297-8.3886719-13.0820312-13.1445312-4.0151367-4.7490234-7.734375-9.9228516-11.0561523-15.3789062-2.081543-3.4160156-4.0112305-7.0039062-5.7368164-10.6660156-.6132812-1.3007812-1.9204102-2.1210938-3.3432617-2.1210938-.0839844,0-.168457.0029297-.2529297.0087891-1.5195312.1044922-2.8198242,1.1289062-3.2753906,2.5820312-1.3535156,4.3144531-2.9790039,8.3134766-4.831543,11.8857422-2.8032227,5.40625-6.2480469,10.3564453-10.2387695,14.7158203-4,4.3662109-8.6767578,8.4208984-13.8989258,12.0498047-5.0283203,3.4960938-10.6982422,6.9453125-16.8657227,10.2617188ZM340.2250977,595.4013672c-.1225586-1.5380859-.2338867-3.2890625-.3325195-5.2246094-.1201172-2.3447266-.21875-4.6855469-.2958984-6.9697266-.0454102-1.3457031.6450195-2.609375,1.8012695-3.2988281.109375-.0654297.2207031-.1240234.3344727-.1777344-.0283203-.0107422-.0571289-.0224609-.0854492-.0351562-1.3325195-.5722656-2.2070312-1.8710938-2.2368164-3.3212891l-.0185547-1.0087891c-.0415039-2.3339844-.0625-4.3349609-.0625-6.0039062v-29.3466797c0-1.9033203,1.4443359-3.4951172,3.3383789-3.6796875,3.4921875-.3398438,6.9868164-.6611328,10.4165039-.9570312,4.3203125-.375,8.8520508-.7685547,13.5839844-1.1845703,1.8500977-.1689453,3.5073242-.2548828,4.925293-.2548828.71875,0,1.3891602.0224609,1.9926758.0654297,1.7392578.125,3.1137695.3164062,4.0854492.5683594.0908203.0234375.1811523.0498047.2700195.0810547.550293.1884766,1.0180664.2832031,1.390625.2832031.3071289,0,.4614258-.0615234.5454102-.1123047-.0371094-.1240234-.1601562-.4257812-.5585938-.9423828-.9316406-1.1025391-1.7070312-2.1621094-2.2958984-3.1357422-.4663086-.7607422-.996582-1.6650391-1.6123047-2.75-6.9707031,1.3408203-14.2988281,2.4462891-21.7885742,3.2871094-7.737793.8691406-15.519043,1.5214844-23.128418,1.9375-6.3164062.3447266-12.5200195.5205078-18.4394531.5205078-1.2011719,0-2.3950195-.0078125-3.5776367-.0224609-6.0722656-.0703125-11.7265625-.3007812-16.8574219-.6845703.53125.8740234.9379883,1.6845703,1.2294922,2.4501953.3920898,1.0410156.6870117,2.2421875.8798828,3.5820312.519043.0058594,1.059082.0087891,1.6201172.0087891,2.9541016,0,6.5834961-.0878906,10.7885742-.2617188.0498047-.0019531.1000977-.0039062.1499023-.0039062.9550781,0,1.8637695.3779297,2.5454102,1.03125.644043-.7460938,1.5766602-1.2246094,2.6088867-1.2783203,5.5932617-.2890625,11.9770508-.6865234,18.9736328-1.1816406.0874023-.0058594.1743164-.0097656.2612305-.0097656.9321289,0,1.8334961.3525391,2.5200195.9921875.7504883.6992188,1.1767578,1.6796875,1.1767578,2.7050781v28.6660156c0,1.5859375-.0214844,3.5253906-.0625,5.8173828-.0410156,2.2910156-.1040039,4.6855469-.1855469,7.1865234-.0839844,2.4931641-.2109375,5.0009766-.3769531,7.4580078-.1318359,1.9267578-.2636719,3.671875-.3935547,5.2050781h6.8706055ZM296.25,575.0800781c2.6523438-3.3925781,5.1386719-6.7978516,7.3896484-10.1220703.5678711-.8388672,1.4555664-1.4072266,2.4545898-1.5732422.2021484-.0341797.4047852-.0507812.6064453-.0507812.7978516,0,1.5800781.2587891,2.2260742.7451172.6518555.4921875,1.2802734.9775391,1.8916016,1.4599609,1.2270508.9765625,2.4389648,1.9970703,3.6040039,3.0371094,1.1923828,1.0654297,2.4111328,2.2626953,3.6240234,3.5605469.9907227,1.0615234,2.1367188,2.3037109,3.4384766,3.7294922l3.8779297-4.5830078c-1.0610352-.8173828-2.0595703-1.5976562-2.9912109-2.3388672-1.222168-.9658203-2.5107422-1.9423828-3.8286133-2.9013672-1.3803711-1.0029297-2.8779297-2.0429688-4.4487305-3.0898438-1.0761719-.7158203-2.2519531-1.5048828-3.527832-2.3681641-1.6469727-1.1132812-2.1181641-3.3300781-1.0668945-5.0175781,1.4506836-2.328125,2.5175781-3.9345703,3.2573242-4.9072266.3754883-.4951172.7216797-.9072266,1.0288086-1.2246094.5224609-.5400391,1.1977539-.9082031,1.9350586-1.0546875.1274414-.0253906.2006836-.0595703.2163086-.0595703.0029297,0,.0039062.0009766.0029297.0029297.0004883,0,.0131836-.03125.0170898-.0927734.0058594-.1103516.0107422-.2050781-.4970703-.3447266-1.5024414-.4423828-2.7241211-.8935547-3.7197266-1.3730469-.5864258-.2783203-1.2578125-.6425781-1.9956055-1.0800781-.171875-.1025391-.3330078-.2167969-.4829102-.3417969-3.1328125,8.0400391-7.2431641,15.2236328-12.2299805,21.3701172-4.7788086,5.8867188-10.1606445,11.0654297-16.0185547,15.4179688,2.2636719.9667969,4.2924805,2.25,6.0600586,3.8349609,3.0952148-3.2314453,6.1787109-6.8046875,9.1767578-10.6347656ZM355.9296875,574.6289062c1.940918-2.7685547,3.7998047-5.59375,5.5253906-8.3974609.5527344-.8984375,1.4624023-1.5175781,2.5-1.7021484.2158203-.0380859.4326172-.0576172.6484375-.0576172.8227539,0,1.6289062.2753906,2.2856445.7919922.7041016.5537109,1.3984375,1.1015625,2.0874023,1.6474609,1.4194336,1.1289062,2.9140625,2.4521484,4.4492188,3.9404297,1.5322266,1.4931641,3.15625,3.1386719,4.828125,4.8925781,1.4892578,1.5634766,3.0952148,3.3681641,4.7841797,5.3759766l4.1601562-4.3378906c-1.8305664-1.6191406-3.5761719-3.1269531-5.2011719-4.4931641-1.8256836-1.5351562-3.5668945-2.9882812-5.2285156-4.3574219-1.6162109-1.3339844-3.2851562-2.6689453-4.9575195-3.9658203-1.1264648-.8720703-2.3579102-1.7949219-3.659668-2.7412109-1.4750977-1.0722656-1.9477539-3.0595703-1.1137695-4.6816406.2026367-.3935547.3994141-.7802734.5878906-1.1552734.4755859-.953125.918457-1.9189453,1.315918-2.8701172.0219727-.0517578.0449219-.1035156.0688477-.1542969.6962891-1.4707031,1.3378906-2.5976562,1.9560547-3.4345703.3623047-.4931641.6962891-.8779297,1.0219727-1.1767578.2954102-.2705078.6328125-.4912109.9990234-.6542969.6416016-.2841797.8486328-.5214844.8837891-.5419922-.0507812-.0449219-.2729492-.1699219-.7441406-.2480469-.0649414-.0107422-.1293945-.0224609-.1933594-.0371094-1.2055664-.265625-2.3623047-.6396484-3.4428711-1.1132812-.7192383-.3164062-1.4868164-.71875-2.2939453-1.2011719-1.074707,3.6386719-2.2900391,7.0449219-3.6191406,10.1435547-1.5131836,3.5351562-3.2612305,6.8818359-5.1938477,9.9453125-1.9375,3.0751953-4.1572266,6.0195312-6.5966797,8.7529297-1.8779297,2.1054688-3.9609375,4.2021484-6.1914062,6.234375-.28125.2558594-.5957031.4628906-.9301758.6191406.1679688.0664062.3325195.1474609.4916992.2402344.7290039.4257812,1.3994141.8798828,2.0029297,1.3554688.7641602.6083984,1.5292969,1.3828125,2.2841797,2.3115234,2.0976562-2.7792969,4.2749023-5.7773438,6.4853516-8.9296875ZM312.2734375,520.1621094c7.7451172-.1240234,15.8881836-.1865234,24.2036133-.1865234,8.3120117,0,16.1835938.0634766,23.3955078.1865234,5.2055664.0898438,10.3696289.2382812,15.3486328.4414062.340332.0136719.668457.0732422.9794922.1728516.2666016-.0615234.5429688-.09375.8251953-.09375.0546875,0,.1103516.0019531.1660156.0039062l2.1220703.0986328c-.1884766-1.6425781-.3642578-3.6162109-.5239258-5.8876953-.2089844-2.9453125-.3144531-5.8457031-.3144531-8.6201172,0-2.6904297.105957-5.5693359.3144531-8.5537109.1601562-2.3144531.3369141-4.3447266.527832-6.0585938-6.0664062.3710938-12.5771484.6367188-19.3764648.7910156-7.2553711.1640625-15.1499023.2480469-23.4643555.2480469-8.3164062,0-16.4619141-.0839844-24.2099609-.2480469-7.2900391-.1552734-14.0737305-.421875-20.1293945-.7929688.1743164,1.6523438.3115234,3.5458984.4086914,5.6494141.125,2.7099609.1879883,5.3076172.1879883,7.7197266,0,2.6601562-.0629883,5.5488281-.1875,8.5869141-.1044922,2.5283203-.2539062,4.9326172-.4458008,7.1669922,6.184082-.2988281,12.9628906-.5087891,20.1723633-.6240234ZM369.9477539,496.1640625c2.0415039,0,3.6967773,1.6552734,3.6967773,3.6972656v13.2080078c0,2.0419922-1.6552734,3.6972656-3.6967773,3.6972656h-15.0776367c-2.0415039,0-3.6967773-1.6552734-3.6967773-3.6972656v-13.2080078c0-2.0419922,1.6552734-3.6972656,3.6967773-3.6972656h15.0776367ZM343.1425781,496.1640625c2.0415039,0,3.6967773,1.6552734,3.6967773,3.6972656v13.2080078c0,2.0419922-1.6552734,3.6972656-3.6967773,3.6972656h-13.8305664c-2.0415039,0-3.6967773-1.6552734-3.6967773-3.6972656v-13.2080078c0-2.0419922,1.6552734-3.6972656,3.6967773-3.6972656h13.8305664ZM317.3374023,496.1640625c2.0415039,0,3.6967773,1.6552734,3.6967773,3.6972656v13.2080078c0,2.0419922-1.6552734,3.6972656-3.6967773,3.6972656h-16.074707c-2.0415039,0-3.6967773-1.6552734-3.6967773-3.6972656v-13.2080078c0-2.0419922,1.6552734-3.6972656,3.6967773-3.6972656h16.074707ZM439.0546875,595.7734375c-.3447266-3.1503906-.612793-6.4091797-.7973633-9.7050781-.2080078-3.6855469-.3134766-7-.3134766-9.8515625v-64.2353516c0-1.7060547,1.1669922-3.1904297,2.824707-3.5927734.2910156-.0703125.5834961-.1044922.8730469-.1044922,1.3583984,0,2.6396484.7519531,3.2841797,2.0019531.6318359,1.2236328,1.237793,2.4882812,1.8022461,3.7587891,1.1806641,2.6582031,2.2124023,5.4150391,3.0732422,8.2109375.2260742-.0429688.4550781-.0644531.6835938-.0644531.6914062,0,1.3798828.1943359,1.9819336.5761719,1.0678711.6787109,1.7148438,1.8554688,1.7148438,3.1210938v3.9873047c2.1303711-.1298828,4.0546875-.2304688,5.734375-.2998047,2.0380859-.0820312,4.3061523-.1660156,6.8056641-.2509766,2.5009766-.0810547,5.5117188-.1230469,8.9487305-.1230469h26.8051758c3.6923828,0,6.9960938.0419922,9.8208008.1240234,2.8261719.0839844,5.4248047.1669922,7.7973633.25,2.0063477.0712891,4.1152344.1728516,6.2402344.3027344v-4.4326172c-1.9960938.1289062-3.921875.2275391-5.737793.2949219-2.2055664.0839844-4.6181641.1679688-7.2373047.2509766-2.5869141.0830078-5.5566406.125-8.8266602.125h-9.1591797c-2.0415039,0-3.6967773-1.6552734-3.6967773-3.6972656v-4.2314453c0-2.0419922,1.6552734-3.6972656,3.6967773-3.6972656h4.7954102c2.0932617,0,4.0605469.0419922,5.8500977.125,1.7900391.0839844,3.4736328.1669922,5.0566406.25,1.234375.0654297,2.5483398.1308594,3.9140625.1953125v-4.4296875c-1.3793945.1074219-2.7011719.1787109-3.9414062.2109375-1.574707.0439453-3.2504883.1054688-5.0297852.1865234-1.7822266.0839844-3.7504883.1269531-5.8496094.1269531h-4.7954102c-2.0415039,0-3.6967773-1.6552734-3.6967773-3.6972656v-4.1025391c0-.9824219.3911133-1.9248047,1.0869141-2.6181641.6933594-.6914062,1.6318359-1.0791016,2.6098633-1.0791016h.012207c2.375.0078125,4.5678711.0283203,6.5463867.0585938,2.5771484.0410156,4.9077148.0820312,6.9892578.1230469,2.1147461.0449219,4.0629883.1298828,5.7900391.2529297,1.3691406.0976562,2.7871094.2089844,4.2675781.3339844v-4.7539062c-1.4741211.1230469-2.8950195.2324219-4.2675781.3310547-1.765625.1259766-3.7148438.2119141-5.7910156.2529297-2.0800781.0429688-4.4106445.0839844-6.987793.125-1.8999023.03125-4.0581055.0517578-6.5488281.0585938h-.0102539c-.9785156,0-1.9174805-.3886719-2.6103516-1.0791016-.6958008-.6943359-1.0864258-1.6357422-1.0864258-2.6181641v-1.6757812c0-2.5097656.6831055-4.4023438,2.0307617-5.6259766.0605469-.0556641.1230469-.1083984.1875-.1591797.0737305-.0595703.1381836-.1142578.1938477-.1660156-.1123047-.0097656-.2456055-.0166016-.402832-.0166016-1.8574219,0-3.5273438-.0654297-4.9599609-.1923828-.9853516-.0869141-2.0097656-.1826172-3.0766602-.2900391.0405273.3291016.0834961.6904297.1289062,1.0839844.1269531,1.0966797.2329102,2.2685547.3149414,3.4814453.0771484,1.1328125.1557617,2.2294922.2348633,3.2841797.0771484,1.0283203-.2783203,2.0410156-.9804688,2.7949219-.699707.7519531-1.6796875,1.1787109-2.7060547,1.1787109h-.0117188c-2.5253906-.0078125-4.722168-.0283203-6.6640625-.0585938-2.6616211-.0410156-5.0947266-.0820312-7.296875-.125-2.2060547-.0410156-4.2802734-.1259766-6.1630859-.2529297-1.4707031-.0986328-2.9536133-.2089844-4.4599609-.3320312v4.7558594c1.5073242-.125,3.015625-.2363281,4.5244141-.3359375,1.8808594-.1230469,3.9521484-.2070312,6.1606445-.2519531,2.1621094-.0410156,4.5952148-.0820312,7.2988281-.1230469,2.0737305-.0302734,4.3300781-.0507812,6.7319336-.0585938h.012207c.9780273,0,1.9169922.3876953,2.6098633,1.0791016.6958008.6933594,1.0869141,1.6357422,1.0869141,2.6181641v4.0585938c0,.9912109-.3984375,1.9414062-1.1054688,2.6367188-.6918945.6796875-1.6225586,1.0605469-2.5913086,1.0605469-.0214844,0-.0429688-.0009766-.0644531-.0009766-3.8842773-.0673828-7.2783203-.1367188-10.1811523-.2050781-3.1137695-.0722656-6.2314453-.1806641-9.2460938-.3203125v4.4736328c3.0439453-.1386719,6.1689453-.2460938,9.3076172-.3203125,2.9267578-.0673828,6.2998047-.1357422,10.1186523-.203125.0219727,0,.043457-.0009766.0654297-.0009766.9682617,0,1.8989258.3808594,2.5908203,1.0605469.7075195.6943359,1.105957,1.6445312,1.105957,2.6367188v4.1875c0,2.0419922-1.6552734,3.6972656-3.6967773,3.6972656h-8.847168c-3.0620117,0-5.762207-.0429688-8.0214844-.1259766-2.2875977-.0820312-4.4091797-.1669922-6.3632812-.25-.6601562-.0273438-1.3505859-.0605469-2.0698242-.0986328-1.2631836-.0664062-2.4052734-.7744141-3.0263672-1.8769531-.5283203-.9375-.6176758-2.0498047-.2646484-3.0478516-1.1000977-2.7910156-2.3476562-5.5654297-3.7104492-8.2529297-1.2749023-2.5146484-2.7270508-5.1318359-4.3237305-7.7929688l-2.7612305,1.4785156c-.5458984.2919922-1.1455078.4375-1.7446289.4375-.6582031,0-1.315918-.1757812-1.8999023-.5253906-1.1147461-.6679688-1.796875-1.8720703-1.796875-3.171875v-9.5771484c0-1.5703125.1347656-2.9941406.3989258-4.2236328.1235352-.5810547.28125-1.0898438.4692383-1.5117188.2802734-.6298828.730957-1.1679688,1.3007812-1.5546875.4921875-.3339844.7954102-.6162109.9692383-.8134766-.2412109-.0634766-.6572266-.1230469-1.3676758-.1230469-.1743164,0-.3579102.0029297-.6030273.0136719-.4179688.0302734-.8549805.0458984-1.3105469.0458984-1.6748047,0-3.6245117-.2070312-5.8125-.6152344.2890625,1.9199219.5185547,3.9130859.6835938,5.9462891.2094727,2.6152344.315918,5.6660156.315918,9.0683594v9.0058594c0,.9082031-.331543,1.7558594-.894043,2.4111328.5581055.6484375.894043,1.4921875.894043,2.4101562v62.7197266c0,2.8046875-.1054688,6.1191406-.3139648,9.8515625-.1865234,3.2978516-.4555664,6.5986328-.8007812,9.8291016h7.1816406ZM468.237793,595.0263672v-17.4970703c0-2.0419922,1.6552734-3.6972656,3.6967773-3.6972656h34.4018555c2.0415039,0,3.6967773,1.6552734,3.6967773,3.6972656v5.4208984c0,1.1835938-.1240234,2.1835938-.3691406,2.9716797-.2612305.8417969-.8144531,1.5615234-1.5595703,2.03125-.2583008.1630859-.5454102.3046875-.8657227.4267578-.9199219.3457031-2.1044922.5136719-3.621582.5136719-.1782227,0-.3618164-.0029297-.5483398-.0078125-1.1074219-.0283203-2.5146484-.1259766-4.203125-.2900391.5361328.8535156.9545898,1.6914062,1.2490234,2.5039062.4199219,1.1503906.6303711,2.4277344.6298828,3.8115234,3.1811523-.3125,5.6660156-.6943359,7.5673828-1.1611328,2.0454102-.5029297,3.6054688-1.1503906,4.6376953-1.9248047.9536133-.7148438,1.5498047-1.6074219,1.8217773-2.7207031.3100586-1.2851562.4677734-2.9365234.4677734-4.9091797v-32.1640625c0-2.1611328.0410156-4.4589844.1230469-6.8349609.0722656-2.0390625.171875-4.1425781.296875-6.2695312-3.8955078.2802734-7.8100586.4785156-11.65625.5908203-4.284668.1240234-9.3076172.1875-14.9287109.1875-5.6962891,0-10.8706055-.0839844-15.3764648-.25-3.9794922-.1435547-7.7963867-.3251953-11.3178711-.5380859.2148438,1.4628906.3710938,3.1005859.465332,4.8896484.1240234,2.3925781.1865234,5.1171875.1865234,8.0996094v28.4248047c0,2.7382812-.0839844,5.4052734-.25,7.9326172-.1435547,2.1259766-.378418,4.3964844-.699707,6.7626953h6.1557617ZM506.3364258,558.6240234c2.0415039,0,3.6967773,1.6552734,3.6967773,3.6972656v4.4804688c0,2.0419922-1.6552734,3.6972656-3.6967773,3.6972656h-34.4018555c-2.0415039,0-3.6967773-1.6552734-3.6967773-3.6972656v-4.4804688c0-2.0419922,1.6552734-3.6972656,3.6967773-3.6972656h34.4018555ZM506.3364258,542.9160156c2.0415039,0,3.6967773,1.6552734,3.6967773,3.6972656v4.9785156c0,2.0419922-1.6552734,3.6972656-3.6967773,3.6972656h-34.4018555c-2.0415039,0-3.6967773-1.6552734-3.6967773-3.6972656v-4.9785156c0-2.0419922,1.6552734-3.6972656,3.6967773-3.6972656h34.4018555ZM420.9057617,539.4648438c.5419922-2.2607422,1.0600586-4.5068359,1.5429688-6.6904297.5375977-2.4462891,1.0161133-4.8818359,1.4223633-7.2412109.4140625-2.3964844.7890625-4.8974609,1.1157227-7.4306641.2133789-1.6630859.425293-3.3886719.6323242-5.1582031.0888672-.7597656.402832-1.4404297.8686523-1.9824219-.0063477-.0068359-.0126953-.0146484-.019043-.0224609l-5.6889648-.9482422c.0004883,4.8164062-.4052734,9.5615234-1.2104492,14.1269531-.8154297,4.6054688-2.0883789,9.3876953-3.7885742,14.2353516l5.125,1.1113281ZM576.2680664,579.3574219c5.6928711-5.078125,10.7241211-10.3369141,14.953125-15.6318359,4.2158203-5.28125,7.71875-10.6269531,10.4111328-15.8876953,1.5351562-3.0019531,2.8525391-5.9960938,3.9165039-8.8994141.5136719-1.4013672,1.8193359-2.3564453,3.3105469-2.4208984.0541992-.0019531.1079102-.0039062.1616211-.0039062,1.4282227,0,2.7358398.8261719,3.3466797,2.1279297,2.0668945,4.4101562,4.5092773,8.8583984,7.2597656,13.2207031,4.0615234,6.4394531,9.0708008,12.9462891,14.9042969,19.3554688,2.2026367,2.4482422,4.3310547,4.7226562,6.3251953,6.7607422,1.9560547,1.9970703,3.9296875,3.8867188,5.8701172,5.6191406,1.8901367,1.6923828,3.8432617,3.3349609,5.8017578,4.8789062,1.6303711,1.2822266,3.3510742,2.5634766,5.1274414,3.8173828,1.5820312-2.4794922,3.3969727-4.4902344,5.4199219-6.0068359-1.3842773-.6171875-2.706543-1.2763672-3.949707-1.9707031-1.8193359-1.015625-3.7041016-2.2363281-5.6035156-3.6279297-1.8935547-1.3896484-3.9555664-3.0693359-6.1269531-4.9912109-2.168457-1.9160156-4.6982422-4.2763672-7.5195312-7.0175781-3.0830078-2.9980469-6.1762695-6.4072266-9.1943359-10.1337891-2.9975586-3.7060547-5.8530273-7.6621094-8.487793-11.7587891-2.6328125-4.0976562-5.0668945-8.4365234-7.2333984-12.8955078-2.0844727-4.2841797-3.8520508-8.6679688-5.2543945-13.0283203-.1591797-.4951172-.2119141-1.0175781-.1552734-1.5341797.2226562-2.03125.4331055-4.1474609.6254883-6.2949219.2070312-2.3291016.4140625-4.5585938.6235352-6.6796875.2080078-2.1289062.375-4.1318359.496582-5.9501953l.309082-4.6552734c.0849609-1.7236328.2128906-3.0566406.3911133-4.0693359.0776367-.4423828.1738281-.765625.2255859-.9296875.222168-.765625.6870117-1.4443359,1.3320312-1.9277344.2294922-.171875.4941406-.4169922.4321289-.6337891-.0361328-.0244141-.2280273-.0957031-.5620117-.0976562-.590332.0292969-1.1826172.0439453-1.777832.0439453-2.4296875,0-4.9282227-.2470703-7.4384766-.734375.3256836,2.8476562.5791016,5.34375.7543945,7.4375.2099609,2.5292969.2949219,5,.2539062,7.3466797-.0439453,2.3457031-.1708984,4.9052734-.3779297,7.609375-.2094727,2.7060547-.4814453,5.9697266-.8105469,9.7978516-.675293,7.7304688-2.465332,15.1005859-5.3208008,21.9082031-2.8554688,6.7988281-6.6416016,13.2021484-11.2539062,19.0302734-4.6074219,5.8232422-10.0859375,11.1748047-16.284668,15.90625-5.6274414,4.2949219-11.7734375,8.0986328-18.2954102,11.3232422,1.046875.6542969,1.9306641,1.3417969,2.6401367,2.0527344.8803711.8808594,1.6425781,1.9912109,2.2749023,3.3134766,6.8530273-4.3125,13.0649414-8.9404297,18.4794922-13.7685547Z" fill="#fff"/>
        <path d="M774.9990234,591.7851562c-5.9248047,0-11.1918945-.1044922-15.6557617-.3115234-4.3789062-.203125-8.1630859-.5146484-11.246582-.9257812-3.0410156-.4052734-5.7568359-.9394531-8.0708008-1.5869141-2.2949219-.6445312-4.3520508-1.3974609-6.1123047-2.2382812-1.7675781-.8427734-3.5615234-1.8818359-5.3349609-3.0917969-3.1962891-2.0732422-6.0253906-3.4707031-8.4824219-4.2021484-1.3603516-.4042969-2.7226562-.609375-4.050293-.609375-1.1782227,0-2.355957.1611328-3.4995117.4785156-2.3979492.6660156-4.8569336,2.1113281-7.3076172,4.2978516-2.1113281,1.8837891-4.5268555,4.4130859-7.1923828,7.53125-1.7070312-2.0947266-3.5014648-3.9570312-5.3549805-5.5576172,4.1557617-3.4179688,8.5966797-6.8144531,13.2177734-10.1074219,5.0283203-3.5888672,9.7104492-6.7880859,13.918457-9.5087891,4.7299805-2.9873047,9.8657227-6.6425781,15.2314453-10.84375,5.3569336-4.1933594,10.5385742-8.5742188,15.3994141-13.0224609,4.8540039-4.4375,9.2993164-8.7763672,13.2109375-12.8974609,2.2148438-2.3339844,4.125-4.5058594,5.6782227-6.4550781.8847656-1.1103516,1.0551758-2.6298828.4389648-3.9082031-.6166992-1.2792969-1.9106445-2.0927734-3.3305664-2.0927734h-37.2719727c-8.2915039,0-15.3969727.1269531-21.1181641.3759766-4.8969727.2128906-8.7231445.4912109-11.4047852.8261719v-5.9052734c1.1645508.1054688,2.5639648.1875,4.1816406.2470703,2.2475586.0839844,5.1606445.1679688,8.7431641.2509766,3.5898438.0810547,8.0229492.1220703,13.1777344.1220703,0,0,20.4858398,0,21.3833008-.0019531,1.3139648-.0029297,2.527832-.7041016,3.1879883-1.8398438.0449219-.0771484.0869141-.15625.1259766-.2363281.6157227,1.2402344,1.8896484,2.0517578,3.3105469,2.0517578h.0224609c3.3813477-.0214844,6.4780273-.0527344,9.2636719-.0957031,5.1303711-.0820312,9.5830078-.1865234,13.2358398-.3134766,3.6289062-.125,6.5878906-.2949219,8.7954102-.5039062,1.5576172-.1464844,2.9150391-.3056641,4.0541992-.4755859v6.2685547c-1.8369141.3320312-3.8994141,1.1318359-6.2670898,2.4267578-2.7802734,1.5195312-5.5795898,4.0273438-8.3198242,7.4550781-6.2363281,7.7128906-13.7197266,15.3203125-22.2294922,22.5966797-7.6601562,6.5488281-16.3916016,13.2783203-25.9516602,20-1.0444336.734375-1.6357422,1.9560547-1.5644531,3.2304688.0708008,1.2744141.7949219,2.4228516,1.9145508,3.0361328,3.0869141,1.6914062,6.215332,3.2470703,9.2973633,4.6240234,4.3349609,1.9365234,8.1660156,3.2617188,11.3857422,3.9375,2.2211914.5117188,5.3232422.8505859,9.4145508,1.0205078,1.9990234.0830078,4.1538086.1259766,6.4042969.1259766,2.2470703,0,4.6503906-.0419922,7.144043-.1240234,4.956543-.1660156,10.2836914-.5029297,15.8349609-1.0029297,4.7783203-.4316406,9.4799805-1.0214844,14.0097656-1.7558594-.5024414,1.1357422-.9394531,2.3681641-1.3061523,3.6845703-.4824219,1.7148438-.7504883,3.3251953-.7993164,4.7988281-7.6933594.1513672-14.4541016.2275391-20.1113281.2275391ZM747.3544922,507.1279297c-2.0893555-3.6845703-4.4238281-7.1259766-6.9394531-10.2294922-2.4399414-3.0107422-5.4682617-6.1113281-9.0136719-9.2294922l4.3774414-3.0898438c3.0532227,3.15625,5.9516602,6.3193359,8.6279297,9.4150391,2.6118164,3.0234375,5.1645508,6.3242188,7.5986328,9.8242188l-3.1777344,1.9638672c-.6103516.3769531-1.0795898.9101562-1.378418,1.5234375-.0297852-.0605469-.0615234-.1191406-.0947266-.1777344ZM853.5576172,581.3232422c4.9775391-4.8525391,9.3032227-10.2119141,12.8564453-15.9287109,3.5458984-5.703125,6.4853516-12.1210938,8.7368164-19.0732422,2.1323242-6.5976562,3.8652344-14.171875,5.1567383-22.5332031-1.0087891.109375-2.1518555.2197266-3.4165039.3291016-1.9282227.1679688-3.6811523.2529297-5.2094727.2529297h-14.765625c-1.2211914,0-2.3637695-.6035156-3.0527344-1.6123047-.6889648-1.0078125-.8349609-2.2919922-.3911133-3.4296875,2.2294922-5.7099609,4.0996094-11.7861328,5.559082-18.0605469.3891602-1.6738281,1.8813477-2.859375,3.6005859-2.859375h27.5595703c2.0415039,0,3.6967773,1.6552734,3.6967773,3.6972656v77.2285156c0,2.0175781.2700195,3.7734375.8017578,5.2167969.5058594,1.3710938,1.3500977,2.4599609,2.5805664,3.328125,1.284668.90625,3.0478516,1.5361328,5.3920898,1.9267578,2.4516602.4091797,5.5307617.6074219,9.4125977.6074219,5.324707,0,9.6494141-.2470703,12.8569336-.7353516,3.0942383-.4677734,5.5800781-1.3291016,7.3837891-2.5556641,1.7553711-1.1972656,3.1044922-2.9335938,4.0117188-5.1640625.8730469-2.140625,1.6601562-4.9130859,2.34375-8.2548828-1.2612305-.3359375-2.449707-.78125-3.543457-1.3291016-.8574219-.4287109-1.6923828-1.0332031-2.5209961-1.8271484-.2104492,2.4931641-.5390625,4.5957031-.9814453,6.2724609-.6367188,2.4130859-1.7397461,4.3222656-3.2792969,5.6767578-1.5283203,1.3427734-3.6083984,2.2294922-6.1835938,2.6367188-2.4189453.3818359-5.519043.5751953-9.2148438.5751953-2.637207,0-4.8242188-.1533203-6.4946289-.453125-1.8120117-.3232422-3.2338867-.8818359-4.3393555-1.7001953-1.1616211-.8544922-1.9536133-2.0019531-2.3540039-3.4091797-.3588867-1.2597656-.5410156-2.7910156-.5410156-4.5507812v-27.9355469c0-1.3232422.7075195-2.5458984,1.8549805-3.2050781,1.9975586-1.1484375,3.7050781-2.1650391,5.2260742-3.1142578,1.7978516-1.1162109,3.4628906-2.1982422,4.9438477-3.2119141,1.5126953-1.0400391,2.8286133-1.9707031,4.0234375-2.8466797,1.1992188-.8779297,2.4614258-1.8466797,3.6782227-2.8193359,2.7148438-2.2900391,5.1577148-3.9951172,7.2607422-5.0683594,1.6328125-.8330078,2.9321289-1.3037109,3.9682617-1.4375.1723633-.0253906.3432617-.0380859.5151367-.0380859.1992188,0,.3994141.0175781.6025391.0527344.1411133.0185547.2739258.0283203.3989258.0283203.6079102,0,.6962891-.2451172.7568359-.4111328.144043-.3955078-.1337891-.8720703-.8256836-1.4160156-.0268555-.0214844-.0537109-.0429688-.0800781-.0654297-1.7866211-1.4873047-3.7436523-3.5664062-5.8286133-6.1894531-5.0844727,7.0810547-12.0546875,13.6103516-20.7412109,19.4257812-.6201172.4150391-1.3374023.625-2.0566406.625-.597168,0-1.1958008-.1445312-1.7412109-.4365234-1.2036133-.6425781-1.9555664-1.8964844-1.9555664-3.2607422v-32.1650391c0-2.0419922,1.6552734-3.6972656,3.6967773-3.6972656h4.5458984c3.8950195,0,7.4013672.0214844,10.4257812.0634766,2.940918.0429688,5.5917969.1064453,7.8808594.1875,2.2792969.0820312,4.4155273.2089844,6.3530273.3769531,1.5297852.1337891,3.0874023.2675781,4.6220703.3984375v-6.1367188c-1.7729492.1347656-3.9003906.2695312-6.3417969.4013672-3.03125.1679688-6.8632812.2949219-11.387207.3769531-4.5761719.0839844-9.9707031.1474609-16.0332031.1875-6.03125.0419922-13.0883789.0625-21.574707.0625-8.234375,0-15.1083984-.0205078-21.0136719-.0625-5.9692383-.0410156-11.2626953-.125-15.7324219-.2509766-4.4667969-.125-8.2739258-.2714844-11.3134766-.4365234-2.5043945-.1337891-4.6699219-.2705078-6.4072266-.4052734v6.2548828c1.5029297-.1298828,3.1333008-.2597656,4.8901367-.390625,2.2695312-.1679688,4.6113281-.2949219,6.9633789-.3759766,2.3745117-.0810547,4.75-.1445312,7.1264648-.1884766,1.2607422-.0205078,2.4921875-.0371094,3.6943359-.0478516.0112305-.0009766.0219727-.0009766.0332031-.0009766,1.105957,0,2.1542969.4951172,2.8569336,1.3505859.7094727.8642578.9897461,2.0029297.7626953,3.0976562-.9262695,4.4658203-2.2387695,8.8964844-3.9008789,13.171875-2.0507812,5.2695312-4.4243164,10.25-7.0556641,14.8046875-2.6352539,4.5576172-5.4814453,8.6992188-8.4604492,12.3085938-2.5151367,3.046875-4.9892578,5.5898438-7.375,7.5820312,1.8862305,1.1416016,3.4692383,2.5117188,4.7905273,4.1455078,3.3330078-3.5693359,6.4643555-7.4072266,9.3198242-11.4248047,2.8198242-3.9707031,5.4492188-8.3388672,7.8144531-12.9853516.6308594-1.2392578,1.9038086-2.0195312,3.2944336-2.0195312h17.8979492c1.0585938,0,2.0664062.4541016,2.7680664,1.2470703.7016602.7919922,1.0297852,1.8476562.9013672,2.8984375-.4785156,3.9189453-1.25,7.7519531-2.293457,11.3935547-1.0068359,3.5048828-2.4985352,7.3154297-4.4335938,11.3271484-.546875,1.1337891-1.6328125,1.9111328-2.8823242,2.0634766-.1499023.0175781-.2993164.0273438-.4477539.0273438-1.0927734,0-2.1391602-.4853516-2.8461914-1.3388672-1.0712891-1.2929688-2.1420898-2.546875-3.1791992-3.7246094-1.6430664-1.8613281-3.6630859-3.9023438-6.0141602-6.0771484l-3.1669922,3.3339844c2.2573242,2.078125,4.3364258,4.1416016,6.1914062,6.1445312,1.7568359,1.8984375,3.6625977,4.1865234,5.6645508,6.8017578,1.0058594,1.3125,1.0166016,3.1337891.0268555,4.4589844-1.3466797,1.8037109-2.9956055,3.7011719-4.902832,5.6425781-2.4697266,2.5107422-5.1679688,4.9326172-8.0214844,7.1992188-2.8383789,2.2529297-5.7597656,4.3701172-8.6850586,6.2939453-2.2436523,1.4736328-4.3408203,2.7167969-6.2568359,3.7099609,1.0644531.7978516,1.9248047,1.5576172,2.6069336,2.2998047.7382812.8066406,1.4555664,1.7714844,2.1391602,2.8759766,6.3916016-4.4580078,12.0380859-9.0654297,16.7973633-13.7070312Z" fill="#999"/>
      </g>
    </g>
  </g>
</svg>