<?xml version="1.0" encoding="UTF-8"?>
<svg xmlns="http://www.w3.org/2000/svg" version="1.1" viewBox="0 0 1080 1080">
  <!-- Generator: Adobe Illustrator 28.7.3, SVG Export Plug-In . SVG Version: 1.2.0 Build 164)  -->
  <g>
    <g id="beast">
      <path d="M584.9684267,587.2283566l-16.8222515-16.8222515h16.8222515v16.8222515ZM789.6415096,515.6950449h-16.8222515l16.8222515,16.8222515v-16.8222515ZM601.7906782,625.0659301h-16.8222515l16.8222515,16.8222515v-16.8222515ZM671.6286394,625.0659301h-16.8222515l16.8222515,16.8222515v-16.8222515ZM705.8988946,454.7501139h16.8222515v-16.8222515l-16.8222515,16.8222515ZM584.9684294,437.9278596v16.8222515h16.8222515l-16.8222515-16.8222515ZM584.9684267,551.9016283h16.8222515v-97.1515145h-16.8222515v97.1515145ZM645.4336606,551.9016283h16.8222515v-97.1515145h-16.8222515v97.1515145ZM705.8988946,551.9016283h16.8222515v-97.1515145h-16.8222515v97.1515145ZM690.9237565,637.2651811l16.1745483,4.6230006,15.6228414-54.659825-16.1745483-4.6230006-15.6228414,54.659825ZM722.7211462,471.5723654v-16.8222515h-137.7527195v16.8222515h137.7527195ZM722.7211462,511.7369969v-16.8222515h-137.7527195v16.8222515h137.7527195ZM722.7211462,551.9016283v-16.8222515h-137.7527195v16.8222515h137.7527195ZM722.7211462,587.2283566v-16.8222515h-137.7527195v16.8222515h137.7527195ZM707.0983048,641.8881816v-16.8222515h-35.4696653v16.8222515h35.4696653ZM618.9982062,637.2651811l16.1745483,4.6230006,26.0241181-91.0508984-16.1745483-4.6230006-26.0241181,91.0508984ZM635.1727545,641.8881816v-16.8222515h-33.3820763v16.8222515h33.3820763ZM165.623268,454.7501139h-16.8222515v100.5901645h16.8222515v-100.5901645ZM193.5984752,454.7501139h-16.8222515v187.3220266h16.8222515v-187.3220266ZM268.6930992,530.106901h-16.8222515v111.3387858h16.8222515v-111.3387858ZM290.6686712,538.5180268h-16.8222515v16.8222515l16.8222515-16.8222515ZM156.8222515,625.2498889h-16.8222515l16.8222515,16.8222515v-16.8222515ZM251.8708477,624.6234352h-16.8222515l16.8222515,16.8222515v-16.8222515ZM290.6686712,471.5723654v-16.8222515h-60.7733955v16.8222515h60.7733955ZM254.720524,523.380902l15.8784868,5.55534,20.0696604-57.3638766-15.8784868-5.55534-20.0696604,57.3638766ZM254.2207576,490.1605522l-15.8784868,5.55534,11.6226653,33.2203498,15.8784868-5.55534-11.6226653-33.2203498ZM290.6686712,538.5180268v-16.8222515h-60.7733955v16.8222515h60.7733955ZM219.5275775,513.4563219v-16.8222515h-70.3791092v16.8222515h70.3791092ZM219.5275775,555.3402784v-16.8222515h-70.3791092v16.8222515h70.3791092ZM208.9405658,598.7062094v-16.8222515h-49.2050858v16.8222515h49.2050858ZM228.6760458,642.0721404v-16.8222515h-71.8537942v16.8222515h71.8537942ZM149.1484683,454.7501327v16.8222515h55.6029626v-16.8222515h-55.6029626ZM219.5275775,471.5723842h-14.7761466v83.7679129h16.8222515v-83.7679129l-2.0461049-2.0461049v2.0461049ZM219.5275775,469.5262793l-14.7761466-14.7761466v16.8222515h14.7761466v-2.0461049ZM494.7165839,449.8463618v16.8222515h16.8222515l-16.8222515-16.8222515ZM355.3937602,575.0322242h-16.8222515l16.8222515,16.8222515v-16.8222515ZM404.0867037,471.5723654v-16.8222515h-38.5540049v16.8222515h38.5540049ZM365.5326988,493.3041188h16.8222515v-38.5540049h-16.8222515v38.5540049ZM387.2644522,493.3041188h16.8222515v-38.5540049h-16.8222515v38.5540049ZM367.9874497,568.7238799h16.8222515v-64.4852976h-16.8222515v64.4852976ZM399.7585471,568.7238799h16.8222515v-64.4852976h-16.8222515v64.4852976ZM431.5296444,568.7238799h16.8222515v-64.4852976h-16.8222515v64.4852976ZM367.9873157,641.4454711h16.8222515v-42.091424h-16.8222515v42.091424ZM431.5295104,641.4454711h16.8222515v-42.091424h-16.8222515v42.091424ZM410.3219436,493.3041188h16.8222515v-38.5540049h-16.8222515v38.5540049ZM432.0536969,493.3041188h16.8222515v-38.5540049h-16.8222515v38.5540049ZM475.1241643,493.3041188h16.8222515v-43.457757h-16.8222515v43.457757ZM448.8759485,471.5723654v-16.8222515h-38.5540049v16.8222515h38.5540049ZM404.0867037,493.3041188v-16.8222515h-38.5540049v16.8222515h38.5540049ZM448.3518959,515.0358722v-16.8222515h-80.3644462v16.8222515h80.3644462ZM448.3518959,541.879876v-16.8222515h-80.3644462v16.8222515h80.3644462ZM448.3518959,568.7238799v-16.8222515h-80.3644462v16.8222515h80.3644462ZM452.6609551,591.8544758v-16.8222515h-97.2671948v16.8222515h97.2671948ZM448.2577507,616.176429v-16.8222515h-80.1763341v16.8222515h80.1763341ZM448.2577507,641.4456049v-16.8222515h-80.1763341v16.8222515h80.1763341ZM448.8759485,493.3041188v-16.8222515h-38.5540049v16.8222515h38.5540049ZM511.5388355,498.2136206v-16.8222515h-56.0070909v16.8222515h56.0070909ZM495.2795503,489.9134864l-6.6402922.8109262-5.103968,41.7928839,13.3028648,108.9281857h16.9472069l-18.5058115-151.5319958ZM483.53529,532.5172964l5.103968-41.7928839-10.0579281,1.2284022,4.9539601,40.5644817ZM489.2658828,485.5936464h-16.9473095l-19.0334577,155.8518358h16.9473095l13.3028648-108.9281857-4.9539601-40.5644817,10.0579281-1.2284022.6266248-5.1307662ZM806.2000236,625.0659301h-16.8222515l16.8222515,16.8222515v-16.8222515ZM885.5743418,454.7501139h16.8222515v-16.8222515l-16.8222515,16.8222515ZM806.2000236,641.8881816h16.8222515v-118.639937h-16.8222515v118.639937ZM885.5743418,479.9862292h16.8222515v-25.2361153h-16.8222515v25.2361153ZM806.7505925,519.6512044l16.0408613,5.0674369,16.7893354-53.1462759-16.0408613-5.0674369-16.7893354,53.1462759ZM852.6175365,530.479375l14.5684972,8.4111258,36.2103312-62.7181335-14.5684972-8.4111258-36.2103312,62.7181335ZM852.6175365,581.5068713l14.5684972,8.4111258,49.3428113-85.4642561-14.5684972-8.4111258-49.3428113,85.4642561ZM839.5807892,471.5723654v-16.8222515h-49.9392796v16.8222515h49.9392796ZM938.8908033,483.3479415v-16.8222515h-89.8106716v16.8222515h89.8106716ZM839.5807892,532.5172964v-16.8222515h-49.9392796v16.8222515h49.9392796ZM887.8654974,547.3016265v-16.8222515h-35.2479608v16.8222515h35.2479608ZM904.3789029,580.1905757l-9.7124271,16.8222515,25.9087726,44.8752863h19.4247516l-35.6210971-61.6975378ZM887.1416395,583.9793813l14.568538-8.4111258,2.6687254,4.6223202,25.5361655-44.2300774-14.5684354-8.4111258-66.0134762,114.338741h19.4245463l25.9087726-44.8752863-7.5248363-13.033446ZM887.1416395,583.9793813l7.5248363,13.033446,9.7124271-16.8222515-2.6687254-4.6223202-14.568538,8.4111258Z" fill="#fff"/>
    </g>
  </g>
</svg>