<?xml version="1.0" encoding="UTF-8"?>
<svg xmlns="http://www.w3.org/2000/svg" version="1.1" viewBox="0 0 1080 1080">
  <!-- Generator: Adobe Illustrator 28.7.3, SVG Export Plug-In . SVG Version: 1.2.0 Build 164)  -->
  <g>

    <g id="distortedjoined">
      <path d="M295.2702476,538.9926168l-3.7183733,3.7183733-37.1455073-37.1455073,3.7183733-3.7183733,37.1455073,37.1455073ZM452.8695878,539.0905784v-5.2585739h-40.6490931v5.2585739h40.6490931ZM452.8695878,552.07867v-5.2585739h-40.6490931v5.2585739h40.6490931ZM417.4790686,533.8320045h-5.2585739v18.2466655h5.2585739v-18.2466655ZM447.6110139,552.07867h5.2585739s0-18.2466655,0-18.2466655h-5.2585739s0,18.2466655,0,18.2466655ZM242.5338185,526.3914471l-3.7183733,3.7183733-37.1455073-37.1455073,3.7183733-3.7183733,37.1455073,37.1455073ZM145.2585739,529.5862314h-5.2585739v50.961845h5.2585739v-50.961845ZM187.083733,511.6898893h-5.2585739v79.064171h5.2585739v-79.064171ZM262.3785973,573.8207148h-5.2585739v16.9333455h5.2585739v-16.9333455ZM262.3785973,590.7540603v-5.2585739h-80.5534382v5.2585739h80.5534382ZM504.0927067,494.9545416v-5.2585739h-143.0953309v5.2585739h143.0953309ZM408.6886335,517.0736161v-5.2585739h-27.2930214v5.2585739h27.2930214ZM415.0538752,527.6874966v-5.2585739h-40.0235046v5.2585739h40.0235046ZM483.6944704,517.0736161v-5.2585739s-27.2930214,0-27.2930214,0v5.2585739s27.2930214,0,27.2930214,0ZM490.059712,527.6874966v-5.2585739s-40.0235046,0-40.0235046,0v5.2585739s40.0235046,0,40.0235046,0ZM510.1801651,508.0249038v-5.2585739h-155.2702476v5.2585739h155.2702476ZM506.1564491,564.12692v-5.2585739h-147.2228157v5.2585739h147.2228157ZM510.1801651,590.7540603v-5.2585739h-155.2702476v5.2585739h155.2702476ZM435.1743282,489.6959677h-5.2585739v39.5174232h5.2585739v-39.5174232ZM435.1743282,561.1184802h-5.2585739v29.6355801h5.2585739v-29.6355801ZM398.3557538,563.1863566l-3.7183733-3.7183733-27.2058047,27.2058047,3.7183733,3.7183733,27.2058047-27.2058047ZM406.9653853,589.648917l3.7183733-3.7183733-19.6871012-19.6871012-3.7183733,3.7183733,19.6871012,19.6871012ZM493.9401334,590.3921613l3.7183733-3.7183733-27.2058047-27.2058047-3.7183733,3.7183733,27.2058047,27.2058047ZM477.8117984,569.9618158l-3.7183733-3.7183733-19.6871012,19.6871012,3.7183733,3.7183733,19.6871012-19.6871012ZM399.5827265,539.0905784v-5.2585739h-40.6490931v5.2585739h40.6490931ZM399.5827265,552.07867v-5.2585739h-40.6490931v5.2585739h40.6490931ZM364.1922073,533.8320045h-5.2585739v18.2466655h5.2585739v-18.2466655ZM394.3241526,552.07867h5.2585739s0-18.2466655,0-18.2466655h-5.2585739s0,18.2466655,0,18.2466655ZM506.1564491,539.0905784v-5.2585739s-40.6490931,0-40.6490931,0v5.2585739s40.6490931,0,40.6490931,0ZM506.1564491,552.07867v-5.2585739s-40.6490931,0-40.6490931,0v5.2585739s40.6490931,0,40.6490931,0ZM500.8978752,552.07867h5.2585739s0-18.2466655,0-18.2466655h-5.2585739s0,18.2466655,0,18.2466655ZM470.7659299,533.8320045h-5.2585739v18.2466655h5.2585739v-18.2466655ZM360.1684914,502.7663299h-5.2585739v26.447061h5.2585739v-26.447061ZM510.1801651,502.7663299h-5.2585739v26.447061h5.2585739v-26.447061ZM913.5817807,489.6959677l-3.7183733,3.7183733,19.8941958,19.8941958,3.7183733-3.7183733-19.8941958-19.8941958ZM904.0185839,489.6959677h-5.2585739v69.1150558h5.2585739v-69.1150558ZM829.8594835,521.9744211h-5.2585739v68.7796392h5.2585739v-68.7796392ZM792.3060402,521.9744211h-5.2585739v38.2784904h5.2585739v-38.2784904ZM867.4128847,521.9744211h-5.2585739v38.2784904h5.2585739v-38.2784904ZM867.4129021,527.2330732v-5.2585739h-80.3654111v5.2585739h80.3654111ZM867.4129021,543.7430314v-5.2585739h-80.3654111v5.2585739h80.3654111ZM867.4129021,560.2529897v-5.2585739h-80.3654111v5.2585739h80.3654111ZM869.7306407,576.6076211v-5.2585739h-85.0008883v5.2585739h85.0008883ZM817.4287233,513.5226724h5.2585739s0-23.8267048,0-23.8267048h-5.2585739s0,23.8267048,0,23.8267048ZM784.7298056,513.5226724h5.2585739s0-23.8267048,0-23.8267048h-5.2585739s0,23.8267048,0,23.8267048ZM822.6872388,494.9547396v-5.2585739s-37.9574864,0-37.9574864,0v5.2585739s37.9574864,0,37.9574864,0ZM822.6872388,513.5228704v-5.2585739s-37.9574864,0-37.9574864,0v5.2585739s37.9574864,0,37.9574864,0ZM837.0316699,489.6959677h-5.2585739v23.8267048h5.2585739v-23.8267048ZM869.7305875,489.6959677h-5.2585739v23.8267048h5.2585739v-23.8267048ZM869.7306407,494.9547396v-5.2585739h-37.9574864v5.2585739h37.9574864ZM869.7306407,513.5228704v-5.2585739h-37.9574864v5.2585739h37.9574864ZM940,527.232995v-5.2585739h-61.3961413v5.2585739h61.3961413ZM902.4784776,555.092551l-3.7184552,3.7184552,16.90173,16.9015336,3.7182588-3.7182588-16.9015336-16.90173ZM923.0984664,575.7125398l-3.7184552,3.7184552,11.3232617,11.3230653h7.4365177l-15.0413241-15.0415205ZM940,558.8110062l-3.7182588-3.7184552-16.90173,16.90173,3.7184552,3.7182588,16.9015336-16.9015336ZM915.6617524,575.7125398l-15.0415205,15.0415205h7.4367141l11.3230653-11.3230653-3.7182588-3.7184552ZM923.0984664,575.7125398l-3.7184552-3.7182588-3.7182588,3.7182588,3.7182588,3.7184552,3.7184552-3.7184552ZM649.657674,489.6959677h-5.2585739v21.2189161h5.2585739v-21.2189161ZM715.8876433,511.4007226l-3.7183733-3.7183733-78.6463342,78.6463342,3.7183733,3.7183733,78.6463342-78.6463342ZM720.9215481,512.9409233v-5.2585739h-141.3088747v5.2585739h141.3088747ZM725.0900825,590.7540603v-5.2585739h-91.8412879v5.2585739h91.8412879ZM608.4357252,559.574884l-3.7184552-3.7182588,3.7184552,3.7182588h0ZM600.9990112,559.574884l-31.1791762,31.1791762h7.4367141l27.460721-27.460721-3.7182588-3.7184552ZM600.9988148,559.574884h.0001964l3.7182588-3.7182588-3.7184552,3.7182588ZM632.1779911,590.7540603h3.8262621l1.805226-1.805226-29.3737539-29.3739503-3.7184552,3.7184552,27.460721,27.460721ZM608.4357252,559.574884l-3.7184552-3.7182588-3.7182588,3.7182588,3.7182588,3.7184552,3.7184552-3.7184552Z" fill="#fff"/>
    </g>
  </g>
</svg>