<?xml version="1.0" encoding="UTF-8"?>
<svg xmlns="http://www.w3.org/2000/svg" version="1.1" viewBox="0 0 1080 1080">
  <!-- Generator: Adobe Illustrator 28.7.3, SVG Export Plug-In . SVG Version: 1.2.0 Build 164)  -->
  <g>
    <g id="falling">
      <path d="M314.0308374,580.4129989c-4.7324506,10.3122998-23.6446234,10.8772321-37.8804242,10.8772321h-5.280633c-.6073784-.0178921-1.3202058-.0291222-2.0317008-.0403523-9.2275459-.1458013-11.5495169-.9503731-11.5495169-6.7239895v-51.4787005c0-2.1068856-.2219377-4.3953565-.4617675-6.5559183-.0112301-.1031649-.0268381-.2040457-.0470143-.3070202-.2265059-1.1319585-.6926512-2.42742-1.184683-3.7139354,4.1757029,1.0040493,10.733715,3.0616365,12.9481432,4.1688506-.3473725.3070202-.8685264.7172052-1.6382658,1.2305552-.9952936.6633387-1.5925839,1.7794989-1.5925839,2.9763637v43.1208231c0,7.2327712,4.0209556,8.2078886,7.9545446,8.2078886l1.782925-.0112301c3.1861196,0,21.5973146,0,24.7765819-2.5416246,2.7087441-2.420758,4.5432516-6.4887279,6.0427587-11.273903.7575576,6.3541567,3.6690149,9.0863128,8.1616358,12.0649606ZM187.050986,506.0931134l22.5375275-.0022841c-1.078092-1.4456406-2.8475028-3.4942818-5.2962409-6.1301253-.564742-.6096625-1.0086175-1.0891317-1.2585353-1.380544-.0513921-.0605285-.1006904-.1210569-.1490371-.1861536-.2453497-.3271963-.5950063-.7149211-.9334327-1.0466857-1.1409045,1.1319585-3.0863808,3.3441027-5.6594117,6.7711941-.6757109.9008844-1.7359108,1.4298423-2.862159,1.4298423h-6.3787107c-1.9757406,0-3.5784126-1.6001976-3.5784126-3.5770802v-13.4211409c0-1.4635327.8921287-2.7814544,2.2515448-3.3239265.4505374-.1793013.9065946-.3989549,1.3066916-.6163245-1.4378366-.8224639-4.4063963-2.0910873-8.8622813-3.7855037l-.9827311-.3744009c-1.6093339-.6186086-2.5473349-2.2972267-2.2323203-3.9939272.3148242-1.6944164,1.7930131-2.9226875,3.5176938-2.9226875h38.752495c-1.9959167-2.9070795-5.6514174-7.2687457-7.741553-9.1759634-1.4669588,1.380544-3.686907,3.9693732-4.6540301,5.0967635-1.4176605,1.6540641-1.8918001,2.1942521-2.4297041,2.599869-.6197506.4638612-1.373882.7149211-2.1481896.7149211h-13.1992031c-1.0916062,0-2.1068856-.4952675-2.7770766-1.3200155-.6543927.9435208-1.7437148,1.5396691-2.9428636,1.5396691-11.4823265,0-23.3556136,0-34.9388208-.2240315-2.0901355-.1031649-4.227095-.2577218-6.3922249-.4124691l1.8400274,2.7076021,1.4602969-.9503731c.5805403-.3764947,1.2573933-.5759721,1.9498542-.5759721h25.9613831c1.9757406,0,3.5782222,1.6001976,3.5782222,3.5770802v24.8608309c0,1.9768826-1.6024817,3.5770802-3.5782222,3.5770802h-14.2997553c-2.19863,0-4.4098225-.1815854-6.5917024-.4214152l1.7134505,2.4542581,1.782925-1.0175635c.5413301-.3093043,1.1521346-.4705232,1.7753114-.4705232h15.6197708c1.9757406,0,3.5782222,1.6001976,3.5782222,3.5770802v55.8807189c0,.123341-.0066619.2464917-.0190341.3698327l-1.2674813,12.1860175c3.9469129-1.0982681,8.2076983-3.0458382,11.3018831-4.5542913l-1.3179217-14.4969487c-.0100881-.1098268-.0146563-.2173695-.0146563-.3249122v-49.0604169c0-1.9768826,1.602672-3.5770802,3.5784126-3.5770802ZM234.7108565,514.0631709c.0224602.1456109.0437785.2891281.0662387.4301709.2464917,1.61828.5009778,3.2925202.5009778,4.9825588,0,2.9944461-.4170373,5.8520369-.8203701,8.6178834-.1086848.7396655-.2152758,1.4724787-.3182503,2.2458346-3.5009437,23.7669407-9.2600942,35.6998045-22.3740245,48.7442603,15.1075629-9.6377309,25.9859371-24.2129098,29.399324-40.0367263.2959804-1.5554674.6165148-3.1086507.9368589-4.6643085.6142307-2.9786478,1.2495893-6.0581763,1.6755726-9.0324463.1914831-1.340382,1.129484-2.4588262,2.4127637-2.8889971.6454466-.2152758,2.0160929-.9661714,2.9428636-1.6205641-1.2541575-1.1519443-4.5375413-3.0235683-12.4058615-5.999932-.7967678-.3026423-1.4848509-.5626483-2.0160929-.7777337ZM154.0732494,521.2041025c-.515634,7.1945127-6.2163498,19.59809-12.9593734,32.7165885,6.5614382-6.2039776,13.7841213-15.4315235,18.6119328-21.6020011l2.0766213-2.6445992c.5110658-.6477307,1.2282711-1.0982681,2.0328429-1.2775694l.6745688-.1412331c.3363327-.0694745.8595804-.1770172,1.340382-.3049264-.270094-.1903411-.6365006-.425793-1.1351943-.710353-4.0601659-2.4991786-8.029539-4.7360671-10.6417802-6.0359064ZM214.7123054,541.3513266c0-2.2861869-1.0287936-5.0520333-1.8503058-7.0399557-1.660726-3.4853358-6.83591-5.7871306-10.7179166-7.2708394-.654583-.2801821-2.1460958-.8428304-3.8338503-1.4435469,1.1498505,1.636172,2.2132862,3.4605914,3.2095315,5.6750197,1.3314359,2.8823352,2.7076021,5.8655511,3.8618304,9.0954492.0146563.0424461.0784205.2398298.0919347.2845599,1.5520413,4.9241241,2.3017948,5.9215114,4.4568367,5.9215114,3.106557,0,4.7819393-2.6918037,4.7819393-5.2221982ZM227.5763179,397.3954058c-.1758752-1.7638909-.5099238-4.1553364-1.4456406-6.4639835,2.6603975.9996714,7.1218024,2.8733891,14.5797471,6.3722391l.7073075.3294804c.4739493.2217474.9905351.3361424,1.5139731.3361424h25.5196014c1.1970551,0,2.3153091-.5984324,2.9788381-1.5935356.1444689-.2196536.3822049-.6030006.6880831-1.1005522,2.3971557-3.8976146,3.7419156-5.6660737,4.4836748-6.4639835.3989549.2263156.8462565.5110658,1.1195863.685799.1804434.1164887.3542248.2263156.5165857.3271963.5761625.4684294,1.4658168,1.0982681,2.9396278,2.1360078,1.9890644,1.4009104,6.794606,4.7874592,8.715338,6.7239895-.8740463.7350973-2.3680335,1.6137118-3.0313723,2.0037207-.3574606.2107076-.6802791.401239-.948089.5693102-1.0466857.654583-1.6820442,1.7998654-1.6820442,3.0347984v82.4987788c0,5.2962409.3888669,10.7135388.7642195,15.951345.0481563.6770433.0974546,1.3516121.1444689,2.0261809-4.0734897,1.0356459-7.9465503,1.8154734-11.7040738,2.3625137l.5636-7.7596354c.0717586-.9928191-.2721878-1.9677462-.949231-2.6961816-.6768529-.7284354-1.626084-1.1409045-2.6200452-1.1409045h-30.1391798c-1.9755502,0-3.5782222,1.6003879-3.5782222,3.5770802v5.829767l-4.1206943.7733559c-1.0207993.1903411-1.8803797.8068559-2.3960137,1.6540641-.5938642-.401239-1.2931774-.6142307-2.0058144-.6142307-.1682615,0-.3374748.0112301-.5055459.0359745-.2375457.0335-.4796596.0671904-.7272933.1008808.0279801-.4573896.0561506-.914589.0852728-1.3717883.3764947-6.1030968.7653615-12.4169012.7653615-18.7284216v-80.9589194c0-2.6470736,0-5.6481816-.2320258-8.4364883ZM236.713071,459.291855c0,1.9768826,1.602672,3.5772705,3.5782222,3.5772705h30.1391798c1.9757406,0,3.5782222-1.6003879,3.5782222-3.5772705v-22.0007656c0-1.5981038-1.0466857-2.9495256-2.4911842-3.409009,1.4444986-.4617675,2.4911842-1.8133796,2.4911842-3.4112931v-28.3796667c0-1.9656525-1.5857317-3.5637563-3.5523358-3.5772705l-30.1650662-.2196536c-.9435208,0-1.8501154.3721168-2.5214485,1.0377396-.6757109.6724751-1.0567738,1.5868737-1.0567738,2.5395309v28.5993203c0,1.5979135,1.0466857,2.9495256,2.4911842,3.4112931-1.4444986.4594834-2.4911842,1.8109052-2.4911842,3.409009v22.0007656ZM236.713071,491.1905479c0,1.9766923,1.602672,3.5770802,3.5782222,3.5770802h30.1391798c1.9757406,0,3.5782222-1.6003879,3.5782222-3.5770802v-23.9799323c0-1.9768826-1.6024817-3.5772705-3.5782222-3.5772705h-30.1391798c-1.9755502,0-3.5782222,1.6003879-3.5782222,3.5772705v23.9799323ZM275.2382987,443.1312617c2.9213551-.7718331,6.8054555-3.5353955,6.564103-7.2291547-.1996678-3.0538325-3.8011116-5.3396387-7.7937064-6.9434528v.8369298c0,1.9768826-1.6024817,3.5772705-3.5782222,3.5772705h-30.1391798c-1.9755502,0-3.5782222-1.6003879-3.5782222-3.5772705v-2.77898c-6.8983419,2.2142379-4.1644728,8.6037981,0,12.4526854v-1.7549449c0-1.9768826,1.602672-3.5772705,3.5782222-3.5772705h30.1391798c1.9757406,0,3.5782222,1.6003879,3.5782222,3.5772705v5.6565566c.4069493-.0886989.8300775-.1340001,1.2296035-.2396394ZM202.7615495,440.3841321c.4929834-.7486115,1.2484472-1.2842314,2.1179253-1.5017912l.2388781-.0605285c.3618384-.0896507,1.1441403-.2845599,1.8457376-.5198215-2.7692726-2.2414567-9.4987819-5.6011674-13.5018455-6.9571573.01675.2173695.0268381.4393072.0268381.6656228,0,5.1932664-3.4729636,18.8294927-6.9760011,31.9007866,4.9812264-6.7845179,10.211419-14.3578094,16.2484675-23.5271109ZM159.3167659,437.4367003c-.4113271-.1815854-1.0657198-.4952675-1.8523995-.8717622,3.4807676,6.0201081,4.0734897,10.2630014,5.1449198,17.94631l.0571023.425793c.1872956,1.6788084.7362394,2.3444313,1.193629,2.7367242.0694745.0603381.1366649.1208666.2015712.1859632,1.0154697,1.0152794,1.7370528,1.1542284,2.3086471,1.1542284,2.6649657,0,5.0015929-2.6468832,5.0015929-5.6637896,0-1.9005558-.9448532-4.610442-2.6369855-7.5129533-1.8131893-3.2968981-4.8076353-5.968716-9.4180773-8.4005138ZM148.5864771,422.9353737c.5278159-.2891281,1.1216801-.4415913,1.7246806-.4415913h65.2515917c-1.1452824-1.4456406-3.2005855-3.7630434-6.8739783-7.3515441l-.4170373-.4101851c-.9008844-.8987906-1.529581-1.4589645-1.9622263-1.8065273-1.9959167,1.7124988-5.7176561,5.9978382-6.6006484,7.2105013-.6635291.9951032-1.7808313,1.5912515-2.9776961,1.5912515h-45.0997994c-2.0889935,0-4.2754416-.1793013-6.4651256-.416847l1.8031012,2.5147865,1.6171379-.8898446ZM173.4385523,399.5022913c.4986937,2.6000593.9694072,5.0541271,2.3859256,6.5917024,1.6753823,1.88057,2.7936362,2.1002236,3.4885716,2.1002236,3.2061054,0,5.4407098-3.680245,5.4407098-6.9839954,0-2.0642492-1.0723817-4.6620244-1.8838058-6.4460915-2.1034594-4.6597403-7.2293451-6.524512-12.656731-8.5013946-.7722138-.2801821-1.5398594-.5601738-2.2804766-.84264-.0639546-.0224602-.1277189-.0470143-.1905314-.0694745,2.2043402,3.3507646,4.3424417,7.6652262,5.1538658,11.5226788.2029036.8605321.3732589,1.7437148.5424721,2.6289912ZM498.568359,489.5812139c.8829923.6140404,1.6338879,1.1363363,2.1784538,1.5061691-.8192281.6993132-1.7840671,1.4433565-2.2781925,1.8244194-.8338843.6431626-1.4939872,1.1766886-1.7842574,1.4658168-.6722847.670191-1.0510635,1.5823055-1.0510635,2.5326786v71.939797c0,.6747592.008946,1.358274.0178921,2.0463571.0325483,2.4744342.0671904,5.0339509-.3776367,7.1050523-.9772112,5.7108038-9.8539584,7.6697944-15.9045211,8.3443632-.9794953-5.6234373-2.608815-9.8571942-7.7347007-13.6091979,1.0388817.0807046,2.0910873.1320967,3.1579491.1320967,6.7542537,0,10.179061-2.8307527,10.179061-8.4184059v-20.9002134c0-1.9768826-1.602672-3.5772705-3.5784126-3.5772705h-43.5601303c-1.9757406,0-3.5782222,1.6003879-3.5782222,3.5772705v19.8019453c0,6.0045001.1747331,12.1928698.3485145,17.5340312-3.8875265,1.0129953-7.7156666,1.8019591-11.4419742,2.3577551.3384265-6.3429266.6488728-13.194635.6488728-19.8917863v-69.7409767c0-5.4688803-.1579831-8.3333234-.5457079-9.8865067-.1659774-.5872023-.3822049-1.2507313-.6197506-1.9723144,4.2135808,1.503885,11.0866073,4.6148198,14.1472921,5.999932,1.8769535.8494923,3.409009,1.5421435,4.2988536,1.9074081.4313129.1793013.8942225.268952,1.3615098.268952h36.9594819c.9458049,0,1.8535416-.3742106,2.5237326-1.0400237.3047361-.302452.532384-.6186086,1.2887995-1.6675783,1.766175-2.4474058,3.0962786-4.1755126,3.973751-5.1616698,2.9047954,1.6249419,9.1066793,5.9439717,11.3704059,7.5218993ZM484.971343,519.6195129c.0121818-.9593191-.3586026-1.88057-1.0310777-2.5619911-.6724751-.6812308-1.5902998-1.0645777-2.5473349-1.0645777h-43.5601303c-1.9757406,0-3.5782222,1.6003879-3.5782222,3.5772705v16.2808254c0,1.9768826,1.6024817,3.5772705,3.5782222,3.5772705h43.3404767c1.9578485,0,3.5513841-1.5712657,3.5784126-3.5279722l.2196536-16.2808254ZM484.971343,494.2723605c0-1.9679366-1.5902998-3.5683245-3.5582364-3.5772705l-40.2809339-.2219377c-.8607224,0-1.6934647.3093043-2.3434795.8742366l-3.2991822,2.8598749c-.7843956.679137-1.234933,1.6652942-1.234933,2.7030339v14.96081c0,1.9768826,1.6024817,3.5772705,3.5782222,3.5772705h43.5601303c1.9757406,0,3.5784126-1.6003879,3.5784126-3.5772705v-17.5987472ZM380.2510028,396.7362546c-.1244831-.0380682-.2466821-.0807046-.3654549-.1322871-.5131596-.2196536-1.4231804-.5177278-2.3813574-.8045718.2152758.9256287.3753526,1.8333654.523438,2.6739117.1187728.6768529.2352616,1.3447598.4191311,2.2031982.7048331,4.4579788.7048331,8.9606877.7048331,13.317976v143.1962695c0,7.4008424-.384489,14.9743242-.7552735,22.2990301-.0492983.9749271-.0985967,1.9475701-.147895,2.9204034,4.3121775-.5759721,8.1393658-1.340382,11.7118778-2.3377693-.1107785-3.4381312-.2834179-6.8987226-.4514891-10.2696634-.2824662-5.6616958-.5738784-11.5160168-.5738784-17.2313889v-123.4207816c0-.6298387.1659774-1.2326489.4629095-1.7595131-.2969321-.5266738-.4629095-1.129484-.4629095-1.7593227v-17.5768579c0-1.1542284.5580801-2.2389823,1.497223-2.9114574l.8630065-.5961483c1.7604648-1.2037171,3.0380342-2.158468,3.819194-2.8554971-.7463274-.4459692-2.1449538-1.0936999-4.7438711-1.8760018l-10.1194842-3.0795286ZM360.1833413,462.3312216c-2.680764,4.6888625-5.4532723,9.5368502-5.4532723,13.2393651,0,4.5634277,1.6508283,6.1032872,6.541262,6.1032872,5.4420422,0,7.202507-9.4471995,7.202507-14.0218573,0-3.1781252-1.120538-11.1459938-2.5001303-17.5090965-1.1801148,4.1239301-3.523404,8.2210222-5.7903664,12.1883016ZM509.5508497,455.596002c-.924677.5603642-3.1648014,2.1965362-7.7908513,6.8652226l-.2409718.2419235c-.671333.670191-1.5802118,1.0445919-2.5271587,1.0445919h-29.0386276c-1.9757406,0-3.5782222-1.6003879-3.5782222-3.5772705v-16.720323c0-1.9766923,1.6024817-3.5770802,3.5782222-3.5770802h33.962942l-8.9945684-8.411744c-.2329775-.2329775-.4796596-.4436851-.6981711-.6140404-2.0238968,1.4724787-6.1445912,5.6369515-7.4389106,7.1924189-.6802791.818086-1.6877545,1.2887995-2.7511902,1.2887995h-14.0801017c-1.9757406,0-3.5782222-1.6003879-3.5782222-3.5772705v-14.5192186c0-1.9768826,1.6024817-3.5772705,3.5782222-3.5772705h39.7656806l-.2095655-.2150854c-6.0359064-6.1771395-8.951932-8.6224515-10.2485355-9.5726343-1.10493.8740463-3.3663726,2.9181193-7.8367235,7.6943484-.3462304.3721168-.5851085.6231767-.6802791.7194893-.671333.670191-1.5823055,1.0466857-2.5303945,1.0466857l-18.3028189-.2196536c-1.9599422-.0224602-3.5355858-1.61828-3.5355858-3.5770802v-19.138797c0-1.3537059.7653615-2.5932071,1.9768826-3.2005855,1.38949-.694745,2.738818-1.6024817,3.6433189-2.3533773-3.7891202-1.7930131-12.8272766-4.1284983-18.1469295-5.0204367.4661453,1.6786181.7687877,3.5837421.9536089,5.069735.007804.0628126.0213182.2173695.0258864.2801821.2173695,3.0616365.4436851,6.2264379.4436851,9.4045631v14.7390626c0,1.9768826-1.6024817,3.5770802-3.5782222,3.5770802h-25.0804845c-2.0575872,0-4.1149841-.130003-6.1523952-.3159662l1.4243224,2.2188061.6825632-.4817533c.6039523-.4259834,1.3245837-.654583,2.0642492-.654583h27.061745c1.9757406,0,3.5782222,1.6003879,3.5782222,3.5772705v14.5192186c0,1.9768826-1.6024817,3.5772705-3.5782222,3.5772705h-19.3605443c-2.0553031,0-4.1050864-.1703553-6.116611-.383347l1.3626519,2.0844253.7116853-.5021198c.6028102-.425793,1.3245837-.6543927,2.0631071-.6543927h21.339711c1.9757406,0,3.5782222,1.6003879,3.5782222,3.5770802v16.720323c0,1.9768826-1.6024817,3.5772705-3.5782222,3.5772705h-30.5807711c-2.0317008,0-4.1351603-.1435172-6.2409038-.3407106l1.5173992,2.4116217.8696685-.6275546c.6096625-.4415913,1.3424757-.6768529,2.0945134-.6768529h99.3466304l-8.5977072-8.411744c-.2274576-.2285997-.4101851-.392293-.5512278-.5064977ZM399.9084792,432.8285424c.285702.5984324.5816824,1.2775694.9123049,2.0823316,1.2539671,2.7163577,1.8053853,5.2132522,2.337579,7.627158l.4214152,1.8916098c1.2809956,5.9194177,2.167414,7.7640132,5.2123005,7.7640132,2.5707468,0,5.0014026-2.5395309,5.0014026-5.2223886,0-4.7269307-4.6618341-9.4671853-13.8850021-14.1427239ZM427.7683244,463.74774h-64.0926682l.5847278.7665036h63.5079404v-.7665036ZM719.0141806,624.5800635c-1.2280807-1.210379-4.7358768-4.6686863-6.4862534-5.6123975-.9840635.6859893-2.7098861,2.3916358-5.141684,5.0857237-.4819436.5333357-.8607224.948089-1.0847539,1.1721205-.6724751.670191-1.5823055,1.0466857-2.5303945,1.0466857h-12.3205886c-1.9768826,0-3.5772705-1.6001976-3.5772705-3.5770802v-15.7084698c0-1.9656525,1.5845896-3.5637563,3.5502421-3.5772705l29.5361792-.2173695c-.957035-1.1991489-2.7275879-2.9249716-5.2939568-5.1572919-.7328132-.6365006-1.3222996-1.1565125-1.6630101-1.497223-.8203701-.8201798-1.8760018-1.5979135-2.4946104-1.920732-.9884413.5759721-2.7681305,2.3712693-5.3008091,5.3455393-.6252705.7350973-1.129484,1.3179217-1.4456406,1.6338879-.6722847.670191-1.5823055,1.0466857-2.5303945,1.0466857h-10.7807292c-1.9768826,0-3.5772705-1.6001976-3.5772705-3.5770802v-38.0272954c0-1.087038.4931738-2.1135475,1.340382-2.7926845.1928155-.1547473.4684294-.3631708.800194-.6119466.8382622-.6321228,1.528439-1.1744045,2.0642492-1.6249419-2.7209259-1.2237029-10.6195103-3.7497195-15.2769665-4.8906241.4640516,1.503885.5961483,3.0169063.7151115,4.3907883.0335.3966708.0671904.7866797.1277189,1.358274.2240315,3.8460321.2240315,34.010908.2240315,37.7986957v4.3997344c0,1.9768826-1.6001976,3.5770802-3.5770802,3.5770802h-11.6593437c-1.1677426,0-2.2616329-.5670261-2.9316335-1.5240611-.6679069-.9547509-.8293161-2.1784538-.4303612-3.2746282l2.6379372-7.2596093c.2600059-.7172052.7419496-1.3312456,1.3761661-1.7549449,0,0,.6993132-.4617675.9930095-.6679069-3.384455-1.3380979-9.0347303-3.0235683-11.9104036-3.5860262.1052586.8605321.2017616,1.7414307.2017616,2.6110991,0,6.4369551-2.7165481,22.1419987-4.9578145,31.81342,3.2005855-4.6686863,6.7038133-10.4065186,8.5573549-13.9097464.6186086-1.1700267,1.8356495-1.9028399,3.1625173-1.9028399h14.96081c1.9768826,0,3.5770802,1.6001976,3.5770802,3.5770802v15.9304075c0,1.9768826-1.6001976,3.5770802-3.5770802,3.5770802h-90.8210625c-1.503885,0-3.0368921-.1029745-4.5744675-.2600059l1.1945807,2.2325107.3542248-.3115884c.6543927-.5782562,1.4949389-.8944128,2.3668915-.8944128h91.479833c1.9768826,0,3.5770802,1.6003879,3.5770802,3.5772705v45.450598c0,5.4014996-.4010487,11.0272209-.7889638,16.4692631-.0873666,1.217041-.1747331,2.4317978-.2577218,3.6465547,4.1264046-.7529894,8.1540221-1.5756436,12.0381225-2.4654882-.1052586-2.1493316-.2464917-4.3392059-.3943867-6.6141627-.2914122-4.4781549-.5917705-9.1108668-.5917705-13.6765786v-42.8101864c0-1.9768826,1.6003879-3.5772705,3.5772705-3.5772705l30.0426769-.0110398c-.3026423-.3294804-.6119466-.6410688-.818086-.8473985-.3989549-.3586026-.9749271-.9233446-1.6609164-1.6001976ZM626.4610142,545.08179c2.7500481,1.0400237,9.2678982,4.8950019,12.100935,7.1073364-.7554638.8605321-1.8491637,1.8803797-2.3646074,2.3623233-.3744009.3519407-.7059751.6610546-.957035.9121145-.670191.6724751-1.0466857,1.5824959-1.0466857,2.5305848v107.5813571c0,3.2363696,0,6.5804723-.4101851,9.646677-1.2417853,7.3043395-7.2082172,9.1580714-16.3169903,10.1756349-.2173695-4.30799-.8965066-8.0263032-4.1911205-11.0700477.9008844.0628126,1.8065273.1031649,2.714264.1031649,9.2970204,0,9.2970204-7.4769788,9.2970204-11.4958407v-32.3399035c0-1.9768826-1.6003879-3.5772705-3.5772705-3.5772705h-34.3190702c-1.9768826,0-3.5772705,1.6003879-3.5772705,3.5772705,0,8.4945423-5.3679995,24.8383707-6.7531117,28.0703624-2.3354852,6.1434491-6.679069,13.620428-11.7602245,19.8624738,3.2812901-8.182954,6.1725713-16.9801386,7.3380298-22.8121897,1.8246097-10.482655,2.9318239-24.8674929,3.3665629-34.8661105l.0022841-61.0962553c0-7.1855666,0-7.3245156-.26229-10.7066865-.0649063-.8451145-.147895-1.9096922-.253344-3.384455l13.6341325,5.5271247c.4280771.1747331.8829923.26229,1.3447598.26229h11.4396901c1.5802118,0,2.9719858-1.0356459,3.426901-2.5484769,3.1716536-10.5700216,6.2959124-21.8707627,9.2814124-33.586257.2735202-1.0691459.0357841-2.2054823-.6410688-3.0795286-.679137-.8719525-1.7212545-1.3807343-2.8261846-1.3807343h-17.1596303c-1.1902029,0-2.3017948.5894864-2.967608,1.5756436-6.7978418,10.081416-12.7262055,18.4484298-19.5643996,26.530503-.3251026.3856311-.5603642.8293161-.6993132,1.3000297-.6768529.1994775-1.2933677.5961483-1.7595131,1.1654585-.6050943.7396655-1.8310813,2.1091697-3.3328725,3.7228815,5.7266021-10.5431835,21.3241031-42.9213456,23.6864264-57.3375897,3.7160292,1.2731916,10.9309083,4.1307824,14.6111534,5.7467783-.3586026.1859632-1.4523025.7307195-1.4523025.7307195-.5761625.2891281-1.0647681.7261513-1.4121406,1.2686234-2.0374111,3.1714633-3.8483162,6.3383584-5.5965992,9.3999949-.6319324,1.1072141-.6275546,2.4677723.0112301,3.5704182.6410688,1.1051204,1.8200415,1.7819733,3.0953269,1.7819733h12.5402423c1.1542284,0,2.2389823-.5559863,2.9114574-1.497223l.4303612-.6142307c1.3133535-1.8916098,2.2839028-3.0818126,2.8912812-3.5433898,2.7768862.7261513,11.168454,6.0065939,14.0485051,9.0078923-.286844.130003-.5736881.2577218-.8472082.3808725-4.6260499,2.0621554-6.6364326,3.122165-9.9626432,8.6671817-3.4874295,5.3837978-6.6095945,11.1686444-9.6287849,16.7629594-1.1945807,2.2121442-2.3937296,4.4378026-3.6309467,6.6611769-.6140404,1.1072141-.5984324,2.4588262.0449205,3.5525262.6431626,1.0916062,1.8154734,1.7617972,3.0840967,1.7617972h9.4584296c1.087038,0,2.1135475-.4931738,2.7926845-1.340382.2196536-.2756139.5736881-.7800178,1.0040493-1.4075724.4952675-.7217734,1.8131893-2.6447895,2.714264-3.6220007ZM601.5284247,591.6542584c0-1.9768826-1.6001976-3.5770802-3.5770802-3.5770802h-9.900021c-1.9768826,0-3.5770802,1.6001976-3.5770802,3.5770802v31.0200784c0,1.9766923,1.6001976,3.5770802,3.5770802,3.5770802h9.900021c1.9768826,0,3.5770802-1.6003879,3.5770802-3.5770802v-31.0200784ZM601.5284247,565.473412c0-2.2795249-.2150854-4.6844847-.4235089-7.0131176-.0896507-.9973873-.1793013-1.9791667-.2466821-2.9204034-.130003-1.8267035-1.6203737-3.261114-3.4516454-3.3216424,0,0-6.8987226-.2219377-6.9367908-.2219377-.824748,0-1.627226.2845599-2.2682948.80914l-2.4182836,1.9812604c-.8293161.679137-1.3089757,1.6967005-1.3089757,2.7681305v26.4005c0,1.9768826,1.6001976,3.5770802,3.5770802,3.5770802h9.900021c1.9768826,0,3.5770802-1.6001976,3.5770802-3.5770802v-18.4819298ZM625.2866097,591.6542584c0-1.9768826-1.6003879-3.5770802-3.5772705-3.5770802h-9.4584296c-1.9768826,0-3.5770802,1.6001976-3.5770802,3.5770802v31.0200784c0,1.9766923,1.6001976,3.5770802,3.5770802,3.5770802h9.4584296c1.9768826,0,3.5772705-1.6003879,3.5772705-3.5770802v-31.0200784ZM625.2866097,555.7953288c0-1.9768826-1.6003879-3.5770802-3.5772705-3.5770802h-12.0986509c-1.7549449,0-3.2521679,1.2730012-3.53235,3.0054859-.2801821,1.732675.7373814,3.4135772,2.4026756,3.9672794.7284354.2419235,1.7886353.7284354,2.68971,1.2191347-.2040457.1391393-.3879151.2556281-.5245801.3251026-1.1879188.6140404-1.9723144,1.8602035-1.9723144,3.1983014v20.0217893c0,1.9768826,1.6001976,3.5770802,3.5770802,3.5770802h9.4584296c1.9768826,0,3.5772705-1.6001976,3.5772705-3.5770802v-28.1600131ZM591.6714843,511.0086722h78.3092096c1.0086175,0,1.9700303.4235089,2.6491673,1.1721205.6768529.7463274,1.0086175,1.7437148.9123049,2.7479544-1.0109015,10.5140613-2.9990143,21.2475859-6.2645061,33.8059106l-.3228185,1.2058108c-1.7840671,6.6476627-3.6107705,13.4681551-5.9194177,20.0754655,13.5667518-15.8238165,17.6908723-28.3214223,24.2467906-48.1907484.2980742-.9054526.948089-1.6563482,1.799675-2.0821412,0,0,1.5465214-.7463274,1.9454763-.948089-.4661453-.3519407-1.0308874-.7307195-1.6831863-1.102646-1.4075724-.8070462-2.0979395-2.4588262-1.6809022-4.0255238.416847-1.5689816,1.8356495-2.6581134,3.4583073-2.6581134h21.9986719c.9680748,0,1.8938939.3898186,2.5684627,1.0847539.6724751.694745,1.0377396,1.6338879,1.0086175,2.599869-.0247443.8203701-.0449205,1.8647717-.0671904,3.0795286-.3473725,19.0558082-1.5352913,31.7574598-6.3631028,36.1817481-3.8462225,3.5502421-8.2773631,4.0276175-12.1055032,4.0276175-.3271963,0-.6521086-.0043778-.9772112-.0178921,3.1267331,3.3216424,3.7990179,7.080308,4.1039443,11.2246046,5.1774681-.6454466,9.4157932-1.8468796,13.2012969-3.7384894,4.1151744-1.8826638,6.8764527-5.0765873,8.42069-9.7026372,3.0795286-9.7587879,3.671299-20.6202217,4.2428933-31.125337.1366649-2.4946104.2712361-4.9713287.4370232-7.4189248.0582444-.8628162.4280771-1.676334,1.0400237-2.2882806.4101851-.4101851.9256287-.8630065,1.4814247-1.3447598.4640516-.4035231,1.1766886-1.0221317,1.7056465-1.5689816-2.9944461-2.4407438-10.8614338-7.055754-14.0104369-8.1584-.7575576.824748-1.8379336,2.4430279-2.3556614,3.2184776-.5424721.8137082-1.0131856,1.4995071-1.3426661,1.8938939-.6789467.8159923-1.6854704,1.2865155-2.747764,1.2865155h-117.0302982c-1.5219674,0-3.0795286-.1075427-4.6306181-.2531537l1.225987,2.2479283.3787788-.3338583c.654583-.5782562,1.4949389-.8942225,2.3668915-.8942225ZM663.1338587,602.6206019h-1.3310848c-2.3937296,0-4.8704479-.1659774-7.3045298-.3586026l1.3628422,2.0665333c.6610546-.6052847,1.5240611-.941427,2.4205677-.941427h4.817847M910.7820711,663.0870185c5.4418519,5.4844883,11.9081195,15.3239808,14.9720401,22.8727182,1.1072141,2.7702243,2.5528547,5.3411614,3.4337533,6.114327.0605285.0515824.1187728.1052586.1747331.1614092.9661714.9682651,2.306363,1.5935356,3.4091993,1.5935356,3.7563815,0,5.6637896-1.9791667,5.6637896-5.8834432,0-10.9196782-14.3018491-19.9500307-27.6535154-24.8585468ZM885.3005379,662.2689325c-2.4005819-1.3089757-9.2456283-4.4579788-12.7307737-5.7894147-.8316002,1.9500445-3.0460285,5.3299313-8.0105049,12.2870886l-1.0354555,1.4589645c-4.9825588,6.9773335-10.5679279,13.0377939-16.5164677,18.894399,11.0184652-6.2959124,21.7611262-13.7123627,32.205713-20.9205799l4.6730642-3.2230457c.376685-.2598156.8024781-.4436851,1.2507313-.5445659.383347-.0829887.8829923-.1703553,1.4456406-.2666679.416847-.0717586,1.07143-.1838695,1.7324846-.3228185-.6656228-.4235089-1.5666975-.9189668-2.7546163-1.4456406-.0873666-.0380682-.1747331-.0829887-.2598156-.1277189ZM663.099501,603.3871055h144.2723477c1.9768826,0,3.5770802,1.6001976,3.5770802,3.5770802v53.9219188c0,1.660726-1.1407142,3.1019888-2.7567101,3.4828613-8.6717499,2.0396952-18.7061517,4.2316632-29.1417925,5.5787071l8.2592807,12.4595376c12.3116426-7.6250642,23.5899234-13.7976355,34.3662748-18.8136944,2.5370564-1.2035267,5.0720191-2.3914455,7.602604-3.5749864,1.0645777-.4975516,2.1360078-.9973873,3.2095315-1.503885-3.3441027.8226542-6.3631028,1.5958197-8.1001556,2.0777634-.3138725.0873666-.6365006.130003-.957035.130003-.7733559,0-1.5352913-.2487758-2.1651299-.7284354-.8898446-.6768529-1.4121406-1.7303909-1.4121406-2.8486448v-7.040146c0-.972643.3945771-1.9028399,1.0961744-2.5774087l.8605321-.8293161c-1.1789727-.5984324-1.9567064-1.8200415-1.9567064-3.1916395v-36.5426349c0-1.9768826,1.6003879-3.5770802,3.5772705-3.5770802l24.4416998-.008946c-1.6609164-2.174076-4.6306181-5.3725677-6.5290802-7.0197795-.8717622.8896543-2.1112634,2.2254681-3.704799,3.9984954-.5491341.6073784-.9549413,1.0533476-1.1117823,1.2124728-.6724751.6745688-1.5845896,1.0512539-2.5349627,1.0512539h-10.5610756c-1.9768826,0-3.5772705-1.6003879-3.5772705-3.5772705v-29.8970659c0-1.35599.7644098-2.5954912,1.9768826-3.2005855l2.6404117-1.3200155c.4975516-.2489662,1.0444016-.376685,1.6001976-.376685h17.0564654c-1.781783-2.0821412-4.8814877-5.0743032-6.7753816-6.5804723-1.4816151,1.2573933-3.776748,3.6332308-4.6306181,4.6955244-.679137.8472082-1.7056465,1.3380979-2.7905908,1.3380979h-28.3796667c-1.3066916,0-2.5079342-.7105433-3.1377729-1.8558257-.6275546-1.1452824-.5828244-2.5416246.1187728-3.6421768,7.5062914-11.7916307,14.4430822-23.661682,21.2051399-36.2892909.2959804-.5514181.7240575-1.0063334,1.2395012-1.3335297-.2487758-.9166827-.123341-1.9028399.3608867-2.7321561l5.5002866-9.4607137c.4145629-.7149211,1.0622936-1.2617711,1.8356495-1.5531833.3315742-.123341.7373814-.2554377,1.1833506-.401239.3205344-.1031649.8316002-.268952,1.3358138-.4549152-3.4449835-2.2682948-12.7105975-6.6097848-18.4035093-7.9164764-.7284354,15.9180353-10.9288146,42.3767797-15.4090632,53.307688-3.4314692,8.3042012-6.5224183,15.4024013-9.4471995,21.6847994,1.2326489-1.5823055,2.5572326-3.294614,3.9716573-5.1392095.8000036-1.0423078,1.4165184-1.8468796,1.775121-2.3019852.679137-.8628162,1.7145926-1.364936,2.8128607-1.364936h11.8789973c1.9768826,0,3.5770802,1.6003879,3.5770802,3.5772705v31.2170814c0,1.9768826-1.6001976,3.5772705-3.5770802,3.5772705h-144.23799M789.0993873,602.6206019h-1.3310848c-2.3937296,0-4.8704479-.1659774-7.3045298-.3586026l1.3628422,2.0665333c.6610546-.6052847,1.5240611-.941427,2.4205677-.941427h4.817847M855.7240064,558.8362498c-.114395-.3317645-.2308837-.6656228-.3363327-.9907254,3.4986596,1.0826601,9.3396568,3.5481483,11.5988152,4.5028993,1.0916062.4617675,2.0060048.8472082,2.6358435,1.0982681.4236993.1703553.8742366.2554377,1.3291519.2554377h14.96081c1.9768826,0,3.5772705-1.6001976,3.5772705-3.5770802v-43.5601303c0-3.9493874-.2086138-8.0710334-.4438754-12.2960346-.0022841-.0335-.0178921-.2421139-.0224602-.2756139-.2150854-2.5865451-.4594834-5.4890565-1.5352913-8.2212125,4.4625469.8045718,12.8158562,3.2588299,15.7857483,5.18413-.6344069.6208926-1.4905611,1.3245837-1.9477604,1.7033624-.6096625.4998357-1.1251062.9370492-1.4456406,1.2573933-.670191.6724751-1.0444016,1.5802118-1.0444016,2.5283007v47.0812502c0,.9189668.3496566,1.775121.9412367,2.420758-.6007165.6543927-.9412367,1.5151151-.9412367,2.4182836v1.7595131c0,1.9768826,1.6001976,3.5770802,3.5770802,3.5770802h12.7598959c1.0310777,0,2.0126667-.4436851,2.6918037-1.2214188.3205344-.3631708.7440433-.8921287,1.2372171-1.5084532.7979099-.9996714,3.0437444-3.8081543,4.3279758-4.7830813,2.2009141,1.0647681,7.4680328,4.9151781,9.8438703,6.6522309,1.219325.8944128,2.2682948,1.6563482,2.9900682,2.1538998-.932481.8944128-2.4139057,1.9947747-3.0102444,2.436366-.5131596.3810629-.9458049.7059751-1.2326489.9458049-.8158019.679137-1.2865155,1.6854704-1.2865155,2.7479544v62.0399664c0,3.6465547.2421139,7.3896123.4750914,11.0093289.1008808,1.5488055.2017616,3.1019888.2847503,4.6551721-3.7744639,1.1386204-7.1117143,1.9567064-10.5454676,2.5819769v-4.3862202c0-1.9768826-1.6003879-3.5770802-3.5772705-3.5770802h-46.4200052c-1.9768826,0-3.5770802,1.6001976-3.5770802,3.5770802v1.6295101c-3.2590202,1.3179217-6.80241,2.2346044-10.3572203,2.9853097.0671904-.9054526.1366649-1.8131893.2061394-2.72321.3966708-5.1953602.8068559-10.5654534.8068559-15.7518675v-58.0795393c0-3.0370825-.3921027-6.0001223-.7708814-8.8689433-.1210569-.9212509-.244398-1.8445955-.3519407-2.7681305-.130003-1.5889674-.6903671-3.1960173-1.1833506-4.6125357ZM867.374404,587.6261016c0,1.9768826,1.6001976,3.5770802,3.5770802,3.5770802h46.4200052c1.9768826,0,3.5772705-1.6001976,3.5772705-3.5770802v-19.7998516c0-1.9768826-1.6003879-3.5772705-3.5772705-3.5772705h-44.2190912c-.948089,0-1.8579194.376685-2.5281104,1.0466857l-2.2011044,2.1988203c-.6722847.670191-1.0487794,1.5800214-1.0487794,2.5303945v17.6012216ZM867.374404,612.2649948c0,1.9768826,1.6001976,3.5770802,3.5770802,3.5770802h46.4200052c1.9768826,0,3.5772705-1.6001976,3.5772705-3.5770802v-16.9399766c0-1.9768826-1.6003879-3.5770802-3.5772705-3.5770802h-46.4200052c-1.9768826,0-3.5770802,1.6001976-3.5770802,3.5770802v16.9399766ZM867.374404,639.104802c0,1.9768826,1.6001976,3.5770802,3.5770802,3.5770802h46.4200052c1.9768826,0,3.5772705-1.6001976,3.5772705-3.5770802v-18.918953c0-1.9768826-1.6003879-3.5772705-3.5772705-3.5772705h-46.4200052c-1.9768826,0-3.5770802,1.6003879-3.5770802,3.5772705v18.918953ZM790.169582,633.3176714c.1770172,8.4947327,1.0489698,10.570212,4.4423708,10.570212,1.1273903,0,4.5632374,0,4.5632374-7.4210186,0-2.5551388-1.1675523-4.9265985-3.572512-7.1499728-2.2637266-2.2637266-4.7404449-4.5251692-6.9213732-6.3653869.3475628,1.2305552.6231767,2.4475961.8875605,3.6063927l.2063297.9189668c.3093043,1.7324846.3496566,3.7272593.3943867,5.8408068ZM847.2831402,624.1238159c-2.3512835-2.4251359-6.7262736-5.9641478-9.6601912-7.8110275-.1142047.540188-.2398298,1.1654585-.3742106,1.8693399-.0965029.5198215-.1749235.9143986-.2466821,1.1922966-1.9766923,7.185757-4.758337,13.8357038-7.6741722,20.0912638l14.9429179-14.3781759c.670191-.6454466,1.5621294-.9996714,2.4810962-.9996714.147895,0,.2957901.0091364.4436851.0270284.0270284.0022841.0584347.0066619.0875569.008946ZM927.0585187,515.4554208c-.138949.3921027-.2620997.7642195-.3450884,1.0107112-.1882473.5649324-.3631708,1.0489698-.5021198,1.3873962-3.7430576,10.5209136-9.0571906,19.8381101-14.9383497,28.8863547,8.5954231-6.916805,16.0389019-13.1028905,22.9018404-19.024402.6500148-.5603642,1.479331-.8673844,2.3377693-.8673844.2756139,0,.6207023.008946,1.0129953.0222699.4214152.0135142.9100208.0314063,1.4254645.0314063.407901,0,.7552735-.0133239,1.0489698-.0314063-2.5326786-3.2118156-9.272276-9.1512191-12.9414813-11.4149457ZM865.3998055,543.88667c.7843956,1.6987943,3.2207616,1.8826638,4.2314729,1.8826638,3.6086768,0,4.5634277-4.4244787,4.5634277-6.7643418,0-5.8902955-2.2614425-10.2854617-7.1185666-13.8334197l-.4549152-.3340486c-4.2316632-3.1086507-7.4838311-5.3813234-9.9738733-7.0422398,3.1198809,5.1348317,4.4311407,10.7449451,5.6055452,15.7699499.8740463,3.7341116,1.6967005,7.2596093,3.1469093,10.3214361ZM833.8239312,535.9903697l.3966708,1.0737141c2.0149508,5.46869,3.0370825,7.3850441,6.5917024,7.3850441,2.297417,0,4.34149-2.9226875,4.34149-5.2244823,0-7.1454047-9.5659723-11.5742612-17.300673-14.3265934,2.6581134,3.27006,3.8953305,5.9036194,5.9708098,11.0923176Z" fill="#fff"/>
    </g>
  </g>
</svg>