<?xml version="1.0" encoding="UTF-8"?>
<svg xmlns="http://www.w3.org/2000/svg" version="1.1" viewBox="0 0 1080 1080">
  <!-- Generator: Adobe Illustrator 28.7.3, SVG Export Plug-In . SVG Version: 1.2.0 Build 164)  -->
  <g>
    <g id="sleepless">
      <path d="M340.1088867,544.2636719h23.9077148v4.7421875h-22.5014648l10.6323242,35.8603516h11.8691406v4.7426758h-15.409668l-1.4057617-4.7426758-10.6328125-35.8603516h-24.4082031v34.2504883l22.1220703-6.559082,1.3476562,4.5463867-23.4697266,6.9589844-4.7421875,1.40625v-40.6030273h-.0004883v-4.7421875h.0004883v-5.855957h4.7421875v5.855957h23.0024414l-1.7363281-5.855957h4.9462891l1.7363281,5.855957ZM688.6928711,584.8662109h15.6230469v4.7426758h-92.1865234v-4.7426758h15.6230469v-46.4584961h60.9404297v46.4584961ZM683.9501953,573.2875977h-51.4550781v11.5786133h51.4550781v-11.5786133ZM683.9501953,556.9667969h-51.4550781v11.5786133h51.4550781v-11.5786133ZM683.9501953,540.6455078h-51.4550781v11.5786133h51.4550781v-11.5786133ZM498.6445312,589.6088867h5.4755859l29.5610352-51.2011719h-5.4760742l-29.5605469,51.2011719ZM293.1962891,538.4077148h4.7421875v36.3549805h-26.1079102v-36.3549805h4.7421875v8.9057617h16.6235352v-8.9057617ZM293.1962891,552.0556641h-16.6235352v17.9643555h16.6235352v-17.9643555ZM771.199707,547.2543945l8.8466797-8.8466797h-6.706543l-5.4936523,5.4936523,3.3535156,3.3530273ZM432.6855469,538.4077148h-4.7421875v2.3920898h-43.722168v4.7421875h43.722168v9.5556641h-42.3681641v4.7421875h37.003418l-38.3574219,29.769043h7.7348633l38.3574219-29.769043h.0014648l38.3579102,29.769043h7.734375l-38.3574219-29.769043h37.0029297v-4.7421875h-42.3671875v-9.5556641h43.7216797v-4.7421875h-43.7216797v-2.3920898ZM203.112793,538.4077148h-4.7421875v4.5517578h-43.722168v4.0263672h-53.1567383v.7158203h92.7285156l-39.5717773,41.9072266h6.5224609l39.5708008-41.9057617,39.5708008,41.9057617h6.5224609l-39.5717773-41.9072266h39.5717773v-4.7421875h-43.722168v-4.5517578ZM745.4150391,538.4077148h-4.7421875v9.0708008l-14.2792969,5.7138672v5.1079102l14.2792969-5.7143555v32.2802734h-10.5356445v4.7426758h15.277832v-38.9204102l12.3339844-4.9355469v-5.1074219l-12.3339844,4.9350586v-7.1728516ZM805.6113281,547.2543945l3.3530273-3.3530273-5.4931641-5.4936523h-6.706543l8.8466797,8.8466797ZM809.1728516,549.3457031h4.7421875v40.2631836h-51.019043v-40.2631836h23.1381836v-10.9379883h4.7426758v10.9379883h18.3959961ZM786.0341797,571.8481445h-18.3959961v13.0180664h18.3959961v-13.0180664ZM786.0341797,554.0878906h-18.3959961v13.0180664h18.3959961v-13.0180664ZM809.1728516,571.8481445h-18.3959961v13.0180664h18.3959961v-13.0180664ZM809.1728516,554.0878906h-18.3959961v13.0180664h18.3959961v-13.0180664ZM555.793457,538.4077148l29.5610352,51.2011719h5.4760742l-29.5610352-51.2011719h-5.4760742ZM777.1313477,531.8476562l-3.3530273-3.3535156-5.1757812,5.1762695h6.706543l1.8222656-1.8227539ZM844.621582,504.9145508h78.3271484v12.6635742h4.7426758v-17.40625h-41.5351562v-9.7807617h-4.7421875v9.7807617h-41.5351562v17.40625h4.7426758v-12.6635742ZM793.5576172,515.4213867l10.6694336-10.6694336-3.3530273-3.3530273-10.6694336,10.6694336,3.3530273,3.3530273ZM918.1450195,515.6616211h-68.7197266v4.7421875h18.3295898l-12.5507812,12.550293h-57.1865234l-4.4599609-4.4599609-3.3530273,3.3535156,1.8227539,1.8227539h69.1674805l13.2666016-13.2666016h18.6474609l13.2666016,13.2666016h6.706543l-13.2666016-13.2666016h18.3295898v-4.7421875ZM766.4624023,501.3989258l-3.3535156,3.3530273,10.6694336,10.6694336,3.3530273-3.3530273-10.6689453-10.6694336ZM781.296875,533.6704102h4.7421875v-9.3413086h27.8032227v-4.7421875h-27.8032227v-21.0654297l23.4633789-2.7441406v-4.7744141l-51.6689453,6.0424805v4.7744141l23.4633789-2.7436523v20.5107422h-27.8032227v4.7421875h27.8032227v9.3413086ZM610.7255859,504.9833984v-4.0263672h-24.0185547v-.7163086h64.4072266v-9.8496094h4.7421875v9.8496094h40.3886719v4.7426758h-40.3886719v9.8613281h28.0986328v18.8256836h-60.9399414v-18.8256836h28.0991211v-9.8613281h-40.3886719ZM627.7573242,519.5869141v11.5786133h51.4555664v-11.5786133h-51.4555664ZM164.7050781,514.3681641h28.9277344v19.3022461h4.7426758v-19.3022461h35.0761719v-4.7421875h-35.0761719v-19.2348633h-4.7426758v19.2348633h-26.5917969l7.3188477-14.8579102h-5.2861328l-19.1625977,38.9023438h5.2866211l9.5073242-19.3022461ZM556.1191406,532.9541016h40.3413086v.7163086h-72.9926758l14.1611328-24.527832v-18.7514648h4.7421875v18.7509766l13.7480469,23.8120117ZM550.6425781,532.9541016l-10.6425781-18.434082-10.6425781,18.434082h21.2851562ZM735.9350586,533.6704102h4.7426758v-16.7045898h12.3339844v-4.7421875h-12.3339844v-21.8325195h-4.7426758v21.8325195h-14.2788086v4.7421875h14.2788086v16.7045898ZM423.2055664,521.0727539h-34.0341797v4.7421875h34.0341797v7.8554688h4.7421875v-7.8554688h34.034668v-4.7421875h-34.034668v-10.2475586h39.6601562v-4.7421875h-22.8999023l8.0615234-15.6918945h-5.3310547l-8.0615234,15.6918945h-27.6000977l-8.0615234-15.6918945h-5.331543l8.0615234,15.6918945h-22.8999023v4.7421875h39.6601562v10.2475586ZM271.8354492,533.6704102h-4.7421875v-36.5083008h26.1079102v36.5083008h-4.7421875v-9.059082h-16.6235352v9.059082ZM271.8354492,519.8691406h16.6235352v-17.9648438h-16.6235352v17.9648438ZM302.6801758,533.6704102v-12.1484375h0v-4.7426758h0v-17.2460938h0v-4.7421875h53.6704102v26.730957h-26.3173828l3.6020508,12.1484375h-4.9462891l-3.6020508-12.1484375h-17.6640625v12.1484375h-4.7426758ZM307.4228516,516.7792969h44.1850586v-17.2460938h-44.1850586v17.2460938ZM934.6157227,588.8925781v-4.0263672h-43.722168v-15.9555664h31.9887695v-4.7421875h-31.9887695v-15.9555664h31.9887695v-4.7421875l-5.0629883-5.0629883h-6.706543l5.0629883,5.0629883h-55.3066406l5.0629883-5.0629883h-6.706543l-5.0629883,5.0629883v4.7421875h31.9887695v15.9555664h-31.9887695v4.7421875h31.9887695v15.9555664h-43.7216797v4.7426758h147.0620117v-.7163086h-54.8759766Z" fill="#fff"/>
    </g>
  </g>
</svg>