<?xml version="1.0" encoding="UTF-8"?>
<svg xmlns="http://www.w3.org/2000/svg" version="1.1" viewBox="0 0 1080 1080">
  <!-- Generator: Adobe Illustrator 28.7.3, SVG Export Plug-In . SVG Version: 1.2.0 Build 164)  -->
  <g>
    <g id="doubleblind">
      <path d="M187.5263672,475.4453125h-45.9418945v-21.3847656h45.9418945v-9.5058594h30.0979004v9.5058594h34.8509521v-9.5058594h30.0999756v9.5058594h45.9398193v21.3847656h-45.9398193v7.1289062h-30.0999756v-7.1289062h-34.8509521v7.921875h-30.0979004v-7.921875ZM357.74646,574.7255859v1.4492188h1.4494629v-1.4492188h-1.4494629ZM391.2366943,609.6650391h1.4493408v-1.4492188h-1.4493408v1.4492188ZM348.9074707,573.6181641v1.8320312c0-.6181641.0666504-1.2197266.0925293-1.8320312h-.0925293ZM391.2366943,602.6972656h1.4493408v-1.4492188h-1.4493408v1.4492188ZM391.2366943,613.984375h1.4493408v-.1572266h-1.4493408v.1572266ZM353.4272461,574.7255859v1.4492188h.1577148v-1.4492188h-.1577148ZM391.2366943,595.7285156h1.4493408v-1.4492188h-1.4493408v1.4492188ZM261.9818115,597.4257812c11.6085205,5.8164062,34.5773926,10.5683594,68.9088135,14.2578125-3.166748,4.2197266-7.126709,10.5556641-11.880127,19.0097656-.5322266,1.0517578-1.0646973,1.84375-1.5843506,2.3759766-26.9310303-4.2333984-49.380249-11.0898438-67.3265381-20.59375v22.9697266h-30.0998535v-23.7617188c-16.3723145,9.5039062-38.5500488,16.8925781-66.5332031,22.1777344-1.5844727-2.6484375-4.7531738-7.6601562-9.5043945-15.0488281-1.5844727-3.1689453-2.9101562-5.5449219-3.9621582-7.1289062,30.0998535-3.1679688,52.5385742-7.921875,67.3286133-14.2578125h-64.159668v-21.3857422h76.8308105v-7.9208984h-11.0888672l-14.2556152,4.7519531c-1.0646973-2.1044922-2.1166992-4.2197266-3.1688232-6.3369141h-2.3776855c-21.1256104,1.0654297-33.5380859,2.1171875-37.2266846,3.1689453l-8.7131348-17.4257812c1.052002,0,2.3776855-.2597656,3.9599609-.7919922h2.3776855c.5196533-1.0517578,1.5844727-2.3769531,3.166748-3.9609375,2.1040039-2.1025391,6.0661621-6.8564453,11.8820801-14.2568359l-24.5554199-27.7226562,15.0510254-12.6738281,3.9599609,3.9609375c3.1689453-4.7529297,6.3356934-10.2978516,9.5043945-16.6337891l22.1777344,5.5439453c-3.166748,4.2333984-7.9199219,10.5703125-14.2556152,19.0097656-2.1166992,3.1689453-3.7011719,5.2851562-4.7531738,6.3369141l4.7531738,4.7529297,11.880127-18.2167969,16.6333008,6.3359375v-15.0498047h15.0488281l3.9621582-9.5039062,25.3466797.7910156-3.9621582,8.7128906h19.802124v9.5048828l7.9221191-7.1279297,3.166748,3.9599609c3.1688232-4.7519531,6.3377686-10.296875,9.5064697-16.6337891l23.762207,7.9199219c-5.8179932,7.4013672-12.1535645,15.0507812-19.0109863,22.9716797l4.7532959,5.5439453,12.6732178-16.6337891,20.5933838,8.7128906c-1.5843506,1.5839844-4.2315674,4.4921875-7.9200439,8.7128906-6.3376465,7.4003906-11.3624268,13.2050781-15.0488281,17.4257812l10.2956543-2.3769531c2.6364746,5.8173828,6.5964355,15.5830078,11.8820801,29.3066406,1.052002,3.1689453,1.8432617,5.2851562,2.3754883,6.3369141l-19.0087891,5.5449219c0-.5195312-.2736816-1.5839844-.7932129-3.1679688-.5324707-1.0517578-1.0648193-1.8447266-1.5844727-2.3769531-2.6470947,0-6.6092529.2724609-11.880127.7919922-15.3223877.5332031-24.5554199,1.0654297-27.7242432,1.5849609l-3.9599609-10.296875v9.5048828h-15.0489502v7.9208984h76.8310547v21.3857422h-64.9488525ZM292.0795898,549.9013672l11.0888672-.7929688-3.1689453-7.9208984-7.9199219,8.7138672ZM265.1485596,549.9013672h2.3776855c.5196533-1.0527344,1.5822754-2.3769531,3.166748-3.9599609,2.104126-2.1044922,6.0640869-6.8564453,11.8822021-14.2578125l-17.4266357-19.0097656v37.2275391ZM185.9420166,549.9013672l-3.960083-8.7138672-7.9221191,9.5058594,11.8822021-.7919922ZM204.9509277,512.6738281c-2.6470947,3.7001953-6.8679199,8.984375-12.6733398,15.8417969-2.6469727,3.7001953-4.7512207,6.3369141-6.3355713,7.9199219l11.0888672-3.9599609c3.1688232,6.3369141,5.8032227,12.6728516,7.9200439,19.0097656v-38.8115234ZM242.9708252,538.0195312h-15.8421631v10.296875h15.8421631v-10.296875ZM242.9708252,508.7128906h-15.8421631v10.296875h15.8421631v-10.296875ZM348.9074707,577.2832031h.0925293c-.0258789-.6123047-.0925293-1.2138672-.0925293-1.8330078v1.8330078ZM456.8323975,454.0605469c19.0111084,17.9570312,44.8773193,31.9541016,77.6241455,41.9794922-1.5843506,2.6484375-4.2335205,7.6601562-7.9199219,15.0488281-4.2336426,6.8691406-7.1289062,11.8808594-8.7133789,15.0498047-4.7531738-2.1035156-11.6210938-5.5439453-20.5953369-10.296875-5.2835693-3.1679688-9.2435303-5.2724609-11.8800049-6.3359375v11.8808594h-97.4263916v-11.0898438c-9.5045166,5.8164062-19.802124,11.0898438-30.8909912,15.8417969-6.3356934-11.0888672-11.880127-20.59375-16.6333008-28.5136719,40.65625-15.8427734,68.378418-33.7880859,83.1685791-53.8623047l38.8110352,2.3759766c-.5323486.5332031-1.3234863,1.8564453-2.3756104,3.9609375-1.5843506,1.5839844-2.6491699,2.9082031-3.1688232,3.9609375ZM439.407959,473.0703125c-7.9221191,7.9199219-17.1657715,15.3212891-27.7243652,22.1777344h52.27771c-9.5045166-6.8564453-17.6981201-14.2578125-24.5533447-22.1777344ZM392.6860352,537.0742188v4.1611328h1.7646484v1.4492188h-1.7646484v5.5195312h1.7646484v1.4492188h-1.7646484v5.5195312h1.7646484v1.4492188h-1.7646484v2.2597656c8.5554199.4101562,15.3986816,7.2783203,15.769043,15.84375h2.335083v-1.7646484h1.4493408v1.7646484h5.519043v-1.7646484h1.4494629v1.7646484h5.5189209v-1.7646484h1.4493408v1.7646484h4.1616211v-1.1074219h4.4272461c-.9400635-22.2392578-18.7424316-40.0654297-40.9711914-41.0458984v4.5019531h-1.1079102ZM417.7585449,574.7255859v1.4492188h1.4494629v-1.4492188h-1.4494629ZM424.7269287,576.1748047h1.4493408v-1.4492188h-1.4493408v1.4492188ZM393.7939453,532.5722656v-.1757812h-3.6650391v.1679688c.5861816-.0244141,1.1616211-.0888672,1.7536621-.0888672.6452637,0,1.2729492.0683594,1.911377.0966797ZM391.2366943,588.7607422v3.2666016c.2159424.0078125.4278564.0322266.645874.0322266.2712402,0,.5354004-.0273438.8034668-.0400391v-3.2587891h-1.4493408ZM353.5849609,574.7255859h4.161499v-1.7646484h1.4494629v1.7646484h5.5189209v-1.7646484h1.4494629v1.7646484h5.5189209v-1.7646484h1.4493408v1.7646484h2.1774902c.3728027-8.6181641,7.2978516-15.5185547,15.9266357-15.8515625v-2.2519531h-1.9222412v-1.4492188h1.9222412v-5.5195312h-1.9222412v-1.4492188h1.9222412v-5.5195312h-1.9222412v-1.4492188h1.9222412v-4.1611328h-1.1077881v-4.5097656c-22.3024902.9023438-40.1865234,18.7617188-41.1289062,41.0537109h4.5849609v1.1074219ZM408.4550781,574.7255859h-3.1838379v1.4492188h3.1838379c.010498-.2412109.0366211-.4794922.0366211-.7246094,0-.2441406-.026123-.4824219-.0366211-.7246094ZM410.7901611,574.7255859v1.4492188h1.4493408v-1.4492188h-1.4493408ZM391.2366943,613.8271484v-4.1621094h-1.9222412v-1.4492188h1.9222412v-5.5185547h-1.9222412v-1.4492188h1.9222412v-5.5195312h-1.9222412v-1.4492188h1.9222412v-2.2519531c-8.6287842-.3330078-15.5535889-7.2333984-15.9266357-15.8525391h-2.1774902v1.9228516h-1.4493408v-1.9228516h-5.5189209v1.9228516h-1.4494629v-1.9228516h-5.5189209v1.9228516h-1.4494629v-1.9228516h-4.161499v1.1083984h-4.5849609c.9423828,22.2919922,18.826416,40.1513672,41.1289062,41.0537109v-4.5097656h1.1077881ZM688.909668,488.1191406c4.7531738-.5195312,11.8820801-1.0517578,21.3864746-1.5849609,10.5566406-1.0517578,18.2177734-1.8427734,22.9711914-2.375l-6.3377686-30.0986328c-28.5133057,2.6474609-66.8068848,5.0244141-114.8508301,7.1269531.5196533,3.1689453,1.5843506,8.1943359,3.1688232,15.0507812,1.052002,7.4013672,1.8432617,12.6728516,2.3756104,15.8408203,4.2208252-.5195312,10.5565186-.7910156,19.0109863-.7910156,8.4396973-.5205078,14.7752686-.7919922,19.0089111-.7919922v35.6425781h-49.1087646v31.6835938h49.1087646v39.6035156h-44.3554688v28.5146484h120.3952637v-28.5146484h-42.7731934v-39.6035156h47.524292v-31.6835938h-47.524292v-38.0195312ZM578.8121338,444.5546875c-7.9222412,30.0986328-19.802124,58.0947266-35.6444092,83.9609375,1.052124,6.8681641,2.6364746,15.8408203,4.753418,26.9296875,1.052002,5.8173828,1.8431396,10.296875,2.3754883,13.4658203,5.8054199-6.3369141,11.0888672-13.1933594,15.8421631-20.5947266v86.3369141h31.682251v-143.3652344c5.8052979-12.6738281,10.5563965-25.6064453,14.2576904-38.8125l-33.2666016-7.9208984ZM520.9899902,531.6835938h-80.7908936v102.9697266h29.3066406v-75.2470703h22.9710693v19.8017578c.5195312,6.3359375-2.1169434,9.2451172-7.9222412,8.7128906h-15.0488281c.5196533,2.1162109,1.5843506,6.3369141,3.1688232,12.6728516,1.052002,6.3369141,1.8432617,10.5693359,2.3756104,12.6738281,10.5565186,0,18.4786377-.2724609,23.762085-.7919922,15.8422852,0,23.2298584-8.7138672,22.1777344-26.1386719v-54.6533203ZM885.3468018,553.8613281h46.7331543l-3.1688232,49.9003906c.5196533,17.4257812-8.1936035,26.6591797-26.1398926,27.7236328-4.7512207.5195312-15.0488281.7919922-30.8909912.7919922-1.0626221-8.9853516-2.6470947-16.6337891-4.7510986-22.9707031-7.4003906,7.9208984-19.0111084,16.8945312-34.8510742,26.9306641-.5324707-1.0644531-1.8581543-2.9082031-3.9621582-5.5439453-6.8679199-8.4541016-12.1516113-14.5302734-15.8400879-18.2177734,19.5285645-8.4414062,32.2019043-19.0097656,38.0200195-31.6835938h-18.2177734v-26.9306641h23.762207v-11.8808594c-6.3377686,2.6484375-12.9470215,4.7529297-19.8022461,6.3359375l-5.5444336-15.0488281v3.1679688l-2.3776855,36.4355469-16.6333008-.7919922,1.5844727-33.2666016h-6.3356934v69.703125c0,15.3085938-7.9221191,23.7617188-23.762207,25.3457031h-8.7131348c-7.4003906.5205078-12.9448242.7919922-16.6333008.7919922-.5324707-2.1162109-1.0648193-5.8173828-1.5844727-11.0888672-1.5844727-7.4013672-2.6491699-12.4013672-3.1689453-15.0488281h16.6333008c6.8574219.53125,10.0263672-2.8964844,9.5045166-10.2978516v-31.6835938c-6.868042,14.7900391-15.0489502,27.9960938-24.5533447,39.6044922-.5323486-1.5839844-1.3234863-4.7519531-2.3754883-9.5058594-2.1169434-12.140625-3.9621582-21.1123047-5.5444336-26.9296875,8.4395752-7.9208984,15.8399658-18.2177734,22.1777344-30.890625h-21.3867188v-25.3466797h23.762207c-3.7011719-3.1689453-8.9847412-7.6484375-15.842041-13.4658203-1.5823975-1.5839844-2.907959-2.6367188-3.960083-3.1679688l17.4266357-17.4248047c4.7510986,4.2324219,10.8173828,8.7119141,18.2176514,13.4638672l11.8800049-14.2568359h-47.524292v-25.3466797h79.9997559v25.3466797l-27.722168,34.8515625h26.9310303v7.1289062c9.5043945-2.6367188,17.9440918-5.0126953,25.3466797-7.1289062-1.3742676-1.3740234-3.345459-3.7382812-5.9111328-7.1025391-.1296387-.0976562-1.0419922-1.1386719-2.8022461-3.1943359-2.1168213,3.1679688-4.4924316,5.8154297-7.1289062,7.9199219l-14.2576904-22.9697266c10.5565186-10.5566406,20.854248-24.5546875,30.8909912-41.9804688l31.6843262.7929688c-2.1166992,4.7519531-4.4924316,8.984375-7.1289062,12.6728516h56.2376709v26.1376953h-10.2977295c-6.3376465,9.5058594-13.7380371,18.4902344-22.1777344,26.9316406,9.5043945,3.1679688,21.1130371,5.8164062,34.8510742,7.9208984-3.1689453,8.4521484-6.6091309,17.4248047-10.2977295,26.9296875-22.710083-4.7519531-39.3433838-10.296875-49.8999023-16.6337891-6.3377686,3.1689453-12.9468994,6.3369141-19.802124,9.5058594h26.1376953l-.7911377,13.4648438ZM867.1291504,485.7421875c4.2208252,5.2861328,8.9719238,10.0380859,14.2575684,14.2578125,4.7512207-4.2197266,8.972168-8.9716797,12.6733398-14.2578125h-26.9309082ZM881.3867188,580.7919922c-2.1166992,9.5048828-5.8179932,17.6982422-11.0888672,24.5546875h20.5933838c6.8552246.5322266,10.0240479-2.1044922,9.5045166-7.9208984l.7932129-16.6337891h-19.8022461ZM434.857666,575.4501953c0,.6191406-.0666504,1.2207031-.0925293,1.8330078h.2501221v-3.6650391h-.2501221c.0258789.6123047.0925293,1.2138672.0925293,1.8320312ZM378.6516113,574.7255859h-3.3415527c-.010498.2421875-.0366211.4804688-.0366211.7246094,0,.2451172.026123.4833984.0366211.7246094h3.3415527v-1.4492188ZM364.7148438,574.7255859v1.4492188h1.4494629v-1.4492188h-1.4494629ZM430.3378906,576.1748047h-4.1616211v1.9228516h-1.4493408v-1.9228516h-5.5189209v1.9228516h-1.4494629v-1.9228516h-5.519043v1.9228516h-1.4493408v-1.9228516h-2.335083c-.3706055,8.5664062-7.213623,15.4335938-15.769043,15.8447266v2.2597656h1.7646484v1.4492188h-1.7646484v5.5195312h1.7646484v1.4492188h-1.7646484v5.5185547h1.7646484v1.4492188h-1.7646484v4.1621094h1.1079102v4.5019531c22.2287598-.9804688,40.0311279-18.8066406,40.9711914-41.0458984h-4.4272461v-1.1083984ZM390.1289062,618.3369141v.1679688h3.6650391v-.1757812c-.6384277.0283203-1.2661133.0966797-1.911377.0966797-.592041,0-1.1674805-.0654297-1.7536621-.0888672ZM392.6860352,555.1728516h-1.4493408v1.4492188h1.4493408v-1.4492188ZM392.6860352,562.140625v-3.2587891c-.2680664-.0126953-.5322266-.0400391-.8034668-.0400391-.2180176,0-.4299316.0234375-.645874.0322266v3.2666016h1.4493408ZM403.8217773,578.0976562h1.4494629v-1.9228516h-1.4494629v1.9228516ZM389.3144531,587.3105469v1.4501953h1.9222412v-1.4501953h-1.9222412ZM371.6832275,574.7255859v1.4492188h1.4493408v-1.4492188h-1.4493408ZM391.2366943,587.3105469h1.4493408v-11.1357422h-1.4493408v11.1357422ZM392.6860352,548.2041016h-1.4493408v1.4492188h1.4493408v-1.4492188ZM392.6860352,541.2353516h-1.4493408v1.4492188h1.4493408v-1.4492188ZM394.4506836,588.7607422v-1.4501953h-1.7646484v1.4501953h1.7646484ZM394.4506836,563.5898438v-1.4492188h-1.7646484v1.4492188h1.7646484ZM378.6516113,578.0976562h1.4494629v-1.9228516h-1.4494629v1.9228516ZM392.6860352,574.7255859v1.4492188h11.1357422v-1.4492188h-11.1357422ZM403.8217773,572.9609375v1.7646484h1.4494629v-1.7646484h-1.4494629ZM392.6860352,563.5898438h-1.4493408v11.1357422h1.4493408v-11.1357422ZM380.1010742,572.9609375h-1.4494629v1.7646484h1.4494629v-1.7646484ZM380.1010742,574.7255859v1.4492188h11.1356201v-1.4492188h-11.1356201ZM389.3144531,562.140625v1.4492188h1.9222412v-1.4492188h-1.9222412Z" fill="#fff"/>
    </g>
  </g>
</svg>