<?xml version="1.0" encoding="UTF-8"?>
<svg xmlns="http://www.w3.org/2000/svg" version="1.1" viewBox="0 0 1080 1080">
  <!-- Generator: Adobe Illustrator 28.7.3, SVG Export Plug-In . SVG Version: 1.2.0 Build 164)  -->
  <g>
    <g id="last_heist">
      <path d="M364.4433594,466.5c-5.5378418-2.3149414-9.6875-4.3557129-12.4487305-6.0991211l14.1088867-24.3991699c5.9313965,2.2709961,14.5258789,5.6503906,25.7272949,10.1239014.2817383.1124268.5449219.2171631.829834.3309326.6484375.3415527,1.2412109.6435547,1.8537598.9599609,3.5654297,1.8400879,6.5656738,3.2814941,8.9353027,4.2701416l-8.9353027,16.6793213-2.6835938,5.0097656-3.3195801,6.1967773c-6.0966797-3.4868164-14.1088867-7.8450928-24.0678711-13.0725098ZM393.4907227,489.1556396c.3381348.2540283.6845703.5333252,1.0236816.7906494,3.1435547,2.3845215,6.3349609,4.9145508,9.5712891,7.5837402.8908691.7346191,1.7858887,1.4829102,2.6835938,2.2388916,3.5461426,2.9866943,7.1364746,6.1107178,10.7890625,9.4301758,7.498291-8.3414307,13.5705566-16.3031006,18.2580566-23.9050293.9523926-1.5443115,1.8476562-3.0737305,2.6835938-4.5878906.208252-.3768311.4355469-.758667.6362305-1.133667h65.5634766l-9.9589844,21.7839355,29.0471191,9.5859375,14.1086426-31.369873v-28.7574463h-85.4816895c1.6599121-3.4866943,3.0327148-7.2579346,4.1496582-11.3292236l-6.6391602-.5505371-2.6838379-.2224121-8.7414551-.7249756-2.6835938-.2224121-10.7890625-.8946533c-4.0869141,12.4693604-10.2019043,24.399292-18.2580566,35.8154297-.8835449,1.2518311-1.7524414,2.5075684-2.6835938,3.7468262-2.9436035,3.9169922-6.1486816,7.7647705-9.5712891,11.5549316-.3493652.387207-.6691895.7819824-1.0236816,1.1676025ZM717.0031738,592.5518799h23.8295898s-.4587402,26.7445068-.4587402,29.0594482c-2.7768555,14.515625-12.1772461,21.4865723-28.2172852,20.914917h-17.4282227c-16.5983887.5716553-24.6259766-7.5579834-24.067627-24.3990479v-12.2009277c-6.6394043,11.0421143-21.5778809,25.270752-44.8156738,42.6990967-1.6599121-2.9151611-5.2666016-8.1424561-10.7888184-15.6849365-.2871094-.4302979-.5551758-.8261719-.8300781-1.2341309v8.2049561h-121.1455078v-54.8999023h-14.1086426v27.8858643h11.4248047v27.0140381h-148.3613281v-24.0240479c-1.75,2.1518555-3.8129883,4.6315918-6.2114258,7.4675293-7.1977539,9.2856445-12.1772461,16.2563477-14.9384766,20.9123535-37.6333008-15.1135254-62.8022461-40.0841064-75.5224609-74.9406738-9.4162598,30.2137451-35.4150391,56.0560303-78.0124512,77.5556641-7.197998-12.1982422-14.9384766-22.6584473-23.237793-31.369873,47.6262207-19.3165283,74.0187988-48.4082031,79.2949219-87.1989746h40.8059082c9.3852539,42.6789551,36.5437012,70.322998,81.5693359,82.8405762-.4091797.5377197-.8686523,1.1276855-1.3525391,1.7434082h15.0334473v-54.0283203c-.5585938,0-1.1169434.3001709-1.6599121.871582-1.1171875.5874023-1.9470215,1.171875-2.4897461,1.7434082l-14.1088867-29.6264648c1.6601562-1.1588135,4.1499023-2.6149902,7.4694824-4.3583984,10.501709-5.7990723,18.529541-10.4575195,24.067627-13.9416504-7.1977539-4.0581055-17.9868164-9.8728027-32.3669434-17.4282227l13.2788086-25.270752c12.1616211,5.2272949,24.067627,11.0419922,35.6865234,17.4282227l-13.2788086,23.5274658c2.2026367-1.1588135,4.9794922-2.8995361,8.2993164-5.2301025,3.3112793-1.9822998,5.7734375-3.5202637,7.4692383-4.6645508.2822266-.1905518.5930176-.3956299.829834-.5629883.5473633,1.1572266,1.1665039,2.6032715,1.8537598,4.3325195.6955566,1.75,1.4611816,3.7900391,2.2958984,6.1251221,2.7612305,6.9708252,4.6923828,11.9138184,5.8093262,14.8132324.5039062-.1075439.970459-.2259521,1.4660645-.3358154.9074707-.201416,1.8039551-.4058838,2.6835938-.6149902,12.4121094-2.9501953,22.0917969-6.6733398,29.0471191-11.1673584.9462891-.6113281,1.838623-1.237915,2.6835938-1.8780518,4.0993652-3.1032715,7.0148926-6.541748,8.7414551-10.3166504,1.0231934-2.2375488,3.5134277-16.4119873,3.5134277-19.2578125h31.5371094l-.6359863,5.0759277-.1940918,1.0230713-.829834,6.9735107s.6481934,1.6309814,1.0239258,2.4287109c1.8703613,3.9716797,4.7731934,7.5891113,8.7409668,10.8404541.8459473.6932373,1.7426758,1.3687744,2.6838379,2.0292969,10.579834,7.4241943,27.1713867,12.7838135,49.795166,16.0714111-1.1169434,2.9151611-3.0483398,6.9707031-5.8095703,12.2009277-1.1166992,3.4841309-3.6066895,9.5856934-7.4692383,18.2999268-14.4448242-3.1940918-26.5983887-7.1273193-36.5163574-11.7830811-.9040527-.4243164-1.8168945-.8459473-2.6838379-1.2825928-3.1767578-1.6004639-6.0698242-3.2928467-8.7409668-5.0567627-.9230957-.6096191-1.8212891-1.2270508-2.6838379-1.8562012-4.7983398-3.4987793-8.6884766-7.2911377-11.6186523-11.3939209-3.6342773,5.3424072-9.4443359,10.2954102-17.4282227,14.8582764-.8618164.4921875-1.7717285.9760742-2.6838379,1.4592285-2.7001953,1.4304199-5.5979004,2.8256836-8.7414551,4.1762695-.8669434.3728027-1.7824707.7366943-2.6835938,1.1033936-7.8564453,3.1966553-16.9648438,6.1685791-27.387207,8.9036865-.545166-1.1408691-1.0749512-2.2456055-1.5944824-3.3253174.5192871,1.0797119,1.0493164,2.1844482,1.5944824,3.3253174h117.0185547v55.769043h22.3852539v-162.0821533h26.557373v81.0411377h2.6835938v-.0002441h11.4250488v-54.0268555h-11.4250488v-27.0140381h37.1525879v38.3405762c17.1411133-15.6849365,29.5898438-32.8131104,37.3461914-51.413208h33.1967773c-1.1169434,1.7434082-2.2182617,4.0712891-3.3195801,6.9735107-2.7768555,4.6558838-4.708252,8.1398926-5.8095703,10.454834h48.9650879v.0001221h116.387207v-17.4283447h32.3666992v17.4283447h12.2182617c-2.3623047-2.8837891-4.7702637-5.8659668-7.2387695-8.9804688l24.067627-14.8157959c7.7407227,7.5579834,14.9387207,15.4005127,21.5778809,23.5300293l-.4226074.2662354h9.5517578v31.3724365h-214.2792969l-8.3371582,11.3265381h24.8974609v77.5582275h-50.625c0,.5845947-.2871094,1.7408447-.8300781,3.4841309-.5583496,1.1717529-1.1169434,2.3280029-1.659668,3.4866943h16.5983887v27.0141602c0,4.0712891,1.9311523,6.0991211,5.8093262,6.0991211h5.8095703c7.1743164-.2446289,6.6391602-6.9709473,6.6391602-6.9709473l-.1330566-15.9893799ZM406.7692871,557.1281738v-3.4616699c-.9377441-1.9489746-1.8288574-3.7851562-2.6835938-5.534668-2.4997559-5.1154785-4.651123-9.3914795-6.4455566-12.7904053-.9814453.5552979-2.0310059,1.1560059-3.1257324,1.786499-.861084.49646-1.7524414,1.0126953-2.6835938,1.5556641-6.5622559,3.8269043-14.8547363,8.8094482-24.8977051,14.9577637-2.2182617,1.7435303-3.8781738,2.9151611-4.9794922,3.4868164h29.8771973v55.769043h14.9384766v-27.8858643h-12.2548828v-27.8831787h12.2548828ZM449.925293,585.0113525h-14.1088867v27.8858643h14.1088867v-27.8858643ZM690.5788574,547.5422363h18.2583008v-21.7866211h-15.7683105c0,1.7434082-.2871094,4.0714111-.8300781,6.9708252-.5585938,6.4018555-1.1169434,11.3292236-1.6599121,14.8157959ZM577.0739746,612.8972168h11.4250488v-54.0270996h-8.15625v.0001221h-5.9523926v54.0269775h2.6835938ZM655.7224121,575.4281006h-32.3669434v-71.456543c-1.1169434-1.1588135-2.4897461-2.9020996-4.1496582-5.2301025-2.2182617-2.3149414-3.8781738-4.0554199-4.979248-5.2272949v123.7412109c22.6791992-13.9440918,36.5161133-27.8857422,41.4958496-41.8272705ZM664.8515625,525.7556152h-14.9387207v21.7866211h13.2785645c1.1015625-5.2299805,1.6601562-12.4852295,1.6601562-21.7866211ZM677.300293,497.869873l8.2451172-11.3266602h-29.1721191c-4.4367676,5.2301025-5.6306152,6.6838379-8.9501953,11.3266602h29.8771973ZM339.973877,490.8991699h-76.3525391c0-13.3570557.5429688-30.498291,1.6599121-51.4133301h-37.3464355c0,8.7141113-.5583496,25.8580322-1.6599121,51.4133301h-75.5224609v34.7302246h189.2214355v-34.7302246ZM832.6933594,565.8422852c1.1013184-24.3990479,1.6599121-44.1422119,1.6599121-59.2556152h-53.9448242v-17.3596191h-36.2387695v153.2993164h36.2387695v-106.3132324h22.407959c0,2.3280029-.8300781,20.6279297-.8300781,23.5274658,0,6.9733887-3.3195801,10.1729736-9.9589844,9.5858154-3.8781738,0-3.4101562-.151123-8.9350586-.151123v32.3945312s15.2900391-.286377,21.3837891-.8708496c18.2583008-.5715332,27.6586914-12.2009277,28.2172852-34.8566895ZM909.9069824,577.1715088s-3.0671387,13.0699463-4.7270508,20.0406494c-.5585938,3.4868164-1.9443359,5.2301025-4.1496582,5.2301025-1.659668,0-3.3195801-1.4432373-4.9794922-4.3583984-.5585938-.5715332-1.1142578-1.4432373-1.659668-2.6124268-1.6599121-3.4866943-2.7744141-6.3862305-3.3198242-8.7141113,13.2788086-18.0024414,25.9990234-41.5297852,38.1762695-70.5848389l-28.2172852-13.9442139c-7.1977539,17.4282227-14.1086426,32.541748-20.7480469,45.3140869-2.6459961-13.2984619-5.0913086-39.7264404-5.7094727-58.3153076h-32.3017578c1.7321777,31.9379883,6.357666,69.7124023,12.2839355,92.300293-11.6188965,12.2008057-25.7275391,23.8273926-42.3259277,34.8564453,7.7407227,8.7142334,14.6540527,17.4283447,20.7480469,26.1425781,13.2785645-10.4575195,23.5090332-19.1716309,30.7070312-26.1425781,1.659668-.5844727,2.7609863-1.1560059,3.3195801-1.7432861,9.4006348,16.8436279,21.293457,25.270752,35.6865234,25.270752,13.2785645-.5845947,21.8493652-8.1425781,25.7275391-22.6556396,2.7609863-10.4575195,7.4692383-40.0841064,7.4692383-40.0841064h-25.9799805Z" fill="#fff"/>
    </g>
  </g>
</svg>