<?xml version="1.0" encoding="UTF-8"?>
<svg id="falling" xmlns="http://www.w3.org/2000/svg" version="1.1" viewBox="0 0 1080 1080">
  <!-- Generator: Adobe Illustrator 29.2.1, SVG Export Plug-In . SVG Version: 2.1.0 Build 116)  -->
  <path d="M314.0308374,580.4129989c-4.7324506,10.3122998-23.6446234,10.8772321-37.8804242,10.8772321h-5.280633c-.6073784-.0178921-1.3202058-.0291222-2.0317008-.0403523-9.2275459-.1458013-11.5495169-.9503731-11.5495169-6.7239895v-51.4787005c0-2.1068856-.2219377-4.3953565-.4617675-6.5559183-.0112301-.1031649-.0268381-.2040457-.0470143-.3070202-.2265059-1.1319585-.6926512-2.42742-1.184683-3.7139354,4.1757029,1.0040493,10.733715,3.0616365,12.9481432,4.1688506-.3473725.3070202-.8685264.7172052-1.6382658,1.2305552-.9952936.6633387-1.5925839,1.7794989-1.5925839,2.9763637v43.1208231c0,7.2327712,4.0209556,8.2078886,7.9545446,8.2078886l1.782925-.0112301c3.1861196,0,21.5973146,0,24.7765819-2.5416246,2.7087441-2.420758,4.5432516-6.4887279,6.0427587-11.273903.7575576,6.3541567,3.6690149,9.0863128,8.1616358,12.0649606ZM187.050986,506.0931134l22.5375275-.0022841c-1.078092-1.4456406-2.8475028-3.4942818-5.2962409-6.1301253-.564742-.6096625-1.0086175-1.0891317-1.2585353-1.380544-.0513921-.0605285-.1006904-.1210569-.1490371-.1861536-.2453497-.3271963-.5950063-.7149211-.9334327-1.0466857-1.1409045,1.1319585-3.0863808,3.3441027-5.6594117,6.7711941-.6757109.9008844-1.7359108,1.4298423-2.862159,1.4298423h-6.3787107c-1.9757406,0-3.5784126-1.6001976-3.5784126-3.5770802v-13.4211409c0-1.4635327.8921287-2.7814544,2.2515448-3.3239265.4505374-.1793013.9065946-.3989549,1.3066916-.6163245-1.4378366-.8224639-4.4063963-2.0910873-8.8622813-3.7855037l-.9827311-.3744009c-1.6093339-.6186086-2.5473349-2.2972267-2.2323203-3.9939272.3148242-1.6944164,1.7930131-2.9226875,3.5176938-2.9226875h38.752495c-1.9959167-2.9070795-5.6514174-7.2687457-7.741553-9.1759634-1.4669588,1.380544-3.686907,3.9693732-4.6540301,5.0967635-1.4176605,1.6540641-1.8918001,2.1942521-2.4297041,2.599869-.6197506.4638612-1.373882.7149211-2.1481896.7149211h-13.1992031c-1.0916062,0-2.1068856-.4952675-2.7770766-1.3200155-.6543927.9435208-1.7437148,1.5396691-2.9428636,1.5396691-11.4823265,0-23.3556136,0-34.9388208-.2240315-2.0901355-.1031649-4.227095-.2577218-6.3922249-.4124691l1.8400274,2.7076021,1.4602969-.9503731c.5805403-.3764947,1.2573933-.5759721,1.9498542-.5759721h25.9613831c1.9757406,0,3.5782222,1.6001976,3.5782222,3.5770802v24.8608309c0,1.9768826-1.6024817,3.5770802-3.5782222,3.5770802h-14.2997553c-2.19863,0-4.4098225-.1815854-6.5917024-.4214152l1.7134505,2.4542581,1.782925-1.0175635c.5413301-.3093043,1.1521346-.4705232,1.7753114-.4705232h15.6197708c1.9757406,0,3.5782222,1.6001976,3.5782222,3.5770802v55.8807189c0,.123341-.0066619.2464917-.0190341.3698327l-1.2674813,12.1860175c3.9469129-1.0982681,8.2076983-3.0458382,11.3018831-4.5542913l-1.3179217-14.4969487c-.0100881-.1098268-.0146563-.2173695-.0146563-.3249122v-49.0604169c0-1.9768826,1.602672-3.5770802,3.5784126-3.5770802ZM234.7108565,514.0631709c.0224602.1456109.0437785.2891281.0662387.4301709.2464917,1.61828.5009778,3.2925202.5009778,4.9825588,0,2.9944461-.4170373,5.8520369-.8203701,8.6178834-.1086848.7396655-.2152758,1.4724787-.3182503,2.2458346-3.5009437,23.7669407-9.2600942,35.6998045-22.3740245,48.7442603,15.1075629-9.6377309,25.9859371-24.2129098,29.399324-40.0367263.2959804-1.5554674.6165148-3.1086507.9368589-4.6643085.6142307-2.9786478,1.2495893-6.0581763,1.6755726-9.0324463.1914831-1.340382,1.129484-2.4588262,2.4127637-2.8889971.6454466-.2152758,2.0160929-.9661714,2.9428636-1.6205641-1.2541575-1.1519443-4.5375413-3.0235683-12.4058615-5.999932-.7967678-.3026423-1.4848509-.5626483-2.0160929-.7777337ZM154.0732494,521.2041025c-.515634,7.1945127-6.2163498,19.59809-12.9593734,32.7165885,6.5614382-6.2039776,13.7841213-15.4315235,18.6119328-21.6020011l2.0766213-2.6445992c.5110658-.6477307,1.2282711-1.0982681,2.0328429-1.2775694l.6745688-.1412331c.3363327-.0694745.8595804-.1770172,1.340382-.3049264-.270094-.1903411-.6365006-.425793-1.1351943-.710353-4.0601659-2.4991786-8.029539-4.7360671-10.6417802-6.0359064ZM214.7123054,541.3513266c0-2.2861869-1.0287936-5.0520333-1.8503058-7.0399557-1.660726-3.4853358-6.83591-5.7871306-10.7179166-7.2708394-.654583-.2801821-2.1460958-.8428304-3.8338503-1.4435469,1.1498505,1.636172,2.2132862,3.4605914,3.2095315,5.6750197,1.3314359,2.8823352,2.7076021,5.8655511,3.8618304,9.0954492.0146563.0424461.0784205.2398298.0919347.2845599,1.5520413,4.9241241,2.3017948,5.9215114,4.4568367,5.9215114,3.106557,0,4.7819393-2.6918037,4.7819393-5.2221982ZM281.1776733,391.9602051c-1.4737549-1.0377197-2.3634644-1.6676025-2.9395752-2.1359863-.1624146-.1008301-.3361816-.2106934-.5166016-.3271484-.2733154-.1748047-.7206421-.4594727-1.1195679-.685791-.7417603.7978516-2.0865479,2.5662842-4.4837036,6.4638672-.3058472.4975586-.5436401.8808594-.6881104,1.1005859-.6635132.9951172-1.7817383,1.5935059-2.9788208,1.5935059h-25.5195923c-.5234375,0-1.0400391-.1143799-1.5139771-.3361816l-.7072754-.3293457c-7.4579468-3.4989014-11.9193726-5.3725586-14.5797729-6.3723145.93573,2.3085938,1.2697754,4.7000732,1.4456177,6.4639893.2320557,2.7883301.2320557,5.7894287.2320557,8.4365234v80.9588623c0,6.3115234-.388855,12.6253662-.7653809,18.7285156-.0291138.4571533-.057251.9143066-.0852661,1.3717041.2476196-.0336914.4897461-.0673828.7272949-.1009521.1680908-.0246582.3372803-.0358887.5055542-.0358887.7126465,0,1.4119263.2130127,2.0057983.6142578.515625-.847168,1.3752441-1.4637451,2.3959961-1.6540527l4.1207275-.7734375v-5.8297119c0-1.9766846,1.6026611-3.5770264,3.5782471-3.5770264h30.1391602c.9939575,0,1.9431763.4123535,2.6200562,1.1408691.677002.7283936,1.0209961,1.7033691.9492188,2.696167l-.5635986,7.7596436c3.7575073-.5471191,7.6305542-1.3269043,11.7040405-2.3625488-.0469971-.6745605-.0963135-1.3491211-.1444702-2.026123-.3753052-5.237793-.7642212-10.6551514-.7642212-15.951416v-82.4987793c0-1.2348633.635376-2.380127,1.6820679-3.03479.2678223-.1680908.5906372-.3585205.9481201-.5692139.6633301-.3901367,2.1572876-1.2686768,3.0313721-2.0037842-1.9207764-1.9365234-6.7263184-5.3231201-8.7153931-6.723999ZM236.7130737,401.87146c0-.9526367.3810425-1.8670654,1.0567627-2.5395508.6713257-.6656494,1.5779419-1.0377197,2.5214844-1.0377197l30.1650391.2197266c1.9666138.0134277,3.5523071,1.6115723,3.5523071,3.5771484v27.7045898c0,1.9768066-1.602478,3.5771484-3.578186,3.5771484h-30.1391602c-1.9755859,0-3.5782471-1.6003418-3.5782471-3.5771484v-27.9241943ZM274.008667,491.1905518c0,1.9766846-1.602478,3.5770264-3.578186,3.5770264h-30.1391602c-1.9755859,0-3.5782471-1.6003418-3.5782471-3.5770264v-23.9799805c0-1.9769287,1.6026611-3.5772705,3.5782471-3.5772705h30.1391602c1.975708,0,3.578186,1.6003418,3.578186,3.5772705v23.9799805ZM274.008667,459.2918701c0,1.9769287-1.602478,3.5772705-3.578186,3.5772705h-30.1391602c-1.9755859,0-3.5782471-1.6003418-3.5782471-3.5772705v-21.5775146c0-1.9769287,1.6026611-3.5772705,3.5782471-3.5772705h30.1391602c1.975708,0,3.578186,1.6003418,3.578186,3.5772705v21.5775146ZM202.7615495,440.3841321c.4929834-.7486115,1.2484472-1.2842314,2.1179253-1.5017912l.2388781-.0605285c.3618384-.0896507,1.1441403-.2845599,1.8457376-.5198215-2.7692726-2.2414567-9.4987819-5.6011674-13.5018455-6.9571573.01675.2173695.0268381.4393072.0268381.6656228,0,5.1932664-3.4729636,18.8294927-6.9760011,31.9007866,4.9812264-6.7845179,10.211419-14.3578094,16.2484675-23.5271109ZM159.3167659,437.4367003c-.4113271-.1815854-1.0657198-.4952675-1.8523995-.8717622,3.4807676,6.0201081,4.0734897,10.2630014,5.1449198,17.94631l.0571023.425793c.1872956,1.6788084.7362394,2.3444313,1.193629,2.7367242.0694745.0603381.1366649.1208666.2015712.1859632,1.0154697,1.0152794,1.7370528,1.1542284,2.3086471,1.1542284,2.6649657,0,5.0015929-2.6468832,5.0015929-5.6637896,0-1.9005558-.9448532-4.610442-2.6369855-7.5129533-1.8131893-3.2968981-4.8076353-5.968716-9.4180773-8.4005138ZM148.5864771,422.9353737c.5278159-.2891281,1.1216801-.4415913,1.7246806-.4415913h65.2515917c-1.1452824-1.4456406-3.2005855-3.7630434-6.8739783-7.3515441l-.4170373-.4101851c-.9008844-.8987906-1.529581-1.4589645-1.9622263-1.8065273-1.9959167,1.7124988-5.7176561,5.9978382-6.6006484,7.2105013-.6635291.9951032-1.7808313,1.5912515-2.9776961,1.5912515h-45.0997994c-2.0889935,0-4.2754416-.1793013-6.4651256-.416847l1.8031012,2.5147865,1.6171379-.8898446ZM173.4385523,399.5022913c.4986937,2.6000593.9694072,5.0541271,2.3859256,6.5917024,1.6753823,1.88057,2.7936362,2.1002236,3.4885716,2.1002236,3.2061054,0,5.4407098-3.680245,5.4407098-6.9839954,0-2.0642492-1.0723817-4.6620244-1.8838058-6.4460915-2.1034594-4.6597403-7.2293451-6.524512-12.656731-8.5013946-.7722138-.2801821-1.5398594-.5601738-2.2804766-.84264-.0639546-.0224602-.1277189-.0470143-.1905314-.0694745,2.2043402,3.3507646,4.3424417,7.6652262,5.1538658,11.5226788.2029036.8605321.3732589,1.7437148.5424721,2.6289912ZM498.5683594,489.5811768c-2.2637329-1.5778809-8.4656372-5.8968506-11.3704224-7.5218506-.8774414.986084-2.2075806,2.7142334-3.9737549,5.1616211-.7564087,1.0490723-.9840698,1.3652344-1.2887573,1.6676025-.6702271.6658936-1.5779419,1.0400391-2.5237427,1.0400391h-36.9594727c-.4672852,0-.9302368-.0897217-1.3615112-.2689209-.8898926-.3652344-2.421936-1.0579834-4.2988892-1.9074707-3.0606689-1.3850098-9.9337158-4.4960938-14.1472778-6,.2375488.7216797.4537964,1.3852539.619751,1.9724121.3876953,1.5532227.5457153,4.4176025.5457153,9.8864746v69.7409668c0,6.6972656-.3104248,13.5488281-.6488647,19.8918457,3.7263184-.5559082,7.5544434-1.3447266,11.4419556-2.3577881-.1737671-5.3411865-.3485107-11.529541-.3485107-17.5340576v-19.802002c0-1.9768066,1.602478-3.5771484,3.5782471-3.5771484h43.5601196c1.975708,0,3.5783691,1.6003418,3.5783691,3.5771484v20.9002686c0,5.5877686-3.4248047,8.418457-10.1790161,8.418457-1.0668945,0-2.1190796-.0513916-3.157959-.1322021,5.1258545,3.7520752,6.755188,7.9858398,7.7346802,13.6092529,6.0505981-.6745605,14.9273071-2.6335449,15.904541-8.3443604.4448242-2.0710449.4101562-4.6306152.3776245-7.1049805-.0089111-.6881104-.0178833-1.371582-.0178833-2.0463867v-71.9398193c0-.9503174.3787842-1.8624268,1.0510864-2.5325928.2902222-.2891846.9503784-.8227539,1.7842407-1.4658203.4941406-.3811035,1.4589844-1.1252441,2.2781982-1.8244629-.5445557-.369873-1.2954712-.8920898-2.1784668-1.5062256ZM484.751709,535.9003906c-.0270386,1.956665-1.6206055,3.527832-3.5784302,3.527832h-43.3404541c-1.975769,0-3.5782471-1.6003418-3.5782471-3.5771484v-16.2808838c0-1.9769287,1.602478-3.5772705,3.5782471-3.5772705h43.5601196c.9570312,0,1.8748169.3833008,2.5473022,1.0645752.6724854.6815186,1.0432739,1.6026611,1.0310669,2.5620117l-.2196045,16.2808838ZM484.9713135,511.8710938c0,1.9768066-1.6026611,3.5772705-3.5783691,3.5772705h-43.5601196c-1.975769,0-3.5782471-1.6004639-3.5782471-3.5772705v-14.9608154c0-1.0377197.4505615-2.0238037,1.2349243-2.7030029l3.2991943-2.8598633c.6500244-.5649414,1.4827271-.8742676,2.3435059-.8742676l40.2808838.2219238c1.9679565.0090332,3.5582275,1.609375,3.5582275,3.5772705v17.5987549ZM380.2510028,396.7362546c-.1244831-.0380682-.2466821-.0807046-.3654549-.1322871-.5131596-.2196536-1.4231804-.5177278-2.3813574-.8045718.2152758.9256287.3753526,1.8333654.523438,2.6739117.1187728.6768529.2352616,1.3447598.4191311,2.2031982.7048331,4.4579788.7048331,8.9606877.7048331,13.317976v143.1962695c0,7.4008424-.384489,14.9743242-.7552735,22.2990301-.0492983.9749271-.0985967,1.9475701-.147895,2.9204034,4.3121775-.5759721,8.1393658-1.340382,11.7118778-2.3377693-.1107785-3.4381312-.2834179-6.8987226-.4514891-10.2696634-.2824662-5.6616958-.5738784-11.5160168-.5738784-17.2313889v-123.4207816c0-.6298387.1659774-1.2326489.4629095-1.7595131-.2969321-.5266738-.4629095-1.129484-.4629095-1.7593227v-17.5768579c0-1.1542284.5580801-2.2389823,1.497223-2.9114574l.8630065-.5961483c1.7604648-1.2037171,3.0380342-2.158468,3.819194-2.8554971-.7463274-.4459692-2.1449538-1.0936999-4.7438711-1.8760018l-10.1194842-3.0795286ZM360.1833413,462.3312216c-2.680764,4.6888625-5.4532723,9.5368502-5.4532723,13.2393651,0,4.5634277,1.6508283,6.1032872,6.541262,6.1032872,5.4420422,0,7.202507-9.4471995,7.202507-14.0218573,0-3.1781252-1.120538-11.1459938-2.5001303-17.5090965-1.1801148,4.1239301-3.523404,8.2210222-5.7903664,12.1883016ZM509.5508497,455.596002c-.924677.5603642-3.1648014,2.1965362-7.7908513,6.8652226l-.2409718.2419235c-.671333.670191-1.5802118,1.0445919-2.5271587,1.0445919h-29.0386276c-1.9757406,0-3.5782222-1.6003879-3.5782222-3.5772705v-16.720323c0-1.9766923,1.6024817-3.5770802,3.5782222-3.5770802h33.962942l-8.9945684-8.411744c-.2329775-.2329775-.4796596-.4436851-.6981711-.6140404-2.0238968,1.4724787-6.1445912,5.6369515-7.4389106,7.1924189-.6802791.818086-1.6877545,1.2887995-2.7511902,1.2887995h-14.0801017c-1.9757406,0-3.5782222-1.6003879-3.5782222-3.5772705v-14.5192186c0-1.9768826,1.6024817-3.5772705,3.5782222-3.5772705h39.7656806l-.2095655-.2150854c-6.0359064-6.1771395-8.951932-8.6224515-10.2485355-9.5726343-1.10493.8740463-3.3663726,2.9181193-7.8367235,7.6943484-.3462304.3721168-.5851085.6231767-.6802791.7194893-.671333.670191-1.5823055,1.0466857-2.5303945,1.0466857l-18.3028189-.2196536c-1.9599422-.0224602-3.5355858-1.61828-3.5355858-3.5770802v-19.138797c0-1.3537059.7653615-2.5932071,1.9768826-3.2005855,1.38949-.694745,2.738818-1.6024817,3.6433189-2.3533773-3.7891202-1.7930131-12.8272766-4.1284983-18.1469295-5.0204367.4661453,1.6786181.7687877,3.5837421.9536089,5.069735.007804.0628126.0213182.2173695.0258864.2801821.2173695,3.0616365.4436851,6.2264379.4436851,9.4045631v14.7390626c0,1.9768826-1.6024817,3.5770802-3.5782222,3.5770802h-25.0804845c-2.0575872,0-4.1149841-.130003-6.1523952-.3159662l1.4243224,2.2188061.6825632-.4817533c.6039523-.4259834,1.3245837-.654583,2.0642492-.654583h27.061745c1.9757406,0,3.5782222,1.6003879,3.5782222,3.5772705v14.5192186c0,1.9768826-1.6024817,3.5772705-3.5782222,3.5772705h-19.3605443c-2.0553031,0-4.1050864-.1703553-6.116611-.383347l1.3626519,2.0844253.7116853-.5021198c.6028102-.425793,1.3245837-.6543927,2.0631071-.6543927h21.339711c1.9757406,0,3.5782222,1.6003879,3.5782222,3.5770802v16.720323c0,1.9768826-1.6024817,3.5772705-3.5782222,3.5772705h-30.5807711c-2.0317008,0-4.1351603-.1435172-6.2409038-.3407106l1.5173992,2.4116217.8696685-.6275546c.6096625-.4415913,1.3424757-.6768529,2.0945134-.6768529h99.3466304l-8.5977072-8.411744c-.2274576-.2285997-.4101851-.392293-.5512278-.5064977ZM399.9084792,432.8285424c.285702.5984324.5816824,1.2775694.9123049,2.0823316,1.2539671,2.7163577,1.8053853,5.2132522,2.337579,7.627158l.4214152,1.8916098c1.2809956,5.9194177,2.167414,7.7640132,5.2123005,7.7640132,2.5707468,0,5.0014026-2.5395309,5.0014026-5.2223886,0-4.7269307-4.6618341-9.4671853-13.8850021-14.1427239ZM427.7683244,463.74774h-64.0926682l.5847278.7665036h63.5079404v-.7665036ZM715.8068237,503.8430176c-.7575684.8248291-1.8379517,2.4431152-2.3556519,3.2185059-.5424805.8137207-1.0131836,1.4995117-1.3426514,1.8939209-.6789551.81604-1.6854858,1.286499-2.7478027,1.286499h-82.1179199c-3.5666504-2.5356445-7.9871216-5.0949707-9.8591309-5.5845947-.6074219.4615479-1.5779419,1.6517334-2.8912964,3.543335l-.4303589.6142578c-.5561523.7783203-1.3990479,1.2722168-2.3251953,1.427002h-13.7945557c-1.0083008-.1918945-1.9004517-.8035889-2.4273071-1.7116699-.6387329-1.1027832-.6431274-2.4632568-.0112305-3.5705566,1.748291-3.0615234,3.5592041-6.2285156,5.5966187-9.3999023.3473511-.5424805.8359985-.9794922,1.4121704-1.2686768,0,0,1.093689-.5447998,1.4522705-.7307129-3.6802368-1.6159668-10.8951416-4.4735107-14.611145-5.7467041-2.3623047,14.4162598-17.9598389,46.7944336-23.6864014,57.3375244,1.50177-1.6136475,2.7277832-2.9832764,3.3328247-3.7229004.4661865-.5692139,1.0827026-.9659424,1.7595215-1.1654053.1389771-.4707031.3742065-.9144287.6993408-1.3000488,6.8381958-8.0820312,12.7665405-16.4490967,19.5643921-26.5305176.4755249-.7043457,1.1831665-1.1943359,1.9797363-1.4237061h19.1253052c.7225952.2060547,1.3759766.6223145,1.8483887,1.2288818.6768188.8740234.9145508,2.0102539.6410522,3.0794678-2.9854736,11.7154541-6.1097412,23.0162354-9.2814331,33.5863037-.454895,1.5126953-1.8466797,2.5483398-3.4268799,2.5483398h-11.4396973c-.461731,0-.916687-.0874023-1.3447266-.262207l-13.6341553-5.5270996c.1054688,1.4747314.1884155,2.5393066.2533569,3.3843994.2622681,3.3822021.2622681,3.5211182.2622681,10.706665l-.0022583,61.0963135c-.4347534,9.9986572-1.5419922,24.3834229-3.3665771,34.8660889-1.1654663,5.8320312-4.0567627,14.6291504-7.3380127,22.8122559,5.0811157-6.2421875,9.4247437-13.7191162,11.7601929-19.8625488,1.3851318-3.2319336,6.7531128-19.5758057,6.7531128-28.0703125,0-1.9058838,1.4918213-3.4472656,3.3699951-3.5565186h34.7336426c1.8781738.1092529,3.3699951,1.6506348,3.3699951,3.5565186v32.3398438c0,4.0187988,0,11.4958496-9.2970581,11.4958496-.9077148,0-1.8133545-.0402832-2.7142334-.1031494,3.2946167,3.0438232,3.9737549,6.762085,4.1911011,11.0700684,9.1087646-1.0175781,15.0751953-2.8713379,16.3170166-10.1756592.4101562-3.0661621.4101562-6.4102783.4101562-9.6467285v-38.5367432h40.09729c1.9768677,0,3.5770874,1.6004639,3.5770874,3.5772705v45.4505615c0,5.4014893-.401062,11.0272217-.7890015,16.4693604-.0873413,1.217041-.1747437,2.4316406-.2576904,3.6464844,4.1264038-.7529297,8.1539917-1.5756836,12.0380859-2.4655762-.1052246-2.1491699-.24646-4.3391113-.3943481-6.6140137-.2914429-4.4782715-.5917969-9.1108398-.5917969-13.6766357v-42.8101807c0-1.9768066,1.6004028-3.5772705,3.5772705-3.5772705l30.0426636-.0111084c-.3026123-.3293457-.6119385-.6409912-.8180542-.8474121-.3989868-.3585205-.9749146-.9233398-1.6609497-1.6000977-1.2280884-1.2104492-4.7358398-4.6687012-6.4862061-5.6124268-.9840698.6859131-2.7098999,2.3917236-5.1417236,5.0856934-.4819336.5333252-.8607178.9481201-1.0847168,1.1722412-.6724854.670166-1.5823364,1.0466309-2.5303955,1.0466309h-12.3206177c-1.9768677,0-3.5772705-1.6002197-3.5772705-3.5771484v-15.7084961c0-1.9655762,1.5845947-3.5637207,3.5502319-3.5771484l29.5361938-.2174072c-.9570312-1.1990967-2.7276001-2.9249268-5.2939453-5.1573486-.7328491-.6364746-1.3223267-1.1564941-1.6630249-1.4971924-.8203735-.8201904-1.8759766-1.5979004-2.4946289-1.9207764-.9884033.5759277-2.7681274,2.3713379-5.3007812,5.3455811-.6253052.7351074-1.1295166,1.3179932-1.4456177,1.6339111-.6723022.670166-1.5823364,1.0466309-2.5303955,1.0466309h-10.7807617c-1.9768677,0-3.5772705-1.6000977-3.5772705-3.5770264v-38.0273438c0-1.0870361.4931641-2.1135254,1.3403931-2.7926025.1928101-.1547852.4684448-.3632812.8001709-.6120605.8382568-.6320801,1.5284424-1.1743164,2.06427-1.6248779-2.7209473-1.2237549-10.6195068-3.7496338-15.2769775-4.890625.4640503,1.5039062.5961304,3.0169678.7151489,4.3907471.0334473.3967285.0671387.7867432.1276855,1.3583984.2240601,3.8459473.2240601,34.0107422.2240601,37.798584v4.3997803c0,1.9769287-1.6002197,3.5770264-3.5770874,3.5770264h-11.15802l.0009766-.0222168h-.6865234c-1.0964966-.057251-2.1134644-.5961914-2.7474365-1.5018311-.6679077-.9547119-.8292847-2.1783447-.4303589-3.2745361l2.6379395-7.2597656c.2600098-.717041.7419434-1.3311768,1.3761597-1.7548828,0,0,.6993408-.4616699.993042-.6679688-3.3844604-1.3380127-9.034729-3.0234375-11.9104004-3.5859375.1052246.8605957.2017212,1.7414551.2017212,2.611084,0,6.4370117-2.7165527,22.1420898-4.9578247,31.8134766,3.2006226-4.6687012,6.7038574-10.4064941,8.557373-13.90979.425354-.8045654,1.1367798-1.3948975,1.9692383-1.6898193.0487061-.0019531.0959473-.0135498.1448975-.0135498h4.8178101l.0089722-.1994629h11.1824341c1.9768677,0,3.5770874,1.6002197,3.5770874,3.5770264v15.9304199c0,1.9769287-1.6002197,3.5771484-3.5770874,3.5771484h-40.09729v-68.2780762c0-.9481201.3765259-1.8581543,1.0466919-2.5305176.2510986-.2512207.5826416-.5603027.9570312-.9121094.5154419-.4819336,1.6091309-1.5019531,2.364624-2.3624268-2.8330078-2.2122803-9.3508911-6.0672607-12.1009521-7.1072998-.901062.9771729-2.2189941,2.9001465-2.7142334,3.6220703-.4303589.6274414-.7844238,1.1318359-1.0040894,1.4074707-.6791382.847168-1.7056274,1.340332-2.7926636,1.340332h-9.4584351c-1.2686157,0-2.440918-.670166-3.0841064-1.7617188-.6433105-1.09375-.6589355-2.4453125-.0449219-3.5524902,1.2372437-2.2233887,2.4364014-4.4490967,3.6309814-6.6611328,3.019165-5.5944824,6.1413574-11.3792725,9.6287842-16.7630615,3.3261719-5.5450439,5.3366089-6.6051025,9.9626465-8.6671143.2734985-.123291.5603638-.2509766.847168-.3808594-.7418213-.7730713-1.852417-1.697876-3.135498-2.6566162h41.684082c1.008606,0,1.9700317.4234619,2.6491699,1.1721191.6768188.7463379,1.008606,1.7437744.9122925,2.7479248-1.0109253,10.5141602-2.9990234,21.2475586-6.2645264,33.8059082l-.3228149,1.2058105c-1.7840576,6.6477051-3.6107788,13.4682617-5.9194336,20.0754395,13.5667725-15.8237305,17.690918-28.3212891,24.2468262-48.1906738.2980347-.9055176.9480591-1.6563721,1.7996826-2.0821533,0,0,1.5465088-.7463379,1.9454346-.9481201-.4661255-.3519287-1.0308838-.7307129-1.6831665-1.1025391-1.4075928-.8071289-2.0979614-2.4589844-1.6809082-4.0256348.4168701-1.5689697,1.8356323-2.6580811,3.458313-2.6580811h21.9986572c.9680786,0,1.8939209.3897705,2.5684814,1.0847168.6724854.6947021,1.0377197,1.6339111,1.008606,2.5999756-.0247192.8203125-.0449219,1.8647461-.0671997,3.0794678-.3473511,19.0557861-1.5352783,31.7574463-6.3630981,36.1817627-3.8461914,3.550293-8.2773438,4.0275879-12.1054688,4.0275879-.3272095,0-.6520996-.0043945-.9772339-.0178223,3.126709,3.3215332,3.7990112,7.0803223,4.1039429,11.2246094,5.1774902-.6455078,9.4157715-1.8469238,13.2012939-3.7385254,4.1151733-1.8826904,6.8764648-5.0766602,8.4207153-9.7026367,3.0795288-9.7587891,3.6712646-20.6202393,4.2428589-31.1253662.1366577-2.4946289.2712402-4.9713135.4370117-7.4189453.0582886-.862793.4281006-1.6763916,1.0400391-2.288208.4102173-.4102783.9256592-.8630371,1.4814453-1.3448486.4640503-.4034424,1.1766968-1.0220947,1.7056274-1.5689697-2.9944458-2.4406738-10.8614502-7.0556641-14.010437-8.1584473ZM584.4742432,557.5548096c0-1.0714111.4796753-2.0889893,1.30896-2.7681885l2.4182739-1.9812012c.6411133-.5245361,1.4435425-.809082,2.2683105-.809082.0380859,0,6.9368286.2219238,6.9368286.2219238,1.8312378.0605469,3.3215942,1.494873,3.4515991,3.3215332.0673828.9414062.1570435,1.9230957.2467041,2.9204102.2084351,2.3287354.4235229,4.7336426.4235229,7.0131836v18.4819336c0,1.9768066-1.6002197,3.5771484-3.5770874,3.5771484h-9.9000244c-1.9768677,0-3.5770874-1.6003418-3.5770874-3.5771484v-26.4005127ZM584.4742432,591.6542969c0-1.9769287,1.6002197-3.5771484,3.5770874-3.5771484h9.9000244c1.9768677,0,3.5770874,1.6002197,3.5770874,3.5771484v31.0200195c0,1.9766846-1.6002197,3.5771484-3.5770874,3.5771484h-9.9000244c-1.9768677,0-3.5770874-1.6004639-3.5770874-3.5771484v-31.0200195ZM608.6738281,622.6743164v-31.0200195c0-1.9769287,1.6002197-3.5771484,3.5770874-3.5771484h9.4584351c1.9768677,0,3.5772705,1.6002197,3.5772705,3.5771484v31.0200195c0,1.9766846-1.6004028,3.5771484-3.5772705,3.5771484h-9.4584351c-1.9768677,0-3.5770874-1.6004639-3.5770874-3.5771484ZM609.6107178,552.2182617h12.0986328c1.9768677,0,3.5772705,1.6000977,3.5772705,3.5770264v28.1600342c0,1.9768066-1.6004028,3.5771484-3.5772705,3.5771484h-9.4584351c-1.9768677,0-3.5770874-1.6003418-3.5770874-3.5771484v-20.0217285c0-1.3381348.7844238-2.5842285,1.97229-3.1983643.1367188-.069458.3205566-.1859131.5245972-.3250732-.901062-.4907227-1.9612427-.9772949-2.6896973-1.2192383-1.6652832-.5537109-2.6828613-2.2344971-2.40271-3.9672852.2802124-1.7324219,1.7774048-3.0053711,3.5324097-3.0053711ZM938.4356079,687.9455566c0,3.9042969-1.9074097,5.8834229-5.6638184,5.8834229-1.1028442,0-2.4429932-.6252441-3.4091797-1.5935059-.0559692-.0561523-.1141968-.1098633-.1747437-.161499-.8809204-.7730713-2.3265381-3.3439941-3.4337769-6.1142578-3.0639038-7.5487061-9.5301514-17.3881836-14.9720459-22.8728027,13.3516846,4.9086914,27.6535645,13.9389648,27.6535645,24.8586426ZM885.3005371,662.2689209c-2.4005737-1.30896-9.2456055-4.4580078-12.7307739-5.7894287-.831604,1.9500732-3.0460205,5.3299561-8.010498,12.2871094l-1.0354614,1.4589844c-4.9825439,6.9772949-10.5679321,13.0378418-16.5164795,18.8942871,11.0184937-6.2958984,21.7611084-13.7122803,32.2057495-20.9204102l4.6730347-3.2231445c.376709-.2597656.8024902-.4436035,1.2507324-.5445557.3833618-.0830078.8829956-.1702881,1.4456177-.2667236.4168701-.0717773,1.0714722-.1838379,1.7324829-.3227539-.6655884-.423584-1.5666504-.9189453-2.7545776-1.4456787-.0874023-.0379639-.1747437-.0828857-.2598267-.1276855ZM823.4309082,660.7224121c-.7733154,0-1.5352783-.2487793-2.1651001-.7285156-.8898315-.6767578-1.4121704-1.7303467-1.4121704-2.8486328v-7.0400391c0-.9726562.3945923-1.902832,1.0961914-2.5773926l.8605347-.8293457c-1.1789551-.5983887-1.9567261-1.8200684-1.9567261-3.1916504v-36.5427246c0-1.9768066,1.6004028-3.5770264,3.5772705-3.5770264l24.4417114-.0089111c-1.6608887-2.1740723-4.6306152-5.3725586-6.5290527-7.0197754-.8717651.8896484-2.1112671,2.2254639-3.704834,3.9985352-.5491333.6072998-.9549561,1.0532227-1.1117554,1.2124023-.6724854.6745605-1.5845947,1.0512695-2.5349731,1.0512695h-10.5610962c-1.9768677,0-3.5772705-1.6003418-3.5772705-3.5772705v-29.8970947c0-1.355957.7644043-2.595459,1.9769287-3.2005615l2.6403809-1.3199463c.4975586-.2490234,1.0444336-.376709,1.6002197-.376709h17.0564575c-1.7817993-2.0822754-4.8814697-5.0743408-6.7753906-6.5805664-1.4816284,1.2574463-3.7767334,3.6333008-4.6306152,4.6955566-.6791382.847168-1.7056274,1.3381348-2.7905884,1.3381348h-28.3796997c-1.3066406,0-2.5079346-.7105713-3.1377563-1.855835-.6275635-1.1453857-.5828247-2.541626.1187744-3.6422119,7.5062866-11.791626,14.4431152-23.6616211,21.2051392-36.2893066.2959595-.5513916.7240601-1.0063477,1.239502-1.3334961-.2487793-.916748-.1233521-1.902832.3609009-2.7321777l5.5003052-9.4606934c.4145508-.7148438,1.0622559-1.2617188,1.8356323-1.5532227.331543-.123291.7373657-.2553711,1.1833496-.401123.3205566-.1032715.831604-.269043,1.3358154-.4550781-3.4450073-2.2681885-12.7106323-6.6096191-18.4035034-7.9163818-.7284546,15.9180908-10.928833,42.3768311-15.4090576,53.3077393-3.4315186,8.3041992-6.5224609,15.4023438-9.4472046,21.6848145,1.232605-1.5823975,2.5571899-3.2946777,3.9716187-5.1392822.8000488-1.0423584,1.4165649-1.8468018,1.7751465-2.302002.6791382-.862793,1.7145996-1.3648682,2.8128662-1.3648682h11.8789673c1.9769287,0,3.5770874,1.6003418,3.5770874,3.5771484v31.2171631c0,1.9769287-1.6001587,3.5772705-3.5770874,3.5772705h-19.6035156c-2.3937378,0-4.8704834-.1660156-7.3045654-.3586426l.2365112.3586426h-117.5664062l-.0343628.7664795h118.1062622l.6208496.9414062c.6610718-.6053467,1.5240479-.9414062,2.4205933-.9414062h23.1246338c1.9769287,0,3.5770874,1.6002197,3.5770874,3.5770264v53.9219971c0,1.6607666-1.140686,3.1019287-2.7567139,3.4827881-8.6717529,2.0397949-18.7061157,4.2316895-29.1417847,5.5787354l8.2592773,12.4595947c12.3116455-7.6251221,23.5899658-13.7976074,34.366272-18.8137207,2.5370483-1.2036133,5.0720215-2.3914795,7.6026001-3.5749512,1.0645752-.4975586,2.1360474-.9974365,3.2095337-1.5039062-3.3440552.8226318-6.3630981,1.5958252-8.1001587,2.0777588-.3138428.0872803-.6364746.1300049-.9570312.1300049ZM855.723999,558.8361816c-.1143799-.3317871-.230896-.6655273-.3363037-.9907227,3.4986572,1.0827637,9.3396606,3.5482178,11.5988159,4.5029297,1.0916138.461792,2.0059814.847168,2.6358032,1.0982666.4237061.1702881.8742676.2554932,1.3291626.2554932h14.9608154c1.9768677,0,3.5772705-1.6002197,3.5772705-3.5771484v-43.5600586c0-3.9494629-.2086182-8.0710449-.4438477-12.2961426-.0023193-.0334473-.0179443-.2420654-.0224609-.2756348-.2150879-2.5864258-.4595337-5.4890137-1.5353394-8.2211914,4.4625854.8046875,12.8158569,3.2589111,15.7857666,5.1842041-.6343994.6209717-1.4905396,1.324585-1.9477539,1.7033691-.6096802.4998779-1.1251221.9370117-1.4456177,1.2574463-.6702271.6723633-1.0444336,1.5800781-1.0444336,2.5283203v47.0811768c0,.9189453.3496704,1.7750244.9412231,2.4207764-.600708.6542969-.9412231,1.5151367-.9412231,2.4182129v1.7595215c0,1.9769287,1.6002197,3.5771484,3.5770874,3.5771484h12.7598877c1.0310669,0,2.0126953-.4437256,2.6918335-1.2214355.3204956-.3631592.7440186-.8920898,1.2371826-1.5085449.7979126-.9995117,3.0437622-3.8081055,4.3280029-4.782959,2.2009277,1.0646973,7.4680176,4.9150391,9.8438721,6.6520996,1.2192993.8945312,2.2682495,1.6564941,2.9900513,2.1540527-.9324951.8942871-2.4138794,1.9946289-3.0102539,2.4362793-.5131226.3811035-.9458008.7060547-1.232666.9458008-.8157959.6791992-1.286499,1.6855469-1.286499,2.7480469v62.039917c0,3.6466064.2421265,7.3895264.4750977,11.0092773.1008911,1.5488281.2017822,3.1019287.284729,4.6551514-3.7744141,1.1386719-7.1116943,1.9567871-10.5454712,2.5820312v-4.3862305c0-1.9768066-1.6003418-3.5771484-3.5772705-3.5771484h-46.4199829c-1.9768677,0-3.5770874,1.6003418-3.5770874,3.5771484v1.6295166c-3.2590332,1.3179932-6.8023682,2.2346191-10.3571777,2.9852295.0671387-.9053955.1366577-1.8131104.2061157-2.7231445.3966675-5.1953125.8068237-10.5654297.8068237-15.7518311v-58.0795898c0-3.0369873-.3920898-6.0001221-.770874-8.8688965-.1210327-.9212646-.2443848-1.8446045-.3519287-2.7681885-.1300049-1.5888672-.6903687-3.1960449-1.1833496-4.6125488ZM867.3743896,587.6260986c0,1.9769287,1.6002197,3.5770264,3.5770874,3.5770264h46.4199829c1.9769287,0,3.5772705-1.6000977,3.5772705-3.5770264v-19.7999268c0-1.9768066-1.6003418-3.5771484-3.5772705-3.5771484h-44.2190552c-.9481201,0-1.8579102.376709-2.5281372,1.0466309l-2.2011108,2.1987305c-.6722412.6702881-1.0487671,1.5800781-1.0487671,2.5305176v17.6011963ZM867.3743896,612.2648926c0,1.9770508,1.6002197,3.5771484,3.5770874,3.5771484h46.4199829c1.9769287,0,3.5772705-1.6000977,3.5772705-3.5771484v-16.9399414c0-1.9768066-1.6003418-3.5770264-3.5772705-3.5770264h-46.4199829c-1.9768677,0-3.5770874,1.6002197-3.5770874,3.5770264v16.9399414ZM867.3743896,639.1047363c0,1.9769287,1.6002197,3.5771484,3.5770874,3.5771484h46.4199829c1.9769287,0,3.5772705-1.6002197,3.5772705-3.5771484v-18.9189453c0-1.9768066-1.6003418-3.5771484-3.5772705-3.5771484h-46.4199829c-1.9768677,0-3.5770874,1.6003418-3.5770874,3.5771484v18.9189453ZM790.1695557,633.317627c.177063,8.494751,1.0490112,10.5703125,4.4423828,10.5703125,1.1273804,0,4.5632324,0,4.5632324-7.4211426,0-2.5551758-1.1675415-4.9265137-3.5725098-7.1499023-2.2637329-2.2636719-4.7404175-4.5251465-6.9213257-6.3654785.3475342,1.2307129.6231689,2.4477539.8875122,3.6064453l.2063599.9189453c.3092651,1.7325439.3496704,3.7272949.3943481,5.8408203ZM847.2831421,624.1237793c-2.3512573-2.4250488-6.7262573-5.9641113-9.6602173-7.8110352-.1141968.5402832-.2398071,1.1655273-.3742065,1.8693848-.0964966.5197754-.1749268.9143066-.2466431,1.1922607-1.9766846,7.185791-4.7583618,13.8356934-7.6741943,20.0913086l14.9429321-14.3781738c.670166-.6453857,1.5621338-.9996338,2.4810791-.9996338.1478882,0,.2957764.0090332.4436646.0269775.0270386.0023193.0584717.0067139.0875854.0089111ZM927.0585327,515.4553223c-.1389771.3922119-.262085.7642822-.3450928,1.0107422-.1882324.5649414-.3631592,1.0490723-.5021362,1.3874512-3.743042,10.5209961-9.0571899,19.8381348-14.9383545,28.8863525,8.595459-6.9168701,16.0389404-13.1029053,22.9018555-19.0244141.6500244-.5604248,1.4793091-.8673096,2.3377686-.8673096.2756348,0,.6207275.0089111,1.0130005.0222168.4213867.0134277.9100342.0313721,1.4254761.0313721.4078979,0,.755249-.0133057,1.0489502-.0313721-2.5326538-3.2119141-9.2722778-9.1512451-12.9414673-11.4150391ZM865.3997803,543.8867188c.7844238,1.6987305,3.2207642,1.8825684,4.2315063,1.8825684,3.6086426,0,4.5634155-4.4244385,4.5634155-6.7642822,0-5.8902588-2.2614136-10.2855225-7.1185913-13.833374l-.454895-.3341064c-4.2316284-3.1086426-7.4838257-5.3813477-9.973877-7.0422363,3.119873,5.1348877,4.4311523,10.7449951,5.6055298,15.7698975.8740845,3.7341309,1.6967163,7.2596436,3.1469116,10.3215332ZM833.8239136,535.9903564l.3966675,1.0737305c2.0149536,5.4686279,3.0371094,7.3850098,6.5917358,7.3850098,2.2974243,0,4.3414917-2.9227295,4.3414917-5.2244873,0-7.1453857-9.565979-11.5742188-17.3006592-14.3266602,2.6580811,3.2701416,3.8953247,5.9036865,5.9707642,11.0924072Z" fill="#fff"/>
</svg>