<?xml version="1.0" encoding="UTF-8"?>
<svg xmlns="http://www.w3.org/2000/svg" version="1.1" viewBox="0 0 1080 1080">
  <!-- Generator: Adobe Illustrator 28.7.3, SVG Export Plug-In . SVG Version: 1.2.0 Build 164)  -->
  <g>
    <g id="iconofbetrayal">
      <path d="M620.6101621,541.7715885c-1.0049132.2529897-1.9133167.6290334-2.7252105,1.128131-.8153347.5023747-1.2211997,1.380793-1.2211997,2.6319779v40.0357866c0,.7520873-.7221021,2.2560981-2.1628655,4.5120323-1.4407633,2.2559342-3.2608474,4.9213382-5.4502571,7.9891662-2.1928506,3.071269-4.6052649,6.295577-7.2372428,9.6796422-2.6319779,3.3839013-5.1676099,6.4851555-7.6132864,9.3034347-2.4422356,2.8217202-4.5751159,5.170887-6.3886458,7.0509414-1.8200841,1.8798906-2.9780363,2.8815267-3.4771339,3.0080215l-.3760437-.1897423c-.3760437-.8784183-1.1944916-2.5354682-2.4456765-4.9811447-1.254462-2.4423994-2.5687304-5.0111299-3.9464102-7.7063552-1.380793-2.6919482-2.6019927-5.1376247-3.6667124-7.3303115-1.0648835-2.1895736-1.5972434-3.4772978-1.5972434-3.8531776,0-.7520873,1.1279671-1.4409272,3.3840652-2.0663558,2.2559342-.6255924,4.7615811-1.2844471,7.5200538-1.9765641,2.7550318-.685399,5.2606787-1.4075011,7.5166129-2.1595884,2.2560981-.7519235,3.3840652-1.5670943,3.3840652-2.4456765v-53.9444862c0-1.3775159-1.1279671-2.096341-3.3840652-2.1628655-2.2559342-.0598065-4.6983336,0-7.3303115.1897423-2.6319779.1863014-5.0743773.3127962-7.3304754.3758798-2.2559342.0632474-3.3839013-.4691124-3.3839013-1.5970795,0-.3760437.2162865-.6255924.6588547-.7520873.4358502-.1230539.7186612-.2495488.8451561-.3758798,2.505483-.6255924,5.1974312-.7820725,8.0823988-.4725533,2.8815267.3160733,5.573311.4725533,8.082235.4725533.4990976,0,1.2844471-.6888399,2.3491668-2.0697967,1.0648835-1.3775159,2.1628655-2.9747593,3.2908326-4.7914024,1.128131-1.816807,2.1895736-3.5405452,3.1944867-5.170887,1.0014722-1.6272286,1.6935892-2.7551957,2.0696328-3.3807881l.9383887-.3758798c.8749774.2495488,2.4422356,1.251021,4.6983336,3.0045806,2.2559342,1.7570005,4.6683485,3.6668762,7.2370789,5.733232,2.5688943,2.0696328,4.8880759,4.1060034,6.9544317,6.1092757,2.0696328,2.0063854,3.3508029,3.3839013,3.8531776,4.1359886-.1264949.7519235-.6288695,1.2877242-1.5040108,1.5970795-.8784183.3162371-1.816807.5956073-2.8182792.8451561ZM587.621876,481.9042919c2.4422356,3.9496873,5.0111299,7.396836,7.7063552,10.338333,2.6952253,2.9480512,4.9811447,4.4187997,6.8611991,4.4187997,3.3839013,0,6.2321657-1.2842833,8.5515112-3.8531776,2.3191816-2.5687304,3.4771339-5.4802423,3.4771339-8.7410897,0-3.8831628-1.1279671-7.3604606-3.3806243-10.4315656-2.2560981-3.0679919-5.047833-5.6067371-8.3652099-7.6132864-3.3240948-2.0031084-6.9544317-3.5403814-10.904119-4.605101-3.9462463-1.0614426-7.6098455-1.5972434-10.9939107-1.5972434-1.1279671,0-1.6935892.6288695-1.6935892,1.8800544,0,1.7568366.8484331,4.5752797,2.5387453,8.4582786,1.690476,3.8864398,3.7601088,7.7995878,6.2025083,11.745998ZM744.1980968,488.0134037c-1.816807-1.6270647-3.8531776-3.3506391-6.1091118-5.1674461-2.2560981-1.816807-4.4155226-3.5071191-6.4853193-5.0743773-2.0663558-1.5672582-3.35408-2.4124143-3.8531776-2.5389091h-.1863014l-1.1279671.5656221c-.5023747,1.0016361-1.254462,2.2860832-2.2560981,3.8533414-1.0047493,1.5670943-2.1328803,3.1643377-3.3839013,4.7914024-1.254462,1.6305056-2.5688943,3.0080215-3.9464102,4.1359886-1.380793,1.128131-2.6319779,1.690476-3.759945,1.690476h-17.8583868c-.2529897,0-.562345-.0932326-.9383887-.2829749-.3760437-.1863014-.5656221-.4025879-.5656221-.6554138,0-1.7535596,1.3175455-4.0096576,3.9496873-6.7679665,2.6319779-2.7551957,5.6998059-5.4804061,9.2103659-8.1756314,3.5071191-2.6952253,6.984253-5.1043625,10.4315656-7.2372428,3.4438717-2.1294394,6.0425873-3.5071191,7.7994239-4.1359886l.5656221-.9382248-.5656221-.7520873c-1.1279671-.2495488-3.1010903-.8751412-5.9195334-1.8800544-2.8217202-1.0014722-5.733232-2.0363706-8.7410897-3.1010903-3.0080215-1.0648835-5.733232-2.0363706-8.1756314-2.9149528-2.4456765-.8749774-3.9197021-1.3142685-4.4187997-1.3142685-.7520873,0-1.254462.4392911-1.5040108,1.3142685-1.0049132,2.6321417-1.5972434,5.6401632-1.7835447,9.0240646-.1895784,3.3840652-.4725533,6.7646894-.8484331,10.1487546-.3760437,3.3840652-.9716509,6.6116503-1.7835447,9.6794783-.8186118,3.074546-2.3491668,5.6101781-4.6052649,7.6132864-.126331,0-.3460585.0665245-.6588547.1895784-.3126324.1264949-.5356369.1864652-.6586908.1864652h-63.155016c-.5023747,0-.8451561.2195636-1.0348984.6586908-.1863014.4392911-.282811.8453199-.282811,1.2211997,0,.2529897.1897423.4425682.5657859.5657859.3758798.126331.685399.1863014.9382248.1863014h45.4896485c1.251021,0,1.8798906.6288695,1.8798906,1.8800544v62.0301621c0,2.1296032-.3760437,4.6983336-1.1279671,7.7063552-.7519235,3.0047445-1.8200841,6.139097-3.1943229,9.3966673-1.3809568,3.2610112-2.9814773,6.4553341-4.7948433,9.5864096-1.816807,3.1345164-3.8231924,5.9860579-6.016043,8.5515112-2.1928506,2.5721714-4.4820471,4.6385271-6.8611991,6.2057853s-4.8248285,2.3491668-7.3303115,2.3491668c-1.7535596,0-3.4772978-.3760437-5.1676099-1.1279671-1.6903121-.7520873-3.35408-1.5972434-4.9811447-2.5389091-1.6305056-.9383887-3.1943229-1.8135299-4.6983336-2.6319779-1.5040108-.8118938-3.0080215-1.2211997-4.5120323-1.2211997-1.254462,0-1.8800544.5656221-1.8800544,1.6903121,0,5.0145708,1.7535596,9.4001082,5.2641196,13.1600532,3.5071191,3.7601088,7.7661617,6.8611991,12.7805686,9.3035985,5.0111299,2.4422356,10.2752495,4.2590426,15.788754,5.4502571,5.5136684,1.1912145,10.2752495,1.7869857,14.2847432,1.7869857h63.3445944c1.0016361,0,1.693753-.6355875,2.0697967-1.8967675.7519235-1.8998807,1.2842833-3.4471488,1.5970795-4.6450813.3127962-1.2044867.6588547-2.3126275,1.0348984-3.3173768.3758798-1.0149082.9049626-2.0265394,1.5970795-3.0347296.6855628-1.0114673,1.7202973-2.4024192,3.1012541-4.1725279.2495488-.3793207.5923302-.8218889,1.0347345-1.3277045.436014-.5058156.6555776-1.0149082.6555776-1.5207238,0-.7552005-.6555776-1.1645064-1.9731232-1.2277539-1.3144323-.0665245-2.2261129-.0997867-2.7252105-.0997867-8.6447438,0-17.2927648-.0267081-25.9407857-.0932326-8.6447438-.0598065-17.2927648-.0930688-25.9375086-.0930688-6.2688689,0-12.5011985-.2162865-18.7035429-.6555776-6.2023444-.4358502-12.4379511-.6588547-18.7035429-.6588547l-.562345-.7519235.3760437-.9351116c1.7535596-1.6270647,4.0694641-3.0013035,6.9542679-4.1292706,2.8816905-1.12469,5.3871735-2.2493801,7.5200538-3.3773472,3.7566679-2.1263261,7.3902819-4.4722159,10.9006781-7.0376693,3.5071191-2.5654534,6.6416355-5.5367717,9.4001082-8.9141189,1.5007337-1.8733364,2.9115118-3.8431825,4.2292212-5.9095383,1.3142685-2.0598016,2.4089733-4.2192262,3.2873916-6.4718833.6255924-1.8767773,1.0648835-3.8466234,1.3177094-5.9129792.2495488-2.0596378.9383887-3.909707,2.0663558-5.5367717l1.1279671-.559068c.4992614,0,1.3776798.0299852,2.6321417.0932326,1.251021.0630836,2.5354682.0897917,3.8531776.0897917,1.3142685,0,2.505483-.0897917,3.5703665-.2762569,1.0647197-.1895784,1.7201335-.4723895,1.9731232-.8484331l-.562345-.7486464c-1.0049132-.3760437-2.1961277-.4990976-3.5736436-.3760437-1.3776798.1264949-2.7252105.1897423-4.0396428.1897423-1.3142685,0-2.4156913-.0932326-3.2908326-.2829749-.8784183-.1863014-1.3142685-.7819086-1.3142685-1.7833809v-53.4788147c0-1.251021.6255924-1.8766135,1.8800544-1.8766135h48.3077639c.3760437-.1232178.8751412-.3427814,1.5040108-.6588547.6255924-.3095192.9383887-.7786316.9383887-1.4075011,0-.2495488-.9116806-1.1912145-2.7252105-2.8217202ZM656.0406838,511.7913239c1.1912145-.4358502,1.7869857-1.0947049,1.7869857-1.9731232,0-.4990976-.2197275-.8118938-.6588547-.9383887-.4392911-.1230539-.7820725-.2495488-1.0316213-.3760437-3.8864398-1.0014722-7.8959336-1.5970795-12.0319222-1.7868218-4.1361525-.1863014-8.2088937-.282811-12.2183875-.282811-1.254462,0-1.8800544.6288695-1.8800544,1.8800544v6.5783881c0,3.2608474.0299852,6.9875301.0965097,11.1834891.0598065,4.2025131.1230539,8.6180357.1863014,13.2532858.0632474,4.6383633.1563162,8.9608171.282811,12.9703109.1232178,4.0096576.2495488,7.4235441.3760437,10.2419872.1230539,2.8215563.3127962,4.4187997.562345,4.7948433.6255924,1.380793,1.6935892,2.0396477,3.1976,1.9731232,1.5040108-.0599704,2.8816905-.0932326,4.1359886-.0932326,1.12469,0,2.3493307-.0632474,3.6635992-.1895784,1.3142685-.1232178,2.6319779-.3760437,3.9464102-.7520873,1.3175455-.3758798,2.5687304-.8751412,3.759945-1.5040108,1.1912145-.6254286,2.096341-1.4374863,2.7252105-2.4422356.3760437-.4990976.6588547-1.9400248.8451561-4.3224538.1895784-2.379152.3127962-5.2306935.3760437-8.5515112s.1230539-6.8911843.1895784-10.7143767c.0599704-3.8231924.0599704-7.5200538,0-11.0904203-.0665245-3.5736436-.0930688-6.7347042-.0930688-9.493177v-6.016043c0-1.1279671.5921663-1.9065987,1.7833809-2.3491668ZM644.5743837,460.0062622c.1895784,1.128131.405865,2.1961277.6588547,3.1977638.3760437,2.1328803.8451561,4.4820471,1.4107782,7.0475005.562345,2.5687304,1.4075011,4.9811447,2.5354682,7.2372428,1.128131,2.2559342,2.5688943,4.1359886,4.3257309,5.6399994,1.7535596,1.5040108,4.0694641,2.2526571,6.9544317,2.2526571,3.0080215,0,5.6399994-1.12469,7.8926565-3.3806243,2.2559342-2.2560981,3.3840652-4.8880759,3.3840652-7.8960975,0-2.7551957-.8784183-5.3571883-2.6321417-7.7995878-1.7535596-2.4456765-3.9462463-4.5751159-6.5782242-6.3919228-2.6321417-1.8135299-5.450421-3.2243081-8.4584425-4.2292212-3.0080215-1.0016361-5.7630533-1.5040108-8.2687002-1.5040108-1.0049132,0-1.6005204.1895784-1.7868218.5656221-.1897423.3760437-.2195636,1.0049132-.0932326,1.8800544.2495488,1.1279671.4692763,2.2526571.6555776,3.3806243ZM665.2510498,551.7340418c.6888399-.1230539,1.0348984-.3095192,1.0348984-.562345,0-.3760437-.1863014-.6255924-.562345-.7520873-.3760437-.1230539-.6921169-.1895784-.9416657-.1895784h-3.4771339c-.6888399,0-1.3144323.0665245-1.8800544.1895784-.562345.1264949-.8451561.3127962-.8451561.562345.3760437.3760437.96821.6290334,1.7868218.7520873.8118938.1264949,1.6570499.1895784,2.5354682.1895784.8751412,0,1.6604908-.0630836,2.3491668-.1895784ZM711.399553,529.2738309c0,3.6966975.0265443,7.6131226.0930688,11.7458341.0599704,4.1359886.1232178,7.959181.1863014,11.4663001.0632474,3.51056.1897423,6.4553341.3760437,8.8344861.1897423,2.3824291.4060288,3.759945.6588547,4.1359886.7519235,1.0049132,1.6903121,1.5040108,2.8182792,1.5040108h3.3840652c.7520873,0,2.0031084-.0932326,3.7601088-.282811,1.7535596-.1864652,3.5702027-.4692763,5.4502571-.8451561,1.8800544-.3760437,3.5071191-.9084035,4.8880759-1.5972434,1.3775159-.6888399,2.0663558-1.5339959,2.0663558-2.5389091v-47.5558404c0-.4990976.3758798-1.0314574,1.1279671-1.5970795.7519235-.562345,1.4707485-1.0947049,2.1628655-1.5972434.685399-.4990976,1.1279671-.9383887,1.3142685-1.3142685.1897423-.3760437-.3460585-.7520873-1.5970795-1.128131-4.0129347-1.1279671-8.1456463-1.7535596-12.4048527-1.8798906-4.2623196-.1232178-8.3984721-.1897423-12.4079659-.1897423-.6255924,0-1.0981458.282811-1.4075011.848597-.3160733.562345-.5025385,1.2210359-.5656221,1.9731232-.0632474.7519235-.0632474,1.5339959,0,2.3491668.0630836.8151709.0965097,1.4075011.0965097,1.7835447v15.8852637ZM940,550.4196094c0,2.1330441-.8751412,3.6370549-2.6287008,4.5120323-1.7570005.8785822-3.6668762,1.5040108-5.733232,1.8800544-2.0696328.3760437-3.9796724.7221021-5.733232,1.0314574-1.7568366.3162371-2.6319779.9716509-2.6319779,1.973287,0,.2528259.562345.9116806,1.6903121,1.9764002,1.1279671,1.0648835,2.4124143,2.1595884,3.8531776,3.2875555s2.8517053,2.1928506,4.2292212,3.1943229c1.3775159,1.0049132,2.2559342,1.6305056,2.6319779,1.8800544l.5656221.9416657-.5656221,1.1279671c-1.380793.3760437-3.2608474.6288695-5.6367223.7520873-2.3824291.126331-4.8879121.1863014-7.5200538.1863014-2.6319779,0-5.2007083-.0299852-7.7063552-.0932326-2.5087601-.0632474-4.5751159-.0930688-6.2023444-.0930688-.8784183,0-1.3175455.4391272-1.3175455,1.3142685,0,.6288695.7819086,1.5040108,2.3491668,2.6319779,1.5670943,1.128131,3.2575703,2.3491668,5.0776544,3.6635992,1.8133661,1.3177094,3.503842,2.5721714,5.0743773,3.759945,1.5638173,1.1946555,2.3491668,2.099618,2.3491668,2.7252105,0,.3760437-.3127962.6288695-.9383887.7520873-.6288695.126331-1.0681606.2528259-1.3177094.3758798-1.1279671.2529897-3.2873916.5956073-6.4851555,1.0348984-3.1943229.4392911-6.5484029.9383887-10.055522,1.5040108-3.5103962.562345-6.6716207,1.0979819-9.493177,1.5970795-2.8184431.5025385-4.3557161.9418296-4.6052649,1.3177094-.126331.1232178-.1863014.2495488-.1863014.3727666,0,.126331-.0665245.2528259-.1897423.3758798.7520873,1.6305056,2.1628655,2.9149528,4.2292212,3.8566185,2.0696328.9382248,4.47877,1.6270647,7.2372428,2.0663558,2.7551957.4391272,5.733232.7219383,8.9275549.8451561,3.1976.126331,6.3288393.2195636,9.3999444.282811,3.0679919.0632474,5.9495185.2195636,8.6447438.4691124,2.6952253.2529897,4.9180611.7520873,6.6748977,1.5040108,1.2511849.5025385,1.3775159,1.3809568.3760437,2.6319779-2.0065493,2.2560981-3.5738075,4.1061673-4.6983336,5.5436536-1.128131,1.4407633-2.103059,2.8815267-2.9149528,4.3255671-.8151709,1.4374863-1.5970795,2.9747593-2.3491668,4.6052649-.7519235,1.6270647-1.6935892,3.7566679-2.8217202,6.3886458-.3726027.8751412-1.0014722,1.3177094-1.8766135,1.3177094-2.7584727,0-6.0792905-.7520873-9.9622894-2.2560981-3.8866037-1.5038469-7.9593449-3.4771339-12.2183875-5.9228104-4.2624835-2.4422356-8.524967-5.2606787-12.7807325-8.4582786-4.2624835-3.1943229-8.0558546-6.4853193-11.3732314-9.8659436-3.3208177-3.3840652-6.0460282-6.7679665-8.1756314-10.1520317-2.1328803-3.3840652-3.1976-6.5151406-3.1976-9.3966673,0-.2495488.0632474-.5956073.1895784-1.0348984.1232178-.4391272.3760437-.6588547.7520873-.6588547,1.251021,0,2.505483.5358008,3.759945,1.5972434,1.2511849,1.0681606,2.5022059,2.2261129,3.7566679,3.4771339,1.2511849,1.254462,2.5389091,2.4156913,3.8531776,3.4805749,1.3177094,1.0647197,2.7252105,1.5970795,4.2292212,1.5970795,1.3776798,0,3.3840652-.7519235,6.016043-2.2559342,2.6319779-1.5040108,5.2639557-3.2908326,7.8960975-5.3571883,2.6287008-2.0696328,5.007689-4.195959,7.1405692-6.3920867,2.1296032-2.1894097,3.3840652-3.9762315,3.7601088-5.3571883l.9383887-.9382248h.1895784c.3760437-.1232178.9683739-.6255924,1.7868218-1.5040108.8118938-.8751412,1.6903121-1.8467922,2.6287008-2.9149528.9416657-1.0614426,1.7535596-2.0330935,2.4456765-2.9115118.685399-.8751412,1.0314574-1.5040108,1.0314574-1.8800544,0-1.0014722-.3726027-1.6270647-1.1245262-1.8798906-.7520873-.2495488-2.2261129-.4692763-4.4189635-.6588547-2.1926868-.1863014-4.7648581-.3095192-7.7063552-.3760437-2.9447741-.0598065-6.1091118-.1230539-9.493177-.1863014-3.3840652-.0632474-6.6416355-.0965097-9.772711-.0965097h-13.9086996c-.8784183,0-1.537273.6288695-1.9765641,1.8800544-.4391272,1.254462-.688676,2.6652401-.7519235,4.2292212-.0632474,1.5705353.0298213,3.074546.282811,4.5118684.2495488,1.4442043.688676,2.2893603,1.3177094,2.5389091,1.251021,0,3.4438717-.0632474,6.5782242-.1897423,3.1312393-.1230539,6.3588244-.1863014,9.6796422-.1863014,3.3173768,0,6.3919228.0632474,9.2103659.1863014,2.8182792.1264949,4.605101.4425682,5.3571883.9416657-.5025385.6290334-2.5089239,1.0316213-6.016043,1.2211997-3.5103962.1864652-7.4235441.282811-11.7458341.282811-4.3257309,0-8.4584425-.0298213-12.4081297-.0963458-3.9462463-.0599704-6.5484029-.0932326-7.7995878-.0932326-.6288695,0-1.0647197.1264949-1.3142685.3760437-.2528259.2528259-.5656221.5656221-.9416657.9416657-1.0049132,1.1279671-1.9433018,2.099618-2.8182792,2.9115118-.8785822.818448-2.0065493,1.537273-3.3840652,2.1628655-2.1328803,1.1279671-4.1359886,2.0063854-6.016043,2.6319779-.6288695.2528259-1.5672582.562345-2.8182792.9382248-1.254462.3760437-2.4756617.8453199-3.6668762,1.410942-1.1912145.562345-2.2526571,1.1912145-3.1943229,1.8800544-.9383887.688676-1.410942,1.4075011-1.410942,2.1594245v12.4081297c0,1.251021.6255924,1.8766135,1.8800544,1.8766135,4.0094938,0,8.0823988-.1863014,12.2183875-.562345,4.1359886-.3760437,8.2054528-.562345,12.2183875-.562345.6255924,0,1.3142685.0299852,2.0663558.0932326.7519235.0632474,1.4407633.3460585,2.0696328.8451561-.2528259.7519235-1.2211997,1.537273-2.9147889,2.3491668-1.6903121.818448-3.6036288,1.5970795-5.733232,2.3491668-2.1328803.7519235-4.2292212,1.4107782-6.295577,1.9731232-2.0696328.5656221-3.4771339.974928-4.2290574,1.2244768-5.3906144,1.7535596-10.7143767,3.6303369-15.9784963,5.6367223-5.2639557,2.0031084-10.5911589,3.8831628-15.9750554,5.6399994-1.3809568.4990976-2.7284875.9084035-4.042756,1.2211997-1.3144323.3127962-2.665404.7819086-4.0396428,1.410942-1.0049132.3758798-2.0696328,1.0947049-3.1976,2.1594245s-2.1928506,1.6005204-3.1943229,1.6005204c-.5025385,0-1.4741894-.9416657-2.9149528-2.8217202-1.4407633-1.8798906-2.9115118-4.0094938-4.4155226-6.3886458-1.5040108-2.3824291-2.8515415-4.6717894-4.042756-6.8611991-1.1912145-2.1928506-1.7835447-3.6668762-1.7835447-4.4187997,0-1.2511849,1.2810062-1.8800544,3.8531776-1.8800544,2.5654534,0,5.3837326.1264949,8.4584425.3760437,3.067828.2528259,5.8861073.3460585,8.4582786.282811,2.5654534-.0599704,3.8531776-.7819086,3.8531776-2.1628655,0-1.7535596-.0332622-3.5703665-.0965097-5.450421-.0632474-1.8798906-.0930688-3.6934205-.0930688-5.4502571l-.562345-1.3144323c-1.0049132-.3758798-2.4158552-.4990976-4.2292212-.3758798-1.8200841.126331-3.8864398.3758798-6.2023444.7519235-2.3226226.3760437-4.7017746.8151709-7.1440102,1.3142685-2.4423994.5025385-4.7317598.9383887-6.8611991,1.3144323-2.1328803.3760437-4.0396428.6288695-5.733232.7519235-1.6903121.1264949-2.8517053-.0598065-3.4771339-.562345.3758798-.4990976,1.943138-1.2210359,4.6983336-2.1627016,2.7550318-.9383887,6.139097-2.0330935,10.1520317-3.2875555,4.0094938-1.2511849,8.2687002-2.5688943,12.7807325-3.9496873,4.5120323-1.3775159,8.7078274-2.785017,12.5942673-4.2292212,3.8831628-1.4374863,7.1109118-2.8182792,9.6796422-4.1327116,2.5687304-1.3177094,3.8531776-2.4756617,3.8531776-3.4771339,0-.7520873-.5025385-1.1279671-1.5040108-1.1279671h-58.2702171c-1.0016361,0-1.6272286-.4990976-1.8767773-1.5040108.2495488-.2495488.4990976-.3760437.7520873-.3760437h69.7332402c1.2511849,0,1.8800544-.6255924,1.8800544-1.8800544,0-.4990976.0632474-1.2842833.1895784-2.3491668.1232178-1.0647197.153203-2.1628655.0932326-3.2908326-.0665245-1.1279671-.2528259-2.096341-.5656221-2.9115118s-.8451561-1.2244768-1.5972434-1.2244768c-2.1328803,0-4.2624835.1897423-6.3886458.5656221-2.1328803.3760437-4.2624835.562345-6.3920867.562345-.6288695,0-1.0347345-.1530391-1.2211997-.4691124-.1895784-.3095192-.409142-.7188251-.6586908-1.2211997-.2529897-.6255924-.5956073-1.4707485-1.0348984-2.5389091-.4392911-1.0614426-.8784183-2.222672-1.3144323-3.4771339-.4424043-1.251021-.7851857-2.4089733-1.0347345-3.4771339-.2528259-1.0614426-.2528259-1.9100396,0-2.5354682.6255924-.7520873,1.3442537-1.3776798,2.1628655-1.8800544.8118938-.4990976,1.5970795-1.0648835,2.3491668-1.693753l.3760437-.9382248c-.2529897-1.6272286-1.0049132-2.6952253-2.2560981-3.1943229-1.0049132-.2529897-2.3824291-.4725533-4.1359886-.6588547-1.7568366-.1897423-3.6036288-.3127962-5.5434897-.3760437-1.9465789-.0632474-3.8531776-.0932326-5.733232-.0932326h-7.5200538c-1.254462,0-1.8800544.6255924-1.8800544,1.8767773v16.9199982c0,1.0016361-.8151709,1.8500692-2.4422356,2.5354682-1.6305056.6921169-3.4772978,1.2211997-5.5436536,1.5972434-2.0696328.3760437-4.0760183.6588547-6.0158792.8484331-1.9433018.1864652-3.2908326.279534-4.0429199.279534-1.254462,0-1.8800544-.6255924-1.8800544-1.8800544v-62.026885c0-.7519235-.4391272-1.3775159-1.3142685-1.8800544-.8784183-.4990976-1.9433018-.9082396-3.1943229-1.2210359-1.254462-.3127962-2.4756617-.4990976-3.6668762-.5657859-1.1912145-.0598065-2.0363706-.0930688-2.5354682-.0930688v-.9383887h16.5406774c.7519235,0,1.3142685-.3460585,1.6903121-1.0348984.3760437-.688676.6255924-1.5040108.7520873-2.4456765.1230539-.9382248.1563162-1.9065987.0930688-2.9115118-.0632474-1.0014722-.0930688-1.7535596-.0930688-2.2559342v-2.8182792c0-1.3776798-.0932326-2.7884579-.282811-4.2292212-.1864652-1.4407633-.4692763-2.7252105-.8453199-3.8531776-.3758798-1.1279671-.8784183-1.693753-1.5040108-1.693753-2.1328803,0-4.2623196.0932326-6.3886458.282811-2.1328803.1864652-4.2624835.0332622-6.3919228-.4691124-1.0049132-.2495488-1.410942-.5956073-1.2211997-1.0348984.1863014-.4358502.5290828-.6586908,1.0314574-.6586908h22.3704191c.7520873,0,1.2211997.1595933,1.4075011.4723895.1897423.3127962.4060288.7819086.6588547,1.4075011.4990976,1.254462,1.2211997,2.4756617,2.1628655,3.6668762.9383887,1.1912145,1.8466283,2.4124143,2.7252105,3.6635992.8749774,1.254462,1.6270647,2.5087601,2.2559342,3.759945.6255924,1.254462.9383887,2.5089239.9383887,3.759945,0,.6290334-.0932326,1.3144323-.282811,2.0663558-.1864652.7520873-.279534,1.4442043-.279534,2.0697967,0,1.1279671.6255924,1.6903121,1.8800544,1.6903121h10.9006781l1.3142685-.562345c.3760437-.1232178.6888399-1.0981458.9416657-2.9147889.2495488-1.8135299.4692763-3.8533414.6588547-6.1092757.1863014-2.2559342.3095192-4.3855374.3727666-6.3920867.0630836-2.0031084.0963458-3.3173768.0963458-3.9462463,0-1.0016361-.4424043-1.5040108-1.3175455-1.5040108h-16.9167211l-1.3144323-.562345-.1895784-.7520873c.3758798-.4990976.6254286-1.4407633.7519235-2.8215563.1230539-1.3742388.1897423-2.8782496.1897423-4.5087552,0-1.6270647-.0332622-3.2243081-.0932326-4.7948433-.0665245-1.5639811-.0965097-2.7252105-.0965097-3.4771339,0-1.2511849.6255924-1.8800544,1.8800544-1.8800544.8751412,0,2.2859194.0665245,4.2292212.1897423,1.943138.126331,3.9762315.3126324,6.1091118.5621812,2.1296032.2529897,4.1359886.5358008,6.016043.8453199,1.8800544.3160733,3.1943229.5988843,3.9464102.8484331.7519235.2528259,1.1912145.8784183,1.3142685,1.8800544.1264949,1.0014722.0965097,2.0663558-.0932326,3.1943229-.1863014,1.1279671-.405865,2.2559342-.6554138,3.3840652-.2529897,1.1279671-.3760437,2.0063854-.3760437,2.6319779,0,1.5005698.4358502,2.379152,1.3144323,2.6287008.8749774.2528259,1.8798906.3758798,3.0078577.3758798,1.5040108,0,2.7851808-.562345,3.8533414-1.6903121,1.0614426-1.1279671,2.0363706-2.379152,2.9115118-3.759945.8749774-1.3776798,1.7535596-2.661963,2.6319779-3.8531776.8751412-1.1879375,1.943138-1.9100396,3.1976-2.1595884.4990976.1232178,1.5972434.7819086,3.2875555,1.9731232,1.6935892,1.1913784,3.4473126,2.4756617,5.2639557,3.8533414,1.8135299,1.380793,3.4440355,2.7250466,4.8880759,4.039479,1.4374863,1.3177094,2.1595884,2.225949,2.1595884,2.7252105.1230539,1.2542981-.7820725,1.9464151-2.7252105,2.0696328-1.9433018.126331-4.1061673.0930688-6.4851555-.0965097-2.3825929-.1863014-4.5420175-.279534-6.4853193-.279534-1.943138,0-2.9115118.4392911-2.9115118,1.3144323,0,.6288695.7820725,1.7568366,2.3491668,3.3839013,1.5639811,1.6305056,3.3175407,3.35408,5.2641196,5.1676099,1.9398609,1.8200841,3.8531776,3.5103962,5.7330681,5.0776544,1.8767773,1.5672582,3.1944867,2.6019927,3.9464102,3.1010903.7520873.6290334,1.5972434,1.254462,2.5354682,1.8800544.9416657.6288695,1.6604908,1.3144323,2.1628655,2.0663558-.126331.7520873-1.254462,1.1612294-3.3839013,1.2211997-2.1330441.0665245-4.482211.0930688-7.0476643.0930688h-7.2370789c-2.2560981,0-3.5703665.2529897-3.9464102.7520873-.1264949.1264949-.1897423.2528259-.1897423.3760437,0,.126331-.0630836.3160733-.1863014.5656221.1232178.7519235,1.0016361,1.7835447,2.6319779,3.1012541,1.6272286,1.3142685,3.4107733,2.6319779,5.3571883,3.9462463,1.9400248,1.3177094,3.6935843,2.6021565,5.2608425,3.8531776,1.5670943,1.254462,2.3491668,2.1961277,2.3491668,2.8217202,0,.3760437-.279534.7221021-.8451561,1.0314574-.562345.3160733-1.1913784.6288695-1.8800544.9416657-.6888399.3127962-1.3144323.6888399-1.8800544,1.1279671-.562345.4392911-.8451561.9716509-.8451561,1.5972434v35.5237543l.5656221,1.3177094.1863014.1863014,1.3177094.5657859c2.1296032.126331,4.195959.3460585,6.2023444.6554138,2.0031084.3160733,4.0694641.4725533,6.2023444.4725533,1.2511849,0,1.8800544-.6255924,1.8800544-1.8800544v-52.6302177c0-1.0014722-.1895784-1.8800544-.5656221-2.6319779-.3760437-.7520873-.6288695-1.5672582-.7520873-2.4456765-.126331-.7486464.0632474-1.6903121.5657859-2.8182792.4990976-1.128131.7519235-2.1296032.7519235-3.0080215v-33.4575624c0-1.3775159.6255924-2.0663558,1.8800544-2.0663558.7519235,0,2.3491668-.0299852,4.7915663-.0930688,2.4456765-.0632474,4.9478824,0,7.51989.1863014,2.5656172.1863014,4.8548137.5023747,6.8611991.9383887,2.0032722.4424043,3.0047445,1.1612294,3.0047445,2.1627016,0,.6290334-.4691124,1.410942-1.4075011,2.3491668-.9416657.9416657-1.4107782,2.099618-1.4107782,3.4772978,0,.3758798.3127962,1.1944916.9416657,2.4456765.6254286,1.254462,1.1279671,1.8798906,1.5040108,1.8798906h20.111044c1.3775159,0,2.7252105-.6254286,4.039479-1.8798906,1.3177094-1.2511849,2.5389091-2.6319779,3.6668762-4.1359886,1.1279671-1.5040108,2.096341-2.8816905,2.9147889-4.1361525.8118938-1.251021,1.5307189-1.8798906,2.1595884-1.8798906.4990976,0,1.6270647.5956073,3.3840652,1.7868218,1.7535596,1.1912145,3.6334501,2.5687304,5.6399994,4.1359886,2.0031084,1.5672582,3.7866531,3.0380067,5.3571883,4.4155226,1.5638173,1.3809568,2.3491668,2.2559342,2.3491668,2.6319779,0,1.0049132-1.0049132,1.5040108-3.0080215,1.5040108-2.0065493,0-4.1992361-.0299852-6.5783881-.0930688-2.3824291-.0632474-4.5752797-.0299852-6.5783881.0930688-2.0063854.1264949-3.0080215.7520873-3.0080215,1.8800544,0,.5023747.6588547,1.3142685,1.9731232,2.4423994,1.3144323,1.1279671,2.8184431,2.2891965,4.5120323,3.4771339,1.690476,1.1944916,3.3175407,2.3491668,4.8847989,3.4771339,1.5672582,1.1279671,2.661963,1.9465789,3.2908326,2.4456765v.7520873c0,1.8766135-.5025385,3.8231924-1.5040108,5.8263008-1.0049132,2.0063854-1.7570005,3.9464102-2.2560981,5.8263008-.2528259.6288695-.3758798,1.0348984-.3758798,1.2211997,0,.1897423-.3127962.4093059-.9383887.6588547-1.254462.6288695-2.5389091,1.0348984-3.8531776,1.2211997-1.3177094.1895784-2.6021565.5956073-3.8531776,1.2211997,0,1.6303418.9049626,3.2275851,2.7252105,4.7948433,1.8133661,1.5670943,3.4106094,2.661963,4.7914024,3.2873916l.3760437.9416657-.3760437.9383887c-1.1279671.7520873-2.3824291,1.2211997-3.7566679,1.410942-1.380793.1863014-2.7584727.409142-4.1359886.6586908l-.5656221.7488102.3760437.9416657,6.7679665,6.7679665.3760437.9383887-.5657859.7519235c-.8784183.1264949-2.0363706.4392911-3.4771339.9383887-1.4407633.5023747-2.1594245,1.254462-2.1594245,2.2559342,0,.3760437.3426176.9416657,1.0314574,1.693753.6888399.7519235,1.4740256,1.5672582,2.3524439,2.4422356.8751412.8785822,1.6570499,1.7237382,2.3491668,2.5389091.6855628.8151709,1.0316213,1.4740256,1.0316213,1.9731232,0,.6288695-.279534,1.0049132-.8451561,1.128131-.562345.126331-1.0981458.1863014-1.5972434.1863014h-35.1511516c-.3760437,0-.9383887.282811-1.6903121.8451561-.7520873.5656221-1.254462.974928-1.5040108,1.2244768,0,2.0031084.1895784,3.9464102.5656221,5.8263008.3760437,1.8800544,1.8767773,2.8184431,4.5087552,2.8184431h30.0767743c1.6270647,0,3.0045806-.3427814,4.1327116-1.0348984,1.1279671-.685399,2.099618-1.4707485,2.9147889-2.3491668.8151709-.8751412,1.5040108-1.6570499,2.0663558-2.3491668.5656221-.685399,1.1579523-1.0314574,1.7868218-1.0314574.2495488,0,.9383887.5323598,2.0663558,1.5970795,1.1279671,1.0648835,2.3191816,2.2860832,3.5736436,3.6635992,1.2511849,1.380793,2.379152,2.6985024,3.3840652,3.9496873,1.0014722,1.251021,1.5007337,2.0663558,1.5007337,2.4422356ZM823.4628428,525.9829984c0-1.2511849-.6290334-1.8800544-1.8800544-1.8800544h-22.5567205c-1.254462,0-1.8800544.6288695-1.8800544,1.8800544v7.51989c0,1.254462.6255924,1.8800544,1.8800544,1.8800544h22.5567205c1.251021,0,1.8800544-.6255924,1.8800544-1.8800544v-7.51989ZM823.4628428,510.9461678c0-1.251021-.6290334-1.8800544-1.8800544-1.8800544h-22.5567205c-1.254462,0-1.8800544.6290334-1.8800544,1.8800544v7.5200538c0,1.254462.6255924,1.8800544,1.8800544,1.8800544h22.5567205c1.251021,0,1.8800544-.6255924,1.8800544-1.8800544v-7.5200538ZM828.6302889,498.0723666c.1897423-.9416657-.4060288-1.410942-1.7835447-1.410942h-43.9854739c-.2528259,0-.5956073.0932326-1.0348984.282811-.4391272.1864652-.6554138.4692763-.6554138.8451561,0,1.8800544,1.3442537,3.3840652,4.039479,4.5120323,2.6952253,1.12469,5.7964794,2.0365345,9.3035985,2.7252105,3.5071191.6888399,6.984253,1.1279671,10.4348427,1.3144323,3.4438717.1895784,5.8562859.282811,7.2372428.282811,1.251021,0,2.5987156.0332622,4.039479.0930688,1.4407633.0632474,2.7252105-.0298213,3.8531776-.282811.8751412-.1230539,1.9731232-.7186612,3.2908326-1.7835447,1.3142685-1.0647197,2.4722208-2.1926868,3.4771339-3.3839013,1.0016361-1.1912145,1.5972434-2.2560981,1.7835447-3.1943229ZM831.4520091,492.1493923c2.0663558-.7519235,3.9762315-1.9098757,5.7330681-3.4771339,1.7535596-1.5638173,2.6287008-3.4138865,2.6287008-5.5434897,0-.6255924-.0930688-1.2511849-.2793701-1.8800544-.1897423-.6255924-.6588547-.9416657-1.410942-.9416657-.7519235,0-1.9731232.4093059-3.6634353,1.2211997-1.693753.8186118-3.35408,1.7868218-4.9813085,2.9147889-1.6303418,1.1279671-3.074546,2.2893603-4.3255671,3.4772978-1.254462,1.1912145-1.8800544,2.225949-1.8800544,3.1010903,0,1.1279671.8484331,1.7868218,2.5389091,1.9731232,1.6903121.1897423,3.5702027-.0930688,5.6399994-.8451561ZM881.9193613,474.6703262c0,1.3776798.3127962,2.661963.9416657,3.8531776.6255924,1.1912145,1.6270647,1.7835447,3.0047445,1.7835447.6254286,0,1.8798906-.0299852,3.759945-.0932326,1.8800544-.0630836,3.8231924-.1863014,5.8263008-.3758798,2.0031084-.1863014,3.8531776-.3760437,5.5469306-.562345,1.6903121-.1897423,2.7252105-.4725533,3.1010903-.848597l6.5783881-6.5782242.3760437-.9383887-.562345-.7520873c-4.1359886-.6254286-8.3052395-.96821-12.5011985-1.0347345-4.1992361-.0599704-8.4284573-.0932326-12.6874999-.0932326-1.128131,0-1.973287.5956073-2.5389091,1.7868218-.562345,1.1912145-.8451561,2.4756617-.8451561,3.8531776ZM882.4849834,517.8073669c.2495488.9383887.6255924,1.4107782,1.1279671,1.4107782h19.1728192l1.3142685-.5656221c.2495488-.2495488.6588547-.6255924,1.2211997-1.1279671.5657859-.4990976,1.1279671-1.0314574,1.693753-1.5972434.562345-.562345,1.0614426-1.1279671,1.5005698-1.6903121.4392911-.5656221.6588547-1.0347345.6588547-1.4107782s-.1563162-.7188251-.4691124-1.0348984c-.3127962-.3093553-.5956073-.5921663-.8451561-.8451561l-1.3177094-.562345h-20.4870876c-1.1279671,0-1.9731232.4692763-2.5389091,1.4075011-.5621812.9416657-.9382248,1.9465789-1.1279671,3.0080215-.1863014,1.0681606-.1563162,2.0663558.0965097,3.0080215ZM882.578216,506.4341356c.3093553,1.0049132,1.0347345,1.5040108,2.1628655,1.5040108h17.6686446c.3760437,0,.9051264-.2162865,1.5972434-.6554138.685399-.4392911,1.3775159-.9416657,2.0663558-1.5040108.688676-.5657859,1.2842833-1.1579523,1.7868218-1.7868218.4990976-.6255924.7519235-1.128131.7519235-1.5040108,0-.3760437-.2195636-.8118938-.6588547-1.3144323-.4391272-.4990976-.9714871-1.0014722-1.5970795-1.5040108-.6288695-.4990976-1.254462-.9416657-1.8800544-1.3177094-.6288695-.3758798-1.1279671-.562345-1.5040108-.562345h-18.7967755c-.2528259.1264949-.409142.1864652-.4691124.1864652-.0665245,0-.2195636.0665245-.4691124.1895784-.2529897.1264949-.5025385.6888399-.7520873,1.6903121-.2528259,1.0049132-.3760437,2.099618-.3760437,3.2908326,0,1.1913784.153203,2.2860832.4692763,3.2875555ZM886.338161,494.1226793c2.4423994.1895784,4.1626967.282811,5.1676099.282811h7.3303115c1.5040108,0,2.9147889-.0632474,4.2292212-.1897423,1.3177094-.1230539,2.0961771-.3093553,2.3491668-.562345.6255924-.4990976.9416657-1.3142685.9416657-2.4422356,0-3.0080215-.2529897-5.1376247-.7520873-6.3920867-.5023747-1.2511849-1.3175455-2.0363706-2.4422356-2.3491668-1.128131-.3127962-2.5089239-.3760437-4.1359886-.1897423-1.6305056.1897423-3.5738075.2829749-5.8264646.2829749h-5.453698c-2.6319779,0-5.3272032.1595933-8.0823988.4691124-2.7583089.3160733-5.2007083.8484331-7.3303115,1.6005204-2.1328803.7486464-3.1943229,1.8766135-3.1943229,3.3806243,0,1.3809568.96821,2.4756617,2.9115118,3.2908326,1.9433018.8153347,4.1992361,1.4407633,6.7679665,1.8800544,2.5688943.4392911,5.0743773.7519235,7.5200538.9383887ZM883.6129505,531.6229978h20.4870876l1.3144323-.5657859,5.0776544-5.0742134.562345-1.3144323c0-.3760437-.0632474-.7519235-.1863014-1.1279671-.1264949-.3760437-.4425682-.5656221-.9416657-.5656221h-26.3135523c-.5023747,0-.8784183.4424043-1.1279671,1.3175455-.2528259.8785822-.3760437,1.8800544-.3760437,3.0080215,0,1.128131.1232178,2.1296032.3760437,3.0080215.2495488.8751412.6255924,1.3144323,1.1279671,1.3144323ZM545.7520201,608.8762918c1.0014722,1.6305056,1.5040108,3.2575703,1.5040108,4.8880759,0,1.8798906-.4392911,3.5071191-1.3144323,4.8879121-.8784183,1.3775159-2.0063854,2.5056469-3.3840652,3.3807881-1.380793.8749774-2.9147889,1.5040108-4.605101,1.8798906-1.693753.3760437-3.35408.5657859-4.9811447.5657859h-43.7958954c-2.2559342,0-4.0429199-.7520873-5.3571883-2.2560981-1.3177094-1.5040108-2.3491668-3.3208177-3.1012541-5.450421-.7519235-2.1328803-1.2210359-4.3555522-1.4107782-6.6747339-.1863014-2.3159046-.282811-4.2891916-.282811-5.9195334v-29.2283412c0-1.4407633-.0932326-2.8815267-.279534-4.32229-.1895784-1.4407633-.5656221-2.661963-1.1279671-3.6668762-.5656221-1.0016361-1.4740256-1.5040108-2.7252105-1.5040108h-50.5638619c-.8784183,0-1.3177094.4391272-1.3177094,1.3142685,0,.8784183.6888399,1.5040108,2.0696328,1.8800544,1.3776798.3760437,3.1012541.6588547,5.1676099.8484331,2.0696328.1864652,4.1992361.3460585,6.3920867.4692763,2.1894097.126331,4.0694641.282811,5.6399994.4691124,1.5638173.1897423,2.6585221.5358008,3.2873916,1.0348984.6255924.5023747.3127962,1.254462-.9382248,2.2559342l-.5657859,1.3144323v9.2103659c0,.7519235.3127962,1.2211997.9416657,1.4107782.6255924.1863014,1.2511849.279534,1.8800544.279534,1.8800544,0,3.5371043-.3760437,4.9811447-1.1279671,1.4374863-.7488102,2.6919482-1.7202973,3.7568318-2.9115118,1.0647197-1.1912145,2.0363706-2.5389091,2.9147889-4.0429199.8751412-1.5040108,1.7535596-2.941497,2.6319779-4.32229l1.1279671-.562345.9383887.3758798,12.7840095,12.9671977.562345,1.3175455c0,.7520873-.3127962,1.128131-.9382248,1.128131h-29.7008945c-1.254462,0-1.8800544.6288695-1.8800544,1.8798906,0,.6288695-.0630836,1.5972434-.1863014,2.9115118-.126331,1.3177094-.1895784,2.6986662-.1895784,4.1359886,0,1.4409272.1563162,2.6953892.4723895,3.7601088.3095192,1.0647197.9051264,1.5972434,1.7835447,1.5972434h23.3088078c.8751412,0,1.5638173.2528259,2.0663558.7519235-.3760437.6288695-1.8500692,1.6305056-4.4155226,3.0080215-2.5721714,1.3809568-5.7032468,2.9115118-9.4001082,4.605101-3.6966975,1.690476-7.7363404,3.4772978-12.1218778,5.3571883-4.3888145,1.8800544-8.5547883,3.6003517-12.5011985,5.1676099-3.9464102,1.5672582-7.4900686,2.9447741-10.6211441,4.1359886-3.1312393,1.1879375-5.2606787,1.9100396-6.3888096,2.1628655l-1.3175455-.5656221c-.3760437-.5025385-1.0981458-1.8500692-2.1595884-4.0396428-1.0681606-2.1959639-2.1628655-4.5452945-3.2908326-7.0507775-1.1279671-2.5089239-2.1328803-4.8215514-3.0080215-6.9544317-.8784183-2.1294394-1.3142685-3.3839013-1.3142685-3.759945,0-.7520873.685399-1.2511849,2.0663558-1.5040108,1.3775159-.2495488,2.9745954-.3760437,4.7948433-.3760437,1.8133661,0,3.5369404.0665245,5.1674461.1897423,1.6270647.126331,2.7551957.1863014,3.3840652.1863014.6255924,0,1.0347345-.4358502,1.2211997-1.3142685.1895784-.8751412.282811-1.8800544.282811-3.0080215,0-1.128131-.0932326-2.2560981-.282811-3.3840652-.1864652-1.1279671-.279534-1.8800544-.279534-2.2560981-.1264949-1.251021-.1897423-3.1277984-.1897423-5.6365585,0-2.5056469-.0332622-5.1043625-.0930688-7.8028648-.0665245-2.6919482-.1597571-5.1975951-.282811-7.5167767-.1264949-2.3191816-.3127962-3.8531776-.562345-4.605101-.5025385-1.2511849-1.3177094-2.3493307-2.4456765-3.2909964-1.128131-.9382248-2.3825929-1.4075011-3.7601088-1.4075011-.8751412,0-1.7235744.8453199-2.5354682,2.535632-.8186118,1.6935892-1.5972434,3.8531776-2.3491668,6.4851555-.7520873,2.6319779-1.5040108,5.5169455-2.2560981,8.6480209-.7519235,3.1310755-1.5040108,6.139097-2.2559342,9.0207875-.7520873,2.8848037-1.4407633,5.4237128-2.0663558,7.6131226-.6288695,2.1928506-1.1944916,3.6036288-1.6935892,4.2292212-1.3809568,1.7568366-3.1012541,3.6966975-5.1676099,5.8263008-2.0696328,2.1328803-4.2624835,4.2292212-6.5783881,6.2988541-2.3224587,2.0663558-4.6383633,3.9763954-6.9577088,5.733232-2.3191816,1.7502825-4.47877,3.1277984-6.4818784,4.1327116l-.7519235-.7520873c.1230539-3.3806243.685399-6.6714568,1.6903121-9.8657797,1.0016361-3.1977638,2.096341-6.3288393,3.2908326-9.4001082,1.1879375-3.067828,2.3159046-6.1690822,3.3807881-9.3035985,1.0647197-3.1310755,1.7235744-6.3919228,1.9764002-9.775988,1.3742388-16.0383028,2.1894097-32.0466204,2.4423994-48.0249528.2495488-15.9750554.3760437-31.9835368.3760437-48.0251167,0-1.6270647.0598065-3.5071191.1863014-5.6367223.1230539-2.1294394.0965097-4.2290574-.0932326-6.2988541-.1863014-2.0663558-.5956073-4.039479-1.2211997-5.9195334-.6288695-1.8798906-1.6903121-3.3839013-3.1943229-4.5120323l-.5656221-.9382248c.2495488-1.0016361.8751412-1.5040108,1.8800544-1.5040108h5.6399994c2.7550318,0,5.9195334.0299852,9.4898999.0930688,3.5736436.0632474,7.3335886.0932326,11.2799988.0932326h10.9006781c3.3208177,0,6.1092757-.0599704,8.3652099-.1863014,2.2560981-.1232178,3.5071191-.2495488,3.759945-.3760437.6255924-.3760437,1.4707485-1.2244768,2.535632-2.5389091,1.0647197-1.3142685,2.1628655-2.661963,3.2908326-4.039479,1.1279671-1.3775159,2.1628655-2.6319779,3.1010903-3.759945.9416657-1.1279671,1.5972434-1.693753,1.973287-1.693753.4990976,0,1.5672582.6921169,3.1976,2.0696328,1.6272286,1.3809568,3.4438717,2.8517053,5.450421,4.4155226,2.0031084,1.5706991,4.0094938,3.0412838,6.0126021,4.4189635,2.0031084,1.380793,3.5738075,2.0663558,4.7017746,2.0663558,1.0014722,0,2.941497-.0299852,5.8263008-.0932326,2.8815267-.0632474,6.2323296-.1230539,10.055522-.1895784,3.8199153-.0599704,7.7995878-.1232178,11.9355764-.1864652,4.1359886-.0630836,7.9891662-.1563162,11.5595328-.282811,3.5736436-.1230539,6.5783881-.282811,9.0240646-.4691124,2.4423994-.1897423,3.7866531-.3427814,4.039479-.4691124.6255924-.3760437,1.410942-1.0648835,2.3491668-2.0697967.9416657-1.0014722,1.8800544-2.0961771,2.8217202-3.2873916.9383887-1.1913784,1.7835447-2.3493307,2.5354682-3.4772978.7520873-1.1279671,1.3177094-2.0696328,1.693753-2.8217202l.9383887-.3758798c.4990976.126331,1.7535596.9116806,3.759945,2.3491668,2.0031084,1.4440404,4.0694641,3.0080215,6.2023444,4.7016107,2.1296032,1.6903121,4.0429199,3.2875555,5.733232,4.7915663,1.6903121,1.5040108,2.5387453,2.4456765,2.5387453,2.8217202,0,.6255924-.3160733.9382248-.9416657.9382248h-73.1173054c-.6288695,0-1.0047493.4392911-1.1279671,1.3144323-.1264949.8784183-.1895784,1.5040108-.1895784,1.8800544,0,1.380793.8484331,2.6985024,2.5387453,3.9496873,1.6903121,1.251021,3.633614,2.3191816,5.8264646,3.1943229,2.1926868.8784183,4.4187997,1.5670943,6.6747339,2.0663558,2.2526571.5023747,3.9464102.7519235,5.0743773.7519235.7520873,0,2.4091372.0332622,4.9811447.0965097,2.5656172.0632474,5.2608425.0932326,8.0823988.0932326,2.8184431,0,5.3571883-.0299852,7.6132864-.0932326,2.2526571-.0632474,3.5036782-.2195636,3.7566679-.4725533l7.7063552-6.7646894c.2495488-.2495488.6888399-.3758798,1.3177094-.3758798,1.1279671-.1232178,2.7550318.2195636,4.8879121,1.0314574,2.1296032.818448,4.2891916,1.8200841,6.4818784,3.0080215,2.1928506,1.1944916,4.0729051,2.5089239,5.6399994,3.9462463,1.5672582,1.4442043,2.3491668,2.791735,2.3491668,4.0429199,0,.3760437-.2528259.7519235-.7519235,1.1279671-.5023747.3760437-1.0314574.8153347-1.5972434,1.3144323-.562345.5023747-1.0647197,1.0049132-1.5040108,1.5040108-.4391272.5023747-.6554138,1.0047493-.6554138,1.5040108v14.098278c0,.7520873-.3760437,1.5040108-1.1279671,2.2560981-.7520873.7519235-1.128131,1.6903121-1.128131,2.8182792,0,.5025385.562345,1.3177094,1.690476,2.4456765,1.1279671,1.12469,2.3491668,2.3191816,3.6667124,3.5703665,1.3144323,1.254462,2.535632,2.4124143,3.6635992,3.4771339,1.1279671,1.0648835,1.6935892,1.8500692,1.6935892,2.3491668,0,.5025385-.4425682.9118444-1.3175455,1.2211997-.8785822.3160733-1.5040108.4692763-1.8800544.4692763h-47.9318841c-1.2511849,0-1.8766135.6288695-1.8766135,1.8798906v34.9615732c0,1.254462.6254286,1.8798906,1.8766135,1.8798906h15.0401076c1.251021,0,1.8766135-.6254286,1.8766135-1.8798906,0-4.5087552.1897423-7.9858891.5656221-10.4315656.3760437-2.4423994.3427814-4.2292212-.0930688-5.3571883-.4425682-1.1279671-1.6305056-1.7835447-3.5736436-1.9731232-1.9433018-.1864652-5.2308573-.2829749-9.8659436-.2829749l-1.3177094-.562345-.3760437-.3758798c.2497126-.1232178.8751412-.282811,1.8800544-.4692763,1.0016361-.1895784,2.1628655-.405865,3.4771339-.6588547,1.3177094-.2495488,2.661963-.5323598,4.0429199-.8451561,1.3775159-.3127962,2.4423994-.7186612,3.1943229-1.2210359.4990976-.3760437,1.2211997-1.0648835,2.1628655-2.0697967.9383887-1.0014722,1.9398609-2.0330935,3.0080215-3.1010903,1.0614426-1.0614426,2.0031084-2.0031084,2.8182792-2.8184431.8118938-.8151709,1.410942-1.2210359,1.7869857-1.2210359.4990976,0,1.7501186.7219383,3.7566679,2.1594245,2.0031084,1.4440404,4.1359886,3.0412838,6.3919228,4.7948433,2.2560981,1.7568366,4.2924687,3.4140504,6.1092757,4.9811447,1.8133661,1.5672582,2.7252105,2.4756617,2.7252105,2.7252105,0,.5025385-.2529897.9716509-.7520873,1.4075011-.5023747.4425682-1.0348984.8784183-1.5972434,1.3177094-.5656221.4392911-1.0979819.9116806-1.5970795,1.4107782-.5025385.5025385-.7520873,1.0016361-.7520873,1.5007337,0,.6288695.0299852,1.6935892.0932326,3.1976.0632474,1.5040108.0932326,3.071269.0932326,4.6984975,0,1.6303418-.0932326,3.1010903-.279534,4.4187997-.1897423,1.3142685-.5358008,2.1594245-1.0348984,2.5354682-.3760437.2529897-1.0979819.5956073-2.1628655,1.0348984-1.0647197.4391272-2.1594245.8784183-3.2873916,1.3142685-1.128131.4425682-2.099618.9416657-2.9149528,1.5040108-.8151709.5656221-1.2211997,1.1612294-1.2211997,1.7868218,0,1.8800544.7820725,3.6036288,2.3491668,5.1676099,1.5639811,1.5705353,3.3508029,3.0412838,5.3571883,4.4187997,2.0032722,1.3809568,3.8831628,2.661963,5.6401632,3.8531776,1.7535596,1.1912145,2.7550318,2.3491668,3.0045806,3.4771339l-.562345.7520873c-5.3904506.6288695-10.7476389,1.2844471-16.071565,1.9731232-5.3272032.6888399-10.6211441,1.537273-15.8818228,2.5389091-.2529897,0-1.0348984.126331-2.3491668.3760437-1.3177094.2528259-2.0398115.5023747-2.1628655.7519235-.3760437.8751412-.6288695,2.0663558-.7520873,3.5703665-.126331,1.5040108-.1863014,2.7584727-.1863014,3.759945,0,2.2560981.4990976,3.916425,1.5007337,4.9813085,1.0014722,1.0647197,2.2559342,1.7833809,3.759945,2.1594245,1.5040108.3760437,3.1312393.5025385,4.8880759.3760437,1.7535596-.1230539,3.3840652-.1863014,4.8880759-.1863014,1.7535596,0,3.7266827-.0632474,5.9195334-.1897423,2.1926868-.1230539,4.1027264-.4990976,5.7330681-1.1279671.3760437-.1230539,1.0016361-.5290828,1.8800544-1.2211997.8751412-.685399,1.7868218-1.3442537,2.7252105-1.9731232.9416657-.6255924,1.7868218-1.2211997,2.5387453-1.7868218.7520873-.562345,1.2511849-.8451561,1.5040108-.8451561,1.6272286,1.6303418,2.9115118,2.9780363,3.8531776,4.042756.9383887,1.0648835,1.8135299,2.0663558,2.6287008,3.0080215.8153347.9383887,1.2844471,1.5339959,1.410942,1.7835447ZM445.1899183,469.5926718c0,2.0063854.7186612,3.6036288,2.1628655,4.7948433,1.4373224,1.1912145,3.0378428,2.2560981,4.7914024,3.1943229,1.7535596.9416657,3.3508029,1.9133167,4.7948433,2.9149528,1.4374863,1.0047493,2.1595884,2.3191816,2.1595884,3.9462463,0,1.0049132-.4392911,1.7868218-1.3144323,2.3491668-.8784183.5657859-1.3142685,1.3476946-1.3142685,2.3491668v16.1647976c0,.7519235.5923302,1.3509716,1.7835447,1.7868218,1.1912145.4392911,2.4722208.7221021,3.8531776.8451561,1.3775159.1264949,2.661963.0932326,3.8531776-.0930688,1.1912145-.1864652,1.7868218-.5923302,1.7868218-1.2211997v-32.5191737c0-.3760437-.0932326-.9084035-.282811-1.5972434-.1863014-.688676-.4692763-1.4107782-.8451561-2.1627016-.3760437-.7520873-.7853496-1.3776798-1.2211997-1.8800544-.4425682-.4990976-.8451561-.7520873-1.2211997-.7520873h-17.6688084c-.8784183,0-1.3175455.6288695-1.3175455,1.8800544ZM398.5757436,476.6436132c2.3789882,1.0647197,4.6983336,1.943138,6.9542679,2.6319779,2.2560981.688676,3.8199153,1.0314574,4.6983336,1.0314574h22.5568843c.3758798,0,1.0347345-.405865,1.9731232-1.2211997.9383887-.8118938,1.9098757-1.7535596,2.9147889-2.8182792,1.0016361-1.0648835,1.8800544-2.096341,2.6287008-3.1012541.7520873-1.0014722,1.1279671-1.6935892,1.1279671-2.0696328,0-.6255924-.3460585-1.3442537-1.0314574-2.1594245-.6921169-.8153347-1.4107782-1.2246406-2.1628655-1.2246406h-46.0518297l-1.3142685.5657859c-.2529897.2528259-.5358008.562345-.8453199.9382248-.3160733.3760437-.4723895.7520873-.4723895,1.128131,0,.8784183.9084035,1.8798906,2.7252105,3.0080215,1.8166431,1.1279671,3.9162612,2.225949,6.2988541,3.2908326ZM413.9884539,519.9669553c2.379152.3793207,4.0094938.5656221,4.8879121.5656221h34.3959511c1.0014722,0,1.6270647-.6355875,1.8798906-1.9100396.2495488-1.2742882.282811-2.7052204.0932326-4.2955819-.1863014-1.5905254-.5323598-3.0547198-1.0314574-4.3889783-.5025385-1.3309815-1.0049132-2.0596378-1.5040108-2.1861326-.3760437-.1230539-1.254462-.1563162-2.6321417-.0932326-1.380793.0632474-2.8848037.15648-4.5120323.279534-1.6303418.1264949-3.1943229.282811-4.6983336.4692763-1.5040108.1895784-2.5687304.282811-3.1943229.282811-1.5040108,0-2.2559342-1.2844471-2.2559342-3.8531776,0-2.5654534.1230539-5.3871735.3758798-8.4584425.2497126-3.067828.3760437-5.8895482.3760437-8.4582786,0-2.5656172-.7519235-3.8531776-2.2559342-3.8531776h-23.1190655c-1.254462,0-1.8800544.6321466-1.8800544,1.8898856v19.4589073c0,1.264457-.5956073,2.1428753-1.7868218,2.6454139-1.1912145.5056517-2.5089239.9482199-3.9464102,1.3242635-1.4440404.3760437-2.7584727.7886266-3.9464102,1.2277539-1.1944916.4425682-1.7868218,1.2279177-1.7868218,2.3626028s.9383887,2.1394344,2.8184431,3.0212937c1.8798906.8816954,4.042756,1.670322,6.4851555,2.362439s4.8548137,1.2311948,7.2372428,1.6072384ZM431.4675201,524.8548674c0-1.251021-.6255924-1.8798906-1.8767773-1.8798906h-17.4823432c-1.254462,0-1.8800544.6288695-1.8800544,1.8798906v33.6471408l.5657859,1.3144323,1.3142685,1.3175455,1.3142685.562345h16.1680747c1.2511849,0,1.8767773-.6254286,1.8767773-1.8798906v-34.9615732ZM472.8210161,524.8548674c0-1.251021-.6288695-1.8798906-1.8800544-1.8798906h-16.351099c-1.254462,0-1.8798906.6288695-1.8798906,1.8798906v34.9615732c0,1.254462.6254286,1.8798906,1.8798906,1.8798906h16.351099c1.2511849,0,1.8800544-.6254286,1.8800544-1.8798906v-34.9615732ZM482.031382,520.5325774h30.8254207c.7520873,0,1.5040108-.282811,2.2560981-.8484331.7519235-.5657859,1.4407633-1.2911651,2.0696328-2.1728605.6255924-.8818592,1.1279671-1.7968169,1.5040108-2.7419235.3760437-.9449428.562345-1.7301285.562345-2.3591619,0-4.4088046-.282811-8.8508715-.8451561-13.3196465-.5657859-4.4722159-1.2877242-8.8510353-2.1628655-13.1335089-.2529897-1.257739-.8784183-1.8898856-1.8800544-1.8898856h-23.3053669c-1.254462,0-1.8800544.6321466-1.8800544,1.8898856v18.3242222c0,1.264457-.5358008,2.3026324-1.5972434,3.1212443-1.0679967.818448-2.2559342,1.6370598-3.5736436,2.4556716-1.3142685.818448-2.505483,1.7635546-3.5703665,2.8315514-1.0647197,1.0748786-1.5970795,2.4256864-1.5970795,4.06291,0,1.0114673.2495488,1.8898856.7519235,2.64525.4990976.7586414,1.3144323,1.1346851,2.4423994,1.1346851ZM502.2389357,585.3811826c.1863014.3760437.5323598.562345,1.0348984.562345,1.3742388,0,3.0345658-.5290828,4.9778676-1.5972434,1.943138-1.0614426,3.8231924-2.379152,5.6399994-3.9462463,1.816807-1.5639811,3.3839013-3.2575703,4.6983336-5.0743773,1.3177094-1.816807,1.9765641-3.4140504,1.9765641-4.7948433,0-.3760437-.3760437-.6855628-1.128131-.9383887-.7519235-.2495488-1.663604-.4990976-2.7252105-.7519235-1.0679967-.2497126-2.1328803-.5325237-3.1976-.8453199-1.0647197-.3126324-1.9098757-.7819086-2.5354682-1.4107782-.7520873-.7519235-1.3809568-1.1279671-1.8800544-1.1279671h-26.6927091l-1.3144323.5656221c-.2528259.2495488-.3760437.6255924-.3760437,1.12469,0,1.6305056,1.1879375,2.6319779,3.5703665,3.0080215,2.379152.3760437,5.0443921.5956073,7.9893301.6588547,2.9413332.0632474,5.6067371.1264949,7.9891662.1895784,2.379152.0632474,3.5703665.5956073,3.5703665,1.5972434,0,2.0063854-.3127962,3.9464102-.9383887,5.8263008-.6288695,1.8800544-.9416657,3.8233563-.9416657,5.8264646,0,.3758798.0932326.7519235.282811,1.1279671ZM415.9615771,496.5683558c.4392911,1.4407633.8751412,2.8182792,1.3177094,4.1325477.4358502,1.3177094.7186612,2.2261129.8451561,2.7252105l1.1279671.5657859c1.3775159,0,2.785017.0332622,4.2292212.0930688,1.4374863.0665245,2.8482644.0932326,4.2292212.0932326,1.3775159,0,2.1594245-.562345,2.3491668-1.6903121.1863014-1.128131.282811-2.1895736.282811-3.1944867,0-2.0031084-.4425682-3.6667124-1.3177094-4.9811447-.8784183-1.3177094-2.0363706-2.379152-3.4771339-3.1976-1.4407633-.8118938-3.0080215-1.3776798-4.6983336-1.6903121-1.693753-.3127962-3.35408-.4692763-4.9813085-.4692763-1.0047493,0-1.5040108.4392911-1.5040108,1.3144323,0,.3758798.15648,1.1612294.4692763,2.3491668.3127962,1.1944916.688676,2.5087601,1.1279671,3.9496873ZM420.849653,540.464038h-4.3224538c-1.3175455,0-2.0396477.0630836-2.1628655.1863014,0,.3760437.2162865.6588547.6588547.8451561.436014.1863014.7786316.2760931,1.0316213.2760931h9.5862457l1.3177094-.555627.3760437-.5656221c-.1264949-.1232178-.8484331-.1863014-2.1628655-.1863014h-4.32229ZM465.7735156,540.3675284c-1.1946555-.0599704-2.3825929-.0932326-3.5703665-.0932326-1.1946555,0-2.2893603.0665245-3.2908326.1897423-1.0049132.126331-1.5040108.3758798-1.5040108.7519235.3758798.3726027.96821.6223154,1.7868218.7453693.8118938.1264949,1.7202973.1863014,2.7252105.1863014,1.0014722,0,1.9731232-.0598065,2.9115118-.1863014.9416657-.1230539,1.6603269-.1897423,2.1627016-.1897423l1.3144323-.555627.3760437-.3760437-.562345-.3758798c-.3760437,0-1.1613932-.0299852-2.3491668-.0965097ZM497.540602,500.2317911c.8118938,1.5040108,1.8467922,2.791735,3.1010903,3.8531776,1.2511849,1.0681606,2.7551957,1.5972434,4.5087552,1.5972434,2.0031084,0,4.0096576-.562345,6.016043-1.6903121,2.0031084-1.128131,3.0080215-2.8184431,3.0080215-5.0743773,0-1.7535596-.6288695-3.2908326-1.8800544-4.6052649-1.254462-1.3177094-2.791735-2.379152-4.605101-3.1976-1.816807-.8118938-3.6968614-1.4075011-5.6399994-1.7835447-1.9433018-.3760437-3.6036288-.5656221-4.9813085-.5656221-1.254462,0-1.8798906.6288695-1.8798906,1.8798906,0,1.3809568.1895784,2.9447741.5656221,4.6983336.3760437,1.7570005.96821,3.3840652,1.7868218,4.8880759ZM377.8694881,609.5820873c-2.4537188,9.9213565-11.6043302,18.1672042-15.4581253,13.1962062-3.1235001-4.0271717,8.0754534-9.2701139,2.922977-15.9185791-2.3457404-3.0242731-6.409766-2.9922021-9.2926421-.7506231-4.7017403,3.6444217-3.6417353,10.5603817-.3066832,14.8626722,6.3547997,8.1881095,17.8351095,6.697262,25.022507.4294311M190.2301925,536.2280988c.9416657-.3127962,1.410942-.5923302,1.410942-.8451561-.2529897-.2495488-.6888399-.4990976-1.3144323-.7519235-.6288695-.2495488-1.1279671-.3760437-1.5040108-.3760437h-23.1190655c-.1264949,0-.3493355.0632474-.6588547.1863014-.3160733.1264949-.5356369.1897423-.6588547.1897423-.2528259.2528259-.3760437.5023747-.3760437.7519235,0,.2528259.1232178.5025385.3760437.7520873l1.3177094.562345h22.7430219c.2495488,0,.8453199-.15648,1.7835447-.4692763ZM231.8664995,595.5299372h-63.7204742l-.7520873.5656221.7520873.7519235h64.8486052c.2495488,0,.4358502-.0630836.562345-.1895784l-.3760437-.562345-1.3144323-.5656221ZM333.36699,530.4948668c-1.7568366-1.5040108-3.6036288-3.0378428-5.5434897-4.605101-1.9433018-1.5639811-3.7601088-2.9747593-5.450421-4.2292212-1.6935892-1.251021-2.791735-1.8800544-3.2908326-1.8800544-.6288695,0-1.4107782.5657859-2.3491668,1.690476-.9383887,1.1279671-1.9731232,2.3824291-3.1010903,3.759945-1.128131,1.3809568-2.3825929,2.6319779-3.7601088,3.759945-1.3809568,1.128131-2.8848037,1.690476-4.5120323,1.690476-.3760437,0-.688676-.1864652-.9383887-.562345-.2528259-.3760437-.3758798-.7520873-.3758798-1.128131v-22.3669782c0-1.1279671,1.0347345-1.816807,3.1010903-2.0696328,2.0663558-.2497126,4.4155226-.3095192,7.0475005-.1864652,2.6321417.1264949,5.170887.3127962,7.6132864.562345,2.4456765.2529897,4.042756.3160733,4.7948433.1897423.2495488-.1232178.7186612-.2495488,1.4075011-.3760437.6888399-.1230539,1.0348984-.4392911,1.0348984-.9416657,0-.3760437-.8785822-1.3742388-2.6321417-3.0047445-1.7568366-1.6270647-3.759945-3.3506391-6.0126021-5.1707231-2.2560981-1.8135299-4.3889783-3.4772978-6.3920867-4.9813085-2.0063854-1.5040108-3.1943229-2.2559342-3.5703665-2.2559342-.7519235,0-1.7268514.7221021-2.9147889,2.1628655-1.1912145,1.4407633-2.4156913,3.0378428-3.6668762,4.7914024-1.251021,1.7570005-2.4422356,3.35408-3.5703665,4.7950072-1.1279671,1.4407633-1.943138,2.1627016-2.4422356,2.1627016h-121.4285102c-1.0016361,0-1.5007337.4392911-1.5007337,1.3144323,0,1.380793,1.12469,2.0663558,3.3806243,2.0663558,2.2560981,0,4.7017746-.1232178,7.3304754-.3760437,2.6319779-.2495488,5.0776544-.3427814,7.3335886-.279534,2.2526571.0632474,3.3807881.7819086,3.3807881,2.1595884v57.7078721c0,1.2511849-.6288695,1.8766135-1.8800544,1.8766135h-19.9214656c-.3758798.1264949-.8484331.3494994-1.4107782.6588547-.5656221.3160733-.6588547.7853496-.282811,1.410942l.5656221.3758798c9.3966673,0,18.7002658-.1895784,27.9106318-.5656221,9.2103659-.3760437,18.5172415-.562345,27.9139088-.562345,1.2511849,0,2.0663558-.2495488,2.4423994-.7519235-.5025385-.4992614-1.4075011-.7188251-2.7252105-.6588547-1.3142685.0665245-2.6319779.1595933-3.9464102.282811-1.3142685.1264949-2.4754978.1597571-3.4771339.0930688-1.0049132-.0598065-1.5040108-.5921663-1.5040108-1.5970795v-58.2702171c0-1.2511849.6255924-1.8800544,1.8800544-1.8800544h13.9086996c1.2511849,0,1.8800544.6288695,1.8800544,1.8800544v118.9828337c0,.1230539.0632474.3127962.1895784.5656221v.562345c0,.1230539.0599704.1895784.1863014.1895784.1232178.3760437,1.410942.6555776,3.8533414.8453199,2.4422356.1863014,5.1041986.1563162,7.9891662-.0932326,2.8815267-.2528259,5.5135045-.8784183,7.8926565-1.8800544,2.379152-1.0049132,3.5736436-2.5089239,3.5736436-4.5120323v-114.6603798c0-1.2511849.6255924-1.8800544,1.8800544-1.8800544h15.0366667c1.2511849,0,1.8800544.6288695,1.8800544,1.8800544v24.9991199c0,.6288695-.1597571,1.1612294-.4725533,1.6005204-.3127962.4391272-.4691124.9714871-.4691124,1.5970795,0,.6288695.1563162,1.1279671.4691124,1.5040108s.4725533.8784183.4725533,1.5040108v25.5614649c0,1.380793-.5656221,2.1928506-1.6935892,2.4456765-1.128131.2495488-2.4124143.3127962-3.8531776.1863014-1.4409272-.1230539-2.7884579-.2162865-4.0396428-.282811-1.254462-.0599704-1.9465789.282811-2.0696328,1.0348984.6255924.3758798,2.4124143.688676,5.3571883.9382248,2.9447741.2529897,6.1723592.4425682,9.6829193.5657859,3.5036782.126331,6.8877434.2195636,10.1485908.282811,3.2575703.0632474,5.450421.0930688,6.5783881.0930688,5.0111299,0,9.9924384-.1230539,14.9435979-.3758798,4.9478824-.2497126,9.929191-.4992614,14.9435979-.7520873.4990976,0,1.0014722-.0632474,1.5040108-.1895784.4990976-.1232178.7519235-.4992614.7519235-1.128131,0-.8751412-.7519235-2.1594245-2.2559342-3.8531776-1.5040108-1.6903121-3.1943229-3.3506391-5.0743773-4.9811447-1.8800544-1.6270647-3.7301236-2.9747593-5.5469306-4.039479-1.8166431-1.0648835-3.0378428-1.410942-3.6634353-1.0348984-.2528259.1264949-.4093059.2529897-.4691124.3760437-.0666884.1264949-.2230045.2528259-.4725533.3760437-.2528259.6288695-.7520873,1.6303418-1.5040108,3.0080215-.7520873,1.380793-1.6270647,2.7583089-2.6287008,4.1359886-1.0049132,1.380793-2.0063854,2.6019927-3.0080215,3.6634353-1.0049132,1.0681606-1.8800544,1.6005204-2.6319779,1.6005204-.7520873,0-1.1279671-.5023747-1.1279671-1.5040108v-25.9407857c0-1.251021.6255924-1.8798906,1.8798906-1.8798906h29.5111522l1.8800544-.9383887.562345-1.1279671-.7520873-1.128131c-.7519235-.4990976-2.0063854-1.5040108-3.759945-3.0080215ZM213.1629566,495.6266901c2.0696328.3160733,4.4187997.3758798,7.0509414.1895784,2.6287008-.1895784,5.1341838-.5956073,7.5166129-1.2244768,2.379152-.6255924,3.8831628-1.5007337,4.5120323-2.6287008.6255924-1.0014722,1.0614426-2.8515415,1.3144323-5.5467668.2495488-2.6919482.405865-5.5734749.4723895-8.6447438.0599704-3.071269.0599704-6.016043,0-8.8343223-.0665245-2.8217202-.0965097-4.9813085-.0965097-6.4853193,0-1.3775159.3760437-2.4722208,1.128131-3.2908326.7519235-.8118938,1.1279671-1.5339959,1.1279671-2.1594245,0-.3760437-.2197275-.6255924-.6588547-.7520873-.4392911-.1230539-.7819086-.2495488-1.0314574-.3760437-2.3825929-.6254286-4.8248285-1.0014722-7.3304754-1.1279671-2.5089239-.1230539-5.0144069-.3127962-7.5200538-.5656221-1.380793-.1230539-2.661963-.3095192-3.8531776-.562345-1.1912145-.2495488-2.4754978-.3760437-3.8531776-.3760437-1.254462,0-1.8798906.6288695-1.8798906,1.8800544v38.7215181c0,.8751412,1.0347345,1.4740256,3.1010903,1.7835447ZM230.831765,534.441277c-.8153347-.3760437-1.5339959-.4990976-2.1595884-.3760437-.3758798.1264949-1.254462.282811-2.6319779.4725533-1.3809568.1863014-2.0696328.4691124-2.0696328.8451561s.4723895.6555776,1.4107782.8451561c.9383887.1863014,1.9731232.3127962,3.1012541.3760437,1.1279671.0632474,2.1294394,0,3.0080215-.1897423.8751412-.1863014,1.3142685-.5289189,1.3142685-1.0314574-.5023747-.2495488-1.1579523-.5656221-1.9731232-.9416657ZM330.7350121,592.5251928c-2.1296032-1.8800544-4.4155226-3.7899302-6.857922-5.733232-2.4456765-1.943138-4.7016107-3.6966975-6.7679665-5.2639557-2.0663558-1.5672582-3.2908326-2.2859194-3.6668762-2.1628655-.1264949,0-.4392911.1264949-.9383887.3760437-.5023747.6288695-1.3475307,1.7568366-2.5387453,3.3839013-1.1912145,1.6305056-2.4756617,3.3208177-3.8531776,5.0743773-1.3809568,1.7570005-2.6952253,3.3240948-3.9464102,4.7017746-1.254462,1.3775159-2.1328803,2.0663558-2.6319779,2.0663558h-32.1431301c-.2495488,0-.5956073.126331-1.0316213.3758798-.4424043.2529897-.6586908.562345-.6586908.9383887s.1895784.5656221.562345.5656221h66.918238c.2495488,0,.4990976-.0630836.7519235-.1895784.2495488-.1230539.3760437-.3095192.3760437-.562345-.2528259-.4990976-1.4440404-1.693753-3.5736436-3.5703665ZM268.1423412,536.5109099c.8751412.1264949,1.816807.15648,2.8217202.0932326,1.0016361-.0632474,1.9065987-.2162865,2.7252105-.4691124.8118938-.2495488,1.2842833-.4992614,1.4107782-.7520873-.2528259-.3760437-.8484331-.6588547-1.7868218-.8451561-.9416657-.1897423-1.943138-.282811-3.0080215-.282811-1.0647197,0-2.0063854.0930688-2.8182792.282811-.8186118.1863014-1.2244768.4691124-1.2244768.8451561.3758798.6288695,1.0014722,1.0049132,1.8798906,1.1279671ZM267.1108837,495.1574138c.4358502.1264949.9051264.1863014,1.4075011.1863014,1.1279671,0,2.8815267-.0265443,5.2639557-.0930688,2.379152-.0599704,4.7948433-.282811,7.2372428-.6588547s4.6052649-1.0016361,6.4851555-1.8766135c1.8800544-.8751412,2.8184431-2.0697967,2.8184431-3.5738075v-26.8790105l.5656221-1.3144323c.3760437-.3758798.9383887-.96821,1.6903121-1.7868218.7520873-.8118938,1.1279671-1.4707485,1.1279671-1.9731232,0-.4990976-.1895784-.8451561-.5621812-1.0348984-.3760437-.1863014-.7520873-.3426176-1.128131-.4691124-1.8798906-.4990976-3.7932072-.8118938-5.7330681-.9383887-1.9465789-.1230539-3.8866037-.1895784-5.8297417-.1895784-1.9433018,0-3.8831628-.0599704-5.8263008-.1864652-1.9433018-.1230539-3.8533414-.4391272-5.733232-.9416657-.1264949,0-.2197275-.0298213-.279534-.0930688-.0665245-.0632474-.1597571-.0932326-.282811-.0932326-1.254462,0-1.8800544.6888399-1.8800544,2.0663558v38.7215181c0,.6288695.2162865,1.0049132.6588547,1.1279671ZM306.1926322,477.8646491h29.8063356l.5656221-.7519235c-.3758798-.8751412-1.3175455-2.0663558-2.8215563-3.5703665-1.5040108-1.5040108-3.1645016-3.0380067-4.9811447-4.605101-1.816807-1.5672582-3.5703665-3.1012541-5.2608425-4.6052649-1.6935892-1.5040108-2.9780363-2.7551957-3.8531776-3.759945l-1.1279671-.3760437-1.1279671.562345c-.6288695.7519235-1.4442043,1.8500692-2.4456765,3.2908326-1.0049132,1.4407633-2.0663558,2.9447741-3.1943229,4.5120323-1.1279671,1.5672582-2.2261129,3.0045806-3.2908326,4.32229-1.0648835,1.3144323-1.9100396,2.1628655-2.535632,2.5389091-.6288695.3758798-.6712271.8751412-.6712271,1.5005698,0,.6290334.3127962.9416657.9383887.9416657ZM174.1620684,477.9578817c4.1325477.0665245,8.3917541.1264949,12.7805686.1897423,4.3857013.0630836,8.4584425.0630836,12.2183875,0,3.7568318-.0632474,6.012766-.2197275,6.7646894-.4725533l-.3758798-.562345-1.3144323-.5656221h-38.5317759l-.7520873.5656221.7520873.7519235c1.5007337,0,4.32229.0332622,8.4584425.0932326ZM260.8120297,477.8646491l.5656221-.7519235-.5656221-.5656221h-22.3671421l-.7519235.5656221.7519235.7519235h22.3671421ZM307.9411319,477.8118974c-2.4920391-2.1153365-4.5288516-3.3825869-8.2816631-4.6650717-45.4098334-15.5183447-92.7500361-3.2624623-107.6584122,2.2669635-8.0082315,2.9837826-31.2022997,8.667383-39.7721233,6.3123446-1.9066768-.474153-3.7619281-1.3141036-5.2408451-2.6178277-3.1229618-2.7673864-6.6271331-7.5856613-5.4418293-11.7701596.2060167-.6183647.6285869-1.5561339,1.0667262-1.9736716,1.4737272-1.4171119,2.988815-.8811539,4.6687162-.2936131,4.6018787,1.5561339,7.5598699,4.2719375,11.8627885.1287998,2.2366181-2.1490217,1.324483-5.5758188-.8347609-7.4876854-4.0349396-3.5711661-10.6878642-2.2108267-14.3364045,1.3037241-7.6834799,7.3948993-2.9372322,15.3205668,3.3909408,21.726114.1133878.1030084.2267757.2009842.3400062.3039926,8.8069787,7.7968677,22.0662775,10.5694439,33.8826729,8.6471978,5.2666365-.8709317,10.3477007-2.720836,15.1453739-4.9212833,2.2572198-1.0203332,14.5323777-5.2573395,16.9131228-6.0022136,17.9165459-5.6056281,37.9389396-6.8238845,45.9867017-6.9974594,7.4197478-.1600298,43.3872856,2.1271316,47.7056161,5.9508648.1133878.1030084.1701604.1545912.2835482.2524098l.3198247-.1634254Z" fill="#fff"/>
    </g>
  </g>
</svg>