<?xml version="1.0" encoding="UTF-8"?>
<svg xmlns="http://www.w3.org/2000/svg" version="1.1" viewBox="0 0 1080 1080">
  <!-- Generator: Adobe Illustrator 28.7.3, SVG Export Plug-In . SVG Version: 1.2.0 Build 164)  -->
  <g>
    <g id="tout">
      <path d="M713.7446122,789.8501807v-178.9106388h23.8016886v155.1089502c0,13.1455239-10.6564172,23.8016886-23.8016886,23.8016886ZM683.7927568,624.7489456h20.2202991c0,10.2170294-8.2825866,18.4997423-18.4997423,18.4997423h-1.7205568v11.3074182c0,10.2170294-8.2825866,18.4997423-18.4997423,18.4997423h-24.6410708v11.3074182h53.1224922c0,10.2170294-8.2825866,18.4997423-18.4997423,18.4997423h-34.62275v11.3071657h63.3611122c0,10.2172819-8.2825866,18.4997423-18.4997423,18.4997423h-132.0234132v-18.4997423h63.3603546v-11.3071657h-53.1224922v-18.4997423h53.1224922v-11.3074182h-43.1408131v-18.4997423h43.1408131v-11.3074182h-63.3603546v-18.4997423h63.3603546v-11.3074182h-43.1408131v-18.4997423h43.1408131v-13.0190105h23.8016886v13.0190105h43.1408131v29.8071605ZM640.6519437,624.7489456h19.3391245v-11.3074182h-19.3391245v11.3074182ZM659.9910682,643.2486878h-19.3391245v11.3074182h12.1463375c3.9724666,0,7.192787-3.2203204,7.192787-7.192787v-4.1146313ZM591.36109,822.0911457h-23.8016886v-78.1140632h122.0857991v59.614321c0,10.2170294-8.2825866,18.4997423-18.4997423,18.4997423h-79.7843683ZM616.8502551,803.5914034v-11.3074182h-25.4891651v11.3074182h25.4891651ZM665.8435119,796.3986165v-4.1146313h-25.1915682v11.3074182h17.9987813c3.9724666,0,7.192787-3.2203204,7.192787-7.192787ZM640.6519437,762.4768247v11.3074182h25.1915682v-11.3074182h-25.1915682ZM591.36109,762.4768247v11.3074182h25.4891651v-11.3074182h-25.4891651ZM553.4895217,857.2h126.7214669c13.1453977,0,23.8016886-10.6564172,23.8016886-23.8016886h-150.5231555v23.8016886ZM753.5661534,581.9227745v244.2577081c0,3.9863081-3.2315206,7.2178287-7.2178287,7.2178287h-32.6038387v23.8016886h39.8216674c13.1452714,0,23.8016886-10.6564172,23.8016886-23.8016886v-251.4755369h-23.8016886ZM394.0725507,617.6975286c0,13.1452714-10.6562909,23.8016886-23.8016886,23.8016886h-75.7736918v-23.8016886h37.8868459v-24.5435975h23.8016886v24.5435975h37.8868459ZM382.5867259,662.1734242v-.0002525h-76.6039833v23.8016886h52.8022947c13.1452714,0,23.8016886-10.6561647,23.8016886-23.8014361ZM474.1593137,680.4466544v-98.5238799h-23.8016886v98.5238799h-56.5608282v23.8016886h56.5608282v152.951657c13.1453977,0,23.8016886-10.6564172,23.8016886-23.8016886v-129.1499684h32.7591396c13.1453977,0,23.8016886-10.6564172,23.8016886-23.8016886h-56.5608282ZM305.9827426,730.4510083h52.8022947c13.1452714,0,23.8016886-10.6561647,23.8016886-23.8014361v-.0002525h-76.6039833v23.8016886ZM385.2760824,748.8224695h.0001263v76.6999415c0,13.1455239-10.6562909,23.8016886-23.8016886,23.8016886h-58.1811339v-23.8016886h.0001263v-52.8982529h-.0001263v-23.8016886h81.9826962ZM361.47452,818.3296241v-45.705466h-34.379319v52.8982529h27.186532c3.9724666,0,7.192787-3.2203204,7.192787-7.192787ZM683.5018518,478.0681608v-30.2879619h54.3976007c13.1452714,0,23.8016886-10.6562909,23.8016886-23.8015623v-.0001263h-78.1992893v-25.6105018h30.5959121c13.1452714,0,23.8016886-10.6564172,23.8016886-23.8016886v-56.6080497h-132.5967638v56.6080497h-.0001263v23.8016886h54.3976007v25.6105018h-74.2878539v23.8016886h74.2878539v30.2879619h-98.0895425v23.8016886h200.0905204c13.1452714,0,23.8016886-10.6564172,23.8016886-23.8016886h-102.0009779ZM629.1043773,341.7599588h84.9933866v25.5937091c0,3.9834041-3.2292479,7.212652-7.212652,7.212652h-77.7807346v-32.8063611ZM604.0908369,256.2773114l-10.4185417-14.2450036,19.2117273-14.0510669,24.4694823,33.4566046c-10.610332,7.7602454-25.5025487,5.4496716-33.2626679-5.1605342ZM705.8485101,261.4378455l24.4696086-33.4566046,19.211601,14.0510669-10.4185417,14.2450036c-7.7601192,10.6102057-22.6523359,12.9207796-33.2626679,5.1605342ZM585.4123092,343.3646082h-23.8016886v-70.6798234h98.0895425v-49.8847848h23.8016886v49.8847848h98.0895425v46.8781348c0,13.1453977-10.6562909,23.8016886-23.8016886,23.8016886v-46.8781348h-172.3773964v46.8781348ZM506.9184533,351.4782578h-64.4304155c17.9748758,56.7776181,48.4473048,107.9947076,88.2321041,150.3913391h-40.1371933c-36.708832-43.4309606-58.3205259-94.4624466-73.3497357-150.3913391h-6.6967501c-14.191974,55.9276299-39.0658699,106.960126-75.7748282,150.3913391h-40.1374459c39.7864406-42.3980204,70.2708644-93.6130897,88.2502857-150.3913391h-88.3773041v-23.8016886h95.0863015c5.129979-20.6613283,8.6260162-41.9651982,10.3480882-63.77146h-94.0628309v-23.8016886h213.4798541c0,13.1453977-10.6562909,23.8016886-23.8016886,23.8016886h-71.5878915c-1.3490974,21.7651008-4.0244389,43.063794-8.0803167,63.77146h114.8414556v.0001263c0,13.1452714-10.6562909,23.8015623-23.8016886,23.8015623Z" fill="#fff"/>
    </g>
  </g>
</svg>