<?xml version="1.0" encoding="UTF-8"?>
<svg xmlns="http://www.w3.org/2000/svg" version="1.1" viewBox="0 0 1080 1080">
  <!-- Generator: Adobe Illustrator 28.7.3, SVG Export Plug-In . SVG Version: 1.2.0 Build 164)  -->
  <g>
    <g id="singularity">
      <path d="M940,498.3173828l-3.7080078-3.7080078-11.1982422,11.1977539h-35.9594727v-14.9111328h-5.2436523v14.9111328h-31.2148438v5.2441406h31.2148438v16.9926758h-42.828125v5.2441406h21.3173828l-25.1318359,25.1315918,3.7084961,3.708252,28.8393555-28.8398438h68.2163086v-5.2441406h-27.7387695l29.7265625-29.7265625ZM889.1342773,511.0512695h30.7158203l-16.9926758,16.9926758h-13.7231445v-16.9926758ZM860.5810547,546.6860352v42.4179688h63.1567383v-42.4182129h-63.1567383v.0002441ZM918.4936523,583.8598633h-52.668457v-13.7080078h52.668457v13.7080078ZM918.4936523,564.9077148h-52.668457v-12.9777832h52.668457v12.9777832ZM368.4716797,501.3640137h24.2421875v12.5554199h-18.6982422v58.6430664h8.2866211l-13.7207031,16.5415039h6.8134766l13.7207031-16.5415039h12.4428711l13.7207031,16.5415039h6.8134766l-13.7207031-16.5415039h8.5864258v-58.6430664h-19.0004883v-12.5554199h24.2421875v-5.2441406h-53.7285156v5.2441406ZM379.2597656,536.9631348h32.4550781v12.5556641h-32.4550781v-12.5556641ZM379.2597656,567.3183594v-12.5556641h32.4550781v12.5556641h-32.4550781ZM411.7148438,531.7192383h-32.4550781v-12.5556641h32.4550781v12.5556641ZM346.3647461,561.7331543l22.2167969,27.3708496h-6.7543945l-19.6962891-24.265625-19.6962891,24.265625h-6.7543945l22.2172852-27.3708496h-20.2758789v-5.2441406h22.4399414v-35.0703125h-22.4399414v-5.2441406h22.4399414v-25.2785645h5.2441406v25.2785645h21.0419922v5.2441406h-21.0419922v35.0703125h22.7050781v5.2441406h-21.6459961ZM352.9868164,510.8144531l-3.7084961-3.7080078,13.3613281-13.3613281,3.7080078,3.708252-13.3608398,13.361084ZM332.3798828,510.8144531l-13.3608398-13.361084,3.7080078-3.708252,13.3613281,13.3613281-3.7084961,3.7080078ZM362.6396484,542.7939453l-13.3613281-13.3613281,3.7084961-3.7080078,13.3608398,13.361084-3.7080078,3.708252ZM351.7070312,548.6330566l3.7080078-3.708252,7.034668,7.034668-3.7080078,3.708252-7.034668-7.034668ZM336.0883789,529.4326172l-13.3613281,13.3613281-3.7080078-3.708252,13.3608398-13.361084,3.7084961,3.7080078ZM194.7885742,519.2419434l49.5444336,69.8620605h-6.4291992l-45.7373047-64.4938965-45.737793,64.4938965h-6.4287109l49.5444336-69.8618164v-28.3461914h5.2441406v28.3459473ZM498.7910156,530.1262207h-5.2436523v-24.2927246h0l14.9375-14.9375h7.4160156l-17.1098633,17.1098633v22.1203613ZM589.5600586,506.6347656l-3.7080078-3.7080078h-34.6469727l12.03125-12.0307617h-7.4165039l-20.4941406,20.4938965,3.7084961,3.708252,3.1567383-3.1572266,17.3237305,17.3234863-31.6743164,31.6743164,3.7080078,3.7080078,31.6743164-31.6740723,31.6513672,31.651123,3.7080078-3.708252-31.6513672-31.651123,22.6293945-22.6296387ZM545.8994141,508.2329102l.0615234-.0620117h34.6469727l-17.3852539,17.3852539-17.3232422-17.3232422ZM560.5541992,548.0185547l14.8925781,14.892334-3.7084961,3.7080078-14.8920898-14.892334,3.7080078-3.7080078ZM555.637207,565.519043l19.8095703,19.8093262-3.7084961,3.708252-19.809082-19.8095703,3.7080078-3.7080078ZM493.5473633,569.1540527h5.2436523v19.9499512h-5.2436523v-19.9499512ZM504.3076172,569.1540527h5.2441406v13.7954102h-5.2441406v-13.7954102ZM515.0673828,569.1540527h5.2441406v8.388916h-5.2441406v-8.388916ZM515.0673828,553.0400391h5.2441406v12.1462402h-26.7641602v-24.2927246l22.1918945-22.1921387,3.7080078,3.708252-20.65625,20.6560059v16.8764648h16.2763672v-6.9020996ZM736.7734375,506.4533691h29.1274414v5.2441406h-29.1274414v20.4526367h23.5185547v5.2441406h-52.2807617v-5.2441406h23.5180664v-20.4526367h-29.1274414v-5.2441406h29.1274414v-15.557373h5.2441406v15.557373ZM714.7753906,551.4362793h-5.2441406v37.6677246h49.2402344v-37.6677246h-43.9960938ZM753.5273438,583.8598633h-38.7519531v-27.1794434h38.7519531v27.1794434ZM669.9291992,505.8334961h0l14.9375-14.9375h7.4165039l-17.1098633,17.1096191v22.1206055h-5.2441406v-24.2927246ZM669.9291992,569.1540527h5.2441406v19.9499512h-5.2441406v-19.9499512ZM680.6894531,569.1540527h5.2441406v6.7426758h-5.2441406v-6.7426758ZM691.449707,569.1540527h5.2441406v19.9499512h-5.2441406v-19.9499512ZM691.449707,553.0400391h5.2441406v12.1462402h-26.7646484v-24.2927246l22.1918945-22.1921387,3.7084961,3.708252-20.65625,20.6560059v16.8764648h16.2763672v-6.9020996Z" fill="#fff"/>
    </g>
  </g>
</svg>