<?xml version="1.0" encoding="UTF-8"?>
<svg xmlns="http://www.w3.org/2000/svg" version="1.1" viewBox="0 0 1080 1080">
  <!-- Generator: Adobe Illustrator 28.7.3, SVG Export Plug-In . SVG Version: 1.2.0 Build 164)  -->
  <g>
    <g id="pills">
      <path d="M248.0805664,593.2329712c10.1191406,0,19.6523438-.2929688,28.7451172-.5858765l-2.4936523,13.0507202h-17.5966797c-26.3994141-.2929077-44.2895508-3.0792847-53.8227539-8.5043945-3.8129883-2.0528564-7.1850586-4.5463257-10.4121094-7.4803467-4.6914062,7.187439-10.5571289,13.1983643-17.3041992,18.0376587l-6.7441406-11.8766479c6.1586914-4.401062,11.1430664-9.8261719,15.2509766-16.425354-5.8676758-8.5068359-10.4116211-19.0640869-13.9316406-31.383728l11.2905273-4.253418c1.9077148,8.3591309,4.8393555,15.8395386,8.7998047,22.2910767,2.7866211-8.5043945,4.5463867-18.0376587,5.1323242-28.5973511h-20.9716797v-9.9714355c6.4541016-8.7997437,12.171875-18.4782104,17.3066406-28.8902588h-15.8398438v-13.1983643h30.6503906v11.4384155c-5.5727539,11.4384766-10.8525391,20.9717407-15.9848633,28.8902588h16.8662109v7.7733154c-.440918,17.3041382-3.2270508,32.1148071-8.359375,44.4344482,4.2509766,4.1057129,8.9448242,7.3327026,13.9321289,9.5332642,7.6254883,3.2245483,19.5019531,5.1321411,35.4868164,5.7180176ZM230.0429688,575.4882202h-22.8769531v-11.4384155h22.8769531v-8.2114868h-18.1826172v-10.8526001h18.1826172v-8.9450073h-17.0112305v-11.1455078h17.0112305v-9.2403564h-22.8769531v-11.1455078h22.8769531v-9.3856201h-17.0112305v-11.1455078h17.0112305v-10.4119873h13.1982422v10.4119873h24.784668v20.5311279h8.359375v11.1455078h-8.359375v20.3858643h-24.784668v8.9450073h26.5444336v10.8526001h-26.5444336v8.2114868h31.0908203v11.4384155h-31.0908203v12.9054565h-13.1982422v-12.9054565ZM243.2412109,504.5093384h12.4648438v-9.3856201h-12.4648438v9.3856201ZM243.2412109,524.8952026h12.4648438v-9.2403564h-12.4648438v9.2403564ZM164.34375,472.687439c-5.1318359,21.4098511-13.1982422,40.3286743-24.34375,56.4611206l4.5463867,14.9559326c3.2270508-4.1057129,6.1611328-8.3566895,9.0927734-12.7578125v76.9923096h13.4912109v-101.6291504c3.9604492-8.9449463,7.1875-18.3305664,9.8261719-28.1567383l-12.612793-5.8656616ZM325.8056641,556.4241333l-6.7441406,9.9714355c7.918457,2.6411133,15.8369141,6.1610107,23.4628906,10.7073364l6.3061523-9.8261719c-7.0400391-4.253418-14.6655273-7.9185181-23.0249023-10.8526001ZM349.5639648,575.6359253c-10.5595703,6.3062744-23.0244141,11.5836792-37.5424805,15.9847412l5.2802734,12.4649048c14.0771484-4.9869385,25.9560547-10.7049561,35.4892578-17.0112305l-3.2270508-11.4384155ZM408.9570312,554.6641846h-36.0756836v39.5952148c0,8.6520386-4.5463867,13.0531616-13.3461914,13.0531616h-15.5439453l-2.934082-12.9055176c4.9868164.5858765,9.5332031.8787842,13.9321289.8787842,2.934082,0,4.5458984-1.467041,4.5458984-4.253418v-36.3682251h-35.4892578v-11.4384155h35.4892578v-8.6520996h-45.1679688c-.878418,30.2095947-5.7177734,54.5535278-14.8105469,73.0317993l-10.4121094-9.2403564c7.4780273-16.1300049,11.4384766-38.7139893,11.8769531-67.7518921v-48.8331299h55.1416016c-1.3193359-2.6411133-2.7861328-5.1321411-4.3984375-7.4803467l14.5175781-2.3458252c1.4672852,2.934082,2.9316406,6.3062744,4.253418,9.8261719h50.300293v12.4649048h-47.9545898v8.2114868h36.0756836v20.5310669h13.4912109v11.5861206h-13.4912109v20.0905151ZM359.5351562,494.2449951h-45.0200195v28.7425537h45.0200195v-8.9449463h-35.3417969v-11.5861206h35.3417969v-8.2114868ZM395.465332,534.5736694h-22.5839844v8.6520996h22.5839844v-8.6520996ZM395.465332,514.0426025h-22.5839844v8.9449463h22.5839844v-8.9449463ZM384.1723633,569.7702026l8.3588867,8.0638428c7.0400391-4.1057739,13.9321289-8.9450073,20.3857422-14.5177612l-9.2402344-7.1850586c-5.4248047,4.6915894-11.8789062,9.237915-19.5043945,13.6389771ZM376.8393555,587.0743408c13.3461914,4.6915894,26.3969727,10.8526001,39.1572266,18.7711792l7.4780273-11.1455688c-12.171875-6.7468262-25.515625-12.6125488-40.1811523-17.3040771l-6.4541016,9.6784668ZM733.8081055,509.2033081c3.0820312-5.1321411,5.8681641-10.5596924,8.5068359-16.1324463h47.5136719v-13.6365356h-126.4111328v13.6365356h63.2055664c-12.9052734,25.663269-35.4892578,47.661438-67.7519531,65.8467407l9.2382812,12.171936c20.6787109-12.3195801,37.8374023-26.3967896,51.3286133-42.088623v79.3380737h14.3701172v-78.0187378c19.7978516,12.6125488,36.5161133,26.1038818,50.1547852,40.4763794l9.5332031-11.5861206c-16.7177734-15.8370972-36.6630859-30.3572388-59.6879883-43.5556641v-6.4515381ZM895.125,582.9686279c13.9316406,4.2509766,28.3041992,9.237915,42.9697266,14.8106689l-8.6518555,11.4384155c-15.546875-6.5991821-31.2387695-12.4648438-46.9282227-17.5970459-13.7866211,7.0397949-36.3706055,12.7578125-67.7519531,17.0112305l-5.2797852-12.3196411c23.4628906-2.6387329,41.7958984-6.0109253,54.6987305-10.4119873-11.2905273-3.3722534-22.5839844-6.3063354-33.8745117-8.9450073,3.2270508-4.6940308,6.4516602-9.3855591,9.3857422-14.0795898h-33.8774414v-12.9030762h41.7958984c2.0527344-3.5198975,4.1054688-6.8945312,6.0131836-10.2667236h-37.1040039v-38.8616943h33.2910156v-10.7049561h-42.0883789v-12.4648438h130.5170898v12.4648438h-42.0888672v10.7049561h33.2915039v38.8616943h-60.1264648c-2.2006836,3.6675415-4.1083984,7.0397949-5.8681641,10.2667236h76.5517578v12.9030762h-30.6503906c-2.9316406,7.6280518-7.6254883,14.2272339-14.2246094,20.0929565ZM849.8115234,512.7232056h-19.9448242v15.1035767h19.9448242v-15.1035767ZM896.1513672,527.8267822h19.9453125v-15.1035767h-19.9453125v15.1035767ZM863.1552734,500.8441772h19.6523438v-10.7049561h-19.6523438v10.7049561ZM863.1552734,527.8267822h19.6523438v-15.1035767h-19.6523438v15.1035767ZM894.8320312,562.8756714h-39.1547852l-5.7202148,8.5068359c9.8261719,2.0528564,19.7978516,4.3986206,30.0644531,7.1849976,6.8920898-4.3986206,11.8789062-9.5308228,14.8105469-15.6918335ZM573.9580078,475.835022h16.6264648v-13.5841064h50.347168v-14.9873657h-50.347168v-14.0479736h-16.6264648v14.0479736h-27.8681641v14.9873657h27.8681641v13.5841064ZM489.6547852,476.3027344h16.6264648v-14.0518188h27.6318359v-14.9873657h-27.6318359v-14.0479736h-16.6264648v14.0479736h-50.3510742v14.9873657h50.3510742v14.0518188ZM445.8637695,556.8602905l2.8105469,10.302124c17.3261719-2.8104248,32.3134766-5.8527222,44.9619141-8.6630859.9355469,4.6852417,2.1069336,9.3666382,3.2783203,14.5195923l11.4731445-3.0461426c-3.277832-15.9228516-6.7919922-30.206665-11.0053711-42.6194458l-11.7094727,3.7458496c1.6391602,5.1530151,3.2783203,10.5379028,4.9169922,16.3944702-7.9628906,1.6390991-15.6904297,3.2781372-23.4179688,4.6813965,13.3481445-13.81604,25.2929688-32.3134766,35.5952148-55.2641602l-12.8803711-3.5139771c-3.0424805,6.7920532-6.3208008,13.3483276-9.8344727,19.904541-5.3852539.9393921-11.2416992,1.8748779-17.7978516,3.0462036,5.152832-7.4956055,11.9448242-19.4367676,20.3725586-35.595459l-12.8769531-4.4494629c-12.8803711,26.6965942-21.7792969,41.2162476-26.9321289,43.0872192l2.8100586,11.7092285c9.3666992-1.4032593,18.0336914-2.8103638,26.2290039-4.213623-7.7275391,11.7092285-16.3945312,21.7794189-25.9931641,29.9747314ZM565.059082,594.0947876c17.3300781,14.9873657,44.4941406,26.6965942,81.4931641,35.1276855l-7.7275391,15.4551392c-41.684082-12.8805542-71.190918-29.7427979-88.2851562-50.5828247h-1.875v52.6896362h-16.390625v-52.6896362h-1.8745117c-14.987793,19.4367676-43.3232422,36.0631714-85.4750977,50.1150513l-9.1308594-14.9873657c38.8735352-10.5379028,65.5703125-22.2471313,80.0898438-35.1276855h-75.8759766v-14.9873657h92.2666016v-9.315918h-7.8608398l-15.7714844-27.3168945,12.4833984-21.6196899-12.4833984-21.6218262,15.7714844-27.3168945h31.5410156l15.7714844,27.3168945-12.4833984,21.6218262,12.4833984,21.6196899-15.7714844,27.3168945h-7.2895508v9.315918h92.034668v14.9873657h-75.6401367ZM551.2436523,561.630188l2.847168,4.9328003,13.90625-24.088562h-5.6948242l-11.0585938,19.1557617ZM551.2436523,480.0772095l11.0585938,19.1557007h5.6948242l-13.90625-24.088562-2.847168,4.9328613ZM530.9868164,483.3057251l-9.1928711,15.9274292,9.1928711,15.9274292h18.3935547l9.1928711-15.9274292-9.1928711-15.9274292h-18.3935547ZM551.2436523,518.3886719h-24.9672852v4.9328003h27.8144531v-4.9328003h-2.847168ZM529.1235352,480.0772095l-2.847168-4.9328613-13.9057617,24.088562h5.6943359l11.0585938-19.1557007ZM529.1235352,561.630188l-11.0585938-19.1557617h-5.6943359l13.9057617,24.088562,2.847168-4.9328003ZM530.9868164,558.4020996h18.3935547l9.1928711-15.9274292-9.1928711-15.9246826h-18.3935547l-9.1928711,15.9246826,9.1928711,15.9274292ZM575.8330078,556.8602905l3.0419922,10.302124c17.3300781-3.0423584,32.5493164-6.088501,45.1982422-9.1308594,1.402832,4.4494629,2.5742188,9.1308594,3.9775391,14.2838135l11.9453125-3.0422974c-4.449707-15.4589844-9.3666992-29.2750244-14.5200195-41.2161865l-11.0053711,3.5100708c2.1064453,4.9210205,4.2133789,10.0701294,6.0883789,15.690918-7.9633789,1.6390381-15.690918,3.2780762-23.1826172,4.9171753,14.0478516-14.5157471,26.2250977-33.7205811,36.7626953-58.074585l-12.6445312-3.7458496c-3.2783203,7.4917603-6.7919922,14.5195923-10.5380859,21.5435791-4.6811523.4677734-10.0698242,1.4032593-15.9228516,2.3426514,4.2138672-7.0278931,10.0703125-18.0335693,17.0942383-33.2528687l-12.8803711-4.4494019c-10.7700195,25.0536499-18.265625,38.6377563-22.4790039,40.7445679l2.5742188,11.7092285c8.4311523-1.4032593,16.1586914-2.574585,23.6542969-3.9816895-8.1992188,12.6486206-17.3300781,23.418457-27.1640625,31.8496094ZM532.3017578,503.7824707c1.6254883,2.8162842,4.6298828,4.5512695,7.8818359,4.5512695s6.2563477-1.7349854,7.8818359-4.5512695v-.0002441c1.625-2.8151245,1.625-6.2830811,0-9.0982056v-.0002441c-1.6254883-2.8162842-4.6298828-4.5512695-7.8818359-4.5512695s-6.2563477,1.7349854-7.8818359,4.5512695v.0002441c-1.625,2.8151245-1.625,6.2830811,0,9.0982056v.0002441ZM548.0654297,537.9266968c-1.6254883-2.8162842-4.6298828-4.5512695-7.8818359-4.5512695s-6.2563477,1.7349854-7.8818359,4.5512695v.0002441c-1.625,2.8151245-1.625,6.2830811,0,9.0982056v.0002441c1.6254883,2.8162842,4.6298828,4.5512695,7.8818359,4.5512695s6.2563477-1.7349854,7.8818359-4.5512695v-.0002441c1.625-2.8151245,1.625-6.2830811,0-9.0982056v-.0002441Z" fill="#fff"/>
    </g>
  </g>
</svg>