<?xml version="1.0" encoding="UTF-8"?>
<svg xmlns="http://www.w3.org/2000/svg" version="1.1" viewBox="0 0 1080 1080">
  <!-- Generator: Adobe Illustrator 28.7.3, SVG Export Plug-In . SVG Version: 1.2.0 Build 164)  -->
  <g>
    <g id="resonance">
      <path d="M293.7916876,611.6460132l5.4002781,5.4004334-50.9994536,50.9994536-5.4002781-5.4004334,50.9994536-50.9994536ZM341.0053174,617.0464465l50.9994536,50.9994536,5.4004851-5.4004334-50.9994536-50.9994536-5.4004851,5.4004334ZM538.4956457,484.0668736v-63.0348574h-7.6372524v63.0348574h7.6372524ZM578.4261227,421.0320163h7.6374594v63.0348574l-66.5467249,66.5466731-31.2394108,31.2394108h64.0036645v56.4577826h-60.8482249l-15.3723944,15.3723427,32.0541918,32.0541401,37.0658089-37.0658606,5.4004851,5.4003816-37.0658089,37.0659123,63.5872715,63.5874267-5.4002781,5.4004334-59.7689557-59.7688005v79.9604475h-44.0639849v-7.6373559h36.4267325v-72.3230399l-85.6898355,85.689939-5.4004851-5.4004334,89.5085652-89.5086169-13.3268533-13.3269051-70.7812267,70.7813819-5.4004851-5.4003816,70.7812267-70.7813819-13.3266464-13.3268533-52.0540952,52.0540952-5.4004851-5.4004334,67.4264897-67.4264379h-51.6379091v-56.4577826h48.4822626l29.0026435-29.0024883h-54.9978201l-51.2831886,51.2831369h-160.1981109v-7.6373042h46.8680153v-44.1869678h-36.1396862v-7.6373559h36.1396862v-34.9911389h-29.4115862v-94.9335744h125.2852527v94.9335744h-29.412414v34.9911389h36.140514v7.6373559h-36.140514v44.1869678h43.7053323l74.7334422-74.733494,5.4004851,5.4004334-18.0499754,18.0499237h54.9978201l64.3097506-64.3098023v-59.8713466ZM375.1044294,466.0327302h-51.1867477v36.0107534h51.1867477v-36.0107534ZM375.1044294,422.384621h-51.1867477v36.0107534h51.1867477v-36.0107534ZM265.0936815,458.3953744h51.1867477v-36.0107534h-51.1867477v36.0107534ZM265.0936815,502.0434836h51.1867477v-36.0107534h-51.1867477v36.0107534ZM294.5052677,544.6719784h51.1867477v-34.9911389h-51.1867477v34.9911389ZM294.5052677,596.4963021h51.1867477v-44.1869678h-51.1867477v44.1869678ZM436.631466,630.6733843h50.1873631v-41.1830708h-50.1873631v41.1830708ZM544.6436515,589.4903135h-50.1873631v41.1830708h50.1873631v-41.1830708ZM554.642258,484.0668736h7.6372524v-87.4194601h34.4749419v-7.6373042h-34.4749419v-45.0156147h28.2929955v-7.6373559h-28.2929955v-42.4038454h-7.6372524v95.056816h-17.3587465v-69.1020473h-7.6372524v69.1020473h-15.4440008v7.6373042h40.4399997v87.4194601ZM633.6687702,317.2793224h-36.3681643v-7.6373559h80.373581v7.6373559h-36.3681643v38.5397926h31.4587829v145.7769324h-70.5546112v-145.7769324h31.4585759v-38.5397926ZM665.1273462,453.8718602h-55.2798994v40.0868313h55.2798994v-40.0868313ZM665.1273462,408.3712469h-55.2798994v37.8632574h55.2798994v-37.8632574ZM665.1273462,363.4564709h-55.2798994v37.2774201h55.2798994v-37.2774201ZM589.0499396,544.7611759l5.4002781,5.4004334,33.2733624-33.2733624-5.4002781-5.4004334-33.2733624,33.2733624ZM713.9810926,611.4940566l5.4004851-5.4003816-35.641753-35.641753-5.4004851,5.4003816,35.641753,35.641753ZM798.9579689,606.093675l5.4002781,5.4003816,35.641753-35.641753-5.4002781-5.4003816-35.641753,35.641753ZM798.9579689,636.519857l35.641753,35.641753,5.4002781-5.4004334-35.641753-35.641753-5.4002781,5.4004334ZM719.3815777,636.519857l-5.4004851-5.4004334-35.641753,35.641753,5.4004851,5.4004334,35.641753-35.641753ZM762.9883995,668.1711595h21.7848884v-34.80638h-7.6372524v27.1690759h-35.9325245v-31.3895048l43.7479649-43.7479649-5.4004851-5.4004334-45.9849392,45.9848875v42.1903198h21.7850954v32.4103092h-75.7357243v7.6373042h75.7357243v65.3328316h7.6372524v-65.3328316h75.7357243v-7.6373042h-75.7357243v-32.4103092ZM752.2360637,550.1616093l-18.669805,18.6698568h-.000207v38.3757292l7.6374594-7.6373559v-27.574759l21.8333159-21.8334711h74.7781445v-7.6373559h-74.8265719v-27.5438192h-7.6372524v27.5438192h-71.6630611l-31.0363882-31.0364399-5.4004851,5.4004334,33.2733624,33.2733624h71.7114885Z" fill="#fff"/>
    </g>
  </g>
</svg>