<?xml version="1.0" encoding="UTF-8"?>
<svg xmlns="http://www.w3.org/2000/svg" version="1.1" viewBox="0 0 1080 1080">
  <!-- Generator: Adobe Illustrator 28.7.3, SVG Export Plug-In . SVG Version: 1.2.0 Build 164)  -->
  <g>
    <g id="stage">
      <path d="M199.1403809,531.9785156h56.1481934v2.9912109h-56.1481934v67.0253906h-2.9914551v-67.0253906h-56.1489258v-2.9912109h56.1489258v-53.0224609h2.9914551v53.0224609ZM209.9411621,546.5976562l37.8525391,37.8525391,2.1152344-2.1152344-37.8522949-37.8525391-2.1154785,2.1152344ZM144.7287598,582.5019531l2.1152344,2.1152344,38.0187988-38.0195312-2.1152344-2.1152344-38.0187988,38.0195312ZM184.862793,520.0644531l-32.4055176-32.4052734-2.1152344,2.1152344,32.4055176,32.4052734,2.1152344-2.1152344ZM244.8256836,489.7744141l-2.1152344-2.1152344-32.4055176,32.4052734,2.1152344,2.1152344,32.4055176-32.4052734ZM426.3476562,568.0058594h-120.046875v-2.8554688h26.3752441v-69.3349609h-23.9277344v-2.9912109h23.9277344v-14.8193359h2.9907227v14.8193359h61.1791992v-14.8193359h2.9909668v14.8193359h23.9277344v2.9912109h-23.9277344v69.3349609h26.5107422v2.8554688ZM396.8459473,543.6708984h-61.1791992v21.4794922h61.1791992v-21.4794922ZM396.8459473,519.6064453h-61.1791992v21.2080078h61.1791992v-21.2080078ZM396.8459473,495.8154297h-61.1791992v20.7998047h61.1791992v-20.7998047ZM306.5578613,601.9951172h4.2307129l27.9951172-27.9951172-2.1152344-2.1162109-30.1105957,30.1113281ZM394.6159668,574l27.9953613,27.9951172h4.2304688l-30.1103516-30.1113281-2.1154785,2.1162109ZM595.6699219,511.0419922v-2.8564453h-30.9978027v-28.9570312h-2.8557129v28.9570312h-27.5976562v2.8564453h22.1867676l-27.8718262,60.5878906v7.1582031l31.1647949-67.7460938h2.1179199v90.2724609h2.8557129v-90.2724609h1.6271973l32.6455078,68.5839844v-6.9609375l-29.3322754-61.6230469h26.057373ZM528.5336914,552.1474609v-4.5566406l-22.4584961-25.8076172v-10.7412109h21.0734863v-2.8564453h-21.0734863v-28.9570312h-2.9907227v28.9570312h-23.5192871v2.8564453h23.5163574l-25.2272949,52.0029297v6.8544922l25.2302246-52.0097656v83.4248047h2.9907227v-74.9746094l22.4584961,25.8076172ZM656.2102051,537.6875h104.9562988v16.1787109h2.855957v-19.0332031h-10.4685059l2.9907227-48.9423828h-27.4626465v2.8544922h24.3354492l-.8154297,14.2744141h-23.1123047v2.8564453h22.9758301l-.8154297,12.6425781h-22.8395996v2.8554688h22.703125l-.8154297,13.4589844h-83.0673828l-1.0869141-13.4589844h22.5678711v-2.8554688h-22.8408203l-1.0869141-12.6425781h23.6550293v-2.8564453h-23.9277344l-.7946777-10.7978516,23.8706055-6.4931641-.7851562-2.8867188-26.050293,7.0859375,3.6245117,44.9052734h-11.4204102v18.8984375h2.854248v-16.0439453ZM699.3588867,505.0039062l9.8422852-9.8417969,9.8425293,9.8417969,2.1152344-2.1152344-9.8422852-9.8417969,9.8422852-9.8427734-2.1152344-2.1152344-9.8425293,9.8427734-9.8422852-9.8427734-2.1152344,2.1152344,9.8422852,9.8427734-9.8422852,9.8417969,2.1152344,2.1152344ZM699.3588867,528.9228516l9.8422852-9.8427734,9.8425293,9.8427734,2.1152344-2.1152344-9.8422852-9.8427734,9.8422852-9.8417969-2.1152344-2.1152344-9.8425293,9.8417969-9.8422852-9.8417969-2.1152344,2.1152344,9.8422852,9.8417969-9.8422852,9.8427734,2.1152344,2.1152344ZM711.2722168,565.9658203c11.9631348-4.0771484,22.7043457-8.2929688,32.2209473-12.6435547v-2.9912109h-73.0065918v2.9912109h66.6159668c-5.4375,2.4482422-15.090332,5.8466797-28.8212891,10.46875v10.6044922h-58.3239746v2.8554688h58.3239746v15.90625c0,3.5351562-2.0400391,5.4375-5.8464355,5.4375-4.9025879,0-9.4348145-.1113281-13.5322266-.1289062v2.8486328h14.7556152c5.0310059,0,7.6140137-2.4472656,7.6140137-7.3417969v-16.7216797h56.2836914v-2.8554688h-56.2836914v-8.4296875ZM921.6459961,598.0517578c-7.7490234,0-14.6826172-.5439453-20.6640625-1.359375v-35.2119141h31.9482422v-2.8554688h-31.9482422v-29.2294922h34.6674805v-2.9921875h-36.4350586v-26.6455078h32.4921875v-2.8554688h-32.4921875v-17.8105469h-2.8544922v17.8105469h-33.9882812v2.8554688h33.9882812v26.6455078h-37.3881836v2.9921875h39.1542969v66.8886719c-4.3505859-.8154297-8.1567383-1.9033203-11.2841797-3.2636719-11.0166016-4.9482422-15.9677734-22.3662109-23.2910156-43.1396484l-.0004883.0009766v-.0009766h-2.9916992v51.8212891h2.9916992v-42.7919922c5.2011719,15.3876953,10.3652344,30.4355469,21.796875,36.1513672,7.831543,3.9150391,20.5292969,5.7080078,37.6586914,5.7080078h16.4501953l.5439453-2.9902344c-6.2529297.1367188-12.3710938.2724609-18.3540039.2724609ZM818.5683594,515.8828125v4.7949219l31.6567383-39.6621094h-3.8276367l-27.8291016,34.8671875ZM846.3974609,518.2978516l-27.8291016,34.8662109v4.7958984l19.3310547-24.2197266v67.7099609h2.9907227v-71.4570312l9.3349609-11.6953125h-3.8276367Z" fill="#fff"/>
    </g>
  </g>
</svg>