<?xml version="1.0" encoding="UTF-8"?>
<svg xmlns="http://www.w3.org/2000/svg" version="1.1" viewBox="0 0 1080 1080">
  <!-- Generator: Adobe Illustrator 28.7.3, SVG Export Plug-In . SVG Version: 1.2.0 Build 164)  -->
  <g>
    <g id="wknd">
      <g>
        <path d="M214.8062194,573.3096984c-.3870707.0704494-.3687876-2.3363022-.2778989-4.6188064-.1616497-2.8116914.6012271-6.2883841.2778989-11.0157362-.1052309-4.417394-.0283736-7.4372243.1795272-10.7705907,1.0568281-2.3762598-.2216353-4.7523973-.1795272-4.8639518.4870096-.9953997-10.7684488,3.4861803-10.0193484,4.4033348-.6768408.5962005-1.0968535-11.5959721-1.371638-11.2811897-.0370442-.7145299-1.900356,1.7192074-4.570601,1.7408433-2.2874551.5678699-6.1267459,2.484322-9.6669422,4.4244093-3.161579,1.8603981-6.6598269,3.1346315-9.862983,4.2477181-2.1464581,1.8855246-3.9857166,1.2294835-4.3745601,1.9175345.1085792-.214157-2.5399392-5.1085352-2.6383563-7.2410952-.7471334-4.5983127-3.4420521-8.4072502-2.6383563-7.2410952.1955952-.1539366,4.5344173-5.1332403,7.9397984-8.8163608,3.6878746-4.3634153,7.7883306-8.8442017,7.9397984-8.8163608.1783472-.7926111-12.7001766.4754751-12.5775054,1.1173482-.1157774-.3839269.305587-10.3634678,0-10.6797666-.6138691-.0300279-.4317069,1.0546753-2.1914216,3.9670373-1.4675766,2.803438-2.8991096,5.8644251-4.3796407,9.0044528-1.7423438,3.1997518-3.2020947,6.2880639-4.4497208,8.7628107-.9179363,2.8715587-2.1062101,3.2547514-2.1213415,4.2086795-.1274565.1720942-.354066,2.1346342.3567741,5.0314662.733644,2.9548884.5951209,7.0605884,1.1641247,11.6816122.3949493,3.2281583.4267381,5.2490896.5022038,7.9009193.4106213,2.7228381.1805003,5.1955346.8521848,7.8160831.1537127,2.949775.6371572,5.3741414.8105173,7.9238293.4010049,2.4714541.6329509,5.5824032.6596215,7.3977527.3261018,5.2611982,1.1232193,9.2820691,1.1420427,11.9317626-.5178635,2.7568308-.0308604,5.1296061.3788565,4.7813205-.0757604-.5348972-3.7368739,1.3733675-6.3976997,4.1240295-3.2719383,2.0491573-6.5733847,4.7244698-6.3976997,4.1240295-.2952907-.1736196-.6772103-5.350184-1.105775-13.5224295-.5365368-3.967073-.1665693-8.2111861-.7779705-12.6961798-.6350346-4.3361034-.3314646-8.2186154-1.2756123-12.4169117-1.1903818-7.5492354-.5550575-13.0872334-1.1057753-13.5224333-.8165631.3020137-2.1519812,5.2119846-2.2655789,5.7585852.3251828.3274087-7.1272037-10.4626944-6.2993744-10.7928407.317613-.0326329.838901-1.5586165,1.4083242-3.7807434,1.0721144-2.1086032,2.3407281-5.9964206,3.7533282-9.3096365,1.8986282-3.7507113,2.9241166-8.0221128,4.8115861-12.459933,1.8675694-4.1841507,3.3055409-7.9818203,4.7743428-11.8507805.9297876-3.7333994,2.8734112-6.8902995,3.5324863-9.3917627.9428885-2.2148022,1.2490403-3.7950501,1.6291675-3.6986209-.7797612-.3001523,3.2619312,1.7323937,7.212161,2.0918708,3.5623519,1.2776327,7.0970781,2.0397943,7.212161,2.0918708-.565295-.1016927-.9096229,2.6881943-.6604183,2.3122834-.2315171-.0745062,2.2907451.0264519,5.5770326-.4313817,3.4286232-.6021758,7.921534-.9674114,13.1931311-1.1340049,4.8570056-.621754,9.2773125-1.0018686,12.7643941-1.2037233,3.4142897-.1665733,5.540668-.0181139,6.0057697-.3616634-.0143741-.3231496.8404306,14.3307829.7484652,13.8180278.2211113-.6663332-4.1890849.1665047-8.8345787.4326087-4.0702875-.3215968-8.586418.676227-8.8345787.4326087.5919717.0237812-1.9443282,3.2146679-3.0984761,7.2707123-1.4245671,3.8381307-2.7825999,7.2915153-3.0984761,7.2707123-.1343798-1.0269202,12.5048022.4292282,12.738043-.5080141-.3127981-.3023103-7.1998581-6.3798931-6.7926397-6.4288361.2044216.151407,11.5661439-4.2717403,11.3418237-4.7343633-.6102292.5544339,1.8480837,4.0259825,4.679465,8.6985118,2.1222497,4.3951655,5.3707406,9.3617236,4.679465,8.6985118-.7149962-.374567-.5242738-.4670496-.0449506-4.336325-.2720195-2.6786394.8590937-6.1359524.0449506-9.7569684-.0764248-3.5115156.6173424-7.1233906.1075471-9.9849445.4526682-2.8358677-.6896425-4.2641326-.1075471-4.1083489.7438262-.2749954,14.759248-.635197,13.4328751,0,.6654952.3495103-.720707,2.6413675-.4794446,5.1530597.2947719,2.918815-.4451263,7.2037148-.7537979,12.8106769.2123477,2.6992736-.5574282,4.3802574-.7947117,8.1321246-.3163479,3.4413693.1484504,5.7586555-.5604933,8.6827279-.2953765,3.1300293-1.0803158,5.6697148-.6932395,8.5494902-.8541045,3.2537952.2947681,5.7103685-.2418639,7.9968933.3164139,5.9649635.1477863,10.0632503-.8707688,12.8012091-.0435493,2.8288287.0299097,5.7427345-.3624741,5.1625326.1794168-.7650445-8.6277898-3.1076476-8.6760813-2.8961923ZM198.1794107,545.5639367c-.084391.9009451-9.8016796-.4977161-10.4962261-.8205042.7159317-.1649315-.4317051,9.4747244,0,9.1376981-.2616628-.44095-4.3753714.1528038-8.6194419-.7836834-4.7071334-.4921236-8.8532445-.7015931-8.6194419-.7836834-.4198085.5454448-.6369375,4.4982861-1.5382447,7.5513833-1.7954086,4.6751242-2.1889432,7.1019533-1.5382447,7.5513833-.7475778-.9981455,4.9011071-.1882006,10.6278727-1.3984043,5.7224849.6682995,11.8469061-2.1483661,10.6278727-1.3984043.2886117-.5330041-1.1567747,13.8289089-.9403723,13.2642541-1.2621636.1201206-4.1569497.5297667-9.8358078,1.4565972-3.8481361,1.5297224-10.2337308,1.6675176-9.8358078,1.4565972.5564913.1330217.3400278,3.9174922.7112197,8.33225.0372382,4.3004015.3556262,9.0831617.7112197,8.33225-.3520761.4162023,4.9616198-.5176716,10.7704488-2.5292061,2.7771586-.7885466,6.669001-1.7254807,9.785339-2.589938,3.3793113-1.0098196,6.712828-1.6349018,10.2169239-2.1071593,6.4939527-1.583562,11.3211504-1.8424471,10.7704457-2.5292054-.0897264-.8531267,1.5272305-14.2710478.7488086-13.4014315.4663389-.4806672-13.2854752,1.6024245-13.5465638,2.198902.3055064.1304689-.7986326-11.1161567-.9871451-11.0654886-.9583278-.784501,4.1255522.1826288,7.5951175,1.1285901,3.6483269.8452848,7.4280814.5947204,7.5951175,1.1285901.5737684.2105835.1240755-12.8483808,0-12.9936888-.1059375.0875332-3.8213101-1.0687419-7.8048782-.4350895-4.2014297.4894662-7.3833927-.0583902-7.8048782-.4350895-.1219114.2577045,1.4833866-8.4536946,1.4066664-8.2675192ZM231.1003608,588.2322019c.2753301.7360818-3.4406946.331382-7.707065-.5244016-4.5758523-1.3225397-6.4682891-.020815-7.707065-.5244016-1.4244417.1995394,2.2129928,2.516035,2.4777976,6.8262341,1.3685725,2.7611667,2.0519711,7.4246263,2.4777976,6.8262341.1533357.6261531,6.1995619-.3923138,10.5798026-.9529361,4.9888969-.0605651,10.6779-.5000667,10.5798026-.9529361-.4443316-.8558872-.3778574-4.13541,1.7518291-6.9745415.8150899-4.0931905,2.3842327-8.0543747,1.7518291-6.9745415.3285934-.4232562.7278346-6.388298-.5097638-12.8828658.1310202-4.5852193-.2584621-7.7819978-.3542018-13.1128269.3744479-2.155936-.3302322-5.6680829-.2654857-7.7074129-.9052154-2.3662952-.8628202-5.2031428-.5017928-7.522066-.7042769-2.1055081.2180809-5.4704253-.446494-7.9269666-.3506399-2.7730417-.8511168-4.5380872-.5149601-7.3268569.257944-4.7204738-1.0118807-9.2341558-.1600262-13.0884807-1.4975553-7.4456473.7392767-13.4351404-.5097638-12.8828655.0017456.8686805-3.2405635-2.0476672-6.9017534-2.5171278-4.4851672-.8167857-6.8520917-1.4893099-6.9017534-2.5171278.2459322.4731539.3069253,2.0503718.1473504,3.9294666-.230781,2.1152078.3165851,6.3013796.2997225,10.2480157.368247,1.8652672.0142417,3.833762-.0422078,6.7310537.1446593,1.6616101.5236691,4.3278222.5230357,7.7195313.5733418,2.5901761.2765908,4.7703696.4708393,8.3011755.674364,2.83721.844274,5.7391037.0318931,8.4387016.766418,3.5916321.3340112,5.3151885.2265981,8.6206104-.8105236,3.4168204,1.1452258,5.0431693.2094465,8.1829226-.6627101,2.9450661.44843,5.4690832.2110457,7.6933699.9815185,2.0590167.1432304,4.8510213.3364699,6.6935575,1.0456101,4.9294845-.6634428,7.2830992.2576422,9.931487.9085138,2.0078682-1.1962962,3.6694692.1894306,4.245995ZM331.7354889,509.7243638c-2.1609377,6.0213345-3.9831641,10.9017377-3.3029108,11.1746707.5739152.0292596,2.2478792-.3274901,4.821108-.7311795,3.0436494-.4791958,8.0385692-.6482225,10.9109405-2.3103499,3.9346491-1.7006616,8.2529961-2.340491,10.9673163-2.1088213,2.220938-.0697132,5.0130823-1.6386204,4.7647321-.9327081-.1137514,1.471352-.3849996,3.4182208-.7030259,7.7767121-1.3167841,4.6073978,1.3309596,8.1799868-.7030259,7.7767121-.0619267-.4007751-6.3331081-.2992493-6.9368501,0-1.4306442.6220683-.5014836,5.7800669-2.4263887,10.6190089.7697802,2.9736847-2.0879048,6.77305-2.1421416,9.6598471-2.0982844,2.825975-1.3625629,6.7914322-2.3640103,10.0611758-1.5474581,6.4039294-2.9913623,11.4339121-2.4263894,10.6190119-.2698803-.9521127,1.7833517,4.4839855,5.7045063,9.3958021,3.699791,4.1502369,5.0900179,9.1080028,5.7045063,9.3958021-.3649773-.2014969-10.7872292,7.2258676-10.9075536,8.6001865-.688672.1734389-2.2274303-3.5199309-3.8289512-7.1998703-1.6158209-3.3806259-4.1493446-7.0177816-3.8289512-7.1998703-.9356609-.5137526-3.9414051,1.9080785-7.0786024,7.5145113-3.4266729,4.3770053-7.6637036,7.7510853-7.0786024,7.5145113-.7552311.7440627-10.1408952-6.8830695-9.8456403-4.790081.2576998-.4655778-8.269539,6.0862793-7.707065,6.3862284-1.3115673.6340995-3.7873173-1.7914676-7.2670593-3.8535325-1.6040891-.6495871-8.2416663-5.234483-7.2670593-3.8535325.9383457.4391457-1.1275784,1.1503426-3.9059089,1.4713929-3.2979837.4187942-6.8259706,1.3266746-9.4171697,2.6025522-4.9710753,1.065826-12.9108456,4.1588853-13.3230785,4.073945-.8041437,1.0448104-1.453104-3.1328026-3.3561703-6.2625024-1.5415921-3.936901-3.7846452-6.2472498-3.3561703-6.2625024-.2705954-.2008375,3.1318416-.7163353,8.9172856-1.0594551,5.1043019-.1153309,9.6022492-.6278489,8.9172856-1.0594551,1.0139416.2232512-12.1755612-4.7035925-12.99205-4.2935382.8920486.6120202,5.5952345-3.4609431,4.622928-6.0568387-.8194903-.8315376-7.2512543.2680475-8.2576867.4408251-1.5128506-.1511498-1.7639739-11.2259325-1.0996046-10.3503769,1.1055099.4717503,7.0902522,1.5525251,9.9773553-.3713829,1.9335838-.2777636,6.3647658-.5362165,6.4265828-.2890354,1.3126415-.9016806,7.1339956-5.3080424,5.7225326-6.1174726,1.4511977.9282898-4.7361162.0928736-8.9164662.1409329-5.1444447-1.5728597-9.3837301,1.5164352-8.9164662.1409329-.1305639.3065611.5699365-5.4548808,0-10.5142524.2889516-5.7503578.4714908-10.5353424,0-10.5142524.652226-2.9501071,5.1900713-.6516539,10.9091923.7243297,5.7533193,1.2833005,11.9487025,1.4167614,10.9091923.7243297-.2768718.7928686.0400713-4.7556775-.660111-3.5342825.0148535-.1467598-3.3071028-.409159-7.5359687-.9597471-4.9271166-.4064973-7.7642603-3.3960912-7.5359687-.9597471.8736606-.1674822-1.9872157-9.3171866-2.0976065-9.6489897.258216.7764884-9.9539908.8427357-9.9341331,0-1.2067779-.1099033,1.2790763-10.845926,0-11.1205918-.4645771.1088454,9.1107281,1.2476241,9.3647681,2.0084992-.2405326-.5843798.3344497-1.9956448-.4494798-7.1905499-.4046414-2.9384632-.7727801-7.232799-.4494798-7.1905499-.3216928-.5033031,4.5288979-.4210983,8.4289366.6817221,4.3324262,2.3198305,9.4232382.0996778,8.4289366.6817221-1.2307549.4994071-1.3912524-8.5696764-1.3355854-8.0757849.0176246-.3060931,11.7174013,1.6402528,13.1165954,1.799353.5952974-.3838777-.2257878,5.6444208,0,6.2764318-1.5914392.2602043,4.1745608-.6215253,7.0761443.7866024,2.0001372.8980732,6.4988082,1.4551555,7.0761443.7866024-.4832404.9517243.8665571,11.8286582,1.0488032,10.2782717,1.1972916,1.3311392,7.5027732-2.5992074,7.5513833-1.8878458.2726623.254984,2.4004859,9.5819721,1.8664396,10.6588725-.3514697-.0677873.9839653-6.3243839,3.1046726-13.5043658,1.053099-7.703717,2.7959063-13.3652896,3.1046726-13.5043658,1.0165444.0498204,13.022677,1.2800653,13.2132819,1.7616617-.4666355.4550808-2.496948,3.8720723-3.3029108,11.1746707ZM274.524092,513.7671725c-1.1934845.0184824,3.8656559,2.7463771,4.6917557,1.297894-.4255531.4397935,1.7483907-5.9617504.7620211-4.4443037-1.7730205.0754417-5.626268.3436271-5.4537768.9439229-.3688988-.3793039,1.3140147,2.296094,0,2.2024868ZM281.0266721,522.996641c.7307461.189811-5.381316,2.5802452-5.2243511,1.4273556.4262373.202195-.3430886,2.72907,0,2.42208,1.1918104-1.0161235,3.8343337,1.5275561,4.5950692,1.8141018-1.393963-.1479573.1954068-6.3088414.6292819-5.6635374ZM330.0828044,530.3693999c-.2608736-.2254523,1.1527557,6.6073783,2.3122834,11.3410043.5872108,5.9765528,2.578086,11.2918315,2.3122834,11.3410043.2541055-1.5380421-.8370771-5.0593317,1.81656-11.3410043,1.1762227-6.0588301,2.07588-11.5480828,1.81656-11.3410043-.439887-.5947367-9.2925669-.3374417-8.2576867,0ZM300.1706085,535.7994148c-4.4678662.7026963-9.1401009,1.7563439-9.1737508.846417-.7230491-.7758064,1.6291739,4.5564272,0,3.5511822-.2697619-.0757022,5.2785976-1.505566,9.7440375-.6194494,4.3199269.2945203,7.7184291-.6227594,9.7440375-.6194494.4930592.4336196.9219333,7.1849208,0,7.1564433-.5066792.2058197.9508827-5.5228806,2.3921727-10.4052752,1.1220831-6.1911043,2.7993614-10.0810114,2.3921727-10.4052752.3148772.2155517-5.9838042-.7144427-7.0966287,0-.0274648.582509,1.1845832,10.4753954,1.1717099,9.6489897-.6898253.8452089-4.5067682-.1241232-9.1737508.846417ZM290.9968578,548.3170452c.9208525.6606284-1.3342489,3.683676,0,2.42208-.866511.7289021,9.3647679,1.8805045,9.3277937,2.0435275-.6723507-.3708412.9288762-4.0086012.4195213-4.4656075.2448023-.3019153-11.310679.1919518-9.747315,0ZM290.9968578,515.0650665c-.5438808-1.7916818,4.5022094-.5545701,3.4135268,0,.163185.8878163,1.9477797-2.4224342,1.0897721-2.9759792-.403118-1.3145145-3.6589425-2.4182636-4.5032989-1.2585639-.0372014.1075204-.0608316,2.8008769,0,4.234543ZM289.8366192,526.8460766c-.7896747.9231282,3.7411914.7853077,4.5737653,0,.2677136.1257166-1.8435288-1.8235135,0-2.42208-.2809309,1.1867599-4.7895949-2.7480791-3.9444834-1.8468769-.6954905-.2942974-1.1370565,5.3520525-.6292819,4.2689569ZM279.2158477,550.7391252c-.4590629-.4502402.1774966-2.7397515,0-2.42208-.2465394,1.6939635-7.3654149-1.4363394-8.047926-1.4076906-.338195-.3599978-.187978,5.3579819-.8390426,5.4537768.0771795-.2595052,10.4233077-1.0555899,8.8869686-1.6240063ZM294.7397743,574.7419703c-.9762583,1.4442353-2.5153608-.6551975-7.4317541.4400057-2.3146261-1.2102816-8.1985959.7360111-7.4317541.4400057-.5465002-.8656644-3.5831918,3.2722988-2.5860579,3.7616598.1960909-1.2566388,11.2540372,3.2373886,10.6585652,3.3947835.0661887.0969498,7.1722691-7.5417086,6.7910009-8.0364548ZM318.2477155,580.2465485c5.7090854-5.1876668,10.4164896-8.3749905,9.7440375-9.5785233.7691526,1.3887408-2.4522283-6.6288136-3.4503988-13.3476599-1.8517062-6.3468913-3.2639099-12.3974687-3.4503988-13.3476599-.0301394.0526428.2146462,4.4357766-1.063552,7.2367423-1.3885054,4.3005959-2.5561417,7.0577009-1.063552,7.2367423.5942413,1.6364699-7.4944879-9.1471272-8.4789186-9.1393369,1.7611068.6820478.7190699,10.9922331,0,10.6797666-.0195049.5059088-5.1790976-.6510588-10.7354843,0-4.7085122-.2063208-11.262878-1.3648895-10.7354843,0,1.8111365-.812963-1.5815854,6.0019745-2.8612663,5.284985,1.8734896,1.3432795,10.4693053.5976087,10.3995395.4369331.0513595.4277244,1.2865453-3.3795444.2802271-3.9602564.6306-.2509171,13.3361336-.113863,12.3316317,0,1.3947675.2250625-1.1877331,3.5944598-2.1271041,3.4102493-.3419861-1.5320407,6.1199921-.3017389,6.2928194.8390426.6280143-1.1452194-1.0071061,8.573248-1.853432,7.8627467-.7642924-1.0069849-4.8267841.3105909-5.8356067.4309926-.2097.4100076-2.3965998,3.9699212-3.4971033,6.2362823.0148221,2.1096329-3.4491161,7.9512082-3.4971033,6.2362823.172103.3677008,9.5046839,3.7028339,9.8571116,3.0611944,1.0967782.3605379,6.4183608-5.6847904,9.7440375-9.5785233ZM467.6022117,514.8454734c-.0140953-1.0022825-3.4534996-.1395123-8.2576867,0-3.8118065.1173383-6.9887847.6553278-8.2576867,0,.7864047-.4666186,6.0069267,4.3653104,5.8356067,5.1735497-.3813884.6016906-6.356672,4.2071951-6.9765137,4.4035133-.5130677.6775759,8.4816273-1.1932856,8.0254411-.4205955-.0190777-.4347908-.2461381,1.7961217.0089274,5.4024995.7545413,3.262643.1506229,8.1271323.6320199,11.7496708.1641868,4.0498901.4371067,8.3245732.4331403,11.7218573.1228167,3.4410282.678935,5.2165778.207807,5.430313-.5520833-1.2979512-2.8874435.6080233-6.1177575-.1420148-3.2255059-.0063718-8.4072911,1.3311564-13.4590664-.3124325-4.8999359-1.3454527-9.6088769-.4090115-13.4441465-.2511051-3.7385502-.3121491-6.7662554-.0578048-6.1326773-.2033422.2297252-1.0602177.0588825,5.8256866-.1415475,5.1041074.5382595-.5904795,1.3775221.7342538,6.3909556-.4018568,1.5902062-.7995159,4.2967106-.146716,6.6411906-.4338303,2.3288065,1.0820686,4.5160137.332453,7.5943515-.4927799,2.9593837.2473325,4.7202767-.2533114,7.453216-.3756851,1.8927346-.4586594,4.7290348-.1105928,6.7275012-.537636,4.4718833-.1191789,6.3674293-1.3158112,6.4457805-.4151459.1160502.7081047.6291658,7.3462068.0699031,13.8442026.0625565,7.2319888-.6937894,13.3768903.0699031,13.8442026.3316433-.281298-2.9423976,1.4335491-6.4528541,4.5595799-2.5593562,2.0098841-5.9889538,3.4427937-6.4528541,4.5595799.0895498-.606998-3.5748827.5073927-7.0466467.2204126-4.0513607.3521562-6.9934227.2243544-7.0466467.2204126-.4426926.1027551-1.0751048-3.5049422-2.2573851-7.2670593-2.2007558-3.3597687-2.0152917-7.7904894-2.2573851-7.2670593.2798562.7190088,3.2410401-.0138445,7.7859813,1.0886455,4.6292422.7778348,7.540185,1.2833289,7.7859813,1.0886455.0049917-.7881043,1.4302968-8.5092532.6123823-9.6647627-.8101681.5318336-6.1653877-.9828149-13.4512087-.4116348-7.3530304-.6973863-13.4598669.00063-13.4512087-.4116348-.4853218-.5308327.4046747,5.9448957,1.725097,13.6240974,1.5245945,7.6845851,2.0638755,13.0842332,1.725097,13.6240974-.3235804.0781007-3.8428947-.79456-7.8168616,0-3.957045-.1310645-8.9255702-.2486878-7.8168616,0,.7924479-.1087996.6043338-7.204282-.6205761-11.3167302-.3921013-5.6691362-.2383652-10.3245635-.6205761-11.3167302-1.0887374-.3174355-1.5424479,2.2674594-4.2895164,3.1941467-2.7732753,2.742875-5.5680988,4.7842042-8.6456893,7.6435037-3.1168352,3.0643403-6.0419852,6.2939825-8.6372683,7.6871789-2.5934718,1.8502702-6.0761467,3.0867076-4.2979374,3.1504716.4408022.0513662-4.8200788-3.4542115-7.2539492-6.1824595-3.9572787-2.8784762-8.0238435-5.9493108-7.2539492-6.1824595.815418.4476615,2.680061.4454003,4.4843622-2.1524495,2.7981406-1.3018999,6.356566-3.7308945,9.9940386-4.3984738,2.5179701-.6025402,7.4363523-2.8290779,9.9539006-4.5037598,3.1822812-1.1437885,4.9053145-3.1492623,4.5245003-2.0471635-1.2162289.5704564-4.9824644.5408514-9.8538341,0-4.2062092.0243382-8.6299709.3758296-9.8538341,0-.5348516-1.3354805,2.78713-6.0714961,2.4196218-13.4144391-.2268271-7.0420717,3.2505015-13.5420878,2.4196218-13.4144391.2612996-.4690603,6.9015605-.144409,13.7655424-1.2609196,6.5467214-1.3525804,13.978928-2.333043,13.7655424-1.2609196.5161624.2994747-.1435382-5.4832364,0-5.441691,1.2711375.6905672-2.4531187-.306032-5.0407081,0-3.0112934-.8702778-6.959224,2.1049518-11.0895578,0-6.0078452.4049879-9.2044465-.9922671-11.0630552.0223332-4.4591356.2243346-4.2318532.0092446-5.0672107-.0223332.0349198.8254103.1464145-10.7975274,0-11.1205918-.2374814,1.9460231-1.3804413-3.3041451-5.1751884-5.3947816-3.2765409-2.1528246-5.2013025-4.5521722-5.1751884-5.3947816,1.0730196-.5583981,1.333445-.7634583,2.7935142-3.949053,1.058467-3.5402228,2.9378634-5.0881873,5.9350073-8.4902245,2.352325-3.33163,5.0192073-5.6793018,6.0008585-8.5520032,1.669924-1.2465013,2.3462639-3.3011512,2.727663-3.8872742.9979249.5454101,10.1561358,6.429507,9.1071763,7.1144502-.1029054-.3403404-1.7322942,5.9442237-3.6291255,5.8961382-.4448918-.3708151,6.5232402-.8634917,13.6365416-1.7739011,6.5654401.2995964,13.7099113-2.1656506,13.6365416-1.7739011.9017898-.9657329.8726596,11.031597,0,11.2303883.7139007.2259173,4.4376233-5.1679581,8.5859498-9.8221856,4.2197466-4.8416001,9.7729987-9.2484112,8.5859498-9.8221856-.7133984.8485405,8.2176697,4.0423818,8.4811719,5.0004562-.584918-.2780892-5.258985,5.1915928-5.2648079,4.6485335-.2203784-.2403895,2.2787354.0403888,5.0564647-.4260824,2.8480927-.6056121,7.3665523-.64812,10.7454869-.9722878,4.2494803-.2528069,8.050389-1.0026975,11.1465152-1.1333487,2.9315161-.5989376,5.0083549-.7883503,4.6554364-.2650214.0366379.4374755,1.1935331,13.3373711,1.0772766,13.4541789ZM406.9354999,557.4547433c.1934412-.0127251-3.042397-.7525453-7.0466467,0-4.0711616.2358727-6.3669268,1.0471193-7.0466467,0-1.4668609-.3583272-1.8957332,7.6022905-1.9709102,6.8647449.9795204.4034838,3.2115222-.5272673,8.0321018-.4195213,4.6732735.07882,5.2470889.0666988,8.0321018-.4195213.1412075.5439504.2183177-5.9454529,0-6.0257023ZM387.6571185,527.6869547c5.4395769,1.0034728,10.4223983-.8134936,9.5113914-.4984709-.3893686,1.2336466-10.7792221-8.5958612-10.2717068-8.3805007-.0708971-.7212645,4.4524795-3.822695,4.2935382-3.8527131-.2805496-.4582696-8.4280264-.7926422-7.0680529-1.2834525.2901689-.2903462-1.8789272,3.3589918-2.9882807,7.256804-1.4799344,4.9206524-1.4590486,5.4390642-2.9882807,7.256804-.8262396.39335,3.4163409-.5924402,9.5113914-.4984709ZM440.8478968,540.2789517c-.9844013.6102239-4.8224488-.1467901-9.60587,0-5.4192013,1.0719392-9.719179-.665206-9.60587,0,.7950176-.1798474-.1737889,6.4489909-1.3983702,5.5815997.2133378.1493676,5.56289-.8880488,10.3050551-.698929,5.4079134-.1461736,10.4329101-.4912818,10.3050551-.698929.7086847-.3166241-.0110537-3.7771185,0-4.1837416ZM413.6237891,526.3260991c2.231467-1.0983845,6.4982364-1.0791827,10.4824786-.5493634,4.3562889-1.1261317,6.5337515-2.4508477,10.482479-.5493634,7.255179-.1199824,10.9513283-.9178995,11.2888228-.5916221.0705263-.3813508-11.4339762-6.0061483-10.9767147-5.7179705-.2213908.0070633,4.6420672-3.2340345,4.8457987-4.0723063.1354455.2792985-11.6875315.1018884-10.9786346,0,.3588047.3456031-5.3340793,10.8184717-4.9861171,11.118953-.2783017-.6722724-3.3243839-2.409776-5.8913244-4.6786457-2.6012771-1.9641018-5.8621906-5.3335025-5.8913244-4.6786457-.0538004-.2462009,1.6214681-.3407134,1.7616617-1.6518651.8355884.7784944-12.0970329-.6030723-11.8908066,0-.9734214.4254374,5.8361953,5.5995368,5.9454033,5.8356067.9120108-.4334411-5.8921764,6.4243165-5.4805419,6.1268444-.2136839-.3556839,4.0922007-.7991087,11.2888196-.591622ZM652.7122947,555.6930817c.104468-.281973-4.0271544,1.0931715-6.3431212,1.1170408-3.0608086.6547854-8.3742794,1.951557-13.4471505,2.30427-4.9984531.2628715-9.8276133,1.798291-13.6956946,2.5043677-4.1376205.4270759-6.6332646,1.2327948-6.0945771.9169432-.4033247-.1515639-.8279908,5.6129236-.5280376,10.5525071-.7914005,5.1622638-1.6092599,11.4952541-.5280376,10.5525071-.7593548-.9070384,2.2535895-1.5561922,5.9499847-2.2084171,4.2742832-2.3202209,7.6604995-4.2351006,12.767517-4.7952635,4.629493-2.6423822,8.6404876-1.7541602,12.8923504-4.6576932,3.2234899.238344,7.0984686-2.3170499,5.8251513-2.3459874-.1652954.1381838.6739338-4.0109543,1.6008076-6.9701373,1.1483967-3.0747927,1.3507165-6.8006411,1.6008076-6.9701373ZM643.7771876,512.9979819c.2249479-.3131412-7.32483-.9034436-12.4457813-2.3073671-6.416661-1.1633773-12.3407318-3.0292689-12.4457813-2.3073671.4413894-.0716227-1.0102912,3.549844-1.957749,8.1107621-1.0554698,2.9287885-1.5136523,8.8166249-1.957749,8.1107621-.5273803.1626089,6.8104049-1.6801941,13.634442-.2796638,6.7123085-.0569477,14.0967586-.1538294,13.634442-.2796638.4618855-.0024714.3060627-10.5538004,1.5381765-11.0474623ZM689.7071898,543.802275c-.1909054-.7155757.2230655-1.2243249,0-.8816502.3228893-.4268011.5189922-9.3883196.7767699-8.9115499-1.0437741-.5896602-4.5854469-.7333673-8.9148275-2.3598073-5.326343-1.0745401-8.4419956-1.8026437-8.9148275-2.3598073-.1616476-.8253649-.8591455,13.4382729-.2327032,13.1919781.2668198-.0694227-.0897011.9738533-1.5887116,4.3952915-1.0792589,2.1478841-3.4733176,5.9741121-3.2942663,9.8099494-1.692027,3.7558522-1.2366077,7.0257168-3.333372,9.8037391-.7727949,2.1770196-1.8267943,3.4730151-1.5496059,4.4015018.2690514-.7324169-1.4191588.8142946-3.3241282,2.7473505-2.5455813,1.888401-5.5303211,3.5322223-7.6478489,6.2792196-2.4539956,2.4982612-6.0175203,4.4442255-7.6951149,5.878728-2.0525683,1.6705249-3.8868578,3.0465702-3.2768623,3.147842.9328691-.2498767,3.5706205,3.7387747,6.0551999,6.6058216,4.0077039,3.9717143,5.6108438,6.8899419,6.0551999,6.6058216.2271956-.0517642,5.0178255-4.5797377,10.5104116-8.5704328,5.9112487-4.3604669,10.0188404-8.8622862,10.5104116-8.5704328-1.2783967-.5808195.5841145-6.0163996,2.8667459-10.9774567,2.2876713-4.8594666,2.0545657-10.8195565,2.8667459-10.9774567-.8645298.3383401,4.4846668,6.5274961,6.852147,11.396978,3.0583188,5.9332963,6.6752463,10.4734284,6.852147,11.396978-.0308376.1198893,5.7683693,3.2208205,10.4181292,8.1509115,5.354075,3.9582305,10.4501996,8.9081536,10.4181292,8.1509115.0429738.0271921,2.1668007-4.2366485,5.3838737-8.2907691,2.3262219-4.0395095,6.3668268-8.2194137,5.3838737-8.2907691.6862411-.1893624-2.0716381-.7749651-3.6203532-2.4620932-2.5898973-1.3356535-5.3784675-3.5631265-7.9864367-5.3689538-3.9489187-2.9652321-5.7479685-3.9540785-8.0231046-5.3823238-3.1953615-1.6483049-3.8466474-2.738977-3.5836853-2.4487232-.2752293-.9191297-.6109724-1.7743516-1.916041-4.1363043-.032418-2.7365086-2.6404296-5.6799977-4.065927-8.9190938-.9052612-3.8342267-3.2077571-5.9477191-4.237702-9.0732193-1.2381632-2.933174-2.3840024-3.3507877-1.744266-3.9821788ZM657.2270648,552.2795549c-1.6592583.3995008.2861014-1.9369066,1.4338194-3.9819742-.2627885-2.4831726,1.7346473-5.0718591,3.133391-9.2960386,1.0908447-3.981151,2.4399205-6.4849996,3.029767-9.365328,1.2391931-2.6595314.8157434-3.9052751,1.5374433-3.9126847-.3959781-.8594733,2.871897.5379484,5.7992404-.024135,3.0212303.9009351,8.1316974.0996752,12.4149586.0940382,4.2092804-.0415522,8.8794938-.0925962,12.5540578-.09872,3.402695.1597159,5.8325293.2320296,5.6601412.1686231,1.6157576.2059503-1.7199907,4.3581709-2.8667459,9.1595653-1.0212317,5.1296065-4.0891369,8.5406104-2.8667459,9.1595653-.2282377-.3096985,11.2140557,8.9227341,10.70824,8.6477104-.5778945.9960451.6823385-3.326754,1.8459794-5.1645386.7899659-3.4111324,2.2043103-6.5789205,3.934729-11.4606314,1.7587129-4.6499046,2.0129212-7.8727028,3.8536614-11.4233056,1.1160251-1.7976346,2.1587011-5.268319,1.927047-5.2018644-.0664914-.0272086-8.7943518-9.9364636-9.1245881-9.6583101.0848804.785186-3.4062752.4694368-6.4243465.5548443-1.3926395.6802504-4.2108935.3507571-6.4629106.7698078-2.7434163.4280556-5.4164927.9835883-7.4743256.7689087-2.457191.329653-5.8675004-.3535117-7.475841.6778-3.1047624-.7391477-4.3063809-.1116851-6.5871837.558018-3.0250659.0206712-5.2143893.3847755-6.298558.8577427.7689579-.2247912,1.9373505-3.6368687,2.4592592-7.376651.5834356-2.7605125,2.5847062-7.3540123,2.4592592-7.376651.7464965.0480032-13.3496108-2.9629591-13.6464254-2.457518-.0810425.1008479-2.1645041,4.1031479-5.0809299,11.9891932-.4725127,3.4899981-3.5467565,7.4992223-4.7180587,11.0371894-1.5861947,3.4861159-2.4279826,7.6019077-4.7179544,11.2284562-3.4350511,6.5522044-5.7944484,11.5197488-5.0809285,11.9891899-.3933501-.8514822,4.2450606,2.9447821,8.0372741,4.5688491,2.9098469,2.2489704,8.336008,3.926198,8.0372741,4.5688491ZM769.2740733,499.0189916c.3996952.1604337-.3875836,3.9878135.3832126,7.3669209.9779416,3.3163842.7334877,7.7046139.3832126,7.3669209.3375744.9520758,4.6818879-.1978267,8.1368797-.4232597,4.192845-.0258525,8.9412484-.3405616,8.1368797-.4232597.9036068-.0700774,1.5881266,2.0068349,3.3719745,3.7040259,1.4377216,2.5481066,3.9806004,4.4245266,6.898974,8.1765386,3.0940231,3.6110961,4.9097844,5.5816175,7.123645,8.3240683,2.0986809,2.7103084,3.453913,3.4580872,3.1473035,3.5564961,1.0007431.0280728-1.8280871.3815697-4.4392511-.0958368-2.2283471-.5780625-7.1087462.1903063-11.0981277-.2395921-2.7691751-.4891194-5.099604-.5012055-6.9870199-.1693738-3.4792252-.0328005-4.9465169.0325125-7.3907505-.1904461-2.8994236.0444397-4.5397307-.4542316-7.4294701-.2132638-1.5119727.6888318-4.2025485.2700205-7.0478928-.0498556-4.7043151-.3264064-7.7042868.7871966-11.1276952-.1555546-1.8849561-1.8241725-4.3036372-.2343419-4.4096793-.1798743,1.2558665.7340335,2.2044914-1.3232973,2.8618938-4.7770176,1.688763-2.4466497,4.5170571-6.715973,6.4956024-10.164178,2.6326676-3.6313101,3.4136815-7.8036468,6.4332786-10.2720719,1.8806328-3.5084722,3.7843448-4.8767603,2.9242176-4.6691236-.4293082.4636106-11.2288686-2.7332744-11.9543084-2.2214349-.6753278.4872302-4.157897,4.3223615-7.7358953,10.4293639-1.46973,2.8552784-4.5578829,5.6125581-7.193488,9.8805208-2.036142,3.5525053-4.227802,5.6109171-7.1731754,9.4882987-4.0069984,4.8284454-6.2475414,9.9508385-7.7358932,10.429361.8009786.2684848,2.78156,3.0653008,6.5255226,5.2472425,3.6736333,2.642372,6.4208761,5.4610241,6.5255226,5.2472425-.4484561.7165476,1.5558933-1.5520958,3.2934367-6.375935,3.0587475-2.413402,4.596942-7.2854444,3.2934367-6.375935-1.69442,1.6669737,2.0691537,12.7585283,1.8531247,12.7165343.4527254-.1110653,3.4195418-.9822044,8.2465227-.4289441,3.6231842-.9582045,7.2932523-.7864437,8.2465227-.4289441.5296664-.0524351-3.6449351,3.6020859-7.3656012,8.7106094-1.4176284,1.2132396-4.3860666,4.8274751-6.6188537,7.6356142-1.6451039,4.2869774-4.9079344,4.6733638-7.0601205,8.5412326-3.7201867,5.8097454-8.2600271,9.1503701-7.3655991,8.710607.2853953,1.0617034,4.0072016,4.5717374,6.9187726,7.8318664,3.5031952,3.4130916,7.4054917,7.5841044,6.9187726,7.8318664,1.2195513.4571772,1.0109122-1.8025083,2.5738484-3.8565618,1.7613415-2.7715052,3.4451271-5.9415746,5.7369123-9.1507877.8284787-1.5851383,2.4222542-3.2819023,3.5676424-5.6526539,1.032775-2.9078269,2.7723779-3.7944166,4.0388401-6.0963796,2.0654528-2.5061524,3.1177905-4.2384119,3.8056911-6.4344729,1.4853286-2.2800326,2.5655048-3.4081679,4.022097-5.973001,2.2063818-3.458754,5.0994553-6.1703927,6.1181284-9.278819,1.520742-2.1940535,1.2444643-3.7615997,2.19263-3.7285268.8941153-.263294,3.8307663-.8671803,9.0165327-.46894,4.2957597-.2872101,9.7986187-.8108516,9.0165327-.46894-.0773674-.6370429-.7418917,2.0230044-.406645,5.8094778.1011957,2.4560856-.9261239,7.7184453-.7752047,12.2019253-.180066,4.6416015-.0287885,9.0382491-.2458045,12.0583127.0193867,3.6474404.0459466,5.5549397-.9360452,5.9530904.6050251-.1823844-3.9391929-.1106904-8.7417852-1.0674953-3.8513854-.7042057-8.6323935-1.6506076-8.7417852-1.0674953-.2925147-.0976621,2.1658239,4.6946783,3.0592996,7.9447869.3891413,4.0110797,3.3887207,7.6346999,3.0592996,7.9447869-1.1198628-.8516484,4.9020063.5068452,9.5111295.0008706,4.0965787.6939482,8.87234,1.4161268,9.5111295.0008706-.2552577.0236778,2.0845692-3.7447562,4.0676973-7.9040741,1.9144897-2.9382279,4.4028025-7.7666055,4.0676973-7.9040741-.1596879.3269778-.0275981-4.8919828.3516799-11.4069989.2601416-2.7431942.4304606-6.150664.5118724-10.4617121-.5145186-3.5289041.2741944-6.5987293.1412474-10.7227154-.211975-6.826979,1.88613-12.7155562.3516798-11.4069957-1.445978-.887116,8.3517705,9.7386003,8.7505423,8.9130863-.7103766-.2131387,3.0494127-4.7067005,6.6083822-9.3337854,4.1002163-3.7926224,5.0276196-8.9074751,6.6083822-9.3337854,1.183061-1.8458842-4.2951523-2.4854816-8.7731704-7.4397662-1.6483148-2.2304688-3.4854919-4.6250723-8.0193238-6.8521039-2.6287051-2.1508905-6.0386477-4.4648039-8.2737077-6.9646054-4.9712279-5.1052822-9.9351581-7.1174734-8.773168-7.4397641.6741461-.6898967-1.350731-1.025742-4.841897-.5865911-2.4464483.1610518-7.5914801.1597197-10.6521735-1.2905004-4.3104535-.4782912-8.5289356-.5322202-10.657328-1.2120207-3.8608672-.4954182-5.2703434-.5222503-4.8367425-.6650708ZM896.883724,554.256508c.9095284.2954794-2.2740906-2.46985-1.2435078-7.0198633-.3358003-4.8107999-.3968356-6.1116107-1.2435078-7.0198633.8665286.296969,2.4807651-.0970858,6.4968303.2633869,1.9853274-.2480922,3.6918464.503569,6.7325819.308917,4.5603439-1.0963912,4.890432.1201141,7.7026621.3460647,2.7565161-.9253317,3.7995637-.4015503,7.6534062.0008925,2.6464477.0111563,4.4597779-.6550171,6.7373949.6304859,3.1199063,1.6287972,6.3793545-.8977348,6.5412732.2869902-.7383893-1.136208-1.0129596-4.0937246-2.151583-8.1509628-1.1692698-4.1341695-1.8955063-8.7179652-2.151583-8.1509628-.711054.4573245-2.0974419-.18059-6.0301865.4756551-3.0084486,1.1120275-9.1118225-.7545479-13.2664103,1.0464411-4.9214456,1.4247149-10.7595559.7837643-13.1295456,1.0530831-5.7500818.8642798-6.6657021-.3868426-6.1670511.469013.2952256.3689953,2.165791-12.8605075,2.1638736-13.6895451.1478413.3062087,3.6086952-.7146426,5.6119673-.5593162,4.0192207-1.0146366,8.2564688-1.8085007,12.23766-.8988173,4.3550709-.1726315,8.8147666-1.036207,12.2716187-1.0024668,4.0969098-.084314,6.20731-.6749473,5.5780085-.4556667-.41154-.6830291-3.9040258-3.6843556-7.5365833-10.0078259-4.1568399-5.2296909-8.1793791-10.6908431-7.5365833-10.0078259.0437712-.1485374-4.296072.5859358-11.6345687,2.3222471-3.7253894.5047677-6.8674583,1.4066385-11.9795083,2.4182937-4.9117155-.6307603-9.0004278,2.3918596-13.6165437,2.6906501-1.5801355.925981-3.9907007,1.144685-6.7941946,1.0024971-2.990443.6121067-5.24539.1376419-6.9523519,1.422647-3.5339686,1.1067333-8.3826724,2.6065882-11.8495041,2.6837995-7.4505831.7737108-10.6842702,1.3711672-11.6345684,2.3222471-.020934.1889744,2.3729548,9.3540311,3.219027,9.6870908-1.0970198.027121,2.3636247-1.4112701,5.410804-.5824242,2.5893449.1502261,6.5155759,1.0491481,11.6414153-.1164536,5.4681027.3292591,7.5722738-1.1117411,11.6098061-.7996209,2.7722548-.522418,3.5889698-.5226213,5.4424132.1007431-.5641381.0777901-.9994548,3.6282796-1.5927675,7.7557667-.8437864,4.0684254-1.2648346,7.5890832-1.5927675,7.7557667.2100679,1.0881343-.9918261.2694028-4.8881795-.0076378-3.3183494-1.7203164-6.6915427-.1307515-10.8768489-.4903901-4.5215791-.0812215-9.0581262-.0067919-10.8025824-.2123248-3.2127307.4119563-5.05021-.3413274-4.962446-.2857031-.0005963.1180136,1.7767235,5.0512268,3.0484941,8.5990598,2.3011425,4.6495537.6973079,7.3731775,3.0484941,8.5990598-.7797702-1.0171963,1.4980994.4753472,4.4262293-.9659608,2.3305384-1.0096049,6.3778029-1.6887725,9.7307195-1.6544597,5.2489087-.5624649,7.255023-1.6751624,9.8576657-1.8631212,3.2251849-1.7029705,3.417757-.5352585,4.2992831-.7572993-.3964457.0623497,4.1984465,12.0322677,3.9587201,12.8346271-1.6396857-.5307844-4.8244298-.071811-12.0720414.2912698-3.5565284-.1257325-6.6112845-.8150129-11.2413697.0447393-3.6359774.4318592-7.942749.3991038-11.1781368.4961903-6.8283904.2891751-11.9983104-.7289088-12.072038.2912697.4403633.9033164,2.6751739,2.7999593,2.8494878,8.5811872-.1634374,3.3710611,5.422177,8.6637132,2.8494878,8.5811872-.2352714.3130695,3.6945402.7995194,11.4562564-1.6615042,3.5788154,1.4288965,5.4414027-.6528493,10.1333948-1.2981874,3.3169014-.3531406,6.909835-1.1436174,11.1425109-1.7874634,7.0409917-.3314718,12.884582-1.3253795,11.4562532-1.6615038-.7750923.4587511-1.5234802,5.4029353-1.9292244,10.3129928-1.308755,5.781828-1.6551504,10.662989-1.9292244,10.3129928.2913165.7323046-6.2008238.501167-11.6315248-.0541301-4.3013924.3068083-11.1077009-.5291383-11.6315248-.0541301.0671565-.1790991,1.5087283,2.5936693,3.613967,7.7674429,1.7696214,2.8744204,3.3152302,7.7033372,3.613967,7.7674429.715292.353233,1.7427554-1.1282324,4.3622087-.4698766,1.7207903-.892879,6.8786506-1.1426714,10.0771693-1.1033794,4.1752978-1.1129056,7.5410556-.6047527,9.9270724-1.0816135,2.7633779-.2694392,5.1163652-1.6103991,4.5123056-.4916425-.1770045-.603713.9882916-3.7473749,1.8548659-8.2805268.3810874-3.996432,1.603806-8.2603012,1.8548659-8.2805268.3790038.4709579.0248396-4.8318698.9478662-8.1594126,1.2157072-4.6485081,1.9426102-8.3878746.9478662-8.1594126.1123792.4554061,2.986672.7658827,5.8117837.2297367,2.9866118.3033379,7.6736145.580402,12.3625731.7421987,4.5470099.8226496,9.0973187-.2112631,12.8835082.6259021,3.3222566,1.0180102,5.2026919,1.1603718,5.2908486.3460333.810054.5624618-.4972273-6.142453,1.4621792-8.763345.6698487-4.964087.9794881-9.1727591,1.4621792-8.763345,1.2086142-.1250341-5.5506334.4330789-11.1415413.8562042-2.9772334-.4878969-6.4872714,1.7851755-10.1522512,1.1009402-3.572895.9136938-7.5221875.7064354-10.5391806.4891531-6.759356.2458977-11.38539,1.4493704-11.1415344.8562036Z" fill="#fff"/>
        <path d="M608.7245244,489.0026135c.1004762-1.0817832.4120445-1.9705005.9376752-2.6582655.5254258-.6894038.7648889-1.19455.7212571-1.5177944-.0328775-.24356-.1304859-.3544832-.2912887-.3327697-.2420236.0326727-.5859574.3882825-1.0301624,1.0667271-.4444099.6768058-.9783368,1.449991-1.6022927,2.3162778-.6236487.8680281-1.2796628,1.6560644-1.9659939,2.3654405-.6878674.7113221-1.3145888,1.1033943-1.8797545,1.1796988,2.7050725-4.9770015,4.5427314-8.5999816,5.5124647-10.8739591.9699381-2.2723387,1.4130165-3.7310356,1.3253431-4.3806995-.043427-.3215033-.2293233-.4618217-.550929-.4183946.3981151-.713473.6974951-1.5343868.9019298-2.4698087.2014644-.9333734.4506576-1.8318209.7474771-2.6954448l.5254258-.6893013-.24356.0328775-1.4695536,1.9279953c-.3166894.7041526-.5498023,1.4152698-.6992363,2.1332494-.1507655.7214619-.3448555,1.4272532-.5791975,2.1170667-.5947657.493675-1.233368,1.0924351-1.9194943,1.8034499-.6878674.7113221-1.3096725,1.433501-1.8687953,2.1671511.0735391-.6680999.0727198-1.2864227-.0037896-1.8532271-.0871613-.6463864-.2529828-1.2622511-.4957234-1.8480036-.2458133-.5836016-.447585-.8655699-.6082854-.8438564-.1640803.0221232-.5439643.7116294-1.1412905,2.0688258-.600413,1.3593473-1.2671673,2.82675-2.0011248,4.4090705-.7340598,1.5823204-1.4395439,3.0566879-2.1197297,4.4250483-.6799809,1.3699992-1.2240476,2.0800923-1.6268741,2.1344784-.1639779.0221232-.2543143-.0467045-.2762326-.2091461-.0436319-.323142.0461924-.8711007.2725454-1.644081l1.4694512-1.9279953.9184198-2.3480287.8402717-1.1006289-2.0277545,2.3737367-1.2330608,2.7608926c.2626105-1.1052379.5988625-2.5711042,1.0119312-4.3995452.4118396-1.8249586.841808-3.6754203,1.2901099-5.5483125.4469704-1.8710486.8399644-3.5297759,1.1819521-4.9781281.3391199-1.4447674.5687504-2.3405519.6873553-2.687251l1.0494178-1.3768615c.4093815-.6307158.5638342-1.3114137.4655089-2.0405573l-1.4695536,1.9279953c.0655502.4855836-.0313412.9930856-.2873967,1.5219938l-.0490602-.3637012c-.3247808.0438367-.8642384.7763602-1.6203191,2.1947027-.7556709,1.4215176-1.6102817,3.1640263-2.5670074,5.2278334-.9581596,2.0657532-1.9713199,4.32406-3.0398906,6.7717455-1.0712337,2.4530115-2.0227358,4.7030221-2.857784,6.7487006-.8363796,2.0492632-1.811951,4.4265846-2.9306061,7.1289941l-.0161827-.1201412,15.2209617-40.1086322-.12178.0163876c-.1624416.0219183-.6318425.8079062-1.4120947,2.3535595-.7800474,1.5471896-1.7552091,3.6333248-2.9233342,6.2631169-1.1699687,2.6283583-2.4921367,5.6477644-3.9664017,9.0596524-1.4759038,3.4121953-2.990011,6.9948211-4.542629,10.7447023-.2796126.3667739-.8105692,1.4686318-1.591436,3.3037302-.7841443,1.8355081-1.6089502,3.798839-2.4787194,5.8939874-.9902177,2.4404135-2.0625781,5.1795926-3.2152374,8.2174348l-.0163876-.12178.176371-.5182563c-.0217135-.1608028.1656167-.9054122.5629124-2.2373103.3959642-1.3299521.8745831-2.9787446,1.4319646-4.950679,1.4231563-3.4844029,2.8179417-6.8855366,4.1827174-10.2016599,1.363649-3.3126409,2.5894378-6.2991696,3.6724501-8.9587666,1.0818856-2.6562171,1.9342431-4.8928105,2.554307-6.7061953.6201664-1.8133849.9022371-2.9212857.8474412-3.3272873l-.01649-.1218824c-.3512057.4608999-.7158287.7977664-1.098478,1.0131603-.3838784.2187738-.5402771.5673165-.4747269,1.0529001-.3544832,1.0367174-.931325,2.4110184-1.7301156,4.1260779-.7988931,1.7135232-1.3351757,3.0822934-1.6069017,4.1078468l-2.4348827,5.7656524c.1673579-.5980432.2327032-1.0203299.1998257-1.2638898-.0811184.0109592-.2894451.4525012-.6236487,1.3210414-.3374811.8690523-.9007007,2.3440343-1.6893516,4.4282234-.0107543-.079582.1616222-.6403435.5163103-1.6754222.3545856-1.0367174.7995076-2.3104398,1.3358926-3.8248543.538331-1.5128782,1.1184503-3.157164,1.7438402-4.931526.6257996-1.7711869,1.2075576-3.4155752,1.7439426-4.9299897.538331-1.5128782.9858136-2.7672427,1.3456227-3.7649373.3602188-.9945195.5340293-1.532236.5228653-1.6149931l.9037734-2.4684772c.3529469-1.0365126.5145691-1.6767537.4818964-1.9187773-.0107543-.079582-.0639114-.1550672-.1544527-.2255337-.4855836.0655502-.9353194.7033332-1.3476712,1.9116078-2.4664288,6.7570992-5.2317255,14.3383897-8.298041,22.7407989-3.0660083,8.4039456-6.3805952,17.4169959-9.9418148,27.0403801l-3.8045747,8.4210501c.8638288-2.7524939,1.7302181-5.4854253,2.5995776-8.1972576.8692571-2.7117299,1.8154333-5.4538792,2.84324-8.2283939.234342-.6898135.422594-1.2922608.5600445-1.8052935.1342755-.5125206.1929634-.8494896.1710451-1.0119312-.0107543-.079582-.0570492-.1162492-.1366312-.1055973.9545748-2.6802863,1.7496783-4.8876894,2.380599-6.6214922.6310231-1.7321641,1.2363383-3.3368125,1.8202472-4.8178374.5827823-1.4776449,1.1598289-2.9974878,1.7329835-4.5580947.5701843-1.5585585,1.2745417-3.5073455,2.1133795-5.8446199.3544832-1.0367174.5108819-1.7159814.46725-2.0391234-.0109592-.0812208-.0585855-.1161468-.1381675-.1053924-.1624416.0219183-.4278175.3471088-.7948986.972089-.3700514.6270286-.7067131,1.3306691-1.0129555,2.1127649l-7.4740545,21.5183901-10.8402622,31.3618796c-.0716955.0940236-.0996568.1804679-.0890049.2600499-2.8189659,5.9828898-5.0334361,10.624049-6.6459711,13.930647s-2.8528677,5.7195624-3.7182328,7.2353084c-2.0255012-5.2430944-3.9585152-9.8008818-5.7987347-13.6717237-1.8403219-3.8707394-3.6881207-7.4908517-5.5426793-10.866892-1.8574264-3.3724555-3.790338-6.7164376-5.8013977-10.0267228-2.0129033-3.3117191-4.243761-7.0256502-6.6928805-11.1433295-.5148764-.7523934-1.7779468-1.5708491-3.7904404-2.4534212-2.0154639-.880626-4.2255299-1.6951897-6.6314271-2.4420523-2.4071263-.7433803-4.711728-1.3401944-6.9114494-1.7841946-2.2032037-.4451268-3.7090148-.6122799-4.5162041-.5034051-1.7798928.24018-3.2265038.8058578-4.3429057,1.6989793-.0812208.0109592-.16787-.0186408-.2584112-.0891073-.2310645.1137911-.6504833.8285955-1.2549791,2.1454376-.6060321,1.3169445-1.27024,2.9510906-1.9940576,4.9024381-.7254564,1.9516548-1.4865557,4.0932004-2.2847318,6.4250464-.7965374,2.3316412-1.5465751,4.5544075-2.2506252,6.6652265-.7033332,2.1156328-1.3181736,3.9679381-1.8439067,5.5618322-.5253234,1.5971716-.8773485,2.6518129-1.0554607,3.1702741-3.0223764,8.72719-5.5248578,15.8181855-7.506932,21.2747277-1.9805379,5.4563374-3.6264625,9.9001289-4.9344963,13.330965-1.3080338,3.4308361-2.3527401,6.227474-3.1289979,8.390938-.7794329,2.163976-1.4483522,4.3757832-2.0083967,6.6341925-.5600445,2.2583069-1.13535,4.8692534-1.7229461,7.830791-.5889276,2.9633812-1.3633418,6.9787408-2.3274419,12.051507-.6139186,3.3784984-.7978689,5.9977411-.5469345,7.8573183.2402825,1.7798928.7259685,2.928148,1.4542927,3.4482479.729963.5199975,1.5388934.7183892,2.4288398.598248.4060016-.0547959.6833609-.1318174.8331021-.2347517-.9946219,1.7828631-1.3948878,3.3995973-1.1982372,4.8563482.2292209,1.698672.8842108,2.8885106,1.9643552,3.5645995,1.0786081.6779325,2.4292495.9074606,4.0467007.6891989.4840473-.0653454.9614371-.1910174,1.4306332-.3783476.4690936-.1873302.8826744-.467967,1.2448393-.847646-.5169248,1.0586358-.9505803,1.9622043-1.3028103,2.7091694-.3508984.7452239-.4194189,1.9285074-.2009523,3.5476998.0984277.7291436.4723711,1.0491105,1.1187576.9618468.8070869-.1088748,1.6037267-.7736972,2.3885879-1.9907801.7816862-1.2167756,1.5503647-2.7012829,2.3016315-4.4496296.7529055-1.7485516,1.491984-3.5995255,2.2176453-5.5494391.72392-1.95145,1.479591-3.6789027,2.2649643-5.1871718,2.2929256-5.5794488,4.7195121-11.7127969,7.2760724-18.4027071,2.2024868-5.6499153,4.7376408-12.1915182,7.6079203-19.6198924,2.8667971-7.4296033,5.8474877-15.2649008,8.9352095-23.508146.1547599-.6789567.366569-1.2416642.6366563-1.6915025,1.593382,4.4795369,3.4615628,9.1700636,5.6044398,14.0699411,2.1445158,4.8995703,4.6609266,9.8102022,7.5494372,14.7334321,2.8868719,4.9234347,6.1714491,9.7304154,9.8525026,14.4243219,3.6808487,4.6922678,7.9013599,9.1067666,12.6592803,13.240219.8386329.7120391,1.9843275.96748,3.4410783.7709318,1.2926705-.1745274,2.69186-.6509954,4.1922427-1.4306332,1.5006899-.777999,2.9893965-1.6568838,4.4624324-2.6394198,1.4733432-.9809997,2.8835944-1.9750071,4.2312655-2.9803833,1.3475688-1.0053762,2.4732911-1.8170721,3.3772693-2.4334488.6045982-.4090742,1.0198178-.8370966,1.2494483-1.2798677.2279918-.4425663.3943254-.876734.5037123-1.30322.1062118-.4260763.1607004-.7824031.1627489-1.0736918.0024581-.2880112.0733343-.5224556.2135503-.7084543,1.1919895-3.3721482,2.1948051-6.3070561,3.0133633-8.8069769.8138467-2.4976675,1.5066304-4.6912436,2.0766099-6.5821621.4779019-.7225886.9524239-1.6300492,1.4232588-2.7237133.4708348-1.0937666,1.0406095-2.5084219,1.7120893-4.2477555.6607256-1.8188133,1.7713918-4.7268865,3.331589-8.7274973,1.5622457-3.9976405,3.2907226-8.5766294,5.1892203-13.7340988,1.8987026-5.1559331,3.8439048-10.5677168,5.8409327-16.2329954,1.99416-5.661489,3.7838854-11.0127412,5.3703027-16.0437192,1.5863149-5.0327192,2.8558379-9.5084665,3.8105152-13.4257056.9545748-3.9172391,1.3218608-6.6853012,1.1033943-8.3044936-.1308956-.9695285-.0948429-1.7565406.1128693-2.3616509.2062783-.6033691.5388431-1.3493099.9964655-2.2346474l.4527061-.3091102,1.4695536-1.9279953-1.0110094.754954-1.8717655,2.5990655ZM591.5677833,499.6587206c-.2820707.6548875-.5820653,1.3352781-.8992668,2.0362556l-.9511949,2.1044687c.300097-1.4395439.5819629-2.5490835.8475436-3.3257509.2653759-.7783062.5435546-1.4739577.8308488-2.0898224.2874991-.6142259.5216362-.8525623.7058937-.7120391-.0748706.6698411-.2519586,1.3304643-.5338245,1.9868881ZM596.4844581,490.7784095c-.1702257,1.1772407-.2556458,2.3826474-.2526755,3.6174493l-1.4694512,1.9279953c-.0137246-1.314384.0828596-2.5842143.2897524-3.8076474.2057662-1.2200531.3464943-2.4560841.4263836-3.7021525l1.3968338-1.5477017c-.0890049,1.1661791-.220515,2.3365574-.3908431,3.5120569ZM599.8261869,503.1776398c-.2872942.6158646-.5773539,1.2106303-.8720225,1.7845018-.2925178.5769442-.571311,1.1090275-.8346384,1.5959426-.2631226.4886563-.4306853.7791256-.4993082.8711007l.6982121-3.0608872c.3014285-.2043323.662057-.5837041,1.0822953-1.1331991l1.1548102-1.5151315c-.1983918.3558147-.4418493.8434467-.7293484,1.4576726ZM601.3919149,498.7645749c-.140216.1858963-.2036153.3167918-.192861.3963739-.1403184.1859987-.2627129.3446507-.3681054.4829206-.1037537.1380651-.2385413.2174423-.3993441.2391558l1.0494178-1.3768615-.0891073.2584112ZM603.6163201,497.8475891c-.0264249.4169607-.2430479.6495615-.6458743.7039477-.1639779.0221232-.3690272.0100374-.6235463-.0382035-.252778-.0470118-.461412-.0617606-.6222148-.0400471l.9438205-1.2403327c.2126285-.8505139.4546521-1.6670236.7202328-2.443691.2656832-.776565.4657137-1.5858028.598248-2.4288398l-.3706659,5.4871664ZM597.0903878,464.1330718l-.2457108-1.8205544,4.739382-10.6471964-3.02422,10.5397555-1.4694512,1.9279953ZM602.9475032,474.5855636l.147488,1.0929472-1.4694512,1.9279953-.147488-1.0930496,1.4694512-1.9278929ZM606.5195795,471.7569699l-.2457108-1.8205544,4.7410208-10.6474012-3.0258588,10.5399604-1.4694512,1.9279953Z" fill="#ccc"/>
      </g>
    </g>
  </g>
</svg>