<?xml version="1.0" encoding="UTF-8"?>
<svg xmlns="http://www.w3.org/2000/svg" version="1.1" viewBox="0 0 1080 1080">
  <!-- Generator: Adobe Illustrator 28.7.3, SVG Export Plug-In . SVG Version: 1.2.0 Build 164)  -->
  <g>
    <g id="netzero">
      <path d="M172.7583008,517.5836182h-32.7583008v-9.5708008h32.7583008v9.5708008ZM172.7583008,538.2071533v-9.5708008h-29.4140625v9.5708008h29.4140625ZM140,577.7000732l6.7675781,6.7675781,29.3266602-29.326416-6.7675781-6.7675781-29.3266602,29.326416ZM257.9985352,541.6629639h8.7749023v9.5708008h-8.7749023v15.3347168h-30.1850586v17.5029297h-9.5708008l-9.5708008-9.5708008h9.5708008v-7.9321289h-30.1850586v-9.5708008h30.1850586v-5.763916h-38.9604492v-9.5708008h38.9604492v-4.182373h-30.1850586v-9.5708008h55.2246094v-13.2355957h-15.46875v10.0839844h-9.5708008v-10.0839844h-15.4692383v10.0839844h-9.5708008v-10.0839844h-5.1450195v-9.5708008h60.3701172l9.5708008-9.5710449v19.1418457h-5.1455078v13.2355957h5.1455078v13.7531738ZM248.4277344,551.2337646h-20.6142578v5.763916h20.6142578v-5.763916ZM248.4277344,537.4805908h-20.6142578v4.182373h20.6142578v-4.182373ZM363.7080078,568.8880615h22.0092773v15.1833496h9.5708008v-15.1833496h45.2880859v5.2160645h-9.5708008l9.5708008,9.5710449h9.5708008v-24.3581543h-86.4389648v9.5710449ZM392.6337891,524.5748291h-28.2485352v9.5708008h28.2485352v-9.5708008ZM449.4697266,534.1456299v-9.5708008h-28.2485352v9.5708008h28.2485352ZM446.25,545.9903564l24.0644531,9.659668-3.5654297,8.8820801-34.2939453-13.7663574v6.5214844h-51.0551758v-6.5212402l-34.2939453,13.7661133-3.5654297-8.8820801,24.0649414-9.659668h-3.2202148v-9.5708008h27.0625l10.6943359-4.2929688v-10.1650391h-47.2651367v11.565918h-9.5708008v-21.1367188h56.8359375v-2.6130371h-44.7329102v-9.5710449h99.0366211v9.5710449h-44.7329102v2.6130371h56.8359375v21.1367188h-9.5708008v-11.565918h-47.2651367v10.1650391l10.6943359,4.2929688h27.0625v9.5708008h-3.2197266ZM424.8579102,547.7164307l-17.9301758-7.1977539-17.9306641,7.1977539h35.8608398ZM649.8789062,544.5301514h16.2280273v-9.5708008h-16.2280273v9.5708008ZM626.0180664,544.5301514h12.9824219v-9.5708008h-12.9824219v9.5708008ZM606.9604492,544.5301514h10.3544922v-9.5708008h-10.3544922v9.5708008ZM591.7373047,544.5301514h8.2817383v-9.5708008h-8.2817383v9.5708008ZM579.5981445,544.5301514h6.5874023v-9.5708008h-6.5874023v9.5708008ZM569.9150391,544.5301514h5.2666016v-9.5708008h-5.2666016v9.5708008ZM562.1757812,544.5301514h4.2089844v-9.5708008h-4.2089844v9.5708008ZM555.9868164,544.5301514h3.3676758v-9.5708008h-3.3676758v9.5708008ZM551.0375977,544.5301514h2.6918945v-9.5708008h-2.6918945v9.5708008ZM547.0810547,544.5301514h2.1523438v-9.5708008h-2.1523438v9.5708008ZM746.15625,544.5301514h55.9467773v-9.5708008h-55.9467773v-12.1108398h42.2275391v-9.5708008h-42.2275391v-13.355957h-9.5708008v13.355957h-42.2275391v9.5708008h42.2275391v12.1108398h-55.9472656v9.5708008h55.9472656v.1242676l-58.6015625,23.5234375,3.5654297,8.8820801,55.0361328-22.0922852v29.1037598h9.5708008v-29.1037598l55.0361328,22.0922852,3.5654297-8.8820801-58.6015625-23.5234375v-.1242676ZM881.3984375,544.6544189v-23.0625h51.0791016v-9.5708008h-51.0791016v-12.0993652h-9.5708008v12.0993652h-51.0786133v9.5708008h51.0786133v23.0625l-58.6010742,23.5234375,3.5649414,8.8820801,55.0361328-22.0922852v29.1037598h9.5708008v-29.1037598l55.0361328,22.0922852,3.5654297-8.8820801-58.6015625-23.5234375ZM841.7944336,527.9534912v5.5966797l-15.2358398,6.1162109,3.5649414,8.8818359,16.0405273-6.4389648,8.5952148,3.4504395,3.5654297-8.8820801-6.9594727-2.7937012v-5.9304199h-9.5708008ZM901.8613281,527.9534912v5.9304199l-6.9599609,2.7937012,3.5654297,8.8820801,8.5952148-3.4504395,16.0405273,6.4389648,3.5654297-8.8818359-15.2363281-6.1162109v-5.5966797h-9.5703125Z" fill="#fff"/>
    </g>
  </g>
</svg>