<?xml version="1.0" encoding="UTF-8"?>
<svg xmlns="http://www.w3.org/2000/svg" version="1.1" viewBox="0 0 1080 1080">
  <!-- Generator: Adobe Illustrator 28.7.3, SVG Export Plug-In . SVG Version: 1.2.0 Build 164)  -->
  <g>
    <g id="whats_on_you_mind">
      <g>
        <path d="M330.4566728,744.6880192l-.0565241-.050946c-2.1512613-1.9370184-5.4655425-1.7633091-7.4026074.3879522l-31.6188931,35.1163661-5.2831408,5.8675327-5.2760753-5.859677-31.6259586-35.1242219c-1.9370649-2.1512613-5.2511601-2.3249706-7.4026074-.3879522l-.0565241.050946c-2.1512613,1.9370184-2.3249241,5.2512531-.3880451,7.4025609l37.644656,41.8086575,1.8284792,2.0305899,5.2760753,5.8597235,5.2831408-5.8675327,1.8214136-2.0227806,37.644656-41.8086575c1.9368789-2.1513078,1.7632162-5.4655425-.3880451-7.4025609Z" fill="#fff" opacity=".6"/>
        <path d="M611.4066138,577.7748233h-31.254694c-2.9158702,0-5.2796081,2.3637379-5.2796081,5.2796081s2.3637379,5.2796545,5.2796081,5.2796545h31.254694c11.2523797,0,20.3745086,9.122036,20.3745086,20.3746016,0,11.2526121-9.1221289,20.3746481-20.3745086,20.3746481v.001348c-.7186366-.0004648-1.4486151.1426117-2.1475426.453773-2.6638825,1.1859827-3.8616721,4.3068456-2.6757823,6.9705887.8748215,1.964955,2.8027756,3.1283467,4.823325,3.1296018.0236137.0000465.0470414.0023707.070841.0020918.0232418-.0000465.0461117-.0015804.0693535-.0017199,17.0193219-.0759542,30.7935302-13.8930669,30.7935302-30.9303314,0-17.0843059-13.8495117-30.9338642-30.9337247-30.9338642Z" fill="#fff" opacity=".6"/>
        <rect x="445.0713982" y="409.0733623" width="10.5592505" height="52.7962519" rx="5.2796201" ry="5.2796201" transform="translate(900.7020521 870.9429711) rotate(180)" fill="#fff" opacity=".6"/>
        <rect x="404.2694856" y="393.4498227" width="10.5592503" height="132.5089191" rx="5.241575" ry="5.241575" transform="translate(1021.5056196 527.2892849) rotate(137.999999)" fill="#fff" opacity=".6"/>
        <circle cx="387.5725152" cy="505.0192208" r="5.2796252" fill="#fff" opacity=".6"/>
        <circle cx="407.1669272" cy="505.0192208" r="5.2796252" fill="#fff" opacity=".6"/>
        <circle cx="387.5725152" cy="483.90072" r="5.2796252" fill="#fff" opacity=".6"/>
        <circle cx="368.7401475" cy="505.0192208" r="5.2796252" fill="#fff" opacity=".6"/>
        <circle cx="368.7401475" cy="505.0192208" r="5.2796252" fill="#fff" opacity=".6"/>
        <circle cx="368.7401475" cy="483.90072" r="5.2796252" fill="#fff" opacity=".6"/>
        <circle cx="368.7401475" cy="483.90072" r="5.2796252" fill="#fff" opacity=".6"/>
        <circle cx="368.7401475" cy="462.7822192" r="5.2796252" fill="#fff" opacity=".6"/>
        <circle cx="368.7401475" cy="462.7822192" r="5.2796252" fill="#fff" opacity=".6"/>
        <path d="M286.4950702,502.8874275c-18.4488505,0-33.6801032-13.7770317-35.9664895-31.6041533-.340325-2.6535389-2.5639932-4.658824-5.2392669-4.658824h-.0000106c-3.162107,0-5.6425776,2.7652013-5.2479385,5.9025857,2.9022309,23.0727645,22.5937734,40.9196077,46.4537055,40.9196077s43.5514756-17.8468441,46.4537057-40.9196095c.3946388-3.1373834-2.0858309-5.9025839-5.247937-5.9025839h-.0000106c-2.6752754,0-4.8989441,2.0052881-5.2392662,4.658829-2.2863646,17.8271192-17.517472,31.6041483-35.966492,31.6041483Z" fill="#fff" opacity=".6"/>
        <path d="M286.4950702,409.2430218c-23.8599287,0-43.551469,17.8468382-46.453703,40.9195617-.3946401,3.1373838,2.0858307,5.902585,5.2479372,5.902585h.0000106c2.675275,0,4.8989436-2.0052861,5.23927-4.6588261,2.2863894-17.8270796,17.5176392-31.6041045,35.9664852-31.6041045,18.449017,0,33.6801223,13.7770245,35.9664909,31.6041031.3403233,2.6535403,2.5639912,4.6588277,5.2392661,4.6588277h.0000106c3.1621064,0,5.642577-2.7652012,5.2479368-5.9025849-2.902235-23.0727236-22.5937754-40.919562-46.4537044-40.919562Z" fill="#fff" opacity=".6"/>
        <rect x="410.6652665" y="243.9051281" width="10.5592504" height="100.4531921" rx="5.2796199" ry="5.2796199" fill="#fff" opacity=".6"/>
        <rect x="481.2761257" y="243.9051281" width="10.5592504" height="100.4531921" rx="5.2796199" ry="5.2796199" fill="#fff" opacity=".6"/>
        <rect x="424.8521953" y="275.0142311" width="10.5592504" height="38.9331079" rx="5.27962" ry="5.27962" transform="translate(724.6126045 -135.6510361) rotate(89.9999999)" fill="#fff" opacity=".6"/>
        <rect x="683.2589863" y="231.1158728" width="10.5592502" height="35.3054303" rx="5.2796198" ry="5.2796198" transform="translate(937.307203 -439.7700221) rotate(90.0000003)" fill="#fff"/>
        <rect x="637.394309" y="231.1158729" width="10.5592504" height="35.3054301" rx="5.2796199" ry="5.2796199" transform="translate(891.4425115 -393.9053504) rotate(89.999999)" fill="#fff"/>
        <rect x="660.3266482" y="264.607442" width="10.5592504" height="79.7508787" rx="5.2796199" ry="5.2796199" fill="#fff"/>
        <path d="M792.250516,287.9806655c1.6796756,1.6252008,3.5789989,3.0581825,5.6626426,4.2516181,2.9257953,1.6757894,6.688597.3256604,7.6802261-2.7271717l.0000031-.0000095c.7108764-2.188506-.254104-4.5919624-2.3519815-5.7925915-6.4948978-3.717073-10.1242171-11.1604914-8.0955689-18.6079314,2.1416471-7.862274,10.2935287-13.0154986,18.8510672-11.9458099,6.1741011.77176,11.1671686,4.4474848,13.7122342,9.3264233,1.0938949,2.097017,3.5265806,3.2561971,5.9141288,2.7780419l.0000103-.0000021c3.3481312-.6705316,5.0441721-4.1469477,3.5065749-7.0860222-3.9238005-7.5002361-11.4583837-13.2216382-20.8094538-14.7558553-14.4057682-2.3635344-28.33671,6.3214697-31.5696131,19.7254907-2.2422625,9.2967013.9662259,18.5120564,7.49973,24.8338196Z" fill="#fff" opacity=".6"/>
        <path d="M828.3095595,294.3355458c-1.9328534-1.3915628-4.0493-2.5427892-6.3063845-3.4106821-3.169302-1.2186582-6.6458123.8715428-7.1007195,4.2364592l-.0000014.0000105c-.3261097,2.4122098,1.0357006,4.7451715,3.3079985,5.6179634,7.0347608,2.7020589,11.8835877,9.810939,11.1586426,17.9487057-.7653477,8.5913005-7.9157339,15.4446041-16.5301344,15.878546-7.7018606.3879736-14.379635-4.2056043-17.1039973-10.8404184-.3336456-.812602-.6084315-1.6555915-.8185717-2.5237766-.5807346-2.3992788-2.6785557-4.1200789-5.1471163-4.1200789h-.0000106c-3.424393,0-5.9301572,3.2078881-5.13274,6.5381423.338924,1.4154487.7850012,2.7893346,1.3285141,4.1129254,4.228792,10.2991879,14.4000792,17.5302593,26.2502913,17.4139315,14.5976177-.1432978,26.8376985-11.72812,27.7304762-26.2991161.6191981-10.1059118-4.1178701-19.139835-11.636247-24.552612Z" fill="#fff" opacity=".6"/>
        <rect x="583.4334304" y="238.1259364" width="10.5592501" height="110.6977683" rx="5.2796217" ry="5.2796217" transform="translate(-68.4700312 264.8230734) rotate(-23.9999712)" fill="#fff" opacity=".6"/>
        <path d="M570.4572394,242.9111034c-2.6637896-1.1859827-5.784606.0119928-6.9705887,2.6757359l-40.7300054,91.4810862c-1.1859827,2.6637896.0119928,5.784606,2.6757823,6.9705887,2.6637431,1.1859827,5.784606-.0119928,6.9705887-2.6757359l3.6030373-8.092517h24.8451625c2.9158702,0,5.2796081-2.3637844,5.2796081-5.2796545,0-2.9158237-2.3637379-5.2796081-5.2796081-5.2796081h-20.1439034l32.425709-72.8293066c1.1859827-2.6637896-.0119928-5.784606-2.6757823-6.9705887Z" fill="#fff" opacity=".6"/>
        <circle cx="581.9697106" cy="327.9906313" r="5.2796252" fill="#fff" opacity=".6"/>
        <circle cx="581.9697106" cy="327.9906313" r="5.2796252" fill="#fff" opacity=".6"/>
        <circle cx="465.4372501" cy="294.480785" r="5.2796252" fill="#fff" opacity=".6"/>
        <circle cx="465.4372501" cy="294.480785" r="5.2796252" fill="#fff" opacity=".6"/>
        <circle cx="741.9344494" cy="261.6429973" r="5.2796252" fill="#fff" opacity=".6"/>
        <circle cx="741.9344494" cy="261.6429973" r="5.2796252" fill="#fff" opacity=".6"/>
        <circle cx="820.1356637" cy="295.8539411" r="5.2796252" fill="#fff" opacity=".6"/>
        <circle cx="789.7672782" cy="322.403989" r="5.2796252" fill="#fff" opacity=".6"/>
        <circle cx="745.1153046" cy="243.905128" r="8.4604804" fill="#fff" opacity=".6"/>
        <rect x="287.9136381" y="300.3364309" width="10.5592499" height="46.3118452" rx="5.2796101" ry="5.2796101" transform="translate(429.4617315 738.2700009) rotate(-155.9999017)" fill="#fff" opacity=".6"/>
        <rect x="349.4749662" y="239.7021916" width="10.5592503" height="109.6855565" rx="5.2574632" ry="5.2574632" transform="translate(559.0368081 707.9168791) rotate(-156.0000005)" fill="#fff" opacity=".6"/>
        <rect x="260.1675534" y="239.7021916" width="10.5592503" height="109.6855565" rx="5.2574632" ry="5.2574632" transform="translate(-96.8531166 133.4318418) rotate(-23.9999995)" fill="#fff" opacity=".6"/>
        <circle cx="326.233798" cy="249.2821037" r="5.2796252" fill="#fff" opacity=".6"/>
        <circle cx="326.233798" cy="249.2821037" r="5.2796252" fill="#fff" opacity=".6"/>
        <circle cx="374.9069173" cy="249.2552241" r="5.2796252" fill="#fff" opacity=".6"/>
        <circle cx="317.6439167" cy="268.5752928" r="5.2796252" fill="#fff" opacity=".6"/>
        <circle cx="309.0540355" cy="287.8684819" r="5.2796252" fill="#fff" opacity=".6"/>
        <circle cx="486.5557509" cy="249.1848842" r="5.2796252" fill="#fff" opacity=".6"/>
        <circle cx="415.9448917" cy="339.2165206" r="5.2796252" fill="#fff" opacity=".6"/>
        <circle cx="327.7103845" cy="450.7854125" r="5.2796252" fill="#fff" opacity=".6"/>
        <circle cx="368.7401475" cy="414.3813385" r="5.2796252" fill="#fff" opacity=".6"/>
        <circle cx="450.3510234" cy="414.3813385" r="5.2796252" fill="#fff" opacity=".6"/>
        <circle cx="245.2797562" cy="471.9042064" r="5.2796252" fill="#fff" opacity=".6"/>
        <rect x="445.928122" y="791.7339016" width="10.5592502" height="52.7962521" rx="5.27962" ry="5.27962" fill="#fff" opacity=".6"/>
        <rect x="486.7300345" y="727.6447741" width="10.5592503" height="132.5089191" rx="5.241575" ry="5.241575" transform="translate(-404.8470535 533.1358649) rotate(-42.0000011)" fill="#fff" opacity=".6"/>
        <circle cx="513.9862553" cy="748.5842951" r="5.2796252" fill="#fff" opacity=".6"/>
        <circle cx="494.3918432" cy="748.5842951" r="5.2796252" fill="#fff" opacity=".6"/>
        <circle cx="532.8115799" cy="839.2143552" r="5.2796252" fill="#fff" opacity=".6"/>
        <circle cx="451.207747" cy="797.0135268" r="5.2796252" fill="#fff" opacity=".6"/>
        <circle cx="326.9113529" cy="748.5703409" r="5.2796252" fill="#fff" opacity=".6"/>
        <circle cx="513.9862553" cy="769.7027958" r="5.2796252" fill="#fff" opacity=".6"/>
        <circle cx="532.818623" cy="748.5842951" r="5.2796252" fill="#fff" opacity=".6"/>
        <circle cx="513.9862553" cy="769.7027958" r="5.2796252" fill="#fff" opacity=".6"/>
        <circle cx="532.818623" cy="748.5842951" r="5.2796252" fill="#fff" opacity=".6"/>
        <circle cx="532.818623" cy="769.7027958" r="5.2796252" fill="#fff" opacity=".6"/>
        <circle cx="532.818623" cy="790.8212966" r="5.2796252" fill="#fff" opacity=".6"/>
        <rect x="383.7729387" y="812.8524026" width="10.5592503" height="52.7962519" rx="5.2796199" ry="5.2796199" transform="translate(1228.3030885 450.1979561) rotate(89.9999994)" fill="#fff"/>
        <rect x="383.7729383" y="743.2966708" width="10.5592503" height="80.1149826" rx="5.2796199" ry="5.2796199" fill="#fff"/>
        <circle cx="367.9340629" cy="748.5762948" r="5.2796252" fill="#fff"/>
        <circle cx="410.1710645" cy="748.5762948" r="5.2796252" fill="#fff"/>
        <circle cx="573.8482552" cy="818.1574229" r="5.2796252" fill="#fff"/>
        <circle cx="573.8482552" cy="818.1574229" r="5.2796252" fill="#fff"/>
        <circle cx="573.8482552" cy="748.5842951" r="5.2796252" fill="#fff" opacity=".6"/>
        <rect x="568.56863" y="764.3996005" width="10.5592504" height="37.9189467" rx="5.2796199" ry="5.2796199" fill="#fff"/>
        <path d="M590.7130417,743.2810999h-16.8645779c-2.9158702,0-5.2796545,2.3637379-5.2796545,5.2796081s2.3637844,5.2796081,5.2796545,5.2796081h16.8644385v.0000465c22.134378,0,40.0777939,17.9434624,40.0777939,40.0778404s-17.943323,40.0777939-40.0776545,40.0778869v-.0003254h-16.8645779c-2.9158702,0-5.2796545,2.3637844-5.2796545,5.2796545s2.3637844,5.2796081,5.2796545,5.2796081h16.8644385v.0003254c27.9660253,0,50.63701-22.6710312,50.63701-50.6371495,0-27.9660718-22.6708917-50.63701-50.6368706-50.637103Z" fill="#fff" opacity=".6"/>
        <rect x="240.0139223" y="743.2966696" width="10.5592509" height="101.2334889" rx="5.2796201" ry="5.2796201" fill="#fff" opacity=".6"/>
        <circle cx="326.9044253" cy="839.2505284" r="5.2796252" fill="#fff" opacity=".6"/>
        <circle cx="326.9044253" cy="839.2505284" r="5.2796252" fill="#fff" opacity=".6"/>
        <circle cx="326.9044253" cy="818.1320276" r="5.2796252" fill="#fff" opacity=".6"/>
        <circle cx="326.9044253" cy="797.0135268" r="5.2796252" fill="#fff" opacity=".6"/>
        <path d="M394.1073676,669.6141768c-18.4488505,0-33.6801032-13.7770317-35.9664895-31.6041533-.340325-2.6535389-2.5639932-4.658824-5.2392669-4.658824h-.0000106c-3.162107,0-5.6425776,2.7652013-5.2479385,5.9025857,2.9022309,23.0727645,22.5937734,40.9196077,46.4537055,40.9196077s43.5514756-17.8468441,46.4537057-40.9196095c.3946388-3.1373834-2.0858309-5.9025839-5.247937-5.9025839h-.0000106c-2.6752754,0-4.8989441,2.0052881-5.2392662,4.658829-2.2863646,17.8271192-17.517472,31.6041483-35.966492,31.6041483Z" fill="#fff" opacity=".6"/>
        <path d="M394.1073676,575.9697711c-23.8599287,0-43.551469,17.8468382-46.453703,40.9195617-.3946401,3.1373838,2.0858307,5.902585,5.2479372,5.902585h.0000106c2.675275,0,4.8989436-2.0052861,5.23927-4.6588261,2.2863894-17.8270796,17.5176392-31.6041045,35.9664852-31.6041045,18.449017,0,33.6801223,13.7770245,35.9664909,31.6041031.3403233,2.6535403,2.5639912,4.6588277,5.2392661,4.6588277h.0000106c3.1621064,0,5.642577-2.7652012,5.2479368-5.9025849-2.902235-23.0727236-22.5937754-40.919562-46.4537044-40.919562Z" fill="#fff" opacity=".6"/>
        <rect x="471.0659346" y="577.7748288" width="10.5592503" height="52.7962519" rx="5.2796199" ry="5.2796199" fill="#fff" opacity=".6"/>
        <circle cx="539.1291627" cy="625.2914555" r="5.2796252" fill="#fff" opacity=".6"/>
        <circle cx="539.1291627" cy="604.1729547" r="5.2796252" fill="#fff" opacity=".6"/>
        <circle cx="539.1291627" cy="604.1729547" r="5.2796252" fill="#fff" opacity=".6"/>
        <circle cx="580.1519098" cy="672.9470796" r="5.2796252" fill="#fff" opacity=".6"/>
        <circle cx="539.1291627" cy="583.0544539" r="5.2796252" fill="#fff" opacity=".6"/>
        <circle cx="539.1291627" cy="583.0544539" r="5.2796252" fill="#fff" opacity=".6"/>
        <circle cx="580.1519098" cy="583.0544539" r="5.2796252" fill="#fff" opacity=".6"/>
        <circle cx="644.4877726" cy="269.887067" r="5.2796252" fill="#fff"/>
        <circle cx="665.6062732" cy="269.887067" r="5.2796252" fill="#fff"/>
        <circle cx="686.7247742" cy="269.887067" r="5.2796252" fill="#fff"/>
        <circle cx="676.1655238" cy="248.768588" r="5.2796252" fill="#fff"/>
        <circle cx="655.047023" cy="248.768588" r="5.2796252" fill="#fff"/>
        <path d="M507.7373613,668.7817767c-13.1378362,0-24.0459427-9.5466419-26.1655995-22.081239-.4331832-2.56163-2.6139345-4.4569029-5.2119329-4.4569029h-.0000106c-3.2350649,0-5.7503117,2.8886485-5.223994,6.0806125,2.9013051,17.5955716,18.1841211,31.0167455,36.6015369,31.0167455s33.7002318-13.4211739,36.6015369-31.0167455c.5263177-3.191964-1.9889291-6.0806125-5.223994-6.0806125h-.0001908c-2.598003,0-4.778756,1.8952794-5.211935,4.4569147-2.1196307,12.5345914-13.027585,22.0812272-26.1654171,22.0812272Z" fill="#fff" opacity=".6"/>
        <rect x="574.8722847" y="628.3708304" width="10.5592501" height="49.8571908" rx="5.2796196" ry="5.2796196" fill="#fff" opacity=".6"/>
        <circle cx="628.5858105" cy="672.9470796" r="5.2796252" fill="#fff" opacity=".6"/>
        <circle cx="628.5858105" cy="672.9470796" r="5.2796252" fill="#fff" opacity=".6"/>
        <circle cx="619.9961424" cy="653.6543691" r="5.2796252" fill="#fff" opacity=".6"/>
        <circle cx="611.4064743" cy="634.3616586" r="5.2796252" fill="#fff" opacity=".6"/>
        <path d="M611.4066224,639.6425517c.0236137,0,.0470414-.0017664.070841-.0018129-.0237996.0002789-.0472273-.0020453-.070841-.0020918v.0039046Z" fill="#fff" opacity=".6"/>
        <path d="M611.546817,639.6390189c-.0232418.0001395-.0461117.0016734-.0693535.0017199.0230559-.0003254.0462977-.0011156.0693535-.0017199Z" fill="#fff" opacity=".6"/>
        <path d="M281.1235637,614.8197943l-31.9251271-35.4563472c-1.9441304-2.1593495-5.2708691-2.333663-7.4301256-.3893932l-.0275183.0247293c-2.1592565,1.9442233-2.333663,5.2708691-.3893467,7.4301721l39.7721177,44.1713727v43.3207692c0,2.9158237,2.3637844,5.2796081,5.2796081,5.2796081s5.2796081-2.3637844,5.2796081-5.2796081v-47.3740468l-10.5592161-11.7272562Z" fill="#fff" opacity=".6"/>
        <circle cx="327.1009214" cy="582.7961464" r="5.2796252" fill="#fff" opacity=".6"/>
        <circle cx="327.1009214" cy="582.7961464" r="5.2796252" fill="#fff" opacity=".6"/>
        <circle cx="299.0470369" cy="614.3706493" r="5.2796252" fill="#fff" opacity=".6"/>
        <circle cx="313.0739568" cy="598.5834205" r="5.2796252" fill="#fff" opacity=".6"/>
        <circle cx="352.8920558" cy="617.5121618" r="5.2796252" fill="#fff" opacity=".6"/>
        <circle cx="435.3226818" cy="638.6309557" r="5.2796252" fill="#fff" opacity=".6"/>
      </g>
    </g>
  </g>
</svg>