<?xml version="1.0" encoding="UTF-8"?>
<svg xmlns="http://www.w3.org/2000/svg" version="1.1" viewBox="0 0 1080 1080">
  <!-- Generator: Adobe Illustrator 28.7.3, SVG Export Plug-In . SVG Version: 1.2.0 Build 164)  -->
  <g>
    <g id="clean">
      <path d="M360.3670888,465.4800356h51.20312l-20.070533,20.0706607h-31.132587v163.3476556h138.8185366v-163.3476556h-59.067134l20.070533-20.0706607h38.9966011v-34.3783876h-138.8185366v34.3783876ZM402.1389088,614.5194536h-7.3930492v-94.5898588h7.3930492v94.5898588ZM457.414061,519.9295947h7.3929215v94.5898588h-7.3929215v-94.5898588ZM426.0798326,519.9295947h7.3931769v15.5689114h-7.3931769v-15.5689114ZM426.0798326,559.4395576h7.3931769v15.5694222h-7.3931769v-15.5694222ZM426.0798326,598.9500313h7.3931769v15.5694222h-7.3931769v-15.5694222ZM223.649377,431.101648h-70.4617878v34.3783876h7.6029274l-20.7905166,20.7908997v48.6186879l11.5189078-11.5187162h40.701039v28.9244925h-39.0323576v34.3788984h39.0323576v27.8451556h-52.2199468v34.3788984h138.8185366v-34.3788984h-52.219883v-27.8451556h39.032613v-34.3788984h-39.032613v-28.9244925h40.7009113l11.5189716,11.5187162v-48.6186879l-20.7905166-20.7908997-34.378643-34.3783876ZM185.8976146,488.9920086l23.5115898-23.5119729,23.5117175,23.5119729h-47.0233074ZM710.2166799,462.7891001h9.3360344v26.6805138h-9.3360344v31.687452h-76.9138652v-26.680003h52.9728137v-5.007449h-60.0732977v-26.6805138h60.0732977v-5.007449h-52.9728137v-26.680003h76.9138652v31.687452ZM693.375857,526.4102135h23.9410515v34.3676606h-23.9410515v-7.6876576h-9.6457117v12.9408052h30.9041282v8.5795281h.0003831v54.181385l-11.970398,11.9707812h-11.9705258v-48.0516912h-6.9635875v56.1873273h-23.9409238v-56.1873273h-6.9626936v48.0516912h-23.9409238v-48.0516912h-.0005108v-26.680003h30.9041282v-12.9408052h-9.6458394v7.6876576h-23.9410515v-34.3676606h67.1735264ZM614.3209409,471.2225371h9.6458394v34.3788984h-9.6458394v17.2530448l9.6458394-9.6460948v48.6191987l-9.6458394,9.645584v65.4544027l-11.9705258,11.9707812h-11.9705258v-53.4841323l-9.6457117,9.645584v-48.6186879l9.6457117-9.645584v-41.1940963h-9.6457117v-34.3788984h9.6457117v-40.1208891h23.9410515v40.1208891ZM834.0474767,548.9102761h100.8245236v20.915026h-76.9141206v5.3164877h76.9141206v63.2987937l-10.4576407,10.4577684h-20.9151537l10.457513-10.4577684v-21.9626928l-32.4202058,32.4204612h-29.5783266l52.8412807-52.8415361h-8.6413358l-52.841153,52.8415361h-9.2697571v-20.3092079l32.5324559-32.5323281h-8.6410804l-23.8913754,23.8915031v-29.5783266l2.9956324-2.995377v-17.5493133h-2.995377v-20.915026ZM929.1278388,522.6787624v-40.118335h-89.3360728v61.0338718h89.3360728v-20.9155368ZM917.7461467,522.6787624h-66.5728164v-3.9107446h66.5728164v3.9107446ZM917.7461467,507.386198h-66.5728164v-3.9107446h66.5728164v3.9107446ZM940,441.2299454v26.6805138h-31.5990823v10.1282974h-23.9410515v-10.1282974h-28.2844504v10.1282974h-23.9410515v-10.1282974h-31.1332255v-26.6805138h31.1332255v-10.1282974h23.9410515v10.1282974h28.2844504v-10.1282974h23.9410515v10.1282974h31.5990823ZM804.4121951,536.4664869h26.6802584v26.680003h-26.6802584v-26.680003ZM817.7521966,489.4696139l13.3402569,13.3397461v25.8979562h-26.6802584v-39.2377023h13.3400015ZM817.7521966,570.9056607h13.3402569v64.6524344l-13.3402569,13.3402569h-13.3400015v-64.6524344l13.3400015-13.3402569Z" fill="#fff"/>
    </g>
  </g>
</svg>