<?xml version="1.0" encoding="UTF-8"?>
<svg xmlns="http://www.w3.org/2000/svg" version="1.1" xmlns:xlink="http://www.w3.org/1999/xlink" viewBox="0 0 1080 1080">
  <defs>
    <linearGradient id="_未命名漸層_16" data-name="未命名漸層 16" x1="531.2512693" y1="676.7853245" x2="531.2512693" y2="734.9795072" gradientUnits="userSpaceOnUse">
      <stop offset="0" stop-color="#fff" stop-opacity=".1"/>
      <stop offset="1" stop-color="#000"/>
    </linearGradient>
    <mask id="mask" x="180.1965744" y="673.8002306" width="702.1093898" height="316.14653" maskUnits="userSpaceOnUse">
      <rect x="180.1965744" y="675.8476017" width="702.1093898" height="314.099159" fill="url(#_未命名漸層_16)"/>
    </mask>
  </defs>
  <!-- Generator: Adobe Illustrator 28.7.3, SVG Export Plug-In . SVG Version: 1.2.0 Build 164)  -->
  <g>
    <g id="jump">
      <g>
        <path d="M285.4843854,431.682878l-.5714002-2.0939638c10.6632112-12.568889,18.1853969-26.3747214,22.5649614-41.5132357l1.9058374.7612818c-2.4772376,7.426447-5.3324832,14.3772325-8.664986,20.7566179v64.8412342h-1.9999804v-61.1270533c-3.903903,6.6650056-8.2834675,12.8529137-13.2344322,18.375119ZM306.6225218,424.3523292l11.7101133-3.2367642v44.4643796c0,4.4753032,1.8100987,6.7609039,5.6182631,6.7609039h34.6581889c3.9040626,0,6.6651652-1.0486573,8.1877289-3.1426212,1.4284206-2.189862,2.3813393-8.2834675,2.9527395-18.2811355l-1.9998208-.5714002c-.4756615,9.997668-1.332682,15.8056532-2.6671192,17.5198537-1.4266654,1.5225637-3.7122661,2.3795841-6.7591486,2.3795841h-33.8970666c-2.7611026,0-4.0937846-1.7142005-4.0937846-5.0467033v-44.6542613l19.2340542-5.3323236v37.8949531h2.0939638v-38.4663532l19.1383156-5.3324832c-.7612818,9.7118882-2.2856007,19.8994378-4.761083,30.7542859l1.9998208.5714002c2.665364-12.1875301,4.1896829-23.4219819,4.761083-33.8970666l-21.1381364,5.8081447v-24.4690436h-2.0939638v25.0404437l-19.2340542,5.3323236v-21.5178997h-1.9999804v22.0892999l-11.7101133,3.2367642v2.095719ZM489.7777384,501.4578439c-2.3143223,0-5.9436149.1613196-10.8950583.4960858h-8.4218099c-.6647454-3.9640588-1.8182365-9.4115879-3.4655795-16.3451405-.3323727-.9921715-.4960858-1.8110561-.4960858-2.4781949,4.9538368.3347661,9.9052802.4962453,14.8592766.4962453,6.2686476.6645858,9.4115879-2.4758015,9.4115879-9.4117475.6574054-9.5729075.9897781-18.6497293.9897781-27.2401988h-3.467973l-1.4858638,3.9616653h-19.81072l16.8388328-40.613452h-15.8490547v15.8488951c-.3322131,21.1352642-1.9819496,36.4904671-4.9538368,46.0635342-2.646695,9.9052802-8.4194164,20.9642112-17.3349185,33.1839733-1.3221507-1.9797157-3.1403873-4.6264107-5.4475291-7.9233306-1.6569169-2.3143223-2.9718872-4.1327184-3.9616653-5.4500822l-4.9538368,4.9539964c-3.3042599-3.9616653-6.7720734-7.5909579-10.4015256-10.8976113-4.6286446,4.9538368-10.401366,10.5652386-17.3349185,16.8412262-2.9717277-4.6288041-6.6083603-9.0865552-10.8974518-13.3732532,6.935946-5.9436149,12.3834752-11.222644,16.3451405-15.8490547-.9899376-1.3148108-2.1506092-2.4780354-3.4655795-3.467973,0,.3323727-.1710531.9899376-.4960858,1.9821092-.3323727.6647454-.6647454,1.3221507-.9897781,1.9795561l-13.8694986-9.9052802c4.6192303-11.5550167,8.4194164-25.2606426,11.3913036-41.1095378h-7.4296383v-17.3349185h10.4015256c.3250327-1.647343.6574054-3.9616653.9921715-6.9335526.9897781-5.9436149,1.647343-10.5652386,1.9795561-13.869339l17.8310043,1.4858638c-.6645858,6.2759876-1.6567573,12.7158478-2.9717277,19.3170277h17.8310043v9.4115879c-.6647454,25.4291427-3.9616653,44.081425-9.9052802,55.9664209l8.9155022,8.4218099c6.6011799-9.5730671,9.9052802-27.5677845,9.9052802-53.9868648v-15.3552028h-7.4296383v-18.3272496h62.4062812v18.8233354l-8.4194164,18.3246966h15.3552028c-.6669793,22.1250423-1.3245442,38.6338959-1.9819496,49.5289542.6574054,15.516682-5.7799018,23.1100334-19.3170277,22.7850007ZM423.9036438,423.2002741h-4.9538368c-.3323727.6669793-.6647454,1.8182365-.9897781,3.4678134-2.646695,13.2095401-4.9538368,22.6211281-6.9335526,28.2325299.657565.3323727,1.647343,1.1608311,2.9718872,2.4756419,1.3149703.9899376,2.3047484,1.8183961,2.9718872,2.4758015,3.29692-7.9233306,5.6112422-20.1357527,6.933393-36.6517867ZM662.5816923,470.2327362c.7247416,17.1038693-6.371088,25.4739803-21.2929139,25.1155986-2.5511159,0-6.5517149.1779143-12.0096157.5468273h-9.2832981c-.7327198-4.369512-2.0042886-10.3743996-3.8201317-18.0170564-.3663599-1.0938141-.5468273-1.9963104-.5468273-2.7315832,5.4606134.3689129,10.9185143.5468273,16.3791277.5468273,6.9100966.7325602,10.3743996-2.7290302,10.3743996-10.3743996.7247416-10.5523139,1.0911015-20.557641,1.0911015-30.0268317h-3.8226847l-1.6379287,4.3669589h-21.8371881l18.5613306-44.7680307h-17.4702292v17.4702292c-.3663599,23.2972025-2.184756,40.223317-5.4606134,50.7754714-2.9174758,10.9186738-9.2807451,23.1087569-19.1081579,36.5785466-1.4574614-2.1822029-3.46175-5.0996787-6.0048877-8.7339179-1.8263743-2.5511159-3.2758575-4.5552449-4.3667994-6.0074407l-5.4606134,5.4606134c-3.6422174-4.3667994-7.4649021-8.3673984-11.4655011-12.0123283-5.1022318,5.4606134-11.4655011,11.6459684-19.1081579,18.5640432-3.2758575-5.1022318-7.2844347-10.0160179-12.0123283-14.7413585,7.6453694-6.5515553,13.6502571-12.3705504,18.017216-17.4702292-1.0911015-1.4493236-2.3706485-2.7315832-3.8201317-3.8226847,0,.3663599-.1884456,1.0911015-.5468273,2.184756-.3663599.7327198-.7327198,1.4574614-1.0911015,2.1822029l-15.2880262-10.9186738c5.0915409-12.7369103,9.2805855-27.8446288,12.556443-45.3148579h-8.1896436v-19.1081579h11.4655011c.3583817-1.8156835.7247416-4.3667994,1.0936545-7.6426568,1.0911015-6.5517149,1.815843-11.6459684,2.1822029-15.2881858l19.6549851,1.6379287c-.7327198,6.9180748-1.8263743,14.016617-3.2758575,21.2929139h19.6549851v10.3743996c-.7325602,28.0305213-4.3667994,48.5907154-10.9185143,61.6914326l9.8275724,9.2832981c7.2762969-10.5521544,10.9185143-30.3877664,10.9185143-59.5092297v-16.9261145h-8.1896436v-20.2018124h68.7899748v20.7486397l-9.2805855,20.1992594h16.9259549c-.7352728,24.388304-1.4600144,42.5859873-2.184756,54.5956031ZM568.6761189,409.0854182h-5.4606134c-.3663599.7354324-.7327198,2.0042886-1.0911015,3.8226847-2.9174758,14.5608912-5.4606134,24.9351312-7.6426568,31.1204862.7247416.3663599,1.8156835,1.279547,3.2758575,2.7290302,1.4493236,1.0911015,2.5404251,2.0042886,3.2756979,2.7290302,3.6342391-8.7339179,6.185355-22.1955698,7.6428164-40.4012313ZM719.8037256,441.9114885h25.2700569c-.1546179,22.7348975-.5382108,36.7920438-1.1523742,42.0914972-.7686218,5.4524756-3.6101449,8.2182057-8.6032346,8.2182057-2.1501305,0-4.6079012-.0773887-7.5266535-.0773887l.3835929,1.6133558h7.0672675c6.221257,0,9.676784-3.3797339,10.3681766-9.9845837.6913926-5.6072531,1.0765811-20.123945,1.0765811-43.5502351h-26.1920201c1.6891489-4.4547194,2.994705-9.2946272,3.9938973-14.5166918l-1.6133558-.1546179c-2.1499709,11.5221464-6.1438683,21.2761596-11.9815324,29.2639543l.9219632,1.2296034c3.1493229-4.1469196,5.8376641-8.9095983,7.9876351-14.133099ZM686.9296265,492.3742136h-1.6891489v-52.3064919h6.6048499c1.8437668-4.6079012,3.0720937-9.3704203,3.8407155-14.4393031l1.6891489.230411c-.9218036,5.2235007-2.2273597,9.9087906-3.9165086,14.2088921h13.2870885v50.156521h-1.6891489v-5.2235007h-18.1269963v7.3734716ZM686.9296265,461.2680882h18.1269963v-19.5097815h-18.1269963v19.5097815ZM686.9296265,483.3888222h18.1269963v-20.5088143h-18.1269963v20.5088143ZM719.1897218,456.5827982l-1.305556.8445745c6.221257,6.2986457,11.136958,12.1347142,14.6698737,17.358215l1.2281673-.9977563c-3.3023451-4.915701-8.1408169-10.6001833-14.5924849-17.2050331ZM296.0636658,554.5542325h32.8224003v22.3193918h-32.8224003v-22.3193918ZM298.980982,573.8093492h26.9877679v-16.1935543h-26.9877679v16.1935543ZM328.5951801,529.4617707h-32.0938292v2.9173162h32.0938292v-2.9173162ZM341.5778197,559.0758093c-1.0196166,6.5633631-2.6237177,12.8385529-4.959262,18.6733449l3.064275,1.0194571c2.3326722-6.1255184,3.9396454-12.3979955,4.8123032-18.9642308l-2.9173162-.7285711ZM369.4436705,559.0758093l-3.0641155.8755299c2.7705169,5.8346324,5.2528606,11.8162237,7.2946468,18.0887008l2.7706765-1.0196166c-1.6042606-5.5437465-3.939805-11.5253377-7.0012079-17.9446142ZM356.1674324,559.9513392l-3.2083617.2908859c1.4573018,4.3773306,2.479631,10.7966071,2.9173162,19.1110301l2.9174758-.2908859c-.584644-8.1703363-1.460174-14.4428135-2.6264303-19.1110301ZM371.7765023,517.4985882l-2.6264303-1.0223292c-2.7705169,3.6487595-5.5439061,7.1480071-8.314423,10.3589219-7.1478476.5819314-14.151768,1.1664159-21.1528163,1.4573018,5.8346324-5.1060613,11.9630229-12.5447948,18.0887008-22.4660315l-2.9174758-1.0196166c-5.2528606,8.7521082-11.5253377,16.3378005-18.526386,22.6102777-.4376852.5844845-.8755299.8753704-1.3132151,1.1691285l.7285711,2.9173162c6.8571212-.4376852,14.2960143-1.0223292,22.466191-1.6041011-7.5856923,8.6051494-14.4426539,15.0245854-20.4242452,19.1110301-.4376852.2908859-1.0196166.5817719-1.6041011.8726578l1.0223292,3.2110743c10.9406937-.5844845,22.1724329-1.7509003,33.6977707-3.2110743.584644,1.8978592,1.3132151,3.939805,2.0419458,6.1283905l2.9200288-.7285711c-2.6264303-7.8794504-5.3996598-14.8804987-8.4610627-20.86209l-2.9201884.8755299c1.8978592,3.6460469,3.6487595,7.5856923,5.2528606,11.8162237-9.3365926,1.1664159-18.8201441,2.0419458-28.4476227,2.7705169,7.8792908-5.5410339,17.9446142-16.3376409,30.4895685-32.3845555ZM270.8242452,560.6799104l-3.064275.1467993c1.0223292,4.3747776,1.7510599,10.3562093,2.1887451,18.2356597l3.064275-.2937581c-.2908859-7.729779-1.0223292-13.7112107-2.1887451-18.0887008ZM296.501351,545.2176398h32.0938292v-2.9201884h-32.0938292v2.9201884ZM289.3506312,574.2471939c-1.310343-4.8151754-3.2082021-10.0653233-5.5410339-15.6090698l-3.0641155.8753704c2.1887451,4.959262,4.0837321,10.2121226,5.6878332,15.7560287l2.9173162-1.0223292ZM292.9995503,518.95589h39.2415172v-3.0614029h-17.6508561c-1.460174-4.5242894-2.9174758-8.4612223-4.5215768-11.9631825l-3.0641155.5817719c1.6041011,3.2110743,3.0641155,7.0039205,4.3773306,11.3814106h-18.3822994v3.0614029ZM253.4641155,634.9354451c24.945822-.1467993,45.8077524-3.9396454,62.5861103-11.3785385,15.4622706,5.2528606,35.1579446,9.3365926,58.9373508,12.1071096l1.0194571-2.7705169c-22.3192322-2.6264303-40.9925771-6.4192764-56.1639617-11.2344518,13.2735255-6.7101624,23.7794062-16.046755,31.3650985-28.1540242h15.3181839v-3.0641155h-84.3235706c2.1887451-3.2110743,4.0864447-6.7103219,5.6905458-10.5031681l-3.0641155-.5844845c-5.5437465,13.1294388-16.0469146,23.6326069-31.6559844,31.5118977l2.0419458,2.3328318c10.2121226-5.250148,18.526386-11.8163832,24.6547765-19.6929615h67.5453723c-7.2948064,11.3785385-17.7978149,20.4242452-31.5118977,26.840809-14.8804987-5.1060613-25.6772653-11.3785385-32.5315144-18.9642308l-2.7732295,1.460174c7.0037609,7.5856923,17.506929,14.0049688,31.5118977,19.2551167-15.7560287,6.712875-35.7425887,10.0680359-59.6687941,10.0680359l1.0223292,2.7705169ZM258.8610627,560.8267096l-3.0614029-.5844845c-.8755299,6.8569616-2.6264303,13.4203247-5.2528606,19.5487152l3.0641155,1.0223292c2.479631-6.4192764,4.2306909-12.9853521,5.250148-19.98656ZM273.5974747,529.023926c-8.1701768,9.6276381-15.3181839,16.6286864-21.5933737,21.0061766-.4376852.2908859-.8755299.5844845-1.4573018.8753704l.8755299,3.2110743c10.6498078-1.0223292,21.5906611-2.6264303,32.9691995-4.9619746.8753704,2.3355444,1.6041011,4.8151754,2.3355444,7.4416056l3.0614029-.7314433c-2.3328318-7.8765782-4.8124628-14.7335399-7.729779-20.5683319l-2.9201884.8755299c1.460174,3.2082021,2.9201884,6.7101624,4.2334035,10.2121226-9.0457067,1.894987-18.2355001,3.355161-27.7190516,4.5214173,7.8765782-5.9814317,18.0887008-17.2131709,30.9272537-33.8445699l-2.7705169-1.0223292c-2.6264303,3.3550014-5.1060613,6.5660757-7.7324916,9.7742778-7.0039205.8755299-14.0049688,1.6042606-21.0088892,2.1887451,5.6907053-5.2528606,11.5254973-12.5449544,17.506929-22.0283463l-3.0641155-1.0223292c-4.959262,8.6080215-10.9408533,16.0496272-17.7978149,22.1751455-.4378448.584644-.8755299.8755299-1.3132151,1.1664159l.7285711,2.9174758c6.8571212-.5819314,14.2987268-1.3105025,22.4689036-2.1860325ZM398.1047904,577.4301849l1.9462072,1.4043264c7.2432671-3.5661051,11.1339262-10.0538347,11.7827151-19.45904h18.0547136v17.8372273h2.3773502v-49.4051322h-2.3773502v15.459558h-21.1898353v-13.6200994h-2.3775098v15.8908606h23.5673451v11.4602355h-31.3524929v2.3773502h11.0270181c-.4311431,8.8652394-4.2150536,14.8109286-11.4581611,18.0547136ZM463.833841,527.3764234v17.4038504h-23.1360424v2.3794246h23.1360424v23.1341277h-19.7834345v2.2706016h42.0530422v-2.2706016h-19.9988465v-23.1341277h23.1339681v-2.3794246h-23.1339681v-17.4038504h-2.2707612ZM480.2665823,594.7274462c-5.6233691,5.1880774-12.3245959,9.8361888-20.3253153,13.8375857-5.4057233-4.0013968-10.0539943-8.5406853-13.8377452-13.5131912l-1.8375438,1.1885953c9.5140283,12.9733848,24.7559404,22.5941617,45.6213812,28.8642454l1.1887549-1.8375438c-11.4583207-3.243785-21.1877609-7.6764845-29.1886399-13.2977793,7.892056-3.8904996,14.5953571-8.4318624,20.107829-13.6220142l-1.7287209-1.6198979ZM421.6719759,622.2939542c0,.4332174-.539966.8643604-1.6219723,1.1887549l.4332174,2.1619383c11.5669841-2.2686869,21.4054068-4.648271,29.6216977-7.2432671l-.4332174-2.2686869c-8.0007194,2.5930813-16.5415643,4.9725059-25.7291238,7.0256212v-20.538972c7.1344441-4.0013968,12.7557389-8.4339368,16.864044-13.1908711h48.2163773v-2.2686869h-43.5682659c-1.7287209-4.2169684-3.6749281-8.0008789-5.8368663-11.2446639l-2.1619383.6487889c2.1619383,3.3526079,3.9994821,6.9188726,5.5124719,10.595875h-44.8636098v2.2686869h40.3243213c-8.6495083,9.0827257-23.242791,16.5415643-43.7838374,22.3784306l1.2975778,2.1619383c9.8363484-3.0262987,18.3770337-6.3768323,25.7291238-10.1607429v18.4858567ZM588.2356846,648.8212192h46.8396555v-15.8086849h-46.8396555v-5.8560141h52.6956696v-16.9787708h-128.8098106v16.9787708h52.6956696v5.8560141h-46.8396555v15.8086849h46.8396555v5.8531419h-59.1353702v16.3952437h141.6892119v-16.3952437h-59.1353702v-5.8531419ZM632.7322962,605.4945339h-112.4145669v-59.7217695h32.7874557c.3843907-1.1700859.9707899-2.9265709,1.7564851-5.2694553.3843907-2.3401717.7772383-4.0966568,1.172958-5.2696148l26.3450424,1.7564851c-.3928476,1.172958-1.1700859,3.1287391-2.3401717,5.8560141-.3928476,1.1700859-.7885673,2.1494922-1.172958,2.9265709h53.8657554v59.7217695ZM609.9003835,582.0733498h-66.7478694v6.4397007h66.7478694v-6.4397007ZM609.9003835,562.7515352h-66.7478694v6.4425728h66.7478694v-6.4425728ZM712.9087877,599.4149701h105.7746128v76.4326316h-26.6145467v-8.8725793h-52.5455194v8.8725793h-26.6145467v-76.4326316ZM739.5233344,643.7714841h52.5455194v-19.7891788h-52.5455194v19.7891788ZM708.1306312,560.5201864v-12.2837474c53.2290934-2.2728355,92.5752848-4.0944229,118.0583602-5.4615708l-10.2363764-25.9309727c-48.2254725,3.6465256-93.0431277,5.6938966-134.4331797,6.1417939v60.7346844c.9058472,30.9446462-5.0136735,55.5086306-17.7453182,73.7018462,5.4617304,4.5424798,12.5093715,11.3644968,21.1563267,20.4727528,9.0950121-14.5664759,15.236806-28.2039678,18.4253818-40.9455056,3.1754914-12.2835878,4.7748056-29.5676053,4.7748056-51.8652963h121.4693688v-24.5639844h-121.4693688ZM318.7636187,663.3902482c-.2545052-1.455387-.5104466-2.9106145-.7649518-4.3661611-.2744508-1.569316-.5476251-3.1387916-.8219163-4.7079481-.2545052-1.4555466-.5099679-2.9109336-.7647922-4.3663207-.1466397-.8373941-.2918433-1.6751072-.4394404-2.5125013-.0365403-.206955-.0609536-.2265815-.2768443-.2326449-.1483949-.0041487-.2980663.008776-.4456634-.00367-.1948282-.0165947-.2956729.0652618-.3727425.2441336-.4183779.9703112-.8476062,1.9358355-1.2747601,2.9023172-.7809082,1.7668568-1.56421,3.5325966-2.3443204,5.2997725-.7935138,1.7973336-1.5841555,3.5961032-2.3765524,5.3939155-.7523462,1.7073392-1.5053307,3.4143594-2.2586343,5.1210604-.0255303.0577623-.0290407.1314811-.1053125.1594049-.0829735-.029679-.0880796-.1126525-.116482-.1774356-.3716255-.8468084-.7414958-1.694255-1.1124831-2.5412229-.5433168-1.2401346-1.0883889-2.4794715-1.6305888-3.7200848-.5421999-1.2406133-1.0802511-2.4829819-1.6229297-3.7234356-.6155995-1.4068795-1.2356668-2.8116846-1.8511068-4.2184045-.6518206-1.4901721-1.3028435-2.9806633-1.9478028-4.4737075-.0826544-.1917964-.1925942-.2829077-.4096019-.2728552-.1949877.0089356-.3965176.0414867-.5879949-.0371785h-.049465c-.0746761.220518-.0917495.4525247-.1324385.6794253-.2545052,1.4135812-.5055001,2.8278006-.7555375,4.2423391-.3290218,1.8614785-.6550119,3.7234356-.9840338,5.5849141-.2484418,1.4064008-.5007131,2.8120037-.7491549,4.2184045-.3089167,1.747709-.6151208,3.4957372-.9233993,5.2436058-.1147268.6503846-.232964,1.3001309-.3475313,1.9505154-.0402102.2281771-.0086165.2693447.2157311.2754082.1897221.0052656.3799229.0047869.569645.0001596.2192415-.0054252.2447718-.0312746.2845034-.2567391.0244134-.1381828.0461141-.2768443.070687-.415027.3365214-1.8852536.6749575-3.7703476,1.0095641-5.6560798.4239627-2.3894771.8445745-4.7797521,1.2675797-7.1695483.3596582-2.0320528.7197951-4.0641057,1.0831233-6.0955202.0237751-.1335554.0236155-.277323.1268537-.4399191.0668575.1391402.1217476.2466866.1707339.356786.1707339.3848694.3390744.7706961.5088509,1.1560442.4796506,1.0877506.958663,2.1758204,1.4397497,3.2629327.4777359,1.0796128.9588226,2.1577896,1.436718,3.2372429.4110379.9285053.818725,1.8584467,1.2291247,2.7872712.4638538,1.0496147.9293032,2.0985912,1.3931569,3.1482059.4103997.9286649.8188846,1.8582872,1.2292843,2.7871116.3070019.6947435.6175143,1.3878913.9216441,2.0839113.0529754.121269.1255772.1811056.2608878.1822226.137385.001117.2418997-.0327107.2969494-.1699361.0459546-.1150459.0973343-.2276984.1475971-.3409892.613206-1.3805513,1.2284864-2.7603048,1.8396181-4.1418135.6580436-1.4872999,1.3106621-2.9769933,1.9683866-4.4642932.7279329-1.6457474,1.4600144-3.2897396,2.188426-4.9353274.6749575-1.5247976,1.3472024-3.0508716,2.0215216-4.5759883.0585601-.1324385.1236624-.2618452.1997746-.4220479.0713253.1124929.08058.2012107.0957386.2878542.278759,1.585432.5571989,3.1707045.8362771,4.755977.2320067,1.3168851.465609,2.6336107.6968178,3.9506554.2926411,1.6666503.5832079,3.3337793.8753704,5.0004297.25642,1.4635248.5136379,2.9268901.7708557,4.3902553.0829735.4715128.1657874.9430257.2514735,1.4140599.0366998.2010512.0762718.2355171.2770038.2404636.1898817.0046274.3799229.0051061.5698045-.0001596.2059977-.0055848.234081-.0373381.2016894-.2353575-.068134-.4153462-.1415336-.8300541-.2138163-1.244762-.2580157-1.47996-.5160313-2.9599199-.7748448-4.4397203ZM287.5263313,647.1572815c-.0721231.1397784-.0496245.2908859-.0496245.4381639-.0009574,4.4746649-.0004787,8.9494894-.0014361,13.4241543-.0001596.3298196-.0060634.6583628-.0397315.9885016-.1033977,1.0138723-.3706681,1.9754075-.8428192,2.880776-.7596862,1.456504-1.9010504,2.495747-3.4114872,3.1306538-1.0137127.4263561-2.0754544.5729958-3.1711832.549859-1.1003562-.0232964-2.147737-.2608878-3.1268243-.7529845-1.538201-.7734087-2.6187712-1.9801944-3.2720279-3.5710516-.4199735-1.0229675-.5905479-2.0963573-.5924627-3.1935222-.0079782-4.4911-.0031913-8.9823596-.00367-13.4736193,0-.1402571-.0049465-.2805142-.0076591-.4209309h-1.0406791c-.0019148.1073869-.0055848.2146141-.0055848.3218414-.0003191,4.5324272.001117,9.0648544-.0019148,13.5972817-.0003191.6042704.0387742,1.2031157.1467993,1.7978123.3322131,1.826853,1.1298756,3.4004773,2.51298,4.6623127.9465361.8637222,2.0443393,1.4411858,3.2745809,1.781058,1.1212591.3100337,2.2605491.3614134,3.4113276.2449314,1.0212123-.1032382,1.9943956-.3834333,2.9043915-.8567013,1.4951186-.7775574,2.6275472-1.923549,3.396169-3.4242524.6687345-1.3058752.9484509-2.7087655.9527591-4.1612804.0132438-4.5407246.0047869-9.0812896.0049465-13.6220142,0-.1158438.0019148-.2316875-.045795-.3409892h-.9910546ZM265.7231304,647.1572815h-.9910546c-.0724422.1396189-.0497841.2908859-.0497841.4381639-.001117,4.8549069-.0027126,9.7096543.001117,14.5645612.0006383.649108-.0820161,1.2830575-.2525905,1.9077522-.3526374,1.2916739-1.0449874,2.3736802-2.0811987,3.2105956-1.5307014,1.2366242-3.2894204,1.5911764-5.1979704,1.1909888-1.283217-.2691852-2.3567664-.9192506-3.2235203-1.9088691-.8761682-1.0004689-1.3644353-2.16864-1.537084-3.4799403-.0379763-.2880138-.0411676-.5755488-.0499437-.8642009-.0054252-.1804674-.0381359-.226741-.1878073-.2331236-.2388679-.0100526-.4786932-.0049465-.7178803-.0007978-.1249389.0020743-.173287.0770696-.1625961.1973812.0081378.090473.0193073.1811056.0191477.2715786-.0014361.8860612.1775952,1.7382947.4865119,2.5645193.5055001,1.3515106,1.3368307,2.463515,2.5089909,3.3034621,1.6706394,1.1972118,3.5456809,1.6009098,5.5496504,1.2296034,2.5453716-.4716724,4.3182918-1.9581745,5.3305684-4.3358439.4021023-.9446213.568528-1.9409416.5670919-2.971249-.0065421-4.9291044-.0027126-9.8583683-.0030317-14.7874727-.0001596-.0990895-.0055848-.1980194-.0086165-.2971089ZM492.5610206,658.0978156c-1.8830197-.0001596-3.7660393,0-5.649059,0v.0007978h-5.5745424c-.074357,0-.148714-.0017552-.2229115.0009574-.2170076.0076591-.2441336.0338277-.2537074.2417401-.0023935.049465-.0009574.0990895-.0009574.148714,0,1.0157871-.0003191,2.0315741.0001596,3.0473612q.0001596.3800824.3877415.3807207c1.5608591.0003191,3.1217182.0001596,4.6825773.0003191.4153462,0,.4352917.0381359.2248263.4067297-.5166696.9047302-1.2911953,1.5099581-2.2334231,1.9165282-1.1533316.497841-2.3588408.6109721-3.5924333.4418339-.7957477-.1091421-1.5372436-.3867841-2.2019889-.8429788-.9435044-.6478315-1.589102-1.5255954-1.9626423-2.6050486-.3253518-.9403131-.4443869-1.9034439-.3687534-2.8989663.0550497-.7231459.1858925-1.4229955.4573116-2.0947616.3598178-.8903694.8956351-1.653566,1.6660121-2.2361357,1.234869-.9340901,2.649248-1.1772663,4.151547-1.0355731.7397406.0698892,1.4335267.304768,2.0893365.6572458.8983477.4826824,1.605218,1.1555655,2.060934,2.0721035.1045147.2099868.2336023.2792377.4609816.2784399,1.9077522-.00734,3.8155043-.0041487,5.7232565-.0043082.0660597,0,.1322789-.0003191.1980194-.0051061.0896752-.0063826.1361084-.0529754.1211094-.1469588-.0103717-.0651023-.0201051-.1306833-.0346255-.1949877-.1616388-.7196355-.3957198-1.4153364-.7062321-2.0840708-.7352728-1.583996-1.8332356-2.8740743-3.2158612-3.9270398-.8996242-.6851696-1.8925935-1.2021583-2.9490695-1.6031437-1.3816683-.5243287-2.8172693-.7587288-4.286698-.8069172-.7103808-.0232964-1.4170916.0411676-2.1215685.1357893-1.2208273.1641918-2.3894771.5047022-3.5045133,1.0263183-1.4588975.6826166-2.6961599,1.6543639-3.7339669,2.8834886-.9122298,1.0804107-1.5678799,2.3044293-2.0194472,3.6388665-.4407169,1.3022052-.6175143,2.6506841-.6269286,4.0189489-.0035104.5091701.032232,1.0221696.0984512,1.5297441.2032851,1.5560722.6569267,3.0301283,1.445494,4.3940849.6463954,1.118387,1.4513979,2.105612,2.4462821,2.9311983.8046833.6676175,1.6838833,1.2165191,2.6420676,1.6417583,1.6095263.7140508,3.3013878,1.0328605,5.0513307,1.0804107.5118826.0140417,1.0210527-.0422846,1.5302227-.0906326.7754831-.0733996,1.5362862-.227858,2.2776225-.4609816,1.8555746-.5832079,3.4668561-1.5578274,4.7890068-3.0014067.657565-.7178803,1.2195508-1.4989481,1.6660121-2.3599577.9867463-1.9028057,1.4885764-3.9275185,1.4828321-6.0742982-.0009574-.4001876.0004787-.4006662-.393805-.4008258ZM465.9991301,647.7920287c-1.6763838-.0001596-3.3527675.0001596-5.0291513.0003191-.497841,0-.476938-.0293599-.4767785.4675237.0004787,3.5592439.0006383,7.1183281-.0007978,10.677572,0,.1123333.0232964.2292941-.0414867.3658812-.0893561-.0497841-.1311619-.1118547-.1740848-.1707339-.7252203-.9934481-1.4485258-1.9883322-2.1747034-2.9809824-1.5401157-2.105612-3.0818271-4.2101071-4.6225811-6.3154-.4485356-.6128869-.896752-1.226093-1.3428941-1.8407351-.0922282-.1268537-.1933921-.206955-.3662003-.2072742-.8499996-.0017552-1.6995206.00734-2.5496798-.0314342-.7170825-.0327107-1.4365584-.0070208-2.155077-.0068613q-.4424721.0001596-.4429508.4335365c-.0001596,3.6088684-.0001596,7.2175772-.0001596,10.826286,0,3.5179167-.0003191,7.0358333,0,10.55375.0001596.3235966.0114886.3330109.3339683.3352448.0082973.0001596.0165947.0001596.0247325.0001596,1.7424434-.0003191,3.4848868-.0001596,5.2273303-.0009574.3499248,0,.3535947-.0039891.3537543-.3654025.0003191-1.4121451.0001596-2.8242902.0001596-4.2364352-.0001596-2.3286831-.0004787-4.6575257.0007978-6.9862088.0001596-.0928665-.0228177-.1924347.0307959-.2833864.0882391.0389337.1222263.107706.1654683.1662661.1471184.199296.2915242.4006662.4376852.6004409,1.1702454,1.598995,2.3398526,3.1983091,3.511215,4.7963468,1.4837895,2.0242342,2.9715681,4.0455962,4.4496133,6.0738195.127492.1750422.2616856.2388679.4727894.237751,1.46161-.0078187,2.9233797-.0043082,4.3849897-.0049465.3722638-.0001596.3732212-.0009574.3732212-.370349.0003191-7.1184877.0004787-14.2368159.0004787-21.355144q0-.3780081-.3904541-.3786464ZM372.1495639,656.4573339c.2201989,1.0936545.2505161,2.1995955.1828608,3.3039408-.094143,1.5326162-.4919371,2.993588-1.1967331,4.3632889-.4059319.789046-.912868,1.5083624-1.5026181,2.1729482-.878083.9894589-1.9200386,1.763825-3.0947518,2.3545325-1.2115726.6093765-2.4986192.9867463-3.8467789,1.156842-.5664537.0714849-1.133386.0984512-1.7033501.0981321-2.8814142-.0019148-5.7628284-.0007978-8.6442427-.0009574-.4123144,0-.4137505-.0009574-.4139101-.412474-.0001596-3.5582865-.0001596-7.1167325-.0001596-10.6751785,0-3.5418513,0-7.0837027.0001596-10.6257136q0-.448376.4512482-.4486951c2.8731169,0,5.7462337-.0055848,8.6193506.0027126,1.4295376.0039891,2.8282793.2230711,4.1820238.6920309,1.4217189.4925754,2.6971173,1.2324755,3.8048135,2.2584747,1.6948932,1.5699543,2.708606,3.5088215,3.162088,5.7601158ZM366.0837226,659.1062627c.0437206-1.0200953-.1198329-2.0081182-.5729958-2.9348683-.4566734-.933771-1.1416834-1.6462261-2.0566258-2.1439075-.8953159-.486831-1.8648293-.6487889-2.8648195-.6704897-.7016047-.0153182-1.4036882-.0035104-2.105612-.0030317q-.3655621.0001596-.3662003.3736999c-.0003191,1.6928189-.0001596,3.3856378-.0001596,5.0784567,0,1.6926593-.0001596,3.3854782.0001596,5.0782971,0,.0824948.001117.1651492.0046274.247644.0041487.0965365.0537732.153501.1528627.1594049.0577623.0035104.1155246.0051061.173287.0051061.792716-.0001596,1.585432-.0028722,2.378148-.0001596.356786.0012765.7091043-.0373381,1.0572738-.1073869,1.3789557-.2778016,2.5059591-.9490891,3.2950052-2.1362484.5927818-.8918055.8597331-1.8900405.9050494-2.9465165ZM416.5166092,669.5505516c.1909986.3488078.1881264.3531161-.2029659.3532756-2.0314146.0003191-4.0628291-.0043082-6.0942437.0068613-.2610474.0012765-.4016236-.086803-.5198609-.3132249-.8096298-1.5516044-1.6304292-3.0974644-2.4483564-4.6449201-.2739721-.5181057-.5559224-1.0322222-.8215972-1.5546361-.0911113-.1793504-.2103059-.2489205-.4094423-.2452505-.5366151.009893-1.0733898.0020743-1.6101645.0039891-.2891307.0009574-.3044489.0162756-.3046085.3122676-.0007978,1.9983847-.0009574,3.9967695.0001596,5.9951542.0001596.4790124.0015956.4408765-.4518864.441036-1.7671759.0004787-3.5343518.0004787-5.3015277.0003191q-.3912519,0-.3918902-.4016236c-.0001596-3.5673816,0-7.1347633,0-10.7021449,0-3.5426492.0003191-7.0851387-.0003191-10.6277879,0-.4506099-.0097334-.4293878.438483-.4293878,3.0800719.0006383,6.1603034-.0090952,9.2403753.0054252,1.4901721.0071804,2.9173162.3170545,4.2407435,1.0314244,1.2822596.6921904,2.2865581,1.6640973,2.9927902,2.9447613.5189035.9411109.8222354,1.9501963.9119106,3.0125762.1257368,1.4888956-.0550497,2.9335918-.7635157,4.2809537-.565975,1.0761024-1.3655523,1.9369524-2.3655425,2.6194094-.3607751.2462079-.3701894.162277-.1397784.587197.7872908,1.4512384,1.5795281,2.8997641,2.3711272,4.348609.5423594.9924907,1.0871124,1.9837048,1.6301101,2.9757168ZM409.4404061,654.8610515c-.1756804-.6352259-.5781019-1.0802511-1.166735-1.3663501-.4086445-.1986577-.8434575-.2880138-1.2927909-.2924816-.8581374-.008776-1.7164344-.00367-2.5745718-.0023935-.2881733.0004787-.3004598.0140417-.3010981.3140228-.0012765.6931478-.0003191,1.3862956-.0003191,2.0794435h.0004787c0,.7178803-.0017552,1.4357606.001117,2.1536409.0007978.2114229.0276046.2473248.217965.2444527,1.0140319-.0148395,2.0306168.0625493,3.041936-.0465928.670011-.0722827,1.2643884-.3287027,1.6865959-.8795191.5085318-.6634688.6073022-1.4094325.3874224-2.2042228ZM395.7177067,669.534276c.1477566.3681151.1448845.3713064-.2658343.3713064-.9993519.0003191-1.9987039.0001596-2.9978962.0003191-1.0076493,0-2.015139.0004787-3.0227883-.0001596-.3125867-.0001596-.3127463-.0012765-.4153462-.3038106-.337-.9931289-.6738405-1.9862578-1.0108406-2.9793868-.0986108-.2904072-.0989299-.292322-.3995493-.292322-2.411497-.0006383-4.822994-.0006383-7.2346506.0001596-.2883329,0-.2907264.0038295-.3850289.278759-.3432231.9998306-.686127,1.9995017-1.0291905,2.9993323-.101483.2963111-.1013234.2975876-.4199735.2975876-1.9738118.0003191-3.9476236.0001596-5.921595.0001596h-.0247325c-.2825886-.0030317-.2945559-.0191477-.1935516-.276206.2718978-.6917117.545072-1.3827852.8169698-2.074497,1.1057814-2.812642,2.2112437-5.625603,3.3165464-8.4384046.7279329-1.8522237,1.4555466-3.704607,2.1831603-5.5568308.7215503-1.8369056,1.4426219-3.6741302,2.1648104-5.5107167.1198329-.3046085.1220668-.3050872.4499717-.3050872,1.7756328-.0004787,3.5512656-.0004787,5.3268985.0001596.314661,0,.3156184.0014361.4330578.2937581,1.1937014,2.9733233,2.3872432,5.9468062,3.5804659,8.9204487.9503657,2.3680955,1.8997739,4.7365101,2.8504587,7.1046056.7322411,1.8238213,1.4660779,3.6470043,2.1986381,5.4708256ZM386.3174479,661.2702753c-.1265346-.3580625-.2586539-.7142103-.3859863-1.0719537-.5536885-1.5559126-1.1062601-3.1121444-1.6601082-4.6678974-.0826544-.2321662-.1700957-.4625772-.2709404-.7363898-.0965365.117599-.1233433.2130185-.156054.3042893-.111376.310991-.2200393.6227799-.3301388.9342497-.5670919,1.6036224-1.134503,3.2072448-1.7011162,4.8110267-.0577623.163394-.1168012.3267879-.1651492.4932136-.0374976.1290876-.0095739.162277.1223859.1787121.0327107.0039891.0660597.0028722.0990895.0028722,1.4287398.0003191,2.8574796.001117,4.2862193-.0004787.2283367-.0001596.2415805-.0218603.1617983-.247644ZM433.0044003,664.300244c-2.3366613-.0003191-4.6733226-.0009574-7.0099839-.0004787-.4539608,0-.4336961.0103717-.4335365-.4341748,0-5.2348298-.0001596-10.4695-.0003191-15.7043298q-.0001596-.4134314-.4033788-.4139101c-1.7917488-.0003191-3.5834976-.0004787-5.3752465-.0006383q-.4191757,0-.4194948.4228457c-.0001596,3.5587652,0,7.1173708,0,10.6759764h-.0007978c0,3.5586056-.0001596,7.1172112.0001596,10.6758168q0,.3811994.3863055.3819972c4.4338164-.0006383,8.8676328-.0014361,13.3016088-.0023935q.3891776-.0001596.3894967-.4035384c.0001596-1.5852725.0001596-3.1705449-.0001596-4.7558174q0-.4408765-.4346535-.4413552ZM441.923732,647.7497442c-1.783611-.0004787-3.5670625-.0006383-5.3506735-.0007978q-.4097614,0-.4100805.4078466c-.0001596,3.5506274,0,7.1012548,0,10.6518821h-.001117c0,3.5670625-.0001596,7.1342846,0,10.7013471q0,.3894967.3784868.3902946c1.808184-.0001596,3.6165275-.0004787,5.424871-.001117q.3909328,0,.3915711-.4019428c-.0001596-7.1095521-.0003191-14.2189446-.0004787-21.3284967q0-.4185375-.4325791-.4190162ZM338.3752023,657.2372847c-.5677302.9762151-1.3539041,1.7390926-2.3318744,2.308578-.7523462.4380043-1.5597422.7126147-2.4132522.8587757-.2760464.0472311-.5546459.0746761-.8361175.0864839-.6266095.0266473-1.2530594.045795-1.8804666.0424441-.4375256-.0022339-.8726578-.0737188-1.3105025-.0429228-1.1215783.0793035-2.2447522.024892-3.3669687.0414867-.2872159.0043082-.3098741.0237751-.3101932.3117889-.001117,1.5195319-.0006383,3.0390639-.0006383,4.5585958,0,1.1809362.0003191,2.3618725-.0001596,3.5428087-.0001596.360456-.0046274.3642856-.3547117.3654025-.1649896.0004787-.3302983-.0009574-.4954475-.0027126-.1198329-.0012765-.1831799-.0617514-.1850947-.1830204-.0012765-.0907922-.0028722-.1817439-.0028722-.272536-.0001596-3.5345114-.0001596-7.0690227-.0003191-10.6036937-.0001596-3.5345114-.0001596-7.0690227-.0001596-10.6036937q0-.4403978.4282709-.4405574c2.4113374.0004787,4.822994-.0129247,7.2341719.0065421,1.7319122.0140417,3.2677197.5863992,4.5712014,1.742603,1.1999244,1.0644542,1.8894022,2.4031997,2.0918895,3.9871956.1943495,1.5203298-.0622301,2.9642281-.8367558,4.2964315ZM338.1731937,653.0565375c-.1782335-1.3578932-.7770787-2.5014913-1.8046735-3.4007964-1.1067388-.968556-2.4266556-1.4333671-3.8849148-1.4517171-2.0636466-.0256899-4.1277719-.0063826-6.1918971-.0057443-.3652429,0-.3662003.001117-.3662003.3780081-.0003191,1.7583999-.0001596,3.5169593-.0003191,5.2755187,0,1.7502621-.0001596,3.5005241.0001596,5.2507862q0,.3946028.3990706.3952411c1.9896087.0004787,3.979377-.0023935,5.9689857.0017552,1.0598268.0022339,2.0618914-.2186032,3.0014067-.718359.9985541-.5313495,1.7706863-1.28944,2.2943767-2.2905472.5643793-1.0791341.741815-2.2297531.5840058-3.4341454ZM340.016801,667.3804755c-.4539608-.0047869-.9080811-.0046274-1.3620419-.0001596-.1988173.0020743-.2310493.0343063-.2328045.2336023-.0043082.4869906-.0044678.9741408.0003191,1.4611314.0019148.198179.0354233.2281771.2344001.2336023.2061572.0057443.4127931-.0020743.6189504.0041487.1967429.0057443.225305.0379763.2332832.2356766.0134034.3315749-.0159564.660118-.0864839.9837146-.0912708.4188566-.2323258.8321284-.5848036,1.0907823-.3007789.220518-.3588604.485395-.3247136.8131403.002553.0245729-.0004787.0496245.0009574.074357.0103717.1822226.0441993.1994555.2112633.1067486.0288812-.016116.055688-.0354233.0836118-.053135.7017643-.4432699,1.1214187-1.081368,1.290557-1.8870088.1466397-.698573.1584475-1.4079964.1477566-2.0673166,0-.3647643.00367-.6784679-.0012765-.992012-.0030317-.2024872-.0330298-.2353575-.2289749-.2372723Z" fill="#fff"/>
        <g mask="url(#mask)">
          <path d="M298.7188176,938.3874442v-61.1270533h1.9999804v64.8412342c3.3325028,6.3793853,6.1877485,13.3301708,8.664986,20.7566179l-1.9058374.7612818c-4.3795645-15.1385144-11.9017502-28.9443467-22.5649614-41.5132357l.5714002-2.0939638c4.9509647,5.5222053,9.3305292,11.7101133,13.2344322,18.375119ZM306.6225218,929.4385931l11.7101133,3.2367642v22.0892999h1.9999804v-21.5178997l19.2340542,5.3323236v25.0404437h2.0939638v-24.4690436l21.1381364,5.8081447c-.5714002-10.4750848-2.095719-21.7095366-4.761083-33.8970666l-1.9998208.5714002c2.4754823,10.8548481,3.9998012,21.0423977,4.761083,30.7542859l-19.1383156-5.3324832v-38.4663532h-2.0939638v37.8949531l-19.2340542-5.3323236v-44.6542613c0-3.3325028,1.332682-5.0467033,4.0937846-5.0467033h33.8970666c3.0468825,0,5.3324832.8570205,6.7591486,2.3795841,1.3344372,1.7142005,2.1914577,7.5221857,2.6671192,17.5198537l1.9998208-.5714002c-.5714002-9.997668-1.5243189-16.0912735-2.9527395-18.2811355-1.5225637-2.0939638-4.2836663-3.1426212-8.1877289-3.1426212h-34.6581889c-3.8081643,0-5.6182631,2.2856007-5.6182631,6.7609039v44.4643796l-11.7101133-3.2367642v2.095719ZM509.0947662,873.0223601c.6574054,10.8950583,1.3149703,27.4039119,1.9819496,49.5289542h-15.3552028l8.4194164,18.3246966v18.8233354h-62.4062812v-18.3272496h7.4296383v-15.3552028c0-26.4190803-3.3041004-44.4137977-9.9052802-53.9868648l-8.9155022,8.4218099c5.9436149,11.8849959,9.2405349,30.5372783,9.9052802,55.9664209v9.4115879h-17.8310043c1.3149703,6.6011799,2.3071419,13.0410401,2.9717277,19.3170277l-17.8310043,1.4858638c-.3322131-3.3041004-.9897781-7.9257241-1.9795561-13.869339-.3347661-2.9718872-.6671388-5.2862095-.9921715-6.9335526h-10.4015256v-17.3349185h7.4296383c-2.9718872-15.8488951-6.7720734-29.5545211-11.3913036-41.1095378l13.8694986-9.9052802c.3250327.6574054.6574054,1.3148108.9897781,1.9795561.3250327.9921715.4960858,1.6497365.4960858,1.9821092,1.3149703-.9899376,2.4756419-2.1531622,3.4655795-3.467973-3.9616653-4.6264107-9.4091945-9.9054398-16.3451405-15.8490547,4.2890915-4.286698,7.9257241-8.7444491,10.8974518-13.3732532,6.9335526,6.2759876,12.706274,11.8873894,17.3349185,16.8412262,3.6294522-3.3066534,7.0972656-6.935946,10.4015256-10.8976113l4.9538368,4.9539964c.9897781-1.3173638,2.3047484-3.1357599,3.9616653-5.4500822,2.3071419-3.29692,4.1253784-5.9436149,5.4475291-7.9233306,8.9155022,12.2197621,14.6882236,23.278693,17.3349185,33.1839733,2.9718872,9.5730671,4.6216237,24.92827,4.9538368,46.0635342v15.8488951h15.8490547l-16.8388328-40.613452h19.81072l1.4858638,3.9616653h3.467973c0-8.5904694-.3323727-17.6672912-.9897781-27.2401988,0-6.935946-3.1429403-10.0763333-9.4115879-9.4117475-4.9539964,0-9.9054398.1614792-14.8592766.4962453,0-.6671388.1637131-1.4860234.4960858-2.4781949,1.647343-6.9335526,2.8008342-12.3810817,3.4655795-16.3451405h8.4218099c4.9514434.3347661,8.580736.4960858,10.8950583.4960858,13.5371259-.3250327,19.9744331,7.2683187,19.3170277,22.7850007ZM416.9702508,891.8431425c-.6671388.6574054-1.6569169,1.4858638-2.9718872,2.4758015-1.3245442,1.3148108-2.3143223,2.1432692-2.9718872,2.4756419,1.9797157,5.6114018,4.2868576,15.0229897,6.9335526,28.2325299.3250327,1.6495769.6574054,2.8008342.9897781,3.4678134h4.9538368c-1.3221507-16.516034-3.636473-28.7284561-6.933393-36.6517867ZM664.7664483,936.0580702h-16.9259549l9.2805855,20.1992594v20.7486397h-68.7899748v-20.2018124h8.1896436v-16.9261145c0-29.1214632-3.6422174-48.9570753-10.9185143-59.5092297l-9.8275724,9.2832981c6.5517149,13.1007172,10.185954,33.6609113,10.9185143,61.6914326v10.3743996h-19.6549851c1.4494832,7.2762969,2.5431377,14.3748391,3.2758575,21.2929139l-19.6549851,1.6379287c-.3663599-3.6422174-1.0911015-8.7364709-2.1822029-15.2881858-.3689129-3.2758575-.7352728-5.8269733-1.0936545-7.6426568h-11.4655011v-19.1081579h8.1896436c-3.2758575-17.4702292-7.4649021-32.5779476-12.556443-45.3148579l15.2880262-10.9186738c.3583817.7247416.7247416,1.4494832,1.0911015,2.1822029.3583817,1.0936545.5468273,1.8183961.5468273,2.184756,1.4494832-1.0911015,2.7290302-2.3733611,3.8201317-3.8226847-4.3669589-5.0996787-10.3718466-10.9186738-18.017216-17.4702292,4.7278936-4.7253406,8.7364709-9.6391268,12.0123283-14.7413585,7.6426568,6.9180748,14.0059261,13.1034298,19.1081579,18.5640432,4.000599-3.6449299,7.8232837-7.645529,11.4655011-12.0123283l5.4606134,5.4606134c1.0909419-1.4521957,2.5404251-3.4563248,4.3667994-6.0074407,2.5431377-3.6342391,4.5474263-6.5517149,6.0048877-8.7339179,9.8274128,13.4697897,16.1906821,25.6598728,19.1081579,36.5785466,3.2758575,10.5521544,5.0942535,27.4782689,5.4606134,50.7754714v17.4702292h17.4702292l-18.5613306-44.7680307h21.8371881l1.6379287,4.3669589h3.8226847c0-9.4691907-.3663599-19.4745178-1.0911015-30.0268317,0-7.6453694-3.464303-11.1069598-10.3743996-10.3743996-5.4606134,0-10.9185143.1779143-16.3791277.5468273,0-.7352728.1804674-1.6377692.5468273-2.7315832,1.815843-7.6426568,3.0874119-13.6475445,3.8201317-18.0170564h9.2832981c5.4579008.3689129,9.4584999.5468273,12.0096157.5468273,14.9218259-.3583817,22.0176554,8.0117293,21.2929139,25.1155986.7247416,12.0096157,1.4494832,30.2072991,2.184756,54.5956031ZM561.0333026,902.2085538c-.7352728.7247416-1.8263743,1.6379287-3.2756979,2.7290302-1.460174,1.4494832-2.5511159,2.3626703-3.2758575,2.7290302,2.1820434,6.185355,4.725181,16.5595951,7.6426568,31.1204862.3583817,1.8183961.7247416,3.0872523,1.0911015,3.8226847h5.4606134c-1.4574614-18.2056616-4.0085772-31.6673135-7.6428164-40.4012313ZM711.8160906,895.6506159l-.9219632,1.2296034c5.8376641,7.9877946,9.8315615,17.7418078,11.9815324,29.2639543l1.6133558-.1546179c-.9991924-5.2220646-2.3047484-10.0619725-3.9938973-14.5166918h26.1920201c0-23.4262901-.3851885-37.9429819-1.0765811-43.5502351-.6913926-6.6048499-4.1469196-9.9845837-10.3681766-9.9845837h-7.0672675l-.3835929,1.6133558c2.9187523,0,5.376523-.0773887,7.5266535-.0773887,4.9930897,0,7.8346128,2.76573,8.6032346,8.2182057.6141634,5.2994534.9977563,19.3565997,1.1523742,42.0914972h-25.2700569c-2.1499709-5.2235007-4.8383122-9.9861794-7.9876351-14.133099ZM686.9296265,866.6944614h18.1269963v-5.2235007h1.6891489v50.156521h-13.2870885c1.6891489,4.3001014,2.994705,8.9853914,3.9165086,14.2088921l-1.6891489.230411c-.7686218-5.0688828-1.9969487-9.8314019-3.8407155-14.4393031h-6.6048499v-52.3064919h1.6891489v7.3734716ZM686.9296265,909.9368967h18.1269963v-19.5097815h-18.1269963v19.5097815ZM686.9296265,888.8151954h18.1269963v-20.5088143h-18.1269963v20.5088143ZM733.7822067,877.907372l-1.2281673-.9977563c-3.5329157,5.2235007-8.4486167,11.0595692-14.6698737,17.358215l1.305556.8445745c6.451668-6.6048499,11.2901398-12.2893322,14.5924849-17.2050331ZM296.0636658,774.8215791h32.8224003v22.3193918h-32.8224003v-22.3193918ZM298.980982,794.0794084h26.9877679v-16.1935543h-26.9877679v16.1935543ZM328.5951801,819.3161164h-32.0938292v2.9173162h32.0938292v-2.9173162ZM344.4951359,791.8908229c-.8726578-6.5662353-2.479631-12.8387124-4.8123032-18.9642308l-3.064275,1.0194571c2.3355444,5.834792,3.9396454,12.1099818,4.959262,18.6733449l2.9173162-.7285711ZM376.4448784,774.6747798l-2.7706765-1.0196166c-2.0417863,6.2724772-4.5241299,12.2540684-7.2946468,18.0887008l3.0641155.8755299c3.0614029-6.4192764,5.3969472-12.4008677,7.0012079-17.9446142ZM358.7938627,772.632834l-2.9174758-.2908859c-.4376852,8.314423-1.4600144,14.7336994-2.9173162,19.1110301l3.2083617.2908859c1.1662563-4.6682165,2.0417863-10.9406937,2.6264303-19.1110301ZM341.2869337,801.8120596c9.6274786.7285711,19.1110301,1.6041011,28.4476227,2.7705169-1.6041011,4.2305314-3.3550014,8.1701768-5.2528606,11.8162237l2.9201884.8755299c3.0614029-5.9815912,5.8346324-12.9826395,8.4610627-20.86209l-2.9200288-.7285711c-.7287307,2.1885855-1.4573018,4.2305314-2.0419458,6.1283905-11.5253377-1.460174-22.757077-2.6265898-33.6977707-3.2110743l-1.0223292,3.2110743c.5844845.2908859,1.1664159.5817719,1.6041011.8726578,5.9815912,4.0864447,12.8385529,10.5058807,20.4242452,19.1110301-8.1701768-.5817719-15.6090698-1.1664159-22.466191-1.6041011l-.7285711,2.9173162c.4376852.2937581.8755299.584644,1.3132151,1.1691285,7.0010483,6.2724772,13.2735255,13.8581695,18.526386,22.6102777l2.9174758-1.0196166c-6.1256779-9.9212367-12.2540684-17.3599702-18.0887008-22.4660315,7.0010483.2908859,14.0049688.8753704,21.1528163,1.4573018,2.7705169,3.2109147,5.5439061,6.7101624,8.314423,10.3589219l2.6264303-1.0223292c-12.5449544-16.0469146-22.6102777-26.8435216-30.4895685-32.3845555ZM273.0129903,772.9265921l-3.064275-.2937581c-.4376852,7.8794504-1.1664159,13.8608821-2.1887451,18.2356597l3.064275.1467993c1.1664159-4.3774902,1.8978592-10.3589219,2.1887451-18.0887008ZM296.501351,809.3977519h32.0938292v-2.9201884h-32.0938292v2.9201884ZM286.433315,776.4256802c-1.6041011,5.5439061-3.4990881,10.7967666-5.6878332,15.7560287l3.0641155.8753704c2.3328318-5.5437465,4.2306909-10.7938945,5.5410339-15.6090698l-2.9173162-1.0223292ZM292.9995503,835.8007162h18.3822994c-1.3132151,4.3774902-2.7732295,8.1703363-4.3773306,11.3814106l3.0641155.5817719c1.6041011-3.5019602,3.0614029-7.4388931,4.5215768-11.9631825h17.6508561v-3.0614029h-39.2415172v3.0614029ZM252.4417863,719.5302752c23.9262054,0,43.9127654,3.355161,59.6687941,10.0680359-14.0049688,5.250148-24.5081368,11.6694244-31.5118977,19.2551167l2.7732295,1.460174c6.854249-7.5856923,17.6510157-13.8581695,32.5315144-18.9642308,13.7140828,6.4165638,24.2170914,15.4622706,31.5118977,26.840809h-67.5453723c-6.1283905-7.8765782-14.4426539-14.4428135-24.6547765-19.6929615l-2.0419458,2.3328318c15.6090698,7.8792908,26.1122379,18.3824589,31.6559844,31.5118977l3.0641155-.5844845c-1.6041011-3.7928462-3.5018007-7.2920938-5.6905458-10.5031681h84.3235706v-3.0641155h-15.3181839c-7.5856923-12.1072692-18.091573-21.4438618-31.3650985-28.1540242,15.1713846-4.8151754,33.8447295-8.6080215,56.1639617-11.2344518l-1.0194571-2.7705169c-23.7794062,2.7705169-43.4750802,6.854249-58.9373508,12.1071096-16.7783579-7.4388931-37.6402883-11.2317392-62.5861103-11.3785385l-1.0223292,2.7705169ZM253.6109147,770.8819337l-3.0641155,1.0223292c2.6264303,6.1283905,4.3773306,12.6917536,5.2528606,19.5487152l3.0614029-.5844845c-1.0194571-7.0012079-2.7705169-13.5672836-5.250148-19.98656ZM251.1285711,820.4852449l-.7285711,2.9174758c.4376852.2908859.8753704.5817719,1.3132151,1.1664159,6.8569616,6.1255184,12.8385529,13.567124,17.7978149,22.1751455l3.0641155-1.0223292c-5.9814317-9.4833919-11.8162237-16.7754857-17.506929-22.0283463,7.0039205.5844845,14.0049688,1.3132151,21.0088892,2.1887451,2.6264303,3.2082021,5.1060613,6.4192764,7.7324916,9.7742778l2.7705169-1.0223292c-12.8385529-16.631399-23.0506755-27.8631383-30.9272537-33.8445699,9.4835515,1.1662563,18.6733449,2.6264303,27.7190516,4.5214173-1.3132151,3.5019602-2.7732295,7.0039205-4.2334035,10.2121226l2.9201884.8755299c2.9173162-5.834792,5.3969472-12.6917536,7.729779-20.5683319l-3.0614029-.7314433c-.7314433,2.6264303-1.460174,5.1060613-2.3355444,7.4416056-11.3785385-2.3355444-22.3193918-3.9396454-32.9691995-4.9619746l-.8755299,3.2110743c.5817719.2908859,1.0196166.5844845,1.4573018.8753704,6.2751898,4.3774902,13.4231969,11.3785385,21.5933737,21.0061766-8.1701768-.8755299-15.6117824-1.6041011-22.4689036-2.1860325ZM409.5629515,792.319732h-11.0270181v2.3773502h31.3524929v11.4602355h-23.5673451v15.8908606h2.3775098v-13.6200994h21.1898353v15.459558h2.3773502v-49.4051322h-2.3773502v17.8372273h-18.0547136c-.6487889-9.4052053-4.5394481-15.8929349-11.7827151-19.45904l-1.9462072,1.4043264c7.2431075,3.243785,11.0270181,9.1894743,11.4581611,18.0547136ZM466.1046022,824.3187799v-17.4038504h23.1339681v-2.3794246h-23.1339681v-23.1341277h19.9988465v-2.2706016h-42.0530422v2.2706016h19.7834345v23.1341277h-23.1360424v2.3794246h23.1360424v17.4038504h2.2707612ZM481.9953032,755.3478591c-5.5124719-5.1901517-12.215773-9.7315146-20.107829-13.6220142,8.0008789-5.6212948,17.7303192-10.0539943,29.1886399-13.2977793l-1.1887549-1.8375438c-20.8654408,6.2700837-36.1073529,15.8908606-45.6213812,28.8642454l1.8375438,1.1885953c3.783751-4.9725059,8.432022-9.5117944,13.8377452-13.5131912,8.0007194,4.0013968,14.7019461,8.6495083,20.3253153,13.8375857l1.7287209-1.6198979ZM421.6719759,747.8871058c-7.35209-3.7839106-15.8927754-7.1344441-25.7291238-10.1607429l-1.2975778,2.1619383c20.5410463,5.8368663,35.1343291,13.2957049,43.7838374,22.3784306h-40.3243213v2.2686869h44.8636098c-1.5129898,3.6770024-3.3505336,7.2432671-5.5124719,10.595875l2.1619383.6487889c2.1619383-3.243785,4.1081454-7.0276956,5.8368663-11.2446639h43.5682659v-2.2686869h-48.2163773c-4.108305-4.7569344-9.7295998-9.1894743-16.864044-13.1908711v-20.538972c9.1875595,2.0531153,17.7284044,4.4325399,25.7291238,7.0256212l.4332174-2.2686869c-8.2162909-2.5949961-18.0547136-4.9745802-29.6216977-7.2432671l-.4332174,2.1619383c1.0820063.3243945,1.6219723.7555375,1.6219723,1.1887549v18.4858567ZM588.2356846,697.0208422h59.1353702v-16.3952437h-141.6892119v16.3952437h59.1353702v5.8531419h-46.8396555v15.8086849h46.8396555v5.8560141h-52.6956696v16.9787708h128.8098106v-16.9787708h-52.6956696v-5.8560141h46.8396555v-15.8086849h-46.8396555v-5.8531419ZM632.7322962,805.9224389h-53.8657554c.3843907.7770787.7801104,1.7564851,1.172958,2.9265709,1.1700859,2.727275,1.9473241,4.683056,2.3401717,5.8560141l-26.3450424,1.7564851c-.3957198-1.172958-.7885673-2.9294431-1.172958-5.2696148-.7856952-2.3428843-1.3720944-4.0993694-1.7564851-5.2694553h-32.7874557v-59.7217695h112.4145669v59.7217695ZM609.9003835,763.1821528h-66.7478694v6.4397007h66.7478694v-6.4397007ZM609.9003835,782.5010953h-66.7478694v6.4425728h66.7478694v-6.4425728ZM712.9087877,675.8476017h26.6145467v8.8725793h52.5455194v-8.8725793h26.6145467v76.4326316h-105.7746128v-76.4326316ZM739.5233344,727.712898h52.5455194v-19.7891788h-52.5455194v19.7891788ZM829.6,791.1750169v-24.5639844h-121.4693688c0-22.297691-1.5993141-39.5817085-4.7748056-51.8652963-3.1885757-12.7415377-9.3303696-26.3790296-18.4253818-40.9455056-8.6469552,9.108256-15.6945964,15.930273-21.1563267,20.4727528,12.7316447,18.1932155,18.6511654,42.7571999,17.7453182,73.7018462v60.7346844c41.390052.4478973,86.2077072,2.4952683,134.4331797,6.1417939l10.2363764-25.9309727c-25.4830754-1.3671479-64.8292668-3.1887353-118.0583602-5.4615708v-12.2837474h121.4693688ZM319.5384635,683.8652348c.0722827-.4147079.1456823-.8294158.2138163-1.244762.0323916-.1980194.0043082-.2297728-.2016894-.2353575-.1898817-.0052656-.3799229-.0047869-.5698045-.0001596-.200732.0049465-.240304.0394124-.2770038.2404636-.0856861.4710342-.1685.942547-.2514735,1.4140599-.2572178,1.4633653-.5144357,2.9267305-.7708557,4.3902553-.2921624,1.6666503-.5827292,3.3337793-.8753704,5.0004297-.2312088,1.3170447-.4648111,2.6337702-.6968178,3.9506554-.2790782,1.5852725-.5575181,3.1705449-.8362771,4.755977-.0151586.0866435-.0244134.1753613-.0957386.2878542-.0761122-.1602027-.1412145-.2896094-.1997746-.4220479-.6743192-1.5251167-1.3465641-3.0511908-2.0215216-4.5759883-.7284116-1.6455878-1.4604931-3.28958-2.188426-4.9353274-.6577245-1.4872999-1.310343-2.9769933-1.9683866-4.4642932-.6111317-1.3815087-1.2264121-2.7612622-1.8396181-4.1418135-.0502628-.1132907-.1016425-.2259432-.1475971-.3409892-.0550497-.1372254-.1595644-.1710531-.2969494-.1699361-.1353106.001117-.2079124.0609536-.2608878.1822226-.3041298.69602-.6146421,1.3891678-.9216441,2.0839113-.4103997.9288245-.8188846,1.8584467-1.2292843,2.7871116-.4638538,1.0496147-.9293032,2.0985912-1.3931569,3.1482059-.4103997.9288245-.8180868,1.8587659-1.2291247,2.7872712-.4778954,1.0794533-.9589821,2.15763-1.436718,3.2372429-.4810867,1.0871124-.9600991,2.1751821-1.4397497,3.2629327-.1697765.3853481-.338117.7711748-.5088509,1.1560442-.0489863.1100994-.1038764.2176459-.1707339.356786-.1032382-.1625961-.1030786-.3063637-.1268537-.4399191-.3633282-2.0314146-.7234651-4.0634674-1.0831233-6.0955202-.4230053-2.3897963-.8436171-4.7800712-1.2675797-7.1695483-.3346066-1.8857323-.6730427-3.7708263-1.0095641-5.6560798-.0245729-.1381828-.0462737-.2768443-.070687-.415027-.0397315-.2254645-.0652618-.251314-.2845034-.2567391-.1897221-.0046274-.3799229-.0051061-.569645.0001596-.2243476.0060634-.2559413.0472311-.2157311.2754082.1145673.6503846.2328045,1.3001309.3475313,1.9505154.3082785,1.7478686.6144826,3.4958968.9233993,5.2436058.2484418,1.4064008.5007131,2.8120037.7491549,4.2184045.3290218,1.8614785.6550119,3.7234356.9840338,5.5849141.2500374,1.4145385.5010323,2.828758.7555375,4.2423391.0406889.2269006.0577623.4589073.1324385.6794253h.049465c.1914773-.0786653.3930072-.0461141.5879949-.0371785.2170076.0100526.3269475-.0810587.4096019-.2728552.6449594-1.4930442,1.2959822-2.9835354,1.9478028-4.4737075.61544-1.4067199,1.2355073-2.811525,1.8511068-4.2184045.5426786-1.2404538,1.0807298-2.4828223,1.6229297-3.7234356.5421999-1.2406133,1.0872719-2.4799501,1.6305888-3.7200848.3709873-.8469679.7408576-1.6944145,1.1124831-2.5412229.0284025-.0647832.0335085-.1477566.116482-.1774356.0762718.0279238.0797822.1016425.1053125.1594049.7533036,1.706701,1.5062881,3.4137211,2.2586343,5.1210604.7923969,1.7978123,1.5830386,3.5965819,2.3765524,5.3939155.7801104,1.7671759,1.5634121,3.5329157,2.3443204,5.2997725.4271539.9664817.8563822,1.9320059,1.2747601,2.9023172.0770696.1788717.1779143.2607283.3727425.2441336.1475971-.012446.2972685.0004787.4456634-.00367.2158907-.0060634.240304-.0256899.2768443-.2326449.1475971-.8373941.2928007-1.6751072.4394404-2.5125013.2548244-1.455387.510287-2.9107741.7647922-4.3663207.2742912-1.5691565.5474655-3.1386321.8219163-4.7079481.2545052-1.4555466.5104466-2.9107741.7649518-4.3661611.2588135-1.4798004.5168291-2.9597603.7748448-4.4397203ZM288.5173859,704.5379218c.0477098-.1093016.045795-.2251454.045795-.3409892-.0001596-4.5407246.0082973-9.0812896-.0049465-13.6220142-.0043082-1.4525149-.2840247-2.8554052-.9527591-4.1612804-.7686218-1.5007033-1.9010504-2.646695-3.396169-3.4242524-.9099959-.4732681-1.8831792-.7534632-2.9043915-.8567013-1.1507786-.116482-2.2900685-.0651023-3.4113276.2449314-1.2302416.3398722-2.3280448.9173358-3.2745809,1.781058-1.3831044,1.2618354-2.1807669,2.8354597-2.51298,4.6623127-.1080251.5946966-.1471184,1.1935418-.1467993,1.7978123.0030317,4.5324272.0015956,9.0648544.0019148,13.5972817,0,.1072273.00367.2144546.0055848.3218414h1.0406791c.0027126-.1404167.0076591-.2806738.0076591-.4209309.0004787-4.4912596-.0043082-8.9825192.00367-13.4736193.0019148-1.0971649.1724891-2.1705547.5924627-3.1935222.6532567-1.5908572,1.7338269-2.7976429,3.2720279-3.5710516.9790873-.4920967,2.0264681-.7296881,3.1268243-.7529845,1.0957288-.0231368,2.1574705.1235029,3.1711832.549859,1.5104368.6349068,2.651801,1.6741498,3.4114872,3.1306538.4721511.9053685.7394215,1.8669037.8428192,2.880776.0336681.3301388.039572.6586819.0397315.9885016.0009574,4.4746649.0004787,8.9494894.0014361,13.4241543,0,.147278-.0224986.2983855.0496245.4381639h.9910546ZM265.7317469,704.2408129c.0003191-4.9291044-.0035104-9.8583683.0030317-14.7874727.0014361-1.0303074-.1649896-2.0266276-.5670919-2.971249-1.0122767-2.3776694-2.7851969-3.8641715-5.3305684-4.3358439-2.0039695-.3713064-3.8790109.0323916-5.5496504,1.2296034-1.1721602.8399471-2.0034908,1.9519515-2.5089909,3.3034621-.3089167.8262245-.487948,1.6784581-.4865119,2.5645193.0001596.090473-.0110099.1811056-.0191477.2715786-.0106908.1203116.0376572.1953068.1625961.1973812.2391871.0041487.4790124.0092547.7178803-.0007978.1496714-.0063826.1823821-.0526563.1878073-.2331236.008776-.288652.0119673-.5761871.0499437-.8642009.1726487-1.3113004.6609158-2.4794715,1.537084-3.4799403.8667539-.9896185,1.9403033-1.6396839,3.2235203-1.9088691,1.90855-.4001876,3.667269-.0456354,5.1979704,1.1909888,1.0362113.8369154,1.7285613,1.9189217,2.0811987,3.2105956.1705744.6246947.2532287,1.2586441.2525905,1.9077522-.0038295,4.8549069-.0022339,9.7096543-.001117,14.5645612,0,.147278-.0226581.298545.0497841.4381639h.9910546c.0030317-.0990895.0084569-.1980194.0086165-.2971089ZM492.9548255,693.1965619c.0057443-2.1467796-.4960858-4.1714925-1.4828321-6.0742982-.4464612-.8610096-1.0084471-1.6420774-1.6660121-2.3599577-1.3221507-1.4435793-2.9334322-2.4181987-4.7890068-3.0014067-.7413363-.2331236-1.5021394-.387582-2.2776225-.4609816-.5091701-.048348-1.0183401-.1046743-1.5302227-.0906326-1.7499429.0475502-3.4418044.3663599-5.0513307,1.0804107-.9581843.4252392-1.8373842.9741408-2.6420676,1.6417583-.9948841.8255863-1.7998866,1.8128113-2.4462821,2.9311983-.7885673,1.3639566-1.242209,2.8380127-1.445494,4.3940849-.0662192.5075744-.1019617,1.020574-.0984512,1.5297441.0094143,1.3682649.1862117,2.7167437.6269286,4.0189489.4515673,1.3344372,1.1072175,2.5584558,2.0194472,3.6388665,1.037807,1.2291247,2.2750694,2.200872,3.7339669,2.8834886,1.1150361.5216161,2.2836859.8621265,3.5045133,1.0263183.7044769.0946217,1.4111877.1590857,2.1215685.1357893,1.4694287-.0481885,2.9050298-.2825886,4.286698-.8069172,1.056476-.4009854,2.0494454-.9179741,2.9490695-1.6031437,1.3826257-1.0529656,2.4805884-2.3430439,3.2158612-3.9270398.3105124-.6687345.5445934-1.3644353.7062321-2.0840708.0145204-.0643045.0242538-.1298854.0346255-.1949877.0149991-.0939834-.0314342-.1405763-.1211094-.1469588-.0657405-.0047869-.1319598-.0051061-.1980194-.0051061-1.9077522-.0001596-3.8155043.0030317-5.7232565-.0043082-.2273793-.0007978-.3564669.0684531-.4609816.2784399-.455716.916538-1.1625863,1.5894211-2.060934,2.0721035-.6558097.3524778-1.3495958.5873566-2.0893365.6572458-1.502299.1416932-2.916678-.101483-4.151547-1.0355731-.770377-.5825697-1.3061943-1.3457663-1.6660121-2.2361357-.2714191-.6717662-.4022619-1.3716157-.4573116-2.0947616-.0756335-.9955224.0434015-1.9586532.3687534-2.8989663.3735403-1.0794533,1.0191379-1.9572171,1.9626423-2.6050486.6647454-.4561947,1.4062412-.7338367,2.2019889-.8429788,1.2335925-.1691383,2.4391017-.0560071,3.5924333.4418339.9422279.4065701,1.7167535,1.011798,2.2334231,1.9165282.2104655.3685938.1905199.4067297-.2248263.4067297-1.5608591.0001596-3.1217182,0-4.6825773.0003191q-.3869437,0-.3877415.3807207c-.0004787,1.0157871-.0001596,2.0315741-.0001596,3.0473612,0,.0496245-.0014361.0992491.0009574.148714.0095739.2079124.0366998.234081.2537074.2417401.0741975.0027126.1485545.0009574.2229115.0009574h5.5745424v.0007978c1.8830197,0,3.7660393.0001596,5.649059,0,.3942837-.0001596.3928476-.0006383.393805-.4008258ZM466.3895842,703.5245282c0-7.1183281-.0001596-14.2366563-.0004787-21.355144,0-.3693916-.0009574-.3701894-.3732212-.370349-1.46161-.0006383-2.9233797.0028722-4.3849897-.0049465-.2111037-.001117-.3452974.0627088-.4727894.237751-1.4780452,2.0282233-2.9658238,4.0495853-4.4496133,6.0738195-1.1713624,1.5980376-2.3409695,3.1973518-3.511215,4.7963468-.146161.1997746-.2905668.4011449-.4376852.6004409-.043242.0585601-.0772292.1273324-.1654683.1662661-.0536136-.0909517-.0306364-.1905199-.0307959-.2833864-.0012765-2.3286831-.0009574-4.6575257-.0007978-6.9862088,0-1.4121451.0001596-2.8242902-.0001596-4.2364352-.0001596-.3614134-.0038295-.3654025-.3537543-.3654025-1.7424434-.0007978-3.4848868-.0006383-5.2273303-.0009574-.0081378,0-.0164351,0-.0247325.0001596-.3224797.0022339-.3338088.0116482-.3339683.3352448-.0003191,3.5179167,0,7.0358333,0,10.55375,0,3.6087088,0,7.2174176.0001596,10.826286q0,.4332174.4429508.4335365c.7185186.0001596,1.4379945.0258494,2.155077-.0068613.8501592-.0387742,1.6996802-.029679,2.5496798-.0314342.1728083-.0003191.2739721-.0804205.3662003-.2072742.4461421-.6146421.8943585-1.2278482,1.3428941-1.8407351,1.540754-2.1052929,3.0824654-4.209788,4.6225811-6.3154.7261777-.9926502,1.4494832-1.9875344,2.1747034-2.9809824.0429228-.0588793.0847287-.1209498.1740848-.1707339.0647832.1365871.0414867.2535479.0414867.3658812.0014361,3.5592439.0012765,7.1183281.0007978,10.677572-.0001596.4968836-.0210625.4675237.4767785.4675237,1.6763838.0001596,3.3527675.0004787,5.0291513.0003191q.3896563,0,.3904541-.3786464ZM368.9874758,700.9979853c-1.1076962,1.0259992-2.3830945,1.7658994-3.8048135,2.2584747-1.3537445.4689598-2.7524862.6880418-4.1820238.6920309-2.8731169.0082973-5.7462337.0027126-8.6193506.0027126q-.450929,0-.4512482-.4486951c-.0001596-3.5420109-.0001596-7.0838622-.0001596-10.6257136,0-3.558446,0-7.1168921.0001596-10.6751785.0001596-.4115166.0015956-.412474.4139101-.412474,2.8814142-.0001596,5.7628284.0009574,8.6442427-.0009574.5699641-.0003191,1.1368965.0266473,1.7033501.0981321,1.3481597.1700957,2.6352063.5474655,3.8467789,1.156842,1.1747132.5907075,2.2166689,1.3650736,3.0947518,2.3545325.5897501.6645858,1.0966862,1.3839022,1.5026181,2.1729482.704796,1.3697009,1.1025901,2.8306727,1.1967331,4.3632889.0676553,1.1043453.0373381,2.2102863-.1828608,3.3039408-.4534821,2.2512943-1.4671948,4.1901616-3.162088,5.7601158ZM365.1786732,689.6424241c-.789046-1.1871593-1.9160495-1.8584467-3.2950052-2.1362484-.3481696-.0700488-.7004878-.1086634-1.0572738-.1073869-.792716.0027126-1.585432,0-2.378148-.0001596-.0577623,0-.1155246.0015956-.173287.0051061-.0990895.0059039-.148714.0628684-.1528627.1594049-.0035104.0824948-.0046274.1651492-.0046274.247644-.0003191,1.6928189-.0001596,3.3856378-.0001596,5.0782971,0,1.6928189-.0001596,3.3856378.0001596,5.0784567q0,.372902.3662003.3736999c.7019239.0004787,1.4040073.0122865,2.105612-.0030317.9999902-.0217008,1.9695036-.1836586,2.8648195-.6704897.9149424-.4976814,1.5999524-1.2101365,2.0566258-2.1439075.4531629-.9267501.6167165-1.914773.5729958-2.9348683-.0453163-1.056476-.3122676-2.054711-.9050494-2.9465165ZM414.8864991,685.1203685c-.7915991,1.4488449-1.5838364,2.8973707-2.3711272,4.348609-.230411.42492-.2209967.3409892.1397784.587197.9999902.682457,1.7995675,1.543307,2.3655425,2.6194094.708466,1.3473619.8892525,2.7920581.7635157,4.2809537-.0896752,1.0623799-.3930072,2.0714652-.9119106,3.0125762-.7062321,1.280664-1.7105305,2.2525709-2.9927902,2.9447613-1.3234273.7143699-2.7505714,1.024244-4.2407435,1.0314244-3.0800719.0145204-6.1603034.0047869-9.2403753.0054252-.4482164,0-.438483.0212221-.438483-.4293878.0006383-3.5426492.0003191-7.0851387.0003191-10.6277879,0-3.5673816-.0001596-7.1347633,0-10.7021449q0-.4009854.3918902-.4016236c1.7671759-.0001596,3.5343518-.0001596,5.3015277.0003191.4534821.0001596.452046-.0379763.4518864.441036-.001117,1.9983847-.0009574,3.9967695-.0001596,5.9951542.0001596.295992.0154777.3113102.3046085.3122676.5367747.0019148,1.0735494-.0059039,1.6101645.0039891.1991364.00367.318331-.0659001.4094423-.2452505.2656748-.5224139.5476251-1.0365304.8215972-1.5546361.8179272-1.5474557,1.6387265-3.0933158,2.4483564-4.6449201.1182372-.2264219.2588135-.3145015.5198609-.3132249,2.0314146.0111695,4.0628291.0065421,6.0942437.0068613.3910924.0001596.3939645.0044678.2029659.3532756-.5429977.992012-1.0877506,1.9832261-1.6301101,2.9757168ZM409.0529837,694.629929c-.4222074-.5508164-1.0165849-.8072364-1.6865959-.8795191-1.0113193-.1091421-2.0279042-.0317533-3.041936-.0465928-.1903603-.0028722-.2171672.0330298-.217965.2444527-.0028722.7178803-.001117,1.4357606-.001117,2.1536409h-.0004787c0,.6931478-.0009574,1.3862956.0003191,2.0794435.0006383.2999811.0129247.3135441.3010981.3140228.8581374.0012765,1.7164344.0063826,2.5745718-.0023935.4493334-.0044678.8841464-.0938239,1.2927909-.2924816.5886331-.286099.9910546-.7311242,1.166735-1.3663501.2198798-.7947904.1211094-1.540754-.3874224-2.2042228ZM393.5190687,687.6317529c-.9506848,2.3680955-1.9000931,4.7365101-2.8504587,7.1046056-1.1932227,2.9736424-2.3867645,5.9471253-3.5804659,8.9204487-.1174394.292322-.1183968.2937581-.4330578.2937581-1.7756328.0006383-3.5512656.0006383-5.3268985.0001596-.3279049,0-.3301388-.0004787-.4499717-.3050872-.7221885-1.8365864-1.4432601-3.6738111-2.1648104-5.5107167-.7276137-1.8522237-1.4552275-3.704607-2.1831603-5.5568308-1.1053027-2.8128015-2.210765-5.6257626-3.3165464-8.4384046-.2718978-.6917117-.545072-1.3827852-.8169698-2.074497-.1010043-.2570583-.0890369-.2731743.1935516-.276206h.0247325c1.9739714,0,3.9477832-.0001596,5.921595.0001596.3186501,0,.3184906.0012765.4199735.2975876.3430635.9998306.6859674,1.9995017,1.0291905,2.9993323.0943026.2749295.096696.278759.3850289.278759,2.4116566.0007978,4.8231536.0007978,7.2346506.0001596.3006194,0,.3009385-.0019148.3995493-.292322.337-.9931289.6738405-1.9862578,1.0108406-2.9793868.1025999-.3025341.1027595-.3036511.4153462-.3038106,1.0076493-.0006383,2.015139-.0001596,3.0227883-.0001596.9991924.0001596,1.9985443,0,2.9978962.0003191.4107188,0,.413591.0031913.2658343.3713064-.7325602,1.8238213-1.466397,3.6470043-2.1986381,5.4708256ZM386.1556496,690.177284c-1.4287398-.0015956-2.8574796-.0007978-4.2862193-.0004787-.0330298,0-.0663788-.001117-.0990895.0028722-.1319598.0164351-.1598835.0496245-.1223859.1787121.048348.1664257.1073869.3298196.1651492.4932136.5666132,1.6037819,1.1340243,3.2074043,1.7011162,4.8110267.1100994.3114697.2187628.6232586.3301388.9342497.0327107.0912708.0595175.1866904.156054.3042893.1008447-.2738125.188286-.5042236.2709404-.7363898.5538481-1.5557531,1.1064197-3.1119848,1.6601082-4.6678974.1273324-.3577434.2594517-.7138912.3859863-1.0719537.0797822-.2257836.0665384-.2474844-.1617983-.247644ZM433.4390537,686.9536041c.0003191-1.5852725.0003191-3.1705449.0001596-4.7558174q0-.4027406-.3894967-.4035384c-4.433976-.0009574-8.8677924-.0017552-13.3016088-.0023935q-.3855076,0-.3863055.3819972c-.0003191,3.5586056-.0001596,7.1172112-.0001596,10.6758168h.0004787c.0003191,3.5586056.0001596,7.1172112.0003191,10.6759764q0,.4226861.4194948.4228457c1.7917488-.0001596,3.5834976-.0003191,5.3752465-.0006383q.4029001-.0001596.4033788-.4139101c.0001596-5.2348298.0003191-10.4695.0003191-15.7043298-.0001596-.4445465-.0204242-.4341748.4335365-.4341748,2.3366613.0004787,4.6733226-.0001596,7.0099839-.0004787q.4343343-.0001596.4346535-.4413552ZM442.3563111,703.526443c.0001596-7.1095521.0003191-14.2189446.0004787-21.3284967q0-.4013045-.3915711-.4019428c-1.8083435-.0006383-3.616687-.0009574-5.424871-.001117q-.3778485,0-.3784868.3902946c-.0001596,3.5670625,0,7.1342846,0,10.7013471h.001117c0,3.5506274-.0001596,7.1012548,0,10.6518821q0,.407368.4100805.4078466c1.783611-.0001596,3.5670625-.0003191,5.3506735-.0007978q.4319409,0,.4325791-.4190162ZM339.2119581,698.75435c-.2024872,1.583996-.8919651,2.9227414-2.0918895,3.9871956-1.3034817,1.1562038-2.8392892,1.7285613-4.5712014,1.742603-2.4111779.0194669-4.8228345.0060634-7.2341719.0065421q-.4279518.0001596-.4282709-.4405574c0-3.5346709,0-7.0691823.0001596-10.6036937.0001596-3.5346709.0001596-7.0691823.0003191-10.6036937,0-.0907922.0015956-.1817439.0028722-.272536.0019148-.121269.0652618-.1817439.1850947-.1830204.1651492-.0017552.3304579-.0031913.4954475-.0027126.3500843.001117.3545521.0049465.3547117.3654025.0004787,1.1809362.0001596,2.3618725.0001596,3.5428087,0,1.5195319-.0004787,3.0390639.0006383,4.5585958.0003191.2880138.0229773.3074806.3101932.3117889,1.1222165.0165947,2.2453905-.0378168,3.3669687.0414867.4378448.0307959.8729769-.0406889,1.3105025-.0429228.6274073-.0033509,1.2538572.0157969,1.8804666.0424441.2814716.0118078.5600711.0392528.8361175.0864839.8535101.146161,1.660906.4207714,2.4132522.8587757.9779703.5694854,1.7641442,1.3323629,2.3318744,2.308578.7745257,1.3322033,1.0311053,2.7761017.8367558,4.2964315ZM337.589188,695.2045205c-.5236904-1.0011071-1.2958226-1.7591977-2.2943767-2.2905472-.9395153-.4997557-1.9415798-.7205929-3.0014067-.718359-1.9896087.0041487-3.979377.0012765-5.9689857.0017552q-.3984323,0-.3990706.3952411c-.0003191,1.7502621-.0001596,3.5005241-.0001596,5.2507862.0001596,1.7585594,0,3.5171188.0003191,5.2755187,0,.3768911.0009574.3780081.3662003.3780081,2.0641253.0006383,4.1282506.0199456,6.1918971-.0057443,1.4582592-.0183499,2.778176-.4831611,3.8849148-1.4517171,1.0275948-.899305,1.6264401-2.0429032,1.8046735-3.4007964.1578092-1.2043922-.0196264-2.3550112-.5840058-3.4341454ZM340.2457759,684.0774555c.0049465-.3135441.0012765-.6272477.0012765-.992012.0106908-.6593202-.001117-1.3687436-.1477566-2.0673166-.1691383-.8056407-.5887927-1.4437388-1.290557-1.8870088-.0279238-.0177117-.0547306-.0370189-.0836118-.053135-.1670639-.0927069-.2008916-.075474-.2112633.1067486-.0014361.0247325.0015956.0497841-.0009574.074357-.0341468.3277453.0239347.5926222.3247136.8131403.3524778.2586539.4935327.6719258.5848036,1.0907823.0705275.3235966.0998873.6521398.0864839.9837146-.0079782.1977003-.0365403.2299323-.2332832.2356766-.2061572.006223-.4127931-.0015956-.6189504.0041487-.1989768.0054252-.2324854.0354233-.2344001.2336023-.0047869.4869906-.0046274.9741408-.0003191,1.4611314.0017552.199296.0339872.231528.2328045.2336023.4539608.0044678.9080811.0046274,1.3620419-.0001596.1959451-.0019148.2259432-.034785.2289749-.2372723Z" fill="#fff"/>
        </g>
      </g>
    </g>
  </g>
</svg>