<?xml version="1.0" encoding="UTF-8"?>
<svg xmlns="http://www.w3.org/2000/svg" version="1.1" xmlns:xlink="http://www.w3.org/1999/xlink" viewBox="0 0 1080 1080">
  <defs>
    <clipPath id="clippath">
      <rect x="-1100" y="416.1527591" width="1080" height="247.6944817" fill="none"/>
    </clipPath>
  </defs>
  <!-- Generator: Adobe Illustrator 28.7.3, SVG Export Plug-In . SVG Version: 1.2.0 Build 164)  -->
  <g>

    <g id="asylum">
      <path d="M177.462003,529.568007v85.179226h-22.2228495v-85.179226h-15.2391535v-22.2228495h15.2391535v-42.0926296l22.2228495-22.22273v64.3153596h15.239034v-.0001195l11.1114248,11.1113053-11.1114248,11.1115442v.0001195h-15.239034ZM428.5058609,520.4013833h19.2078523v22.222969h-19.2078523v72.1228808l-22.22273,22.222969v-94.3458498h-108.0669903l-22.222969-22.222969h41.4308213l24.1130475-24.1130475h-37.520071v-22.2228495h57.8364731v-8.8129584h22.2228495v8.8129584h57.8365926v22.2228495h-37.520071l24.1130475,24.1130475ZM348.8518197,520.4013833h48.2262144l-24.1131669-24.1130475-24.1130475,24.1130475ZM312.8556163,548.6631883h88.001619v53.6247488h-88.001619v-9.0200199h-.0001195v-35.0175302h.0001195v-9.5871987ZM378.6343857,570.8860378h-43.5560395v9.1790498h43.5560395v-9.1790498ZM595.9629428,592.5243836h9.9667916v22.2228495h-32.1896411v-10.2650175h-64.6695029l-1.6413179,10.2650175h-22.5051844l18.225953-113.9893318h92.8129016v91.7664823ZM573.7400933,522.9807508h-51.6381292l-.5885661,3.6813457h52.2266953v-3.6813457ZM511.1948527,591.1968242h26.9227753v-8.2267819h-22.2590524l2.1242623-13.2853914,3.4392761-21.5114564h16.695514v-8.2257066h-18.7284924l-8.194283,51.2493363ZM557.6563248,561.4585858h-6.2533053v8.226065h6.2533053v-8.226065ZM538.1176281,561.4585858h-5.365438l-1.3153723,8.226065h6.6808103v-8.226065ZM573.7400933,591.1968242v-51.2493363h-22.3370739v8.2257066h6.2533053v-.0001195h13.2853914v34.7981621h-13.2853914v-.0011948h-6.2533053v8.2267819h22.3370739ZM553.5791367,465.252528h-22.2228495v8.3142424h-52.3497613l-.0007169-.0001195v.0001195h-.0001195v.0005974l-4.9664892,31.0616159-17.6069192-24.3089972v37.8844897l12.6448508,17.4580452-12.6448508,9.1587379v27.439772l7.6827825-5.5646137-7.6827825,48.0508155h22.5050649l8.5751901-53.6319177,2.0554409-12.8544215,2.9066274-18.1792358,2.0554409-12.8546604,3.4276864-21.4373779h107.9720025v-22.2228495h-52.3505977v-8.3142424ZM874.1679418,592.5243836h-48.7938712v-27.7959464l15.7136147-15.7136147v-31.4278268l-65.7322912,65.7324106v31.4278268l27.795827-27.795827v27.795827h93.2390923v-16.4495015l-22.2223716-22.222969v16.449621ZM865.0710952,572.9977545l-23.983171-23.9830515-15.7138537,15.7139731,23.9830515,23.9830515,15.7139731-15.7139731ZM850.7282923,496.1637166l-75.3728982,75.3730176v-31.4278268l15.0759417-15.0759417-10.4327696-10.4327696-4.6431721,4.6430526v-31.4277073l22.5631329-22.5630134h31.4278268l-8.6883391,8.6883391h30.0702775v22.2228495ZM819.3005849,496.1637166h-20.8655392l-2.7226258,2.7225064,10.4328891,10.4327696,13.155276-13.155276ZM854.2815538,533.3132754l22.2230885,22.2228495h40.8236161v-22.2228495h-40.824333v-37.1495588h18.6014835v7.4632949h-11.0053251l22.2230885,22.222969h11.0050862v-51.9091134h-63.0469436v22.2228495h.000239v37.1495588ZM250.4177896,518.4564628l39.0797831,39.0799025v31.4278268l-8.0985782-8.0985782h-35.5837532v11.6587697h43.6823314v22.2228495h-109.5875124v-22.2228495h43.6823314v-11.6587697h-35.5837532v-31.4278268l30.9813243-30.9813243-25.795467-25.7953475h31.4278268l10.0814939,10.0814939,15.2672317-15.2672317h-61.9624096v-22.2228495h93.3903559v22.2228495h-.0001195l-30.9810853,30.9810853ZM223.5923917,567.5802225v-22.2983618l-22.2983618,22.2983618h22.2983618ZM268.113603,567.5802225l-22.2983618-22.2983618v22.2983618h22.2983618ZM708.9274814,465.252528h-24.3772211l-67.409573,149.4947051h24.3776991l35.724383-79.2261778,60.6059357,79.2261778h27.9792311l-78.2092704-102.2378444,21.3088157-47.2568607ZM901.8294715,561.90821h-31.4278268l69.5983553,69.5982359v-31.4277073l-38.1705285-38.1705285Z" fill="#fff"/>
    </g>
  </g>
</svg>