<?xml version="1.0" encoding="UTF-8"?>
<svg xmlns="http://www.w3.org/2000/svg" version="1.1" viewBox="0 0 1080 1080">
  <!-- Generator: Adobe Illustrator 28.7.3, SVG Export Plug-In . SVG Version: 1.2.0 Build 164)  -->
  <g>
    <g id="arcadia">
      <path d="M246.6957804,505.4516362h-59.5058963v-4.3455976h59.5058963v4.3455976ZM246.6957804,522.7316557h-59.5058963v4.3455976h59.5058963v-4.3455976ZM253.9440428,536.4198049h-74.0024211v4.3455976h74.0024211v-4.3455976ZM253.9440428,564.8034273h-74.0024211v4.3455976h74.0024211v-4.3455976ZM253.9440428,597.0082094h-18.9865255v4.3455976h18.9865255v-4.3455976ZM255.4759076,485.7919158h-77.0661508v4.3455976h77.0661508v-4.3455976ZM167.8433968,485.7919158h-14.806604v4.3455976h14.806604v-4.3455976ZM144.3455976,601.0845427v-115.2926269h-4.3455976v115.2926269h4.3455976ZM165.7424566,544.3074928l-12.7057666,12.7056251v6.1454197l15.7785471-15.7782643-3.0727805-3.0727805ZM168.8150486,510.4405335v-24.6486177h-4.3455976v24.6486177h4.3455976ZM165.7424566,507.3677529l-12.7057666,12.7056251v6.1454197l15.7785471-15.7782643-3.0727805-3.0727805ZM164.469391,527.077219v20.3030072h4.3458462v-24.6485705l-4.3458462,4.3455634ZM164.469391,522.7316085v.001697l.001697-.001697h-.001697ZM191.5354817,526.7255694v-24.5264305h-4.3455976v24.5264305h4.3455976ZM246.6974207,526.7255694v-16.9283356h-4.3455976v16.9283356h4.3455976ZM219.115631,591.5026566v-24.5264305h-4.3455976v24.5264305h4.3455976ZM234.3918801,560.4576583v-20.3239315h-4.3455976v20.3239315h4.3455976ZM203.8394529,560.4576583v-20.3239315h-4.3455976v20.3239315h4.3455976ZM253.9440428,601.2180435v-62.2843185h-4.3455976v62.2843185h4.3455976ZM184.2872193,601.2180435v-62.2843185h-4.3455976v62.2843185h4.3455976ZM422.2183756,533.8718051h-50.9354482v4.3455976h50.9354482v-4.3455976ZM410.8927684,579.9227843h-28.2842339v4.3455976h28.2842339v-4.3455976ZM427.2076842,549.8013891h-60.9140655v4.3455976h60.9140655v-4.3455976ZM398.9234503,583.6985181v-46.53364h-4.3455976v46.53364h4.3455976ZM398.9234503,487.3852171v-8.7389868h-4.3455976v8.7389868h4.3455976ZM413.0798121,584.2683819v-7.4244121h-4.3455976v7.4244121h4.3455976ZM422.2184711,535.2131034v-16.2993142h-4.3455976v16.2993142h4.3455976ZM366.2934302,491.7307204v4.3457048h51.579382v-4.3457048h-51.579382ZM427.2076842,491.7307204h-4.9893086v4.3457048h4.9893086v-4.3457048ZM375.6286204,535.2131034v-32.4488645h-4.3455976v32.4488645h4.3455976ZM386.7616971,528.7373886l23.0507102-23.0507102-3.0728015-3.0728015-23.0507102,23.0507102,3.0728015,3.0728015ZM383.6888956,505.6866784l6.9161528,6.9161528,3.0728015-3.0728015-6.9161528-6.9161528-3.0728015,3.0728015ZM409.8124074,525.6645871l-6.9161528-6.9161528-3.0728015,3.0728015,6.9161528,6.9161528,3.0728015-3.0728015ZM427.2076842,599.4350162v-49.6336271h-4.3455976v49.6336271h4.3455976ZM370.6392163,601.2180435v-51.4166544h-4.3455976v51.4166544h4.3455976ZM427.2076842,596.8724459h-14.1278721v4.3455976h14.1278721v-4.3455976ZM483.572164,505.5320982h-48.8952245v4.3455976h48.8952245v-4.3455976ZM487.9177615,560.5485111h-15.7564513v4.3455976h15.7564513v-4.3455976ZM475.5689741,533.0403046h-33.4317619v4.3455976h33.4317619v-4.3455976ZM483.572164,588.0567175h-48.8952245v4.3455976h48.8952245v-4.3455976ZM437.7916146,601.2180435v-95.6859454h-4.3455976v95.6859454h4.3455976ZM437.7916146,517.0277516v-23.5385434h-4.3455976v23.5385434h4.3455976ZM434.6769394,560.5485315v4.3455634h24.4476123v-4.3455634h-24.4476123ZM459.1245517,579.365494h4.3455634v-14.4713992h-4.3455634v14.4713992ZM459.1245517,528.8900389v31.6584926h4.3455634v-31.6584926h-4.3455634ZM463.4701493,520.1989289v-19.776919h-4.3455976v19.776919h4.3455976ZM463.4701493,491.7308147v-13.0845844h-4.3455976v13.0845844h4.3455976ZM448.2889274,478.6462303l-14.8429103,14.8429103,3.0727805,3.0727805,17.9156909-17.9156909h-6.1455611ZM877.2286486,556.7678974v-14.4768119h-4.3455976v14.4768119h4.3455976ZM919.407694,597.7850677v-27.9803776h-4.3455976v27.9803776h4.3455976ZM939.9715103,601.2180435v-15.7817526h-4.3455976v15.7817526h4.3455976ZM932.8181109,552.4222998v-23.1679728h-4.3455976v23.1679728h4.3455976ZM940,515.4486875h-74.2988381v4.3455976h74.2988381v-4.3455976ZM928.8598506,529.254327h-55.9767995v4.3455976h55.9767995v-4.3455976ZM924.1269157,545.183911h-42.5526694v4.3455976h42.5526694v-4.3455976ZM932.8181109,561.113495h-59.9350598v4.3455976h59.9350598v-4.3455976ZM926.9347175,596.8724459h-11.8726211v4.3455976h11.8726211v-4.3455976ZM863.6492817,573.9295694h-41.7725776v4.3455976h41.7725776v-4.3455976ZM888.4662667,511.1030899v-7.0430402h-4.3455976v7.0430402h4.3455976ZM921.5804928,516.3115506v-12.2515009h-4.3455976v12.2515009h4.3455976ZM905.0233797,486.6777278v-8.0314975h-4.3455976v8.0314975h4.3455976ZM869.6004028,491.023336v4.3455634h31.0773965v-4.3455634h-31.0773965ZM936.1007591,491.023336h-31.0773965v4.3455634h31.0773965v-4.3455634ZM860.3141794,519.7942851h-11.0327643v4.3455634h11.0327643v-4.3455634ZM844.9358517,479.9422109h-4.3458462v.8169047h4.3458462v-.8169047ZM840.5900055,501.2580655h4.3458462v-11.5840206h-4.3458462v11.5840206ZM840.5900055,569.5838752h4.3458462v-59.634683h-4.3458462v59.634683ZM825.2116779,524.1398485v4.3455634h11.0327643v-4.3455634h-11.0327643ZM873.7683422,578.2751434l-4.3455634,4.3455634h6.1455611l4.3455634-4.3455634h-6.1455611ZM850.8251592,601.2180435h6.1455611l9.90621-9.9060686h-6.1455611l-9.90621,9.9060686ZM893.4964758,564.6925709l-3.0727805-3.0727805-12.3097897,12.3097897h6.1455611l9.2370091-9.2370091ZM701.2734445,588.0567175h-64.5341769v4.3455976h64.5341769v-4.3455976ZM709.9646397,514.0252621h-11.7458568v4.3455976h11.7458568v-4.3455976ZM715.6960708,579.9453627h-9.3529567v4.3455976h9.3529567v-4.3455976ZM675.5246917,590.2290826v-111.5828896h-4.3455976v111.5828896h4.3455976ZM656.6754347,570.2131956v4.3455634h10.158221v-4.3455634h-10.158221ZM671.1792191,570.2131956v4.3455634h4.3455634v-4.3455634h-4.3455634ZM682.5307448,570.2131956h-2.6603989v4.3455634h2.6603989v-4.3455634ZM654.6296485,548.4910356h-9.1991085v4.3455634h9.1991085v-4.3455634ZM616.611343,492.7923627h-4.3455634v39.4723891h4.3455634v-39.4723891ZM616.611343,536.6103152h-4.3455634v47.1008047h4.3455634v-47.1008047ZM612.2657797,601.2180435h4.3455634v-8.815718h-4.3455634v8.815718ZM608.2324724,532.2647518v4.3455634h4.0333073v-4.3455634h-4.0333073ZM621.1486723,536.6103152v-4.3455634h-4.5373293v4.3455634h4.5373293ZM620.9569064,588.0566833v-4.3455634h-4.3455634v4.3455634h4.3455634ZM616.611343,532.2647518h-4.3455634v4.3455634h4.3455634v-4.3455634ZM685.0406725,536.326626h-10.6679941v4.3455634h10.6679941v-4.3455634ZM641.0849766,509.939717h-4.3455634v38.5513186h4.3455634v-38.5513186ZM636.7394133,583.7110573h4.3455634v-30.8744584h-4.3455634v30.8744584ZM632.3938499,548.4910356v4.3455634h4.3455634v-4.3455634h-4.3455634ZM709.9645884,497.2390416h-4.3455634v48.4521547h4.3455634v-48.4521547ZM705.619025,601.2180435h4.3455634v-26.6592845h-4.3455634v26.6592845ZM709.9645884,550.0367596h-4.3455634v20.176436h4.3455634v-20.176436ZM701.2734445,570.2131956v4.3455634h4.3455634v-4.3455634h-4.3455634ZM591.7801989,512.3879855v6.1455611l.0610936-.0610936v-6.1455611l-.0610936.0610936ZM625.5219541,478.6462303l-33.6806616,33.6806616v6.1455611l39.8262227-39.8262227h-6.1455611Z" fill="#fff"/>
    </g>
  </g>
</svg>