<?xml version="1.0" encoding="UTF-8"?>
<svg xmlns="http://www.w3.org/2000/svg" version="1.1" viewBox="0 0 1080 1080">
  <!-- Generator: Adobe Illustrator 28.7.3, SVG Export Plug-In . SVG Version: 1.2.0 Build 164)  -->
  <g>
    <g id="eve">
      <path d="M140,462.1641283l25.1068511-25.1068511v25.1068511h-25.1068511ZM140,554.2854417h25.1068511v-82.8181445h-25.1068511v82.8181445ZM204.7818751,554.2854417h19.8642001v-16.5479683h-19.8642001v-14.1590459h19.8642001v-16.5479683h-19.8642001v-14.1593168h19.8642001v-16.5476973h-19.8642001v-14.1593168h19.8642001v-16.5479683h-19.8642001v-8.5588828h-25.1068511v8.5588828h-8.8826622v16.5479683h8.8826622v14.1593168h-8.8826622v16.5476973h8.8826622v14.1593168h-8.8826622v16.5479683h8.8826622v14.1590459h-8.8826622v16.5479683h33.9895133ZM256.8495188,462.1641283v-25.1068511l-25.1068511,25.1068511h25.1068511ZM231.7426677,554.2854417h25.1068511v-82.8181445h-25.1068511v82.8181445ZM316.3888784,462.1641283v-16.5479683h-19.8643356v-8.5588828h-25.1068511v8.5588828h-8.8826622v16.5479683h8.8826622v14.1593168h-8.8826622v16.5476973h8.8826622v14.1593168h-8.8826622v16.5479683h8.8826622v14.1590459h-8.8826622v16.5479683h53.8538489v-16.5479683h-19.8643356v-14.1590459h19.8643356v-16.5479683h-19.8643356v-14.1593168h19.8643356v-16.5476973h-19.8643356v-14.1593168h19.8643356ZM144.4458017,587.1760019l20.6610494,10.0563961v-35.1632472h-20.6610494v25.1068511ZM311.9429412,562.0691508h-49.4079117v49.15512l49.4079117-24.0482689v-25.1068511ZM165.1068511,642.9427228v-12.2201632l-25.1067157,12.2201632h25.1067157ZM262.5350295,642.9427228h53.8537134l-53.8537134-26.2123069v26.2123069ZM170.7923618,562.0691508h86.057157v79.8168863l-28.6551474-13.9471668-30.8260945,15.0038525h-26.5759151v-14.9873249l28.7178711-13.9777836-28.7178711-13.9780546v-37.9304089ZM201.8144851,587.1760019l26.3800219,12.8398145,26.3800219-12.8398145h-52.7600437ZM554.5309631,562.0691508l-25.1068511,25.1068511h25.1068511v-25.1068511ZM601.0699732,535.5674746h82.5726683v-16.5479683h-82.5726683v16.5479683ZM683.6426416,540.5450059h-82.5726683v16.5476973h82.5726683v-16.5476973ZM683.6426416,497.4942777h-82.5726683v16.5479683h82.5726683v-16.5479683ZM585.3231895,475.9424964h-25.1068511v73.809222h.0001355v7.3399011h35.1682597v-16.5476973h-10.061544v-4.9778023h10.061544v-16.5476973h-10.061544v-4.9772604h10.061544v-16.5482392h-10.061544v-4.9772604h10.061544v-16.5476973h-10.061544v-.0254688ZM601.0701087,475.969049h-.0001355v16.5476973h82.5726683v-16.5476973h-57.4656817v-4.9786151h57.4658172v-25.1068511h-141.8269937v25.1068511h59.2543254v4.9786151ZM714.4351389,475.9424964h-25.1068511v81.1491231h25.1068511v-81.1491231ZM730.9325759,445.8835828h-41.6042882v25.1068511h41.6042882v-25.1068511ZM560.2164738,587.175731l-.0001355.0002709,35.1682597,17.1174948v-42.2243459h-35.1681242v25.1065802ZM595.384598,642.9427228v-25.7441139l-52.8924004,25.7441139h52.8924004ZM732.1592796,642.9427228h-57.368277l-37.4651963-18.235143-36.2556976,17.6466504v-27.9230539l7.5714237-3.6853944-7.5714237-3.6851235v-44.9915076h113.3650301v25.1068511l-48.4251941,23.5697799,66.1493347,32.1969409ZM657.0667264,587.1760019h-39.4818402l19.7409201,9.6085239,19.7409201-9.6085239ZM871.9831766,462.072278h-33.0449989v25.1068511h33.0449989v26.8143468h-42.9099723v25.1068511h68.0168234v-94.0274117h-25.1068511v16.9993627ZM871.9831766,565.9146738h-33.0449989v25.1068511h33.0449989v26.8143468h-42.9099723v25.1068511h68.0168234v-91.7872381h-25.1068511v14.7591891ZM938.7795281,477.2728366l-5.0166829-24.6001839-26.8078441,5.4665871,5.0168183,24.6007258,26.8077086-5.467129ZM902.7755384,513.9934759v25.1068511h37.2244616v-25.1068511h-37.2244616ZM902.7755384,642.9427228h37.2244616v-25.1068511h-37.2244616v25.1068511ZM930.1350266,565.9146738h-27.3594882v25.1068511h27.3594882v-25.1068511ZM819.8792262,496.0972851h9.193978v-25.1068511h-9.193978v-25.1068511h-25.1068511v187.958638c7.7975273,3.8577155,16.2281177,6.6294832,25.1068511,8.080123v-25.5815468c-6.9689774-1.6083298-13.4949596-4.362757-19.3961425-8.0270177l19.3961425-27.1356876v-85.0808065ZM769.9905226,445.8835828h-25.1068511v107.6960471c0,22.450506,8.272223,42.9596907,21.9243307,58.6709807l-21.9384198,30.6921122h30.8611819l10.1264354-14.1669033c1.0612917.6865747,2.1380273,1.3501191,3.2296649,1.9922589v-49.6864432l-7.0724784,9.8949128c-7.5459548-10.5468066-12.0238635-23.4372878-12.0238635-37.3969181v-57.4823448h19.0963418v-25.1068511h-19.0963418v-25.1068511ZM440.9998436,445.8835828v25.1068511h84.2095828v-25.1068511h-84.2095828ZM492.0373543,488.0553654h25.1068511v154.8873574l-25.1068511-13.6588813h-128.0055453l-25.1068511,13.6588813v-154.8873574h71.282524v-17.0649314h-79.3476095v-25.1068511h104.4544606v42.1717825h56.7230214ZM364.0318089,604.1769903h25.930524v-91.0147738h-25.930524v91.0147738ZM440.9998436,604.1769903v-91.0147738h-25.9306595v13.6000863h20.2451488v25.1068511h-20.2451488v13.6003572h20.2451488v25.1068511h-20.2451488v13.6006281h25.9306595ZM492.0373543,513.1622165h-25.9306595v91.0147738h25.9306595v-91.0147738Z" fill="#fff"/>
    </g>
  </g>
</svg>