<?xml version="1.0" encoding="UTF-8"?>
<svg xmlns="http://www.w3.org/2000/svg" version="1.1" viewBox="0 0 1080 1080">
  <!-- Generator: Adobe Illustrator 28.7.3, SVG Export Plug-In . SVG Version: 1.2.0 Build 164)  -->
  <g>
    <g id="playback">
      <path d="M258.5176708,516.1777929c-.2070804-.1154871-.404205-.2449124-.5913737-.3862845-.1881644.1951334-.392258.3783199-.6132765.5475683-1.2783231.9776583-3.1669358,3.1400552-5.7713697,6.6106426-1.0224593,1.3619517-2.625341,2.1623969-4.3287762,2.1623969h-15.3090137c-2.9887273,0-5.4119658-2.4232386-5.4119658-5.4119658v-7.6619737c0-2.9887273,2.4232386-5.4119658,5.4119658-5.4119658h22.1227543c1.1976812,0,2.327663.3942492,3.2416042,1.0772162.43009-.4519927.9408219-.834295,1.5152708-1.1210216.1224562-.3046471-.1055313-1.6765545-1.8169311-3.2993478-2.467044-2.2221317-4.3138425-3.7553229-5.6469224-4.6911668-.7068609-.4977894-1.2663761-1.1409332-1.656643-1.8677056-.3126117.5794268-.7327459,1.1090747-1.2544292,1.5550939-1.1160437.9517732-2.5984604,2.7099652-4.5308787,5.3721427-1.018477,1.403766-2.6472438,2.2340786-4.3805463,2.2340786h-7.5932787c-2.9887273,0-5.4119658-2.4232386-5.4119658-5.4119658v-6.311969c0-2.9887273,2.4232386-5.4119658,5.4119658-5.4119658h12.9913065c2.0120646,0,3.8339736,1.113057,4.7668308,2.8493462.9298705-1.7303158,2.7497884-2.8493462,4.7678264-2.8493462l11.0847733-.0099558c.1314164-.3245587-.158297-1.8458029-2.1823085-3.8170487-5.7504626-5.3900631-7.5026811-6.401571-8.1020195-6.527014-.4071917,0-1.8248958.7028786-6.1964818,7.2179456-1.0045389,1.4993415-2.6900536,2.3973535-4.4940423,2.3973535h-12.6358849c-2.9887273,0-5.4119658-2.4232386-5.4119658-5.4119658v-4.8046628c0-1.7303158.8263303-3.3551002,2.2241228-4.3745728,1.0264416-.746684,2.2490123-1.8398294,2.2490123-2.7995673,0-.7765514-1.6287668-2.7497884-16.5047037-4.4761218.33551,5.8002415.505754,11.0190651.505754,15.5210719v.9338528c0,2.9887273-2.4232386,5.4119658-5.4119658,5.4119658h-19.25947c-1.9891662,0-4.161519-.3384968-6.3537833-.9896052l.6361748,1.6526606c.120465.3126117.2100671.6311969.2698018.9517732,2.3565348-.581418,4.3695949-.8761093,5.990397-.8761093h18.7168796c2.9887273,0,5.4119658,2.4232386,5.4119658,5.4119658v6.311969c0,2.9887273-2.4232386,5.4119658-5.4119658,5.4119658h-13.8355572c-2.2649415,0-4.6662774-.4201342-7.1462639-1.2504468-.3842934.0836286-.7715735.1234518-1.1548713.1234518-1.8667101,0-3.643818-.9696937-4.6384012-2.6243455-.6979007-1.1608448-1.5540984-2.3177072-2.5456947-3.4367377-.6909316-.7805337-1.1399376-1.7183688-1.3171506-2.7000094-.9896052-.1115048-1.9533254-.4977894-2.7716911-1.1528801-1.0214637-.8163745-2.131534-1.6247844-3.1908297-2.3376188-1.72036-.9537644-2.7866248-2.7657176-2.7866248-4.7329811v-10.5989308c0-1.8019974.8970164-3.4865166,2.3923756-4.4920511,1.8776614-1.2623938,1.8776614-2.2480167,1.8776614-2.6203631-.0049779-.5376125-.3623906-1.2962435-2.0240115-1.8935907-1.7781036-.5117275-6.4075445-1.2763319-14.067527-2.3296542.3693597,5.6608605.5953561,15.1069112.67102,28.1012044.0099558,1.7303158-.8283215,3.3610737-2.2211361,4.3865198-.9418175.6949139-2.0777727,1.0553134-3.2246794,1.0553134-.5515506,0-1.1040968-.0836286-1.6397181-.252877-.2478991,0-.3773243.0676994-.4002226.0676994-.0019912,0-.0039823,0-.0039823-.0019912l-.0039823.2070804c-.1821909,5.224797-.7616177,9.2051207-1.7283246,11.8473865-1.0672604,2.8851871-3.2366264,5.6509047-6.3985843,8.1756923-2.2529946,1.8418206-3.3959189,4.402449-3.3959189,7.6062213,0,2.1604058.4380546,3.9385093,1.3450268,5.3562134.9846273,1.5909348,2.2748973,2.3635038,3.9444828,2.3635038,1.6944749,0,3.1231304-.5873914,4.3666082-1.7980151,1.0314195-1.0015522,2.39138-1.5312,3.7742389-1.5312.7158211,0,1.4366201.1413722,2.1215782.4340723,2.0060911.8542065,3.3033301,2.8314258,3.289392,5.0137343l-.4719043,73.2666277c0,4.6413879,2.7856292,5.1790004,4.8813224,5.1790004,7.1860871,0,7.1860871-4.3486878,7.1860871-5.971481l-.196129-81.8803746c-.0069691-2.6263366,1.8726835-4.8783356,4.4562103-5.3402841.3215719-.0577436.6421483-.0856198.9587423-.0856198,2.233083,0,4.2829796,1.3858456,5.0764558,3.542269l.4181431,1.1369509c.347457-.075664.6859537-.1473456,1.0164859-.2110627.3613951-.0716817.7247813-.1055313,1.0861764-.1055313,1.316155,0,2.599456.4659308,3.5930435,1.365934,1.2663761,1.1488978,1.916489,2.7876204,1.7532141,4.4900599.3594039,10.144947.5425904,21.6518456.543586,34.26981l-.543586,43.9269234c0,3.3630649,1.4635007,4.8624064,4.7459237,4.8624064,7.1860871,0,7.1860871-4.3407231,7.1860871-5.9734722,0-7.9984793-.0308629-15.9451885-.0915932-23.6887996-.0109514-1.441598.5535418-2.8294347,1.5700276-3.8528896,1.0164859-1.0254461,2.3993447-1.6008906,3.8419382-1.6008906h30.202871c1.4356245,0,2.8125098.569471,3.8270045,1.5849613,1.0154903,1.0154903,1.5859569,2.3933712,1.5849613,3.8289957l-.0019912,8.1000283c0,1.4515537-.5844047,2.8433728-1.6217977,3.8608542-1.0125035.9935875-2.3744552,1.5491205-3.7901681,1.5491205h-.1025446c-4.0749036-.0776551-8.4783482-.2807532-13.0032534-.6331881-.0009956,0-.0507745.0995579-.0507745.3643818,0,.1931423.0219027.5296479.1563059.5933649,5.0903939,1.5172619,8.5350962,3.1201436,10.5033553,4.8763445,2.0907153,1.8398294,3.2933743,4.7708131,3.5671585,8.6595435.0806419.4579662.3265498,1.8537675,2.3814243,1.8537675,3.7782212,0,6.9969271-1.29027,9.7945033-3.8986862,2.5407168-2.4272209,3.8299913-6.5887398,3.8289957-12.3192908l-.4052005-42.0333327v-6.0869682c0-1.4794299.6043163-2.8931517,1.6735678-3.9146155,1.6506695-1.5750055,1.6506695-2.1225738,1.6506695-2.327663,0-.4579662,0-.5654887-1.0911543-1.5073062-.3444702-.2986736-.7745602-.67102-1.3121727-1.1727917-3.3003434-3.0066477-5.6051081-4.7966982-6.8495815-5.3143991-.139381-.0577436-.2737841-.1214606-.4052005-.18916-.0905977.0457966-.1831865.0915932-.2767709.1334075-.581418.2608416-1.7751168,1.188721-4.1585322,4.1396162-1.0274372,1.2703584-2.5745665,2.0090778-4.2093067,2.0090778h-34.598351c-1.0443621,0-2.0658258-.3026559-2.9419351-.8701358-2.2977956-1.4873946-5.8291133-3.9862971-8.386755-5.8201531-1.9095199-1.3699163-2.7169343-3.8170487-1.9971309-6.0551097s2.8015585-3.7553229,5.1521198-3.7553229h48.9287108c.8900474,0,1.7382804.2170362,2.4879512.6053118.7496708-.3882757,1.5969082-.6053118,2.4879512-.6053118l18.6302642-.025885c.1294252-.3066382-.1234518-1.7721301-1.9433696-3.6478004-2.2221317-2.1265561-5.3711471-5.0615221-7.0457105-6.0033396ZM200.3967819,548.5062244c0-2.9887273,2.4232386-5.4119658,5.4119658-5.4119658h30.2466765c2.9887273,0,5.4119658,2.4232386,5.4119658,5.4119658v6.9471482c0,2.9887273-2.4232386,5.4119658-5.4119658,5.4119658h-30.2466765c-2.9887273,0-5.4119658-2.4232386-5.4119658-5.4119658v-6.9471482ZM200.3967819,567.0200059c0-2.9887273,2.4232386-5.4119658,5.4119658-5.4119658h30.2466765c2.9887273,0,5.4119658,2.4232386,5.4119658,5.4119658v7.0248033c0,2.9887273-2.4232386,5.4119658-5.4119658,5.4119658h-30.2466765c-2.9887273,0-5.4119658-2.4232386-5.4119658-5.4119658v-7.0248033ZM214.9660806,519.7001503c0,2.9887273-2.4232386,5.4119658-5.4119658,5.4119658h-21.4955397c-.259846,0-.5216832-.0039823-.784516-.0119469-2.1205826-.0597347-4.0111866-1.3519959-4.8345302-3.3073124-.8243392-1.9553166-.43009-4.2112979,1.0075256-5.7703741l.2070804-.2349566c.8452463-.9517732,1.3490091-2.1066445,1.5401602-3.5303221.3384968-2.5227964,2.2928177-4.4522279,4.8295523-4.6593083,2.5118451-.645135,4.6095294-.9716848,6.2353094-.9716848h13.294958c2.9887273,0,5.4119658,2.4232386,5.4119658,5.4119658v7.6619737ZM430.5616349,592.8731936c-.0806419-.0338497-.1602882-.0696905-.2389389-.1075225-.4032094-.1951334-.7337415-.3623906-1.0035433-.5037628-1.7352937-.9099589-2.8433728-2.6880625-2.8961384-4.6473614l-.0059735-.5177009c0-.3504437,0-1.4177041.3404879-6.3936064.3713509-5.3681604.5654887-8.4962686.6033207-9.7805652-.0159293-.0119469-.101549-.0497789-.2668151-.0497789-.1453545,0-.2956869,0-.3673685.1851776-2.606425,7.9347622-4.6533348,13.33279-6.2671679,16.5226241-1.6974617,3.3172682-3.6258976,5.4099747-5.8171663,6.3657302-5.5145104,2.5088583-20.8454268,3.7812079-45.5676371,3.7812079-11.0349943,0-18.3594668-.2628328-22.3696578-.8004453-3.5084193-.455975-6.0162821-1.2723496-7.6609781-2.4969114-.6889405-.4997805-1.2633894-1.1648271-1.6586341-1.9573077-.7954674-1.5929259-1.1827475-4.2610768-1.1827475-8.1577719v-23.2547273c0-2.9887273,2.4232386-5.4119658,5.4119658-5.4119658h58.5111558c2.9887273,0,5.4119658,2.4232386,5.4119658,5.4119658v.6909316c0,2.7497884.7367282,3.6657208.9647158,3.9504563.7008874.8661535,2.0648302,1.3061993,4.0530009,1.3061993,3.2455866,0,5.4358597-.7924806,6.5090935-2.3555392.916928-1.3360666,1.0154903-3.0424885,1.0164859-3.6059861l-.5425904-26.8646957v-7.0686088c0-1.0320418.3015359-2.0308561.8449974-2.890165.0237694-.0078402.0500278-.0248895.0719306-.0303652,1.0075256-.2515081,1.6565185-1.2387488,2.8946451-1.0371441.2863533.0466678.6100408-.2085737.4575929-.4653086-.5336302-.9009987.5525462-.9923431.9487865-1.4257931.3727198.0257606.8233436.6004584,1.0814474-.0080891.1367676-.3225675-.1072736-.7707024-.7596265-.684087-.1017979.0134403-.225623.0359653-.307136.0014934-.2461568-.1037891-.1159849-.3411102-.2026003-.5056295.3362567-.556404.6399082-1.0960077.8072899-1.7347959.2811265-1.074105-.0332274-2.5593839,1.9984998-2.7856292.0487834-.0053512.0981889-.050899.1375143-.0857442.408934-.360275.2432945-.7362304-.2259964-.6965317-1.2100015.1019224-1.944863-.6747535-2.9364594-.9217814-.903861-.2248763-1.3787521-.5983428-1.3145372-1.4018993.0546324-.6803536-.2131783-.9630979-1.0834385-.8438774-.4880825.0668282-.434819-.3163451-.3368789-.6127787.2562371-.127683.4366857-.3051449.2440412-.5396037-.0959489-.1167316-.2635795-.0426854-.323812.1088914-1.9288093.4738955-3.3929322.0159293-4.3524212-1.4806744-.1241984-.1936401-.3664974-.1757196-.5944849-.1176027-.3376256.1006779-.3398657.3341411-.3312788.5749467.0109514.3200786.1587948.6605665-.204467.9288749l-.0022401-.0033601c.004729-.1363943-.0511479-.2447879-.2309743-.2109382-.0613525.011698-.0996823.1222073-.1485901.1876666-.038952.087362-.1123759.1250696-.2202718.1133715-.168875.0113247-.3377501.0227739-.5062518.0340986-.6567086.0623481-.5165809.4803667-.5295234.8300637l-.0206583.4356901c-.6397838.4929359-1.6003928.7012607-1.7739968,1.6147042-.0176715.0930866-.1020468.179702-.2116849.2552415-.004729-.0443033-.1493368-1.8282558-.151328-1.8282558-.2817488.0696905-.6180055-.369733-4.6112716,4.8889137-1.0234549,1.3480136-2.6173764,2.138503-4.3098602,2.138503h-19.8677685c-2.1036578,0-4.0161645-1.2185883-4.9052163-3.124126-.8890518-1.9075288-.5923693-4.1555455.7596265-5.7663918,3.87081-4.6135117,7.6520179-9.8144148,11.3107696-14.8480607l.1334075-.1831865c.7526575-1.0334107,1.8467985-1.7681478,3.0892807-2.0708037,1.62578-.3982315,2.7826425-.8243392,3.554216-1.3400489.3912624-.2488947,1.2066414-.7685868.8233436-2.6044339-.0985623-.4719043-.4828557-.9597379-2.5606284-3.2595247l-.455975-.5037628c-5.9057729-6.2781193-7.7187217-7.4628579-8.4355383-7.6141859-.3932536.1314164-1.7761124.9975699-6.1238046,6.1725879-1.0284328,1.2245618-2.5456947,1.9314227-4.1445941,1.9314227h-13.4970604c-2.6193676,0-4.8624064-1.8756703-5.326346-4.4522279-.4649353-2.5765577.9836318-5.1172745,3.4377333-6.0312158,1.1717961-.4360635,2.0289894-.8422596,2.6432614-1.2663761.7098476-.4719043,1.0692515-1.113057,1.0692515-1.9035465,0-.3862845,0-1.5590762-2.4710263-2.6900536-2.048901-.9716848-7.1363081-2.5506726-14.9914241-4.6772287-1.2534336,7.0128564-3.7174909,14.7485029-7.3254681,22.9938857-7.1761313,16.4569159-16.7466293,30.7613907-28.4227763,42.5311221,0,.8880562.3016603.8880562.404205.9378351.063717-.0477878.1284297-.0915932.1941378-.1353987,1.8647189-1.2484557,3.6687075-2.4989025,5.40201-3.7453671.9388307-.6750024,2.0469098-1.0194726,3.161958-1.0194726.8422596,0,1.6885015.1971246,2.467044.5953561,1.8069753.9258882,2.9439262,2.7856292,2.9439262,4.8166098l.0009956,22.707159-.2737841,31.7748898c0,4.6513437.2688062,8.2931706.8054232,10.8577813.7914851,3.9245712,2.467044,6.7480324,5.1391773,8.6456054,2.5755621,1.8438118,6.6325453,3.1480199,12.0564581,3.8767835,5.5622982.7446929,13.9749382,1.1070835,25.7197801,1.1070835,30.2536455,0,49.4265002-1.3480136,57.0317259-4.0221379,5.4697094-1.8696968,8.2433916-5.0396194,8.2433916-9.4201657,0-2.2002289-.7954674-3.6497915-2.3635038-4.3128469ZM376.1243871,525.0683107c0-2.9887273,2.4232386-5.4119658,5.4119658-5.4119658h18.5894455c2.9887273,0,5.4119658,2.4232386,5.4119658,5.4119658v24.427519c0,2.9887273-2.4232386,5.4119658-5.4119658,5.4119658h-18.5894455c-2.9887273,0-5.4119658-2.4232386-5.4119658-5.4119658v-24.427519ZM364.3267795,549.4958296c0,2.9887273-2.4232386,5.4119658-5.4119658,5.4119658h-17.3001711c-2.9887273,0-5.4119658-2.4232386-5.4119658-5.4119658v-24.427519c0-2.9887273,2.4232386-5.4119658,5.4119658-5.4119658h17.3001711c2.9887273,0,5.4119658,2.4232386,5.4119658,5.4119658v24.427519ZM334.5320958,515.7178355c-.8721269-1.9473519-.5196921-4.225236.9000031-5.8161708,5.5672761-6.2442696,10.5670723-13.219294,14.8600077-20.7299397.9637202-1.6865103,2.7567574-2.7258945,4.6991315-2.7258945h15.9143255c1.7233467,0,3.3441489.8203568,4.3636214,2.2101847s1.316155,3.1818695.7994497,4.8245744c-2.9777759,9.4699446-5.7763476,16.8033773-8.5540122,22.4224235-.9119501,1.8458029-2.7925983,3.0126211-4.851455,3.0126211h-23.1920058c-2.1325296,0-4.066939-1.252438-4.9390659-3.1977988ZM512.0845968,523.4295881c-4.7618529,15.2482834-10.2166286,28.2385943-16.2149903,38.6065508-5.5503513,9.4958296-12.4576763,18.3664359-20.5178814,26.3430124l.0418143-.0776551c-.6391615,0-.7476796-.2250008-.7476796-.7287636,9.5087722-15.8496129,16.8282668-34.5067578,21.7434388-55.4915656,1.8856261-8.5838796,3.1639491-16.3892166,3.8180443-23.2826035,8.3479274,2.3635038,13.6802469,4.1256781,16.1552556,5.3681604,1.1469067.5455771,2.8861827,1.5531028,2.8861827,2.7736823,0,1.4077483-2.4093005,2.4929291-3.8449249,3.0146123-1.587948.5774356-2.8154966,1.8617322-3.3192594,3.4745697ZM550.4970098,473.9572913c0,.4858424,0,1.6227933-2.5924869,3.0265592-1.7452495.9477909-2.8324214,2.7736823-2.8324214,4.7588662v55.218777l.6779891,59.595341c.0009956,6.2323227-1.4814211,10.5989308-4.4034446,12.9186292-3.124126,2.4212474-6.9770155,3.6159418-11.7299082,3.6159418-.8064187,0-3.2625114,0-3.8011195-3.5900568-.2319698-3.4307642-1.6885015-6.311969-4.3247939-8.5181714-2.478991-2.0469098-6.4782306-4.0161645-11.9150859-5.8798878-.1304208-.0477878-.2269919-.3066382-.2269919-.7785425,0-.404205.0846242-.5515506.0846242-.5535418,7.0238077.7506663,12.9226115,1.1648271,17.3967422,1.2922612.0507745.0019912.1025446.0019912.1533191.0019912,1.4067527,0,2.7607397-.5475683,3.7722477-1.5312,1.0483444-1.0194726,1.6397181-2.4192562,1.6397181-3.8807658v-98.0585285c0-8.3548965-.2986736-15.8157632-.8880562-22.1854758,8.7730395,1.0632781,14.3303598,1.9135023,16.463885,2.5267787,1.1190305.3345144,2.5257832.9756671,2.5257832,2.0210248ZM655.1880836,545.3203726c-1.6954705,0-3.8807658.290709-6.5001333.8621712l-.9706892-2.6323101c2.5476859.6789847,5.1391773,1.0294284,7.6072169,1.0294284h11.6632045c1.8109577,0,3.5024459-.9059766,4.5059892-2.4132828,4.2491299-6.3876329,5.5593115-6.8834311,5.8599762-6.8834311.3803111,0,1.890604.61925,7.6828808,6.3577656,1.6904926,1.6327491,2.2679283,3.2794362,2.1046534,3.6836412l-31.9530984-.0039823ZM771.8987791,501.9688936c-7.0148475-1.923458-12.9843374-5.2347528-17.7193097-9.8243706-2.644257-2.5387257-4.9818758-5.5234706-6.9491393-8.8686151-1.429651-2.4351855-.746684-5.5613026,1.5670409-7.1781224,1.1230128-.784516,1.1230128-1.1170393,1.1230128-1.3778809q.0019912-.6869493-1.1608448-1.8756703c-3.2336396-3.0962498-4.6055471-3.7453671-5.1849739-3.7453671-.2289831,0-1.1927033.290709-3.9862971,4.0281114-1.0214637,1.365934-2.6283278,2.1703616-4.3347497,2.1703616h-7.2000252c-2.8354081,0-5.8898436-.404205-8.9621995-1.188721-.5913737,1.2584115-1.6466872,2.2460255-2.9528864,2.7497884-.6292057.24093-1.2882788.3603995-1.9453608.3603995-.8641623,0-1.7283246-.2070804-2.5108495-.6172588-1.6586341-.8681446-3.5562071-1.8458029-5.7166129-2.9369572-.6650466,3.9763413-1.8736791,9.0079961-3.6258976,15.0730615-.9019943,2.8772224-1.8577499,5.6807721-2.8413816,8.336976-.6331881,1.7084131-2.1902731,2.8812048-3.9663855,3.2913832-.3703553.0856198-.7486752.1254429-1.1269951.1254429-1.441598,0-2.8931517-.5913737-3.9365182-1.5869524-6.1745791-5.8938259-7.8521292-6.7480324-8.3708257-6.843608-.3155984,0-1.6934794.5396037-6.198473,7.4688314-.9985654,1.5371735-2.7059829,2.4630617-4.5378477,2.4630617h-19.8329233c-2.840386,0-5.9296667-.3643818-9.0966026-1.0712427l1.0354018,2.6920448c3.1281083-.5854003,5.8390691-.8800916,8.0612007-.8800916h37.2814356c1.8836349,0,3.6318711.9796494,4.6155029,2.5845223.9836318,1.606864,1.0612869,3.6099684.2050892,5.2865229-1.0612869,2.0807595-2.1643881,4.0639523-3.2754539,5.8898436-.834295,1.3699163-2.2340786,2.2997868-3.8190399,2.5387257-.2688062.0398231-.5376125.0597347-.8044276.0597347-1.3141639,0-2.5944781-.4798689-3.592048-1.3639428-3.4994591-3.1042144-4.3745728-3.2615158-4.5149494-3.2615158-.3026559,0-1.6277712.4898247-5.9923882,6.8017937-1.0105124,1.4615095-2.6741244,2.3336365-4.4512324,2.3336365h-11.992741c-2.4660484,0-5.0575398-.3504437-7.6062213-1.0274372l.9696937,2.6323101c2.656204-.581418,4.8305479-.8641623,6.6365276-.8641623h32.2278781c.0358408-.0915932.0199116-.2508858,0-.3683641-.3365056-1.9911574.4161519-3.9703679,2.0269982-5.1889562.0796463-.0676994.8681446-.6769935,1.188721-.935844.9816406-.7944718,2.1862908-1.2046502,3.402888-1.2046502.7884983,0,1.580979.1712395,2.3196984.5216832,1.8796526.8920385,3.0823117,2.7816469,3.0922674,4.8624064l.0019912,1.2743407-.4061961,31.8525449c0,.9856229,0,3.9882883,4.7449281,3.9882883.2190273,0,.7785425-.0139381.8422596-.0139381,1.5132796,0,2.9628422.6351792,3.9902794,1.7542097,1.0692515,1.1688094,1.5750055,2.7477972,1.3818632,4.3208116-.5873914,4.7588662-1.4535449,9.3146343-2.5725754,13.5259322-1.9951397,7.5962655-4.7668308,14.1571291-8.2752502,19.5491834-1.0075256,1.5073062-2.1305384,2.9947007-3.3411621,4.4243517-1.04934,1.2384999-2.5705842,1.9135023-4.1316516,1.9135023-.6132765,0-1.2345176-.1035402-1.833856-.3205763-2.1265561-.7665956-3.5522248-2.7736823-3.5761187-5.0336459l-.2429212-22.7370264v-3.478552c0-1.3758898.5236744-2.7000094,1.4654918-3.7035528,1.10111-1.1727917,1.1907121-1.7621743,1.1907121-2.3575304,0-.6411527,0-.708852-1.7980151-2.618372l-.1672572-.1792042c-4.2869619-4.5517858-5.7544449-5.2327616-6.2472563-5.2327616-.2518814,0-1.3420401.3584083-4.7867424,4.9759023-1.0214637,1.3699163-2.6293233,2.176335-4.3377364,2.176335h-10.4535764c-1.0802029,0-2.1355163-.3225675-3.0305416-.9278793-3.1808739-2.15045-8.1936127-6.0431627-11.1773621-8.4166223.467922,5.7225864.7058653,12.7075665.7068609,20.8872411l-.6769935,30.7374968c0,1.1230128,0,4.54183,4.8813224,4.54183,6.5071024,0,6.5071024-4.2570945,6.5071024-5.654887v-.8502242c0-2.9887273,2.4232386-5.4119658,5.4119658-5.4119658h6.945157c2.4391678,0,4.5766753,1.6307579,5.2208147,3.984306.4071917,1.4913769,1.3061993,2.3157161,2.8294347,2.5924869,1.467483.2668151,2.7597442,1.1269951,3.5711408,2.3794331s1.0702471,2.783638.7158211,4.2312095c-.0159293.0676994-.0248895.1453545-.0248895.2250008,0,.3026559.0477878.4878336.1105092.5834091.0019912,0,.0896021.0059735.0896021.0059735,10.3281334-2.7657176,18.6073659-7.7077703,24.6067232-14.686777,5.2048854-6.0630743,9.1692798-14.2985013,11.7816783-24.4792891.6212411-2.4172651,2.7995673-4.0659434,5.2387351-4.0659434.2250008,0,.4519927.0139381.6809758.0418143,2.7059829.3424791,4.7349723,2.6422659,4.7349723,5.3701515l-.0019912,5.9396225-.404205,16.4350132c0,4.6851934,1.0971277,8.0183909,3.2714716,9.9199462,2.4511148,2.1564235,7.1243612,3.2037723,14.2845632,3.2037723,8.9004736,0,15.2064691-.999561,18.7427646-2.9708068.0796463-.0438055.1612837-.0856198.2429212-.1274341,2.7338591-1.3440312,4.0619611-3.2993478,4.0619611-5.9754634,0-2.2679283-.9696937-3.9424917-2.9628422-5.1212568-.0856198-.0497789-.1692484-.101549-.2508858-.1553103l-.4141607-.2847355c-1.3977925-.9696937-2.2579725-2.5387257-2.3236807-4.2371829-.0079646-.2130538-.0139381-.467922-.0139381-.7665956,0-1.5272177.2289831-5.9774545.6769935-13.1914178,0-.1413722,0-.252877-.4081873-.252877-.4161519,0-.4719043.1752219-.4898247.2250008-2.2659371,9.2130853-4.0878461,15.0292561-5.4179393,17.2852374-.2429212.4121696-.5396037.7904895-.8800916,1.1230128-1.8079709,1.7661566-4.9958139,2.6601863-9.4779092,2.6601863-.8482331,0-1.5331912-.0159293-2.0847418-.0418143-2.8911605-.1294252-5.1670535-2.5108495-5.1670535-5.4059923v-31.7211286c0-1.5929259.7008874-3.1042144,1.9154934-4.1316516.9856229-.8323038,2.226114-1.2803142,3.4964724-1.2803142.2986736,0,.5973472.0238939.8960208.0736728.4280988.0736728.9059766.1095137,1.4177041.1095137,4.8763445,0,7.0506884-1.6745634,7.0506884-5.326346l-.5415948-28.931517v-3.8767835c0-1.2623938.5455771-2.618372,1.3519959-3.5900568,1.0632781-1.3997837,2.6800979-2.138503,4.3148381-2.138503,1.1230128,0,2.2539902.3484525,3.2236838,1.0672604,1.0134991.7526575,1.4316422.8362861,1.6108463.8362861.0159293,0,.0318585,0,.0438055-.0019912.0039823-.0039823.4858424-.4480104.7108432-2.2997868.7904895-5.7803299,2.5765577-9.4719358,5.2307705-10.929463.1493368-.1095137.3205763-.3126117.3205763-.9159324,0-.3882757-.1035402-.4181431-.1433633-.4320812ZM675.4540836,594.8623599c0,2.9887273-2.4232386,5.4119658-5.4119658,5.4119658h-6.5260184c-2.9887273,0-5.4119658-2.4232386-5.4119658-5.4119658v-22.5996365c0-2.9887273,2.4232386-5.4119658,5.4119658-5.4119658h6.5260184c2.9887273,0,5.4119658,2.4232386,5.4119658,5.4119658v22.5996365ZM744.3869573,545.2048854c0,2.9887273-2.4232386,5.4119658-5.4119658,5.4119658h-23.1332667c-2.9887273,0-5.4119658-2.4232386-5.4119658-5.4119658v-25.6978774c0-2.9887273,2.4232386-5.4119658,5.4119658-5.4119658h23.1332667c2.9887273,0,5.4119658,2.4232386,5.4119658,5.4119658v25.6978774ZM751.7044607,505.6764287c-.6530996,1.5630586-1.999122,2.7298768-3.6398357,3.1539933-.1871688.0477878-.9637202.3882757-3.0922674,2.7418237-1.0254461,1.1349597-2.4849644,1.7820859-4.0141733,1.7820859h-28.6627108c-1.0592957,0-2.0966887-.3106206-2.9807626-.8940297-.9756671-.645135-1.9194757-1.3858456-2.8294347-2.1026622l-.3564172-.2827444c-2.289831-1.8398294-2.6920448-5.1710358-.9099589-7.5046722,3.7393936-4.8902826,6.7540059-9.665078,8.9641906-14.1869965.7407106-1.5192531,2.1524412-2.606425,3.8130664-2.9329749,1.0334107-.2050892,1.5909348-.4022138,1.9055376-.5455771.7427017-.3305321,1.1031012-.923897,1.1031012-1.8099621,0-.075664-.0079646-.1473456-.025885-.2190273-.354426-1.4973504-.0557524-3.074347.822348-4.3367408.8781004-1.2643849,2.251999-2.0927064,3.7792167-2.2818664,1.1688094-.1453545,2.3196984-.2190273,3.4227996-.2190273h8.7849865c2.4829733,0,4.6473614,1.6904926,5.2506821,4.0997931,1.8497852,7.4011321,4.6593083,14.3761564,8.3529053,20.733922.8502242,1.4635007.9657113,3.2435954.3126117,4.8046628ZM648.419144,481.758646l-.9826362-2.6721332c2.9070898.6969051,5.8191575,1.0573046,8.5659591,1.0573046h11.4521418c1.777108,0,3.4417156-.8721269,4.4522279-2.3336365,4.7887335-6.9292278,6.1108621-7.2796715,6.3269026-7.2796715.5276567.0915932,2.1295428.9179236,7.9556694,6.6763508,1.6944749,1.6347402,2.2420432,3.2416042,2.0727949,3.6577561l-32.2597366.0199116c-2.0349629,0-4.5189317.2867267-7.583323.8741181ZM907.05257,569.3576247c-3.6258976-3.7174909-6.957104-7.9347622-9.9040169-12.5343358-1.5909348-2.4829733-.9000031-5.7843122,1.5550939-7.4230348,6.3478098-4.2312095,12.181901-8.7252517,17.3389986-13.3546927.8621712-.7725691,1.9493431-1.2504468,3.1022232-1.3599605,3.5482425-.3384968,3.5482425-1.6705811,3.5482425-2.1723527,0-1.0354018-1.5232354-3.3869587-8.7750307-8.7093225-1.784077-1.3081904-2.5924869-3.5721364-2.0389452-5.7146217.5515506-2.1424854,2.353548-3.7334201,4.5478035-4.0161645.1592926-.0199116.2548681-.0497789.2847355-.0497789h.0039823c.0338497-.0796463.1075225-.2966825.1314164-.6949139-.1055313-.2070804-.5515506-.6769935-1.3261108-1.403766-1.214606-1.1369509-1.8378383-2.7716911-1.6885015-4.4323164.1473456-1.6586341,1.0513311-3.1559845,2.4511148-4.0599699,2.6243455-1.6984573,4.6354144-3.074347,6.0929416-4.1734659,1.9393873-1.3838544,4.2809884-2.086733,6.9590951-2.086733,4.6354144,0,4.6354144-1.1568624,4.6354144-2.3794331,0-.8502242-.2170362-1.2345176-2.6840802-3.731429l-.493807-.4997805c-7.2239191-6.7978114-9.3624221-8.1020195-10.0672918-8.2712678-.2369477,0-1.3300931.3862845-5.4677182,5.3582046-1.0274372,1.2345176-2.5526638,1.9493431-4.1595278,1.9493431h-29.2202349c-2.9887273,0-5.4119658-2.4232386-5.4119658-5.4119658v-6.3259071c0-1.9075288,1.0035433-3.6756766,2.644257-4.6513437,1.4396068-.8561977,1.6247844-1.7064219,1.6247844-2.3495657,0-.935844-2.2300963-2.7418237-16.9925373-4.4004579.2250008,6.2303315.2508858,7.8531248.2508858,8.5301183v9.197156c0,2.9887273-2.4232386,5.4119658-5.4119658,5.4119658h-27.1713339c-2.7716911,0-5.0953718-2.0927064-5.3820985-4.8504594-.2747797-2.618372-.6252234-4.9101942-.9896052-6.5250228-.025885-.1035402-.037832-.1473456-.2230096-.1473456-.113496,0-.1931423.0179204-.2349566.0179204-.0179204,0-.0298674-.0039823-.0338497-.0119469-.0019912.0537612-.0039823.1831865-.0039823.1831865-.2747797,7.4688314-3.6079772,13.2372144-9.8761407,17.1259448-1.9274404,1.2126149-3.1758961,2.2938133-3.8309868,3.2495689-.7168167,1.138942-1.0672604,2.757753-1.0672604,4.9520085,0,3.3829764.6391615,7.881001,6.1686056,7.881001,1.328102,0,2.5506726-.3006648,3.6298799-.8940297.8064187-.4420369,1.7044307-.6670377,2.6044339-.6670377.6411527,0,1.2823054.113496,1.8955818.3424791.2807532.1055313.5515506.2329654.8084099.3803111-.2329654-.2847355-.4400458-.5973472-.6132765-.9318617-.7646044-1.4794299-.8084099-3.2276661-.113496-4.7429369,1.2225706-2.6721332,1.9553166-5.8161708,2.2380609-9.6093256.2110627-2.8254524,2.5646107-5.009752,5.3980277-5.009752h77.798502c1.6008906,0,3.1201436.708852,4.149572,1.9373962,1.0274372,1.226553,1.4595184,2.8473551,1.1787652,4.4243517-.2050892,1.1548713-.43009,2.3216895-.6730112,3.4984636-.3623906,1.7562008-1.5710232,3.2177104-3.2276661,3.9046597-.6670377.2767709-1.3719074.4121696-2.0727949.4121696-1.0413753,0-2.074786-.3006648-2.9708068-.8880562-.6311969-.4141607-.9079678-.5137186-.9159324-.5196921h-.2588505c-.3643818.1254429-1.9373962,1.075225-6.8615284,7.9765765-1.0174814,1.4236775-2.6581951,2.2679283-4.4064313,2.2679283h-57.1840494c-2.5825311,0-5.364178-.2767709-8.2692767-.8203568-.607303-.1154871-1.1827475-.3305321-1.7064219-.6311969.3743376.4579662.6750024.9816406.886065,1.5491205l.5615064,1.5272177c3.478552-.5953561,6.2721458-.8840739,8.5281271-.8840739h8.3548965c2.1862908,0,4.1595278,1.316155,4.9978051,3.3371798.8402684,2.0190336.3803111,4.3447054-1.1648271,5.8958171-9.2270234,9.2608731-21.5264027,17.4405477-36.6591989,24.2801733,0,.2847355.0418143.5177009.1115048.6232323,0,.0019912.316594.0398231.3185852.0398231,14.6887681-3.2037723,27.1155815-7.7316642,36.9339786-13.4582329.8522154-.4977894,1.7920417-.7367282,2.7219122-.7367282,1.6347402,0,3.2376219.7387194,4.2949265,2.1146092,1.6606253,2.1584146,1.4555361,5.2148412-.4758866,7.1363081-13.1854443,13.1077892-28.2923555,23.3722056-44.9005994,30.5105049-.1055313.0457966-.113496.1115048-.2230096.1493368,0,.3086294.0497789.4758866.0836286.5296479l.2767709-.0497789c10.3560096-1.8915995,19.4655548-4.4382898,27.0877053-7.5743628,5.8679409-2.3973535,12.0763696-5.6568782,18.4520556-9.6889719.8940297-.5654887,1.8955818-.8382773,2.8891694-.8382773,1.580979,0,3.1400552.6909316,4.2013421,1.9951397,1.7303158,2.1245649,1.5988994,5.2068766-.3046471,7.1781224-15.1228405,15.6524883-33.4414885,28.0434608-54.4481991,36.8304384-.0955756.0398231-.1055313.1055313-.2030981.139381,0,.3086294.0517701.4798689.1433633.5236744.0816375-.0179204.1612837-.0338497.2429212-.0497789,10.6487098-1.859741,20.7956479-4.8365213,30.15807-8.84273.6809758-.290709,1.4057571-.4360635,2.1285473-.4360635.9258882,0,1.8477941.2369477,2.6721332.7048697,1.4714653.8362861,2.467044,2.3117337,2.6920448,3.9862971.0318585.2449124.075664.2608416.0856198.2628328,4.7509016,1.5152708,8.0223732,2.9329749,10.0453891,4.3666082,2.5586373,1.8497852,4.0619611,4.4044402,4.4701484,7.5982566.0139381.101549.0238939.2030981.0298674.3046471.0856198,1.2066414.3026559,2.0708037.5953561,2.4132828.3424791.3623906,1.1210216.5455771,2.3157161.5455771,5.2228059,0,9.4062276-1.9533254,12.4566807-5.8321,3.8409426-4.8186009,5.7086483-12.3232732,5.7086483-22.9441067,0-10.4834437-1.5610674-19.9374591-4.6393967-28.0912486-3.0823117-8.1438338-8.2931706-16.5305887-15.4852311-24.9292907-1.8955818-2.214167-1.6964661-5.5334264.4500016-7.5046722,2.6641686-2.4491236,5.1431596-4.9798847,7.3692735-7.5206015,1.0433665-1.1907121,2.5367345-1.8458029,4.0719169-1.8458029.4898247,0,.9836318.0657082,1.467483.2030981,2.0090778.5654887,3.5124017,2.2360698,3.8668277,4.2929354,3.9385093,22.9261863,10.2226021,41.7047918,18.6850211,55.8240889,6.7261297,11.2799067,14.3044748,20.0768401,22.5239725,26.1419055.075664.0557524.1493368.113496.2210185.1732307,1.6745634,1.3758898,2.9070898,2.1026622,3.5621806,2.1026622.4798689,0,.6690289-.1294252.7128343-.1732307.1353987-.1871688.4898247-.8542065,1.2783231-3.0285504,1.2424822-3.8807658,2.3316453-6.6086514,3.2973567-8.2812236,1.0931454-1.9493431,2.6482393-3.554216,4.719043-4.8783356.3643818-.2369477.3643818-.4579662.2966825-.493807-10.3420715-3.4048792-19.6925467-9.3803425-27.7746546-17.7432036ZM869.9971308,586.5253838c-.3982315,6.1785614-1.1907121,8.2812236-1.7900505,9.3883071-.8402684,1.6168198-2.4351855,2.7020006-4.2471387,2.8891694-.1991157.0199116-.4619485.037832-.7805337.037832-.5077451,0-2.0528833,0-9.5197235-.6471262-2.3635038-.2050892-4.3168292-1.9254492-4.8205921-4.2431564-.5037628-2.3157161.5595152-4.693158,2.6243455-5.8599762,3.4327554-1.9413785,6.8017937-4.0719169,10.0155217-6.3358628.9298705-.6550908,2.0210248-.9876141,3.1161613-.9876141.9099589,0,1.8199179.2289831,2.644257.6909316,1.8179267,1.0174814,2.8911605,2.9887273,2.757753,5.0674956ZM893.1423444,544.0838638c-1.9533254-.2050892-3.6418269-1.4515537-4.4124048-3.2575335-2.6044339-6.1048886-4.8126274-12.8469476-6.5668371-20.0370169-.392258-1.6148287-.0238939-3.3192594,1.0015522-4.6254586,1.0274372-1.3061993,2.5964693-2.0688125,4.2570945-2.0688125h16.3931989c1.7641655,0,3.4188173.86018,4.4323164,2.3057603,1.011508,1.4435891,1.2564203,3.2933743.6550908,4.9520085-1.3460224,3.7135086-2.9668245,7.3732559-4.8504594,10.9394188-1.758192,3.2316485-3.7473582,6.4334296-5.9157286,9.5197235-1.0194726,1.4515537-2.6761155,2.301778-4.4283341,2.301778-.1871688,0-.3763287-.0099558-.5654887-.0298674ZM939.8483013,512.1745709c.090971.644015-.1930178,1.5752544-.8794693,1.9704991-.1232029.070935-.2293564.1865466-.3442213.2798821-.3734665.3034026-.2152939,1.4325133-.9725559,1.0841852-1.0800784-.4967938-2.4425279-.1056558-3.2168392-1.5939215-.6344325-1.2197084-.7254035-1.851403.0336008-2.9798915.5475683-.8142589.6191255-2.4769998,1.6592564-2.3341343.8204813.1126248,1.7436316-.0888554,2.5145829.4757622.4112985.3014115.8105255-.122954,1.3473913.1218339.0734239,1.0102635-.2883445,1.937645-.1417455,2.9757847ZM928.236618,508.423977c.5357458.5133453-.0384542,1.1704272-.198618,1.6954705-.152448.5000294-.3932536,1.0082723-.7799115,1.3819877-.6121565.5921204-2.1721038.851842-2.6604352.2023514-.3498215-.4653086-.3989782-1.2533091-.6798558-1.8242735-.4487571-.9123234.1321631-1.2000457.5501817-1.6030062.5750711-.5544129.9494087-1.5924281,1.8108332-1.1899654,1.1111903-.4083117,1.3972947.8003208,1.9578055,1.3374355ZM421.6442365,504.1423664c-.4686687-.7744358.1380121-1.0187259.5746978-1.3608316.6007073-.4706598.9917208-1.3519959,1.8914751-1.0102635,1.1607203-.3465858,1.4596428.6794825,2.0451675,1.1354575.5596397.4358146-.0401965.9935875-.2074537,1.4393579-.1592926.4244899-.4108007.8559488-.8146323,1.1732895-.6395349.5026428-2.2690483.7231635-2.7790335.1717373-.3655018-.3949958-.4168986-1.0639003-.710221-1.5487471ZM422.7399953,512.1326321c.7203012-.4735221,1.5060617-.7814048,2.7186765-.8057965-.7522842.9872407-1.753463.9767872-2.6759911,1.1026034-.1531947.0441788-.2802554.0166759-.3773243-.0925888.1116293-.0680727.2231341-.1361454.3346389-.2042181ZM408.8208095,511.0929991c-.0171737-.1716129.1362698-.2619616.2817488-.2610905.3800622.0021156.580049.1880399.5852758.3801866-.0102047.2890912-.1190961.4246143-.2721663.4166497-.3694841-.018916-.5637464-.2230096-.5948583-.5357458ZM618.3511739,597.7419468c-.0555035.2515081-.283491.5150875-.4752644.4165252-.8902963-.457344-1.0436154.6124053-1.5117863.6976518-.9092122.1653905-.5542884,1.8107088-1.9627834,1.3573471-1.4912524-.4799934-3.2972322-.2323432-3.9321625-2.2054557-.2383167-.7404617-1.2740918-1.0695004-1.0517044-2.0623413.2340854-1.0458554-.4299656-2.2843553.7410839-3.1340817,1.044611-.7577598,3.6337378-1.1557424,4.8174809-.6761224,1.5767478.6387882,3.6962104,4.154301,3.3751362,5.606477ZM619.9951232,596.6419568c.0502767.0988112.0996823.1971246.1492124.2955624-.1107581.053139-.2213918.1061536-.3321499.1592926-.0273784-.066206-.0965711-.1601637-.074544-.1933912.0664549-.0999312.1685017-.1762174.2574815-.2614639ZM607.6076352,580.182303c-.1397544,1.0000588-.9362173,1.4506826-1.8911017,1.6077352-.0795218.0131914-.1616571.0148092-.24093.0289962-3.6838901.6718912-4.8894114,1.8785326-5.5311864,5.5530891-.0543835.3124873.0348453.6732601-.0868642.9470442-.3489503.7846405-1.5185064,1.0540689-2.0866085.3142295-.6944161-.9043588-1.2662517-.2802554-1.9072799-.1697462-.2187784.4318323-.4376813.8635401-.6567086,1.2958701.037832.1672572.0754151.3348878.1132471.502145.3825511.209196.4911936.581418.5759423.9686981.0984378.453735.2945668.9919697-.3678663,1.1309774-.4913181.1032913-.679358-.3422302-.6891894-.7414572-.0165515-.6697756-.358035-1.1749073-.7061142-1.6904926-.8961453-.0369609-1.7351692.1901555-2.5517927.5358702-.9504043.402836-1.8348515.8533354-2.9022364.0833797-.7047453-.5088652-1.3389289.0710594-1.8006285.6830914-.0568724.4292189-.3040248.7220435-.6583264.9470442-.2054626.1305453-.4068183.2505125-.6476239.1065269-.356915-.2131783-.3259276-.5460749-.1457278-.8173701.306016-.4616996.7682134-.8224725.876607-1.4077483-.8182412-.3435991-1.1345864-1.1093236-1.5385424-1.8080954-.3312788-.5732044-.7716979-.9326083-1.4743276-1.1257506-1.9912818-.5461994-2.096191-.6488684-2.0190336-2.6198654.0522679-1.3284753-.0170493-2.4473813-1.7968951-2.8436217,1.0203437-1.0021744,2.350188-1.6109708,1.902302-3.1731582-.0435566-.1507057.1916489-.4967938.3755821-.5801735,1.0690026-.4849713,1.5175108-1.14504,1.6459405-1.8787815-.6418994-2.6285767-1.3061993-6.3164491-2.0034777-11.1791043-2.9787715-20.6403376-9.8960523-38.9470388-20.5587002-54.4183318.0268806-.2767709.0268806-.5794268.7745602-.5794268,11.2888669,10.0294598,20.4681025,21.2516229,27.3853833,33.4912675,4.7288744,8.4203558,7.5219704,15.7942338,8.5134424,22.390565.0075913-.0022401.0175471-.0088358.0250139-.0108269.2829932.5162076.1467234,1.4358734.2702996,2.2368164.2180317,1.4135973,1.5955393,3.0739737,2.7607397,3.3874565,1.0534467.2831177.9393285.9497821,1.2681184,1.4566561,1.3047059,2.0083311,2.0160469,4.4916778,4.5484257,5.4857631.8515931.3340167,1.3486358,1.0127524,1.2255574,1.8907284Z" fill="#fff"/>
    </g>
  </g>
</svg>