<?xml version="1.0" encoding="UTF-8"?>
<svg xmlns="http://www.w3.org/2000/svg" version="1.1" viewBox="0 0 1080 1080">
  <!-- Generator: Adobe Illustrator 28.7.3, SVG Export Plug-In . SVG Version: 1.2.0 Build 164)  -->
  <g>

    <g id="butterfly">
      <path d="M188.9404891,509.2823628c1.0567055.1294264.7560934,1.0177117,0,0h0ZM240.2281788,557.1557405c-3.0805136-1.9557763.6994002,15.2214265,0,18.8586395,1.1338635-.3384997.2712976,21.6872142,0,18.8575333-.4687558-.3805357-5.2879523,12.1516984-4.3108938,13.7280453-1.537353-.3196942-17.1346138,3.2555711-18.0231757,2.7566711-1.0558758.3263315-8.7622761-18.7081952-6.2321011-17.0588386.7024423-.6935926,7.8869888-1.8086506,6.3620806.430315,1.2190416.1957989,5.4945367-5.294313,7.0747553-6.13835-.9861847-2.1250262.6471319-16.0964373.5873966-15.6572726-.116705.0663725-.8114038-14.0090222-.1836306-15.6196615-1.0945931.1316388-7.0681181-1.7467029-14.3906641-.1570816-6.3147902.2610652-12.2114337,1.5265675-14.5742947,0-.8584177.5774407-5.1032156.2146044-14.5742947,0-4.6471812.0907091-13.8278806-.1902678-14.5875692-.053098-.0890498-.3805357-.0995587-.3539867-.069138.0121683-.0022124.0011062.0011062.0022124.0002766.0044248.1081319,1.2931575.7021657,6.7522956.082136,13.6583542-.1565285,7.3839406-.6515567,13.1683039,0,13.6218493-2.1217076-2.0863089.9170467,5.8175496,0,13.6218493-.1391057,6.5233105-.3014418,13.8419848,0,13.6218493-.8492914.9745695-13.6212962.3816419-14.4122352,0,.6443663-.2754459-.0674787-5.1471873,0-13.6218493.029038-7.3573916.5331924-13.0510458.1133864-13.583132.7029954-.0221242.4845192-7.2567266-.1133864-13.6605666-1.6476973-9.435957-.9402771-10.7811063,0-13.6218493-.2511093.6128394-12.5062382,1.226785-12.7197364.2234541-.6421539.4823068.1169815-13.5676451.1496147-15.1484168.7428189-1.1327573,11.4594886-.4446957,12.4879858-.0508856-.0793704-.7245665-.0672022-4.0122176.082136-11.432663-.8567583-6.5531781-.5442545-11.7844373-.1244484-11.6738165-.3899384-.7876203,1.1764526-4.9193084.1244484-11.3308919.1714623-5.2710827-2.3960472-8.9271012,0-11.5034604.9640606,1.0774469,18.9261182,1.7865264,17.9819694,0,.3780467-.955764,13.1309694.3351811,16.9197329.1902678-.8114038-1.3174941-.1391057-7.3286302.5907152-9.456975-2.1070503.1205767-7.9334496-.9413833-11.2465435-.7677086-7.9660827-2.2754705-11.2567759,1.5265675-11.7175117,0-.4977937,1.752234-6.0780616,2.8595485-11.7175117,0-4.7583551-1.1095269-9.8588051-.8562052-11.4282382-.4281026.6250077-2.2987009.0442483-13.4946354-.2892735-13.3320227-.6183705-.5807594,17.4816867-.1626126,16.9194563,0-1.1111863.1604002,9.5205819-.5011124,18.611402,0,7.7893659.743372,17.9061942.9491267,18.5713019.0342925,1.192216-.005531,10.6522331-.5165993,18.6517786-.0342925,9.7470781-.3429246,19.309696-.3351811,18.6116785,0-.6062022-.9889502,16.1846574.7035485,16.9194563,0-.2594059.1194705-.5398297,13.1096749-.1014946,13.7977364-1.2314864.4823068-8.8045886.5354048-6.5943844-.4601827.9704213-.8263376-15.9056164,2.0951586-16.4805682.4225716.5542104-1.4325398-6.6068292-.191374-11.5883619,0-4.7727358.7732396-8.8264362.8584177-10.6395117.5763345.8385059,1.5995772-.0135511,6.1726425-.5652725,8.3518729,3.1416316-1.4955937,18.3094071.0453545,17.7297539,1.1062083.6930395,4.3473987,19.0453122-1.2500154,18.1127786,0,.7967465-.5984587.9206419,4.8562545,0,11.5034604,1.5083151,8.3054121,1.0080323,13.2335702,0,11.5023542-.5990118-1.7278974-.5213007,14.66611.4471847,16.4271936-.8653315-.8661611-.2649369,5.2224095-.4471847,6.5786209.5832483.4679261,10.7974229-2.0752468,12.2045199,0-.6111801-.8385059.2190292,14.1174306,0,14.905051-1.099018-.0497794-13.3043675,2.8838851-12.2045199,0ZM188.9404891,532.3589747c-.156805-1.1117394-.5290441-.1969051,0,0,.3946398,1.274352-11.2542869-1.0431545-10.7758518,0-1.3324279-.1482319-7.8875419.1316388-10.1522269.1161519-.122236-.3528805-.3174818-.4480144-.6233484-.1161519-.3711329.079647-.0627773.1106208.6233484.1161519.5829718,1.678118-.6039897,9.6218-.6233484,9.775563-.2605121,1.6150642,8.6676953-1.6139579,10.7755753,0,.9872909-.6471319,8.3374921-1.2621837,10.7758518,0,.565549-2.6969359,2.3963238-12.0731577,0-9.8917148ZM188.9404891,509.2823628c-.063607-1.4524515-11.8118159,2.846274-10.7758518,0-.1078553.849568-8.7550858,1.3739107-10.6162813.6327512-.0685849-.3373935-.1261077-.5685911-.159294-.6327512-.3429246.2732335-.2289851.4789882.159294.6327512.3418184,1.6825429.9784413,6.1925542.5677614,8.2932438-.9375116.2134982-1.3509569.5719097-.7270554,1.1084207.374175-.0221242.5990118-.4535454.7270554-1.1084207,2.5683392-.5862904,9.183465-.0575228,10.0485199,1.1084207,1.9834315-.690274,7.8369329-1.2898389,10.7758518,0,1.1114628.0685849,2.3316106-11.5941695,0-10.0344157ZM204.0023451,519.3167785c-.8445901,2.3241437,11.0720391.324119,10.8419478,0,2.9015844-.0044248,12.6821253.8573115,10.8419478,0,.4684792-.244472.5060903-8.4503254,0-10.0344157-.1675906.2411534-10.3153926.0110621-10.8419478,0-.5464669-.4148281-9.8842479.5442545-10.8419478,0-.5276614-1.9104218-.5116214,9.2257774,0,10.0344157ZM225.4555962,532.5503487c.2400472-.0011062.557529-.0652663.2306444-.191374.5171524-2.3584361-10.5205943.1659312-10.8419478,0-.347626-1.8805542-9.3225707.7245665-10.6569344.2146044-.0533746-.1692499-.1131098-.2665962-.1850133-.2146044-.0182524.1050898.0633304.1681437.1850133.2146044.4289323,1.3495742.2923155,8.931526-.0544808,9.6881725-.042589-.005531-.0884967-.005531-.1305326-.0110621.0464607.1250015.0896029.100665.1305326.0110621,4.1773192.5210241,9.5877841-.4314212,10.7114152-.0110621-.8891149-1.6736932,10.9755224-2.0542289,10.8419478,0,1.7287271-.4546516-.578547-8.3817405-.2306444-9.7003408ZM225.507588,532.4043292c.0575228-.0154869.0945808-.0276552.1786526-.0453545-.0785408-.0298676-.1355105-.0099559-.1786526.0453545ZM167.306926,557.1192356c-.005531.0110621.0135511.0221242.082136.0365049-.0058076-.0243366-.0082966-.03208-.0132745-.053098-.0221242.0033186-.0619477.0066372-.069138.0121683,0,.0011062,0,.0022124.0002766.0044248ZM142.0701658,486.2046448c.1178112.0298676.2112858-.1415947.2892735-.4281026-.5071965.138276-.6515567.2942514-.2892735.4281026ZM250.3552394,486.2046448c-.0232304.0132745-.0696911.0243366-.1014946.0376111.0304207.047567.0638835.0409297.1014946-.0376111ZM196.172326,472.4788119c.0088497-.0121683.034569-.0221242.0401001-.0342925-.2195824.0254428-.2170934.0353987-.0401001.0342925ZM152.9768268,584.3994391c.0409297.0376111.0774346.0387173.1133864.0387173-.0326331-.0420359-.069138-.0608415-.1133864-.0387173ZM140.382645,542.2506895c.0038717-.0077435.0193586-.0132745.02406-.0199117.0041483-.1935865-.002489-.2112858-.02406.0199117ZM235.9172849,608.5999586c.0342925.0553104.0572463.1316388.1064726.1581878.0871139-.0862842.0226773-.1316388-.1064726-.1581878ZM323.8174281,552.5671884c.0049779.0011062.0071904.0011062.0124448.0022124.0118917-.0409297.0157635-.0542042.0262724-.0896029-.0033186,0-.005531-.0011062-.0088497-.0011062-.0088497.026549-.0204649.0597352-.0298676.0884967ZM366.3052305,525.8721691c.079647-.0011062.1476788.0199117.2403238-.005531-.1200236-.1758871-.1899913-.1305326-.2403238.005531ZM366.5455543,470.8681725c.0027655-.3119507-.0146573-.1338512-.0434187.3816419.1316388-.1084084.1587409-.2345162.0434187-.3816419ZM344.7341682,608.9218653c-.2134982-.1604002-8.3131556-3.6847799-10.2896733-3.2268097-.8548225.0121683-2.4555059-9.8054306-3.7912525-9.6682608.3633894-.4325275,1.5415013-7.0885829-.0713504-12.733564.0774346-7.147212.1321919-15.3840392,0-12.7258206-1.3349169-.5188117.4975172-5.1936481,0-12.7258206,1.3844197-6.2777322,1.4718102-12.9802485,0-12.7269268-2.7085511,1.2655023-13.391758-3.1737117-15.3209853-.1747809,1.9441611.8484618,9.0413172,4.7976255,8.4389868,5.0487348-.852057.1371698,3.7774249,2.3905162.9101329,1.4358584,1.6333166,1.0874028.0890498,1.0929338-.753881,1.0553227.0331862-.1150457.0641601-.2212417.0837953-.286508-.0229538.0730097-.0533746.1659312-.0926449.2854017-.4734572-.021018-.7173761-.0542042-.0298676.0884967-.5370641,1.598471-2.2514105,6.159368-3.2348297,2.8695044-1.0235193-.5177055-5.1225742,14.1992901-5.7702592,14.9968663-1.3949287.0353987-5.6289411,7.9458944-5.7705357,10.9724804-4.8601263,5.4823685-5.3700883,10.3485789-5.7699826,10.9724804-.374175-1.7599774-2.9712756,4.5819149-10.1702028,9.6328621-4.6148246,5.7511771-9.9096907,10.1483552-10.1699262,9.6317559.4336337-.4712447-11.0219832-12.3331166-10.3870196-12.4691802,1.8675562.1570816,7.7456707-4.2345655,8.2744383-3.8097815-.9408302,1.2843079,12.4586713-13.789993,11.328956-11.4968231,1.024902,1.06196,2.8144705-8.7279837,4.28794-8.1217815-3.0249267-.5420421,7.2523018-10.3087554,4.9950837-11.8021366.5207476.350668,5.4574788-11.9260319,3.9967307-11.8862084-2.6665152-.8882853,5.06035-3.9447389,2.9502576-6.9425634-3.2505932-1.4236901-10.4575404-.961295-10.3870196,0-2.8067271.7411596-9.680429-1.0708097-10.3870196,0-2.4261914-.5807594-4.7854572-19.7856421,0-19.2480249.2721272-1.035411,1.2898389-20.5909618-1.0492386-18.3210223-3.0016963,2.4513576,2.0160647-17.0112716,1.0492386-17.4283122,1.7724223-.504431-.4701385-18.2458001,0-19.2491311.6482381-.3163756,3.7284752-.4126157,5.7763433-.079647.2682555-1.6593125,15.7595969-.1604002,14.69017.079647,1.8191596,1.5730282,20.7768048.7256727,19.3290546-.0387173-.3180349.7577527,19.811638-1.3982473,18.6797103.0387173,1.6175531,1.5099744,15.0947657-1.3252376,14.618543,0-1.2660554.9590826,4.8778256,1.1405008,5.8042751.3816419-.1731216,3.1139764-.7693679,18.9736852.0434187,18.8674892.1634423,1.8042258,1.5810482,11.241289,0,17.8741141.77241,6.775526-2.6546234,17.9249997-.2403238,17.8807514-.5199179,1.4115218,2.3092099,18.0256647.2403238,19.2424938-.7607948-1.3816542-14.4534414-.1482319-10.7758518,0,3.1266978.0608415-11.1201592,1.1803243-10.7755753,0-1.4900626,1.5442668,1.2898389,7.0520781,0,11.2932808,1.3443197,3.8894285-2.4685039,11.3839899,0,11.2932808-1.5168882.7300975-.8329749,8.5045296,0,11.2932808-1.407097,3.7666393-1.9590949,11.167173,0,11.2932808-.1067491,2.0940524,3.0603253,1.8661734,3.7904228,3.5288046.422295-.8993474,12.552699-2.3661796,12.9586774.1969051.2411534,1.6040021,8.0601104-18.0378329,8.4395399-15.4802793.8232955.5907152,11.7388062,8.2489955,12.3344994,8.4569626,3.2243207.0442483-6.9043993,17.7480064-7.4010868,17.5234461-2.0099805.191374-13.7617847,5.4248456-12.9686333,4.5232858-.0837953,0-.1899913-.0221242-.30559-.0663725-2.5473212.1438071-16.734443-.1847368-17.1077883-.0486732ZM303.3022416,484.9999839c.3429246,1.2820954.1493381,6.8485357-.2464079,7.3673474-.2754459.6548753,5.4873464,1.2057671,6.8543433.2632776-.1238953-1.5066557,15.7607031.0719035,17.1658642-.2632776.9812068-.1957989,13.787504-.5420421,16.5137544,0-1.1460318,1.1349697,8.5349503,1.8860852,7.5064531,0,.7397768,1.0874028-.3343515-5.7445398-.1656547-7.2932315.135234-.026549.2417065-.0553104.3003356-.0884967.2898266.4380585.5226834.6814243.0176993-.0066372.0926449-.0597352.0564166-.1283202-.1523802-.206861-.0893263-.0442483-.1404885.0730097-.1656547.3019949-1.4950406.2953576-7.2174562.1969051-7.3407984-.3019949.6272201-2.9015844-16.4327247,1.805332-16.5137544,0-1.0943166-.0232304-19.2189869.8152755-16.5093296-.2699148-.4153812-.5829718-6.0255167,1.0453669-7.2644701.4977937-.063607-.2378348-.1438071-.345137-.2464079-.2278789.0262724.1039836.1219595.1725685.2464079.2278789ZM303.0306674,504.089821c-.2134982.9801006.3534336,5.6438749.1714623,7.0742022-.0846249.0940277-.1443602.217923-.1462961.4115095.071627-.0376111.1175346-.1869492.1462961-.4115095.8268907-.9170467,5.259744,2.4137466,7.0097656.8152755.5644428-1.9369708,18.9994045,1.8296686,17.0262054-.2500031,1.7035608.3960226,16.4058991-1.2466968,16.3516949-.153763.5580821.8916039,6.4989739.2854017,7.5064531,0,.2547045-.4524392.3465198-6.8861468,0-7.5974388,1.7032843,1.3053258.6393884-.8108507,0,0,.1966285,1.5365234-9.4235122-.3219066-7.5064531,0,.6938692-.4336337-17.1600566-1.0464731-16.5137544,0,.353157.8573115-15.3392377-.7533279-16.8519776.849568.8371231,1.0807655-6.6701596-.2555341-7.1933962-.737841.0082966-.0376111.0143807-.0862842.0251662-.111727-.0840718.026549-.0732863.0674787-.0251662.111727ZM343.5873067,531.2129429c.6219656.1183643,8.2545265,1.4546639,7.5089421-.0011062-.0517152.345137-1.3006244-6.9646876,0-8.0255414.9220246.2190292-.8542694-.9270026-.0251662-.0309738-.5240662-.0342925-6.7177266,1.4679384-7.4467179.0763284.0594587-.0066372.0613946-.0199117-.034569-.0453545.0071904.0165931.0259959.0287614.034569.0453545-.8091914.0929215-15.0485815-1.3783356-16.5483234-.0453545-1.6850318-1.1239077-17.1127662,1.7124105-17.5145964,1.5121868.7502858.3550929-7.365135-2.5841026-6.5056112-1.5121868,1.4690447-.8639487-.4234012,7.9846117,0,8.0255414.5246193-.0597352,6.7478708-.9900565,6.2874116-.3849605,1.9007425.9159405,17.2325133-2.5785716,17.732796.3849605-.5641662.403766,16.8945666.3384997,16.5112655.0011062ZM330.6532424,596.0267948c-.0235069.0022124-.047567-.0154869-.0713504-.0066372.0168697.0486732.0423125.0420359.0713504.0066372ZM401.067274,489.0719367c.0149338-.0110621.0259959-.0442483.0409297-.0575228-.1775464-.0022124-.2350693.0110621-.0409297.0575228ZM461.197993,575.6183574c.0152104-.0896029.0143807-.0896029,0,0h0ZM486.6797783,499.7324664c.0948574-.2289851.0967932-.3650487.0597352-.4635013-.2972935.2854017-.3578584.4546516-.0597352.4635013ZM505.0303917,485.1559593c.0082966.0099559.0326331.0387173.037058.0442483.2212417-.159294.1772699-.1570816-.037058-.0442483ZM483.2242601,472.4445194c-6.1953197-.5995649-12.3629842-1.3108569-12.2363234,0,.1078553-1.3772294-1.5940462-.6814243-6.4599801-.0641601-2.3537348,1.9690508-11.0518508-.9922689-16.2643044.0641601-6.3073233-2.0475916-10.2993526.775452-15.6254691.2256665-3.2226614-1.9402894-7.8626522.3362873-7.0988154-.2256665-.3501149.4104033-4.7362309-.6073084-12.2363234,0-4.2915352-1.9137404-13.2634378-.8385059-12.2357703,0,.5251724-1.433646,1.6576532,15.1251864.0409297,16.5698945,1.5890683.0199117,16.4836102,1.7157291,17.799445.0575228,1.0177117-1.5055495,7.0072766-.4104033,16.5665759,0,11.2296738-1.5907276,15.5018504-3.8695167,16.5665759,0-.0840718-1.4513453,19.3846416-1.247803,17.8406513,0-.4051488-.4369523-10.9716507,12.0388652-10.7429421,10.4990232-2.4693335-2.5420667-6.4621925,5.3197558-8.2135968,5.9856932-2.8769713-3.032117-4.9776609-2.9403017-7.0097656-2.580784-.6711919-1.7644023.982313,8.0664711,0,11.0576584-.045078,6.1571555.6122863,9.7213588,0,11.0576584.0810298-1.5564351-1.3014541,2.5398543.2065844,6.2876881,1.6795008,3.2422966-1.8960411,8.6671422-.2065844,14.2479632.4339102,3.0431791-1.6864146,11.081995.1338512,14.6959776-.0896029,3.3540236-3.3838913,5.0454162-.1338512,5.84078.5649959.1604002.2242837,7.8629288,0,11.0576584.2143279,4.7268282-.3456901,10.1030006,0,11.0576584-1.3340872-.0121683-6.6637989,5.8418862-5.8424393,6.0188795,1.155158,1.1803243-10.5371874-3.4911935-11.6868144-1.8628548-.2917624.2942514,3.9488872,9.3452479,3.7660862,9.6041007-1.9466501.8716922,4.0053038,11.368503,3.7660862,9.6041007.2193058,1.5564351,11.8737636-1.1792181,12.3344994,0,2.0636316.6869554,10.508426-4.2467338,10.5333157-4.1936358-.8042135-2.1526814,4.3642684-13.8995076,4.3982843-11.7169586.5901621.6991237-1.7284505-8.2733321,0-10.0167164-.9175998-3.934783-.0978994-9.4138328.0138276-10.0974696-.0044248.0254428-.0060841.0376111-.0138276.079647-2.285703-2.1250262-.4582468-11.0388529,0-18.6042116,1.4765116-6.2047225-1.2013422-17.1218925,0-18.6031054-2.1692745.2511093-.6167111-7.2224342,0-10.0178226.5193648-5.1648867.3213535-9.4016646,0-10.0178226-2.724038-.4679261,5.3598559-5.0100175,12.7479447-9.3607348,4.110117-4.1814675,12.388427-10.928232,12.8074034-9.8253423,1.1120159-1.0652786,5.7356902-3.8484988,9.1342387-6.8031812,2.591293-3.265527,8.1057415-6.754508,9.1566394-7.3098246-.5779938-.6825305-9.940388-12.0266969-9.5700848-12.7114399-1.0893386,1.3263438-6.9356496,1.2433782-12.2360468,0ZM533.1803977,565.0407934c.8102976.8573115.4684792-.1050898,0,0h0ZM515.6514206,584.8197983c-.6421539.100665,10.4016769-1.8683859,9.6093552,0-.6756167-1.0697035-9.2243947,9.0410406-9.6093552,9.6041007-1.1114628.7002299-.0990056,9.8706969,0,9.6041007.0387173.6382822,12.1964999-3.7655331,12.0742639-5.734584.3296501-1.3728045,5.654937-14.5189843,5.4547132-14.6207554-.8791591-1.3307686-1.433646-16.8718894,0-18.6318668-1.0492386-.1316388-18.0610633-.3860667-17.5289771,0-2.2143525-1.3208127,1.1393946,19.6141798,0,19.7790048ZM582.2796845,550.06937c6.265564-6.5653464,2.5321109-10.5554398,6.4671704-10.8120802.1067491-1.9557763,2.9992073-8.2489955,7.1010278-15.2745245,2.086862-6.8640227,6.3861407-16.7225512,7.1007512-15.2745245.5387235,1.8805542,4.720744-2.8285747,3.5050211-2.867292.7464141-.76439-.4258902-.7854079,1.4275618-2.0066619,1.0486855.7876203.8412714-.9458081-2.3352058-2.580784.1462961.3373935-14.0405492-5.798744-15.7117534-5.5885645-.3564756.371686-3.021608,7.3319488-5.3689821,12.5366589-2.6753648,7.0852643-8.2072361,9.8275548-5.3689821,12.5366589,1.8382417-.7942576-4.0888225,6.8595978-5.0371196,9.3994521-1.4405598,5.0487348-5.8584793,8.5963449-5.0371196,9.3994521,1.9134638,2.7301221-8.8416466,13.3795897-8.1414167,13.0322403,2.001684.3672612,13.442367,7.4680124,14.9316,8.3120494-1.3918866-.9624012,3.5570129-1.0343048,6.467447-10.8120802ZM613.7258686,470.1513495c-.0215711-.085178.1316388-.138276.3545398-.1769933-.1078553-.0287614-.2544279-.0022124-.3545398.1769933ZM613.8431266,530.2759844c-.042589-.0188055-.0724566-.0398235-.1172581-.0575228.1050898.2909328.1288733.2754459.1172581.0575228ZM614.2286402,609.8156816c-5.8075937,1.3042196-10.16882,2.2500277-10.6301089,1.8274562-.1178112,1.0708097-7.8153618-17.9393804-7.0122546-17.485835-.1529333.5719097,11.5847667,1.5995772,12.2047964,1.0011185-.605096,1.147138,8.6776512-2.5310046,4.9347953-4.8728477-.9424895,1.4104156.3567522-18.0953558,0-18.7712491,1.0379.855099,1.5448199-2.1194952.0660959-6.0719775-1.9261852-3.3396429,2.3327168-7.8894778-.0660959-14.5765071,1.9972591-5.8684352-2.3150175-10.9105327.4701385-14.1605728-1.1012304-2.7810077,2.7149118-5.0774962-.3528805-6.4292828-.0412063-.7776645-.5547635-4.2777076.3597943-6.9624752-.0793704-4.3839036,1.1197594-9.7235712-.4770523-13.7435322,2.3661796-5.5299354-1.5669441-10.0388405.3324156-13.975836-.7502858-3.4668569,1.6421663-6.0033926-.3324156-6.6726486-.2682555,2.4557825-.0190821-19.4537796,0-18.7701429.6156049.1161519.551998-.1261077.3545398-.1769933,2.3993659-.4225716,17.5400392,1.6006834,16.1346015,1.752234,1.6828194,2.3661796,2.7677332.557529,2.7248677,2.0066619-.8714156,1.2112981-1.1894505,1.8407307-1.2956465,2.1548938,1.3233017.976782-1.3664438,3.9967307-1.9707101,3.2489338.3149928,3.0254798.2782114,14.7590315-.0569697,17.4238873.2505562-.7666024,1.2195947,3.8075691-.4806475,6.7069411,3.2796311,4.5122238-.2627245,10.609644.4292088,13.9570304,1.8777886,2.5000308.4377819,8.2379334.1966285,13.6727349,2.8670154,3.4757066,2.7038497,9.2014408-.1966285,6.6306127-.3785998-2.3484803-1.5921103,2.8529113.1164284,6.5476471-1.133587,3.7799138.1341278,11.6162936-.1164284,13.7568067,1.8620252,5.4436512.7201416,11.5620894-.0572463,13.9061449,2.8614844,5.0686465.4977937,5.0852397.0572463,6.3972027-.1056429.684743-2.1913987,19.0931557,0,18.4581921-.5370641,3.1792427-3.4245444,12.3386477-4.7063633,11.3939457.5423186.7356285-4.6510529,1.6681622-10.6301089,1.8274562ZM631.6436779,475.8903583c-.1449133.4314212.1244484.2433658,0,0h0ZM654.3159706,542.1279004c.1532099.2278789.2057547.2765521.1902678.206861-.2176465-.313057-.3003356-.4115095-.1902678-.206861ZM675.3499688,542.0748024c-7.2462176-4.8993967-6.5678354-8.2180216-6.5401802-9.3496728-1.4582591-.2566403-2.0014074-2.4015783-5.1842453-9.1096256-4.1745537-4.5675342-7.452802-8.4226702-5.1839688-9.1096256.5083027.0420359-3.531017-8.2932438-4.3761601-9.4923736-3.3177953-5.0830273-4.4981196-8.3618287-4.5047569-9.2335209-1.3578707,1.6172766-14.8397847,5.362898-14.1533824,6.7655701.0987291.8451432,2.779625,3.9989431,4.3521001,10.0709206.9126219,4.6471812,2.5160708,9.3695845,4.3518235,10.0709206-.4076378-2.315294,3.7848918,3.3639795,5.1023859,9.7202525,2.2373063,4.0022617,5.1980729,9.4934798,5.2926537,9.9271135.9159405,1.3174941,4.2691345,6.5188857,6.1958728,9.8153865.9507861,5.5078112,5.8103592,9.9492377,6.3861407,10.0233536,4.0061334-1.6172766,10.6489144-9.3906025,13.832582-10.5952633-1.7724223-1.7710395-5.2141129-6.9657938-5.5708651-9.5034357ZM681.890149,551.4244752c-.2663197-.058629-.600118.0143807-.969315.153763.7771113.7776645,1.237294.902666.969315-.153763ZM667.0882519,562.1735015c-.5940339.3086321-.6559815.982313,0,0h0ZM649.5606576,495.779984c.077158-.0918153.1346809-.1814182.1285967-.2588527-.0973463-.0420359-.1299795.074116-.1285967.2588527ZM708.1045207,552.2828928c-.0279318-.0121683-.069138-.021018-.0992822-.03208.0165931.047567.0442483.0696911.0992822.03208ZM696.4177064,488.6416217c.1144926.0553104.3545398.106196.6449195.153763-.1780995-.23341-.3874495-.318588-.6449195-.153763ZM699.7949604,608.3455307c.8678204-.1438071.6642781-.7632837-.0027655-1.5686034-.5342986.1935865-.8141693.637176.0027655,1.5686034ZM725.3710499,575.663712c.0724566.0730097.1852899.1150457.2948045.1604002-.1266609-.1969051-.2323037-.2765521-.2948045-.1604002ZM711.6078825,503.0256485c.00802-.159294.0091262-.2743397.0013828-.3362873-.8194238,2.209098-.3268846,1.1593063-.0013828.3362873ZM731.3434687,605.192837c.2046485.1880554.2934218-.0353987.3003356-.5232365-.8172114.3274377-1.0658317.5398297-.3003356.5232365ZM749.5226197,470.1513495c-.0022124.0619477.0533746.1150457.1274905.1637188-.0351221-.1150457-.0752222-.1869492-.1274905-.1637188ZM717.3703982,599.6197595c-.8539928-.9845254-11.8057318,4.4790375-11.3433367,3.7080103-.0879436.1935865-4.2492227,3.1394192-4.6748364,3.4414141.1811416-.0818594-.8902211-.23341-1.5600303.0077435-.679765-.8185942-1.8407307-1.8307748-2.8545706-2.7312284,1.4093094.8694797-5.0407148-11.591957-3.5050211-12.7556882-.0633304-.23341,16.3160197-3.6062391,18.3685892-3.7666393,1.1017835-.961295-.7937045-6.2943254-.1919271-10.3585348.9706978-6.5011863,2.8689513-8.7091781,0-10.5399529-.6675967-3.0022494.4955813-5.5022802,0-10.5388467-1.4790005-5.0210796-1.4314336-8.1273126-1.0315393-9.6649421-.5625069.1659312-1.2328692.1891616-1.7544464.0619477.2809769,1.7467029-.9668261,5.3407738-.8180411,5.7677702-2.328292-.8429307-11.0532336-.8672673-11.5875322.03208-.2524921.844037-2.5536819-19.0179335,0-16.5002034.7616244-.7278851,4.078037-6.5642402,0-15.3209853,2.0274033-7.6073946.5882263-11.4669555,0-15.3209853,1.0945931-1.4712571,2.0592068-14.4869042.6449195-16.3453342,3.2268097.5320862,16.1882526.5608476,14.5466395-.153763-1.1421601.748903-.2826362-9.1815291-.0514387-10.0023357-2.0979241-1.1294387-.2240072-11.3640781.0514387-9.9204763-.1501678.2798707,10.6378524,1.3993535,9.8671017.7146106-.1263843-.0232304,5.3955311,2.1571062,4.2848979,2.1493628-1.4375177.3550929-.5804828,2.7256973-1.4275618,2.150469-1.5130164.897135-1.7198774,1.6803304-1.5572648,2.4369769.1346809.1725685.1028774,13.0189658,0,12.4713927.4220185,2.0796717,12.8519283-.8296562,14.8016205,0,.4582468,1.1460318-1.8705983,5.8629041,0,14.2258391.2663197,6.0277292.9507861,13.4625553,0,14.2258391-1.7002422.5232365,1.0697035,5.1317004,0,14.2269453-.9010067,5.3662166-.5746752,15.393995,0,14.2258391-.2466845,1.518824-11.6362054,1.2776706-14.2695343.3031011,1.8235844,2.315294,1.8835962,18.6396103-.5320862,19.0566508,2.2373063,1.4734695-3.3139236,19.1539971,0,19.3597519.8166583-.8661611,3.7696814-2.6084392,4.5951894-2.4668446-.138276-1.7389595-1.1501801-5.1117887-1.7057732-5.9746312,2.3235906.9535516,12.5043024-4.2810262,11.1323275-3.4557948-.1993941-.153763,3.2511463,13.9205256,3.8949595,14.0477395,3.8532001,2.3230375,1.3075382-18.2524374,0-16.5046282-1.2610775,3.5111052,2.4596542-7.5354911,0-15.3254101.7486265-7.6593864-.831039-15.7026272,0-15.3265163,1.2118512,1.7953761-.976782-18.5831936,0-16.5046282,3.4120996,1.8009072,8.9442474-.7599651,8.8294783,0-.7110154-1.5874089.4377819-10.0664958.3022714-13.0211782-1.8894038-.0154869-8.8734501-2.3164002-9.7816471-1.0254551,3.0307343-2.2633022-2.8805665-11.4769114,0-13.1871094.2403238,1.7113043,8.3164742.6493443,9.4793757,0-3.3227733-3.7190724,3.3465567-10.6870786,0-12.6848909-.2054782-.3727922.5525511-11.1251371.1274905-12.521172,1.2953699.8661611,13.559072-.1305326,11.8170704.6969112,1.5304392-.5708035,3.334665,3.8518174,4.2848979,2.0066619.5083027,2.0885213-.2400472,1.7688271-.6897209,1.4535577.2477907.4480144-1.0011185,1.4734695-1.5177178,2.7024669-1.0829779.6150518-4.5304762,17.7380505,0,18.3464651,3.2091104-1.5110806,9.5764455-1.3661673,9.8668252,0-.1111739.2267727,1.3208127,16.5820628,0,13.1871094-1.3523397,3.3650857-9.9398349,2.9624259-10.0261192.6438132-.6111801,2.5730406-2.6720462,12.2213896.159294,13.4028201-.4651606,3.5830088,8.8203521-1.9900688,8.4395399,0-.1955223-.132745-2.771605,17.0168027,0,15.6495292-.430315,2.8108754-2.9201134,13.5200781-.7757286,16.0344897-2.6134172,1.3816542,1.439177,13.4968478.7757286,13.0300279,1.2856906-.0774346.0204649,14.9006261,0,15.648423.2867845,1.757765,1.0984649-9.9337508,2.8573361-11.6096564-2.9779128-1.4502391.5118979-12.7855558.7773879-13.6174245-2.1714869.0221242-.3390529-3.1416316.1612299-3.4635383-.1905444-2.1150703,1.2364644-18.3077478-.1612299-18.3177036-2.957448-1.8197127-1.3636783-16.3508652.3589646-16.9106067,2.6977656,1.5044433.9834192-7.3264177-.1792057-11.7700566.860077-7.2113721.4095736-12.9636554-.1797589-11.7700566.5398297-2.5553412,1.2447609-5.4978554,0-10.890621,2.6543469-5.5299354,1.7710395-8.5388221,0-10.890621-.1581878-1.5143992,13.6378893-.7876203,15.7106472,0,1.4726398.1360636,14.8926061.419253,15.7106472,0-.8169348.0088497,1.0376234,18.3708016.0188055,19.556657.0995587,1.2544402.5370641,16.583169-.4989,19.0677129,1.5542227-2.2168415-.0279318,4.9469636.2400472,12.0466087-1.0403889,3.8119939-.5016655,10.4049955-.0442483,11.9149699-.9087501.0298676-.7093561,5.8573731.4225716,12.4470561-1.3650611,4.2378841-1.6252966,13.6129996-.228432,12.7169709-1.1305449,2.5321109,1.863961,16.7789679.090156,18.0887185,1.1869615,1.2854141,1.7790595,10.4945984,1.8545583,12.6871033,1.1670498-2.5863151-.6023304,11.2811125-1.8545583,6.9126958.1808651,1.9391832-1.4939343,8.6881602-2.930899,9.4536563-.6416008-.8163817-7.1015809,3.5299108-8.8419231,3.430352-.3053135.4767758-1.5907276.8329749-.4319744-.5564228,1.6908394-2.9391955-5.1477404-.212392-4.8045393,0-.0030421-3.3363243-3.5843915-12.9924168-5.0703059-14.8995199,2.4886922,1.4303274,3.6297461.7101857,5.960527.1393822.1941396-.3595177,3.8927471-5.5907769,3.2644208-4.5918708,1.5608599-.8949225-3.1361006-9.2169278-2.3614782-7.3562854-1.1399477,3.4071216,2.1341524-12.5576769,2.3614782-15.3707647,3.295118-.6814243-.3418184-4.5022679.7049313-9.9890612-.6628953-3.6449564-.6416008-6.4879118-.1374464-8.2965624-1.2254023-.1991175-2.9718287-2.501137-.5674849-4.4414264-1.4300508-.3119507-2.0575475-4.5365603-5.4682643-.7511155,2.0959882-1.4048846-2.328292,18.1971269.0677553,18.0024343,2.4004721-.2522155-.0005531,6.3252992-1.3988004,7.5377035,1.3053258-.1758871-2.660431,5.9624629-2.267174,8.3928026-.7887265.7511155-3.9618851,9.616269-2.8202781,11.3673967,2.097371-.5210241-6.0495768,9.2246712-5.8781145,9.0399344.0417594,1.2643961-4.266369,11.4260258-4.4364485,9.3540976.4817537,2.4148528-12.2448965-7.6881479-12.0745404-7.4547379-1.2245726-2.0564413,8.5432469-13.312111,10.4401176-15.4083758-2.3459913.7400534-16.3929012-.8694797-16.6724953-.3573053,1.9756881,2.7411842.8279969,4.3053628,0,4.5863397,2.4944998-1.407097-12.1450612-2.5951647-12.0742639,0-1.9059969,2.9237086-.1216829,10.0554337,1.4275618,10.3187113-1.9579887.3561991-9.0468482,2.2644084-11.3867554,3.2046855.0293145-2.1217076-1.492275-9.2490078-1.8578769-9.5111792,1.2118512.950233-13.8311992,2.9292396-12.4155291,4.4613382ZM788.3806761,487.5464755c1.2162761.9712509.459353,17.8453527-.0373345,16.7181264.0113386.2699148,6.4710421.206861,5.8421627,0-1.4585357,1.0431545-1.3166645-13.4625553-.2356224-16.3464404.3617301-.0674787.4944751-.1991175.2356224-.424784.8783294-1.6659497-.8340811-.5398297,0,0-.0829656.079647-.1612299.2267727-.2356224.424784-1.1338635.2134982-4.5465162-.2024361-5.5692058-.371686-.0132745-.0110621-.0237835-.0464607-.0373345-.053098-.3949164-.0353987-.310568-.0044248.0373345.053098ZM788.3433416,534.0791286c.3974053,3.1161889,4.1106701.2831893,5.4491822-.3230128.1191939.1404885.2447486.2643838.3929805.3230128.2173699-.4922627.0237835-.5121745-.3929805-.3230128-1.9259087-2.2798954-.2591293-14.7169956.2641072-16.5123717.0591821-.0840718.1073022-.1604002.1288733-.2201355.7486265-1.6316573-3.446392-1.0044372,0,0-.0232304-.0884967-.0713504.0232304-.1288733.2201355-.6913802.9745695-3.7763187,3.2599959-5.7132894-.2201355-1.5442668,1.9712632,2.1286214,16.3862639,0,17.05552ZM753.6772617,574.0884713c-.1014946-.2721272,4.300938-1.6582063,6.1023982,0-2.2447732-.9679323.4662668-19.907325,0-19.2878484.3503915,1.1405008,1.1139518-17.969248,0-19.2867421.4234012-.0907091-1.6855849-.0099559,0,0-2.583273,1.2500154-6.4021807-1.0896152-6.1023982,0,.5492324,1.0929338,1.2544402,18.9958094,0,19.2867421.8810949.2787645.8537163,18.845365,0,19.2878484ZM749.6871682,508.8498354c-.0439718-.0940277-.0973463-.1460195-.1645485-.1415947.0727332.0553104.1026008.0907091.1645485.1415947ZM722.7764383,531.7848526c-.1604002-1.1283325,2.2981478-.7024423,3.5379308-.3097383-.0163166.1471257-.0282083.2566403-.0331862.3097383,1.1073145.1659312.8055962-.0652663.0331862-.3097383.2558107-2.3208251,1.7655085-15.4935538-.0331862-14.2380073.2455782.6980175-.984802-12.3242669,0-14.5477457,1.5475854-3.1394192-1.8255203-.9225777,0,0-1.380548-.6128394-2.7768594.2477907-3.3205608.3694736-.0143807-.3539867-.0672022-.5143869-.1841837-.3694736-.1332981.3584115-.0389938.4203592.1841837.3694736.0915387,2.2422843-1.502784,13.0056913-.1841837,14.1782721-2.8921817-2.6648559-1.0132868,15.7424507,0,14.5477457ZM711.6092653,502.6893612c-1.7489154,1.1836429-3.7757656-1.120589-3.5047445,0-.5218538-.4922627,1.6952643,14.6915528.6407712,15.2369135-.151274-.5387235-.3553694-.8307625-.6407712-.6891678.2873376.5652725.4947517.7654962.6407712.6891678.8918805,3.1814551-.2967404,16.0765256-.6407712,13.8585779-2.2923402,2.840743,2.9173479,4.008899,3.5047445,0-.3833012-.8827542-.1783761-13.7037087-.0304207-14.5488519.0113386-.0044248.0188055.0066372.0304207.0011062-.0094028-.0696911-.0199117-.0608415-.0304207-.0011062-1.7992478.6305387-.0923684-11.8242608.029038-14.2103521.2143279-.5420421.3564756-.9867378.0013828-.3362873ZM785.1190209,580.0188542c.0287614.1780995.0807532.3373935.1604002.4712447.0580759-.5055372-.0154869-.6095208-.1604002-.4712447ZM807.0401981,536.5957526c-.106196-.1050898-.1985644-.1360636-.2842955-.132745.1059194.350668.2076906.4281026.2842955.132745ZM784.4486586,596.447154c.1836306.1194705.3418184.1980113.5118979.2964638-.2237306-.2876142-.4029364-.4092971-.5118979-.2964638ZM807.3164737,561.2232685c-.1579112.0331862-.2718507.191374-.3664315.403766.1122801-.0719035.2323037-.1902678.3664315-.403766ZM937.0005942,484.6426786c.1277671-.0619477.2541514-.0873905.3819184-.1570816-.175334-.1969051-.2964638-.1106208-.3819184.1570816ZM829.7124909,604.295702c-.0337394.0608415-.0517152.1172581-.0954105.180312.1429774.0896029.1203002-.005531.0954105-.180312ZM829.7124909,604.295702c.1664844-.29757.2190292-.5708035.1670375-.8307625-.2206886.3174818-.1952458.6283263-.1670375.8307625ZM859.088406,591.5743063c-.4941986-1.8927224-13.8901048,6.9691124-13.4039263,4.7478461-.8138928,2.4004721-9.7373988,4.386116-12.0427369,4.4259395-.1366167-1.0166055-.8954756-1.1006773-1.8172237,1.8628548-1.1687091.1670375-1.7038374.5077496-1.9449908.8539928-.1443602-.7190354-1.0536634-1.3617424-2.4696101-2.2865326-2.2041201,1.0475793-3.0044618-10.6915035-3.1175716-12.3286918-.4922627.1980113,14.5958657-4.8595732,15.7117534-3.5819026,2.4065562-.0564166-.0536511-8.3087307-.4712447-6.7965439,2.0395716-3.9115526,4.5769369-15.9282937.4712447-16.1462167.4917096-2.1128579-4.9032684-10.8054429-3.663762-14.5897816-1.3567645.6139456-11.9299037-.2013299-11.267838-.1836306-2.7439497,1.6117455-3.2909698-6.5775147-1.5677737-8.1140381-.6501739-1.1460318-.3384997-10.4083141,1.0041606-10.5399529,1.6670559-4.3186373.5633366-8.2478893.3564756-9.7158277-.27351-.1084084-.3387763-4.5675342.1993941-11.103013,1.2596947-3.7821263.6471319-11.2899622-.0077435-10.5200412-.8138928-1.088509.148785-6.3916717.1291498-7.6538554,1.6833725.775452,16.9960613.4966875,14.8179371-.2588527,1.5257378-1.7765706,1.04592-11.7280207,0-10.8939396,2.1183889-1.353999.6233484-8.9636061.1377229-10.5996882,1.0846373,3.0542412,6.350742,2.7522463,11.0269611.4225716,1.7630195-1.6139579,6.0332602,3.4447327,4.6745598,2.2931699-.0094028.5995649.0846249.8351873.1579112.9281088-.1225126-.0431421-.4151047-.0519918-1.0677676.217923-.5085793,1.5177178-1.5287799,2.3562237-2.2715988,2.7478215.5934808,1.6947112-.2361755,18.2546498-.0633304,14.884033.6327512,2.4790129,13.0842321-2.6482627,14.9293876,0,1.9837081-.026549-2.7281863-1.6482504,0-5.1604618-2.7342704,3.2876511,8.4268185,2.3595424,7.9221109,0,1.9123576.4789882.0190821-15.6417857,0-16.4847165-1.1064849-1.4480267,12.2697862-.0431421,12.5944583.8606301.9010067,1.2112981,3.2544649.8916039,4.024939,1.5763469,1.1084207.3075259-1.925079.9048784-.6498974,1.1449256-.5580821,1.168156-1.4148404,2.1781242-2.2074387,2.580784,1.388568-.9314274.3224597,8.6914788.0309738,10.5665019.2483438.9424895,4.4892699-.1150457,7.3684537-.244472,1.2616306,1.0442607,1.3103038-15.415013,0-16.1971023-.318588-1.1803243,10.229938,3.3230498,10.1295496.5730159-1.6803304.138276,4.8377256-.7787707,3.8949595,2.150469,2.2212663-.4579702-.2931452,1.9712632-.8246783,1.6150642.0041483.7024423-.2273258,2.3916224-1.3827604,1.6803304,1.3985239.2842955,2.1463207,10.8496912,0,10.1782228.5912683.9048784,7.7088893.4048722,7.5296835,0,1.0638959,1.3938225-.27351-16.8829515,0-15.9105943.9294915.7942576,10.8400119.7599651,11.4268554,1.0022247-.334628,2.7279097,5.1098528-.4469082,3.5050211,1.8628548,2.4756942-.0331862-1.3166645,2.1394069-1.2975824,1.5785593.6393884,1.2809892-3.6150888,1.3462555-1.8197127,1.8628548,1.9668384.9867378-.090156,9.5299847,0,9.6041007.8177645-.3650487,4.9795968,2.2013546,9.2277133.1570816-.5384469,1.6924987.4994531,11.3452726.3819184,12.7413075-1.8993597,1.1858553-10.2174932.2345162-9.6096317,0-.111727-1.9867502-2.3573299,19.8066601,0,19.3520084-.4502268.8219128-17.86803-1.6482504-15.5806677,0-1.8775121.292039-12.79164,1.725685-15.5806677,0-.8855198,1.85843-.1415947-20.7148571,0-19.3520084,2.8094926.2455782-8.9553095-2.2068856-7.3994275,0-.8064259,5.2578082.2566403,10.5853075,0,12.4702864-.1532099-1.1051021.230921,10.258976.1366167,12.4935168,1.5802186.2765521,1.1664967-1.8894038,11.3541222-.0232304,5.8341427,2.5719344,11.1915096-1.4192653,11.490739,0-.018529.5398297,6.1286707-.7212478,11.490739,0,6.8739785-.2367286,11.4664024-3.1637558,11.490739,0-4.0614439,3.3573423,1.0835311,13.7722936,0,12.1848847-2.5509164,1.2345285-12.3380946-.8451432-12.5947349,0-.8669908,4.9281581-12.9553588-2.2234787-12.5941818,0,.3860667-1.3197065,3.340196,4.5354541,1.3888446,6.5321602,3.4563479-.4557578,11.220271-.589609,12.3093331.6349636-.5428717,3.0287984,13.8544296-.9723571,13.6981777,0-.3631129.0608415-.3617301,13.205915,0,13.3298103-1.0542165.6736809-16.4117067-.5564228-13.6981777,0,.3307563.2035423-12.5308514.191374-13.7108991.0497794-.8185942,1.545373,2.1335993,4.0730591,6.4796153,11.6162936,1.489233,6.9956614,7.8963916,11.501248,6.4671704,11.666073.7093561,3.7301345,6.4102007.7887265,8.5296958,9.1262187,4.2707938,3.8341181,8.5880483,5.7047163,8.5296958,9.1262187.5909918.1017712-11.8853788,11.2645194-9.0894373,11.8972705.1194705.0962401.1139395.1194705.042589.1017712-.0063607-.0022124-.0094028,0-.0204649-.0066372-.3467963-.1050898-1.784314-.897135-.2959107-.2201355-2.1637435-1.7754644-13.7675923-12.7955117-10.9085968-12.122937,1.9859205-.2345162-6.8822751-12.8685214-9.33225-14.7147831-.0439718,2.9314521-1.5332047,13.8253916-.3893853,14.9481931,1.6161704-.7688148-.8368466,16.2557313,0,15.1694348.0854546,1.0984649-14.4902228.5442545-14.4119586,0-2.785156.6460257-.1651016-14.9349186,0-14.3430971,4.1535357-.7688148-1.8371355-15.8652398,0-14.3430971.018529-3.589646-10.5507384,11.5952757-11.3613126,14.4503993-.2912093-1.7920575-12.7703455,12.3397539-13.6976246,12.5134286,1.2220836,2.3694982-10.4522859-10.3729155-10.6469786-10.1749042-.3470729-2.4402956,1.5038902-2.8683982,3.8202904-3.4380955-2.4286804.3628363-4.9099056.2544279-4.3402084-.4336337,2.9662976,1.3827604-1.943608-4.8451925-.259959-4.2998318ZM908.4286159,505.4128461c.6064787-.743372,7.4027461-1.2511216,7.5296835,0,.2701914-2.2334346-1.8122458-7.1848231,0-8.02886.4471847.7300975,1.5600303-.8208066,0,0-.0470139-2.1913987-6.6939431.23341-7.5296835,0-.3199708,1.1305449,1.099018,6.7323839,0,8.02886ZM836.9318829,546.7120277c-.1811416-.2422596-.2757224-.525449-.3514977-.8152755-.074116.4679261-.1023243.9402771-.085178,1.4115218.1155988-.2223479.2566403-.4236778.4366757-.5962463ZM839.3652647,539.6876048c-1.099018-.1471257-2.8697809-2.2367532-2.8683982-.3042073,2.1300041-.6227953,2.2610898.047567,1.8017368,1.3849728.3647722-.4535454.7331396-.8418245,1.0666614-1.0807655ZM840.0041,503.1196763c.7984059-3.1040206.0022124-.8882853-3.5072335,0-1.3611893.5221303,3.2041324,11.8375353,0,11.3231484-3.260549-1.9369708,3.1615434,11.7368703,0,11.3231484.7179292.6924864,2.1958235-.9944813,2.989528-1.1582001-.1338512,1.0608538-.0459076,1.6217014.5177055,1.1582001.0746691-.982313-.1476788-1.2345285-.5177055-1.1582001.4267199-3.3805726,3.1709462-11.9946169.56306-10.1870725.1203002-.8982412-1.0918276-12.9614429-.0453545-11.3010242,1.789292,1.757765,3.2555711,2.1228138,0,0ZM852.7537041,503.9072966c.6382822,2.9535762,2.9198369,13.1517108-.1551457,10.5355281-1.7093684,2.1969297.5047075,8.6903726.3224597,10.710309-.3824715.0829656-.576058.2621714-.3224597.6128394.1999472-.0409297.2917624-.2699148.3224597-.6128394.9787178-.2101796,3.3128174.2765521,3.4422438.6128394-1.7118574-1.0110744.4402709-13.63623,0-11.3231484-3.9917527,2.1670621-1.2088091-7.1339375-.2784879-10.2932685,1.3199831-.1626126,2.089351-.5685911.2784879-1.02988,1.4928281.2057547.0970698-3.0177363,0,0,.005531.0608415-.1095146.456864-.2784879,1.02988-1.1330339.1393822-2.665409.0984525-3.3310698-.2422596-.0990056-.456864-.1612299-.7533279-.1551457-.7876203-.3072494.3550929-.191374.6117332.1551457.7876203ZM866.1006606,563.9102485c.7074202,2.9845501,5.6223038,12.8618842,3.2788015,13.3486159.0813063.557529.366155,14.9271751,1.9159528,14.745757.6897209,1.4745757,4.2088461-6.3728662,7.0255291-8.0797456,3.7013731-4.9480698,7.6167974-6.8463233,7.0255291-8.0808518.2555341.313057,4.7666517-5.3109062,5.1140011-10.4193762.9640606-2.4579949,5.769153-11.4691679,5.1137245-10.41827.3304797-1.4524515-8.1403105,1.2953699-12.6594481,0-1.6681622-1.8672797-15.019267,2.7953884-12.6594481,0-2.168998,1.0641724,1.3896742-12.6871033,0-13.3298103,1.9165059-1.253334,11.9415189-1.1969174,12.6594481,0-5.7016743,3.3307933,13.1185245.9391709,12.6594481,0-3.0733233-1.1836429-3.49147-7.4558441-1.5597537-7.8341674.6214125.1460195,1.1822601.3429246,1.5597537.6670436,2.1966532,1.0121806-1.0190944-3.0453915,0,0-.6283263-.5719097-1.1452022-.7477968-1.5597537-.6670436-2.7306752-.637176-7.213861.206861-8.5023172.6670436-.443313,3.5299108-8.5006579.7953638-10.0620709,0,1.4245198.8484618,2.7046794-19.8863071.3260549-18.8121788,1.0301565-2.4469328,3.3648092-17.7977857-.3260549-18.3132788-.2746162-2.3219313-6.1950432-1.0343048-7.5318959,0,1.6217014,2.8606547-1.6192124,5.070859.7226306,5.1106825-.9305978.3738984-2.2212663,17.135167-.7226306,15.8895764,2.7292925,1.1161642-1.0730221,12.7689627.1667609,13.8054799-.3481791-.7422658-1.2054905,4.7965193-.9234074,6.7876943-2.7779657-.3761108-12.4907513,1.0309862-14.2568129.5973525-.0918153-.0707973-.1816947-.1427009-.3061432-.191374-.0063607.0884967.122236.1471257.3061432.191374,1.3401714,1.0398358-.6216891,4.2909821-1.4104156,5.4547132-.0008297,0-.0011062-.0011062-.0022124,0-.461842.6239015-.3365639.5000062.0022124,0,2.4790129-.5265552-2.1488097,14.2479632,1.1042725,15.5765194,1.8432196,1.8960411,1.9950467,4.9713002,1.5970883,7.7998749-.047567.206861-.079647.445802-.1092381.6935926-.4737337,2.7301221-1.388568,5.1128949-1.6822663,5.7832571-1.0708097-3.2367656-3.1560124,6.7213218.0091262,6.9204393-.0251662.127214.0351221.159294.1852899.0254428-.0685849.0044248-.1211298-.021018-.1852899-.0254428.0909856-.456864,1.3271734-2.1703807,3.7044151-2.0995834.5757814.7997886,1.2312099,1.0818717,1.933099.403766-.7148871-.2754459-1.3542755-.3871729-1.933099-.403766-1.4729164-2.0453792-2.3860914-7.6372623-2.031275-10.604113.0398235-.2300913.0763284-.4601827.1092381-.6935926.1855664-.8042135.5066434-1.2843079.9977999-1.1980236,4.6424798,3.3827851,10.3400058-2.0265737,10.9072141-3.297607ZM840.0041,467.8570735c.0271021.1139395.1001119.1902678.1377229.2953576-.0752222-.2522155-.1277671-.3727922-.1377229-.2953576ZM856.0012551,471.7962813c.0766049.0973463.1178112.0420359,0,0h0ZM825.0725,489.6460589c-.1332981.0984525-.0536511.1825244.1136629.2588527-.0035952-.2223479-.0340159-.3340749-.1136629-.2588527Z" fill="#fff"/>
    </g>
  </g>
</svg>