<?xml version="1.0" encoding="UTF-8"?>
<svg xmlns="http://www.w3.org/2000/svg" version="1.1" viewBox="0 0 1080 1080">
  <!-- Generator: Adobe Illustrator 28.7.3, SVG Export Plug-In . SVG Version: 1.2.0 Build 164)  -->
  <g>
    <g id="tailor">
      <path d="M848.3300781,721.6611328c-3.0336914,1.1411133-6.125,1.6538086-9.2592773,1.6538086-13.8168945,0-28.5078125-9.9379883-42.8012695-19.609375-11.6425781-7.8759766-23.6791992-16.0195312-35.0112305-18.6557617-22.0117188-5.1245117-42.5390625,3.7211914-50.3041992,7.7338867.2900391,1.6489258-1.3942871,3.6220703-5.0712891,5.9228516-2.4611816,2.574707-3.9282227,5.8569336-4.3945312,9.8422852-1.0554199,1.5214844-2.9887695,1.8740234-5.800293,1.0551758-17.8144531-.9394531-31.8759766-2.0517578-42.1865234-3.3388672-13.4770508-1.9951172-24.3178711-7.4448242-32.5175781-16.3476562-2.229248-3.1640625-4.1625977-3.3413086-5.8000488-.527832l-4.3945312,7.3833008c-1.7583008,2.6933594-2.229248,5.0361328-1.407959,7.0307617,1.2895508,1.8720703.9370117,3.7485352-1.0532227,5.625-3.1640625,1.5219727-7.208252-1.4077148-12.1279297-8.7885742-3.0505371-4.2197266-2.6977539-7.3266602,1.0529785-9.3168945l9.4919434-5.4501953c3.2797852-2.1083984,4.9221191-4.5693359,4.9221191-7.3808594v-37.7919922c0-2.9272461-1.7583008-4.3945312-5.2724609-4.3945312-3.7531738.3525391-6.3278809.9960938-7.7336426,1.9331055-6.4462891,1.9951172-9.7875977-1.1689453-10.0195312-9.4916992-.1181641-2.9272461-1.2304688-3.9829102-3.3413086-3.1640625-2.1086426,1.0556641-3.1640625,2.9892578-3.1640625,5.800293v70.4873047c1.407959,5.1538086-.7028809,8.2612305-6.3278809,9.3144531-5.5090332,1.2895508-7.9702148-1.1713867-7.3811035-7.3813477v-43.7675781c0-2.8134766-.293457-4.2758789-.880127-4.3945312-2.2268066.3505859-3.4575195,1.9335938-3.689209,4.7451172-3.2824707,12.1894531-7.2084961,22.7319336-11.7780762,31.6391602-1.994873,4.5698242-3.9282227,6.328125-5.8000488,5.2724609-.3525391-.4682617-.0615234-2.5766602.8779297-6.3276367,3.5166016-12.4194336,5.2133789-25.777832,5.0974121-40.0761719.1159668-3.7480469,2.1108398-5.2724609,5.9775391-4.5693359,1.6398926.1181641,3.4550781.4116211,5.4475098.8779297,3.1640625.7026367,4.7470703-.2319336,4.7470703-2.8115234v-8.4365234c0-2.8134766-1.7580566-3.7504883-5.2746582-2.8134766-4.1010742,1.8764648-6.0935059,3.2255859-5.9753418,4.0444336.234375,1.7558594-.4685059,3.1044922-2.1083984,4.0415039-3.0505371.703125-5.0974121-.7026367-6.152832-4.2192383l-3.1640625-9.1391602c-1.0554199-3.7485352.5844727-5.5634766,4.9223633-5.4501953h7.5583496c2.8112793,0,5.3884277-1.7578125,7.7336426-5.2719727,9.255127-16.2861328,15.0554199-30.9370117,17.4003906-43.9428711.9372559-4.1010742,3.5734863-5.5068359,7.9111328-4.2192383l7.0307617,2.2856445c2.8112793,1.0532227,4.510498,2.4023438,5.097168,4.0419922.703125,2.5795898-.9394531,4.2788086-4.9221191,5.0976562-1.8742676.2363281-3.8076172,2.0517578-5.8000488,5.449707-4.1035156,10.4291992-10.3129883,20.9169922-18.6311035,31.4619141-2.5793457,2.9321289-2.1108398,4.2192383,1.4055176,3.8666992l8.0861816-1.4052734c3.1640625-.5849609,4.5080566-2.4614258,4.0419922-5.625-1.2897949-3.3959961-1.8173828-5.3886719-1.5808105-5.9755859.4663086-.5844727.9938965-.8803711,1.5808105-.8803711,7.4968262,5.5117188,12.0097656,12.0146484,13.5336914,19.5112305.3527832,3.1640625,1.817627,4.8066406,4.3945312,4.9223633,2.8137207,0,5.859375-1.6396484,9.1416016-4.9223633,3.395752-2.9272461,6.8557129-2.6357422,10.369873.8803711l1.4057617,1.4057617c3.5163574,3.5141602,5.5065918,5.859375,5.9775391,7.0307617,1.4057617,3.9853516-.9394531,6.5644531-7.0307617,7.7338867-.4709473.5864258-.7028809,2.2856445-.7028809,5.097168v29.1782227c0,2.8139648.9348145,5.3886719,2.8112793,7.7333984,4.451416,3.7509766,9.1394043,5.9165039,14.0615234,6.5058594,20.5390625,2.8662109,42.9345703,2.6381836,67.1831055-.6733398,6.7961426-3.6914062,28.9909668-14.1767578,52.9819336-8.5986328,11.6894531,2.7158203,23.8813477,10.9672852,35.6757812,18.9448242,17.1137695,11.581543,34.8056641,23.5527344,50.2368164,17.7387695,15.015625-5.6625977,26.5605469-22.0039062,25.7338867-36.4238281-.7626953-13.2753906-11.3852539-23.2480469-29.934082-28.1606445-.3085938.0917969-.6123047.1860352-.9355469.2705078-2.8945312.3862305-4.7304688-.8671875-5.5004883-3.7636719-.5810547-1.4482422-1.5458984-2.8945312-2.8964844-4.3427734-3.5727539-2.7016602-5.1166992-4.3916016-4.6333008-5.0678711.3842773-.5786133,2.0273438-.6254883,4.9238281-.144043.8671875.2880859,1.7832031.4345703,2.75.4345703,4.3427734.5791016,6.0307617-1.1577148,5.0678711-5.2119141v-55.7407227c0-2.4111328-1.159668-3.6196289-3.4750977-3.6196289h-9.4106445c-2.4130859,0-3.6196289,1.1582031-3.6196289,3.4755859v83.3911133c.9628906,5.9838867-1.7368164,8.543457-8.1083984,7.6738281-2.1230469-.7739258-3.1850586-2.6547852-3.1850586-5.6464844v-85.2744141c0-2.4111328-1.1577148-3.6196289-3.4736328-3.6196289h-8.1083984c-2.9916992.3881836-4.4868164,1.7368164-4.4868164,4.0546875v67.4663086c.9628906,6.9487305-2.5126953,8.9272461-10.4243164,5.9350586-.5808105-.4833984-.8691406-2.2197266-.8691406-5.2119141v-78.1791992c0-2.8964844.144043-4.4887695.4345703-4.7773438.4814453,0,2.2180176,1.0117188,5.2119141,3.0385742,3.5688477,2.8012695,6.2255859,4.1049805,7.9624023,3.9101562h10.1337891c2.4130859,0,3.6196289-1.1577148,3.6196289-3.4755859v-19.2553711c0-2.4111328-1.1577148-3.6196289-3.4736328-3.6196289h-18.0979004l-4.6330566.7250977c-2.9919434.3857422-4.7773438-.4350586-5.3564453-2.4619141-.6762695-2.1225586.9162598-3.0405273,4.7773438-2.7504883l4.921875.5791016h40.9731445c2.315918,0,4.777832-1.4482422,7.3837891-4.3427734,1.6391602-2.1225586,3.4750977-4.1030273,5.5024414-5.9370117.4814453-.2885742,2.5083008.9667969,6.0791016,3.7636719l5.7910156,4.3447266c2.7993164,1.4462891,4.1010742,2.8945312,3.9101562,4.3427734-1.4482422,1.7368164-3.6699219,2.3154297-6.6601562,1.7368164h-26.2045898c-2.4130859,0-3.6196289,1.159668-3.6196289,3.4750977v19.2558594c0,2.4130859,1.1577148,3.6196289,3.4755859,3.6196289h7.3833008c2.3154297,0,4.9213867-1.3974609,7.8178711-4.1982422,2.699707-2.2202148,5.5493164-1.8325195,8.5415039,1.1577148l5.2119141,5.0678711c2.5087891,3.0893555,1.7856445,5.2607422-2.1713867,6.5141602-1.6430664.3876953-2.4619141,1.7871094-2.4619141,4.1982422v55.1616211c.6269531,5.4833984-1.6728516,9.4428711-6.8994141,11.8745117,23.8574219,7.1987305,28.2983398,21.2416992,28.7592773,29.21875.8886719,15.4887695-10.9819336,32.3569336-27.0229492,38.409668ZM401.4487305,499.3125c2.3979492.2666016,4.3300781-.5327148,5.796875-2.4003906,1.7304688-3.1972656,1.0656738-5.796875-1.9995117-7.7963867-4.265625-4.128418-8.5283203-7.793457-12.7912598-10.9936523-.5354004,0-2.1340332,1.7333984-4.7983398,5.1967773-2.7988281,3.4692383-5.796875,5.1992188-8.996582,5.1992188h-41.5759277c-2.9335938,0-2.1987305-2.2011719,2.1987305-6.5986328l4.9973145-5.9956055c3.0627441-3.996582,6.1950684-5.9960938,9.3950195-5.9960938h63.5656738c3.1970215,0,4.3300781,1.5986328,3.3989258,4.7954102l-4.5993652,12.5947266c-1.7331543,3.8671875-2.3977051,6.2651367-1.9968262,7.1962891.6647949.3984375,3.0625-.7319336,7.1962891-3.3989258,4.2626953-3.1972656,8.4609375-6.9272461,12.592041-11.1923828,2.3977051-1.6015625,4.2626953-2.1318359,5.5974121-1.6015625,5.5976562.7993164,8.5957031-.7993164,8.9941406-4.7954102-.532959-3.3291016-3.996582-7.7290039-10.3933105-13.1948242-3.9992676-3.996582-6.3325195-6.0605469-6.9970703-6.1953125-.3984375,0-2.3979492,1.7978516-5.9960938,5.3959961-3.4660645,3.46875-6.7978516,5.1992188-9.994873,5.1992188h-125.5327148l-3.199707-.4008789c-3.7329102-.2666016-5.8642578-1.8652344-6.3969727-4.7983398-.6674805-2.7988281-1.4667969-4.2631836-2.3979492-4.3974609-.6674805.5356445-1.5339355,2.7988281-2.5996094,6.7978516-1.1975098,4.5317383-3.6655273,8.5957031-7.3955078,12.1938477-7.064209,5.7294922-9.7929688,10.3930664-8.1945801,13.9912109,2.1286621,5.0649414,6.1950684,6.4643555,12.1938477,4.1982422,4.5292969-2.6640625,7.1960449-7.6616211,7.9953613-14.9921875.6647949-3.9995117,2.597168-6.2626953,5.796875-6.7954102,1.8649902,0,3.5280762-.2016602,4.9975586-.6000977h35.3808594c3.1972656,0,3.9963379,1.5986328,2.3979492,4.7954102-10.7944336,15.1918945-26.0534668,26.1879883-45.7744141,32.9833984-2.4003906,1.0683594-3.8671875,1.9995117-4.3972168,2.7988281-.670166,1.9995117.0644531,2.9975586,2.1984863,2.9975586,8.6604004-1.9995117,15.7919922-4.2626953,21.3869629-6.7949219,4.2653809-1.8652344,7.597168-1.3320312,9.994873,1.5986328,4.2629395,6.2646484,8.1975098,12.5273438,11.7954102,18.7895508,5.0622559,4.5292969,9.3950195,4.862793,12.9931641.9985352,2.6643066-4.9277344,1.5986328-9.8603516-3.199707-14.7905273-4.265625-3.9995117-8.7949219-7.1962891-13.5932617-9.5942383-3.5981445-1.7304688-3.5981445-3.6655273,0-5.796875,3.331543-2.6640625,7.1962891-3.9990234,11.5935059-3.9990234h45.9760742c3.1999512,0,3.5310059,2.1342773,1.0012207,6.3969727-8.2646484,10.7944336-16.5266113,18.9243164-24.7885742,24.387207-18.8913574,12.6357422-39.2531738,21.347168-61.0776367,26.1611328-8.1916504,1.0605469-19.1665039,5.6196289-44.6262207,5.1816406-7.2976074-.4321289-15.8427734-1.0170898-19.713623-2.4946289-3.8505859-1.5102539-7.5136719-3.4716797-10.7224121-6.0161133-3.2519531-2.4941406-5.9697266-5.6513672-8.0490723-9.2294922-2.0163574-3.6220703-3.3146973-7.6162109-4.2873535-11.7304688l-.1975098.0283203c.411377,4.21875,1.4106445,8.4287109,3.2539062,12.3505859,1.90625,3.8867188,4.7102051,7.3256836,8.0246582,10.1328125,3.357666,2.7709961,7.2324219,4.8583984,11.2888184,6.3164062,4.0742188,1.4174805,10.2980957,2.5805664,20.5898438,3.1425781,29.8894043,1.1010742,37.5949707-2.3574219,46.0227051-3.1811523,1.5021973-.1655273,2.3395996-.3334961,2.7165527-.4975586,28.0842285-4.5239258,51.1469727-12.640625,69.1704102-24.3671875,11.5935059-7.0615234,21.5883789-16.5234375,29.9848633-28.3862305,2.1315918-2.7963867,4.0637207-3.7275391,5.796875-2.7963867ZM418.8391113,430.1494141c.1318359,8.3935547,0,16.7900391-.3981934,25.184082-2.5351562,2.5351562-6.065918,3.5332031-10.5952148,3.0004883-3.4663086-.1318359-4.9975586-1.800293-4.5966797-4.9975586,0-2.2661133-1.6010742-3.3989258-4.7983398-3.3989258h-92.9504395c-3.1999512,0-4.7983398.6674805-4.7983398,1.9995117,0,2.3979492-1.2675781,3.996582-3.7973633,4.7958984-9.3303223,2.6694336-13.3266602.0698242-11.9943848-7.7939453v-35.7817383c.1318359-3.9990234,2.1987305-4.9975586,6.1977539-2.9980469,5.0620117,3.7329102,9.3947754,5.1323242,12.9929199,4.1982422h93.5507812c3.1970215,1.5986328,7.5270996-1.0654297,12.9929199-7.9956055.5302734-.1318359,2.9279785,1.3969727,7.1962891,4.5966797,2.3977051,1.9995117,4.7282715,4.265625,6.9941406,6.7954102,1.8652344,2.7988281.8022461,5.0673828-3.1970215,6.7978516-1.8676758.9335938-2.7988281,2.7988281-2.7988281,5.5976562ZM324.8901367,424.5517578c0-3.3291016-1.5986328-4.9975586-4.7983398-4.9975586h-13.5932617c-3.9963379.6674805-5.9958496,2.597168-5.9958496,5.796875v14.3920898c0,3.3320312,1.5986328,4.9975586,4.7983398,4.9975586h14.5915527c3.3291016,0,4.9975586-1.5981445,4.9975586-4.7983398v-15.390625ZM364.0683594,424.5517578c0-3.3291016-1.5986328-4.9975586-4.7956543-4.9975586h-13.795166c-3.331543,0-4.9973145,1.5986328-4.9973145,4.7983398v15.390625c0,3.3320312,1.6013184,4.9975586,4.7983398,4.9975586h13.7922363c3.3291016,0,4.9975586-1.5981445,4.9975586-4.7983398v-15.390625ZM403.2490234,424.5517578c0-3.3291016-1.6010742-4.9975586-4.7983398-4.9975586h-13.5930176c-3.3317871,0-4.9975586,1.5986328-4.9975586,4.7983398v15.390625c0,3.3320312,1.5986328,4.9975586,4.7983398,4.9975586h13.5932617c3.3288574,0,4.9973145-1.5981445,4.9973145-4.7983398v-15.390625ZM271.5187988,394.9677734c1.9995117-.5332031,3.9963379-.8666992,5.9958496-1.0014648h32.9831543c3.1970215,0,4.7983398,1.668457,4.7983398,4.9975586v4.7983398c0,3.8671875.3981934,6.1977539,1.1975098,6.9970703,5.3286133,2.1313477,9.9277344,1.3325195,13.7924805-2.4003906.4008789-.6645508.6000977-2.9980469.6000977-6.9946289v-2.5996094c0-3.1967773,1.6657715-4.7983398,4.9973145-4.7983398h30.5852051c3.1972656,0,4.7958984,1.668457,4.7958984,4.9975586v4.7983398c0,3.8671875.4008789,6.1977539,1.2001953,6.9970703,4.3974609,1.9970703,8.859375,1.3994141,13.3911133-1.800293.6674805-1.0654297,1.0012207-3.5981445,1.0012207-7.5947266v-2.5996094c0-3.1967773,1.6633301-4.7983398,4.9975586-4.7983398h41.777832c4.1281738.5356445,6.9943848,0,8.595459-1.5981445.9287109-1.8652344.3310547-3.4638672-1.800293-4.7988281l-16.9892578-12.5917969c-.5356445,0-2.6696777,1.9321289-6.3969727,5.796875-4.6665039,6.9296875-8.7302246,9.59375-12.1938477,7.9951172h-13.1948242c-3.1970215,0-4.7956543-.8637695-4.7956543-2.5966797-.7993164-2.2661133.5302734-3.7299805,3.9963379-4.3999023,5.4631348-2.6645508,5.5976562-6.0605469.401123-10.1943359-4.7983398-.9311523-9.3950195-1.6630859-13.7922363-2.1987305-4.1337891-.3984375-6.1977539,1.5341797-6.1977539,5.796875v8.7949219c0,3.199707-1.6687012,4.7978516-4.9975586,4.7978516h-30.5825195c-3.1999512,0-4.7983398-1.1298828-4.7983398-3.3984375,0-2.1289062,1.0656738-3.5283203,3.199707-4.1958008,1.8623047-.8017578,3.1271973-1.53125,3.7973633-2.1987305,2.3977051-3.199707,1.6630859-5.8642578-2.1987305-7.9980469-2.6669922-.7993164-5.3312988-1.3295898-7.9956055-1.5986328l-6.3969727-.7993164c-3.9990234-.3984375-5.9958496,1.5341797-5.9958496,5.796875v9.5942383c0,3.199707-1.668457,4.7978516-4.9975586,4.7978516h-32.9831543l-6.9970703-.7988281c-5.3310547-.4013672-7.5942383.8691406-6.795166,3.796875.9311523,2.7988281,3.5981445,3.8671875,7.9956055,3.2001953ZM592.6845703,515.5c6.46875-.6923828,11.3769531-2.5424805,14.729248-5.5449219,2.885498-4.96875,1.6164551-8.7802734-3.8117676-11.4350586-.8095703-1.8500977-1.3295898-4.3320312-1.5605469-7.4511719-.230957-4.3901367-.8095703-6.8139648-1.730957-7.277832-.6953125-.2314453-1.3295898-.2314453-1.9060059,0-1.7331543,3.8115234-3.699707,7.5649414-5.8925781,11.262207-3.2355957,4.9667969-7.6235352,7.6235352-13.168457,7.9711914-15.5944824,1.6166992-26.973877,1.6166992-34.135498,0-6.1235352-.4638672-9.4150391-3.6391602-9.8747559-9.5292969v-13.5161133c0-2.8857422,1.2131348-4.7353516,3.6369629-5.5449219,2.0808105-1.0405273,3.3498535-1.8452148,3.8139648-2.4262695,1.730957-3.9257812.2871094-6.4101562-4.3320312-7.4506836l-11.7827148-1.730957c-3.3522949-.5786133-5.0249023.9819336-5.0249023,4.6772461v31.1889648c.6928711,8.5473633,5.0808105,14.0922852,13.168457,16.6352539,18.597168,2.7714844,37.8867188,2.8271484,57.871582.1723633ZM559.5895996,451.2158203v-85.4238281c0-3.9262695,2.3093262-4.3881836,6.9328613-1.3857422,3.8117676,3.3520508,6.6975098,4.6772461,8.6616211,3.984375h32.4023438c2.7736816,0,5.6591797-1.5,8.6640625-4.5048828,3.2331543-3.2329102,6.46875-3.2910156,9.7041016-.1723633,8.6640625,6.5830078,9.9331055,11.3793945,3.8120117,14.3813477-3.583252.8095703-4.8522949,3.0048828-3.8120117,6.5834961v66.7104492c0,3.699707-.4057617,5.8925781-1.2128906,6.5854492-2.7736816,1.847168-6.4128418,2.078125-10.9174805.6928711-.9260254-.8076172-1.3857422-3.0024414-1.3857422-6.5859375,0-3.8115234-1.385498-5.7172852-4.1591797-5.7172852h-30.8417969c-2.8879395,0-4.3317871,1.6186523-4.3317871,4.8520508.5761719,3.2353516,0,5.6035156-1.7333984,7.1035156-8.5495605,3.1186523-12.4755859.753418-11.7827148-7.1035156ZM573.1057129,388.1445312c0,2.8881836,1.385498,4.3320312,4.1594238,4.3320312h30.8415527c2.885498,0,4.3317871-1.3857422,4.3317871-4.1591797v-11.0878906c0-2.8881836-1.385498-4.3320312-4.1591797-4.3320312h-29.2834473c-3.9284668.5786133-5.8901367,2.0224609-5.8901367,4.3320312v10.9150391ZM573.1057129,413.2685547c0,2.8901367,1.385498,4.3320312,4.1594238,4.3320312h30.8415527c2.885498,0,4.3317871-1.3857422,4.3317871-4.1591797v-11.7807617c0-3.0024414-1.3295898-4.5068359-3.984375-4.5068359h-31.0166016c-2.8879395,0-4.3317871,1.3881836-4.3317871,4.1591797v11.9555664ZM573.1057129,437.5273438c0,2.8876953,1.385498,4.331543,4.1594238,4.331543h30.8415527c2.885498,0,4.3317871-1.3852539,4.3317871-4.1591797v-11.0874023c0-3.0048828-1.3295898-4.5073242-3.984375-4.5073242h-31.0166016c-2.8879395,0-4.3317871,1.3881836-4.3317871,4.159668v11.2626953ZM610.5327148,468.7163086c-.5786133,0-1.0405273.2895508-1.3857422.8657227-.1166992.4638672.9238281,2.3701172,3.1191406,5.7172852,3.6950684,6.9331055,6.4663086,13.8637695,8.3161621,20.7944336,1.3857422,5.7734375,3.984375,9.2402344,7.798584,10.3950195,5.5424805-.4619141,7.9104004-3.4643555,7.1032715-9.0092773-4.3925781-12.5898438-12.7089844-22.1801758-24.951416-28.7631836ZM549.7148438,463.34375c-.1166992.8095703,1.7893066,3.1191406,5.7177734,6.9306641,2.3093262,2.890625,4.8520508,6.5297852,7.6235352,10.9174805,1.1523438,3.1191406,3.5224609,5.5454102,7.1032715,7.2783203,5.199707,1.2714844,7.9128418-1.0961914,8.1437988-7.1054688-3.1191406-8.0830078-10.1081543-13.8613281-20.9648438-17.328125-4.5046387-1.1523438-7.0473633-1.3852539-7.6235352-.6928711ZM501.5454102,490.7216797c1.3857422-5.4287109,1.9057617-11.3188477,1.5581055-17.6733398-.5783691-3.4663086-1.2128906-5.2558594-1.9057617-5.3725586-.3476562.1166992-1.0986328,2.0810547-2.253418,5.8925781-3.0046387,9.4736328-8.0854492,16.9243164-15.2470703,22.3505859-4.1591797,3.8139648-4.5651855,7.6259766-1.2128906,11.4375,1.7331543,1.5,3.6950684,1.9057617,5.8901367,1.2128906,7.3925781-2.5424805,11.7827148-8.4912109,13.1708984-17.8476562ZM445.4309082,644.1523438c-.5788574-.5791016-2.7033691-.1914062-6.369873,1.159668-3.3798828,1.1577148-6.7578125,2.1206055-10.1357422,2.8945312-2.8945312.3837891-4.3427734-.5791016-4.3427734-2.8945312v-23.6005859c0-1.9296875.9628906-4.1987305,2.8964844-6.8046875,2.6062012-3.3759766,4.8242188-6.753418,6.6584473-10.1333008,1.6411133-2.8964844,3.6196289-4.3427734,5.9372559-4.3427734h22.8752441c2.9899902.3857422,5.065918,0,6.223877-1.1601562.6743164-1.3486328.2397461-2.5083008-1.3022461-3.4731445l-12.3068848-9.1220703c-.3859863,0-1.9316406,1.4013672-4.6313477,4.1982422l-1.3039551,1.4482422c-2.8007812,2.8964844-5.4069824,4.3427734-7.8181152,4.3427734-2.3156738,0-3.4753418-.7700195-3.4753418-2.3154297-.6762695-1.9296875.2397461-3.0874023,2.7521973-3.4755859,2.8945312-.6743164,4.2922363-2.1206055,4.1984863-4.3427734-.0974121-1.9296875-1.4987793-3.2314453-4.1984863-3.9077148-3.2824707-.7719727-6.5646973-1.3510742-9.8452148-1.7387695-2.8964844-.3842773-4.3447266.9667969-4.3447266,4.0541992v8.2529297c0,2.3154297-1.206543,3.4731445-3.6176758,3.4731445h-17.9538574l-5.2119141-.5786133c-3.668457-.2885742-5.2121582.6293945-4.6333008,2.7519531.4814453,2.0253906,2.2670898,2.7988281,5.3583984,2.315918l4.7773438-.7231445h15.057373c2.3156738,0,3.0874023,1.1577148,2.3156738,3.4731445-4.3427734,12.355957-13.3208008,22.440918-26.9296875,30.2587891-2.7990723,1.8344727-4.0056152,3.0913086-3.6196289,3.7641602,5.2119141-.8676758,10.6638184-3.0390625,16.3613281-6.5141602,2.8945312-1.7368164,4.3427734-1.4482422,4.3427734.8691406v14.6225586c0,2.315918-1.157959,3.6196289-3.4755859,3.9082031-3.0893555.2905273-6.1767578.3837891-9.2641602.2905273-3.0915527,0-4.2961426,1.6391602-3.6196289,4.9213867l1.7365723,7.0952148c1.3508301,3.6665039,2.4619141,5.6464844,3.3293457,5.9350586,2.605957.6743164,4.1027832-.5786133,4.4887695-3.7636719-.0974121-.7739258,1.0603027-1.9316406,3.4753418-3.4755859,12.2563477-3.6679688,22.8249512-8.2524414,31.7053223-13.7529297,2.701416-1.9316406,4.0053711-3.2338867,3.9099121-3.9101562ZM524.9140625,662.9736328c2.0270996,4.9233398,0,7.3852539-6.0795898,7.3852539-6.8549805-2.222168-13.5153809-7.2900391-19.9807129-15.2036133-3.4733887-4.8261719-6.369873-9.4575195-8.6855469-13.8974609-1.1599121-2.3178711-3.0407715-1.9296875-5.6467285,1.1577148-15.3476562,15.5385742-30.3095703,24.5146484-44.8815918,26.9296875-1.255127-1.0644531-.3391113-2.3173828,2.7502441-3.765625,14.1879883-6.5649414,27.2670898-17.9052734,39.2348633-34.0229492,1.7387695-2.4111328,2.1225586-5.0170898,1.159668-7.8178711-4.2490234-13.2211914-7.0947266-27.5556641-8.5429688-42.9985352-.2885742-2.3178711-1.5925293-3.4755859-3.9082031-3.4755859h-68.9147949l-4.6330566.7250977c-3.0915527.4833984-4.875-.2905273-5.3564453-2.3178711-.5808105-2.1206055.5788574-3.1337891,3.4733887-3.0405273,1.9296875.0976562,4.0036621.3393555,6.2258301.7250977h22.730957c2.4111328,0,3.6196289-1.1577148,3.6196289-3.4750977v-9.2666016c0-2.4111328-1.159668-3.6196289-3.4753418-3.6196289-9.2663574-.190918-15.4431152.0507812-18.5324707.7250977-2.9921875.4833984-4.8261719-.3369141-5.5007324-2.4619141-.5788574-2.0268555,1.0603027-2.894043,4.9216309-2.605957,3.1850586.5791016,9.5061035.7739258,18.9672852.5791016,2.4111328,0,3.6196289-1.1577148,3.6196289-3.4736328v-11.4375c0-2.9921875,1.5419922-4.1987305,4.6313477-3.6196289,3.2802734.3857422,6.5627441.9179688,9.8452148,1.5922852,2.4130859.8676758,3.7150879,1.9785156,3.9101562,3.3291016.3837891,2.4150391-1.157959,4.1030273-4.6333008,5.0678711-2.317627.3862305-3.0893555,1.9785156-2.317627,4.777832,0,2.5102539.9182129,3.7636719,2.7521973,3.7636719,2.0273438.9667969,4.6801758-.9628906,7.9624023-5.7910156,2.1220703-2.1987305,3.5185547-3.5205078,4.2128906-3.9921875l-.4753418.2338867c-.3972168-.8017578-9.3640137-20.2231445,21.5305176-67.3974609,8.1987305-12.5180664,11.1928711-23.6953125,10.9604492-33.0507812-.7658691.5878906-1.5410156,1.1708984-2.333252,1.7441406-1.5881348,1.3129883-2.9470215,2.090332-4.0932617,2.3666992-4.864502,4.0996094-12.6325684,8.9399414-22.637207,9.4931641-9.2160645.5561523-18.1179199-5.4599609-21.9567871-14.875-3.7268066-9.1401367-1.4770508-18.5146484,6.0200195-25.0727539,10.2851562-8.9995117,24.8603516-8.8623047,35.4484863.3540039,4.6018066,4.0024414,8.4787598,9.8364258,10.3588867,17.1586914,8.9841309-11.6049805,15.8503418-25.6367188,20.5981445-42.0991211.576416-2.7734375-.5202637-4.1591797-3.2937012-4.1591797-6.1235352-.230957-11.0317383.0605469-14.7270508.8652344-3.8115234.5810547-6.1235352-.3452148-6.9306641-2.7709961-.6928711-2.5405273,1.269043-3.6391602,5.8903809-3.2915039,4.0427246.6928711,10.453125.9257812,19.2336426.6928711,2.8857422,0,4.3320312-1.3857422,4.3320312-4.159668v-18.1933594c0-3.8115234,1.7893066-5.2553711,5.3701172-4.3320312l12.1303711,2.4262695c1.0405273.4619141,1.8452148.9819336,2.4262695,1.5581055,2.885498,3.8144531,1.6723633,6.7583008-3.6391602,8.8393555-1.8500977.3452148-2.7714844,1.9057617-2.7714844,4.6772461v4.8520508c0,2.7709961.4594727,4.2172852,1.3857422,4.3320312.8071289,0,2.5986328-1.4443359,5.3701172-4.3320312l2.9462891-3.2915039c2.7712402-2.7739258,6.3520508-2.4262695,10.7421875,1.0380859l3.4667969,2.5986328c5.6567383,3.1186523,7.2175293,5.7783203,4.677002,7.9711914-.9260254.347168-3.0605469.5200195-6.4104004.5200195h-17.8481445c-2.8879395,0-4.3295898,1.2714844-4.3295898,3.8115234,0,2.5429688,1.730957,4.8525391,5.1975098,6.9306641,11.7827148,7.0478516,19.0004883,14.6152344,21.6599121,22.7006836.2285156,7.96875-3.1796875,10.3945312-10.2246094,7.2758789-1.5024414-1.0405273-2.7714844-2.7128906-3.8117676-5.0249023l-9.7021484-16.2875977c-2.0808105-3.2329102-3.1188965-3.3496094-3.1188965-.3476562v41.934082c0,3.4643555-.1166992,5.4868164-.3476562,6.0629883-3.4663086,3.0068359-7.5673828,3.2939453-12.3029785.8676758-.5786133-.6928711-.8654785-2.7734375-.8654785-6.237793v-31.5366211c0-3.8120117-1.0405273-4.1572266-3.1188965-1.0380859-5.09375,9.1875-12.0463867,17.3354492-20.8498535,24.449707.6081543,10.0249023-2.3508301,22.1098633-11.2329102,35.6704102-30.2734375,46.2280273-21.5014648,65.237793-21.4077148,65.4257812l-.8967285.440918c.0002441,0,.0007324-.0004883.0012207-.0004883l12.1606445,8.8320312c1.7387695,1.1577148,2.364502,2.3154297,1.8830566,3.4750977-1.4482422,1.4462891-3.6196289,1.9316406-6.5161133,1.4462891h-19.2558594c-2.4130859,0-3.6196289,1.159668-3.6196289,3.4755859v9.2661133c0,2.4130859,1.1599121,3.6196289,3.4753418,3.6196289h27.364502c2.3156738,0,3.4245605-1.4482422,3.3291016-4.3447266-.7736816-11.0029297-1.2084961-22.0058594-1.3039551-33.0087891,0-3.0878906,1.4970703-4.4384766,4.4887695-4.0546875,3.3779297.2905273,6.7558594.7739258,10.1337891,1.4482422,3.7658691.7739258,4.8730469,2.8964844,3.3310547,6.3701172-1.0639648,1.0639648-3.0405273,1.9804688-5.9370117,2.7519531-.2885742.3862305-.3859863,2.0273438-.2885742,4.921875.1931152,7.3364258.5791016,14.8173828,1.157959,22.440918.1928711,2.3173828,1.4482422,3.4750977,3.763916,3.4750977h6.371582c2.5087891,1.1577148,5.4519043-.7719727,8.829834-5.7910156,2.8964844-3.0893555,4.5356445-4.6328125,4.923584-4.6328125l10.7126465,7.8178711c2.701416,2.4130859,4.1030273,3.8613281,4.1984863,4.3427734-.5788574,2.0268555-2.6547852,2.7504883-6.2236328,2.1713867h-28.2338867c-2.3154297,0-3.3776855,1.4482422-3.1848145,4.3447266.8693848,9.1708984,2.557373,18.918457,5.0678711,29.2451172.6743164,2.0253906,1.6879883,1.4462891,3.0407715-1.7382812,2.8945312-6.5629883,5.2119141-13.0771484,6.9487305-19.5444336.6743164-2.8964844,1.206543-4.5356445,1.5922852-4.9238281l12.3071289,4.1987305c1.9296875.4853516,3.5222168,1.5454102,4.7773438,3.1865234,1.0605469,2.5107422-.144043,4.1030273-3.6193848,4.777832-2.3156738-.8696289-4.0056152-.1464844-5.0678711,2.1713867-3.9587402,9.0732422-7.8669434,16.7939453-11.7263184,23.1635742-1.8339844,2.8964844-2.1245117,5.7910156-.8691406,8.6875,3.0874023,7.2392578,6.9973145,12.9345703,11.7280273,17.0844727,2.9899902,2.4111328,5.4030762,1.2045898,7.2392578-3.6196289l3.1848145-5.7910156c1.0603027-2.5102539,2.1208496-4.2470703,3.1850586-5.2119141,1.9296875.1928711,2.3642578,1.9316406,1.302002,5.2119141l-1.7368164,11.5820312c-1.3525391,4.6333008-.7736816,8.925293,1.7368164,12.8842773ZM485.0705566,436.3979492c-1.6013184-7.6108398-5.4431152-13.6201172-10.0754395-17.6479492-9.8120117-8.5371094-23.307373-8.6782227-32.822998-.3579102-6.8254395,5.9731445-8.876709,14.5029297-5.4855957,22.8198242,3.4560547,8.4863281,11.5488281,14.0839844,19.9992676,13.6328125,8.5510254-.4741211,15.4790039-4.3876953,20.1638184-8.0361328-.1494141-.1337891-.298584-.269043-.4306641-.4448242,0-.5761719,2.0810547-2.9462891,6.237793-7.1035156.8220215-.934082,1.6230469-1.8920898,2.4138184-2.8623047ZM457.0129395,623.8847656c2.701416-2.5107422,5.067627-5.1630859,7.0949707-7.9643555.8671875-2.1206055,2.1206055-2.8945312,3.7636719-2.3154297,1.5419922.4833984,2.7016602.0488281,3.4755859-1.3041992,1.0603027-2.605957,0-4.3896484-3.1850586-5.3564453l-11.1491699-3.0405273c-.6765137.0976562-1.2084961,1.9804688-1.5925293,5.6469727-.7739258,3.9584961-1.8808594,7.3833008-3.3291016,10.2797852-1.6433105,2.9916992-3.6196289,3.6196289-5.9372559,1.8808594-2.2199707-1.6391602-4.2958984-2.8945312-6.2255859-3.7636719-3.0895996-1.0605469-4.6818848-1.1577148-4.7775879-.2885742.0957031.5791016,1.5439453,2.2202148,4.3447266,4.921875,4.4384766,5.019043,8.925293,12.7392578,13.4628906,23.1635742,2.4130859,3.2807617,5.2121582,4.2475586,8.3969727,2.8964844,1.8342285-1.3525391,2.7016602-2.7016602,2.6062012-4.0541992.3859863-3.5688477-1.7368164-7.9116211-6.369873-13.0302734-2.9919434-2.9897461-3.1850586-5.5493164-.5788574-7.671875ZM500.7365723,555.9833984c1.9296875,4.3427734,4.8242188,5.984375,8.6875,4.921875,1.9296875-.9628906,2.9411621-2.2670898,3.0388184-3.9101562,0-6.3696289-4.3916016-11.53125-13.1745605-15.4897461-2.9919434-1.0625-4.6330566-1.3041992-4.9216309-.7250977-.0974121.4853516.7231445,2.1733398,2.4599609,5.0673828,1.5437012,3.3798828,2.8457031,6.7578125,3.9099121,10.1357422ZM647.7011719,548.7705078c1.2873535-3.8666992,2.2246094-5.800293,2.8112793-5.800293,8.4387207,3.0483398,14.3549805,5.918457,17.7531738,8.6118164,1.1713867,3.1635742-.4685059,4.9833984-4.9199219,5.449707-1.994873.1181641-3.5166016.6459961-4.5717773,1.5830078-1.2897949,1.8745117-.5253906,2.8115234,2.2858887,2.8115234h14.9416504c2.8115234,0,5.9753418-1.5214844,9.4919434-4.5698242,3.7485352-3.2797852,7.3217773-3.1635742,10.7199707.3505859,5.9777832,5.1586914,8.2021484,9.4350586,6.6806641,12.8330078-.8212891,1.0532227-2.3452148,1.6425781-4.5698242,1.7558594-2.5793457-.9345703-5.097168.7646484-7.5583496,5.0976562-2.9318848,3.9848633-6.7988281,8.2041016-11.6003418,12.6557617-3.2822266,2.5791016-3.1640625,4.4560547.3500977,5.625,9.3735352,2.8134766,18.3378906,4.5126953,26.8950195,5.097168,3.5141602.3525391,5.5634766.7646484,6.1503906,1.2304688.9370117,1.1738281.059082,2.3452148-2.6362305,3.5166016-2.3452148,2.1083984-4.3354492,4.6313477-5.9753418,7.5585938-.9396973,2.9296875-1.701416,4.4536133-2.2861328,4.5698242-11.1340332-2.1088867-21.9724121-6.5625-32.517334-13.3588867-3.1640625-2.2246094-6.152832-2.4609375-8.9641113-.7026367-11.4868164,6.7963867-24.317627,11.7182617-38.4951172,14.7641602-3.5166016.3525391-5.4499512.293457-5.8000488-.175293,0-.5844727.1750488-1.1713867.5275879-1.7583008,13.1218262-4.4511719,25.1340332-10.4853516,36.0314941-18.1054688,3.1640625-2.4589844,3.1640625-5.5634766,0-9.3144531-2.1083984-2.8134766-3.9848633-5.684082-5.625-8.6137695-1.5239258-2.8115234-3.8666992-3.0458984-7.0307617-.703125-3.5141602,2.9296875-8.2021484,5.6845703-14.0615234,8.2612305-3.7507324,1.1738281-5.8591309,1.6425781-6.3276367,1.4057617-.8212891-1.1689453,0-2.2836914,2.4609375-3.3388672,13.4746094-10.1948242,22.0883789-22.4389648,25.8393555-36.7368164ZM652.9736328,576.7182617c1.9926758,2.4609375,4.4536133,5.097168,7.3833008,7.9111328,2.8115234,2.2265625,5.625,1.9331055,8.4365234-.8803711,3.630127-3.2773438,7.0898438-7.671875,10.3720703-13.1835938,1.5192871-3.0454102.9348145-4.5693359-1.7583008-4.5693359h-19.1586914c-3.753418.1181641-6.328125,1.1738281-7.736084,3.1635742-1.1713867,1.2924805-.3500977,3.8100586,2.4611816,7.5585938ZM599.5390625,681.128418c2.6931152-3.0454102,2.8706055-8.4360352.527832-16.1723633-2.1108398-6.0913086-4.4560547-10.7792969-7.0307617-14.0615234-3.050293-3.6298828-5.0405273-5.3881836-5.9775391-5.2724609-.46875.2368164-.2368164,2.3452148.7026367,6.328125.9372559,4.6879883,1.1713867,11.953125.7028809,21.7949219-.3503418,5.5092773,1.9333496,8.6708984,6.8557129,9.4921875,2.1108398-.2368164,3.5166016-.9399414,4.2192383-2.1088867ZM577.3916016,561.4262695c1.0554199-3.8666992,3.1022949-5.625,6.1525879-5.2724609,3.8669434-.9370117,5.2109375-2.8139648,4.0419922-5.625-.2365723-.7026367-2.2858887-1.9335938-6.152832-3.6918945l-5.8000488-1.7583008c-4.5698242-1.4052734-7.2060547-.2319336-7.9086914,3.5166016-1.2922363,8.5546875-3.050293,15.9379883-5.2749023,22.1479492-1.642334,3.6323242-3.6325684,4.4536133-5.9753418,2.4609375-2.5793457-2.2246094-4.4560547-2.5771484-5.625-1.0556641,3.3981934,5.7436523,6.3278809,13.8271484,8.7890625,24.2563477,2.1083984,3.2822266,3.982666,4.9838867,5.625,5.097168,4.5695801.703125,7.0876465-1.5805664,7.5583496-6.8554688-.3525391-3.6298828-1.8198242-7.0307617-4.3945312-10.1948242-2.9318848-3.3955078-3.0478516-6.5595703-.3525391-9.4916992,3.2800293-3.6298828,6.387207-8.1430664,9.3168945-13.5336914ZM659.3015137,689.0371094c4.451416,1.5214844,8.2612305.996582,11.425293-1.5805664.3525391-.5869141.5275879-2.6362305.5275879-6.152832v-3.5141602c0-2.8139648,1.4648438-4.2192383,4.3945312-4.2192383h23.9060059c3.395752,0,5.4475098-.234375,6.1503906-.703125,1.407959-1.4057617.5275879-3.4550781-2.6362305-6.152832l-2.8112793-3.5141602c-3.4006348-3.7509766-5.3339844-5.565918-5.800293-5.449707-1.994873,1.9946289-3.5166016,3.9282227-4.5720215,5.800293-2.6953125,3.5161133-5.4475098,5.2724609-8.2612305,5.2724609h-6.1503906c-2.8137207,0-4.2194824-1.4628906-4.2194824-4.3925781v-9.8442383c0-2.8115234,1.4648438-4.2192383,4.3945312-4.2192383h14.4140625c4.217041.9394531,6.6191406,0,7.2058105-2.8115234-1.5239258-2.3427734-3.2822266-4.5102539-5.2722168-6.5029297-3.8669434-4.3354492-7.2675781-4.5722656-10.1948242-.703125-2.6977539,3.5146484-5.1589355,5.2724609-7.3833008,5.2724609-2.1083984,0-3.1640625-1.4648438-3.1640625-4.3945312v-6.3276367c0-2.8115234,1.4648438-4.2192383,4.3945312-4.2192383,7.3833008.1181641,14.7050781,0,21.9726562-.3505859,1.7558594-1.8740234.2910156-4.8603516-4.3945312-8.9638672-3.4006348-3.9829102-5.3930664-5.9160156-5.9777832-5.8027344l-4.217041,5.2749023c-2.6977539,3.5141602-5.3339844,5.2724609-7.9108887,5.2724609-2.4611816,0-3.7509766-.6411133-3.8669434-1.9331055,0-1.1694336,1.1691895-2.2246094,3.5166016-3.1640625,3.0456543-1.1689453,4.5080566-3.0458984,4.3945312-5.625.1135254-1.9902344-1.1169434-3.5141602-3.6916504-4.5698242-4.3376465-1.1689453-8.4978027-2.1083984-12.4807129-2.8115234-3.6325684-.5864258-5.4499512.9375-5.4499512,4.5698242v9.3144531c0,2.8134766-1.4648438,4.2192383-4.3945312,4.2192383-4.8061523.1181641-9.842041-.175293-15.114502-.8779297-3.5166016-.234375-5.0405273.9960938-4.5720215,3.6918945.7053223,2.2265625,3.0480957,3.1044922,7.0332031,2.6362305,3.9802246-.8188477,8.2612305-1.1123047,12.8308105-.8803711,2.8115234,0,4.217041,1.4667969,4.217041,4.3945312v6.3276367c0,2.8139648-1.4648438,4.2192383-4.3945312,4.2192383l-12.4782715-.7026367c-3.5166016-.234375-5.097168.8212891-4.7470703,3.1640625.7028809,2.3452148,2.8137207,3.4003906,6.3278809,3.1635742,3.7485352-.7026367,7.4401855-.9936523,11.0749512-.8798828,2.8115234,0,4.217041,1.4667969,4.217041,4.3945312v9.8442383c0,2.8115234-1.4648438,4.2172852-4.3945312,4.2172852-8.2021484.2363281-14.939209,0-20.2116699-.703125-3.5166016-.2319336-5.0974121.8212891-4.7473145,3.1640625.7028809,2.3452148,2.8137207,3.4003906,6.3278809,3.1640625,4.5698242-.8188477,10.8383789-1.1123047,18.8085938-.8779297,2.8115234,0,4.217041,1.4667969,4.217041,4.3945312v3.6914062c-.5869141,3.6298828,0,6.0913086,1.7583008,7.3808594ZM623.0922852,569.6875c2.3430176-4.9223633.9941406-9.6079102-4.041748-14.0615234-4.1035156-3.1640625-8.1477051-5.3881836-12.1281738-6.6801758-3.6347656-.8188477-5.5681152-.7597656-5.8024902.1772461.1159668.703125,1.6992188,2.6953125,4.7470703,5.9755859,2.3430176,2.8110352,4.9223633,7.7949219,7.7336426,14.9414062,4.1010742,2.9296875,7.2651367,2.8115234,9.4916992-.3525391ZM597.6057129,586.9130859c0,.4707031,1.4057617,2.4609375,4.2194824,5.9775391,1.7558594,2.1083984,3.5708008,5.625,5.4475098,10.5449219.4660645,1.1738281,1.0554199,2.1108398,1.7583008,2.8134766,4.2194824,2.8115234,7.4968262,2.1704102,9.842041-1.9331055,1.0554199-9.3735352-4.6879883-15.4082031-17.2253418-18.105957-2.1086426-.9370117-3.4575195-.7026367-4.0419922.703125ZM732.0251465,661.8486328v-107.1381836c0-2.8945312.1442871-4.4868164.4326172-4.7773438.4833984,0,2.2202148.9667969,5.2121582,2.8964844.9648438.7739258,1.9296875,1.3994141,2.8964844,1.8808594,1.9296875,1.2573242,3.4248047,1.8833008,4.4868164,1.8833008,1.253418.097168,2.1733398-1.0136719,2.7524414-3.3295898,1.3505859-6.1767578,2.1206055-12.5463867,2.3154297-19.1113281.3840332-.6743164,2.0273438-.8188477,4.9238281-.4345703,3.2783203.1948242,6.560791.5786133,9.8432617,1.1577148,3.859375,1.159668,4.4401855,3.2822266,1.7385254,6.371582-.5788574.2885742-1.8342285.5791016-3.763916.8676758-.7736816.3876953-1.6430664,1.1577148-2.605957,2.3173828-1.5456543,2.8007812-3.2822266,5.5981445-5.2119141,8.3969727-1.8361816,2.605957-1.6899414,3.9082031.4326172,3.9082031h4.923584c2.3156738,0,4.6330566-1.1577148,6.9487305-3.4736328,1.5437012-1.543457,3.0407715-2.8964844,4.4890137-4.0541992.7719727-.1928711,2.5085449,1.1113281,5.2119141,3.9082031,7.7207031,5.9858398,8.734375,10.4243164,3.0407715,13.3208008-2.0270996.6762695-3.0407715,2.1713867-3.0407715,4.4868164v24.9023438c0,2.9941406-.3391113,4.828125-1.0134277,5.5029297-2.8010254,2.1225586-5.9372559,2.3662109-9.4106445.7226562-.5788574-.5786133-.8693848-2.1708984-.8693848-4.7773438,0-2.7988281-1.1577148-4.1982422-3.4753418-4.1982422h-15.3457031c-2.4130859,0-3.6196289,1.1577148-3.6196289,3.4750977v15.3461914c0,2.2216797,1.3039551,3.3291016,3.9099121,3.3291016h13.753418c2.3156738,0,4.6799316-1.2045898,7.0949707-3.6196289,2.6062012-2.605957,4.1984863-3.9082031,4.7775879-3.9082031.6743164.0976562,2.4597168,1.5922852,5.3562012,4.4887695,7.1418457,5.984375,7.9621582,10.2314453,2.4616699,12.7397461-2.0270996.8696289-3.0405273,2.4619141-3.0405273,4.777832v27.5083008c0,2.9902344-.3393555,4.8242188-1.0136719,5.5004883-1.3527832,1.159668-3.6196289,1.7387695-6.8044434,1.7387695-3.0895996-.2905273-4.2492676-2.3173828-3.4753418-6.081543,0-2.605957-1.157959-3.9101562-3.4736328-3.9101562h-15.9265137c-2.4130859,0-3.6196289,1.1601562-3.6196289,3.4755859v3.3310547c.9648438,4.8242188-.7736816,7.1396484-5.2121582,6.9487305-5.3095703.190918-7.3364258-1.9316406-6.0793457-6.3696289ZM743.3166504,585.6943359c0,2.4130859,1.157959,3.6201172,3.4753418,3.6201172h15.3457031c2.4111328,0,3.6196289-1.1601562,3.6196289-3.4755859v-21.5712891c0-2.4111328-1.1577148-3.6196289-3.4753418-3.6196289h-14.6225586c-2.8945312.4833984-4.3427734,1.8808594-4.3427734,4.1982422v20.8481445ZM743.3166504,647.0795898c0,2.4130859,1.157959,3.6196289,3.4753418,3.6196289h15.9248047c2.4111328,0,3.6196289-1.1577148,3.6196289-3.4731445v-24.4682617c0-2.4111328-1.157959-3.6191406-3.4736328-3.6191406h-15.0571289c-2.9941406.3857422-4.4890137,1.7363281-4.4890137,4.0541992v23.8867188Z" fill="#fff"/>
    </g>
  </g>
</svg>