<?xml version="1.0" encoding="UTF-8"?>
<svg xmlns="http://www.w3.org/2000/svg" version="1.1" viewBox="0 0 1080 1080">
  <!-- Generator: Adobe Illustrator 28.7.3, SVG Export Plug-In . SVG Version: 1.2.0 Build 164)  -->
  <g>
    <g id="respite">
      <path d="M140.7127921,614.221684c17.3904636-13.3393957,23.7850315-36.9721755,25.7363979-46.5860574.3079301-1.5156624-.0812661-3.0881132-1.0598867-4.2855648-.978131-1.1964725-2.4423901-1.8906616-3.9884049-1.8906616h-1.8588405c-1.2684371,0-2.4918351.4670355-3.4366764,1.3139657-2.3018878,2.0610267-3.8390906,3.1145491-4.5699963,3.131194-3.2095228-1.8994735-8.5510578-6.8958723-8.730235-8.9735438l4.2326929-3.1409851c.5522181-.4102471,1.0172954-.9262381,1.3668377-1.5185997,2.6612212-4.5107601,6.9125171-12.7641685,10.136237-21.17913.6070482-1.5837105.3950709-3.3647118-.5659256-4.7619018-.9609965-1.3971901-2.5486235-2.232371-4.2444422-2.232371-2.5251249,0-4.4182342.0660899-6.1825906.2139356-1.543567.1179828-2.9941186.7969956-4.4642524,1.5420984-.1581263.080287-.3123361.1586158-.4572444.2300909l-2.6264628-5.8829829,5.0727693.867002c.2868793.0489555.5771854.0739228.8679811.0739228.0205613,0,12.1483083-.1453978,12.1483083-.1453978,1.2429802-.0151762,2.4389632-.4787848,3.36667-1.3061328l4.9112161-4.3795594c1.3536197.1909265,6.2477014,4.905831,8.3620896,6.9428695l.0797975.0768601c.5399792.520397,1.0070147.969319,1.3634108,1.3002582.2903061.3162526.2599537.5306777.2501626.600684-.1091708.7705596-1.8960467,1.8456225-2.9637662,2.4879187-.2158938.1292425-.4875968.2927539-.7372699.4484324-.938477.5850183-1.6644871,1.4564262-2.0693491,2.4859605-2.1227106,5.3948965-4.6434295,11.1378667-7.0970794,16.170982-1.0858331,2.2264963-.4332562,4.910237,1.5538477,6.3896723.916447.6824397,1.9978741,1.0192536,3.0753847,1.0192536,1.143111,0,2.281816-.3789156,3.2163766-1.1259766.5634778.3015659,2.0766925,1.2875297,5.5412735,4.4392851.6187976.5620092,1.1744425,1.0789793,1.6752573,1.5548268.9751936.9281964,2.2529323,1.4197096,3.5522114,1.4197096.62712,0,1.258646-.1135768,1.8642256-.3495423,1.8603091-.7225832,3.1360896-2.454629,3.2741441-4.4451597l.0484659-.6932099c.1894578-2.6749287.3686349-5.2059283.3686349-7.7711967v-25.2160009c0-2.8320759-.1595949-5.5696677-.3280019-8.468323-.0019582-.0332897-.0376957-.4998357-.0376957-.4998357-.20904-2.5510713-.4582235-4.78589-1.4104081-6.533112l-.1013379-.2604433c-.298139-.7230728-.4758475-1.182765-.4758475-1.7212755,0-.2447775.0514033-.3627603.067069-.3931127.2976495-.5718003.4817222-1.1881501.5502599-1.8162492.6339738,1.1460483,1.7002246,2.0463401,3.0362203,2.4448379,3.1879824.9512054,7.0765181,2.7679442,10.4710927,4.3957147.6951682.333387,1.46328.5101163,2.2343292.5101163h7.7403547c2.8452939,0,5.1515877-2.3062938,5.1515877-5.1515877v-4.6904268c0-2.8452939-2.3062938-5.1515877-5.1515877-5.1515877h-18.9727055c-2.5574355,0-4.727633,1.8764645-5.097247,4.407464-.0093015.0611944-.0171344.1228783-.0234986.1840727-.4812326-.8704289-1.2072427-1.5881165-2.094806-2.0590685l-2.0899105-3.2256781c-.9575697-1.4769875-2.5921939-2.3498642-4.3222814-2.3498642-.2261744,0-.4538175.0146867-.6819502.0455286-1.9729068.2628911-3.6178117,1.6390303-4.22486,3.5345874-1.1000302,3.433739-4.0691815,5.7307313-7.5655835,5.8521409-.0372062.0009791-.0749019.0029373-.1125977.0048956-.1282634.0073433-.3040137.0112598-.4743788.0112598-3.3465982,0-5.4311236-1.3746705-6.1835697-8.4027227-.9144888-7.8651912-4.0261006-14.3336819-9.2560171-19.2786774,3.6794957.8709184,10.5768366,2.944184,14.2822787,5.043396.0372062.0210509.0749019.0416122.1125977.0616839,3.9130134,2.0894209,6.7964926,4.9185595,8.3376118,8.1819333.867002,1.8348523,2.7033229,2.9520169,4.6571371,2.9520169.387238,0,.7783925-.0435704,1.1680783-.1346276.7656641.0763706,1.6081883.1654696,2.4526707.2545686,2.699896.2844315,5.4903597.5791436,8.0742312.5791436h22.0148005c2.8452939,0,5.1515877-2.3062938,5.1515877-5.1515877v-4.531811c0-2.3322402-.5928512-9.7769037-1.0079938-12.0004626-.0881199-.4719311-.2418402-.9286859-.4562653-1.3580257-.3823425-.7504879-1.2263354-2.4046943-1.2263354-2.9490795,0-.1365859.3206585-.4024142.9091037-.4024142,1.0153371.0181135,5.426228.9683399,9.744593,2.3586762,7.7168561,2.4849814,7.8054655,3.8723803,7.8054655,3.9301478,0,.0215404-.0205613.5399792-1.8226134,1.7927505-1.3849512.9629548-2.2108305,2.5432384-2.2108305,4.2297555v8.930463c0,2.8452939,2.3062938,5.1515877,5.1515877,5.1515877h12.0694899c1.3952319,0,2.7302484-.5659256,3.7010361-1.5680448l1.1582872-1.1886396c1.5685343-1.6037823,3.188472-3.2594574,4.6184622-4.9870972.9991818.0597257,2.0571103.9135097,2.7796935,1.6341347.1140663.1135768.3118466.3010763.5801227.5522181l.1855414.1742816c7.2968178,6.8430003,8.0840223,8.5603594,8.0840223,8.9808872,0,.1830936,0,.7402072-.9071455.7402072h-13.640472c-1.6923918,0-3.2295946.8249002-4.176394,2.1349495-.9531637-1.3193508-2.4962411-2.1349495-4.176394-2.1349495h-10.2762498c-2.8452939,0-5.1515877,2.3062938-5.1515877,5.1515877v4.6904268c0,2.8452939,2.3062938,5.1515877,5.1515877,5.1515877h6.5571002c1.7178486,0,3.3230996-.8567213,4.2792006-2.2837742.8939275-1.3335479,2.0282265-2.9613184,2.8756463-3.7196392.2795359-.2506522.5267612-.5262717.7406968-.8224525.444516.6163498,1.0305134,1.1406632,1.7335144,1.5190893l.4479429.2437984c.3612916.1987593.6143916.3353452.8307749.4435369l7.59153,4.6874895c.1610636.0998692.3275123.1899474.4988566.2712135.6060691.2873688,1.2326996.8929484,1.2326996,1.4099185-.0592362.2535895-.5125641,1.0251282-2.863897,3.1772122-1.0657613.9756832-1.6732991,2.3547597-1.6732991,3.7999262v26.4775842c0,2.2548905.2158938,4.4764913.444516,6.8292928.1581263,1.6243436.3206585,3.2937263.3940918,4.9151326-.2158938,2.1648124.9526741,4.2346511,2.9236227,5.1667639.5101163.2418402,2.0806089,1.173953,5.6347785,4.616504,4.4363477,4.296335,4.8842906,5.8834724,4.901425,5.9490728l-.0107702.0920363c0,.426892-.0812661.6344633-.1096603.6736277-.017624.0137075-.1312008.0675586-.2927539.0675586h-36.1360155c-2.8452939,0-5.1515877,2.3058042-5.1515877,5.1510981v5.8756396c0,2.8756463.1571472,5.7610837.3089092,8.5515474.0719646,1.3325688.1405023,2.5907253.1928847,3.8332159-.2824733,1.5039131.1189619,3.0587399,1.0985615,4.2395466.9795996,1.1808067,2.4335781,1.8612883,3.9644167,1.8612883.0332897,0,.0665795,0,.0998692-.0009791,9.0836937-.1762398,18.5276999-.5551554,26.5926296-1.06723,2.3846226-.1096603,4.6654595-.4993461,6.6775307-.8430138,1.1994098-.204634,2.2764309-.3887067,3.2795292-.5061999.0401435-.0048956.0905677-.008812.1390336-.008812.2056131,0,.3059719.0675586.3250645.0910572-.0102807.0283942-.1140663.276109-.529209.4601817-6.4244308,2.9539751-10.4676658,7.5978942-12.0851557,13.8348254-1.9851457.3847903-6.0283807.7989538-14.2377292.7999329-15.4993125,0-39.2951142-1.609657-48.6588334-3.9193776-5.848714-1.6057405-17.39438-5.9383026-23.4408743-11.9559131-.9678503-.9634443-2.2759414-1.4999966-3.6334775-1.4999966-.0974215,0-.1953325.0019582-.2932435.0078329-1.4613218.0832244-2.8183683.7842672-3.731878,1.9278677-4.0393186,5.0561244-9.7553632,10.8367903-21.5252454,15.5081245l-.1874996-.337793ZM178.7409379,574.4228177c-2.0806089,0-3.9864467,1.289488-4.7633705,3.327016-1.6684036,4.3727056-3.1635047,7.693847-4.8470844,10.7702108-.7000637,1.2796969-.8253898,2.7963384-.3436676,4.1739462.4817222,1.3766288,1.5244744,2.4849814,2.8697716,3.0499279,5.030178,2.1099822,14.1442241,4.0574321,23.7865002,5.0825604,3.5380143.3847903,7.9968815.6648157,13.2409951.8332227.0558093.0009791.1116185.0019582.1674278.0019582,2.699896,0,4.9552761-2.0933373,5.136901-4.8064514.46214-6.893914.6834188-13.2688997.6770546-19.4911443-.0029373-2.8423565-2.3087416-5.1452234-5.1515877-5.1452234h-25.0936121c-1.1460483,0-2.2597861.3818529-3.1644838,1.0858331l-1.5538477,1.2101801c-.3221272-.062663-.6437649-.0920363-.9609965-.0920363ZM242.1241181,565.7009051c.9379875,1.3286524,2.4840023,2.1814572,4.2096838,2.1814572h2.1114509c1.5039131,0,2.9324347-.6569829,3.9110552-1.7986252l.5590719-.6442544c1.4902055-1.7007142,1.6967978-4.1749254.5091372-6.0998558-.9536532-1.5460148-2.6279314-2.4467961-4.3834758-2.4467961-.4308084,0-.8660229.0548302-1.2968313.1664487-.884626.2300909-1.7687623.453328-2.6499614.6716695-1.2439593.3084197-2.2778996,1.049606-2.9701304,2.0306743-.1238574-.1752607-.2594642-.3436676-.4063307-.5052208l.2168729-2.4448379c.1272843-1.4402709-.355417-2.8668343-1.3315897-3.9330852-.9756832-1.0662509-2.3547597-1.6732991-3.7999262-1.6732991h-5.2940482c-2.8452939,0-5.1515877,2.3058042-5.1515877,5.1510981v6.3749857c0,2.8452939,2.3062938,5.1510981,5.1515877,5.1510981h6.4053381c1.698756,0,3.2589679-.8332227,4.2096838-2.1814572ZM198.3970622,554.9444018c-2.8428461,1.1573081-5.8775978,2.081588-9.0273949,2.7464038-2.5804446.5453643-4.3325621,2.9520169-4.0584113,5.5760319.2741508,2.6230359,2.4859605,4.6155249,5.123683,4.6155249h19.0358581c2.8452939,0,5.1515877-2.3058042,5.1515877-5.1510981v-6.3749857c0-2.8452939-2.3062938-5.1510981-5.1515877-5.1510981h-6.119438c-2.317064,0-4.3296247,1.5430775-4.954297,3.7392214ZM231.5090962,532.0415485c-2.8452939,0-5.1515877,2.3062938-5.1515877,5.1515877v4.1866747c0,2.8452939,2.3062938,5.1510981,5.1515877,5.1510981h6.0352345c2.8452939,0,5.1515877-2.3058042,5.1515877-5.1510981v-4.1866747c0-2.8452939-2.3062938-5.1515877-5.1515877-5.1515877h-6.0352345ZM203.434094,532.0415485c-2.8452939,0-5.1515877,2.3062938-5.1515877,5.1515877v4.1866747c0,2.8452939,2.3062938,5.1510981,5.1515877,5.1510981h6.0367032c2.8452939,0,5.1515877-2.3058042,5.1515877-5.1510981v-4.1866747c0-2.8452939-2.3062938-5.1515877-5.1515877-5.1515877h-6.0367032ZM231.5090962,513.0453444c-2.8452939,0-5.1515877,2.3062938-5.1515877,5.1515877v4.0197364c0,2.8452939,2.3062938,5.1515877,5.1515877,5.1515877h6.0352345c2.8452939,0,5.1515877-2.3062938,5.1515877-5.1515877v-4.0197364c0-2.8452939-2.3062938-5.1515877-5.1515877-5.1515877h-6.0352345ZM203.434094,513.0453444c-2.8452939,0-5.1515877,2.3062938-5.1515877,5.1515877v4.0197364c0,2.8452939,2.3062938,5.1515877,5.1515877,5.1515877h6.0367032c2.8452939,0,5.1515877-2.3062938,5.1515877-5.1515877v-4.0197364c0-2.8452939-2.3062938-5.1515877-5.1515877-5.1515877h-6.0367032ZM421.9004771,606.3329941c3.6976092-1.7202964,3.6980988-5.3518157,3.6980988-6.7793582v-8.4399288c0-1.8289776-.9698085-3.5199007-2.5476444-4.4451597-.8033598-.4699728-1.7036515-.7059384-2.6039432-.7059384-.8679811,0-1.7359622.2183415-2.5187607.6569829-7.200865,4.0368708-13.4603158,7.3178687-19.698226,10.3256948-.102317.0489555-.2031653.1018274-.3020555.1576367-3.7955202,2.1511048-5.1550145,2.1814572-5.2108238,2.1824364-.0700064,0-.1272843-.0078329-.1728129-.017624.5228448-.8312645,3.1865137-2.7170305,4.220454-3.4494048l.1835831-.1292425c.3216377-.2271535.5786541-.4122053.7392281-.5375314,8.6333031-6.5159775,15.7759111-12.5130268,21.8694026-18.3602721.4880864-.4680146.8650438-1.0114207,1.1284244-1.5949703.587466-.2516313,1.1367468-.6168393,1.6135734-1.0946451.3441572-.3456259,1.0819166-1.0966033,1.1098213-1.1269557,1.1215706-1.2023472,2.2739831-2.3958824,3.4312913-3.5943131,1.5372028-1.5910539,1.9024109-4.0035811.8831573-5.9676759-.8963753-1.7281293-2.6631794-2.7953593-4.5636321-2.7953593-.2599537,0-.5218657.0195822-.7852463.0607048,0,0-2.6915736.4112262-3.1262985.4778057.0499346-.9986923.1077021-2.0512356.1654696-3.1027998.1488247-2.7180096.3010763-5.4977031.3010763-8.0933239v-15.1277402c0-.9600174-.1963116-2.063964-.6564933-3.691245-.5776749-2.0414445-2.347906-3.5203903-4.4593568-3.7250243-.1674278-.0166449-.3338765-.0244778-.4993461-.0244778-1.9259095,0-3.7098481,1.0799584-4.5934949,2.8222848-.200228.3950709-.7857358.6501291-1.4921638.6501291h-11.0869529c-2.8452939,0-5.1515877,2.3062938-5.1515877,5.1515877v31.9072391c0,1.6360929.7774134,3.175254,2.094806,4.1465312.8963753.6608993,1.9699695,1.0045669,3.0572712,1.0045669.5101163,0,1.0236596-.0753915,1.5230057-.2300909,3.3147772-1.0261074,6.3583408-2.0022801,9.3035039-2.9843275.1062334-.035248.2114878-.0744124.3152734-.1165141,3.246729-1.3237568,5.3885323-1.9954263,6.1943399-2.1697079.008812.0362271.0181135.0724541.0274151.1096603,0,0,.0014687.0137075.0034269.0313315-.1263052.2026758-.2369446.4112262-.3324079.6236931-.3563961.1537203-.7010428.3495423-1.0261074.5884452-.6956577.5120746-1.5577641,1.0721255-2.4712738,1.6644871l-.2903061.1879891c-.4352144.2810046-.7916105.5179492-1.0133789.6824397-.0347584.0254569-.0695168.0518928-.1037857.0783288-5.5941454,4.3668309-11.7576433,8.2803339-17.7184655,12.0645943-6.8527914,4.3511652-13.9244139,8.841364-20.2548501,14.0844984l-7.787352-14.0776447c4.7119672-1.0623344,9.4004358-2.4144854,14.2979444-4.1230325,2.0688596-.7216041,3.4547899-2.6729705,3.4547899-4.8642189v-38.6082685c0-2.8452939-2.3062938-5.1515877-5.1515877-5.1515877h-2.6719914c-1.0388358,0-2.0536834.3142943-2.9108943.9012708l-1.4446769.9898803-5.0272407-7.1440767c.8650438.0602153,1.7530966.1326694,2.6220568.2036549,2.2602756.1860309,4.5670589.3759783,6.7514535.3759783h2.6812929c2.8452939,0,5.1515877-2.3062938,5.1515877-5.1515877v-29.7419372c0-2.8452939-2.3062938-5.1515877-5.1515877-5.1515877h-2.7170305c-1.3668377,0-2.6778661.5434061-3.6442477,1.5107668l-.4254233.4259129-5.1887938-7.2654863c.133159.0151762.2668075.0303524.4014351.0460182,2.6362539.3005868,5.3434932.609496,7.8842839.609496h20.4624214c1.423626,0,2.7840995-.5894243,3.7578245-1.6282601,2.7870368-2.9720886,4.5455185-4.5748918,5.2279582-4.7638601.1953325.0058747.7333534.4714415,1.5675552,1.3903363.1640009.1806458.2584851.2829628.3407303.3671663.0685377.093505.346605.4342353.6809711.8268585.9986923,1.1724843,2.4428796,1.8108641,3.922315,1.8108641.613902,0,1.2331891-.1096603,1.8299567-.3363243,2.036549-.7744761,3.3652013-2.7459142,3.3191832-4.9239446-.0523824-2.4918351-.3519901-4.478939-.9419039-6.2550447-.0597257-.1796667-.1292425-.355417-.2080609-.5272508-.3260437-.7088757-.520397-1.4686651-.520397-2.0326325,0-.3524796.2344969-.568863.4024142-.568863h.0073433c.5595614.1253261,2.2955236.7034906,7.2542265,2.6558361,2.8296281,1.1142273,4.9479328,1.9582201,6.088596,2.4575663.6511082.2854106,1.3545988.4327667,2.0659223.4327667h39.1193639c1.6791738,0,3.2535828-.818536,4.2175166-2.1936961,2.4634409-3.5125574,3.3049861-3.6902659,3.4484257-3.6902659.8993126,0,2.0228414.6648157,3.1027998,1.3834825.0543406.0362271.5130537.3182108.5130537.3182108,7.3771049,4.531811,9.174751,6.2721791,9.561989,6.9242664.0004896.0234986.0004896.04406.0004896.04406-.0357375.0861617-.3774469.7671327-2.8296281,2.6210777-1.2875297.973725-2.0443818,2.4942829-2.0443818,4.1088354v12.4067933c0,2.5065218.1919056,5.0717902.3779365,7.5528551.1121081,1.5058713.2247058,3.0195755.2903061,4.4505448-.568863,1.9156289.02203,3.9942795,1.5259431,5.3244006.222258.1963116.4043725.3823425.551239.5296986l.3324079.3304497c5.6083425,5.5642826,6.6956442,7.3007343,6.8449585,7.8407135-.0039164.689783-1.1788485.9360292-1.9195453.9360292h-17.8746335c-2.2872011,0-4.300741,1.5083191-4.9435268,3.7034839-.6432753,2.1946752.2379237,4.5509036,2.1638333,5.7850719.6883144.4410891,1.4490829.9467994,2.2916071,1.5254535,4.1597492,2.8585119,5.3067766,4.1112832,5.6205814,4.5651007-.1091708.1791771-.5497703.7411863-2.0380176,1.8211447-1.3428495.9751936-2.1339704,2.5378533-2.1251584,4.1979344.0337793,6.0626496.1987593,12.1762129.489555,18.1732621-1.0006505,2.0130503-.5806123,4.4559299,1.0593971,6.0195687.4244442.4043725.8767931.844972,1.3624317,1.3217986l.2315595.2281326c.4773162.4709519.871408.8488884,1.1176542,1.0603762l-.026436-.0244778c.0195822.017624.0391644.035248.0587466.0518928.2770882.2457566.6511082.5463434,1.0799584.8860946l.141971.1125977c1.707568,1.3560675,4.5646112,3.6256446,4.5646112,5.141307,0,.5796332-.0577675.907635-1.2444489.907635-.5409583,0-1.0354089-.0538511-1.5558059-.1674278-.3642289-.080287-.7343326-.1194514-1.1034571-.1194514-.6065587,0-1.2116487.106723-1.7863863.3191899-3.1081849,1.1494752-6.8043255,2.4918351-10.6527176,3.7421587-1.6243436.5277403-2.8815209,1.8260403-3.3568789,3.4660497-.4753579,1.6400094-.106723,3.4092613.9840056,4.723227,4.869604,5.8668276,9.6750762,9.908594,16.8392246,15.3162189,4.2229018,3.2623948,7.4461321,5.4183952,11.0326123,7.3717198.0034269.0078329.0073433.0166449.0107702.0254569-1.0873017.4513697-3.5703249.7088757-4.8446366.8400764l-.2550582.026436c-.3544378.0372062-.640338.0695168-.8278376.0969319-4.7423196.6413171-6.0553063,1.2552191-9.4978573,3.0979043-.8557422.4582235-1.8368105.9840056-3.0567817,1.6018241-5.8012272-6.1517486-10.0520336-11.3537604-13.3545719-16.340368-.8586795-1.2963417-2.2568487-2.1354391-3.8043322-2.2832847-.1640009-.0156658-.3280019-.0234986-.4910237-.0234986-.4479429,0-.8905006.0577675-1.3173926.1713443.3852798-.3818529.7123026-.8263689.964913-1.3208195.7309057-1.4334171.7495088-3.1262985.0509137-4.5763605-2.4560976-5.097247-4.1450625-10.3521308-5.3155886-16.5371692-.4146531-2.1912483-2.1741139-3.8224457-4.3022097-4.1386983-.738249-1.9405962-2.6161821-3.3191832-4.8162425-3.3191832-2.8452939,0-5.1515877,2.3058042-5.1515877,5.1510981,0,1.0427522.3098883,2.0130503.8420347,2.8237535-.2550582.5414479-.4166113,1.129893-.4709519,1.7408577-.1346276,1.5215371.4126949,3.0234919,1.494122,4.1024712.0328002.0323106.0592362.0607048.080287.0842035-.0611944.1429501-.2868793.5150119-1.0946451,1.1690574-1.2082218.978131-1.9097542,2.4497334-1.9097542,4.0035811v10.522496c0,1.654696.7955269,3.2095228,2.1378868,4.1778627.8885424.6413171,1.9454917.9732354,3.0141904.9732354.5453643,0,1.093666-.0861617,1.6243436-.2624015l2.0796298-.6932099c4.4662106-1.494122,6.9384635-2.2891594,8.0639506-2.4918351.1356067-.0254569.2697448-.0548302.4019247-.0900781-.0171344.017624-.0342689.0342689-.0509137.0518928-.1321799.1057439-.2599537.2202998-.3833216.3417094-8.0218488,6.573745-16.0946114,13.324709-23.9730206,20.0462997l-6.8346779-12.0313046ZM456.6804252,556.5863694c-1.6155316,0-3.1380478.7578312-4.1112832,2.0473192-.973725,1.289488-1.2855715,2.9608289-.8430138,4.5146766.9061664,3.1821077,2.1173255,6.1830801,3.8121651,9.4444958.764685,1.4716024,2.1912483,2.4849814,3.8327264,2.7229051.2462462.035248.4934715.0528719.7387386.0528719,1.3888676,0,2.7312276-.5620092,3.7093585-1.5773463,1.6639976-1.7271502,3.0851758-3.318204,4.2238809-4.7281226,1.2914462-1.5998659,1.5078295-3.815592.5502599-5.6347785-.8953962-1.7016933-2.6563256-2.7522784-4.5572678-2.7522784-.1326694,0-.2653388.0048956-.3989874.0146867-.3260437.0254569-.6515978.0469973-.9766623.0656004-.4596922-2.3851121-2.556946-4.1700298-5.0575931-4.1700298h-.9223217ZM435.4234559,536.243889c-2.8452939,0-5.1515877,2.3062938-5.1515877,5.1515877v5.6993997c0,2.8452939,2.3062938,5.1510981,5.1515877,5.1510981h22.5112093c2.8452939,0,5.1515877-2.3058042,5.1515877-5.1510981v-5.6993997c0-2.8452939-2.3062938-5.1515877-5.1515877-5.1515877h-22.5112093ZM428.2813375,519.2646516c-2.4874291,0-4.6199309,1.7775743-5.0673842,4.22486-.4474533,2.4467961.9174261,4.8642189,3.2437917,5.7444388,1.4681756.555645,3.1468598,1.2047949,5.0747275,1.9611575l.4773162.18701c.5982363.2340073,1.2351474.3544378,1.8774436.3544378h24.6858128c1.5528686,0,3.0230024-.7005533,4.0011333-1.9068169.6261409-.7720283,1.1803172-1.4515307,1.6904335-2.0404654,1.3208195-1.5244744,1.6302183-3.6790061.7925896-5.5133688-.8381182-1.8343627-2.6695436-3.011253-4.6860208-3.011253h-32.0898431ZM396.926806,486.1452742c-2.8452939,0-5.1515877,2.3062938-5.1515877,5.1515877v26.0227876c0,2.0150085,1.1749321,3.8449653,3.006847,4.683573.6858666.3142943,1.4172618.4680146,2.1437615.4680146,1.2131174,0,2.4125272-.4283607,3.3661804-1.2513027.7534252-.6501291,1.1024779-.8023807,1.1171646-.8082554,1.4334171-.6090065,2.5143547-1.8343627,2.9402676-3.3324011.2868793-1.0079938.2565268-2.0673909-.0680482-3.0396472.453328.0425913,2.9148107.2780673,2.9148107.2780673.1605741.0151762.3211481.0225195.480743.0225195,1.2405325,0,2.4453274-.4479429,3.3877209-1.2708849,1.0638031-.9286859,1.6997351-2.2534218,1.7589712-3.6643195.0523824-1.2449385.1209201-2.5221876.1904369-3.8116755.1546994-2.8820105.3123361-5.8144452.3123361-8.5867954v-5.7096804c0-2.8452939-2.3062938-5.1515877-5.1515877-5.1515877h-11.2480165ZM423.7333712,505.5624957c-1.69435,1.3369748-2.379727,3.5957817-1.7007142,5.6563189.6961473,2.1119404,2.6690541,3.5389934,4.892613,3.5389934h39.4126074c1.7198068,0,3.3265265-.8586795,4.2821379-2.2881802.934071-1.3967005,1.1269557-3.1581195.5228448-4.7202897-.2692553-2.619609-2.477638-4.6233578-5.1241726-4.6233578h-37.9072256c-1.7863863,0-3.4405928.9247695-4.3780907,2.4365154ZM466.0211353,474.7151432c-2.8452939,0-5.1515877,2.3062938-5.1515877,5.1515877v13.600818c0,2.8452939,2.3062938,5.1515877,5.1515877,5.1515877h.4885759c2.8452939,0,5.1515877-2.3062938,5.1515877-5.1515877v-13.600818c0-2.8452939-2.3062938-5.1515877-5.1515877-5.1515877h-.4885759ZM428.6994175,474.7151432c-2.8452939,0-5.1515877,2.3062938-5.1515877,5.1515877v13.600818c0,2.8452939,2.3062938,5.1515877,5.1515877,5.1515877h1.1622037c2.8452939,0,5.1515877-2.3062938,5.1515877-5.1515877v-13.600818c0-2.8452939-2.3062938-5.1515877-5.1515877-5.1515877h-1.1622037ZM588.3531063,614.2226631c17.3904636-13.3403748,23.7850315-36.9731546,25.7363979-46.5870365.3079301-1.5156624-.0812661-3.0881132-1.0598867-4.2855648-.978131-1.1964725-2.4423901-1.8906616-3.9884049-1.8906616h-1.8588405c-1.2684371,0-2.4918351.4670355-3.4366764,1.3139657-2.3018878,2.0610267-3.8390906,3.1145491-4.5699963,3.131194-3.2095228-1.8994735-8.5510578-6.8958723-8.730235-8.9735438l4.2326929-3.1409851c.5522181-.4102471,1.0172954-.9262381,1.3668377-1.5185997,2.6612212-4.5107601,6.9125171-12.7636789,10.136237-21.17913.6070482-1.5837105.3950709-3.3647118-.5659256-4.7619018-.9609965-1.3971901-2.5486235-2.232371-4.2444422-2.232371-2.5251249,0-4.4182342.0660899-6.1825906.2139356-1.5440566.1179828-2.9946082.7969956-4.4647419,1.5420984-.1581263.080287-.3123361.1586158-.4567548.2300909l-2.6264628-5.8829829,5.0727693.867002c.2868793.0489555.5771854.0739228.8679811.0739228.0205613,0,12.1483083-.1453978,12.1483083-.1453978,1.2429802-.0151762,2.4389632-.4787848,3.36667-1.3061328l4.8744995-4.3467592c1.3825034.2384133,6.7974717,5.3958756,8.6053984,7.1176407l.0797975.075881c.4528384.431298.8469302.8058076,1.1568186,1.093666.2903061.3162526.2599537.5306777.2501626.600684-.1091708.7705596-1.8960467,1.8456225-2.9642558,2.4879187-.2154042.1292425-.4871073.2927539-.7367803.4484324-.938477.5850183-1.6644871,1.4564262-2.0693491,2.4859605-2.1227106,5.3948965-4.64294,11.1373771-7.0965898,16.1700029-1.0858331,2.2264963-.4327667,4.9112161,1.5543372,6.3906515.916447.6814606,1.9978741,1.0182745,3.0748952,1.0182745,1.1338095,0,2.2632129-.3720618,3.1938571-1.1083526.5913825.3348556,2.1050867,1.3560675,5.5050464,4.4245984,1.9019213,1.7154009,3.3793984,3.1527344,4.3927773,4.2718573.6525769.720625,1.476498,1.2238876,2.3684673,1.48531-.6932099.2036549-1.3487241.5541763-1.9170975,1.0447104-.3656976.3162526-.7925896.631526-1.2444489.9644234-.3661872.2692553-.8498675.6295678-1.1857023.9037186-.7299266.596278-1.2821446,1.3815243-1.5969285,2.2705563-2.7953593,7.898481-5.2093552,14.7199409-8.6210642,21.0430337-.6892935,1.2777386-.8072763,2.7865473-.3255541,4.1563223.4822117,1.369775,1.5200684,2.4722529,2.8580223,3.0362203,2.7713711,1.1680783,6.7950239,2.2979713,11.6362337,3.2653321.3353452.0675586.6736277.0998692,1.009952.0998692,1.1548603,0,2.2876907-.3887067,3.2065855-1.1191228,1.187171-.9448412,1.8975153-2.3635717,1.9425544-3.8792341.0734333-2.473232.2379237-4.9934614.3975187-7.4314455.2281326-3.4856319.4420682-6.7568386.4420682-10.1386848v-9.2721724c0-2.0150085-1.1754216-3.8459444-3.0078261-4.6840626-.226664-.1037857-.4582235-.1899474-.6927204-.2594642.1346276-.0391644.2687657-.0842035.4014351-.1360963,1.9875935-.7656641,3.2991114-2.6759078,3.2991114-4.8064514v-61.5326622c0-2.379727-.6584515-5.8208094-1.5651075-8.1814438-.1336485-.4024142-.2839419-.8518258-.2839419-1.2356369,0-.3407303.0656004-.5061999.0886095-.5370419.0073433-.0048956.0660899-.0323106.1453978-.0323106.0900781.0024478,2.50848.1194514,11.1373771,4.4657211.7264997.3656976,1.5210475.5507494,2.3175535.5507494.6021527,0,1.2052845-.1057439,1.7819803-.3182108,1.3394226-.493961,2.4139959-1.5215371,2.9671931-2.837461,5.465882-13.0074773,7.5778224-20.8477013,6.9928042-26.026704.0817557-.0205613.2016967-.0430808.3563961-.0430808.9071455,0,6.5708077,2.659263,9.2927337,3.9370016,1.7060993.800912,2.5104382,1.1754216,2.97062,1.3639003.0435704.0254569.0876304.0499346.1321799.0744124.1253261.0680482.3808738.1972907.7142608.3627603l.284921.1409919c1.8779331.9330919,4.6718237,2.3209804,5.3082453,3.1356-.1351172.2154042-.8704289.9776414-4.0603695,1.8975153-.951695.2746404-1.8040103.8175569-2.4551185,1.5641283-3.3857626,3.882661-7.0040639,7.431935-9.7778828,10.0902189-1.5185997,1.4554471-1.9998323,3.6878181-1.2155652,5.639674.7842672,1.9518559,2.6763974,3.2310632,4.7800154,3.2310632h11.8124735c1.6292392,0,3.1625255-.7710492,4.1347818-2.0786507,2.2637025-3.046501,2.8942494-3.1341313,2.9588706-3.1341313,1.3883781,0,7.1127451,3.6633403,9.2677664,5.0424169l.3123361.200228c.5150119.3304497.9056768.5766958,1.1161855.6981055,2.4688261,1.4818831,2.6440868,2.1418033,2.6499614,2.1692184.0014687.1037857-.0562988.8136405-2.0634745,2.236777-1.3418704.951695-2.1486571,2.48645-2.1716661,4.131355-.1145559,8.3219461-.1233679,18.1199006.6618784,27.9173656-1.9856352.6608993-3.9967273,1.3291419-6.0220165,1.9778024-1.9068169.6109647-3.2721859,2.2646816-3.5340978,4.2214331-.9722563-1.1391946-2.401757-1.8030312-3.9066492-1.805479l.1894578-2.2313919c.1218992-1.436844-.3637394-2.8590014-1.3394226-3.9208463s-2.3518224-1.6664453-3.793562-1.6664453h-22.9630686c-2.8452939,0-5.1515877,2.3062938-5.1515877,5.1515877v10.0701471c0,2.8452939,2.3062938,5.1510981,5.1515877,5.1510981h25.6972335c1.4696442,0,2.8697716-.6276096,3.8469235-1.725192.6320156-.7098548,1.2513027-1.3443181,1.8407269-1.8867451.9095933-.8371391,1.4613218-1.9435335,1.6174898-3.1067163.5218657.6119438,1.1910874,1.1054153,1.9694799,1.423626,1.6453945.6716695,4.4652315,2.3792375,8.8741642,5.3743352l.4077993.276109c.1512725.1018274.3172317.2075713.4998357.3221272.9105724.5727794,2.7126245,1.7085471,2.7126245,2.5828924,0,.1272843-.1444187.6540455-2.0027697,2.0688596-1.2792073.9742145-2.0301847,2.490856-2.0301847,4.0985548v19.8906212c0,2.6073701.146377,5.1275995.3010763,7.7946953.0641317,1.1083526.1282634,2.2157261.1806458,3.3230996-2.9490795,1.3462764-6.0146732,2.4800858-9.6672433,3.7509707-2.4081212.8371391-3.8415384,3.3103712-3.3705864,5.816893.4592026,2.4428796,2.593173,4.1994031,5.0605304,4.1994031.0641317,0,.1277739-.0009791.1923951-.0029373,5.3009019-.195822,10.3531099-.444516,15.0161217-.7411863,2.384133-.1096603,4.6654595-.4993461,6.6780203-.8430138,1.1974516-.204634,2.2749623-.3887067,3.2785501-.5061999.0401435-.0048956.0905677-.008812.1385441-.008812.2036549,0,.2991181.0597257.3133152.0763706.0288837.1125977-.1184723.4190591-.5776749.6736277-6.3265197,2.7336753-10.3908057,7.3305971-12.0244508,13.636066-1.9871039.3857694-6.0327867.7999329-14.2372396.7999329-15.5012707,0-39.297562-1.609657-48.6588334-3.9193776-5.8496931-1.6057405-17.3953591-5.9383026-23.4408743-11.9568922-.9683399-.9634443-2.2759414-1.4999966-3.633967-1.4999966-.0974215,0-.1953325.0019582-.2932435.0078329-1.4613218.0832244-2.8183683.7842672-3.7323676,1.9278677-4.0388291,5.0571035-9.7553632,10.8377694-21.5247559,15.5091036l-.1874996-.3368139ZM649.957733,589.8888404c-.9389666.2614224-1.8720585.5287194-2.8017235.7950374l-1.3683063.3896858c-2.4012675.6814606-3.9688227,2.9862857-3.7201287,5.4693089.248694,2.4840023,2.2416725,4.4314522,4.7305703,4.6233578,5.8227676.4474533,13.1998725.6746068,21.9266806.6746068,3.8033531,0,7.8441404-.04406,12.0102537-.1321799,1.912202-.0401435,3.6442477-1.1367468,4.4995003-2.8472521.8111927-1.6233645.7059384-3.5463367-.2609328-5.0668946l.3049928-4.1073668c.1057439-1.4285216-.3877276-2.8364819-1.3624317-3.8860879s-2.3425209-1.645884-3.7749589-1.645884h-25.0319282c-2.8452939,0-5.1515877,2.3058042-5.1515877,5.1510981v.5825705ZM655.1093207,551.7094222c-2.8452939,0-5.1515877,2.3058042-5.1515877,5.1510981v17.8051167c0,2.8452939,2.3062938,5.1510981,5.1515877,5.1510981h25.368742c2.8452939,0,5.1515877-2.3058042,5.1515877-5.1510981v-17.8051167c0-2.8452939-2.3062938-5.1510981-5.1515877-5.1510981h-25.368742ZM655.1093207,497.577853c-2.8452939,0-5.1515877,2.3062938-5.1515877,5.1515877v14.609791c0,2.8452939,2.3062938,5.1515877,5.1515877,5.1515877h23.3512857c2.8452939,0,5.1515877-2.3062938,5.1515877-5.1515877v-14.609791c0-2.8452939-2.3062938-5.1515877-5.1515877-5.1515877h-23.3512857ZM611.451292,500.1166854c-3.3465982,0-5.4311236-1.3746705-6.1835697-8.4027227-.9144888-7.8651912-4.0261006-14.3336819-9.2555275-19.2786774,3.6785166.8709184,10.5758575,2.944184,14.2817891,5.0429064.0367166.0210509.0744124.0416122.1121081.0621735,6.1184589,3.2668008,9.6275894,8.3395701,9.6275894,13.9175602,0,4.6909164-3.5120678,8.4869261-7.9954129,8.6426046-.0372062.0009791-.0749019.0029373-.1125977.0048956-.128753.0073433-.3040137.0112598-.4743788.0112598ZM812.1179436,616.4002039c-.2026758-.1194514-.4503906-.3563961-.6026423-.5698421.755873-.8792408,3.4503839-2.5358951,5.6489756-3.887067,1.1852127-.729437,1.7741475-1.0956242,2.1418033-1.3580257.0680482-.0489555.2163833-.1635114.2242162-.169386,6.31526-4.963109,12.1316634-11.2617241,18.305442-19.8240417,4.8201589-6.4817087,8.6049089-13.9288199,11.2039566-22.0720784,3.4675183-10.5518693,3.9839989-16.7633436,4.3746638-25.0309491.0665795-1.4060021-.4459846-2.7792039-1.4182409-3.7984575-.9717667-1.0192536-2.3190222-1.5959494-3.7274721-1.5959494h-4.9214968c-1.7810012,0-3.4361868.9203635-4.3761325,2.4335781-2.6352748,4.242484-3.4719243,4.4578882-3.6129162,4.4578882-1.2865506,0-8.4198571-3.9977064-10.7643362-5.3116722l-.2119773-.1189619c-.60509-.3402408-1.0476478-.5859974-1.2513027-.6902726-.0342689-.017624-.0690273-.0347584-.1037857-.0518928-.346605-.1679174-1.3575361-.6574724-1.6816216-1.036388.0910572-.6648157,1.1857023-2.1976126,3.2560306-4.5636321.8219629-.9389666,1.2752909-2.1447406,1.2752909-3.3926164v-49.6261941c0-3.5962713-.2105087-7.6693692-1.7697415-10.6164905l-.1336485-.2594642c-.2932435-.5649465-.618308-1.1925561-.618308-1.7315562,0-.4973879.5693525-.5713107.9091037-.5713107,1.1054153,0,6.168883.7260101,11.1251382,1.912202,8.8452804,2.116836,8.9466183,3.6393521,8.9466183,3.7029943,0,.4435369-.1302216.8513362-.409268,1.2841029-.9139993,1.4157932-1.0780002,3.188472-.4391309,4.7477048.6388693,1.5587432,1.9993428,2.7067498,3.6437581,3.0744056,8.5902222,1.9185662,18.7166682,5.6773698,24.7783387,8.3131341.6633471.2883479,1.3614526.4273815,2.0527043.4273815,1.5024444,0,2.97062-.6574724,3.9722496-1.8701002,4.5489454-5.5040673,13.6458571-19.6194077,14.7821144-25.8974615.7583208.3490527,3.1527344,1.7085471,9.0229889,6.8053046.3314288.2878584.6530664.5703316.9634443.8454615.9526741.8464407,2.1736244,1.2997686,3.420521,1.2997686.3975187,0,.7969956-.0460182,1.1920665-.1400127,1.6346243-.3887067,2.9769842-1.5504208,3.5962713-3.1121014.1405023-.3544378.2672971-.5791436.3559065-.7132817,1.6914127.1047648,6.4356905,1.1044362,10.8265097,2.4179123,7.218489,2.1594273,8.3219461,3.4743721,8.4883948,3.8258726-.0048956.1483352-.1209201.7842672-2.4130168,2.308252-1.4343963.9531637-2.2969922,2.5598833-2.2999296,4.2821379-.0083224,5.4051772-.0411226,11.9612982-.075881,18.8292658-.0445495,8.8212922-.0915468,18.1566172-.0915468,26.2279111,0,5.3248901.3505214,11.7135834.6594306,17.3503201l.1517621,2.8051504c-4.1440834,1.5607015-8.9054957,2.8570432-14.5089426,3.9487509l.1292425-2.2558696c.1351172-2.3674882-1.3639003-4.5215303-3.6310297-5.2186567-.4998357-.1527412-1.0094625-.2271535-1.511746-.2271535-1.7765952,0-3.473393.9223217-4.4221507,2.50848-.5507494.9213426-1.6972873,1.8984944-2.5123965,2.5535191-1.2170338.9771519-1.9249304,2.454629-1.9249304,4.0153304v43.9473557c0,2.5231667,1.827509,4.6752506,4.3173859,5.0835395.1267948.0205613.2672971.0411226.4239547.0597257.2790464.0293733.7372699.0763706,2.8692821.0763706,1.6444154,0,3.6613821-.0274151,5.2005432-.0489555.9409248-.0137075,1.7021829-.0244778,2.0850149-.0244778,5.0306676,0,7.952332-.7147504,9.7695603-2.3909868.030842-.0283942.0616839-.0577675.0925259-.0871408,2.4742112-2.3988197,5.914804-11.1246487,9.6897629-24.5776211.0788184-.1566576.2149147-.4141636.320169-.5130537.0019582.0009791.0489555-.0009791.0822452-.0019582.0484659.0832244.1174932.2682762.1174932.5708212-.0739228.978131-.1591054,2.0199041-.2447775,3.0665728l-.0141971.169386c-.2854106,3.4748617-.5806123,7.0701538-.5806123,10.5499111,0,5.8903262,2.8810314,11.1256278,7.7403547,14.1324748-4.1979344,12.0244508-14.4653722,13.3393957-18.7352713,13.3393957l-20.4859201.0029373c-5.8697649,0-10.9870837-.4161218-14.1613586-5.5251182-.738249-1.147517-1.565597-3.5737518-1.565597-9.0038962v-46.9052472c0-3.3984911-.2149147-7.0740703-.6046005-10.3491935-.3084197-2.5912148-2.5055427-4.5425812-5.1153606-4.5425812h-2.370915c-1.645884,0-3.192878.7867149-4.1621969,2.1163464-.9698085,1.3296315-1.2459176,3.0430741-.742655,4.6106293.0195822.7460819-.9027395,1.7555444-2.5775073,2.9392884-1.187171.8381182-1.9645844,2.1383764-2.1413137,3.5806055-1.0393253,8.485947-5.2827884,25.964041-14.5941252,37.6458033-3.5277336,4.4882406-7.2111457,8.0668879-11.9642356,11.6298695-6.0567749,4.6938537-13.4397544,9.2232169-22.0113736,13.5136772-1.236616.5541763-5.1520772,1.9993428-6.6496261,2.2695772ZM879.5942935,508.7025017c-1.0897495,0-2.1824364.3446467-3.1032894,1.0403045-5.870744,4.4324313-14.5936357,9.5541561-23.9314084,14.0521878-2.1653019,1.0427522-3.3216309,3.4445092-2.7870368,5.7875197.5350837,2.3430104,2.6191194,4.0050498,5.0223451,4.0050498h36.4478621c2.0717969,0,3.9418972-1.241022,4.7467256-3.1497971s.3882171-4.1142205-1.0579284-5.5975723c-.5796332-.5948094-1.0843644-1.1896187-1.4902055-1.6674245l-.1351172-.1600845c-.2628911-.3118466-.4978775-.5796332-.7010428-.7876941-1.0486269-1.4378231-1.9435335-2.7581531-2.7341649-3.9252523-2.1496362-3.1718271-3.8273413-5.6479965-6.8841229-8.3224356-.9673608-.8469302-2.1785199-1.2748013-3.3926164-1.2748013ZM843.8401309,483.3249477c-.8880528,0-1.7756161.2291118-2.5711431.6878248-1.5895852.9154679-2.5726117,2.6078597-2.5804446,4.4422224-.0347584,8.3420178-.0337793,19.6962678.0024478,29.6317873.0078329,2.0336116,1.2106696,3.8723803,3.0714683,4.6938537.6682426.2947121,1.3761392.4386413,2.0791402.4386413,1.25424,0,2.4923247-.4582235,3.4582168-1.3325688,6.4474398-5.8374543,13.1798007-12.5962511,18.0092612-18.0812257.9374979-1.0647822,1.3947423-2.4688261,1.263052-3.8816819-.1312007-1.4128558-.8395869-2.708708-1.957241-3.5820742-4.3751534-3.4180733-11.4560774-8.4531468-18.2085101-12.3318914-.7945478-.4567548-1.6806424-.6848875-2.5662475-.6848875ZM907.3065355,480.2059925c-.3363243,0-.6741173.0328002-1.0094625.0998692-.4792744.0959528-.9756832.1698756-1.4760084.2207893-1.2400429.1248365-2.392945.6956577-3.2442812,1.6062301-1.7222546,1.8412165-4.8206485,5.4423833-7.0833718,8.072273-1.1592663,1.3462764-2.2005499,2.5564564-3.1404956,3.6378835-.9859638,1.1333199-1.4275425,2.6406599-1.2101801,4.126949.217852,1.4857995,1.0731046,2.8031921,2.3425209,3.606552,3.9438554,2.4957516,8.2906146,5.5153271,10.6243234,8.984314.9751936,1.4495725,2.5921939,2.2759414,4.2747946,2.2764309.5032626,0,1.0119103-.0739228,1.5112564-.2276431,2.1697079-.6657949,3.6476746-2.6729705,3.6398417-4.9420581l-.0773497-22.3276261c-.0053851-1.5401401-.6995741-2.9970559-1.8921302-3.97176-.9277068-.7578312-2.081588-1.1622037-3.2594574-1.1622037Z" fill="#fff"/>
    </g>
  </g>
</svg>