<?xml version="1.0" encoding="UTF-8"?>
<svg xmlns="http://www.w3.org/2000/svg" version="1.1" viewBox="0 0 1080 1080">
  <!-- Generator: Adobe Illustrator 28.7.3, SVG Export Plug-In . SVG Version: 1.2.0 Build 164)  -->
  <g>
    <g id="slasherparty">
      <path d="M322.4023438,613.3725586h7.0830078v21.9516602h-18.6811523v-.0009766h-18.0668945v-76.519043h29.6650391v54.5683594ZM781.8974609,444.6757812l-31.5556641,37.734375v34.2182617h12.1235352l-12.1235352,14.4970703v34.2182617h0v.0004883h60.171875v-29.6655273h-35.3642578l15.9316406-19.050293,13.7753906-16.4726562v-13.1923828h-29.706543l35.3637695-42.2875977h-28.6162109ZM803.2236328,635.3232422h7.2900391v-62.0161133h-7.2900391v62.0161133ZM940,499.8242188v-55.1484375h-121.2900391v55.1484375h45.8125v105.8339844h-45.8125v29.6650391h121.2900391v-29.6650391h-45.8125v-105.8339844h45.8125ZM311.9155273,486.3920898h17.7529297v65.9003906h-121.9946289v-65.9003906h104.2416992ZM262.8276367,508.3432617l5.8432617,5.84375,5.84375-5.84375h-11.6870117ZM252.5170898,530.3408203l10.9990234-10.9985352-10.9990234-10.9990234h-15.1787109v21.9975586h15.1787109ZM274.5146484,530.3408203l-5.84375-5.84375-5.8432617,5.84375h11.6870117ZM300.003418,508.3432617h-15.1787109l-10.9985352,10.9990234,10.9985352,10.9985352h15.1787109v-21.9975586ZM279.8706055,609.5625h5.4326172v-21.9511719h-5.4326172v-3.8105469h5.4326172v-21.9516602h-5.4326172v-3.0449219h-29.6650391v76.519043h18.0668945v.0009766h18.6811523v-21.9516602h-7.0830078v-3.8100586ZM260.269043,479.8798828h32.4682617l-7.8305664-17.6020508,7.8305664-17.6020508h-32.4682617l-7.8305664,17.6020508,7.8305664,17.6020508ZM297.1899414,479.8798828h32.4682617l-7.8305664-17.6020508,7.8305664-17.6020508h-32.4682617l-7.8305664,17.6020508,7.8305664,17.6020508ZM223.3481445,479.8798828h32.4682617l-7.8300781-17.6020508,7.8300781-17.6020508h-32.4682617l-7.8305664,17.6020508,7.8305664,17.6020508ZM194.8696289,444.6757812h-8.4418945l-7.8603516,17.6679688-6.7880859-17.6679688h-31.7792969l20.7402344,53.980957h-20.7402344v29.6650391h23.9492188v22.5507812h-23.9492188v30.949707h23.9492188v23.8359375h-16.0644531v29.6650391h45.7294922v-133.8178711l25.28125-56.8295898h-24.0258789ZM237.3383789,609.5625h5.4331055v-21.9511719h-5.4331055v-3.8105469h5.4331055v-21.9516602h-5.4331055v-3.0449219h-29.6645508v76.519043h18.0668945v.0009766h18.6811523v-21.9516602h-7.0834961v-3.8100586ZM562.1542969,635.3232422h29.6650391v-62.0161133h-29.6650391v62.0161133ZM447.7368164,526.484375h29.6650391v-52.1435547h21.4257812v52.1435547h29.6655273v-.0009766h4.6162109v-29.6650391h-4.6162109v-52.1425781h-80.7563477v81.8085938ZM508.2514648,598.0375977l24.8666992,37.2856445h-35.6572266l-7.0380859-10.5527344-7.0380859,10.5527344h-35.65625l24.8662109-37.2856445-24.8579102-37.2724609v-29.6655273h85.3725586v29.6655273l-24.8579102,37.2724609ZM497.4521484,560.7651367h-14.0585938l7.0292969,10.5395508,7.0292969-10.5395508ZM599.7822266,635.3232422h7.2910156v-62.0161133h-7.2910156v62.0161133ZM726.0708008,444.6757812h10.4882812v190.6474609h-29.6655273v-16.1757812h-56.0961914v-44.9628906h-6.0961914v61.1386719h-29.6650391v-190.6474609h111.034668ZM669.2246094,474.3408203l6.5727539,24.7636719,6.5732422-24.7636719h-13.1459961ZM644.7011719,499.8242188h8.5756836l-6.7641602-25.4833984h-1.8115234v25.4833984ZM706.8935547,574.1845703h-26.4306641v15.2978516h26.4306641v-15.2978516ZM706.8935547,529.4897461h-62.1923828v15.0297852h17.9238281v-8.2363281h29.6650391v8.2363281h14.6035156v-15.0297852ZM706.8935547,474.3408203h-1.8115234l-6.7641602,25.4833984h8.5756836v-25.4833984ZM578.456543,444.6757812l-31.5556641,37.734375v34.2182617h12.1235352l-12.1235352,14.4970703v34.21875h60.1723633v-29.6655273h-35.3642578l15.9306641-19.050293,13.7758789-16.4726562v-13.1923828h-29.706543l35.3642578-42.2875977h-28.6166992ZM750.3417969,635.3232422h7.2905273v-62.0161133h-7.2905273v62.0161133ZM546.9008789,635.3232422h7.2905273v-62.0161133h-7.2905273v62.0161133ZM385.4042969,507.0083008l10.1894531-10.1899414,10.1904297,10.1899414h41.9526367l-31.1665039-31.1665039,31.1665039-31.1660156h-41.953125l-10.1899414,10.1899414-10.1894531-10.1899414h-41.9526367l31.1660156,31.1660156-31.1660156,31.1665039h41.9526367ZM765.5952148,635.3232422h29.6655273v-62.0161133h-29.6655273v62.0161133ZM415.0429688,630.706543h21.9521484v-69.940918h-21.9521484v69.940918ZM354.1933594,608.7553711h-4.6162109v21.9516602h22.2900391v-.0004883h4.277832v-69.940918h-21.9516602v47.9897461ZM436.9951172,517.6621094h-21.9521484v8.8222656h-4.6162109v-13.4389648h-29.6650391v13.4389648h-31.1845703v29.6650391h31.1845703v79.1738281h29.6650391v-79.1738281h31.184082v-29.6650391h-4.6157227v-8.8222656Z" fill="#fff"/>
    </g>
  </g>
</svg>